%TF.GenerationSoftware,KiCad,Pcbnew,(5.1.6)-1*%
%TF.CreationDate,2020-12-09T10:59:39+01:00*%
%TF.ProjectId,CanSat,43616e53-6174-42e6-9b69-6361645f7063,rev?*%
%TF.SameCoordinates,Original*%
%TF.FileFunction,Copper,L3,Inr*%
%TF.FilePolarity,Positive*%
%FSLAX46Y46*%
G04 Gerber Fmt 4.6, Leading zero omitted, Abs format (unit mm)*
G04 Created by KiCad (PCBNEW (5.1.6)-1) date 2020-12-09 10:59:39*
%MOMM*%
%LPD*%
G01*
G04 APERTURE LIST*
%TA.AperFunction,ViaPad*%
%ADD10C,5.400000*%
%TD*%
%TA.AperFunction,ViaPad*%
%ADD11C,0.800000*%
%TD*%
%TA.AperFunction,ViaPad*%
%ADD12O,1.700000X1.700000*%
%TD*%
%TA.AperFunction,ViaPad*%
%ADD13R,1.700000X1.700000*%
%TD*%
%TA.AperFunction,ViaPad*%
%ADD14O,1.200000X1.750000*%
%TD*%
%TA.AperFunction,ViaPad*%
%ADD15O,0.850000X0.850000*%
%TD*%
%TA.AperFunction,ViaPad*%
%ADD16R,0.850000X0.850000*%
%TD*%
%TA.AperFunction,ViaPad*%
%ADD17C,1.400000*%
%TD*%
%TA.AperFunction,ViaPad*%
%ADD18R,1.508000X1.508000*%
%TD*%
%TA.AperFunction,ViaPad*%
%ADD19C,1.508000*%
%TD*%
%TA.AperFunction,ViaPad*%
%ADD20C,3.316000*%
%TD*%
%TA.AperFunction,ViaPad*%
%ADD21C,0.450000*%
%TD*%
%TA.AperFunction,ViaPad*%
%ADD22C,0.600000*%
%TD*%
%TA.AperFunction,Conductor*%
%ADD23C,0.508000*%
%TD*%
%TA.AperFunction,Conductor*%
%ADD24C,0.254000*%
%TD*%
%TA.AperFunction,Conductor*%
%ADD25C,1.016000*%
%TD*%
%TA.AperFunction,Conductor*%
%ADD26C,0.200000*%
%TD*%
%TA.AperFunction,Conductor*%
%ADD27C,0.762000*%
%TD*%
%TA.AperFunction,Conductor*%
%ADD28C,0.250000*%
%TD*%
G04 APERTURE END LIST*
D10*
%TO.N,GND*%
%TO.C,H3*%
X226500000Y-81500000D03*
D11*
X228525000Y-81500000D03*
X227931891Y-82931891D03*
X226500000Y-83525000D03*
X225068109Y-82931891D03*
X224475000Y-81500000D03*
X225068109Y-80068109D03*
X226500000Y-79475000D03*
X227931891Y-80068109D03*
%TD*%
D12*
%TO.N,GND*%
%TO.C,J7*%
X198437500Y-34988500D03*
D13*
X198437500Y-32448500D03*
%TD*%
D12*
%TO.N,GND*%
%TO.C,J6*%
X188531500Y-34988500D03*
D13*
X188531500Y-32448500D03*
%TD*%
%TO.N,GND*%
%TO.C,J10*%
X233045000Y-55245000D03*
D12*
%TO.N,Net-(J10-Pad2)*%
X233045000Y-52705000D03*
%TO.N,+5V*%
X233045000Y-50165000D03*
%TD*%
D14*
%TO.N,+3V3*%
%TO.C,J12*%
X210980000Y-80327500D03*
%TO.N,GND*%
X212980000Y-80327500D03*
%TO.N,VBAT*%
X214980000Y-80327500D03*
%TO.N,GND*%
X216980000Y-80327500D03*
%TO.N,+5V*%
X218980000Y-80327500D03*
%TA.AperFunction,ViaPad*%
G36*
G01*
X221580000Y-79702499D02*
X221580000Y-80952501D01*
G75*
G02*
X221330001Y-81202500I-249999J0D01*
G01*
X220629999Y-81202500D01*
G75*
G02*
X220380000Y-80952501I0J249999D01*
G01*
X220380000Y-79702499D01*
G75*
G02*
X220629999Y-79452500I249999J0D01*
G01*
X221330001Y-79452500D01*
G75*
G02*
X221580000Y-79702499I0J-249999D01*
G01*
G37*
%TD.AperFunction*%
%TD*%
D15*
%TO.N,/RPi CM4/GPIO_5*%
%TO.C,J17*%
X222800000Y-64400000D03*
%TO.N,/RPi CM4/GPIO_6*%
X222800000Y-65400000D03*
%TO.N,/RPi CM4/GPIO_13*%
X222800000Y-66400000D03*
%TO.N,/RPi CM4/GPIO_19*%
X222800000Y-67400000D03*
%TO.N,/RPi CM4/GPIO_26*%
X222800000Y-68400000D03*
D16*
%TO.N,GND*%
X222800000Y-69400000D03*
%TD*%
D17*
%TO.N,/RPi CM4/nRPI_BOOT*%
%TO.C,JP4*%
X223266000Y-48895000D03*
%TO.N,GND*%
X223266000Y-51435000D03*
%TD*%
D18*
%TO.N,+5V*%
%TO.C,P1*%
X206685000Y-36830000D03*
D19*
%TO.N,/RPi CM4/CONN_USB-*%
X209185000Y-36830000D03*
%TO.N,/RPi CM4/CONN_USB+*%
X211185000Y-36830000D03*
%TO.N,GND*%
X213685000Y-36830000D03*
D20*
%TO.N,N/C*%
X203615000Y-34120000D03*
X216755000Y-34120000D03*
%TD*%
D10*
%TO.N,GND*%
%TO.C,H1*%
X193500000Y-33500000D03*
D11*
X195525000Y-33500000D03*
X194931891Y-34931891D03*
X193500000Y-35525000D03*
X192068109Y-34931891D03*
X191475000Y-33500000D03*
X192068109Y-32068109D03*
X193500000Y-31475000D03*
X194931891Y-32068109D03*
%TD*%
%TO.N,GND*%
%TO.C,H2*%
X227931891Y-32068109D03*
X226500000Y-31475000D03*
X225068109Y-32068109D03*
X224475000Y-33500000D03*
X225068109Y-34931891D03*
X226500000Y-35525000D03*
X227931891Y-34931891D03*
X228525000Y-33500000D03*
D10*
X226500000Y-33500000D03*
%TD*%
D11*
%TO.N,GND*%
%TO.C,H4*%
X194931891Y-80068109D03*
X193500000Y-79475000D03*
X192068109Y-80068109D03*
X191475000Y-81500000D03*
X192068109Y-82931891D03*
X193500000Y-83525000D03*
X194931891Y-82931891D03*
X195525000Y-81500000D03*
D10*
X193500000Y-81500000D03*
%TD*%
D21*
%TO.N,GND*%
X223202500Y-41338500D03*
X221551500Y-42227500D03*
D22*
X198755000Y-52705000D03*
X213550500Y-39497000D03*
D21*
X202374500Y-42164000D03*
D22*
X188404500Y-50609500D03*
X200850500Y-43688000D03*
X200914000Y-49403000D03*
X187325000Y-37846000D03*
X186118500Y-37846000D03*
X187071000Y-53340000D03*
X187007500Y-57150000D03*
X187007500Y-55880000D03*
X214312500Y-49911000D03*
X216154000Y-52324000D03*
X211709000Y-49339500D03*
X212725000Y-48069500D03*
X210248500Y-52514500D03*
X209423000Y-50990500D03*
D21*
X209613500Y-44831000D03*
X205803500Y-44259500D03*
D22*
X208597500Y-62166500D03*
X207645000Y-61531500D03*
X205803500Y-79502000D03*
X208915000Y-76327000D03*
X208915000Y-75501500D03*
X193738500Y-67119500D03*
D21*
X189547500Y-79438500D03*
D22*
X216090500Y-62484000D03*
X221234000Y-62484000D03*
X221234000Y-60896500D03*
D21*
X218376500Y-56832500D03*
X218376500Y-41910000D03*
X219900500Y-48260000D03*
D22*
X192913000Y-74358500D03*
X191643000Y-74358500D03*
X192913000Y-73533000D03*
X191643000Y-73533000D03*
X188849000Y-76644500D03*
X187388500Y-76644500D03*
X186563000Y-75184000D03*
X188785500Y-73660000D03*
X187388500Y-73660000D03*
X188785500Y-62103000D03*
D21*
X232410000Y-35052000D03*
D22*
X231330500Y-75438000D03*
D21*
X218884500Y-76073000D03*
D22*
X210629500Y-76073000D03*
X231457500Y-46863000D03*
X229235000Y-46863000D03*
X233172000Y-46863000D03*
X233108500Y-39243000D03*
X231521000Y-39243000D03*
X229235000Y-40513000D03*
X227584000Y-40513000D03*
X189420500Y-48006000D03*
D21*
X205740000Y-40513000D03*
X219075000Y-38735000D03*
X221869000Y-38481000D03*
X189674500Y-74231500D03*
X188595000Y-74803000D03*
X188595000Y-75565000D03*
X190881000Y-74993500D03*
X190500000Y-74358500D03*
X193675000Y-75057000D03*
X193675000Y-76009500D03*
X193675000Y-77025500D03*
X192659000Y-77152500D03*
X191643000Y-77152500D03*
X190627000Y-76898500D03*
X189738000Y-76581000D03*
D22*
X217868500Y-68679000D03*
X208597500Y-59182000D03*
D21*
X193484500Y-45593000D03*
X193484500Y-47371000D03*
X193484500Y-49784000D03*
X193484500Y-52197000D03*
X193484500Y-54546500D03*
X193548000Y-59372500D03*
X193865500Y-61785500D03*
X193865500Y-63627000D03*
D22*
X203644500Y-56642000D03*
X203327000Y-58864500D03*
D21*
X193484500Y-55880000D03*
X219011500Y-53467000D03*
X227393500Y-52006500D03*
X225552000Y-58801000D03*
X225488500Y-60769500D03*
X229616000Y-60722000D03*
X225234500Y-65214500D03*
X228122600Y-65201538D03*
X225552000Y-63627000D03*
X224345500Y-56832500D03*
X224218500Y-45593000D03*
X194500000Y-41000000D03*
X224293142Y-54800105D03*
X227330000Y-62992000D03*
X227266500Y-58420000D03*
%TO.N,Net-(C1-Pad1)*%
X190309500Y-68643500D03*
D22*
%TO.N,+5V*%
X203454000Y-40513000D03*
D21*
X225488500Y-40068500D03*
X228282500Y-49530000D03*
X227838000Y-48768000D03*
X228282500Y-48006000D03*
D22*
X229616000Y-59690000D03*
X227520500Y-39243000D03*
%TO.N,+3V3*%
X205613000Y-69723000D03*
D21*
X231140000Y-33909000D03*
X231140000Y-35052000D03*
D22*
X227520500Y-37973000D03*
X192659000Y-42037000D03*
X189420500Y-45783500D03*
X186944000Y-63944500D03*
X187896500Y-58420000D03*
X189230000Y-64135000D03*
X189293500Y-70104000D03*
X198247000Y-79248000D03*
X192849500Y-71945500D03*
X191643000Y-71945500D03*
D21*
X202565000Y-43815000D03*
X217805000Y-59309000D03*
X206852000Y-57459000D03*
D22*
X217932000Y-64008000D03*
X217868500Y-62484000D03*
X206883000Y-60134500D03*
X185967000Y-45109500D03*
X185967000Y-49333000D03*
X216789000Y-70739000D03*
X216058750Y-71532750D03*
X217822750Y-60878750D03*
D21*
X218821000Y-42608500D03*
X217868500Y-57404000D03*
X187579000Y-82804000D03*
X219456000Y-48831500D03*
X219392500Y-52768500D03*
D22*
X215328500Y-39497000D03*
X232473500Y-63436500D03*
D21*
X229277934Y-73385434D03*
X229298500Y-75184000D03*
D22*
X232664000Y-82486500D03*
X230378000Y-82486500D03*
D21*
X220095247Y-41095247D03*
%TO.N,Net-(C7-Pad1)*%
X205177000Y-44784000D03*
%TO.N,/STM32 MCU/OSC_IN*%
X215900000Y-49276000D03*
%TO.N,/STM32 MCU/VDDA*%
X219900500Y-54292500D03*
X219456000Y-60896500D03*
%TO.N,/STM32 MCU/VREF*%
X220472000Y-53784500D03*
X217900250Y-66960750D03*
%TO.N,Net-(F1-Pad1)*%
X200406000Y-77343000D03*
X203708000Y-75311000D03*
%TO.N,/Peripherals and Connectors/DS_EXTERNAL*%
X206756000Y-74993500D03*
X194500500Y-77851000D03*
X186944000Y-62244000D03*
X205613000Y-71487000D03*
X209867500Y-60960000D03*
%TO.N,Net-(J4-Pad2)*%
X207010000Y-77343000D03*
%TO.N,Net-(J4-Pad3)*%
X205359000Y-77343000D03*
X203708000Y-77343000D03*
%TO.N,Net-(J4-Pad4)*%
X202057000Y-77343000D03*
D22*
%TO.N,VBAT*%
X233172000Y-37973000D03*
D21*
%TO.N,/Peripherals and Connectors/MISO*%
X230554699Y-55562500D03*
X232328000Y-40513000D03*
X227325456Y-56424231D03*
%TO.N,/Peripherals and Connectors/MOSI*%
X227262900Y-55499000D03*
X230140799Y-54869777D03*
X230759000Y-41402000D03*
%TO.N,/Peripherals and Connectors/SDA*%
X230568500Y-70104000D03*
X229933569Y-50800069D03*
X231172900Y-59944000D03*
%TO.N,/Peripherals and Connectors/CLK*%
X232328000Y-43053000D03*
X230968599Y-54832237D03*
X227266500Y-57404000D03*
D11*
%TO.N,/Peripherals and Connectors/SCL*%
X232537000Y-76962000D03*
X230378000Y-78740000D03*
D21*
X229108000Y-49911000D03*
X230759000Y-60960000D03*
X229870000Y-69024500D03*
X229235000Y-70675500D03*
%TO.N,/RPi CM4/CE0*%
X232328000Y-44323000D03*
X231394000Y-54102000D03*
X228727000Y-57246400D03*
%TO.N,/RPi CM4/CE1*%
X232328000Y-45593000D03*
X228854000Y-58229500D03*
X231838500Y-55245000D03*
%TO.N,/Power/PWR_CRITICAL*%
X213296500Y-64262000D03*
X211836000Y-58737500D03*
%TO.N,/Power/PWR_WARN*%
X213741000Y-63690500D03*
X212407500Y-59309000D03*
%TO.N,/Power/PWR_VALID*%
X214376000Y-64643000D03*
X212852000Y-59880500D03*
D11*
%TO.N,/STM32 MCU/SD_DAT1*%
X189611000Y-50165000D03*
D21*
X202946000Y-50673000D03*
X203835000Y-48387000D03*
D11*
%TO.N,/STM32 MCU/SD_DAT0*%
X189611000Y-49085500D03*
%TO.N,/STM32 MCU/SD_CLK*%
X189611000Y-46863000D03*
%TO.N,/STM32 MCU/SD_CMD*%
X189611000Y-44640500D03*
D21*
X210312000Y-40830500D03*
D11*
%TO.N,/STM32 MCU/SD_DAT3*%
X190055500Y-43561000D03*
D21*
X208661000Y-40259000D03*
D11*
%TO.N,/STM32 MCU/SD_DAT2*%
X189611000Y-42481500D03*
D21*
X207835500Y-40957500D03*
%TO.N,/RPi CM4/GLOBAL_EN*%
X219448801Y-43493900D03*
%TO.N,/RPi CM4/nRPI_BOOT*%
X227012500Y-46228000D03*
%TO.N,Net-(J15-Pad92)*%
X225415174Y-46796646D03*
%TO.N,/RPi CM4/RPI_TX*%
X227266500Y-53911500D03*
X221869000Y-53657500D03*
X207962500Y-47752000D03*
%TO.N,/RPi CM4/RPI_RX*%
X227266500Y-54737000D03*
X207506900Y-48323500D03*
X221805500Y-54356000D03*
%TO.N,/RPi CM4/GPIO_5*%
X224400000Y-58400000D03*
%TO.N,/RPi CM4/GPIO_6*%
X224091500Y-59055000D03*
%TO.N,/RPi CM4/GPIO_13*%
X224155000Y-59753500D03*
%TO.N,/RPi CM4/GPIO_19*%
X225488500Y-60007500D03*
%TO.N,/RPi CM4/GPIO_26*%
X224282000Y-60642500D03*
%TO.N,/RPi CM4/USB-*%
X196301558Y-42700558D03*
%TO.N,/RPi CM4/USB+*%
X197167500Y-43561000D03*
%TO.N,/Peripherals and Connectors/DEPLOY*%
X210375500Y-58928000D03*
%TO.N,/STM32 MCU/SWDIO*%
X201485500Y-51816000D03*
X203454000Y-45275500D03*
%TO.N,/STM32 MCU/SWCLK*%
X203771405Y-42282224D03*
X199707500Y-57277000D03*
%TO.N,/STM32 MCU/NRST*%
X200977500Y-55689500D03*
X215265000Y-54102000D03*
%TO.N,/STM32 MCU/OSC_OUT*%
X218313000Y-50165000D03*
%TO.N,/STM32 MCU/SWO*%
X200279000Y-56388000D03*
X207137000Y-53022500D03*
%TO.N,/STM32 MCU/BOOT0*%
X215963500Y-43434000D03*
%TO.N,Net-(R32-Pad2)*%
X232410000Y-33909000D03*
X232170000Y-64770000D03*
%TO.N,/Peripherals and Connectors/RADIO_MOSI*%
X211074000Y-64262000D03*
X211041100Y-65880100D03*
%TO.N,/Peripherals and Connectors/RADIO_MISO*%
X210565853Y-66421078D03*
X210566000Y-65151000D03*
%TO.N,/Peripherals and Connectors/RADIO_RST*%
X204757161Y-67978161D03*
X204724000Y-66802000D03*
X214438100Y-59817000D03*
X215265900Y-58801000D03*
%TD*%
D23*
%TO.N,+5V*%
X229616000Y-59690000D02*
X226441000Y-59690000D01*
D24*
X226822000Y-48006000D02*
X226441000Y-47625000D01*
X226504500Y-48387000D02*
X226441000Y-48323500D01*
D25*
X226441000Y-48323500D02*
X226441000Y-47625000D01*
D24*
X226568000Y-49212500D02*
X226441000Y-49085500D01*
D25*
X226441000Y-49085500D02*
X226441000Y-48323500D01*
D23*
X226441000Y-47625000D02*
X226441000Y-40005000D01*
X226377500Y-40068500D02*
X226441000Y-40005000D01*
X225488500Y-40068500D02*
X226377500Y-40068500D01*
X226377500Y-40068500D02*
X226377500Y-39624000D01*
X226758500Y-39243000D02*
X227520500Y-39243000D01*
X226377500Y-39624000D02*
X226758500Y-39243000D01*
D25*
X206685000Y-36830000D02*
X206685000Y-40241586D01*
D23*
X206685000Y-40408494D02*
X206685000Y-40241586D01*
X206012593Y-41080901D02*
X206685000Y-40408494D01*
X204021901Y-41080901D02*
X206012593Y-41080901D01*
X203454000Y-40513000D02*
X204021901Y-41080901D01*
X229067006Y-50863500D02*
X226441000Y-50863500D01*
X229765506Y-50165000D02*
X229067006Y-50863500D01*
X233045000Y-50165000D02*
X229765506Y-50165000D01*
D25*
X226441000Y-59690000D02*
X226441000Y-50863500D01*
X226441000Y-50863500D02*
X226441000Y-49085500D01*
X207708500Y-64780139D02*
X207708500Y-64770000D01*
X205986099Y-63057738D02*
X207708500Y-64780139D01*
X205986099Y-50030099D02*
X205986099Y-57094401D01*
X206685000Y-40408494D02*
X206685000Y-49331198D01*
X206685000Y-49331198D02*
X205986099Y-50030099D01*
D23*
X227520500Y-39243000D02*
X227520500Y-39243000D01*
D25*
X218980000Y-80327500D02*
X220980000Y-80327500D01*
X226441000Y-68453000D02*
X226441000Y-59690000D01*
X220980000Y-73914000D02*
X226441000Y-68453000D01*
X220920099Y-75251099D02*
X220980000Y-75311000D01*
X207708500Y-64780139D02*
X218179460Y-75251099D01*
X220980000Y-80327500D02*
X220980000Y-75311000D01*
X218179460Y-75251099D02*
X220920099Y-75251099D01*
X220980000Y-75311000D02*
X220980000Y-73914000D01*
X205986099Y-57094401D02*
X205986099Y-63057738D01*
D26*
X226758500Y-48006000D02*
X226441000Y-48323500D01*
X228282500Y-48006000D02*
X226758500Y-48006000D01*
X226758500Y-48768000D02*
X226441000Y-49085500D01*
X227838000Y-48768000D02*
X226758500Y-48768000D01*
X226885500Y-49530000D02*
X226441000Y-49085500D01*
X228282500Y-49530000D02*
X226885500Y-49530000D01*
D23*
%TO.N,+3V3*%
X212293182Y-60134500D02*
X217049341Y-64890659D01*
X206883000Y-60134500D02*
X212293182Y-60134500D01*
X191643000Y-71945500D02*
X192849500Y-71945500D01*
X198247000Y-77343000D02*
X192849500Y-71945500D01*
X189230000Y-70040500D02*
X189293500Y-70104000D01*
X189230000Y-64135000D02*
X189230000Y-70040500D01*
X189801500Y-70104000D02*
X191643000Y-71945500D01*
X189293500Y-70104000D02*
X189801500Y-70104000D01*
X187896500Y-62801500D02*
X189230000Y-64135000D01*
X187896500Y-58420000D02*
X187896500Y-62801500D01*
X187896500Y-62992000D02*
X187896500Y-62801500D01*
X186944000Y-63944500D02*
X187896500Y-62992000D01*
X189844764Y-45783500D02*
X189420500Y-45783500D01*
X192659000Y-42969264D02*
X189844764Y-45783500D01*
X192659000Y-42037000D02*
X192659000Y-42969264D01*
X187452000Y-45783500D02*
X185967000Y-47268500D01*
X189420500Y-45783500D02*
X187452000Y-45783500D01*
X185967000Y-45109500D02*
X185967000Y-47268500D01*
X185967000Y-47268500D02*
X185967000Y-49333000D01*
X187896500Y-51262500D02*
X185967000Y-49333000D01*
X187896500Y-58420000D02*
X187896500Y-51262500D01*
X200787000Y-42037000D02*
X202565000Y-43815000D01*
X192659000Y-42037000D02*
X200787000Y-42037000D01*
D27*
X202251099Y-44128901D02*
X202251099Y-70036901D01*
X202565000Y-43815000D02*
X202251099Y-44128901D01*
X198247000Y-74041000D02*
X198247000Y-77343000D01*
X202251099Y-70036901D02*
X198247000Y-74041000D01*
D23*
X227520500Y-37973000D02*
X223217494Y-37973000D01*
D27*
X199326500Y-80327500D02*
X198247000Y-79248000D01*
X210980000Y-80327500D02*
X199326500Y-80327500D01*
X216058750Y-71532750D02*
X216535000Y-71056500D01*
X217049341Y-70542159D02*
X216058750Y-71532750D01*
X217049341Y-68332341D02*
X217049341Y-70542159D01*
X217049341Y-64890659D02*
X217932000Y-64008000D01*
X217049341Y-68332341D02*
X217049341Y-64890659D01*
X217932000Y-62547500D02*
X217868500Y-62484000D01*
X217932000Y-64008000D02*
X217932000Y-62547500D01*
D23*
X210980000Y-81710500D02*
X213153000Y-83883500D01*
X210980000Y-80327500D02*
X210980000Y-81710500D01*
D24*
X231140000Y-33909000D02*
X231140000Y-35052000D01*
X230441500Y-35052000D02*
X227520500Y-37973000D01*
X231140000Y-35052000D02*
X230441500Y-35052000D01*
D23*
X221424500Y-39497000D02*
X221558997Y-39631497D01*
X215265000Y-39497000D02*
X215328500Y-39497000D01*
X223217494Y-37973000D02*
X221558997Y-39631497D01*
X221558997Y-39631497D02*
X220095247Y-41095247D01*
X220042494Y-41387006D02*
X218821000Y-42608500D01*
X220042494Y-41148000D02*
X220042494Y-41387006D01*
X217868500Y-57404000D02*
X217868500Y-62484000D01*
X218821000Y-42608500D02*
X218880901Y-42604901D01*
X217643501Y-51674993D02*
X218880901Y-50437593D01*
X217868500Y-57404000D02*
X217643501Y-57179001D01*
D26*
X205299099Y-70036901D02*
X205613000Y-69723000D01*
X202251099Y-70036901D02*
X205299099Y-70036901D01*
D24*
X198179901Y-78291901D02*
X198247000Y-78359000D01*
X192091099Y-78291901D02*
X198179901Y-78291901D01*
X187579000Y-82804000D02*
X192091099Y-78291901D01*
D27*
X198247000Y-79248000D02*
X198247000Y-78359000D01*
X198247000Y-78359000D02*
X198247000Y-77343000D01*
D24*
X218880901Y-48827901D02*
X219452401Y-48827901D01*
X219452401Y-48827901D02*
X219456000Y-48831500D01*
D23*
X218880901Y-48827901D02*
X218880901Y-50437593D01*
X218880901Y-42604901D02*
X218880901Y-48827901D01*
D24*
X217736002Y-52768500D02*
X217643501Y-52675999D01*
D23*
X217643501Y-57179001D02*
X217643501Y-52675999D01*
D24*
X219392500Y-52768500D02*
X217736002Y-52768500D01*
D23*
X217643501Y-52675999D02*
X217643501Y-51674993D01*
X215328500Y-39497000D02*
X221424500Y-39497000D01*
D24*
X232765590Y-64152854D02*
X232765590Y-69342000D01*
X232473500Y-63436500D02*
X232473500Y-63860764D01*
X230378000Y-79651534D02*
X230378000Y-82486500D01*
X229298500Y-75184000D02*
X229298500Y-78572034D01*
X232765590Y-69342000D02*
X232765590Y-69897778D01*
X232473500Y-63860764D02*
X232765590Y-64152854D01*
X229298500Y-78572034D02*
X230378000Y-79651534D01*
X232765590Y-69897778D02*
X229277934Y-73385434D01*
D23*
X230378000Y-82804000D02*
X230378000Y-82486500D01*
X232664000Y-82486500D02*
X230378000Y-82486500D01*
X228639099Y-84542901D02*
X230378000Y-82804000D01*
X225039407Y-84542901D02*
X228639099Y-84542901D01*
X224380006Y-83883500D02*
X225039407Y-84542901D01*
X213153000Y-83883500D02*
X224380006Y-83883500D01*
X220095247Y-41095247D02*
X220042494Y-41148000D01*
%TO.N,/STM32 MCU/VDDA*%
X219900500Y-60452000D02*
X219456000Y-60896500D01*
X219900500Y-54292500D02*
X219900500Y-60452000D01*
%TO.N,/STM32 MCU/VREF*%
X218859091Y-66001909D02*
X217900250Y-66960750D01*
X218859091Y-60604409D02*
X218859091Y-66001909D01*
X220472000Y-53784500D02*
X220383090Y-53695590D01*
X220383090Y-53695590D02*
X219653252Y-53695590D01*
X219303590Y-60159910D02*
X218859091Y-60604409D01*
X219653252Y-53695590D02*
X219303590Y-54045252D01*
X219303590Y-54045252D02*
X219303590Y-60159910D01*
%TO.N,VBAT*%
X234237901Y-39038901D02*
X233172000Y-37973000D01*
X234237901Y-59576599D02*
X234237901Y-39038901D01*
X233235500Y-60579000D02*
X234237901Y-59576599D01*
X214980000Y-80327500D02*
X216885000Y-82232500D01*
X216885000Y-82232500D02*
X221234000Y-82232500D01*
X233235500Y-70231000D02*
X233235500Y-60579000D01*
X221234000Y-82232500D02*
X233235500Y-70231000D01*
D28*
%TO.N,/RPi CM4/GPIO_5*%
X224081802Y-58400000D02*
X224400000Y-58400000D01*
X222800000Y-59681802D02*
X224081802Y-58400000D01*
X222800000Y-64400000D02*
X222800000Y-59681802D01*
%TO.N,/RPi CM4/GPIO_6*%
X224056012Y-59055000D02*
X224091500Y-59055000D01*
X222800000Y-65400000D02*
X223438901Y-64761099D01*
X223438901Y-64761099D02*
X223438901Y-64093327D01*
X223438901Y-64093327D02*
X223139000Y-63793426D01*
X223139000Y-63793426D02*
X223139001Y-59972011D01*
X223139001Y-59972011D02*
X224056012Y-59055000D01*
%TO.N,/RPi CM4/GPIO_13*%
X223836802Y-59753500D02*
X224155000Y-59753500D01*
X222800000Y-66400000D02*
X223777811Y-65422189D01*
X223777811Y-63952946D02*
X223477910Y-63653046D01*
X223777811Y-65422189D02*
X223777811Y-63952946D01*
X223477910Y-60112392D02*
X223836802Y-59753500D01*
X223477910Y-63653046D02*
X223477910Y-60112392D01*
%TO.N,/RPi CM4/GPIO_19*%
X225488500Y-60007500D02*
X225292401Y-60203599D01*
X224022401Y-60203599D02*
X223816820Y-60409180D01*
X225292401Y-60203599D02*
X224022401Y-60203599D01*
X224116721Y-66083279D02*
X222800000Y-67400000D01*
X224116721Y-61126795D02*
X224116721Y-66083279D01*
X223816820Y-60826894D02*
X224116721Y-61126795D01*
X223816820Y-60409180D02*
X223816820Y-60826894D01*
%TO.N,/RPi CM4/GPIO_26*%
X224455631Y-66744369D02*
X222800000Y-68400000D01*
X224455631Y-60816131D02*
X224455631Y-66744369D01*
X224282000Y-60642500D02*
X224455631Y-60816131D01*
%TD*%
M02*
