%TF.GenerationSoftware,KiCad,Pcbnew,(5.1.6)-1*%
%TF.CreationDate,2020-12-09T10:59:39+01:00*%
%TF.ProjectId,CanSat,43616e53-6174-42e6-9b69-6361645f7063,rev?*%
%TF.SameCoordinates,Original*%
%TF.FileFunction,Copper,L4,Bot*%
%TF.FilePolarity,Positive*%
%FSLAX46Y46*%
G04 Gerber Fmt 4.6, Leading zero omitted, Abs format (unit mm)*
G04 Created by KiCad (PCBNEW (5.1.6)-1) date 2020-12-09 10:59:39*
%MOMM*%
%LPD*%
G01*
G04 APERTURE LIST*
%TA.AperFunction,ComponentPad*%
%ADD10C,5.400000*%
%TD*%
%TA.AperFunction,ComponentPad*%
%ADD11C,0.800000*%
%TD*%
%TA.AperFunction,SMDPad,CuDef*%
%ADD12R,0.900000X0.400000*%
%TD*%
%TA.AperFunction,SMDPad,CuDef*%
%ADD13R,1.000000X1.000000*%
%TD*%
%TA.AperFunction,SMDPad,CuDef*%
%ADD14R,2.200000X1.050000*%
%TD*%
%TA.AperFunction,ComponentPad*%
%ADD15O,1.700000X1.700000*%
%TD*%
%TA.AperFunction,ComponentPad*%
%ADD16R,1.700000X1.700000*%
%TD*%
%TA.AperFunction,SMDPad,CuDef*%
%ADD17R,2.000000X1.500000*%
%TD*%
%TA.AperFunction,SMDPad,CuDef*%
%ADD18R,1.500000X0.800000*%
%TD*%
%TA.AperFunction,SMDPad,CuDef*%
%ADD19R,1.900000X1.400000*%
%TD*%
%TA.AperFunction,SMDPad,CuDef*%
%ADD20R,1.400000X1.300000*%
%TD*%
%TA.AperFunction,SMDPad,CuDef*%
%ADD21R,1.000000X0.950000*%
%TD*%
%TA.AperFunction,SMDPad,CuDef*%
%ADD22R,2.400000X0.740000*%
%TD*%
%TA.AperFunction,ComponentPad*%
%ADD23O,1.200000X1.750000*%
%TD*%
%TA.AperFunction,ComponentPad*%
%ADD24O,0.850000X0.850000*%
%TD*%
%TA.AperFunction,ComponentPad*%
%ADD25R,0.850000X0.850000*%
%TD*%
%TA.AperFunction,SMDPad,CuDef*%
%ADD26C,0.100000*%
%TD*%
%TA.AperFunction,ComponentPad*%
%ADD27C,1.400000*%
%TD*%
%TA.AperFunction,ComponentPad*%
%ADD28R,1.508000X1.508000*%
%TD*%
%TA.AperFunction,ComponentPad*%
%ADD29C,1.508000*%
%TD*%
%TA.AperFunction,ComponentPad*%
%ADD30C,3.316000*%
%TD*%
%TA.AperFunction,SMDPad,CuDef*%
%ADD31R,0.470000X1.420000*%
%TD*%
%TA.AperFunction,SMDPad,CuDef*%
%ADD32R,1.060000X0.650000*%
%TD*%
%TA.AperFunction,ViaPad*%
%ADD33C,0.450000*%
%TD*%
%TA.AperFunction,ViaPad*%
%ADD34C,0.600000*%
%TD*%
%TA.AperFunction,ViaPad*%
%ADD35C,0.800000*%
%TD*%
%TA.AperFunction,Conductor*%
%ADD36C,0.508000*%
%TD*%
%TA.AperFunction,Conductor*%
%ADD37C,0.254000*%
%TD*%
%TA.AperFunction,Conductor*%
%ADD38C,0.200000*%
%TD*%
%TA.AperFunction,Conductor*%
%ADD39C,0.250000*%
%TD*%
%TA.AperFunction,Conductor*%
%ADD40C,1.016000*%
%TD*%
%TA.AperFunction,Conductor*%
%ADD41C,0.261112*%
%TD*%
G04 APERTURE END LIST*
D10*
%TO.P,H3,1*%
%TO.N,GND*%
X226500000Y-81500000D03*
D11*
X228525000Y-81500000D03*
X227931891Y-82931891D03*
X226500000Y-83525000D03*
X225068109Y-82931891D03*
X224475000Y-81500000D03*
X225068109Y-80068109D03*
X226500000Y-79475000D03*
X227931891Y-80068109D03*
%TD*%
D12*
%TO.P,RN3,5*%
%TO.N,Net-(J13-Pad2)*%
X197016000Y-58096000D03*
%TO.P,RN3,6*%
%TO.N,Net-(J13-Pad4)*%
X197016000Y-57296000D03*
%TO.P,RN3,7*%
%TO.N,Net-(J13-Pad6)*%
X197016000Y-56496000D03*
%TO.P,RN3,8*%
%TO.N,Net-(C12-Pad1)*%
X197016000Y-55696000D03*
%TO.P,RN3,4*%
%TO.N,/STM32 MCU/SWDIO*%
X198716000Y-58096000D03*
%TO.P,RN3,1*%
%TO.N,/STM32 MCU/NRST*%
X198716000Y-55696000D03*
%TO.P,RN3,3*%
%TO.N,/STM32 MCU/SWCLK*%
X198716000Y-57296000D03*
%TO.P,RN3,2*%
%TO.N,/STM32 MCU/SWO*%
X198716000Y-56496000D03*
%TD*%
D13*
%TO.P,J9,1*%
%TO.N,/Peripherals and Connectors/RF_ANT*%
X189587000Y-75184000D03*
%TO.P,J9,2*%
%TO.N,GND*%
X186587000Y-75184000D03*
D14*
X188087000Y-76659000D03*
X188087000Y-73709000D03*
%TD*%
D15*
%TO.P,J7,2*%
%TO.N,GND*%
X198437500Y-34988500D03*
D16*
%TO.P,J7,1*%
X198437500Y-32448500D03*
%TD*%
D15*
%TO.P,J6,2*%
%TO.N,GND*%
X188531500Y-34988500D03*
D16*
%TO.P,J6,1*%
X188531500Y-32448500D03*
%TD*%
%TO.P,F1,1*%
%TO.N,Net-(F1-Pad1)*%
%TA.AperFunction,SMDPad,CuDef*%
G36*
G01*
X198484500Y-81523000D02*
X198009500Y-81523000D01*
G75*
G02*
X197772000Y-81285500I0J237500D01*
G01*
X197772000Y-80710500D01*
G75*
G02*
X198009500Y-80473000I237500J0D01*
G01*
X198484500Y-80473000D01*
G75*
G02*
X198722000Y-80710500I0J-237500D01*
G01*
X198722000Y-81285500D01*
G75*
G02*
X198484500Y-81523000I-237500J0D01*
G01*
G37*
%TD.AperFunction*%
%TO.P,F1,2*%
%TO.N,+3V3*%
%TA.AperFunction,SMDPad,CuDef*%
G36*
G01*
X198484500Y-79773000D02*
X198009500Y-79773000D01*
G75*
G02*
X197772000Y-79535500I0J237500D01*
G01*
X197772000Y-78960500D01*
G75*
G02*
X198009500Y-78723000I237500J0D01*
G01*
X198484500Y-78723000D01*
G75*
G02*
X198722000Y-78960500I0J-237500D01*
G01*
X198722000Y-79535500D01*
G75*
G02*
X198484500Y-79773000I-237500J0D01*
G01*
G37*
%TD.AperFunction*%
%TD*%
D17*
%TO.P,U1,1*%
%TO.N,/Peripherals and Connectors/RF_ANT*%
X192279000Y-75961000D03*
%TO.P,U1,2*%
%TO.N,GND*%
X192279000Y-73961000D03*
%TO.P,U1,3*%
%TO.N,+3V3*%
X192279000Y-71961000D03*
%TO.P,U1,4*%
%TO.N,/Peripherals and Connectors/RADIO_RST*%
X192279000Y-69961000D03*
%TO.P,U1,5*%
%TO.N,/Peripherals and Connectors/RADIO_INT*%
X192279000Y-67961000D03*
%TO.P,U1,6*%
%TO.N,Net-(U1-Pad6)*%
X192279000Y-65961000D03*
%TO.P,U1,7*%
%TO.N,Net-(U1-Pad7)*%
X192279000Y-63961000D03*
%TO.P,U1,8*%
%TO.N,Net-(U1-Pad8)*%
X192279000Y-61961000D03*
%TO.P,U1,9*%
%TO.N,GND*%
X208279000Y-61961000D03*
%TO.P,U1,10*%
%TO.N,Net-(U1-Pad10)*%
X208279000Y-63961000D03*
%TO.P,U1,11*%
%TO.N,Net-(U1-Pad11)*%
X208279000Y-65961000D03*
%TO.P,U1,12*%
%TO.N,/Peripherals and Connectors/RADIO_CLK*%
X208279000Y-67961000D03*
%TO.P,U1,13*%
%TO.N,/Peripherals and Connectors/RADIO_MISO*%
X208279000Y-69961000D03*
%TO.P,U1,14*%
%TO.N,/Peripherals and Connectors/RADIO_MOSI*%
X208279000Y-71961000D03*
%TO.P,U1,15*%
%TO.N,/Peripherals and Connectors/RADIO_NSS*%
X208279000Y-73961000D03*
%TO.P,U1,16*%
%TO.N,GND*%
X208279000Y-75961000D03*
%TD*%
D18*
%TO.P,J14,1*%
%TO.N,/STM32 MCU/SD_DAT2*%
X190015000Y-42510000D03*
%TO.P,J14,2*%
%TO.N,/STM32 MCU/SD_DAT3*%
X190415000Y-43610000D03*
%TO.P,J14,3*%
%TO.N,/STM32 MCU/SD_CMD*%
X190015000Y-44710000D03*
%TO.P,J14,4*%
%TO.N,+3V3*%
X189815000Y-45810000D03*
%TO.P,J14,5*%
%TO.N,/STM32 MCU/SD_CLK*%
X190015000Y-46910000D03*
%TO.P,J14,6*%
%TO.N,GND*%
X189815000Y-48010000D03*
%TO.P,J14,7*%
%TO.N,/STM32 MCU/SD_DAT0*%
X190015000Y-49110000D03*
D19*
%TO.P,J14,S4*%
%TO.N,GND*%
X186725000Y-37850000D03*
D20*
%TO.P,J14,S2*%
X200875000Y-43700000D03*
D21*
%TO.P,J14,SW*%
%TO.N,Net-(J14-PadSW)*%
X201075000Y-48010000D03*
D20*
%TO.P,J14,S1*%
%TO.N,GND*%
X200875000Y-49400000D03*
D19*
%TO.P,J14,S3*%
X187725000Y-51000000D03*
D18*
%TO.P,J14,8*%
%TO.N,/STM32 MCU/SD_DAT1*%
X190015000Y-50210000D03*
%TD*%
%TO.P,J4,1*%
%TO.N,GND*%
%TA.AperFunction,SMDPad,CuDef*%
G36*
G01*
X206135000Y-79130000D02*
X206135000Y-80080000D01*
G75*
G02*
X205985000Y-80230000I-150000J0D01*
G01*
X205685000Y-80230000D01*
G75*
G02*
X205535000Y-80080000I0J150000D01*
G01*
X205535000Y-79130000D01*
G75*
G02*
X205685000Y-78980000I150000J0D01*
G01*
X205985000Y-78980000D01*
G75*
G02*
X206135000Y-79130000I0J-150000D01*
G01*
G37*
%TD.AperFunction*%
%TO.P,J4,2*%
%TO.N,Net-(J4-Pad2)*%
%TA.AperFunction,SMDPad,CuDef*%
G36*
G01*
X205135000Y-79130000D02*
X205135000Y-80080000D01*
G75*
G02*
X204985000Y-80230000I-150000J0D01*
G01*
X204685000Y-80230000D01*
G75*
G02*
X204535000Y-80080000I0J150000D01*
G01*
X204535000Y-79130000D01*
G75*
G02*
X204685000Y-78980000I150000J0D01*
G01*
X204985000Y-78980000D01*
G75*
G02*
X205135000Y-79130000I0J-150000D01*
G01*
G37*
%TD.AperFunction*%
%TO.P,J4,3*%
%TO.N,Net-(J4-Pad3)*%
%TA.AperFunction,SMDPad,CuDef*%
G36*
G01*
X204135000Y-79130000D02*
X204135000Y-80080000D01*
G75*
G02*
X203985000Y-80230000I-150000J0D01*
G01*
X203685000Y-80230000D01*
G75*
G02*
X203535000Y-80080000I0J150000D01*
G01*
X203535000Y-79130000D01*
G75*
G02*
X203685000Y-78980000I150000J0D01*
G01*
X203985000Y-78980000D01*
G75*
G02*
X204135000Y-79130000I0J-150000D01*
G01*
G37*
%TD.AperFunction*%
%TO.P,J4,4*%
%TO.N,Net-(J4-Pad4)*%
%TA.AperFunction,SMDPad,CuDef*%
G36*
G01*
X203135000Y-79130000D02*
X203135000Y-80080000D01*
G75*
G02*
X202985000Y-80230000I-150000J0D01*
G01*
X202685000Y-80230000D01*
G75*
G02*
X202535000Y-80080000I0J150000D01*
G01*
X202535000Y-79130000D01*
G75*
G02*
X202685000Y-78980000I150000J0D01*
G01*
X202985000Y-78980000D01*
G75*
G02*
X203135000Y-79130000I0J-150000D01*
G01*
G37*
%TD.AperFunction*%
%TO.P,J4,5*%
%TO.N,Net-(F1-Pad1)*%
%TA.AperFunction,SMDPad,CuDef*%
G36*
G01*
X202135000Y-79130000D02*
X202135000Y-80080000D01*
G75*
G02*
X201985000Y-80230000I-150000J0D01*
G01*
X201685000Y-80230000D01*
G75*
G02*
X201535000Y-80080000I0J150000D01*
G01*
X201535000Y-79130000D01*
G75*
G02*
X201685000Y-78980000I150000J0D01*
G01*
X201985000Y-78980000D01*
G75*
G02*
X202135000Y-79130000I0J-150000D01*
G01*
G37*
%TD.AperFunction*%
%TO.P,J4,MP*%
%TO.N,N/C*%
%TA.AperFunction,SMDPad,CuDef*%
G36*
G01*
X207735000Y-82105000D02*
X207735000Y-83355000D01*
G75*
G02*
X207510000Y-83580000I-225000J0D01*
G01*
X207060000Y-83580000D01*
G75*
G02*
X206835000Y-83355000I0J225000D01*
G01*
X206835000Y-82105000D01*
G75*
G02*
X207060000Y-81880000I225000J0D01*
G01*
X207510000Y-81880000D01*
G75*
G02*
X207735000Y-82105000I0J-225000D01*
G01*
G37*
%TD.AperFunction*%
%TA.AperFunction,SMDPad,CuDef*%
G36*
G01*
X200835000Y-82105000D02*
X200835000Y-83355000D01*
G75*
G02*
X200610000Y-83580000I-225000J0D01*
G01*
X200160000Y-83580000D01*
G75*
G02*
X199935000Y-83355000I0J225000D01*
G01*
X199935000Y-82105000D01*
G75*
G02*
X200160000Y-81880000I225000J0D01*
G01*
X200610000Y-81880000D01*
G75*
G02*
X200835000Y-82105000I0J-225000D01*
G01*
G37*
%TD.AperFunction*%
%TD*%
%TO.P,C6,2*%
%TO.N,GND*%
%TA.AperFunction,SMDPad,CuDef*%
G36*
G01*
X202864000Y-57674500D02*
X202864000Y-58149500D01*
G75*
G02*
X202626500Y-58387000I-237500J0D01*
G01*
X202051500Y-58387000D01*
G75*
G02*
X201814000Y-58149500I0J237500D01*
G01*
X201814000Y-57674500D01*
G75*
G02*
X202051500Y-57437000I237500J0D01*
G01*
X202626500Y-57437000D01*
G75*
G02*
X202864000Y-57674500I0J-237500D01*
G01*
G37*
%TD.AperFunction*%
%TO.P,C6,1*%
%TO.N,Net-(C6-Pad1)*%
%TA.AperFunction,SMDPad,CuDef*%
G36*
G01*
X204614000Y-57674500D02*
X204614000Y-58149500D01*
G75*
G02*
X204376500Y-58387000I-237500J0D01*
G01*
X203801500Y-58387000D01*
G75*
G02*
X203564000Y-58149500I0J237500D01*
G01*
X203564000Y-57674500D01*
G75*
G02*
X203801500Y-57437000I237500J0D01*
G01*
X204376500Y-57437000D01*
G75*
G02*
X204614000Y-57674500I0J-237500D01*
G01*
G37*
%TD.AperFunction*%
%TD*%
%TO.P,C12,2*%
%TO.N,GND*%
%TA.AperFunction,SMDPad,CuDef*%
G36*
G01*
X198202000Y-52942500D02*
X198202000Y-52467500D01*
G75*
G02*
X198439500Y-52230000I237500J0D01*
G01*
X199014500Y-52230000D01*
G75*
G02*
X199252000Y-52467500I0J-237500D01*
G01*
X199252000Y-52942500D01*
G75*
G02*
X199014500Y-53180000I-237500J0D01*
G01*
X198439500Y-53180000D01*
G75*
G02*
X198202000Y-52942500I0J237500D01*
G01*
G37*
%TD.AperFunction*%
%TO.P,C12,1*%
%TO.N,Net-(C12-Pad1)*%
%TA.AperFunction,SMDPad,CuDef*%
G36*
G01*
X196452000Y-52942500D02*
X196452000Y-52467500D01*
G75*
G02*
X196689500Y-52230000I237500J0D01*
G01*
X197264500Y-52230000D01*
G75*
G02*
X197502000Y-52467500I0J-237500D01*
G01*
X197502000Y-52942500D01*
G75*
G02*
X197264500Y-53180000I-237500J0D01*
G01*
X196689500Y-53180000D01*
G75*
G02*
X196452000Y-52942500I0J237500D01*
G01*
G37*
%TD.AperFunction*%
%TD*%
%TO.P,D1,1*%
%TO.N,GND*%
%TA.AperFunction,SMDPad,CuDef*%
G36*
G01*
X219381500Y-75835500D02*
X219381500Y-76310500D01*
G75*
G02*
X219144000Y-76548000I-237500J0D01*
G01*
X218569000Y-76548000D01*
G75*
G02*
X218331500Y-76310500I0J237500D01*
G01*
X218331500Y-75835500D01*
G75*
G02*
X218569000Y-75598000I237500J0D01*
G01*
X219144000Y-75598000D01*
G75*
G02*
X219381500Y-75835500I0J-237500D01*
G01*
G37*
%TD.AperFunction*%
%TO.P,D1,2*%
%TO.N,Net-(D1-Pad2)*%
%TA.AperFunction,SMDPad,CuDef*%
G36*
G01*
X217631500Y-75835500D02*
X217631500Y-76310500D01*
G75*
G02*
X217394000Y-76548000I-237500J0D01*
G01*
X216819000Y-76548000D01*
G75*
G02*
X216581500Y-76310500I0J237500D01*
G01*
X216581500Y-75835500D01*
G75*
G02*
X216819000Y-75598000I237500J0D01*
G01*
X217394000Y-75598000D01*
G75*
G02*
X217631500Y-75835500I0J-237500D01*
G01*
G37*
%TD.AperFunction*%
%TD*%
%TO.P,D2,2*%
%TO.N,Net-(D2-Pad2)*%
%TA.AperFunction,SMDPad,CuDef*%
G36*
G01*
X212172000Y-76310500D02*
X212172000Y-75835500D01*
G75*
G02*
X212409500Y-75598000I237500J0D01*
G01*
X212984500Y-75598000D01*
G75*
G02*
X213222000Y-75835500I0J-237500D01*
G01*
X213222000Y-76310500D01*
G75*
G02*
X212984500Y-76548000I-237500J0D01*
G01*
X212409500Y-76548000D01*
G75*
G02*
X212172000Y-76310500I0J237500D01*
G01*
G37*
%TD.AperFunction*%
%TO.P,D2,1*%
%TO.N,GND*%
%TA.AperFunction,SMDPad,CuDef*%
G36*
G01*
X210422000Y-76310500D02*
X210422000Y-75835500D01*
G75*
G02*
X210659500Y-75598000I237500J0D01*
G01*
X211234500Y-75598000D01*
G75*
G02*
X211472000Y-75835500I0J-237500D01*
G01*
X211472000Y-76310500D01*
G75*
G02*
X211234500Y-76548000I-237500J0D01*
G01*
X210659500Y-76548000D01*
G75*
G02*
X210422000Y-76310500I0J237500D01*
G01*
G37*
%TD.AperFunction*%
%TD*%
%TO.P,D3,2*%
%TO.N,Net-(D3-Pad2)*%
%TA.AperFunction,SMDPad,CuDef*%
G36*
G01*
X219058500Y-37242000D02*
X218583500Y-37242000D01*
G75*
G02*
X218346000Y-37004500I0J237500D01*
G01*
X218346000Y-36429500D01*
G75*
G02*
X218583500Y-36192000I237500J0D01*
G01*
X219058500Y-36192000D01*
G75*
G02*
X219296000Y-36429500I0J-237500D01*
G01*
X219296000Y-37004500D01*
G75*
G02*
X219058500Y-37242000I-237500J0D01*
G01*
G37*
%TD.AperFunction*%
%TO.P,D3,1*%
%TO.N,GND*%
%TA.AperFunction,SMDPad,CuDef*%
G36*
G01*
X219058500Y-38992000D02*
X218583500Y-38992000D01*
G75*
G02*
X218346000Y-38754500I0J237500D01*
G01*
X218346000Y-38179500D01*
G75*
G02*
X218583500Y-37942000I237500J0D01*
G01*
X219058500Y-37942000D01*
G75*
G02*
X219296000Y-38179500I0J-237500D01*
G01*
X219296000Y-38754500D01*
G75*
G02*
X219058500Y-38992000I-237500J0D01*
G01*
G37*
%TD.AperFunction*%
%TD*%
%TO.P,D4,1*%
%TO.N,GND*%
%TA.AperFunction,SMDPad,CuDef*%
G36*
G01*
X222106500Y-38978000D02*
X221631500Y-38978000D01*
G75*
G02*
X221394000Y-38740500I0J237500D01*
G01*
X221394000Y-38165500D01*
G75*
G02*
X221631500Y-37928000I237500J0D01*
G01*
X222106500Y-37928000D01*
G75*
G02*
X222344000Y-38165500I0J-237500D01*
G01*
X222344000Y-38740500D01*
G75*
G02*
X222106500Y-38978000I-237500J0D01*
G01*
G37*
%TD.AperFunction*%
%TO.P,D4,2*%
%TO.N,Net-(D4-Pad2)*%
%TA.AperFunction,SMDPad,CuDef*%
G36*
G01*
X222106500Y-37228000D02*
X221631500Y-37228000D01*
G75*
G02*
X221394000Y-36990500I0J237500D01*
G01*
X221394000Y-36415500D01*
G75*
G02*
X221631500Y-36178000I237500J0D01*
G01*
X222106500Y-36178000D01*
G75*
G02*
X222344000Y-36415500I0J-237500D01*
G01*
X222344000Y-36990500D01*
G75*
G02*
X222106500Y-37228000I-237500J0D01*
G01*
G37*
%TD.AperFunction*%
%TD*%
%TO.P,J1,1*%
%TO.N,+5V*%
%TA.AperFunction,SMDPad,CuDef*%
G36*
G01*
X229141000Y-59422000D02*
X230091000Y-59422000D01*
G75*
G02*
X230241000Y-59572000I0J-150000D01*
G01*
X230241000Y-59872000D01*
G75*
G02*
X230091000Y-60022000I-150000J0D01*
G01*
X229141000Y-60022000D01*
G75*
G02*
X228991000Y-59872000I0J150000D01*
G01*
X228991000Y-59572000D01*
G75*
G02*
X229141000Y-59422000I150000J0D01*
G01*
G37*
%TD.AperFunction*%
%TO.P,J1,2*%
%TO.N,GND*%
%TA.AperFunction,SMDPad,CuDef*%
G36*
G01*
X229141000Y-60422000D02*
X230091000Y-60422000D01*
G75*
G02*
X230241000Y-60572000I0J-150000D01*
G01*
X230241000Y-60872000D01*
G75*
G02*
X230091000Y-61022000I-150000J0D01*
G01*
X229141000Y-61022000D01*
G75*
G02*
X228991000Y-60872000I0J150000D01*
G01*
X228991000Y-60572000D01*
G75*
G02*
X229141000Y-60422000I150000J0D01*
G01*
G37*
%TD.AperFunction*%
%TO.P,J1,3*%
%TO.N,/Peripherals and Connectors/GPS_RX*%
%TA.AperFunction,SMDPad,CuDef*%
G36*
G01*
X229141000Y-61422000D02*
X230091000Y-61422000D01*
G75*
G02*
X230241000Y-61572000I0J-150000D01*
G01*
X230241000Y-61872000D01*
G75*
G02*
X230091000Y-62022000I-150000J0D01*
G01*
X229141000Y-62022000D01*
G75*
G02*
X228991000Y-61872000I0J150000D01*
G01*
X228991000Y-61572000D01*
G75*
G02*
X229141000Y-61422000I150000J0D01*
G01*
G37*
%TD.AperFunction*%
%TO.P,J1,4*%
%TO.N,/Peripherals and Connectors/GPS_TX*%
%TA.AperFunction,SMDPad,CuDef*%
G36*
G01*
X229141000Y-62422000D02*
X230091000Y-62422000D01*
G75*
G02*
X230241000Y-62572000I0J-150000D01*
G01*
X230241000Y-62872000D01*
G75*
G02*
X230091000Y-63022000I-150000J0D01*
G01*
X229141000Y-63022000D01*
G75*
G02*
X228991000Y-62872000I0J150000D01*
G01*
X228991000Y-62572000D01*
G75*
G02*
X229141000Y-62422000I150000J0D01*
G01*
G37*
%TD.AperFunction*%
%TO.P,J1,5*%
%TO.N,Net-(J1-Pad5)*%
%TA.AperFunction,SMDPad,CuDef*%
G36*
G01*
X229141000Y-63422000D02*
X230091000Y-63422000D01*
G75*
G02*
X230241000Y-63572000I0J-150000D01*
G01*
X230241000Y-63872000D01*
G75*
G02*
X230091000Y-64022000I-150000J0D01*
G01*
X229141000Y-64022000D01*
G75*
G02*
X228991000Y-63872000I0J150000D01*
G01*
X228991000Y-63572000D01*
G75*
G02*
X229141000Y-63422000I150000J0D01*
G01*
G37*
%TD.AperFunction*%
%TO.P,J1,6*%
%TO.N,Net-(J1-Pad6)*%
%TA.AperFunction,SMDPad,CuDef*%
G36*
G01*
X229141000Y-64422000D02*
X230091000Y-64422000D01*
G75*
G02*
X230241000Y-64572000I0J-150000D01*
G01*
X230241000Y-64872000D01*
G75*
G02*
X230091000Y-65022000I-150000J0D01*
G01*
X229141000Y-65022000D01*
G75*
G02*
X228991000Y-64872000I0J150000D01*
G01*
X228991000Y-64572000D01*
G75*
G02*
X229141000Y-64422000I150000J0D01*
G01*
G37*
%TD.AperFunction*%
%TO.P,J1,MP*%
%TO.N,N/C*%
%TA.AperFunction,SMDPad,CuDef*%
G36*
G01*
X232116000Y-57822000D02*
X233366000Y-57822000D01*
G75*
G02*
X233591000Y-58047000I0J-225000D01*
G01*
X233591000Y-58497000D01*
G75*
G02*
X233366000Y-58722000I-225000J0D01*
G01*
X232116000Y-58722000D01*
G75*
G02*
X231891000Y-58497000I0J225000D01*
G01*
X231891000Y-58047000D01*
G75*
G02*
X232116000Y-57822000I225000J0D01*
G01*
G37*
%TD.AperFunction*%
%TA.AperFunction,SMDPad,CuDef*%
G36*
G01*
X232116000Y-65722000D02*
X233366000Y-65722000D01*
G75*
G02*
X233591000Y-65947000I0J-225000D01*
G01*
X233591000Y-66397000D01*
G75*
G02*
X233366000Y-66622000I-225000J0D01*
G01*
X232116000Y-66622000D01*
G75*
G02*
X231891000Y-66397000I0J225000D01*
G01*
X231891000Y-65947000D01*
G75*
G02*
X232116000Y-65722000I225000J0D01*
G01*
G37*
%TD.AperFunction*%
%TD*%
%TO.P,J2,MP*%
%TO.N,N/C*%
%TA.AperFunction,SMDPad,CuDef*%
G36*
G01*
X186109999Y-70796000D02*
X187410001Y-70796000D01*
G75*
G02*
X187660000Y-71045999I0J-249999D01*
G01*
X187660000Y-71746001D01*
G75*
G02*
X187410001Y-71996000I-249999J0D01*
G01*
X186109999Y-71996000D01*
G75*
G02*
X185860000Y-71746001I0J249999D01*
G01*
X185860000Y-71045999D01*
G75*
G02*
X186109999Y-70796000I249999J0D01*
G01*
G37*
%TD.AperFunction*%
%TA.AperFunction,SMDPad,CuDef*%
G36*
G01*
X186109999Y-67196000D02*
X187410001Y-67196000D01*
G75*
G02*
X187660000Y-67445999I0J-249999D01*
G01*
X187660000Y-68146001D01*
G75*
G02*
X187410001Y-68396000I-249999J0D01*
G01*
X186109999Y-68396000D01*
G75*
G02*
X185860000Y-68146001I0J249999D01*
G01*
X185860000Y-67445999D01*
G75*
G02*
X186109999Y-67196000I249999J0D01*
G01*
G37*
%TD.AperFunction*%
%TO.P,J2,2*%
%TO.N,+3V3*%
%TA.AperFunction,SMDPad,CuDef*%
G36*
G01*
X188660000Y-69796000D02*
X189910000Y-69796000D01*
G75*
G02*
X190060000Y-69946000I0J-150000D01*
G01*
X190060000Y-70246000D01*
G75*
G02*
X189910000Y-70396000I-150000J0D01*
G01*
X188660000Y-70396000D01*
G75*
G02*
X188510000Y-70246000I0J150000D01*
G01*
X188510000Y-69946000D01*
G75*
G02*
X188660000Y-69796000I150000J0D01*
G01*
G37*
%TD.AperFunction*%
%TO.P,J2,1*%
%TO.N,Net-(C1-Pad1)*%
%TA.AperFunction,SMDPad,CuDef*%
G36*
G01*
X188660000Y-68796000D02*
X189910000Y-68796000D01*
G75*
G02*
X190060000Y-68946000I0J-150000D01*
G01*
X190060000Y-69246000D01*
G75*
G02*
X189910000Y-69396000I-150000J0D01*
G01*
X188660000Y-69396000D01*
G75*
G02*
X188510000Y-69246000I0J150000D01*
G01*
X188510000Y-68946000D01*
G75*
G02*
X188660000Y-68796000I150000J0D01*
G01*
G37*
%TD.AperFunction*%
%TD*%
%TO.P,J3,MP*%
%TO.N,N/C*%
%TA.AperFunction,SMDPad,CuDef*%
G36*
G01*
X186109999Y-64819000D02*
X187410001Y-64819000D01*
G75*
G02*
X187660000Y-65068999I0J-249999D01*
G01*
X187660000Y-65769001D01*
G75*
G02*
X187410001Y-66019000I-249999J0D01*
G01*
X186109999Y-66019000D01*
G75*
G02*
X185860000Y-65769001I0J249999D01*
G01*
X185860000Y-65068999D01*
G75*
G02*
X186109999Y-64819000I249999J0D01*
G01*
G37*
%TD.AperFunction*%
%TA.AperFunction,SMDPad,CuDef*%
G36*
G01*
X186109999Y-60219000D02*
X187410001Y-60219000D01*
G75*
G02*
X187660000Y-60468999I0J-249999D01*
G01*
X187660000Y-61169001D01*
G75*
G02*
X187410001Y-61419000I-249999J0D01*
G01*
X186109999Y-61419000D01*
G75*
G02*
X185860000Y-61169001I0J249999D01*
G01*
X185860000Y-60468999D01*
G75*
G02*
X186109999Y-60219000I249999J0D01*
G01*
G37*
%TD.AperFunction*%
%TO.P,J3,3*%
%TO.N,+3V3*%
%TA.AperFunction,SMDPad,CuDef*%
G36*
G01*
X188660000Y-63819000D02*
X189910000Y-63819000D01*
G75*
G02*
X190060000Y-63969000I0J-150000D01*
G01*
X190060000Y-64269000D01*
G75*
G02*
X189910000Y-64419000I-150000J0D01*
G01*
X188660000Y-64419000D01*
G75*
G02*
X188510000Y-64269000I0J150000D01*
G01*
X188510000Y-63969000D01*
G75*
G02*
X188660000Y-63819000I150000J0D01*
G01*
G37*
%TD.AperFunction*%
%TO.P,J3,2*%
%TO.N,/Peripherals and Connectors/DS_EXTERNAL*%
%TA.AperFunction,SMDPad,CuDef*%
G36*
G01*
X188660000Y-62819000D02*
X189910000Y-62819000D01*
G75*
G02*
X190060000Y-62969000I0J-150000D01*
G01*
X190060000Y-63269000D01*
G75*
G02*
X189910000Y-63419000I-150000J0D01*
G01*
X188660000Y-63419000D01*
G75*
G02*
X188510000Y-63269000I0J150000D01*
G01*
X188510000Y-62969000D01*
G75*
G02*
X188660000Y-62819000I150000J0D01*
G01*
G37*
%TD.AperFunction*%
%TO.P,J3,1*%
%TO.N,GND*%
%TA.AperFunction,SMDPad,CuDef*%
G36*
G01*
X188660000Y-61819000D02*
X189910000Y-61819000D01*
G75*
G02*
X190060000Y-61969000I0J-150000D01*
G01*
X190060000Y-62269000D01*
G75*
G02*
X189910000Y-62419000I-150000J0D01*
G01*
X188660000Y-62419000D01*
G75*
G02*
X188510000Y-62269000I0J150000D01*
G01*
X188510000Y-61969000D01*
G75*
G02*
X188660000Y-61819000I150000J0D01*
G01*
G37*
%TD.AperFunction*%
%TD*%
D22*
%TO.P,J5,1*%
%TO.N,VBAT*%
X232328000Y-37973000D03*
%TO.P,J5,2*%
%TO.N,+3V3*%
X228428000Y-37973000D03*
%TO.P,J5,3*%
%TO.N,GND*%
X232328000Y-39243000D03*
%TO.P,J5,4*%
%TO.N,+5V*%
X228428000Y-39243000D03*
%TO.P,J5,5*%
%TO.N,/Peripherals and Connectors/MISO*%
X232328000Y-40513000D03*
%TO.P,J5,6*%
%TO.N,GND*%
X228428000Y-40513000D03*
%TO.P,J5,7*%
%TO.N,/Peripherals and Connectors/MOSI*%
X232328000Y-41783000D03*
%TO.P,J5,8*%
%TO.N,/Peripherals and Connectors/SDA*%
X228428000Y-41783000D03*
%TO.P,J5,9*%
%TO.N,/Peripherals and Connectors/CLK*%
X232328000Y-43053000D03*
%TO.P,J5,10*%
%TO.N,/Peripherals and Connectors/SCL*%
X228428000Y-43053000D03*
%TO.P,J5,11*%
%TO.N,/RPi CM4/CE0*%
X232328000Y-44323000D03*
%TO.P,J5,12*%
%TO.N,/Peripherals and Connectors/GPIO_2*%
X228428000Y-44323000D03*
%TO.P,J5,13*%
%TO.N,/RPi CM4/CE1*%
X232328000Y-45593000D03*
%TO.P,J5,14*%
%TO.N,/Peripherals and Connectors/GPIO_3*%
X228428000Y-45593000D03*
%TO.P,J5,15*%
%TO.N,GND*%
X232328000Y-46863000D03*
%TO.P,J5,16*%
X228428000Y-46863000D03*
%TD*%
D16*
%TO.P,J10,1*%
%TO.N,GND*%
X233045000Y-55245000D03*
D15*
%TO.P,J10,2*%
%TO.N,Net-(J10-Pad2)*%
X233045000Y-52705000D03*
%TO.P,J10,3*%
%TO.N,+5V*%
X233045000Y-50165000D03*
%TD*%
%TO.P,J11,MP*%
%TO.N,N/C*%
%TA.AperFunction,SMDPad,CuDef*%
G36*
G01*
X234006001Y-71730000D02*
X232705999Y-71730000D01*
G75*
G02*
X232456000Y-71480001I0J249999D01*
G01*
X232456000Y-70779999D01*
G75*
G02*
X232705999Y-70530000I249999J0D01*
G01*
X234006001Y-70530000D01*
G75*
G02*
X234256000Y-70779999I0J-249999D01*
G01*
X234256000Y-71480001D01*
G75*
G02*
X234006001Y-71730000I-249999J0D01*
G01*
G37*
%TD.AperFunction*%
%TA.AperFunction,SMDPad,CuDef*%
G36*
G01*
X234006001Y-79330000D02*
X232705999Y-79330000D01*
G75*
G02*
X232456000Y-79080001I0J249999D01*
G01*
X232456000Y-78379999D01*
G75*
G02*
X232705999Y-78130000I249999J0D01*
G01*
X234006001Y-78130000D01*
G75*
G02*
X234256000Y-78379999I0J-249999D01*
G01*
X234256000Y-79080001D01*
G75*
G02*
X234006001Y-79330000I-249999J0D01*
G01*
G37*
%TD.AperFunction*%
%TO.P,J11,6*%
%TO.N,/Power/PWR_VALID*%
%TA.AperFunction,SMDPad,CuDef*%
G36*
G01*
X231456000Y-72730000D02*
X230206000Y-72730000D01*
G75*
G02*
X230056000Y-72580000I0J150000D01*
G01*
X230056000Y-72280000D01*
G75*
G02*
X230206000Y-72130000I150000J0D01*
G01*
X231456000Y-72130000D01*
G75*
G02*
X231606000Y-72280000I0J-150000D01*
G01*
X231606000Y-72580000D01*
G75*
G02*
X231456000Y-72730000I-150000J0D01*
G01*
G37*
%TD.AperFunction*%
%TO.P,J11,5*%
%TO.N,/Power/PWR_WARN*%
%TA.AperFunction,SMDPad,CuDef*%
G36*
G01*
X231456000Y-73730000D02*
X230206000Y-73730000D01*
G75*
G02*
X230056000Y-73580000I0J150000D01*
G01*
X230056000Y-73280000D01*
G75*
G02*
X230206000Y-73130000I150000J0D01*
G01*
X231456000Y-73130000D01*
G75*
G02*
X231606000Y-73280000I0J-150000D01*
G01*
X231606000Y-73580000D01*
G75*
G02*
X231456000Y-73730000I-150000J0D01*
G01*
G37*
%TD.AperFunction*%
%TO.P,J11,4*%
%TO.N,/Power/PWR_CRITICAL*%
%TA.AperFunction,SMDPad,CuDef*%
G36*
G01*
X231456000Y-74730000D02*
X230206000Y-74730000D01*
G75*
G02*
X230056000Y-74580000I0J150000D01*
G01*
X230056000Y-74280000D01*
G75*
G02*
X230206000Y-74130000I150000J0D01*
G01*
X231456000Y-74130000D01*
G75*
G02*
X231606000Y-74280000I0J-150000D01*
G01*
X231606000Y-74580000D01*
G75*
G02*
X231456000Y-74730000I-150000J0D01*
G01*
G37*
%TD.AperFunction*%
%TO.P,J11,3*%
%TO.N,GND*%
%TA.AperFunction,SMDPad,CuDef*%
G36*
G01*
X231456000Y-75730000D02*
X230206000Y-75730000D01*
G75*
G02*
X230056000Y-75580000I0J150000D01*
G01*
X230056000Y-75280000D01*
G75*
G02*
X230206000Y-75130000I150000J0D01*
G01*
X231456000Y-75130000D01*
G75*
G02*
X231606000Y-75280000I0J-150000D01*
G01*
X231606000Y-75580000D01*
G75*
G02*
X231456000Y-75730000I-150000J0D01*
G01*
G37*
%TD.AperFunction*%
%TO.P,J11,2*%
%TO.N,/Peripherals and Connectors/SCL*%
%TA.AperFunction,SMDPad,CuDef*%
G36*
G01*
X231456000Y-76730000D02*
X230206000Y-76730000D01*
G75*
G02*
X230056000Y-76580000I0J150000D01*
G01*
X230056000Y-76280000D01*
G75*
G02*
X230206000Y-76130000I150000J0D01*
G01*
X231456000Y-76130000D01*
G75*
G02*
X231606000Y-76280000I0J-150000D01*
G01*
X231606000Y-76580000D01*
G75*
G02*
X231456000Y-76730000I-150000J0D01*
G01*
G37*
%TD.AperFunction*%
%TO.P,J11,1*%
%TO.N,/Peripherals and Connectors/SDA*%
%TA.AperFunction,SMDPad,CuDef*%
G36*
G01*
X231456000Y-77730000D02*
X230206000Y-77730000D01*
G75*
G02*
X230056000Y-77580000I0J150000D01*
G01*
X230056000Y-77280000D01*
G75*
G02*
X230206000Y-77130000I150000J0D01*
G01*
X231456000Y-77130000D01*
G75*
G02*
X231606000Y-77280000I0J-150000D01*
G01*
X231606000Y-77580000D01*
G75*
G02*
X231456000Y-77730000I-150000J0D01*
G01*
G37*
%TD.AperFunction*%
%TD*%
D23*
%TO.P,J12,6*%
%TO.N,+3V3*%
X210980000Y-80327500D03*
%TO.P,J12,5*%
%TO.N,GND*%
X212980000Y-80327500D03*
%TO.P,J12,4*%
%TO.N,VBAT*%
X214980000Y-80327500D03*
%TO.P,J12,3*%
%TO.N,GND*%
X216980000Y-80327500D03*
%TO.P,J12,2*%
%TO.N,+5V*%
X218980000Y-80327500D03*
%TO.P,J12,1*%
%TA.AperFunction,ComponentPad*%
G36*
G01*
X221580000Y-79702499D02*
X221580000Y-80952501D01*
G75*
G02*
X221330001Y-81202500I-249999J0D01*
G01*
X220629999Y-81202500D01*
G75*
G02*
X220380000Y-80952501I0J249999D01*
G01*
X220380000Y-79702499D01*
G75*
G02*
X220629999Y-79452500I249999J0D01*
G01*
X221330001Y-79452500D01*
G75*
G02*
X221580000Y-79702499I0J-249999D01*
G01*
G37*
%TD.AperFunction*%
%TD*%
D22*
%TO.P,J13,10*%
%TO.N,Net-(C12-Pad1)*%
X191815000Y-53340000D03*
%TO.P,J13,9*%
%TO.N,GND*%
X187915000Y-53340000D03*
%TO.P,J13,8*%
%TO.N,Net-(J13-Pad8)*%
X191815000Y-54610000D03*
%TO.P,J13,7*%
%TO.N,Net-(J13-Pad7)*%
X187915000Y-54610000D03*
%TO.P,J13,6*%
%TO.N,Net-(J13-Pad6)*%
X191815000Y-55880000D03*
%TO.P,J13,5*%
%TO.N,GND*%
X187915000Y-55880000D03*
%TO.P,J13,4*%
%TO.N,Net-(J13-Pad4)*%
X191815000Y-57150000D03*
%TO.P,J13,3*%
%TO.N,GND*%
X187915000Y-57150000D03*
%TO.P,J13,2*%
%TO.N,Net-(J13-Pad2)*%
X191815000Y-58420000D03*
%TO.P,J13,1*%
%TO.N,+3V3*%
X187915000Y-58420000D03*
%TD*%
D24*
%TO.P,J17,6*%
%TO.N,/RPi CM4/GPIO_5*%
X222800000Y-64400000D03*
%TO.P,J17,5*%
%TO.N,/RPi CM4/GPIO_6*%
X222800000Y-65400000D03*
%TO.P,J17,4*%
%TO.N,/RPi CM4/GPIO_13*%
X222800000Y-66400000D03*
%TO.P,J17,3*%
%TO.N,/RPi CM4/GPIO_19*%
X222800000Y-67400000D03*
%TO.P,J17,2*%
%TO.N,/RPi CM4/GPIO_26*%
X222800000Y-68400000D03*
D25*
%TO.P,J17,1*%
%TO.N,GND*%
X222800000Y-69400000D03*
%TD*%
%TA.AperFunction,SMDPad,CuDef*%
D26*
%TO.P,JP1,2*%
%TO.N,/Peripherals and Connectors/SDA*%
G36*
X227342000Y-70186000D02*
G01*
X227342000Y-69036000D01*
X228092000Y-69536000D01*
X228842000Y-69036000D01*
X228842000Y-70186000D01*
X227342000Y-70186000D01*
G37*
%TD.AperFunction*%
%TA.AperFunction,SMDPad,CuDef*%
%TO.P,JP1,1*%
%TO.N,Net-(J1-Pad6)*%
G36*
X228092000Y-69236000D02*
G01*
X227342000Y-68736000D01*
X227342000Y-67736000D01*
X228842000Y-67736000D01*
X228842000Y-68736000D01*
X228092000Y-69236000D01*
G37*
%TD.AperFunction*%
%TD*%
%TA.AperFunction,SMDPad,CuDef*%
%TO.P,JP2,1*%
%TO.N,Net-(J1-Pad5)*%
G36*
X225361500Y-69236000D02*
G01*
X224611500Y-68736000D01*
X224611500Y-67736000D01*
X226111500Y-67736000D01*
X226111500Y-68736000D01*
X225361500Y-69236000D01*
G37*
%TD.AperFunction*%
%TA.AperFunction,SMDPad,CuDef*%
%TO.P,JP2,2*%
%TO.N,/Peripherals and Connectors/SCL*%
G36*
X224611500Y-70186000D02*
G01*
X224611500Y-69036000D01*
X225361500Y-69536000D01*
X226111500Y-69036000D01*
X226111500Y-70186000D01*
X224611500Y-70186000D01*
G37*
%TD.AperFunction*%
%TD*%
D27*
%TO.P,JP4,1*%
%TO.N,/RPi CM4/nRPI_BOOT*%
X223266000Y-48895000D03*
%TO.P,JP4,2*%
%TO.N,GND*%
X223266000Y-51435000D03*
%TD*%
D28*
%TO.P,P1,1*%
%TO.N,+5V*%
X206685000Y-36830000D03*
D29*
%TO.P,P1,2*%
%TO.N,/RPi CM4/CONN_USB-*%
X209185000Y-36830000D03*
%TO.P,P1,3*%
%TO.N,/RPi CM4/CONN_USB+*%
X211185000Y-36830000D03*
%TO.P,P1,4*%
%TO.N,GND*%
X213685000Y-36830000D03*
D30*
%TO.P,P1,S1*%
%TO.N,N/C*%
X203615000Y-34120000D03*
%TO.P,P1,S2*%
X216755000Y-34120000D03*
%TD*%
%TO.P,R10,1*%
%TO.N,Net-(J10-Pad2)*%
%TA.AperFunction,SMDPad,CuDef*%
G36*
G01*
X230171000Y-54105000D02*
X229696000Y-54105000D01*
G75*
G02*
X229458500Y-53867500I0J237500D01*
G01*
X229458500Y-53292500D01*
G75*
G02*
X229696000Y-53055000I237500J0D01*
G01*
X230171000Y-53055000D01*
G75*
G02*
X230408500Y-53292500I0J-237500D01*
G01*
X230408500Y-53867500D01*
G75*
G02*
X230171000Y-54105000I-237500J0D01*
G01*
G37*
%TD.AperFunction*%
%TO.P,R10,2*%
%TO.N,/Peripherals and Connectors/LED_DATA*%
%TA.AperFunction,SMDPad,CuDef*%
G36*
G01*
X230171000Y-52355000D02*
X229696000Y-52355000D01*
G75*
G02*
X229458500Y-52117500I0J237500D01*
G01*
X229458500Y-51542500D01*
G75*
G02*
X229696000Y-51305000I237500J0D01*
G01*
X230171000Y-51305000D01*
G75*
G02*
X230408500Y-51542500I0J-237500D01*
G01*
X230408500Y-52117500D01*
G75*
G02*
X230171000Y-52355000I-237500J0D01*
G01*
G37*
%TD.AperFunction*%
%TD*%
%TO.P,R11,1*%
%TO.N,Net-(D1-Pad2)*%
%TA.AperFunction,SMDPad,CuDef*%
G36*
G01*
X216595500Y-77898000D02*
X216595500Y-77423000D01*
G75*
G02*
X216833000Y-77185500I237500J0D01*
G01*
X217408000Y-77185500D01*
G75*
G02*
X217645500Y-77423000I0J-237500D01*
G01*
X217645500Y-77898000D01*
G75*
G02*
X217408000Y-78135500I-237500J0D01*
G01*
X216833000Y-78135500D01*
G75*
G02*
X216595500Y-77898000I0J237500D01*
G01*
G37*
%TD.AperFunction*%
%TO.P,R11,2*%
%TO.N,+5V*%
%TA.AperFunction,SMDPad,CuDef*%
G36*
G01*
X218345500Y-77898000D02*
X218345500Y-77423000D01*
G75*
G02*
X218583000Y-77185500I237500J0D01*
G01*
X219158000Y-77185500D01*
G75*
G02*
X219395500Y-77423000I0J-237500D01*
G01*
X219395500Y-77898000D01*
G75*
G02*
X219158000Y-78135500I-237500J0D01*
G01*
X218583000Y-78135500D01*
G75*
G02*
X218345500Y-77898000I0J237500D01*
G01*
G37*
%TD.AperFunction*%
%TD*%
%TO.P,R12,2*%
%TO.N,+3V3*%
%TA.AperFunction,SMDPad,CuDef*%
G36*
G01*
X211486000Y-77423000D02*
X211486000Y-77898000D01*
G75*
G02*
X211248500Y-78135500I-237500J0D01*
G01*
X210673500Y-78135500D01*
G75*
G02*
X210436000Y-77898000I0J237500D01*
G01*
X210436000Y-77423000D01*
G75*
G02*
X210673500Y-77185500I237500J0D01*
G01*
X211248500Y-77185500D01*
G75*
G02*
X211486000Y-77423000I0J-237500D01*
G01*
G37*
%TD.AperFunction*%
%TO.P,R12,1*%
%TO.N,Net-(D2-Pad2)*%
%TA.AperFunction,SMDPad,CuDef*%
G36*
G01*
X213236000Y-77423000D02*
X213236000Y-77898000D01*
G75*
G02*
X212998500Y-78135500I-237500J0D01*
G01*
X212423500Y-78135500D01*
G75*
G02*
X212186000Y-77898000I0J237500D01*
G01*
X212186000Y-77423000D01*
G75*
G02*
X212423500Y-77185500I237500J0D01*
G01*
X212998500Y-77185500D01*
G75*
G02*
X213236000Y-77423000I0J-237500D01*
G01*
G37*
%TD.AperFunction*%
%TD*%
%TO.P,R13,1*%
%TO.N,+3V3*%
%TA.AperFunction,SMDPad,CuDef*%
G36*
G01*
X232901500Y-83061000D02*
X232426500Y-83061000D01*
G75*
G02*
X232189000Y-82823500I0J237500D01*
G01*
X232189000Y-82248500D01*
G75*
G02*
X232426500Y-82011000I237500J0D01*
G01*
X232901500Y-82011000D01*
G75*
G02*
X233139000Y-82248500I0J-237500D01*
G01*
X233139000Y-82823500D01*
G75*
G02*
X232901500Y-83061000I-237500J0D01*
G01*
G37*
%TD.AperFunction*%
%TO.P,R13,2*%
%TO.N,/Peripherals and Connectors/SDA*%
%TA.AperFunction,SMDPad,CuDef*%
G36*
G01*
X232901500Y-81311000D02*
X232426500Y-81311000D01*
G75*
G02*
X232189000Y-81073500I0J237500D01*
G01*
X232189000Y-80498500D01*
G75*
G02*
X232426500Y-80261000I237500J0D01*
G01*
X232901500Y-80261000D01*
G75*
G02*
X233139000Y-80498500I0J-237500D01*
G01*
X233139000Y-81073500D01*
G75*
G02*
X232901500Y-81311000I-237500J0D01*
G01*
G37*
%TD.AperFunction*%
%TD*%
%TO.P,R14,1*%
%TO.N,+3V3*%
%TA.AperFunction,SMDPad,CuDef*%
G36*
G01*
X230615500Y-83047000D02*
X230140500Y-83047000D01*
G75*
G02*
X229903000Y-82809500I0J237500D01*
G01*
X229903000Y-82234500D01*
G75*
G02*
X230140500Y-81997000I237500J0D01*
G01*
X230615500Y-81997000D01*
G75*
G02*
X230853000Y-82234500I0J-237500D01*
G01*
X230853000Y-82809500D01*
G75*
G02*
X230615500Y-83047000I-237500J0D01*
G01*
G37*
%TD.AperFunction*%
%TO.P,R14,2*%
%TO.N,/Peripherals and Connectors/SCL*%
%TA.AperFunction,SMDPad,CuDef*%
G36*
G01*
X230615500Y-81297000D02*
X230140500Y-81297000D01*
G75*
G02*
X229903000Y-81059500I0J237500D01*
G01*
X229903000Y-80484500D01*
G75*
G02*
X230140500Y-80247000I237500J0D01*
G01*
X230615500Y-80247000D01*
G75*
G02*
X230853000Y-80484500I0J-237500D01*
G01*
X230853000Y-81059500D01*
G75*
G02*
X230615500Y-81297000I-237500J0D01*
G01*
G37*
%TD.AperFunction*%
%TD*%
%TO.P,R28,1*%
%TO.N,Net-(D3-Pad2)*%
%TA.AperFunction,SMDPad,CuDef*%
G36*
G01*
X220107500Y-36206000D02*
X220582500Y-36206000D01*
G75*
G02*
X220820000Y-36443500I0J-237500D01*
G01*
X220820000Y-37018500D01*
G75*
G02*
X220582500Y-37256000I-237500J0D01*
G01*
X220107500Y-37256000D01*
G75*
G02*
X219870000Y-37018500I0J237500D01*
G01*
X219870000Y-36443500D01*
G75*
G02*
X220107500Y-36206000I237500J0D01*
G01*
G37*
%TD.AperFunction*%
%TO.P,R28,2*%
%TO.N,/STM32 MCU/LED1*%
%TA.AperFunction,SMDPad,CuDef*%
G36*
G01*
X220107500Y-37956000D02*
X220582500Y-37956000D01*
G75*
G02*
X220820000Y-38193500I0J-237500D01*
G01*
X220820000Y-38768500D01*
G75*
G02*
X220582500Y-39006000I-237500J0D01*
G01*
X220107500Y-39006000D01*
G75*
G02*
X219870000Y-38768500I0J237500D01*
G01*
X219870000Y-38193500D01*
G75*
G02*
X220107500Y-37956000I237500J0D01*
G01*
G37*
%TD.AperFunction*%
%TD*%
%TO.P,R29,1*%
%TO.N,Net-(D4-Pad2)*%
%TA.AperFunction,SMDPad,CuDef*%
G36*
G01*
X223155500Y-36178000D02*
X223630500Y-36178000D01*
G75*
G02*
X223868000Y-36415500I0J-237500D01*
G01*
X223868000Y-36990500D01*
G75*
G02*
X223630500Y-37228000I-237500J0D01*
G01*
X223155500Y-37228000D01*
G75*
G02*
X222918000Y-36990500I0J237500D01*
G01*
X222918000Y-36415500D01*
G75*
G02*
X223155500Y-36178000I237500J0D01*
G01*
G37*
%TD.AperFunction*%
%TO.P,R29,2*%
%TO.N,/STM32 MCU/LED2*%
%TA.AperFunction,SMDPad,CuDef*%
G36*
G01*
X223155500Y-37928000D02*
X223630500Y-37928000D01*
G75*
G02*
X223868000Y-38165500I0J-237500D01*
G01*
X223868000Y-38740500D01*
G75*
G02*
X223630500Y-38978000I-237500J0D01*
G01*
X223155500Y-38978000D01*
G75*
G02*
X222918000Y-38740500I0J237500D01*
G01*
X222918000Y-38165500D01*
G75*
G02*
X223155500Y-37928000I237500J0D01*
G01*
G37*
%TD.AperFunction*%
%TD*%
%TO.P,R30,1*%
%TO.N,/RPi CM4/RUN_PG*%
%TA.AperFunction,SMDPad,CuDef*%
G36*
G01*
X222931500Y-47037000D02*
X222931500Y-46562000D01*
G75*
G02*
X223169000Y-46324500I237500J0D01*
G01*
X223744000Y-46324500D01*
G75*
G02*
X223981500Y-46562000I0J-237500D01*
G01*
X223981500Y-47037000D01*
G75*
G02*
X223744000Y-47274500I-237500J0D01*
G01*
X223169000Y-47274500D01*
G75*
G02*
X222931500Y-47037000I0J237500D01*
G01*
G37*
%TD.AperFunction*%
%TO.P,R30,2*%
%TO.N,Net-(J15-Pad92)*%
%TA.AperFunction,SMDPad,CuDef*%
G36*
G01*
X224681500Y-47037000D02*
X224681500Y-46562000D01*
G75*
G02*
X224919000Y-46324500I237500J0D01*
G01*
X225494000Y-46324500D01*
G75*
G02*
X225731500Y-46562000I0J-237500D01*
G01*
X225731500Y-47037000D01*
G75*
G02*
X225494000Y-47274500I-237500J0D01*
G01*
X224919000Y-47274500D01*
G75*
G02*
X224681500Y-47037000I0J237500D01*
G01*
G37*
%TD.AperFunction*%
%TD*%
D31*
%TO.P,U2,1*%
%TO.N,/Peripherals and Connectors/DS_EXTERNAL*%
X187620000Y-78994000D03*
%TO.P,U2,2*%
%TO.N,N/C*%
X188270000Y-78994000D03*
%TO.P,U2,3*%
X188920000Y-78994000D03*
%TO.P,U2,4*%
%TO.N,GND*%
X189570000Y-78994000D03*
%TO.P,U2,5*%
%TO.N,N/C*%
X189570000Y-83324000D03*
%TO.P,U2,6*%
X188920000Y-83324000D03*
%TO.P,U2,7*%
X188270000Y-83324000D03*
%TO.P,U2,8*%
%TO.N,+3V3*%
X187620000Y-83324000D03*
%TD*%
%TO.P,U3,100*%
%TO.N,+3V3*%
%TA.AperFunction,SMDPad,CuDef*%
G36*
G01*
X219002000Y-41384000D02*
X219002000Y-42834000D01*
G75*
G02*
X218927000Y-42909000I-75000J0D01*
G01*
X218777000Y-42909000D01*
G75*
G02*
X218702000Y-42834000I0J75000D01*
G01*
X218702000Y-41384000D01*
G75*
G02*
X218777000Y-41309000I75000J0D01*
G01*
X218927000Y-41309000D01*
G75*
G02*
X219002000Y-41384000I0J-75000D01*
G01*
G37*
%TD.AperFunction*%
%TO.P,U3,99*%
%TO.N,GND*%
%TA.AperFunction,SMDPad,CuDef*%
G36*
G01*
X218502000Y-41384000D02*
X218502000Y-42834000D01*
G75*
G02*
X218427000Y-42909000I-75000J0D01*
G01*
X218277000Y-42909000D01*
G75*
G02*
X218202000Y-42834000I0J75000D01*
G01*
X218202000Y-41384000D01*
G75*
G02*
X218277000Y-41309000I75000J0D01*
G01*
X218427000Y-41309000D01*
G75*
G02*
X218502000Y-41384000I0J-75000D01*
G01*
G37*
%TD.AperFunction*%
%TO.P,U3,98*%
%TO.N,Net-(U3-Pad98)*%
%TA.AperFunction,SMDPad,CuDef*%
G36*
G01*
X218002000Y-41384000D02*
X218002000Y-42834000D01*
G75*
G02*
X217927000Y-42909000I-75000J0D01*
G01*
X217777000Y-42909000D01*
G75*
G02*
X217702000Y-42834000I0J75000D01*
G01*
X217702000Y-41384000D01*
G75*
G02*
X217777000Y-41309000I75000J0D01*
G01*
X217927000Y-41309000D01*
G75*
G02*
X218002000Y-41384000I0J-75000D01*
G01*
G37*
%TD.AperFunction*%
%TO.P,U3,97*%
%TO.N,Net-(U3-Pad97)*%
%TA.AperFunction,SMDPad,CuDef*%
G36*
G01*
X217502000Y-41384000D02*
X217502000Y-42834000D01*
G75*
G02*
X217427000Y-42909000I-75000J0D01*
G01*
X217277000Y-42909000D01*
G75*
G02*
X217202000Y-42834000I0J75000D01*
G01*
X217202000Y-41384000D01*
G75*
G02*
X217277000Y-41309000I75000J0D01*
G01*
X217427000Y-41309000D01*
G75*
G02*
X217502000Y-41384000I0J-75000D01*
G01*
G37*
%TD.AperFunction*%
%TO.P,U3,96*%
%TO.N,/Peripherals and Connectors/SDA*%
%TA.AperFunction,SMDPad,CuDef*%
G36*
G01*
X217002000Y-41384000D02*
X217002000Y-42834000D01*
G75*
G02*
X216927000Y-42909000I-75000J0D01*
G01*
X216777000Y-42909000D01*
G75*
G02*
X216702000Y-42834000I0J75000D01*
G01*
X216702000Y-41384000D01*
G75*
G02*
X216777000Y-41309000I75000J0D01*
G01*
X216927000Y-41309000D01*
G75*
G02*
X217002000Y-41384000I0J-75000D01*
G01*
G37*
%TD.AperFunction*%
%TO.P,U3,95*%
%TO.N,/Peripherals and Connectors/SCL*%
%TA.AperFunction,SMDPad,CuDef*%
G36*
G01*
X216502000Y-41384000D02*
X216502000Y-42834000D01*
G75*
G02*
X216427000Y-42909000I-75000J0D01*
G01*
X216277000Y-42909000D01*
G75*
G02*
X216202000Y-42834000I0J75000D01*
G01*
X216202000Y-41384000D01*
G75*
G02*
X216277000Y-41309000I75000J0D01*
G01*
X216427000Y-41309000D01*
G75*
G02*
X216502000Y-41384000I0J-75000D01*
G01*
G37*
%TD.AperFunction*%
%TO.P,U3,94*%
%TO.N,/STM32 MCU/BOOT0*%
%TA.AperFunction,SMDPad,CuDef*%
G36*
G01*
X216002000Y-41384000D02*
X216002000Y-42834000D01*
G75*
G02*
X215927000Y-42909000I-75000J0D01*
G01*
X215777000Y-42909000D01*
G75*
G02*
X215702000Y-42834000I0J75000D01*
G01*
X215702000Y-41384000D01*
G75*
G02*
X215777000Y-41309000I75000J0D01*
G01*
X215927000Y-41309000D01*
G75*
G02*
X216002000Y-41384000I0J-75000D01*
G01*
G37*
%TD.AperFunction*%
%TO.P,U3,93*%
%TO.N,/STM32 MCU/LED2*%
%TA.AperFunction,SMDPad,CuDef*%
G36*
G01*
X215502000Y-41384000D02*
X215502000Y-42834000D01*
G75*
G02*
X215427000Y-42909000I-75000J0D01*
G01*
X215277000Y-42909000D01*
G75*
G02*
X215202000Y-42834000I0J75000D01*
G01*
X215202000Y-41384000D01*
G75*
G02*
X215277000Y-41309000I75000J0D01*
G01*
X215427000Y-41309000D01*
G75*
G02*
X215502000Y-41384000I0J-75000D01*
G01*
G37*
%TD.AperFunction*%
%TO.P,U3,92*%
%TO.N,Net-(U3-Pad92)*%
%TA.AperFunction,SMDPad,CuDef*%
G36*
G01*
X215002000Y-41384000D02*
X215002000Y-42834000D01*
G75*
G02*
X214927000Y-42909000I-75000J0D01*
G01*
X214777000Y-42909000D01*
G75*
G02*
X214702000Y-42834000I0J75000D01*
G01*
X214702000Y-41384000D01*
G75*
G02*
X214777000Y-41309000I75000J0D01*
G01*
X214927000Y-41309000D01*
G75*
G02*
X215002000Y-41384000I0J-75000D01*
G01*
G37*
%TD.AperFunction*%
%TO.P,U3,91*%
%TO.N,/STM32 MCU/LED1*%
%TA.AperFunction,SMDPad,CuDef*%
G36*
G01*
X214502000Y-41384000D02*
X214502000Y-42834000D01*
G75*
G02*
X214427000Y-42909000I-75000J0D01*
G01*
X214277000Y-42909000D01*
G75*
G02*
X214202000Y-42834000I0J75000D01*
G01*
X214202000Y-41384000D01*
G75*
G02*
X214277000Y-41309000I75000J0D01*
G01*
X214427000Y-41309000D01*
G75*
G02*
X214502000Y-41384000I0J-75000D01*
G01*
G37*
%TD.AperFunction*%
%TO.P,U3,90*%
%TO.N,Net-(U3-Pad90)*%
%TA.AperFunction,SMDPad,CuDef*%
G36*
G01*
X214002000Y-41384000D02*
X214002000Y-42834000D01*
G75*
G02*
X213927000Y-42909000I-75000J0D01*
G01*
X213777000Y-42909000D01*
G75*
G02*
X213702000Y-42834000I0J75000D01*
G01*
X213702000Y-41384000D01*
G75*
G02*
X213777000Y-41309000I75000J0D01*
G01*
X213927000Y-41309000D01*
G75*
G02*
X214002000Y-41384000I0J-75000D01*
G01*
G37*
%TD.AperFunction*%
%TO.P,U3,89*%
%TO.N,/STM32 MCU/SWO*%
%TA.AperFunction,SMDPad,CuDef*%
G36*
G01*
X213502000Y-41384000D02*
X213502000Y-42834000D01*
G75*
G02*
X213427000Y-42909000I-75000J0D01*
G01*
X213277000Y-42909000D01*
G75*
G02*
X213202000Y-42834000I0J75000D01*
G01*
X213202000Y-41384000D01*
G75*
G02*
X213277000Y-41309000I75000J0D01*
G01*
X213427000Y-41309000D01*
G75*
G02*
X213502000Y-41384000I0J-75000D01*
G01*
G37*
%TD.AperFunction*%
%TO.P,U3,88*%
%TO.N,Net-(U3-Pad88)*%
%TA.AperFunction,SMDPad,CuDef*%
G36*
G01*
X213002000Y-41384000D02*
X213002000Y-42834000D01*
G75*
G02*
X212927000Y-42909000I-75000J0D01*
G01*
X212777000Y-42909000D01*
G75*
G02*
X212702000Y-42834000I0J75000D01*
G01*
X212702000Y-41384000D01*
G75*
G02*
X212777000Y-41309000I75000J0D01*
G01*
X212927000Y-41309000D01*
G75*
G02*
X213002000Y-41384000I0J-75000D01*
G01*
G37*
%TD.AperFunction*%
%TO.P,U3,87*%
%TO.N,Net-(U3-Pad87)*%
%TA.AperFunction,SMDPad,CuDef*%
G36*
G01*
X212502000Y-41384000D02*
X212502000Y-42834000D01*
G75*
G02*
X212427000Y-42909000I-75000J0D01*
G01*
X212277000Y-42909000D01*
G75*
G02*
X212202000Y-42834000I0J75000D01*
G01*
X212202000Y-41384000D01*
G75*
G02*
X212277000Y-41309000I75000J0D01*
G01*
X212427000Y-41309000D01*
G75*
G02*
X212502000Y-41384000I0J-75000D01*
G01*
G37*
%TD.AperFunction*%
%TO.P,U3,86*%
%TO.N,Net-(U3-Pad86)*%
%TA.AperFunction,SMDPad,CuDef*%
G36*
G01*
X212002000Y-41384000D02*
X212002000Y-42834000D01*
G75*
G02*
X211927000Y-42909000I-75000J0D01*
G01*
X211777000Y-42909000D01*
G75*
G02*
X211702000Y-42834000I0J75000D01*
G01*
X211702000Y-41384000D01*
G75*
G02*
X211777000Y-41309000I75000J0D01*
G01*
X211927000Y-41309000D01*
G75*
G02*
X212002000Y-41384000I0J-75000D01*
G01*
G37*
%TD.AperFunction*%
%TO.P,U3,85*%
%TO.N,Net-(U3-Pad85)*%
%TA.AperFunction,SMDPad,CuDef*%
G36*
G01*
X211502000Y-41384000D02*
X211502000Y-42834000D01*
G75*
G02*
X211427000Y-42909000I-75000J0D01*
G01*
X211277000Y-42909000D01*
G75*
G02*
X211202000Y-42834000I0J75000D01*
G01*
X211202000Y-41384000D01*
G75*
G02*
X211277000Y-41309000I75000J0D01*
G01*
X211427000Y-41309000D01*
G75*
G02*
X211502000Y-41384000I0J-75000D01*
G01*
G37*
%TD.AperFunction*%
%TO.P,U3,84*%
%TO.N,Net-(U3-Pad84)*%
%TA.AperFunction,SMDPad,CuDef*%
G36*
G01*
X211002000Y-41384000D02*
X211002000Y-42834000D01*
G75*
G02*
X210927000Y-42909000I-75000J0D01*
G01*
X210777000Y-42909000D01*
G75*
G02*
X210702000Y-42834000I0J75000D01*
G01*
X210702000Y-41384000D01*
G75*
G02*
X210777000Y-41309000I75000J0D01*
G01*
X210927000Y-41309000D01*
G75*
G02*
X211002000Y-41384000I0J-75000D01*
G01*
G37*
%TD.AperFunction*%
%TO.P,U3,83*%
%TO.N,/STM32 MCU/SD_CMD*%
%TA.AperFunction,SMDPad,CuDef*%
G36*
G01*
X210502000Y-41384000D02*
X210502000Y-42834000D01*
G75*
G02*
X210427000Y-42909000I-75000J0D01*
G01*
X210277000Y-42909000D01*
G75*
G02*
X210202000Y-42834000I0J75000D01*
G01*
X210202000Y-41384000D01*
G75*
G02*
X210277000Y-41309000I75000J0D01*
G01*
X210427000Y-41309000D01*
G75*
G02*
X210502000Y-41384000I0J-75000D01*
G01*
G37*
%TD.AperFunction*%
%TO.P,U3,82*%
%TO.N,Net-(U3-Pad82)*%
%TA.AperFunction,SMDPad,CuDef*%
G36*
G01*
X210002000Y-41384000D02*
X210002000Y-42834000D01*
G75*
G02*
X209927000Y-42909000I-75000J0D01*
G01*
X209777000Y-42909000D01*
G75*
G02*
X209702000Y-42834000I0J75000D01*
G01*
X209702000Y-41384000D01*
G75*
G02*
X209777000Y-41309000I75000J0D01*
G01*
X209927000Y-41309000D01*
G75*
G02*
X210002000Y-41384000I0J-75000D01*
G01*
G37*
%TD.AperFunction*%
%TO.P,U3,81*%
%TO.N,Net-(U3-Pad81)*%
%TA.AperFunction,SMDPad,CuDef*%
G36*
G01*
X209502000Y-41384000D02*
X209502000Y-42834000D01*
G75*
G02*
X209427000Y-42909000I-75000J0D01*
G01*
X209277000Y-42909000D01*
G75*
G02*
X209202000Y-42834000I0J75000D01*
G01*
X209202000Y-41384000D01*
G75*
G02*
X209277000Y-41309000I75000J0D01*
G01*
X209427000Y-41309000D01*
G75*
G02*
X209502000Y-41384000I0J-75000D01*
G01*
G37*
%TD.AperFunction*%
%TO.P,U3,80*%
%TO.N,/STM32 MCU/SD_CLK*%
%TA.AperFunction,SMDPad,CuDef*%
G36*
G01*
X209002000Y-41384000D02*
X209002000Y-42834000D01*
G75*
G02*
X208927000Y-42909000I-75000J0D01*
G01*
X208777000Y-42909000D01*
G75*
G02*
X208702000Y-42834000I0J75000D01*
G01*
X208702000Y-41384000D01*
G75*
G02*
X208777000Y-41309000I75000J0D01*
G01*
X208927000Y-41309000D01*
G75*
G02*
X209002000Y-41384000I0J-75000D01*
G01*
G37*
%TD.AperFunction*%
%TO.P,U3,79*%
%TO.N,/STM32 MCU/SD_DAT3*%
%TA.AperFunction,SMDPad,CuDef*%
G36*
G01*
X208502000Y-41384000D02*
X208502000Y-42834000D01*
G75*
G02*
X208427000Y-42909000I-75000J0D01*
G01*
X208277000Y-42909000D01*
G75*
G02*
X208202000Y-42834000I0J75000D01*
G01*
X208202000Y-41384000D01*
G75*
G02*
X208277000Y-41309000I75000J0D01*
G01*
X208427000Y-41309000D01*
G75*
G02*
X208502000Y-41384000I0J-75000D01*
G01*
G37*
%TD.AperFunction*%
%TO.P,U3,78*%
%TO.N,/STM32 MCU/SD_DAT2*%
%TA.AperFunction,SMDPad,CuDef*%
G36*
G01*
X208002000Y-41384000D02*
X208002000Y-42834000D01*
G75*
G02*
X207927000Y-42909000I-75000J0D01*
G01*
X207777000Y-42909000D01*
G75*
G02*
X207702000Y-42834000I0J75000D01*
G01*
X207702000Y-41384000D01*
G75*
G02*
X207777000Y-41309000I75000J0D01*
G01*
X207927000Y-41309000D01*
G75*
G02*
X208002000Y-41384000I0J-75000D01*
G01*
G37*
%TD.AperFunction*%
%TO.P,U3,77*%
%TO.N,Net-(U3-Pad77)*%
%TA.AperFunction,SMDPad,CuDef*%
G36*
G01*
X207502000Y-41384000D02*
X207502000Y-42834000D01*
G75*
G02*
X207427000Y-42909000I-75000J0D01*
G01*
X207277000Y-42909000D01*
G75*
G02*
X207202000Y-42834000I0J75000D01*
G01*
X207202000Y-41384000D01*
G75*
G02*
X207277000Y-41309000I75000J0D01*
G01*
X207427000Y-41309000D01*
G75*
G02*
X207502000Y-41384000I0J-75000D01*
G01*
G37*
%TD.AperFunction*%
%TO.P,U3,76*%
%TO.N,/STM32 MCU/SWCLK*%
%TA.AperFunction,SMDPad,CuDef*%
G36*
G01*
X207002000Y-41384000D02*
X207002000Y-42834000D01*
G75*
G02*
X206927000Y-42909000I-75000J0D01*
G01*
X206777000Y-42909000D01*
G75*
G02*
X206702000Y-42834000I0J75000D01*
G01*
X206702000Y-41384000D01*
G75*
G02*
X206777000Y-41309000I75000J0D01*
G01*
X206927000Y-41309000D01*
G75*
G02*
X207002000Y-41384000I0J-75000D01*
G01*
G37*
%TD.AperFunction*%
%TO.P,U3,75*%
%TO.N,+3V3*%
%TA.AperFunction,SMDPad,CuDef*%
G36*
G01*
X205977000Y-43709000D02*
X205977000Y-43859000D01*
G75*
G02*
X205902000Y-43934000I-75000J0D01*
G01*
X204452000Y-43934000D01*
G75*
G02*
X204377000Y-43859000I0J75000D01*
G01*
X204377000Y-43709000D01*
G75*
G02*
X204452000Y-43634000I75000J0D01*
G01*
X205902000Y-43634000D01*
G75*
G02*
X205977000Y-43709000I0J-75000D01*
G01*
G37*
%TD.AperFunction*%
%TO.P,U3,74*%
%TO.N,GND*%
%TA.AperFunction,SMDPad,CuDef*%
G36*
G01*
X205977000Y-44209000D02*
X205977000Y-44359000D01*
G75*
G02*
X205902000Y-44434000I-75000J0D01*
G01*
X204452000Y-44434000D01*
G75*
G02*
X204377000Y-44359000I0J75000D01*
G01*
X204377000Y-44209000D01*
G75*
G02*
X204452000Y-44134000I75000J0D01*
G01*
X205902000Y-44134000D01*
G75*
G02*
X205977000Y-44209000I0J-75000D01*
G01*
G37*
%TD.AperFunction*%
%TO.P,U3,73*%
%TO.N,Net-(C7-Pad1)*%
%TA.AperFunction,SMDPad,CuDef*%
G36*
G01*
X205977000Y-44709000D02*
X205977000Y-44859000D01*
G75*
G02*
X205902000Y-44934000I-75000J0D01*
G01*
X204452000Y-44934000D01*
G75*
G02*
X204377000Y-44859000I0J75000D01*
G01*
X204377000Y-44709000D01*
G75*
G02*
X204452000Y-44634000I75000J0D01*
G01*
X205902000Y-44634000D01*
G75*
G02*
X205977000Y-44709000I0J-75000D01*
G01*
G37*
%TD.AperFunction*%
%TO.P,U3,72*%
%TO.N,/STM32 MCU/SWDIO*%
%TA.AperFunction,SMDPad,CuDef*%
G36*
G01*
X205977000Y-45209000D02*
X205977000Y-45359000D01*
G75*
G02*
X205902000Y-45434000I-75000J0D01*
G01*
X204452000Y-45434000D01*
G75*
G02*
X204377000Y-45359000I0J75000D01*
G01*
X204377000Y-45209000D01*
G75*
G02*
X204452000Y-45134000I75000J0D01*
G01*
X205902000Y-45134000D01*
G75*
G02*
X205977000Y-45209000I0J-75000D01*
G01*
G37*
%TD.AperFunction*%
%TO.P,U3,71*%
%TO.N,Net-(U3-Pad71)*%
%TA.AperFunction,SMDPad,CuDef*%
G36*
G01*
X205977000Y-45709000D02*
X205977000Y-45859000D01*
G75*
G02*
X205902000Y-45934000I-75000J0D01*
G01*
X204452000Y-45934000D01*
G75*
G02*
X204377000Y-45859000I0J75000D01*
G01*
X204377000Y-45709000D01*
G75*
G02*
X204452000Y-45634000I75000J0D01*
G01*
X205902000Y-45634000D01*
G75*
G02*
X205977000Y-45709000I0J-75000D01*
G01*
G37*
%TD.AperFunction*%
%TO.P,U3,70*%
%TO.N,Net-(U3-Pad70)*%
%TA.AperFunction,SMDPad,CuDef*%
G36*
G01*
X205977000Y-46209000D02*
X205977000Y-46359000D01*
G75*
G02*
X205902000Y-46434000I-75000J0D01*
G01*
X204452000Y-46434000D01*
G75*
G02*
X204377000Y-46359000I0J75000D01*
G01*
X204377000Y-46209000D01*
G75*
G02*
X204452000Y-46134000I75000J0D01*
G01*
X205902000Y-46134000D01*
G75*
G02*
X205977000Y-46209000I0J-75000D01*
G01*
G37*
%TD.AperFunction*%
%TO.P,U3,69*%
%TO.N,/RPi CM4/RPI_TX*%
%TA.AperFunction,SMDPad,CuDef*%
G36*
G01*
X205977000Y-46709000D02*
X205977000Y-46859000D01*
G75*
G02*
X205902000Y-46934000I-75000J0D01*
G01*
X204452000Y-46934000D01*
G75*
G02*
X204377000Y-46859000I0J75000D01*
G01*
X204377000Y-46709000D01*
G75*
G02*
X204452000Y-46634000I75000J0D01*
G01*
X205902000Y-46634000D01*
G75*
G02*
X205977000Y-46709000I0J-75000D01*
G01*
G37*
%TD.AperFunction*%
%TO.P,U3,68*%
%TO.N,/RPi CM4/RPI_RX*%
%TA.AperFunction,SMDPad,CuDef*%
G36*
G01*
X205977000Y-47209000D02*
X205977000Y-47359000D01*
G75*
G02*
X205902000Y-47434000I-75000J0D01*
G01*
X204452000Y-47434000D01*
G75*
G02*
X204377000Y-47359000I0J75000D01*
G01*
X204377000Y-47209000D01*
G75*
G02*
X204452000Y-47134000I75000J0D01*
G01*
X205902000Y-47134000D01*
G75*
G02*
X205977000Y-47209000I0J-75000D01*
G01*
G37*
%TD.AperFunction*%
%TO.P,U3,67*%
%TO.N,Net-(U3-Pad67)*%
%TA.AperFunction,SMDPad,CuDef*%
G36*
G01*
X205977000Y-47709000D02*
X205977000Y-47859000D01*
G75*
G02*
X205902000Y-47934000I-75000J0D01*
G01*
X204452000Y-47934000D01*
G75*
G02*
X204377000Y-47859000I0J75000D01*
G01*
X204377000Y-47709000D01*
G75*
G02*
X204452000Y-47634000I75000J0D01*
G01*
X205902000Y-47634000D01*
G75*
G02*
X205977000Y-47709000I0J-75000D01*
G01*
G37*
%TD.AperFunction*%
%TO.P,U3,66*%
%TO.N,/STM32 MCU/SD_DAT1*%
%TA.AperFunction,SMDPad,CuDef*%
G36*
G01*
X205977000Y-48209000D02*
X205977000Y-48359000D01*
G75*
G02*
X205902000Y-48434000I-75000J0D01*
G01*
X204452000Y-48434000D01*
G75*
G02*
X204377000Y-48359000I0J75000D01*
G01*
X204377000Y-48209000D01*
G75*
G02*
X204452000Y-48134000I75000J0D01*
G01*
X205902000Y-48134000D01*
G75*
G02*
X205977000Y-48209000I0J-75000D01*
G01*
G37*
%TD.AperFunction*%
%TO.P,U3,65*%
%TO.N,/STM32 MCU/SD_DAT0*%
%TA.AperFunction,SMDPad,CuDef*%
G36*
G01*
X205977000Y-48709000D02*
X205977000Y-48859000D01*
G75*
G02*
X205902000Y-48934000I-75000J0D01*
G01*
X204452000Y-48934000D01*
G75*
G02*
X204377000Y-48859000I0J75000D01*
G01*
X204377000Y-48709000D01*
G75*
G02*
X204452000Y-48634000I75000J0D01*
G01*
X205902000Y-48634000D01*
G75*
G02*
X205977000Y-48709000I0J-75000D01*
G01*
G37*
%TD.AperFunction*%
%TO.P,U3,64*%
%TO.N,Net-(U3-Pad64)*%
%TA.AperFunction,SMDPad,CuDef*%
G36*
G01*
X205977000Y-49209000D02*
X205977000Y-49359000D01*
G75*
G02*
X205902000Y-49434000I-75000J0D01*
G01*
X204452000Y-49434000D01*
G75*
G02*
X204377000Y-49359000I0J75000D01*
G01*
X204377000Y-49209000D01*
G75*
G02*
X204452000Y-49134000I75000J0D01*
G01*
X205902000Y-49134000D01*
G75*
G02*
X205977000Y-49209000I0J-75000D01*
G01*
G37*
%TD.AperFunction*%
%TO.P,U3,63*%
%TO.N,Net-(U3-Pad63)*%
%TA.AperFunction,SMDPad,CuDef*%
G36*
G01*
X205977000Y-49709000D02*
X205977000Y-49859000D01*
G75*
G02*
X205902000Y-49934000I-75000J0D01*
G01*
X204452000Y-49934000D01*
G75*
G02*
X204377000Y-49859000I0J75000D01*
G01*
X204377000Y-49709000D01*
G75*
G02*
X204452000Y-49634000I75000J0D01*
G01*
X205902000Y-49634000D01*
G75*
G02*
X205977000Y-49709000I0J-75000D01*
G01*
G37*
%TD.AperFunction*%
%TO.P,U3,62*%
%TO.N,Net-(U3-Pad62)*%
%TA.AperFunction,SMDPad,CuDef*%
G36*
G01*
X205977000Y-50209000D02*
X205977000Y-50359000D01*
G75*
G02*
X205902000Y-50434000I-75000J0D01*
G01*
X204452000Y-50434000D01*
G75*
G02*
X204377000Y-50359000I0J75000D01*
G01*
X204377000Y-50209000D01*
G75*
G02*
X204452000Y-50134000I75000J0D01*
G01*
X205902000Y-50134000D01*
G75*
G02*
X205977000Y-50209000I0J-75000D01*
G01*
G37*
%TD.AperFunction*%
%TO.P,U3,61*%
%TO.N,Net-(U3-Pad61)*%
%TA.AperFunction,SMDPad,CuDef*%
G36*
G01*
X205977000Y-50709000D02*
X205977000Y-50859000D01*
G75*
G02*
X205902000Y-50934000I-75000J0D01*
G01*
X204452000Y-50934000D01*
G75*
G02*
X204377000Y-50859000I0J75000D01*
G01*
X204377000Y-50709000D01*
G75*
G02*
X204452000Y-50634000I75000J0D01*
G01*
X205902000Y-50634000D01*
G75*
G02*
X205977000Y-50709000I0J-75000D01*
G01*
G37*
%TD.AperFunction*%
%TO.P,U3,60*%
%TO.N,Net-(U3-Pad60)*%
%TA.AperFunction,SMDPad,CuDef*%
G36*
G01*
X205977000Y-51209000D02*
X205977000Y-51359000D01*
G75*
G02*
X205902000Y-51434000I-75000J0D01*
G01*
X204452000Y-51434000D01*
G75*
G02*
X204377000Y-51359000I0J75000D01*
G01*
X204377000Y-51209000D01*
G75*
G02*
X204452000Y-51134000I75000J0D01*
G01*
X205902000Y-51134000D01*
G75*
G02*
X205977000Y-51209000I0J-75000D01*
G01*
G37*
%TD.AperFunction*%
%TO.P,U3,59*%
%TO.N,Net-(U3-Pad59)*%
%TA.AperFunction,SMDPad,CuDef*%
G36*
G01*
X205977000Y-51709000D02*
X205977000Y-51859000D01*
G75*
G02*
X205902000Y-51934000I-75000J0D01*
G01*
X204452000Y-51934000D01*
G75*
G02*
X204377000Y-51859000I0J75000D01*
G01*
X204377000Y-51709000D01*
G75*
G02*
X204452000Y-51634000I75000J0D01*
G01*
X205902000Y-51634000D01*
G75*
G02*
X205977000Y-51709000I0J-75000D01*
G01*
G37*
%TD.AperFunction*%
%TO.P,U3,58*%
%TO.N,Net-(U3-Pad58)*%
%TA.AperFunction,SMDPad,CuDef*%
G36*
G01*
X205977000Y-52209000D02*
X205977000Y-52359000D01*
G75*
G02*
X205902000Y-52434000I-75000J0D01*
G01*
X204452000Y-52434000D01*
G75*
G02*
X204377000Y-52359000I0J75000D01*
G01*
X204377000Y-52209000D01*
G75*
G02*
X204452000Y-52134000I75000J0D01*
G01*
X205902000Y-52134000D01*
G75*
G02*
X205977000Y-52209000I0J-75000D01*
G01*
G37*
%TD.AperFunction*%
%TO.P,U3,57*%
%TO.N,Net-(U3-Pad57)*%
%TA.AperFunction,SMDPad,CuDef*%
G36*
G01*
X205977000Y-52709000D02*
X205977000Y-52859000D01*
G75*
G02*
X205902000Y-52934000I-75000J0D01*
G01*
X204452000Y-52934000D01*
G75*
G02*
X204377000Y-52859000I0J75000D01*
G01*
X204377000Y-52709000D01*
G75*
G02*
X204452000Y-52634000I75000J0D01*
G01*
X205902000Y-52634000D01*
G75*
G02*
X205977000Y-52709000I0J-75000D01*
G01*
G37*
%TD.AperFunction*%
%TO.P,U3,56*%
%TO.N,Net-(U3-Pad56)*%
%TA.AperFunction,SMDPad,CuDef*%
G36*
G01*
X205977000Y-53209000D02*
X205977000Y-53359000D01*
G75*
G02*
X205902000Y-53434000I-75000J0D01*
G01*
X204452000Y-53434000D01*
G75*
G02*
X204377000Y-53359000I0J75000D01*
G01*
X204377000Y-53209000D01*
G75*
G02*
X204452000Y-53134000I75000J0D01*
G01*
X205902000Y-53134000D01*
G75*
G02*
X205977000Y-53209000I0J-75000D01*
G01*
G37*
%TD.AperFunction*%
%TO.P,U3,55*%
%TO.N,Net-(U3-Pad55)*%
%TA.AperFunction,SMDPad,CuDef*%
G36*
G01*
X205977000Y-53709000D02*
X205977000Y-53859000D01*
G75*
G02*
X205902000Y-53934000I-75000J0D01*
G01*
X204452000Y-53934000D01*
G75*
G02*
X204377000Y-53859000I0J75000D01*
G01*
X204377000Y-53709000D01*
G75*
G02*
X204452000Y-53634000I75000J0D01*
G01*
X205902000Y-53634000D01*
G75*
G02*
X205977000Y-53709000I0J-75000D01*
G01*
G37*
%TD.AperFunction*%
%TO.P,U3,54*%
%TO.N,Net-(U3-Pad54)*%
%TA.AperFunction,SMDPad,CuDef*%
G36*
G01*
X205977000Y-54209000D02*
X205977000Y-54359000D01*
G75*
G02*
X205902000Y-54434000I-75000J0D01*
G01*
X204452000Y-54434000D01*
G75*
G02*
X204377000Y-54359000I0J75000D01*
G01*
X204377000Y-54209000D01*
G75*
G02*
X204452000Y-54134000I75000J0D01*
G01*
X205902000Y-54134000D01*
G75*
G02*
X205977000Y-54209000I0J-75000D01*
G01*
G37*
%TD.AperFunction*%
%TO.P,U3,53*%
%TO.N,Net-(U3-Pad53)*%
%TA.AperFunction,SMDPad,CuDef*%
G36*
G01*
X205977000Y-54709000D02*
X205977000Y-54859000D01*
G75*
G02*
X205902000Y-54934000I-75000J0D01*
G01*
X204452000Y-54934000D01*
G75*
G02*
X204377000Y-54859000I0J75000D01*
G01*
X204377000Y-54709000D01*
G75*
G02*
X204452000Y-54634000I75000J0D01*
G01*
X205902000Y-54634000D01*
G75*
G02*
X205977000Y-54709000I0J-75000D01*
G01*
G37*
%TD.AperFunction*%
%TO.P,U3,52*%
%TO.N,Net-(U3-Pad52)*%
%TA.AperFunction,SMDPad,CuDef*%
G36*
G01*
X205977000Y-55209000D02*
X205977000Y-55359000D01*
G75*
G02*
X205902000Y-55434000I-75000J0D01*
G01*
X204452000Y-55434000D01*
G75*
G02*
X204377000Y-55359000I0J75000D01*
G01*
X204377000Y-55209000D01*
G75*
G02*
X204452000Y-55134000I75000J0D01*
G01*
X205902000Y-55134000D01*
G75*
G02*
X205977000Y-55209000I0J-75000D01*
G01*
G37*
%TD.AperFunction*%
%TO.P,U3,51*%
%TO.N,Net-(U3-Pad51)*%
%TA.AperFunction,SMDPad,CuDef*%
G36*
G01*
X205977000Y-55709000D02*
X205977000Y-55859000D01*
G75*
G02*
X205902000Y-55934000I-75000J0D01*
G01*
X204452000Y-55934000D01*
G75*
G02*
X204377000Y-55859000I0J75000D01*
G01*
X204377000Y-55709000D01*
G75*
G02*
X204452000Y-55634000I75000J0D01*
G01*
X205902000Y-55634000D01*
G75*
G02*
X205977000Y-55709000I0J-75000D01*
G01*
G37*
%TD.AperFunction*%
%TO.P,U3,50*%
%TO.N,+3V3*%
%TA.AperFunction,SMDPad,CuDef*%
G36*
G01*
X207002000Y-56734000D02*
X207002000Y-58184000D01*
G75*
G02*
X206927000Y-58259000I-75000J0D01*
G01*
X206777000Y-58259000D01*
G75*
G02*
X206702000Y-58184000I0J75000D01*
G01*
X206702000Y-56734000D01*
G75*
G02*
X206777000Y-56659000I75000J0D01*
G01*
X206927000Y-56659000D01*
G75*
G02*
X207002000Y-56734000I0J-75000D01*
G01*
G37*
%TD.AperFunction*%
%TO.P,U3,49*%
%TO.N,Net-(C6-Pad1)*%
%TA.AperFunction,SMDPad,CuDef*%
G36*
G01*
X207502000Y-56734000D02*
X207502000Y-58184000D01*
G75*
G02*
X207427000Y-58259000I-75000J0D01*
G01*
X207277000Y-58259000D01*
G75*
G02*
X207202000Y-58184000I0J75000D01*
G01*
X207202000Y-56734000D01*
G75*
G02*
X207277000Y-56659000I75000J0D01*
G01*
X207427000Y-56659000D01*
G75*
G02*
X207502000Y-56734000I0J-75000D01*
G01*
G37*
%TD.AperFunction*%
%TO.P,U3,48*%
%TO.N,Net-(U3-Pad48)*%
%TA.AperFunction,SMDPad,CuDef*%
G36*
G01*
X208002000Y-56734000D02*
X208002000Y-58184000D01*
G75*
G02*
X207927000Y-58259000I-75000J0D01*
G01*
X207777000Y-58259000D01*
G75*
G02*
X207702000Y-58184000I0J75000D01*
G01*
X207702000Y-56734000D01*
G75*
G02*
X207777000Y-56659000I75000J0D01*
G01*
X207927000Y-56659000D01*
G75*
G02*
X208002000Y-56734000I0J-75000D01*
G01*
G37*
%TD.AperFunction*%
%TO.P,U3,47*%
%TO.N,Net-(U3-Pad47)*%
%TA.AperFunction,SMDPad,CuDef*%
G36*
G01*
X208502000Y-56734000D02*
X208502000Y-58184000D01*
G75*
G02*
X208427000Y-58259000I-75000J0D01*
G01*
X208277000Y-58259000D01*
G75*
G02*
X208202000Y-58184000I0J75000D01*
G01*
X208202000Y-56734000D01*
G75*
G02*
X208277000Y-56659000I75000J0D01*
G01*
X208427000Y-56659000D01*
G75*
G02*
X208502000Y-56734000I0J-75000D01*
G01*
G37*
%TD.AperFunction*%
%TO.P,U3,46*%
%TO.N,Net-(U3-Pad46)*%
%TA.AperFunction,SMDPad,CuDef*%
G36*
G01*
X209002000Y-56734000D02*
X209002000Y-58184000D01*
G75*
G02*
X208927000Y-58259000I-75000J0D01*
G01*
X208777000Y-58259000D01*
G75*
G02*
X208702000Y-58184000I0J75000D01*
G01*
X208702000Y-56734000D01*
G75*
G02*
X208777000Y-56659000I75000J0D01*
G01*
X208927000Y-56659000D01*
G75*
G02*
X209002000Y-56734000I0J-75000D01*
G01*
G37*
%TD.AperFunction*%
%TO.P,U3,45*%
%TO.N,Net-(U3-Pad45)*%
%TA.AperFunction,SMDPad,CuDef*%
G36*
G01*
X209502000Y-56734000D02*
X209502000Y-58184000D01*
G75*
G02*
X209427000Y-58259000I-75000J0D01*
G01*
X209277000Y-58259000D01*
G75*
G02*
X209202000Y-58184000I0J75000D01*
G01*
X209202000Y-56734000D01*
G75*
G02*
X209277000Y-56659000I75000J0D01*
G01*
X209427000Y-56659000D01*
G75*
G02*
X209502000Y-56734000I0J-75000D01*
G01*
G37*
%TD.AperFunction*%
%TO.P,U3,44*%
%TO.N,/Peripherals and Connectors/DS_EXTERNAL*%
%TA.AperFunction,SMDPad,CuDef*%
G36*
G01*
X210002000Y-56734000D02*
X210002000Y-58184000D01*
G75*
G02*
X209927000Y-58259000I-75000J0D01*
G01*
X209777000Y-58259000D01*
G75*
G02*
X209702000Y-58184000I0J75000D01*
G01*
X209702000Y-56734000D01*
G75*
G02*
X209777000Y-56659000I75000J0D01*
G01*
X209927000Y-56659000D01*
G75*
G02*
X210002000Y-56734000I0J-75000D01*
G01*
G37*
%TD.AperFunction*%
%TO.P,U3,43*%
%TO.N,/Peripherals and Connectors/DEPLOY*%
%TA.AperFunction,SMDPad,CuDef*%
G36*
G01*
X210502000Y-56734000D02*
X210502000Y-58184000D01*
G75*
G02*
X210427000Y-58259000I-75000J0D01*
G01*
X210277000Y-58259000D01*
G75*
G02*
X210202000Y-58184000I0J75000D01*
G01*
X210202000Y-56734000D01*
G75*
G02*
X210277000Y-56659000I75000J0D01*
G01*
X210427000Y-56659000D01*
G75*
G02*
X210502000Y-56734000I0J-75000D01*
G01*
G37*
%TD.AperFunction*%
%TO.P,U3,42*%
%TO.N,Net-(U3-Pad42)*%
%TA.AperFunction,SMDPad,CuDef*%
G36*
G01*
X211002000Y-56734000D02*
X211002000Y-58184000D01*
G75*
G02*
X210927000Y-58259000I-75000J0D01*
G01*
X210777000Y-58259000D01*
G75*
G02*
X210702000Y-58184000I0J75000D01*
G01*
X210702000Y-56734000D01*
G75*
G02*
X210777000Y-56659000I75000J0D01*
G01*
X210927000Y-56659000D01*
G75*
G02*
X211002000Y-56734000I0J-75000D01*
G01*
G37*
%TD.AperFunction*%
%TO.P,U3,41*%
%TO.N,Net-(U3-Pad41)*%
%TA.AperFunction,SMDPad,CuDef*%
G36*
G01*
X211502000Y-56734000D02*
X211502000Y-58184000D01*
G75*
G02*
X211427000Y-58259000I-75000J0D01*
G01*
X211277000Y-58259000D01*
G75*
G02*
X211202000Y-58184000I0J75000D01*
G01*
X211202000Y-56734000D01*
G75*
G02*
X211277000Y-56659000I75000J0D01*
G01*
X211427000Y-56659000D01*
G75*
G02*
X211502000Y-56734000I0J-75000D01*
G01*
G37*
%TD.AperFunction*%
%TO.P,U3,40*%
%TO.N,/Power/PWR_CRITICAL*%
%TA.AperFunction,SMDPad,CuDef*%
G36*
G01*
X212002000Y-56734000D02*
X212002000Y-58184000D01*
G75*
G02*
X211927000Y-58259000I-75000J0D01*
G01*
X211777000Y-58259000D01*
G75*
G02*
X211702000Y-58184000I0J75000D01*
G01*
X211702000Y-56734000D01*
G75*
G02*
X211777000Y-56659000I75000J0D01*
G01*
X211927000Y-56659000D01*
G75*
G02*
X212002000Y-56734000I0J-75000D01*
G01*
G37*
%TD.AperFunction*%
%TO.P,U3,39*%
%TO.N,/Power/PWR_WARN*%
%TA.AperFunction,SMDPad,CuDef*%
G36*
G01*
X212502000Y-56734000D02*
X212502000Y-58184000D01*
G75*
G02*
X212427000Y-58259000I-75000J0D01*
G01*
X212277000Y-58259000D01*
G75*
G02*
X212202000Y-58184000I0J75000D01*
G01*
X212202000Y-56734000D01*
G75*
G02*
X212277000Y-56659000I75000J0D01*
G01*
X212427000Y-56659000D01*
G75*
G02*
X212502000Y-56734000I0J-75000D01*
G01*
G37*
%TD.AperFunction*%
%TO.P,U3,38*%
%TO.N,/Power/PWR_VALID*%
%TA.AperFunction,SMDPad,CuDef*%
G36*
G01*
X213002000Y-56734000D02*
X213002000Y-58184000D01*
G75*
G02*
X212927000Y-58259000I-75000J0D01*
G01*
X212777000Y-58259000D01*
G75*
G02*
X212702000Y-58184000I0J75000D01*
G01*
X212702000Y-56734000D01*
G75*
G02*
X212777000Y-56659000I75000J0D01*
G01*
X212927000Y-56659000D01*
G75*
G02*
X213002000Y-56734000I0J-75000D01*
G01*
G37*
%TD.AperFunction*%
%TO.P,U3,37*%
%TO.N,Net-(U3-Pad37)*%
%TA.AperFunction,SMDPad,CuDef*%
G36*
G01*
X213502000Y-56734000D02*
X213502000Y-58184000D01*
G75*
G02*
X213427000Y-58259000I-75000J0D01*
G01*
X213277000Y-58259000D01*
G75*
G02*
X213202000Y-58184000I0J75000D01*
G01*
X213202000Y-56734000D01*
G75*
G02*
X213277000Y-56659000I75000J0D01*
G01*
X213427000Y-56659000D01*
G75*
G02*
X213502000Y-56734000I0J-75000D01*
G01*
G37*
%TD.AperFunction*%
%TO.P,U3,36*%
%TO.N,Net-(U3-Pad36)*%
%TA.AperFunction,SMDPad,CuDef*%
G36*
G01*
X214002000Y-56734000D02*
X214002000Y-58184000D01*
G75*
G02*
X213927000Y-58259000I-75000J0D01*
G01*
X213777000Y-58259000D01*
G75*
G02*
X213702000Y-58184000I0J75000D01*
G01*
X213702000Y-56734000D01*
G75*
G02*
X213777000Y-56659000I75000J0D01*
G01*
X213927000Y-56659000D01*
G75*
G02*
X214002000Y-56734000I0J-75000D01*
G01*
G37*
%TD.AperFunction*%
%TO.P,U3,35*%
%TO.N,Net-(U3-Pad35)*%
%TA.AperFunction,SMDPad,CuDef*%
G36*
G01*
X214502000Y-56734000D02*
X214502000Y-58184000D01*
G75*
G02*
X214427000Y-58259000I-75000J0D01*
G01*
X214277000Y-58259000D01*
G75*
G02*
X214202000Y-58184000I0J75000D01*
G01*
X214202000Y-56734000D01*
G75*
G02*
X214277000Y-56659000I75000J0D01*
G01*
X214427000Y-56659000D01*
G75*
G02*
X214502000Y-56734000I0J-75000D01*
G01*
G37*
%TD.AperFunction*%
%TO.P,U3,34*%
%TO.N,/Peripherals and Connectors/RADIO_INT*%
%TA.AperFunction,SMDPad,CuDef*%
G36*
G01*
X215002000Y-56734000D02*
X215002000Y-58184000D01*
G75*
G02*
X214927000Y-58259000I-75000J0D01*
G01*
X214777000Y-58259000D01*
G75*
G02*
X214702000Y-58184000I0J75000D01*
G01*
X214702000Y-56734000D01*
G75*
G02*
X214777000Y-56659000I75000J0D01*
G01*
X214927000Y-56659000D01*
G75*
G02*
X215002000Y-56734000I0J-75000D01*
G01*
G37*
%TD.AperFunction*%
%TO.P,U3,33*%
%TO.N,/Peripherals and Connectors/RADIO_RST*%
%TA.AperFunction,SMDPad,CuDef*%
G36*
G01*
X215502000Y-56734000D02*
X215502000Y-58184000D01*
G75*
G02*
X215427000Y-58259000I-75000J0D01*
G01*
X215277000Y-58259000D01*
G75*
G02*
X215202000Y-58184000I0J75000D01*
G01*
X215202000Y-56734000D01*
G75*
G02*
X215277000Y-56659000I75000J0D01*
G01*
X215427000Y-56659000D01*
G75*
G02*
X215502000Y-56734000I0J-75000D01*
G01*
G37*
%TD.AperFunction*%
%TO.P,U3,32*%
%TO.N,/Peripherals and Connectors/RADIO_MOSI*%
%TA.AperFunction,SMDPad,CuDef*%
G36*
G01*
X216002000Y-56734000D02*
X216002000Y-58184000D01*
G75*
G02*
X215927000Y-58259000I-75000J0D01*
G01*
X215777000Y-58259000D01*
G75*
G02*
X215702000Y-58184000I0J75000D01*
G01*
X215702000Y-56734000D01*
G75*
G02*
X215777000Y-56659000I75000J0D01*
G01*
X215927000Y-56659000D01*
G75*
G02*
X216002000Y-56734000I0J-75000D01*
G01*
G37*
%TD.AperFunction*%
%TO.P,U3,31*%
%TO.N,/Peripherals and Connectors/RADIO_MISO*%
%TA.AperFunction,SMDPad,CuDef*%
G36*
G01*
X216502000Y-56734000D02*
X216502000Y-58184000D01*
G75*
G02*
X216427000Y-58259000I-75000J0D01*
G01*
X216277000Y-58259000D01*
G75*
G02*
X216202000Y-58184000I0J75000D01*
G01*
X216202000Y-56734000D01*
G75*
G02*
X216277000Y-56659000I75000J0D01*
G01*
X216427000Y-56659000D01*
G75*
G02*
X216502000Y-56734000I0J-75000D01*
G01*
G37*
%TD.AperFunction*%
%TO.P,U3,30*%
%TO.N,/Peripherals and Connectors/RADIO_CLK*%
%TA.AperFunction,SMDPad,CuDef*%
G36*
G01*
X217002000Y-56734000D02*
X217002000Y-58184000D01*
G75*
G02*
X216927000Y-58259000I-75000J0D01*
G01*
X216777000Y-58259000D01*
G75*
G02*
X216702000Y-58184000I0J75000D01*
G01*
X216702000Y-56734000D01*
G75*
G02*
X216777000Y-56659000I75000J0D01*
G01*
X216927000Y-56659000D01*
G75*
G02*
X217002000Y-56734000I0J-75000D01*
G01*
G37*
%TD.AperFunction*%
%TO.P,U3,29*%
%TO.N,/Peripherals and Connectors/RADIO_NSS*%
%TA.AperFunction,SMDPad,CuDef*%
G36*
G01*
X217502000Y-56734000D02*
X217502000Y-58184000D01*
G75*
G02*
X217427000Y-58259000I-75000J0D01*
G01*
X217277000Y-58259000D01*
G75*
G02*
X217202000Y-58184000I0J75000D01*
G01*
X217202000Y-56734000D01*
G75*
G02*
X217277000Y-56659000I75000J0D01*
G01*
X217427000Y-56659000D01*
G75*
G02*
X217502000Y-56734000I0J-75000D01*
G01*
G37*
%TD.AperFunction*%
%TO.P,U3,28*%
%TO.N,+3V3*%
%TA.AperFunction,SMDPad,CuDef*%
G36*
G01*
X218002000Y-56734000D02*
X218002000Y-58184000D01*
G75*
G02*
X217927000Y-58259000I-75000J0D01*
G01*
X217777000Y-58259000D01*
G75*
G02*
X217702000Y-58184000I0J75000D01*
G01*
X217702000Y-56734000D01*
G75*
G02*
X217777000Y-56659000I75000J0D01*
G01*
X217927000Y-56659000D01*
G75*
G02*
X218002000Y-56734000I0J-75000D01*
G01*
G37*
%TD.AperFunction*%
%TO.P,U3,27*%
%TO.N,GND*%
%TA.AperFunction,SMDPad,CuDef*%
G36*
G01*
X218502000Y-56734000D02*
X218502000Y-58184000D01*
G75*
G02*
X218427000Y-58259000I-75000J0D01*
G01*
X218277000Y-58259000D01*
G75*
G02*
X218202000Y-58184000I0J75000D01*
G01*
X218202000Y-56734000D01*
G75*
G02*
X218277000Y-56659000I75000J0D01*
G01*
X218427000Y-56659000D01*
G75*
G02*
X218502000Y-56734000I0J-75000D01*
G01*
G37*
%TD.AperFunction*%
%TO.P,U3,26*%
%TO.N,/Peripherals and Connectors/GPS_TX*%
%TA.AperFunction,SMDPad,CuDef*%
G36*
G01*
X219002000Y-56734000D02*
X219002000Y-58184000D01*
G75*
G02*
X218927000Y-58259000I-75000J0D01*
G01*
X218777000Y-58259000D01*
G75*
G02*
X218702000Y-58184000I0J75000D01*
G01*
X218702000Y-56734000D01*
G75*
G02*
X218777000Y-56659000I75000J0D01*
G01*
X218927000Y-56659000D01*
G75*
G02*
X219002000Y-56734000I0J-75000D01*
G01*
G37*
%TD.AperFunction*%
%TO.P,U3,25*%
%TO.N,/Peripherals and Connectors/GPS_RX*%
%TA.AperFunction,SMDPad,CuDef*%
G36*
G01*
X221327000Y-55709000D02*
X221327000Y-55859000D01*
G75*
G02*
X221252000Y-55934000I-75000J0D01*
G01*
X219802000Y-55934000D01*
G75*
G02*
X219727000Y-55859000I0J75000D01*
G01*
X219727000Y-55709000D01*
G75*
G02*
X219802000Y-55634000I75000J0D01*
G01*
X221252000Y-55634000D01*
G75*
G02*
X221327000Y-55709000I0J-75000D01*
G01*
G37*
%TD.AperFunction*%
%TO.P,U3,24*%
%TO.N,Net-(U3-Pad24)*%
%TA.AperFunction,SMDPad,CuDef*%
G36*
G01*
X221327000Y-55209000D02*
X221327000Y-55359000D01*
G75*
G02*
X221252000Y-55434000I-75000J0D01*
G01*
X219802000Y-55434000D01*
G75*
G02*
X219727000Y-55359000I0J75000D01*
G01*
X219727000Y-55209000D01*
G75*
G02*
X219802000Y-55134000I75000J0D01*
G01*
X221252000Y-55134000D01*
G75*
G02*
X221327000Y-55209000I0J-75000D01*
G01*
G37*
%TD.AperFunction*%
%TO.P,U3,23*%
%TO.N,Net-(U3-Pad23)*%
%TA.AperFunction,SMDPad,CuDef*%
G36*
G01*
X221327000Y-54709000D02*
X221327000Y-54859000D01*
G75*
G02*
X221252000Y-54934000I-75000J0D01*
G01*
X219802000Y-54934000D01*
G75*
G02*
X219727000Y-54859000I0J75000D01*
G01*
X219727000Y-54709000D01*
G75*
G02*
X219802000Y-54634000I75000J0D01*
G01*
X221252000Y-54634000D01*
G75*
G02*
X221327000Y-54709000I0J-75000D01*
G01*
G37*
%TD.AperFunction*%
%TO.P,U3,22*%
%TO.N,/STM32 MCU/VDDA*%
%TA.AperFunction,SMDPad,CuDef*%
G36*
G01*
X221327000Y-54209000D02*
X221327000Y-54359000D01*
G75*
G02*
X221252000Y-54434000I-75000J0D01*
G01*
X219802000Y-54434000D01*
G75*
G02*
X219727000Y-54359000I0J75000D01*
G01*
X219727000Y-54209000D01*
G75*
G02*
X219802000Y-54134000I75000J0D01*
G01*
X221252000Y-54134000D01*
G75*
G02*
X221327000Y-54209000I0J-75000D01*
G01*
G37*
%TD.AperFunction*%
%TO.P,U3,21*%
%TO.N,/STM32 MCU/VREF*%
%TA.AperFunction,SMDPad,CuDef*%
G36*
G01*
X221327000Y-53709000D02*
X221327000Y-53859000D01*
G75*
G02*
X221252000Y-53934000I-75000J0D01*
G01*
X219802000Y-53934000D01*
G75*
G02*
X219727000Y-53859000I0J75000D01*
G01*
X219727000Y-53709000D01*
G75*
G02*
X219802000Y-53634000I75000J0D01*
G01*
X221252000Y-53634000D01*
G75*
G02*
X221327000Y-53709000I0J-75000D01*
G01*
G37*
%TD.AperFunction*%
%TO.P,U3,20*%
%TO.N,GND*%
%TA.AperFunction,SMDPad,CuDef*%
G36*
G01*
X221327000Y-53209000D02*
X221327000Y-53359000D01*
G75*
G02*
X221252000Y-53434000I-75000J0D01*
G01*
X219802000Y-53434000D01*
G75*
G02*
X219727000Y-53359000I0J75000D01*
G01*
X219727000Y-53209000D01*
G75*
G02*
X219802000Y-53134000I75000J0D01*
G01*
X221252000Y-53134000D01*
G75*
G02*
X221327000Y-53209000I0J-75000D01*
G01*
G37*
%TD.AperFunction*%
%TO.P,U3,19*%
%TO.N,+3V3*%
%TA.AperFunction,SMDPad,CuDef*%
G36*
G01*
X221327000Y-52709000D02*
X221327000Y-52859000D01*
G75*
G02*
X221252000Y-52934000I-75000J0D01*
G01*
X219802000Y-52934000D01*
G75*
G02*
X219727000Y-52859000I0J75000D01*
G01*
X219727000Y-52709000D01*
G75*
G02*
X219802000Y-52634000I75000J0D01*
G01*
X221252000Y-52634000D01*
G75*
G02*
X221327000Y-52709000I0J-75000D01*
G01*
G37*
%TD.AperFunction*%
%TO.P,U3,18*%
%TO.N,Net-(U3-Pad18)*%
%TA.AperFunction,SMDPad,CuDef*%
G36*
G01*
X221327000Y-52209000D02*
X221327000Y-52359000D01*
G75*
G02*
X221252000Y-52434000I-75000J0D01*
G01*
X219802000Y-52434000D01*
G75*
G02*
X219727000Y-52359000I0J75000D01*
G01*
X219727000Y-52209000D01*
G75*
G02*
X219802000Y-52134000I75000J0D01*
G01*
X221252000Y-52134000D01*
G75*
G02*
X221327000Y-52209000I0J-75000D01*
G01*
G37*
%TD.AperFunction*%
%TO.P,U3,17*%
%TO.N,/Peripherals and Connectors/LED_DATA*%
%TA.AperFunction,SMDPad,CuDef*%
G36*
G01*
X221327000Y-51709000D02*
X221327000Y-51859000D01*
G75*
G02*
X221252000Y-51934000I-75000J0D01*
G01*
X219802000Y-51934000D01*
G75*
G02*
X219727000Y-51859000I0J75000D01*
G01*
X219727000Y-51709000D01*
G75*
G02*
X219802000Y-51634000I75000J0D01*
G01*
X221252000Y-51634000D01*
G75*
G02*
X221327000Y-51709000I0J-75000D01*
G01*
G37*
%TD.AperFunction*%
%TO.P,U3,16*%
%TO.N,Net-(U3-Pad16)*%
%TA.AperFunction,SMDPad,CuDef*%
G36*
G01*
X221327000Y-51209000D02*
X221327000Y-51359000D01*
G75*
G02*
X221252000Y-51434000I-75000J0D01*
G01*
X219802000Y-51434000D01*
G75*
G02*
X219727000Y-51359000I0J75000D01*
G01*
X219727000Y-51209000D01*
G75*
G02*
X219802000Y-51134000I75000J0D01*
G01*
X221252000Y-51134000D01*
G75*
G02*
X221327000Y-51209000I0J-75000D01*
G01*
G37*
%TD.AperFunction*%
%TO.P,U3,15*%
%TO.N,Net-(U3-Pad15)*%
%TA.AperFunction,SMDPad,CuDef*%
G36*
G01*
X221327000Y-50709000D02*
X221327000Y-50859000D01*
G75*
G02*
X221252000Y-50934000I-75000J0D01*
G01*
X219802000Y-50934000D01*
G75*
G02*
X219727000Y-50859000I0J75000D01*
G01*
X219727000Y-50709000D01*
G75*
G02*
X219802000Y-50634000I75000J0D01*
G01*
X221252000Y-50634000D01*
G75*
G02*
X221327000Y-50709000I0J-75000D01*
G01*
G37*
%TD.AperFunction*%
%TO.P,U3,14*%
%TO.N,/STM32 MCU/NRST*%
%TA.AperFunction,SMDPad,CuDef*%
G36*
G01*
X221327000Y-50209000D02*
X221327000Y-50359000D01*
G75*
G02*
X221252000Y-50434000I-75000J0D01*
G01*
X219802000Y-50434000D01*
G75*
G02*
X219727000Y-50359000I0J75000D01*
G01*
X219727000Y-50209000D01*
G75*
G02*
X219802000Y-50134000I75000J0D01*
G01*
X221252000Y-50134000D01*
G75*
G02*
X221327000Y-50209000I0J-75000D01*
G01*
G37*
%TD.AperFunction*%
%TO.P,U3,13*%
%TO.N,/STM32 MCU/OSC_OUT*%
%TA.AperFunction,SMDPad,CuDef*%
G36*
G01*
X221327000Y-49709000D02*
X221327000Y-49859000D01*
G75*
G02*
X221252000Y-49934000I-75000J0D01*
G01*
X219802000Y-49934000D01*
G75*
G02*
X219727000Y-49859000I0J75000D01*
G01*
X219727000Y-49709000D01*
G75*
G02*
X219802000Y-49634000I75000J0D01*
G01*
X221252000Y-49634000D01*
G75*
G02*
X221327000Y-49709000I0J-75000D01*
G01*
G37*
%TD.AperFunction*%
%TO.P,U3,12*%
%TO.N,/STM32 MCU/OSC_IN*%
%TA.AperFunction,SMDPad,CuDef*%
G36*
G01*
X221327000Y-49209000D02*
X221327000Y-49359000D01*
G75*
G02*
X221252000Y-49434000I-75000J0D01*
G01*
X219802000Y-49434000D01*
G75*
G02*
X219727000Y-49359000I0J75000D01*
G01*
X219727000Y-49209000D01*
G75*
G02*
X219802000Y-49134000I75000J0D01*
G01*
X221252000Y-49134000D01*
G75*
G02*
X221327000Y-49209000I0J-75000D01*
G01*
G37*
%TD.AperFunction*%
%TO.P,U3,11*%
%TO.N,+3V3*%
%TA.AperFunction,SMDPad,CuDef*%
G36*
G01*
X221327000Y-48709000D02*
X221327000Y-48859000D01*
G75*
G02*
X221252000Y-48934000I-75000J0D01*
G01*
X219802000Y-48934000D01*
G75*
G02*
X219727000Y-48859000I0J75000D01*
G01*
X219727000Y-48709000D01*
G75*
G02*
X219802000Y-48634000I75000J0D01*
G01*
X221252000Y-48634000D01*
G75*
G02*
X221327000Y-48709000I0J-75000D01*
G01*
G37*
%TD.AperFunction*%
%TO.P,U3,10*%
%TO.N,GND*%
%TA.AperFunction,SMDPad,CuDef*%
G36*
G01*
X221327000Y-48209000D02*
X221327000Y-48359000D01*
G75*
G02*
X221252000Y-48434000I-75000J0D01*
G01*
X219802000Y-48434000D01*
G75*
G02*
X219727000Y-48359000I0J75000D01*
G01*
X219727000Y-48209000D01*
G75*
G02*
X219802000Y-48134000I75000J0D01*
G01*
X221252000Y-48134000D01*
G75*
G02*
X221327000Y-48209000I0J-75000D01*
G01*
G37*
%TD.AperFunction*%
%TO.P,U3,9*%
%TO.N,Net-(U3-Pad9)*%
%TA.AperFunction,SMDPad,CuDef*%
G36*
G01*
X221327000Y-47709000D02*
X221327000Y-47859000D01*
G75*
G02*
X221252000Y-47934000I-75000J0D01*
G01*
X219802000Y-47934000D01*
G75*
G02*
X219727000Y-47859000I0J75000D01*
G01*
X219727000Y-47709000D01*
G75*
G02*
X219802000Y-47634000I75000J0D01*
G01*
X221252000Y-47634000D01*
G75*
G02*
X221327000Y-47709000I0J-75000D01*
G01*
G37*
%TD.AperFunction*%
%TO.P,U3,8*%
%TO.N,Net-(U3-Pad8)*%
%TA.AperFunction,SMDPad,CuDef*%
G36*
G01*
X221327000Y-47209000D02*
X221327000Y-47359000D01*
G75*
G02*
X221252000Y-47434000I-75000J0D01*
G01*
X219802000Y-47434000D01*
G75*
G02*
X219727000Y-47359000I0J75000D01*
G01*
X219727000Y-47209000D01*
G75*
G02*
X219802000Y-47134000I75000J0D01*
G01*
X221252000Y-47134000D01*
G75*
G02*
X221327000Y-47209000I0J-75000D01*
G01*
G37*
%TD.AperFunction*%
%TO.P,U3,7*%
%TO.N,Net-(U3-Pad7)*%
%TA.AperFunction,SMDPad,CuDef*%
G36*
G01*
X221327000Y-46709000D02*
X221327000Y-46859000D01*
G75*
G02*
X221252000Y-46934000I-75000J0D01*
G01*
X219802000Y-46934000D01*
G75*
G02*
X219727000Y-46859000I0J75000D01*
G01*
X219727000Y-46709000D01*
G75*
G02*
X219802000Y-46634000I75000J0D01*
G01*
X221252000Y-46634000D01*
G75*
G02*
X221327000Y-46709000I0J-75000D01*
G01*
G37*
%TD.AperFunction*%
%TO.P,U3,6*%
%TO.N,Net-(U3-Pad6)*%
%TA.AperFunction,SMDPad,CuDef*%
G36*
G01*
X221327000Y-46209000D02*
X221327000Y-46359000D01*
G75*
G02*
X221252000Y-46434000I-75000J0D01*
G01*
X219802000Y-46434000D01*
G75*
G02*
X219727000Y-46359000I0J75000D01*
G01*
X219727000Y-46209000D01*
G75*
G02*
X219802000Y-46134000I75000J0D01*
G01*
X221252000Y-46134000D01*
G75*
G02*
X221327000Y-46209000I0J-75000D01*
G01*
G37*
%TD.AperFunction*%
%TO.P,U3,5*%
%TO.N,/RPi CM4/RUN_PG*%
%TA.AperFunction,SMDPad,CuDef*%
G36*
G01*
X221327000Y-45709000D02*
X221327000Y-45859000D01*
G75*
G02*
X221252000Y-45934000I-75000J0D01*
G01*
X219802000Y-45934000D01*
G75*
G02*
X219727000Y-45859000I0J75000D01*
G01*
X219727000Y-45709000D01*
G75*
G02*
X219802000Y-45634000I75000J0D01*
G01*
X221252000Y-45634000D01*
G75*
G02*
X221327000Y-45709000I0J-75000D01*
G01*
G37*
%TD.AperFunction*%
%TO.P,U3,4*%
%TO.N,/RPi CM4/GLOBAL_EN*%
%TA.AperFunction,SMDPad,CuDef*%
G36*
G01*
X221327000Y-45209000D02*
X221327000Y-45359000D01*
G75*
G02*
X221252000Y-45434000I-75000J0D01*
G01*
X219802000Y-45434000D01*
G75*
G02*
X219727000Y-45359000I0J75000D01*
G01*
X219727000Y-45209000D01*
G75*
G02*
X219802000Y-45134000I75000J0D01*
G01*
X221252000Y-45134000D01*
G75*
G02*
X221327000Y-45209000I0J-75000D01*
G01*
G37*
%TD.AperFunction*%
%TO.P,U3,3*%
%TO.N,/Peripherals and Connectors/GPIO_3*%
%TA.AperFunction,SMDPad,CuDef*%
G36*
G01*
X221327000Y-44709000D02*
X221327000Y-44859000D01*
G75*
G02*
X221252000Y-44934000I-75000J0D01*
G01*
X219802000Y-44934000D01*
G75*
G02*
X219727000Y-44859000I0J75000D01*
G01*
X219727000Y-44709000D01*
G75*
G02*
X219802000Y-44634000I75000J0D01*
G01*
X221252000Y-44634000D01*
G75*
G02*
X221327000Y-44709000I0J-75000D01*
G01*
G37*
%TD.AperFunction*%
%TO.P,U3,2*%
%TO.N,Net-(U3-Pad2)*%
%TA.AperFunction,SMDPad,CuDef*%
G36*
G01*
X221327000Y-44209000D02*
X221327000Y-44359000D01*
G75*
G02*
X221252000Y-44434000I-75000J0D01*
G01*
X219802000Y-44434000D01*
G75*
G02*
X219727000Y-44359000I0J75000D01*
G01*
X219727000Y-44209000D01*
G75*
G02*
X219802000Y-44134000I75000J0D01*
G01*
X221252000Y-44134000D01*
G75*
G02*
X221327000Y-44209000I0J-75000D01*
G01*
G37*
%TD.AperFunction*%
%TO.P,U3,1*%
%TO.N,/Peripherals and Connectors/GPIO_2*%
%TA.AperFunction,SMDPad,CuDef*%
G36*
G01*
X221327000Y-43709000D02*
X221327000Y-43859000D01*
G75*
G02*
X221252000Y-43934000I-75000J0D01*
G01*
X219802000Y-43934000D01*
G75*
G02*
X219727000Y-43859000I0J75000D01*
G01*
X219727000Y-43709000D01*
G75*
G02*
X219802000Y-43634000I75000J0D01*
G01*
X221252000Y-43634000D01*
G75*
G02*
X221327000Y-43709000I0J-75000D01*
G01*
G37*
%TD.AperFunction*%
%TD*%
D32*
%TO.P,U5,1*%
%TO.N,/RPi CM4/CONN_USB-*%
X205443000Y-39563000D03*
%TO.P,U5,2*%
%TO.N,GND*%
X205443000Y-40513000D03*
%TO.P,U5,3*%
%TO.N,/RPi CM4/CONN_USB+*%
X205443000Y-41463000D03*
%TO.P,U5,4*%
%TO.N,/RPi CM4/USB+*%
X203243000Y-41463000D03*
%TO.P,U5,6*%
%TO.N,/RPi CM4/USB-*%
X203243000Y-39563000D03*
%TO.P,U5,5*%
%TO.N,+5V*%
X203243000Y-40513000D03*
%TD*%
D10*
%TO.P,H1,1*%
%TO.N,GND*%
X193500000Y-33500000D03*
D11*
X195525000Y-33500000D03*
X194931891Y-34931891D03*
X193500000Y-35525000D03*
X192068109Y-34931891D03*
X191475000Y-33500000D03*
X192068109Y-32068109D03*
X193500000Y-31475000D03*
X194931891Y-32068109D03*
%TD*%
%TO.P,H2,1*%
%TO.N,GND*%
X227931891Y-32068109D03*
X226500000Y-31475000D03*
X225068109Y-32068109D03*
X224475000Y-33500000D03*
X225068109Y-34931891D03*
X226500000Y-35525000D03*
X227931891Y-34931891D03*
X228525000Y-33500000D03*
D10*
X226500000Y-33500000D03*
%TD*%
D11*
%TO.P,H4,1*%
%TO.N,GND*%
X194931891Y-80068109D03*
X193500000Y-79475000D03*
X192068109Y-80068109D03*
X191475000Y-81500000D03*
X192068109Y-82931891D03*
X193500000Y-83525000D03*
X194931891Y-82931891D03*
X195525000Y-81500000D03*
D10*
X193500000Y-81500000D03*
%TD*%
D33*
%TO.N,GND*%
X223202500Y-41338500D03*
X221551500Y-42227500D03*
D34*
X198755000Y-52705000D03*
X213550500Y-39497000D03*
D33*
X202374500Y-42164000D03*
D34*
X188404500Y-50609500D03*
X200850500Y-43688000D03*
X200914000Y-49403000D03*
X187325000Y-37846000D03*
X186118500Y-37846000D03*
X187071000Y-53340000D03*
X187007500Y-57150000D03*
X187007500Y-55880000D03*
X214312500Y-49911000D03*
X216154000Y-52324000D03*
X211709000Y-49339500D03*
X212725000Y-48069500D03*
X210248500Y-52514500D03*
X209423000Y-50990500D03*
D33*
X209613500Y-44831000D03*
X205803500Y-44259500D03*
D34*
X208597500Y-62166500D03*
X207645000Y-61531500D03*
X205803500Y-79502000D03*
X208915000Y-76327000D03*
X208915000Y-75501500D03*
X193738500Y-67119500D03*
D33*
X189547500Y-79438500D03*
D34*
X216090500Y-62484000D03*
X221234000Y-62484000D03*
X221234000Y-60896500D03*
D33*
X218376500Y-56832500D03*
X218376500Y-41910000D03*
X219900500Y-48260000D03*
D34*
X192913000Y-74358500D03*
X191643000Y-74358500D03*
X192913000Y-73533000D03*
X191643000Y-73533000D03*
X188849000Y-76644500D03*
X187388500Y-76644500D03*
X186563000Y-75184000D03*
X188785500Y-73660000D03*
X187388500Y-73660000D03*
X188785500Y-62103000D03*
D33*
X232410000Y-35052000D03*
D34*
X231330500Y-75438000D03*
D33*
X218884500Y-76073000D03*
D34*
X210629500Y-76073000D03*
X231457500Y-46863000D03*
X229235000Y-46863000D03*
X233172000Y-46863000D03*
X233108500Y-39243000D03*
X231521000Y-39243000D03*
X229235000Y-40513000D03*
X227584000Y-40513000D03*
X189420500Y-48006000D03*
D33*
X205740000Y-40513000D03*
X219075000Y-38735000D03*
X221869000Y-38481000D03*
X189674500Y-74231500D03*
X188595000Y-74803000D03*
X188595000Y-75565000D03*
X190881000Y-74993500D03*
X190500000Y-74358500D03*
X193675000Y-75057000D03*
X193675000Y-76009500D03*
X193675000Y-77025500D03*
X192659000Y-77152500D03*
X191643000Y-77152500D03*
X190627000Y-76898500D03*
X189738000Y-76581000D03*
D34*
X217868500Y-68679000D03*
X208597500Y-59182000D03*
D33*
X193484500Y-45593000D03*
X193484500Y-47371000D03*
X193484500Y-49784000D03*
X193484500Y-52197000D03*
X193484500Y-54546500D03*
X193548000Y-59372500D03*
X193865500Y-61785500D03*
X193865500Y-63627000D03*
D34*
X203644500Y-56642000D03*
X203327000Y-58864500D03*
D33*
X193484500Y-55880000D03*
X219011500Y-53467000D03*
X227393500Y-52006500D03*
X225552000Y-58801000D03*
X225488500Y-60769500D03*
X229616000Y-60722000D03*
X225234500Y-65214500D03*
X228122600Y-65201538D03*
X225552000Y-63627000D03*
X224345500Y-56832500D03*
X224218500Y-45593000D03*
X194500000Y-41000000D03*
X224293142Y-54800105D03*
X227330000Y-62992000D03*
X227266500Y-58420000D03*
%TO.N,Net-(C1-Pad1)*%
X190309500Y-68643500D03*
D34*
%TO.N,+5V*%
X203454000Y-40513000D03*
D33*
X225488500Y-40068500D03*
X228282500Y-49530000D03*
X227838000Y-48768000D03*
X228282500Y-48006000D03*
D34*
X229616000Y-59690000D03*
X227520500Y-39243000D03*
%TO.N,+3V3*%
X205613000Y-69723000D03*
D33*
X231140000Y-33909000D03*
X231140000Y-35052000D03*
D34*
X227520500Y-37973000D03*
X192659000Y-42037000D03*
X189420500Y-45783500D03*
X186944000Y-63944500D03*
X187896500Y-58420000D03*
X189230000Y-64135000D03*
X189293500Y-70104000D03*
X198247000Y-79248000D03*
X192849500Y-71945500D03*
X191643000Y-71945500D03*
D33*
X202565000Y-43815000D03*
X217805000Y-59309000D03*
X206852000Y-57459000D03*
D34*
X217932000Y-64008000D03*
X217868500Y-62484000D03*
X206883000Y-60134500D03*
X185967000Y-45109500D03*
X185967000Y-49333000D03*
X216789000Y-70739000D03*
X216058750Y-71532750D03*
X217822750Y-60878750D03*
D33*
X218821000Y-42608500D03*
X217868500Y-57404000D03*
X187579000Y-82804000D03*
X219456000Y-48831500D03*
X219392500Y-52768500D03*
D34*
X215328500Y-39497000D03*
X232473500Y-63436500D03*
D33*
X229277934Y-73385434D03*
X229298500Y-75184000D03*
D34*
X232664000Y-82486500D03*
X230378000Y-82486500D03*
D33*
X220095247Y-41095247D03*
%TO.N,Net-(C7-Pad1)*%
X205177000Y-44784000D03*
%TO.N,/STM32 MCU/OSC_IN*%
X215900000Y-49276000D03*
%TO.N,/STM32 MCU/VDDA*%
X219900500Y-54292500D03*
X219456000Y-60896500D03*
%TO.N,/STM32 MCU/VREF*%
X220472000Y-53784500D03*
X217900250Y-66960750D03*
%TO.N,Net-(F1-Pad1)*%
X200406000Y-77343000D03*
X203708000Y-75311000D03*
%TO.N,/Peripherals and Connectors/DS_EXTERNAL*%
X206756000Y-74993500D03*
X194500500Y-77851000D03*
X186944000Y-62244000D03*
X205613000Y-71487000D03*
X209867500Y-60960000D03*
%TO.N,Net-(J4-Pad2)*%
X207010000Y-77343000D03*
%TO.N,Net-(J4-Pad3)*%
X205359000Y-77343000D03*
X203708000Y-77343000D03*
%TO.N,Net-(J4-Pad4)*%
X202057000Y-77343000D03*
D34*
%TO.N,VBAT*%
X233172000Y-37973000D03*
D33*
%TO.N,/Peripherals and Connectors/MISO*%
X230554699Y-55562500D03*
X232328000Y-40513000D03*
X227325456Y-56424231D03*
%TO.N,/Peripherals and Connectors/MOSI*%
X227262900Y-55499000D03*
X230140799Y-54869777D03*
X230759000Y-41402000D03*
%TO.N,/Peripherals and Connectors/SDA*%
X230568500Y-70104000D03*
X229933569Y-50800069D03*
X231172900Y-59944000D03*
%TO.N,/Peripherals and Connectors/CLK*%
X232328000Y-43053000D03*
X230968599Y-54832237D03*
X227266500Y-57404000D03*
D35*
%TO.N,/Peripherals and Connectors/SCL*%
X232537000Y-76962000D03*
X230378000Y-78740000D03*
D33*
X229108000Y-49911000D03*
X230759000Y-60960000D03*
X229870000Y-69024500D03*
X229235000Y-70675500D03*
%TO.N,/RPi CM4/CE0*%
X232328000Y-44323000D03*
X231394000Y-54102000D03*
X228727000Y-57246400D03*
%TO.N,/RPi CM4/CE1*%
X232328000Y-45593000D03*
X228854000Y-58229500D03*
X231838500Y-55245000D03*
%TO.N,/Power/PWR_CRITICAL*%
X213296500Y-64262000D03*
X211836000Y-58737500D03*
%TO.N,/Power/PWR_WARN*%
X213741000Y-63690500D03*
X212407500Y-59309000D03*
%TO.N,/Power/PWR_VALID*%
X214376000Y-64643000D03*
X212852000Y-59880500D03*
D35*
%TO.N,/STM32 MCU/SD_DAT1*%
X189611000Y-50165000D03*
D33*
X202946000Y-50673000D03*
X203835000Y-48387000D03*
D35*
%TO.N,/STM32 MCU/SD_DAT0*%
X189611000Y-49085500D03*
%TO.N,/STM32 MCU/SD_CLK*%
X189611000Y-46863000D03*
%TO.N,/STM32 MCU/SD_CMD*%
X189611000Y-44640500D03*
D33*
X210312000Y-40830500D03*
D35*
%TO.N,/STM32 MCU/SD_DAT3*%
X190055500Y-43561000D03*
D33*
X208661000Y-40259000D03*
D35*
%TO.N,/STM32 MCU/SD_DAT2*%
X189611000Y-42481500D03*
D33*
X207835500Y-40957500D03*
%TO.N,/RPi CM4/GLOBAL_EN*%
X219448801Y-43493900D03*
%TO.N,/RPi CM4/nRPI_BOOT*%
X227012500Y-46228000D03*
%TO.N,Net-(J15-Pad92)*%
X225415174Y-46796646D03*
%TO.N,/RPi CM4/RPI_TX*%
X227266500Y-53911500D03*
X221869000Y-53657500D03*
X207962500Y-47752000D03*
%TO.N,/RPi CM4/RPI_RX*%
X227266500Y-54737000D03*
X207506900Y-48323500D03*
X221805500Y-54356000D03*
%TO.N,/RPi CM4/GPIO_5*%
X224400000Y-58400000D03*
%TO.N,/RPi CM4/GPIO_6*%
X224091500Y-59055000D03*
%TO.N,/RPi CM4/GPIO_13*%
X224155000Y-59753500D03*
%TO.N,/RPi CM4/GPIO_19*%
X225488500Y-60007500D03*
%TO.N,/RPi CM4/GPIO_26*%
X224282000Y-60642500D03*
%TO.N,/RPi CM4/USB-*%
X196301558Y-42700558D03*
%TO.N,/RPi CM4/USB+*%
X197167500Y-43561000D03*
%TO.N,/Peripherals and Connectors/DEPLOY*%
X210375500Y-58928000D03*
%TO.N,/STM32 MCU/SWDIO*%
X201485500Y-51816000D03*
X203454000Y-45275500D03*
%TO.N,/STM32 MCU/SWCLK*%
X203771405Y-42282224D03*
X199707500Y-57277000D03*
%TO.N,/STM32 MCU/NRST*%
X200977500Y-55689500D03*
X215265000Y-54102000D03*
%TO.N,/STM32 MCU/OSC_OUT*%
X218313000Y-50165000D03*
%TO.N,/STM32 MCU/SWO*%
X200279000Y-56388000D03*
X207137000Y-53022500D03*
%TO.N,/STM32 MCU/BOOT0*%
X215963500Y-43434000D03*
%TO.N,Net-(R32-Pad2)*%
X232410000Y-33909000D03*
X232170000Y-64770000D03*
%TO.N,/Peripherals and Connectors/RADIO_MOSI*%
X211074000Y-64262000D03*
X211041100Y-65880100D03*
%TO.N,/Peripherals and Connectors/RADIO_MISO*%
X210565853Y-66421078D03*
X210566000Y-65151000D03*
%TO.N,/Peripherals and Connectors/RADIO_RST*%
X204757161Y-67978161D03*
X204724000Y-66802000D03*
X214438100Y-59817000D03*
X215265900Y-58801000D03*
%TD*%
D36*
%TO.N,GND*%
X203009500Y-57241500D02*
X202339000Y-57912000D01*
X203644500Y-56642000D02*
X203009500Y-57241500D01*
X203009500Y-58582500D02*
X202339000Y-57912000D01*
X203327000Y-58864500D02*
X203009500Y-58582500D01*
D37*
X219194500Y-53284000D02*
X219011500Y-53467000D01*
X220527000Y-53284000D02*
X219194500Y-53284000D01*
D38*
X223266000Y-51435000D02*
X221932500Y-50101500D01*
X221327000Y-48284000D02*
X220527000Y-48284000D01*
X221932500Y-48889500D02*
X221327000Y-48284000D01*
X221932500Y-50101500D02*
X221932500Y-48889500D01*
D37*
%TO.N,Net-(C1-Pad1)*%
X189285000Y-69096000D02*
X189857000Y-69096000D01*
X189857000Y-69096000D02*
X190309500Y-68643500D01*
%TO.N,+5V*%
X218870500Y-80218000D02*
X218980000Y-80327500D01*
X218870500Y-77660500D02*
X218870500Y-80218000D01*
D38*
%TO.N,+3V3*%
X217805000Y-57506000D02*
X217852000Y-57459000D01*
X217805000Y-59309000D02*
X217805000Y-57506000D01*
D37*
X210961000Y-80308500D02*
X210980000Y-80327500D01*
X210961000Y-77660500D02*
X210961000Y-80308500D01*
X187620000Y-83324000D02*
X187620000Y-82845000D01*
X187620000Y-82845000D02*
X187579000Y-82804000D01*
X205146000Y-43815000D02*
X205177000Y-43784000D01*
X202565000Y-43815000D02*
X205146000Y-43815000D01*
X219503500Y-48784000D02*
X219456000Y-48831500D01*
X220527000Y-48784000D02*
X219503500Y-48784000D01*
X220527000Y-52784000D02*
X219408000Y-52784000D01*
X219408000Y-52784000D02*
X219392500Y-52768500D01*
%TO.N,Net-(C6-Pad1)*%
X207352000Y-58259000D02*
X207352000Y-57459000D01*
X207136090Y-58474910D02*
X207352000Y-58259000D01*
X204651910Y-58474910D02*
X207136090Y-58474910D01*
X204089000Y-57912000D02*
X204651910Y-58474910D01*
D39*
%TO.N,/STM32 MCU/OSC_IN*%
X220519000Y-49276000D02*
X220527000Y-49284000D01*
X215900000Y-49276000D02*
X220519000Y-49276000D01*
D37*
%TO.N,Net-(C12-Pad1)*%
X196977000Y-55657000D02*
X197016000Y-55696000D01*
X196977000Y-52705000D02*
X196977000Y-55657000D01*
X192450000Y-52705000D02*
X191815000Y-53340000D01*
X196977000Y-52705000D02*
X192450000Y-52705000D01*
%TO.N,Net-(D1-Pad2)*%
X217106500Y-77646500D02*
X217120500Y-77660500D01*
X217106500Y-76073000D02*
X217106500Y-77646500D01*
%TO.N,Net-(D2-Pad2)*%
X212697000Y-77646500D02*
X212711000Y-77660500D01*
X212697000Y-76073000D02*
X212697000Y-77646500D01*
D38*
%TO.N,Net-(D3-Pad2)*%
X220331000Y-36717000D02*
X220345000Y-36731000D01*
X218821000Y-36717000D02*
X220331000Y-36717000D01*
%TO.N,Net-(D4-Pad2)*%
X221869000Y-36703000D02*
X223393000Y-36703000D01*
D37*
%TO.N,Net-(F1-Pad1)*%
X201835000Y-78772000D02*
X201835000Y-79605000D01*
X200406000Y-77343000D02*
X201835000Y-78772000D01*
X201835000Y-80359000D02*
X201835000Y-79605000D01*
X198247000Y-80998000D02*
X201196000Y-80998000D01*
X201196000Y-80998000D02*
X201835000Y-80359000D01*
X200406000Y-77343000D02*
X201358500Y-76390500D01*
X202628500Y-76390500D02*
X203708000Y-75311000D01*
X201358500Y-76390500D02*
X202628500Y-76390500D01*
D38*
%TO.N,/Peripherals and Connectors/GPS_RX*%
X220527000Y-55784000D02*
X221646000Y-55784000D01*
X221646000Y-55784000D02*
X222250000Y-56388000D01*
X222250000Y-56388000D02*
X222250000Y-60198000D01*
X223774000Y-61722000D02*
X229616000Y-61722000D01*
X222250000Y-60198000D02*
X223774000Y-61722000D01*
%TO.N,/Peripherals and Connectors/GPS_TX*%
X228991000Y-62722000D02*
X228279910Y-62010910D01*
X229616000Y-62722000D02*
X228991000Y-62722000D01*
X228279910Y-62010910D02*
X223654330Y-62010910D01*
X223654330Y-62010910D02*
X221714420Y-60071000D01*
X220472000Y-60071000D02*
X218852000Y-58451000D01*
X218852000Y-58451000D02*
X218852000Y-57459000D01*
X221714420Y-60071000D02*
X220472000Y-60071000D01*
%TO.N,Net-(J1-Pad5)*%
X228991000Y-63722000D02*
X228536500Y-64176500D01*
X229616000Y-63722000D02*
X228991000Y-63722000D01*
X228536500Y-65392920D02*
X227803090Y-66126330D01*
X228536500Y-64176500D02*
X228536500Y-65392920D01*
X227803090Y-66126330D02*
X227803090Y-66900410D01*
X226467500Y-68236000D02*
X225361500Y-68236000D01*
X227803090Y-66900410D02*
X226467500Y-68236000D01*
%TO.N,Net-(J1-Pad6)*%
X228092000Y-66246000D02*
X229616000Y-64722000D01*
X228092000Y-68236000D02*
X228092000Y-66246000D01*
D37*
%TO.N,/Peripherals and Connectors/DS_EXTERNAL*%
X187799000Y-77851000D02*
X194500500Y-77851000D01*
X187620000Y-78994000D02*
X187620000Y-78030000D01*
X187620000Y-78030000D02*
X187799000Y-77851000D01*
X189285000Y-63119000D02*
X187819000Y-63119000D01*
X187819000Y-63119000D02*
X186944000Y-62244000D01*
X194500500Y-72043878D02*
X194500500Y-77851000D01*
X193451721Y-70995099D02*
X194500500Y-72043878D01*
X188891621Y-70995099D02*
X193451721Y-70995099D01*
X187875910Y-69979388D02*
X188891621Y-70995099D01*
X187875910Y-63175910D02*
X187875910Y-69979388D01*
X187819000Y-63119000D02*
X187875910Y-63175910D01*
X205613000Y-73850500D02*
X206756000Y-74993500D01*
X205613000Y-71487000D02*
X205613000Y-73850500D01*
D39*
X209867500Y-57474500D02*
X209852000Y-57459000D01*
X209867500Y-60960000D02*
X209867500Y-57474500D01*
D37*
%TO.N,Net-(J4-Pad2)*%
X204835000Y-79199802D02*
X204835000Y-79605000D01*
X206691802Y-77343000D02*
X204835000Y-79199802D01*
X207010000Y-77343000D02*
X206691802Y-77343000D01*
%TO.N,Net-(J4-Pad3)*%
X203708000Y-79478000D02*
X203835000Y-79605000D01*
X203708000Y-77343000D02*
X203708000Y-79478000D01*
X203835000Y-79605000D02*
X203835000Y-78740000D01*
X205232000Y-77343000D02*
X205359000Y-77343000D01*
X203835000Y-78740000D02*
X205232000Y-77343000D01*
%TO.N,Net-(J4-Pad4)*%
X202057000Y-77343000D02*
X202057000Y-77851000D01*
X202835000Y-78629000D02*
X202835000Y-79605000D01*
X202057000Y-77851000D02*
X202835000Y-78629000D01*
D38*
%TO.N,/Peripherals and Connectors/MISO*%
X227965000Y-56543590D02*
X228790500Y-56543590D01*
X228790500Y-56543590D02*
X230004330Y-56543590D01*
X230004330Y-56543590D02*
X230364210Y-56183710D01*
X230364210Y-56183710D02*
X230554699Y-55993221D01*
X230554699Y-55993221D02*
X230554699Y-55562500D01*
X227965000Y-56543590D02*
X227444815Y-56543590D01*
X227444815Y-56543590D02*
X227325456Y-56424231D01*
%TO.N,/Peripherals and Connectors/MOSI*%
X227330000Y-55499000D02*
X228085680Y-56254680D01*
X227262900Y-55499000D02*
X227330000Y-55499000D01*
X228085680Y-56254680D02*
X229876320Y-56254680D01*
X229876320Y-56254680D02*
X230140799Y-55990201D01*
X230140799Y-55990201D02*
X230140799Y-54869777D01*
X231140000Y-41783000D02*
X230759000Y-41402000D01*
X232328000Y-41783000D02*
X231140000Y-41783000D01*
D37*
%TO.N,/Peripherals and Connectors/SDA*%
X230831000Y-77430000D02*
X230831000Y-78117038D01*
X228428000Y-41783000D02*
X219737412Y-41783000D01*
X219737412Y-41783000D02*
X218948000Y-40957500D01*
D38*
X228092000Y-69686000D02*
X230150500Y-69686000D01*
X233125901Y-77262099D02*
X231550981Y-78837019D01*
X233125901Y-72661401D02*
X233125901Y-77262099D01*
D37*
X230831000Y-78117038D02*
X231550981Y-78837019D01*
X231550981Y-78837019D02*
X232664000Y-79950038D01*
D38*
X230568500Y-70104000D02*
X233125901Y-72661401D01*
X230150500Y-69686000D02*
X230568500Y-70104000D01*
D37*
X232664000Y-79950038D02*
X232664000Y-80772000D01*
D39*
X216852000Y-41309000D02*
X216852000Y-42109000D01*
X217203500Y-40957500D02*
X216852000Y-41309000D01*
X218948000Y-40957500D02*
X217203500Y-40957500D01*
D38*
X230105811Y-50627827D02*
X229933569Y-50800069D01*
X230105811Y-42060811D02*
X230105811Y-50627827D01*
X228428000Y-41783000D02*
X229828000Y-41783000D01*
X229828000Y-41783000D02*
X230105811Y-42060811D01*
X230568500Y-69110426D02*
X230568500Y-70104000D01*
X231047909Y-65842171D02*
X230158910Y-66731170D01*
X231172900Y-61533510D02*
X231047910Y-61658500D01*
X230158910Y-68700836D02*
X230568500Y-69110426D01*
X231172900Y-59944000D02*
X231172900Y-61533510D01*
X231047910Y-61658500D02*
X231047909Y-65842171D01*
X230158910Y-66731170D02*
X230158910Y-68700836D01*
%TO.N,/Peripherals and Connectors/CLK*%
X230968599Y-55987901D02*
X230968599Y-54832237D01*
X230124000Y-56832500D02*
X230968599Y-55987901D01*
X227393500Y-56832500D02*
X230124000Y-56832500D01*
X227266500Y-56959500D02*
X227393500Y-56832500D01*
X227266500Y-57404000D02*
X227266500Y-56959500D01*
D37*
%TO.N,/Peripherals and Connectors/SCL*%
X230831000Y-76430000D02*
X232005000Y-76430000D01*
X232005000Y-76430000D02*
X232537000Y-76962000D01*
X230378000Y-78740000D02*
X230378000Y-80786000D01*
X216352000Y-42820412D02*
X216352000Y-42109000D01*
X216656498Y-43124910D02*
X216352000Y-42820412D01*
X219047502Y-43124910D02*
X216656498Y-43124910D01*
X219119412Y-43053000D02*
X219047502Y-43124910D01*
X228428000Y-43053000D02*
X219119412Y-43053000D01*
X230831000Y-76430000D02*
X230056000Y-76430000D01*
D38*
X232836991Y-72781071D02*
X232836991Y-76662009D01*
X232836991Y-76662009D02*
X232537000Y-76962000D01*
X230731420Y-70675500D02*
X232836991Y-72781071D01*
X225361500Y-69686000D02*
X226351000Y-70675500D01*
X229816901Y-49202099D02*
X229108000Y-49911000D01*
X229816901Y-43801879D02*
X229816901Y-49202099D01*
X228428000Y-43053000D02*
X229068022Y-43053000D01*
X229068022Y-43053000D02*
X229816901Y-43801879D01*
X230759000Y-60960000D02*
X230759000Y-64683292D01*
X230759000Y-64683292D02*
X230759000Y-65595500D01*
X230759000Y-65595500D02*
X230759000Y-65722500D01*
X230759000Y-65722500D02*
X229870000Y-66611500D01*
X229870000Y-66611500D02*
X229870000Y-69024500D01*
X226351000Y-70675500D02*
X229235000Y-70675500D01*
X229235000Y-70675500D02*
X230731420Y-70675500D01*
%TO.N,/RPi CM4/CE0*%
X231394000Y-55971080D02*
X230215080Y-57150000D01*
X231394000Y-54102000D02*
X231394000Y-55971080D01*
X230215080Y-57150000D02*
X229489000Y-57150000D01*
X229489000Y-57150000D02*
X228823400Y-57150000D01*
X228823400Y-57150000D02*
X228727000Y-57246400D01*
D39*
%TO.N,/Peripherals and Connectors/GPIO_2*%
X226439000Y-43784000D02*
X220527000Y-43784000D01*
X226978000Y-44323000D02*
X226439000Y-43784000D01*
X228428000Y-44323000D02*
X226978000Y-44323000D01*
D38*
%TO.N,/RPi CM4/CE1*%
X229263590Y-57438910D02*
X228854000Y-57848500D01*
X230334751Y-57438909D02*
X229263590Y-57438910D01*
X228854000Y-57848500D02*
X228854000Y-58229500D01*
X231838500Y-55245000D02*
X231838500Y-55935160D01*
X231838500Y-55935160D02*
X230334751Y-57438909D01*
D39*
%TO.N,/Peripherals and Connectors/GPIO_3*%
X221725500Y-44784000D02*
X220527000Y-44784000D01*
X222386590Y-44122910D02*
X221725500Y-44784000D01*
X228428000Y-45593000D02*
X226978000Y-45593000D01*
X225507910Y-44122910D02*
X222386590Y-44122910D01*
X226978000Y-45593000D02*
X225507910Y-44122910D01*
D40*
%TO.N,/Peripherals and Connectors/RF_ANT*%
X190364000Y-75961000D02*
X189587000Y-75184000D01*
X192279000Y-75961000D02*
X190364000Y-75961000D01*
D38*
%TO.N,Net-(J10-Pad2)*%
X232170000Y-53580000D02*
X233045000Y-52705000D01*
X229933500Y-53580000D02*
X232170000Y-53580000D01*
D39*
%TO.N,/Power/PWR_CRITICAL*%
X213550500Y-66109581D02*
X217389210Y-69948291D01*
X219421210Y-69948291D02*
X222580738Y-73107820D01*
X217389210Y-69948291D02*
X219421210Y-69948291D01*
X229672926Y-74430000D02*
X230831000Y-74430000D01*
X222580738Y-73107820D02*
X228350746Y-73107820D01*
X228350746Y-73107820D02*
X229672926Y-74430000D01*
X213550500Y-64516000D02*
X213296500Y-64262000D01*
X213550500Y-66109581D02*
X213550500Y-64516000D01*
X211836000Y-58737500D02*
X211836000Y-57475000D01*
X211836000Y-57475000D02*
X211852000Y-57459000D01*
%TO.N,/Power/PWR_WARN*%
X230831000Y-73430000D02*
X229894000Y-73430000D01*
X229716835Y-73174761D02*
X229310984Y-72768910D01*
X229894000Y-73430000D02*
X229716835Y-73252835D01*
X229716835Y-73252835D02*
X229716835Y-73174761D01*
X229310984Y-72768910D02*
X226951090Y-72768910D01*
X222721119Y-72768910D02*
X219506119Y-69553910D01*
X226951090Y-72768910D02*
X222721119Y-72768910D01*
X217474119Y-69553910D02*
X217275590Y-69355380D01*
X219506119Y-69553910D02*
X217474119Y-69553910D01*
X213910090Y-63859590D02*
X213741000Y-63690500D01*
X217275590Y-69355380D02*
X213910090Y-65989881D01*
X213910090Y-65989881D02*
X213910090Y-63859590D01*
X212352000Y-59253500D02*
X212407500Y-59309000D01*
X212352000Y-57459000D02*
X212352000Y-59253500D01*
%TO.N,/Power/PWR_VALID*%
X214376000Y-64643000D02*
X214376000Y-65976500D01*
X222861500Y-72430000D02*
X230831000Y-72430000D01*
X219646500Y-69215000D02*
X222861500Y-72430000D01*
X214376000Y-65976500D02*
X217614500Y-69215000D01*
X217614500Y-69215000D02*
X219646500Y-69215000D01*
X212852000Y-59880500D02*
X212852000Y-57459000D01*
D37*
%TO.N,Net-(J13-Pad2)*%
X192139000Y-58096000D02*
X191815000Y-58420000D01*
X197016000Y-58096000D02*
X192139000Y-58096000D01*
%TO.N,Net-(J13-Pad4)*%
X191961000Y-57296000D02*
X191815000Y-57150000D01*
X197016000Y-57296000D02*
X191961000Y-57296000D01*
%TO.N,Net-(J13-Pad6)*%
X197016000Y-56496000D02*
X196777378Y-56496000D01*
X191815000Y-55880000D02*
X192532000Y-55880000D01*
X193148000Y-56496000D02*
X197016000Y-56496000D01*
X192532000Y-55880000D02*
X193148000Y-56496000D01*
D38*
%TO.N,/STM32 MCU/SD_DAT1*%
X205074000Y-48387000D02*
X205177000Y-48284000D01*
X203835000Y-48387000D02*
X205074000Y-48387000D01*
X194134074Y-50673000D02*
X202946000Y-50673000D01*
X193671074Y-50210000D02*
X194134074Y-50673000D01*
X190015000Y-50210000D02*
X193671074Y-50210000D01*
%TO.N,/STM32 MCU/SD_DAT0*%
X204503774Y-48784000D02*
X205177000Y-48784000D01*
X204222426Y-48784000D02*
X205177000Y-48784000D01*
X202622336Y-50384090D02*
X204222426Y-48784000D01*
X190015000Y-49110000D02*
X193423074Y-49110000D01*
X193423074Y-49110000D02*
X193898401Y-49585327D01*
X193898401Y-49585327D02*
X193898401Y-50028747D01*
X193898401Y-50028747D02*
X194253744Y-50384090D01*
X194253744Y-50384090D02*
X202622336Y-50384090D01*
%TO.N,/STM32 MCU/SD_CLK*%
X208581000Y-43180000D02*
X208852000Y-42909000D01*
X195974978Y-46910000D02*
X200149478Y-42735500D01*
X208852000Y-42909000D02*
X208852000Y-42109000D01*
X206502000Y-43180000D02*
X208581000Y-43180000D01*
X190015000Y-46910000D02*
X195974978Y-46910000D01*
X205994000Y-42672000D02*
X206502000Y-43180000D01*
X200149478Y-42735500D02*
X205994000Y-42672000D01*
%TO.N,/STM32 MCU/SD_CMD*%
X210352000Y-40870500D02*
X210312000Y-40830500D01*
X210352000Y-42109000D02*
X210352000Y-40870500D01*
D37*
%TO.N,/STM32 MCU/SD_DAT3*%
X208352000Y-40568000D02*
X208352000Y-42109000D01*
X208661000Y-40259000D02*
X208352000Y-40568000D01*
D38*
%TO.N,/STM32 MCU/SD_DAT2*%
X207852000Y-42109000D02*
X207852000Y-40974000D01*
X207852000Y-40974000D02*
X207835500Y-40957500D01*
D39*
%TO.N,/RPi CM4/GLOBAL_EN*%
X220527000Y-45284000D02*
X219727000Y-45284000D01*
X219448801Y-45005801D02*
X219448801Y-43493900D01*
X219727000Y-45284000D02*
X219448801Y-45005801D01*
D38*
%TO.N,/RPi CM4/nRPI_BOOT*%
X227012500Y-46312036D02*
X227012500Y-46228000D01*
X224556536Y-48768000D02*
X227012500Y-46312036D01*
X223393000Y-48768000D02*
X223266000Y-48895000D01*
X224556536Y-48768000D02*
X223393000Y-48768000D01*
%TO.N,/RPi CM4/RPI_TX*%
X227266500Y-53911500D02*
X222123000Y-53911500D01*
X222123000Y-53911500D02*
X221869000Y-53657500D01*
X206994500Y-46784000D02*
X207962500Y-47752000D01*
X205177000Y-46784000D02*
X206994500Y-46784000D01*
%TO.N,/RPi CM4/RPI_RX*%
X205177000Y-47284000D02*
X206467400Y-47284000D01*
X206467400Y-47284000D02*
X207506900Y-48323500D01*
X227266500Y-54737000D02*
X226729910Y-54200410D01*
X226729910Y-54200410D02*
X221961090Y-54200410D01*
X221961090Y-54200410D02*
X221805500Y-54356000D01*
D41*
%TO.N,/RPi CM4/USB-*%
X196435123Y-42700558D02*
X196301558Y-42700558D01*
X198854837Y-40280844D02*
X196435123Y-42700558D01*
X203243000Y-39563000D02*
X202447999Y-39563000D01*
X202447999Y-39563000D02*
X201730155Y-40280844D01*
X201730155Y-40280844D02*
X198854837Y-40280844D01*
%TO.N,/RPi CM4/USB+*%
X203243000Y-41463000D02*
X202447999Y-41463000D01*
X202447999Y-41463000D02*
X201730155Y-40745156D01*
X196763442Y-43028877D02*
X196763442Y-43162442D01*
X201730155Y-40745156D02*
X199047163Y-40745156D01*
X199047163Y-40745156D02*
X196763442Y-43028877D01*
D37*
X196768942Y-43162442D02*
X197167500Y-43561000D01*
X196763442Y-43162442D02*
X196768942Y-43162442D01*
D41*
%TO.N,/RPi CM4/CONN_USB-*%
X209185000Y-38173363D02*
X209185000Y-36830000D01*
X207077519Y-40280844D02*
X209185000Y-38173363D01*
X206955845Y-40280844D02*
X207077519Y-40280844D01*
X205443000Y-39563000D02*
X206238001Y-39563000D01*
X206238001Y-39563000D02*
X206955845Y-40280844D01*
%TO.N,/RPi CM4/CONN_USB+*%
X206238001Y-41463000D02*
X206955845Y-40745156D01*
X205443000Y-41463000D02*
X206238001Y-41463000D01*
X206955845Y-40745156D02*
X207269844Y-40745156D01*
X207269844Y-40745156D02*
X209513318Y-38501682D01*
X209513318Y-38501682D02*
X211185000Y-36830000D01*
D39*
%TO.N,/Peripherals and Connectors/DEPLOY*%
X210375500Y-57482500D02*
X210352000Y-57459000D01*
X210375500Y-58928000D02*
X210375500Y-57482500D01*
D38*
%TO.N,/Peripherals and Connectors/LED_DATA*%
X229696099Y-51592599D02*
X229933500Y-51830000D01*
X221519500Y-51784000D02*
X222694500Y-52959000D01*
X220527000Y-51784000D02*
X221519500Y-51784000D01*
X222694500Y-52959000D02*
X223837500Y-52959000D01*
X223837500Y-52959000D02*
X225203901Y-51592599D01*
X225203901Y-51592599D02*
X229696099Y-51592599D01*
%TO.N,/STM32 MCU/SWDIO*%
X201485500Y-56111574D02*
X201485500Y-51816000D01*
X198716000Y-58096000D02*
X199501074Y-58096000D01*
X199501074Y-58096000D02*
X201485500Y-56111574D01*
X205168500Y-45275500D02*
X205177000Y-45284000D01*
X203454000Y-45275500D02*
X205168500Y-45275500D01*
%TO.N,/STM32 MCU/SWCLK*%
X206852000Y-42109000D02*
X203944629Y-42109000D01*
X203944629Y-42109000D02*
X203771405Y-42282224D01*
X199688500Y-57296000D02*
X199707500Y-57277000D01*
X198716000Y-57296000D02*
X199688500Y-57296000D01*
%TO.N,/STM32 MCU/NRST*%
X198716000Y-55696000D02*
X200971000Y-55696000D01*
X200971000Y-55696000D02*
X200977500Y-55689500D01*
X216090500Y-54102000D02*
X215265000Y-54102000D01*
X216598500Y-54102000D02*
X216090500Y-54102000D01*
X218440000Y-52260500D02*
X216598500Y-54102000D01*
X219727000Y-50284000D02*
X219719000Y-50292000D01*
X218440000Y-51181000D02*
X218440000Y-52260500D01*
X219719000Y-50292000D02*
X219329000Y-50292000D01*
X220527000Y-50284000D02*
X219727000Y-50284000D01*
X219329000Y-50292000D02*
X218440000Y-51181000D01*
D37*
%TO.N,Net-(U3-Pad36)*%
X213868000Y-57475000D02*
X213852000Y-57459000D01*
D39*
%TO.N,/STM32 MCU/OSC_OUT*%
X218694000Y-49784000D02*
X220527000Y-49784000D01*
X218313000Y-50165000D02*
X218694000Y-49784000D01*
D38*
%TO.N,/STM32 MCU/SWO*%
X198716000Y-56496000D02*
X200171000Y-56496000D01*
X200171000Y-56496000D02*
X200279000Y-56388000D01*
X213352000Y-42909000D02*
X213352000Y-42109000D01*
X210557000Y-45720000D02*
X213360000Y-42917000D01*
X207137000Y-52552926D02*
X208470500Y-51219426D01*
X213360000Y-42917000D02*
X213352000Y-42909000D01*
X208470500Y-51219426D02*
X208470500Y-46355000D01*
X207137000Y-53022500D02*
X207137000Y-52552926D01*
X209105500Y-45720000D02*
X210557000Y-45720000D01*
X208470500Y-46355000D02*
X209105500Y-45720000D01*
%TO.N,/STM32 MCU/BOOT0*%
X215852000Y-42109000D02*
X215852000Y-43322500D01*
X215852000Y-43322500D02*
X215963500Y-43434000D01*
%TO.N,/STM32 MCU/LED1*%
X220345000Y-38481000D02*
X220345000Y-38925500D01*
X214884000Y-40259000D02*
X219329000Y-40259000D01*
X214352000Y-42109000D02*
X214352000Y-40791000D01*
X220345000Y-39243000D02*
X220345000Y-38481000D01*
X219329000Y-40259000D02*
X220345000Y-39243000D01*
X214352000Y-40791000D02*
X214884000Y-40259000D01*
%TO.N,/STM32 MCU/LED2*%
X223393000Y-38453000D02*
X222412500Y-39433500D01*
X220563080Y-39433500D02*
X219420080Y-40576500D01*
X222412500Y-39433500D02*
X220563080Y-39433500D01*
X219420080Y-40576500D02*
X215646000Y-40576500D01*
X215352000Y-40870500D02*
X215352000Y-42109000D01*
X215646000Y-40576500D02*
X215352000Y-40870500D01*
%TO.N,/RPi CM4/RUN_PG*%
X222441000Y-45784000D02*
X220527000Y-45784000D01*
X223456500Y-46799500D02*
X222441000Y-45784000D01*
D37*
%TO.N,Net-(R32-Pad2)*%
X231957599Y-64557599D02*
X232170000Y-64770000D01*
X234251500Y-35750500D02*
X234251500Y-58928000D01*
X232410000Y-33909000D02*
X234251500Y-35750500D01*
X234251500Y-58928000D02*
X231957599Y-61221901D01*
X231957599Y-61221901D02*
X231957599Y-64557599D01*
D38*
%TO.N,/Peripherals and Connectors/RADIO_NSS*%
X211455000Y-65283602D02*
X217352000Y-59386602D01*
X211455000Y-71985000D02*
X211455000Y-65283602D01*
X217352000Y-59386602D02*
X217352000Y-57459000D01*
X208279000Y-73961000D02*
X209479000Y-73961000D01*
X209479000Y-73961000D02*
X211455000Y-71985000D01*
%TO.N,/Peripherals and Connectors/RADIO_MOSI*%
X211250862Y-64262000D02*
X211074000Y-64262000D01*
X215852000Y-57459000D02*
X215852000Y-59660862D01*
X215852000Y-59660862D02*
X211250862Y-64262000D01*
X210036180Y-71961000D02*
X208279000Y-71961000D01*
X211166090Y-70831090D02*
X210036180Y-71961000D01*
X211041100Y-65880100D02*
X211166090Y-66103500D01*
X211166090Y-66103500D02*
X211166090Y-70831090D01*
%TO.N,/Peripherals and Connectors/RADIO_MISO*%
X216352000Y-59569442D02*
X216352000Y-57459000D01*
X210770442Y-65151000D02*
X216352000Y-59569442D01*
X210566000Y-65151000D02*
X210770442Y-65151000D01*
X208279000Y-69961000D02*
X210004180Y-69961000D01*
X210004180Y-69961000D02*
X210820000Y-69145180D01*
X210820000Y-66675225D02*
X210565853Y-66421078D01*
X210820000Y-69145180D02*
X210820000Y-66675225D01*
%TO.N,/Peripherals and Connectors/RADIO_CLK*%
X208369022Y-67961000D02*
X208279000Y-67961000D01*
X216852000Y-57459000D02*
X216852000Y-59478022D01*
X216852000Y-59478022D02*
X208369022Y-67961000D01*
%TO.N,/Peripherals and Connectors/RADIO_INT*%
X207127879Y-65022099D02*
X209548099Y-65022099D01*
X192279000Y-67961000D02*
X204188978Y-67961000D01*
X204188978Y-67961000D02*
X207127879Y-65022099D01*
X214852000Y-60252282D02*
X214852000Y-57459000D01*
X211256183Y-63848099D02*
X214852000Y-60252282D01*
X210875327Y-63848099D02*
X211256183Y-63848099D01*
X209548099Y-65022099D02*
X210562198Y-64008000D01*
X210715426Y-64008000D02*
X210875327Y-63848099D01*
X210562198Y-64008000D02*
X210715426Y-64008000D01*
%TO.N,/Peripherals and Connectors/RADIO_RST*%
X193479000Y-69961000D02*
X195190090Y-68249910D01*
X192279000Y-69961000D02*
X193479000Y-69961000D01*
X195190090Y-68249910D02*
X204485412Y-68249910D01*
X204485412Y-68249910D02*
X204757161Y-67978161D01*
X204724000Y-66802000D02*
X207010000Y-64516000D01*
X207010000Y-64516000D02*
X207010000Y-63139978D01*
X207127879Y-63022099D02*
X210469099Y-63022099D01*
X207010000Y-63139978D02*
X207127879Y-63022099D01*
X214438100Y-60257602D02*
X214438100Y-59817000D01*
X215352000Y-57459000D02*
X215352000Y-58714900D01*
X215352000Y-58714900D02*
X215265900Y-58801000D01*
X211136513Y-63559189D02*
X214438100Y-60257602D01*
X210469099Y-63022099D02*
X211006189Y-63559189D01*
X211006189Y-63559189D02*
X211136513Y-63559189D01*
%TD*%
M02*
