M48
; DRILL file {KiCad (5.1.6)-1} date 12/16/20 03:56:47
; FORMAT={-:-/ absolute / inch / decimal}
; #@! TF.CreationDate,2020-12-16T03:56:47+01:00
; #@! TF.GenerationSoftware,Kicad,Pcbnew,(5.1.6)-1
; #@! TF.FileFunction,Plated,1,4,PTH
FMAT,2
INCH
T1C0.0079
T2C0.0118
T3C0.0157
T4C0.0197
T5C0.0295
T6C0.0315
T7C0.0394
T8C0.0906
T9C0.1063
%
G90
G05
T1
X7.3275Y-2.6225
X7.36Y-2.4506
X7.385Y-3.26
X7.425Y-2.945
X7.425Y-2.975
X7.434Y-1.536
X7.4625Y-3.1275
X7.4675Y-2.9225
X7.47Y-3.015
X7.485Y-2.72
X7.4925Y-2.64
X7.5Y-2.9275
X7.505Y-2.445
X7.505Y-2.525
X7.505Y-3.0275
X7.5175Y-2.76
X7.545Y-3.0375
X7.6175Y-1.795
X7.6175Y-1.865
X7.6175Y-1.96
X7.6175Y-2.055
X7.6175Y-2.1475
X7.6175Y-2.2
X7.62Y-2.3375
X7.6575Y-1.6142
X7.68Y-3.01
X7.695Y-2.79
X7.708Y-1.736
X7.726Y-1.588
X7.7275Y-2.625
X7.7284Y-1.6811
X7.73Y-1.904
X7.7375Y-2.895
X7.7425Y-3.025
X7.7625Y-1.715
X7.8Y-2.7925
X7.8075Y-2.535
X7.82Y-1.94
X7.822Y-1.806
X7.8225Y-2.405
X7.8325Y-2.625
X7.8625Y-2.255
X7.885Y-2.22
X7.886Y-1.512
X7.8925Y-2.5375
X7.9025Y-3.1125
X7.905Y-2.3339
X7.9125Y-2.1925
X7.9125Y-2.275
X7.9125Y-2.47
X7.9275Y-2.4425
X7.9325Y-2.04
X7.9325Y-2.5475
X7.9425Y-3.1125
X7.9675Y-1.66
X7.975Y-1.725
X7.9825Y-3.1125
X7.99Y-2.5075
X7.99Y-1.995
X7.9925Y-2.585
X8.0Y-1.48
X8.0Y-2.1775
X8.01Y-1.7825
X8.0125Y-2.4775
X8.0225Y-1.6647
X8.0225Y-3.1125
X8.025Y-1.905
X8.025Y-2.1975
X8.04Y-2.7825
X8.0425Y-2.395
X8.05Y-2.5225
X8.0613Y-2.6763
X8.072Y-1.698
X8.0776Y-2.6625
X8.0778Y-1.7631
X8.0933Y-2.5983
X8.095Y-2.8144
X8.1Y-1.595
X8.1025Y-1.7425
X8.1175Y-2.5971
X8.1225Y-2.6775
X8.1438Y-2.2622
X8.1475Y-2.895
X8.155Y-2.0875
X8.165Y-2.8475
X8.1696Y-1.9025
X8.1825Y-1.6125
X8.186Y-1.496
X8.1875Y-1.88
X8.192Y-2.18
X8.215Y-1.585
X8.2525Y-1.765
X8.28Y-1.6075
X8.2825Y-2.32
X8.3Y-2.4575
X8.3125Y-2.33
X8.3175Y-2.7375
X8.3325Y-2.5325
X8.3335Y-2.655
X8.338Y-2.18
X8.34Y-2.3125
X8.3498Y-2.5725
X8.354Y-1.492
X8.3625Y-2.335
X8.378Y-1.778
X8.38Y-2.3575
X8.3975Y-2.53
X8.415Y-2.5075
X8.44Y-2.545
X8.4424Y-2.355
X8.472Y-2.764
X8.475Y-2.13
X8.475Y-2.315
X8.49Y-2.18
X8.5Y-1.94
X8.5025Y-1.71
X8.508Y-1.776
X8.575Y-2.335
X8.5775Y-2.26
X8.5787Y-2.6362
X8.595Y-1.975
X8.5975Y-1.65
X8.5975Y-2.2375
X8.606Y-2.816
X8.615Y-1.6775
X8.6175Y-2.995
X8.6225Y-2.105
X8.625Y-1.525
X8.6375Y-2.0775
X8.6397Y-1.7124
X8.64Y-1.9225
X8.64Y-2.3975
X8.6575Y-1.9
X8.6575Y-2.1375
X8.6652Y-1.6179
X8.676Y-2.568
X8.68Y-2.1175
X8.7225Y-1.6625
X8.7225Y-2.3023
X8.7325Y-2.14
X8.735Y-1.515
X8.735Y-2.1125
X8.746Y-1.844
X8.75Y-2.4675
X8.785Y-2.1586
X8.7875Y-1.6275
X8.79Y-1.672
X8.825Y-2.3525
X8.8275Y-1.795
X8.83Y-2.3875
X8.8304Y-2.1575
X8.8325Y-2.2375
X8.8346Y-2.2992
X8.84Y-2.8525
X8.8675Y-2.5675
X8.87Y-2.6825
X8.8746Y-1.8424
X8.8775Y-1.5775
X8.8775Y-2.3625
X8.8775Y-2.3925
X8.88Y-2.315
X8.88Y-2.505
X8.8826Y-2.1502
X8.9175Y-2.74
X8.9375Y-1.82
X8.9474Y-2.185
X8.9475Y-2.1225
X8.9475Y-2.155
X8.9475Y-2.26
X8.9475Y-2.3
X8.9498Y-2.2214
X8.95Y-2.48
X8.9525Y-2.0475
X8.96Y-2.9425
X8.97Y-1.92
X8.97Y-2.6825
X8.97Y-2.7396
X8.9812Y-2.567
X8.9875Y-1.89
X8.9875Y-1.95
X9.005Y-2.2538
X9.008Y-2.902
X9.01Y-2.2925
X9.0163Y-2.9834
X9.02Y-1.965
X9.04Y-2.3906
X9.0525Y-2.0
X9.0607Y-2.1602
X9.077Y-2.1875
X9.085Y-1.63
X9.085Y-2.4
X9.0933Y-2.1587
X9.1Y-1.335
X9.1Y-1.38
X9.1013Y-2.36
X9.1075Y-2.72
X9.1075Y-2.7875
X9.1075Y-2.895
X9.11Y-2.13
X9.1275Y-2.175
X9.1406Y-2.55
X9.1468Y-1.595
X9.1468Y-1.695
X9.1468Y-1.745
X9.1468Y-1.795
X9.15Y-1.335
X9.15Y-1.38
T2
X7.3215Y-1.776
X7.3215Y-1.9422
X7.3275Y-1.49
X7.345Y-2.96
X7.36Y-2.52
X7.3625Y-2.2
X7.3625Y-2.25
X7.365Y-2.1
X7.375Y-1.49
X7.3775Y-2.9
X7.3775Y-3.0175
X7.3975Y-2.3
X7.4175Y-1.9925
X7.4325Y-2.9
X7.435Y-3.0175
X7.4575Y-1.8025
X7.4575Y-1.89
X7.5425Y-2.66
X7.58Y-2.8325
X7.585Y-1.655
X7.61Y-2.85
X7.7225Y-2.48
X7.825Y-2.075
X7.865Y-3.115
X7.9Y-2.885
X7.9075Y-1.72
X7.91Y-1.945
X7.9925Y-2.9525
X8.005Y-2.3175
X8.01Y-1.595
X8.0175Y-2.23
X8.0625Y-3.115
X8.095Y-2.745
X8.145Y-2.3675
X8.175Y-2.4225
X8.2125Y-2.33
X8.2125Y-2.4475
X8.225Y-2.9725
X8.225Y-3.005
X8.2325Y-3.25
X8.245Y-2.0075
X8.2775Y-2.0675
X8.3025Y-3.25
X8.335Y-1.9425
X8.3353Y-3.0597
X8.375Y-1.8925
X8.4075Y-1.555
X8.4375Y-1.965
X8.4775Y-1.555
X8.5062Y-2.8163
X8.5075Y-2.46
X8.51Y-2.06
X8.535Y-2.785
X8.5757Y-2.3968
X8.5775Y-2.46
X8.5775Y-2.7039
X8.58Y-2.52
X8.71Y-2.3975
X8.71Y-2.46
X8.9575Y-1.495
X8.9575Y-1.545
X8.96Y-1.595
X9.025Y-1.595
X9.025Y-1.845
X9.04Y-2.35
X9.07Y-3.2475
X9.1125Y-1.845
X9.115Y-1.545
X9.1525Y-2.4975
X9.16Y-3.2475
X9.1775Y-1.545
X9.18Y-1.495
X9.18Y-1.845
T3
X7.465Y-1.6725
X7.465Y-1.7575
X7.465Y-1.845
X7.465Y-1.9325
X7.465Y-1.975
X7.4825Y-1.715
T4
X7.5384Y-1.3189
X7.5617Y-1.2625
X7.5617Y-1.3753
X7.6181Y-1.2392
X7.6181Y-1.3986
X7.6745Y-1.2625
X7.6745Y-1.3753
X7.6978Y-1.3189
X8.7717Y-2.5354
X8.7717Y-2.5748
X8.7717Y-2.6142
X8.7717Y-2.6535
X8.7717Y-2.6929
X8.7717Y-2.7323
X8.8376Y-1.3189
X8.8609Y-1.2625
X8.8609Y-1.3753
X8.9173Y-1.2392
X8.9173Y-1.3986
X8.9737Y-1.2625
X8.9737Y-1.3753
X8.997Y-1.3189
X8.8376Y-3.2087
X8.8609Y-3.1523
X8.8609Y-3.265
X8.9173Y-3.1289
X8.9173Y-3.2884
X8.9737Y-3.1523
X8.9737Y-3.265
X8.997Y-3.2087
X7.5384Y-3.2087
X7.5617Y-3.1523
X7.5617Y-3.265
X7.6181Y-3.1289
X7.6181Y-3.2884
X7.6745Y-3.1523
X7.6745Y-3.265
X7.6978Y-3.2087
T5
X8.3063Y-3.1625
X8.385Y-3.1625
X8.4638Y-3.1625
X8.5425Y-3.1625
X8.6213Y-3.1625
X8.7Y-3.1625
T6
X8.79Y-1.925
X8.79Y-2.025
T7
X9.175Y-1.975
X9.175Y-2.075
X9.175Y-2.175
X7.4125Y-1.275
X7.4125Y-1.375
X8.1372Y-1.45
X8.2356Y-1.45
X8.3144Y-1.45
X8.4128Y-1.45
T8
X8.0163Y-1.3433
X8.5337Y-1.3433
T9
X7.6181Y-1.3189
X8.9173Y-1.3189
X8.9173Y-3.2087
X7.6181Y-3.2087
T0
M30
