%TF.GenerationSoftware,KiCad,Pcbnew,(5.1.6)-1*%
%TF.CreationDate,2020-12-16T03:56:45+01:00*%
%TF.ProjectId,CanSat,43616e53-6174-42e6-9b69-6361645f7063,V1.0*%
%TF.SameCoordinates,Original*%
%TF.FileFunction,Legend,Top*%
%TF.FilePolarity,Positive*%
%FSLAX46Y46*%
G04 Gerber Fmt 4.6, Leading zero omitted, Abs format (unit mm)*
G04 Created by KiCad (PCBNEW (5.1.6)-1) date 2020-12-16 03:56:45*
%MOMM*%
%LPD*%
G01*
G04 APERTURE LIST*
%ADD10C,0.127000*%
%ADD11C,0.200000*%
%ADD12C,0.120000*%
%ADD13C,0.010000*%
%ADD14C,0.150000*%
%ADD15C,0.015000*%
G04 APERTURE END LIST*
D10*
%TO.C,U4*%
X230605000Y-35105500D02*
X230605000Y-33855500D01*
X232945000Y-33855500D02*
X232945000Y-35105500D01*
D11*
X231225000Y-36580500D02*
G75*
G03*
X231225000Y-36580500I-100000J0D01*
G01*
%TO.C,U6*%
X222162500Y-40053500D02*
G75*
G03*
X222162500Y-40053500I-100000J0D01*
G01*
D10*
X224787500Y-41873500D02*
X223537500Y-41873500D01*
X223537500Y-39533500D02*
X224787500Y-39533500D01*
D12*
%TO.C,C4*%
X201297000Y-58577267D02*
X201297000Y-58234733D01*
X200277000Y-58577267D02*
X200277000Y-58234733D01*
%TO.C,C3*%
X201518733Y-66169000D02*
X201861267Y-66169000D01*
X201518733Y-65149000D02*
X201861267Y-65149000D01*
%TO.C,R6*%
X205738000Y-77690767D02*
X205738000Y-77348233D01*
X206758000Y-77690767D02*
X206758000Y-77348233D01*
D13*
%TO.C,G\u002A\u002A\u002A*%
G36*
X206659665Y-84467282D02*
G01*
X201021327Y-84467282D01*
X201021327Y-83211045D01*
X201605202Y-83211045D01*
X201605338Y-83286236D01*
X201606011Y-83359609D01*
X201607224Y-83427764D01*
X201608982Y-83487303D01*
X201611289Y-83534825D01*
X201614149Y-83566933D01*
X201614661Y-83570426D01*
X201632582Y-83659002D01*
X201656395Y-83728637D01*
X201688606Y-83782106D01*
X201731722Y-83822188D01*
X201788248Y-83851660D01*
X201860691Y-83873299D01*
X201894305Y-83880311D01*
X201933043Y-83885320D01*
X201987563Y-83889100D01*
X202054316Y-83891694D01*
X202129754Y-83893148D01*
X202210327Y-83893505D01*
X202292487Y-83892809D01*
X202372686Y-83891105D01*
X202447373Y-83888438D01*
X202513001Y-83884851D01*
X202566020Y-83880388D01*
X202602882Y-83875095D01*
X202616320Y-83871306D01*
X202659003Y-83843154D01*
X202685086Y-83805463D01*
X202693540Y-83762718D01*
X202683337Y-83719404D01*
X202659000Y-83685264D01*
X202626056Y-83652319D01*
X202463912Y-83659972D01*
X202394403Y-83662745D01*
X202311421Y-83665264D01*
X202223477Y-83667317D01*
X202139081Y-83668687D01*
X202103524Y-83669032D01*
X202022932Y-83669183D01*
X201961488Y-83667710D01*
X201916366Y-83663665D01*
X201884741Y-83656100D01*
X201863790Y-83644068D01*
X201850687Y-83626621D01*
X201842608Y-83602810D01*
X201838106Y-83579974D01*
X201835835Y-83556406D01*
X201833933Y-83516991D01*
X201832417Y-83465607D01*
X201831308Y-83406131D01*
X201830622Y-83342441D01*
X201830377Y-83278414D01*
X201830592Y-83217928D01*
X201831285Y-83164860D01*
X201832474Y-83123088D01*
X201834177Y-83096489D01*
X201835812Y-83088821D01*
X201847379Y-83086959D01*
X201878368Y-83083483D01*
X201926297Y-83078633D01*
X201988685Y-83072645D01*
X202063050Y-83065759D01*
X202146910Y-83058212D01*
X202233809Y-83050588D01*
X202325474Y-83042353D01*
X202410907Y-83034122D01*
X202487459Y-83026192D01*
X202552480Y-83018862D01*
X202603320Y-83012429D01*
X202637331Y-83007190D01*
X202651464Y-83003689D01*
X202681267Y-82981600D01*
X202697260Y-82951473D01*
X202702536Y-82907212D01*
X202702587Y-82902979D01*
X202700227Y-82866092D01*
X202689902Y-82840198D01*
X202670809Y-82817800D01*
X202647196Y-82797885D01*
X202622407Y-82788348D01*
X202586713Y-82785694D01*
X202581331Y-82785672D01*
X202557850Y-82786665D01*
X202516092Y-82789434D01*
X202459664Y-82793667D01*
X202392172Y-82799053D01*
X202317222Y-82805279D01*
X202238420Y-82812034D01*
X202159371Y-82819004D01*
X202083683Y-82825879D01*
X202014961Y-82832345D01*
X201956811Y-82838091D01*
X201912839Y-82842805D01*
X201892931Y-82845254D01*
X201857785Y-82850049D01*
X201862131Y-82302625D01*
X201917086Y-82291520D01*
X202038136Y-82271213D01*
X202160498Y-82258392D01*
X202279315Y-82253195D01*
X202389728Y-82255762D01*
X202486880Y-82266231D01*
X202527082Y-82274036D01*
X202594655Y-82288701D01*
X202644945Y-82297178D01*
X202681725Y-82299586D01*
X202708772Y-82296041D01*
X202729860Y-82286660D01*
X202738392Y-82280582D01*
X202761760Y-82253811D01*
X202772413Y-82233135D01*
X202992506Y-82233135D01*
X202993694Y-82288728D01*
X202998166Y-82361723D01*
X203000630Y-82395158D01*
X203005152Y-82470390D01*
X203008897Y-82564039D01*
X203011844Y-82672553D01*
X203013971Y-82792380D01*
X203015258Y-82919968D01*
X203015683Y-83051765D01*
X203015226Y-83184218D01*
X203013864Y-83313776D01*
X203011576Y-83436887D01*
X203008342Y-83549999D01*
X203007637Y-83569577D01*
X202999097Y-83798441D01*
X203036763Y-83836107D01*
X203077308Y-83865099D01*
X203119667Y-83875448D01*
X203159538Y-83866820D01*
X203185300Y-83847611D01*
X203197103Y-83834217D01*
X203207128Y-83819943D01*
X203215522Y-83802976D01*
X203222429Y-83781500D01*
X203227992Y-83753700D01*
X203232357Y-83717764D01*
X203235668Y-83671874D01*
X203238069Y-83614218D01*
X203239705Y-83542981D01*
X203240720Y-83456346D01*
X203241259Y-83352502D01*
X203241466Y-83229631D01*
X203241491Y-83141779D01*
X203241661Y-83031482D01*
X203242149Y-82927926D01*
X203242923Y-82833172D01*
X203243950Y-82749282D01*
X203245197Y-82678319D01*
X203246633Y-82622343D01*
X203248225Y-82583417D01*
X203249939Y-82563603D01*
X203250638Y-82561498D01*
X203259744Y-82568092D01*
X203279650Y-82589816D01*
X203308180Y-82624054D01*
X203343161Y-82668193D01*
X203382417Y-82719618D01*
X203384926Y-82722966D01*
X203473237Y-82839088D01*
X203564670Y-82955949D01*
X203657755Y-83071872D01*
X203751023Y-83185183D01*
X203843004Y-83294208D01*
X203932229Y-83397273D01*
X204017226Y-83492703D01*
X204096528Y-83578824D01*
X204168663Y-83653961D01*
X204232162Y-83716439D01*
X204285556Y-83764585D01*
X204327375Y-83796724D01*
X204327515Y-83796817D01*
X204381876Y-83823878D01*
X204431181Y-83829602D01*
X204475648Y-83813993D01*
X204494610Y-83799584D01*
X204506581Y-83787556D01*
X204516816Y-83773590D01*
X204525453Y-83755967D01*
X204532630Y-83732964D01*
X204538484Y-83702861D01*
X204543153Y-83663937D01*
X204546775Y-83614470D01*
X204549487Y-83552741D01*
X204551427Y-83477028D01*
X204552732Y-83385609D01*
X204553540Y-83276765D01*
X204553989Y-83148773D01*
X204554152Y-83054950D01*
X204554251Y-82924834D01*
X204554137Y-82814579D01*
X204553752Y-82722065D01*
X204553037Y-82645171D01*
X204551933Y-82581777D01*
X204550382Y-82529764D01*
X204548325Y-82487010D01*
X204545702Y-82451395D01*
X204542457Y-82420800D01*
X204538529Y-82393104D01*
X204535297Y-82374054D01*
X204517611Y-82294369D01*
X204496939Y-82229101D01*
X204817477Y-82229101D01*
X204822042Y-82271266D01*
X204832976Y-82329365D01*
X204850543Y-82404642D01*
X204875002Y-82498343D01*
X204900932Y-82591725D01*
X204920749Y-82662059D01*
X204944426Y-82746746D01*
X204970057Y-82838928D01*
X204995736Y-82931747D01*
X205019556Y-83018346D01*
X205021944Y-83027061D01*
X205047104Y-83116785D01*
X205074938Y-83212317D01*
X205104394Y-83310345D01*
X205134419Y-83407557D01*
X205163958Y-83500641D01*
X205191958Y-83586284D01*
X205217367Y-83661175D01*
X205239132Y-83722002D01*
X205256198Y-83765451D01*
X205258239Y-83770154D01*
X205289622Y-83824478D01*
X205327327Y-83858426D01*
X205372622Y-83873017D01*
X205387287Y-83873773D01*
X205423695Y-83868825D01*
X205452211Y-83850386D01*
X205460740Y-83841780D01*
X205477792Y-83818170D01*
X205499785Y-83780196D01*
X205523396Y-83733861D01*
X205538241Y-83701646D01*
X205552720Y-83667001D01*
X205573672Y-83614409D01*
X205600080Y-83546590D01*
X205630925Y-83466262D01*
X205665190Y-83376146D01*
X205701859Y-83278959D01*
X205739914Y-83177423D01*
X205778337Y-83074256D01*
X205816111Y-82972178D01*
X205852220Y-82873908D01*
X205885644Y-82782165D01*
X205915368Y-82699669D01*
X205940374Y-82629140D01*
X205952217Y-82595070D01*
X205977827Y-82522331D01*
X205999780Y-82464744D01*
X206020721Y-82416397D01*
X206043291Y-82371383D01*
X206070134Y-82323793D01*
X206083907Y-82300634D01*
X206110557Y-82248772D01*
X206120437Y-82206974D01*
X206113542Y-82171092D01*
X206089869Y-82136973D01*
X206083741Y-82130614D01*
X206052678Y-82104890D01*
X206022996Y-82094261D01*
X206007187Y-82093245D01*
X205972415Y-82099659D01*
X205938584Y-82119729D01*
X205904906Y-82154698D01*
X205870594Y-82205805D01*
X205834860Y-82274294D01*
X205796917Y-82361406D01*
X205755976Y-82468383D01*
X205738802Y-82516395D01*
X205719406Y-82570990D01*
X205695473Y-82637521D01*
X205667941Y-82713456D01*
X205637745Y-82796260D01*
X205605824Y-82883400D01*
X205573113Y-82972344D01*
X205540549Y-83060557D01*
X205509069Y-83145506D01*
X205479609Y-83224658D01*
X205453107Y-83295480D01*
X205430499Y-83355438D01*
X205412722Y-83402000D01*
X205400712Y-83432630D01*
X205395695Y-83444329D01*
X205389266Y-83442170D01*
X205378279Y-83420163D01*
X205362651Y-83378051D01*
X205342296Y-83315575D01*
X205317132Y-83232477D01*
X205287073Y-83128501D01*
X205252618Y-83005491D01*
X205229750Y-82922997D01*
X205203461Y-82828414D01*
X205176278Y-82730813D01*
X205150727Y-82639269D01*
X205137876Y-82593331D01*
X205118186Y-82521832D01*
X205099258Y-82450936D01*
X205082445Y-82385881D01*
X205069105Y-82331904D01*
X205061073Y-82296577D01*
X205045356Y-82228454D01*
X205029599Y-82179339D01*
X205011757Y-82146349D01*
X204989787Y-82126602D01*
X204961644Y-82117215D01*
X204932489Y-82115227D01*
X204889958Y-82124544D01*
X204851997Y-82148956D01*
X204825584Y-82183148D01*
X204819022Y-82201627D01*
X204817477Y-82229101D01*
X204496939Y-82229101D01*
X204495357Y-82224108D01*
X204470003Y-82166911D01*
X204443015Y-82126417D01*
X204430756Y-82114635D01*
X204389707Y-82095214D01*
X204344449Y-82094326D01*
X204301773Y-82111471D01*
X204284782Y-82125372D01*
X204265141Y-82148515D01*
X204255566Y-82172673D01*
X204252713Y-82207305D01*
X204252655Y-82216268D01*
X204255820Y-82258357D01*
X204264062Y-82309365D01*
X204274045Y-82352225D01*
X204286109Y-82402523D01*
X204297759Y-82462369D01*
X204306610Y-82519417D01*
X204307098Y-82523273D01*
X204312685Y-82578447D01*
X204318184Y-82651591D01*
X204323426Y-82738692D01*
X204328242Y-82835738D01*
X204332460Y-82938716D01*
X204335912Y-83043615D01*
X204338427Y-83146422D01*
X204339836Y-83243124D01*
X204340076Y-83302245D01*
X204339860Y-83505577D01*
X204178105Y-83340611D01*
X204057204Y-83214355D01*
X203942581Y-83088217D01*
X203831777Y-82959118D01*
X203722329Y-82823980D01*
X203611777Y-82679722D01*
X203497660Y-82523267D01*
X203377515Y-82351536D01*
X203319746Y-82266856D01*
X203269005Y-82195198D01*
X203225656Y-82142105D01*
X203187641Y-82106296D01*
X203152902Y-82086490D01*
X203119382Y-82081405D01*
X203085023Y-82089759D01*
X203057927Y-82103791D01*
X203033223Y-82120548D01*
X203014961Y-82138649D01*
X203002508Y-82161306D01*
X202995234Y-82191731D01*
X202992506Y-82233135D01*
X202772413Y-82233135D01*
X202779451Y-82219477D01*
X202780909Y-82215019D01*
X202786170Y-82168149D01*
X202771722Y-82127840D01*
X202737331Y-82093983D01*
X202682759Y-82066468D01*
X202607773Y-82045184D01*
X202512135Y-82030021D01*
X202395611Y-82020870D01*
X202362218Y-82019474D01*
X202204188Y-82019993D01*
X202058578Y-82033651D01*
X201919753Y-82061047D01*
X201885670Y-82070051D01*
X201845776Y-82080145D01*
X201820541Y-82083326D01*
X201803871Y-82079923D01*
X201795492Y-82074892D01*
X201758797Y-82060498D01*
X201716126Y-82062001D01*
X201675536Y-82078376D01*
X201657954Y-82092399D01*
X201640004Y-82112757D01*
X201630379Y-82133212D01*
X201626616Y-82161638D01*
X201626166Y-82194065D01*
X201627939Y-82242455D01*
X201632220Y-82299280D01*
X201637329Y-82346036D01*
X201639783Y-82378829D01*
X201640910Y-82426514D01*
X201640855Y-82485374D01*
X201639761Y-82551691D01*
X201637771Y-82621748D01*
X201635030Y-82691828D01*
X201631682Y-82758213D01*
X201627869Y-82817186D01*
X201623737Y-82865029D01*
X201619428Y-82898025D01*
X201615435Y-82912068D01*
X201612435Y-82926786D01*
X201609946Y-82960081D01*
X201607975Y-83008553D01*
X201606525Y-83068804D01*
X201605599Y-83137435D01*
X201605202Y-83211045D01*
X201021327Y-83211045D01*
X201021327Y-81499736D01*
X206659665Y-81499736D01*
X206659665Y-84467282D01*
G37*
X206659665Y-84467282D02*
X201021327Y-84467282D01*
X201021327Y-83211045D01*
X201605202Y-83211045D01*
X201605338Y-83286236D01*
X201606011Y-83359609D01*
X201607224Y-83427764D01*
X201608982Y-83487303D01*
X201611289Y-83534825D01*
X201614149Y-83566933D01*
X201614661Y-83570426D01*
X201632582Y-83659002D01*
X201656395Y-83728637D01*
X201688606Y-83782106D01*
X201731722Y-83822188D01*
X201788248Y-83851660D01*
X201860691Y-83873299D01*
X201894305Y-83880311D01*
X201933043Y-83885320D01*
X201987563Y-83889100D01*
X202054316Y-83891694D01*
X202129754Y-83893148D01*
X202210327Y-83893505D01*
X202292487Y-83892809D01*
X202372686Y-83891105D01*
X202447373Y-83888438D01*
X202513001Y-83884851D01*
X202566020Y-83880388D01*
X202602882Y-83875095D01*
X202616320Y-83871306D01*
X202659003Y-83843154D01*
X202685086Y-83805463D01*
X202693540Y-83762718D01*
X202683337Y-83719404D01*
X202659000Y-83685264D01*
X202626056Y-83652319D01*
X202463912Y-83659972D01*
X202394403Y-83662745D01*
X202311421Y-83665264D01*
X202223477Y-83667317D01*
X202139081Y-83668687D01*
X202103524Y-83669032D01*
X202022932Y-83669183D01*
X201961488Y-83667710D01*
X201916366Y-83663665D01*
X201884741Y-83656100D01*
X201863790Y-83644068D01*
X201850687Y-83626621D01*
X201842608Y-83602810D01*
X201838106Y-83579974D01*
X201835835Y-83556406D01*
X201833933Y-83516991D01*
X201832417Y-83465607D01*
X201831308Y-83406131D01*
X201830622Y-83342441D01*
X201830377Y-83278414D01*
X201830592Y-83217928D01*
X201831285Y-83164860D01*
X201832474Y-83123088D01*
X201834177Y-83096489D01*
X201835812Y-83088821D01*
X201847379Y-83086959D01*
X201878368Y-83083483D01*
X201926297Y-83078633D01*
X201988685Y-83072645D01*
X202063050Y-83065759D01*
X202146910Y-83058212D01*
X202233809Y-83050588D01*
X202325474Y-83042353D01*
X202410907Y-83034122D01*
X202487459Y-83026192D01*
X202552480Y-83018862D01*
X202603320Y-83012429D01*
X202637331Y-83007190D01*
X202651464Y-83003689D01*
X202681267Y-82981600D01*
X202697260Y-82951473D01*
X202702536Y-82907212D01*
X202702587Y-82902979D01*
X202700227Y-82866092D01*
X202689902Y-82840198D01*
X202670809Y-82817800D01*
X202647196Y-82797885D01*
X202622407Y-82788348D01*
X202586713Y-82785694D01*
X202581331Y-82785672D01*
X202557850Y-82786665D01*
X202516092Y-82789434D01*
X202459664Y-82793667D01*
X202392172Y-82799053D01*
X202317222Y-82805279D01*
X202238420Y-82812034D01*
X202159371Y-82819004D01*
X202083683Y-82825879D01*
X202014961Y-82832345D01*
X201956811Y-82838091D01*
X201912839Y-82842805D01*
X201892931Y-82845254D01*
X201857785Y-82850049D01*
X201862131Y-82302625D01*
X201917086Y-82291520D01*
X202038136Y-82271213D01*
X202160498Y-82258392D01*
X202279315Y-82253195D01*
X202389728Y-82255762D01*
X202486880Y-82266231D01*
X202527082Y-82274036D01*
X202594655Y-82288701D01*
X202644945Y-82297178D01*
X202681725Y-82299586D01*
X202708772Y-82296041D01*
X202729860Y-82286660D01*
X202738392Y-82280582D01*
X202761760Y-82253811D01*
X202772413Y-82233135D01*
X202992506Y-82233135D01*
X202993694Y-82288728D01*
X202998166Y-82361723D01*
X203000630Y-82395158D01*
X203005152Y-82470390D01*
X203008897Y-82564039D01*
X203011844Y-82672553D01*
X203013971Y-82792380D01*
X203015258Y-82919968D01*
X203015683Y-83051765D01*
X203015226Y-83184218D01*
X203013864Y-83313776D01*
X203011576Y-83436887D01*
X203008342Y-83549999D01*
X203007637Y-83569577D01*
X202999097Y-83798441D01*
X203036763Y-83836107D01*
X203077308Y-83865099D01*
X203119667Y-83875448D01*
X203159538Y-83866820D01*
X203185300Y-83847611D01*
X203197103Y-83834217D01*
X203207128Y-83819943D01*
X203215522Y-83802976D01*
X203222429Y-83781500D01*
X203227992Y-83753700D01*
X203232357Y-83717764D01*
X203235668Y-83671874D01*
X203238069Y-83614218D01*
X203239705Y-83542981D01*
X203240720Y-83456346D01*
X203241259Y-83352502D01*
X203241466Y-83229631D01*
X203241491Y-83141779D01*
X203241661Y-83031482D01*
X203242149Y-82927926D01*
X203242923Y-82833172D01*
X203243950Y-82749282D01*
X203245197Y-82678319D01*
X203246633Y-82622343D01*
X203248225Y-82583417D01*
X203249939Y-82563603D01*
X203250638Y-82561498D01*
X203259744Y-82568092D01*
X203279650Y-82589816D01*
X203308180Y-82624054D01*
X203343161Y-82668193D01*
X203382417Y-82719618D01*
X203384926Y-82722966D01*
X203473237Y-82839088D01*
X203564670Y-82955949D01*
X203657755Y-83071872D01*
X203751023Y-83185183D01*
X203843004Y-83294208D01*
X203932229Y-83397273D01*
X204017226Y-83492703D01*
X204096528Y-83578824D01*
X204168663Y-83653961D01*
X204232162Y-83716439D01*
X204285556Y-83764585D01*
X204327375Y-83796724D01*
X204327515Y-83796817D01*
X204381876Y-83823878D01*
X204431181Y-83829602D01*
X204475648Y-83813993D01*
X204494610Y-83799584D01*
X204506581Y-83787556D01*
X204516816Y-83773590D01*
X204525453Y-83755967D01*
X204532630Y-83732964D01*
X204538484Y-83702861D01*
X204543153Y-83663937D01*
X204546775Y-83614470D01*
X204549487Y-83552741D01*
X204551427Y-83477028D01*
X204552732Y-83385609D01*
X204553540Y-83276765D01*
X204553989Y-83148773D01*
X204554152Y-83054950D01*
X204554251Y-82924834D01*
X204554137Y-82814579D01*
X204553752Y-82722065D01*
X204553037Y-82645171D01*
X204551933Y-82581777D01*
X204550382Y-82529764D01*
X204548325Y-82487010D01*
X204545702Y-82451395D01*
X204542457Y-82420800D01*
X204538529Y-82393104D01*
X204535297Y-82374054D01*
X204517611Y-82294369D01*
X204496939Y-82229101D01*
X204817477Y-82229101D01*
X204822042Y-82271266D01*
X204832976Y-82329365D01*
X204850543Y-82404642D01*
X204875002Y-82498343D01*
X204900932Y-82591725D01*
X204920749Y-82662059D01*
X204944426Y-82746746D01*
X204970057Y-82838928D01*
X204995736Y-82931747D01*
X205019556Y-83018346D01*
X205021944Y-83027061D01*
X205047104Y-83116785D01*
X205074938Y-83212317D01*
X205104394Y-83310345D01*
X205134419Y-83407557D01*
X205163958Y-83500641D01*
X205191958Y-83586284D01*
X205217367Y-83661175D01*
X205239132Y-83722002D01*
X205256198Y-83765451D01*
X205258239Y-83770154D01*
X205289622Y-83824478D01*
X205327327Y-83858426D01*
X205372622Y-83873017D01*
X205387287Y-83873773D01*
X205423695Y-83868825D01*
X205452211Y-83850386D01*
X205460740Y-83841780D01*
X205477792Y-83818170D01*
X205499785Y-83780196D01*
X205523396Y-83733861D01*
X205538241Y-83701646D01*
X205552720Y-83667001D01*
X205573672Y-83614409D01*
X205600080Y-83546590D01*
X205630925Y-83466262D01*
X205665190Y-83376146D01*
X205701859Y-83278959D01*
X205739914Y-83177423D01*
X205778337Y-83074256D01*
X205816111Y-82972178D01*
X205852220Y-82873908D01*
X205885644Y-82782165D01*
X205915368Y-82699669D01*
X205940374Y-82629140D01*
X205952217Y-82595070D01*
X205977827Y-82522331D01*
X205999780Y-82464744D01*
X206020721Y-82416397D01*
X206043291Y-82371383D01*
X206070134Y-82323793D01*
X206083907Y-82300634D01*
X206110557Y-82248772D01*
X206120437Y-82206974D01*
X206113542Y-82171092D01*
X206089869Y-82136973D01*
X206083741Y-82130614D01*
X206052678Y-82104890D01*
X206022996Y-82094261D01*
X206007187Y-82093245D01*
X205972415Y-82099659D01*
X205938584Y-82119729D01*
X205904906Y-82154698D01*
X205870594Y-82205805D01*
X205834860Y-82274294D01*
X205796917Y-82361406D01*
X205755976Y-82468383D01*
X205738802Y-82516395D01*
X205719406Y-82570990D01*
X205695473Y-82637521D01*
X205667941Y-82713456D01*
X205637745Y-82796260D01*
X205605824Y-82883400D01*
X205573113Y-82972344D01*
X205540549Y-83060557D01*
X205509069Y-83145506D01*
X205479609Y-83224658D01*
X205453107Y-83295480D01*
X205430499Y-83355438D01*
X205412722Y-83402000D01*
X205400712Y-83432630D01*
X205395695Y-83444329D01*
X205389266Y-83442170D01*
X205378279Y-83420163D01*
X205362651Y-83378051D01*
X205342296Y-83315575D01*
X205317132Y-83232477D01*
X205287073Y-83128501D01*
X205252618Y-83005491D01*
X205229750Y-82922997D01*
X205203461Y-82828414D01*
X205176278Y-82730813D01*
X205150727Y-82639269D01*
X205137876Y-82593331D01*
X205118186Y-82521832D01*
X205099258Y-82450936D01*
X205082445Y-82385881D01*
X205069105Y-82331904D01*
X205061073Y-82296577D01*
X205045356Y-82228454D01*
X205029599Y-82179339D01*
X205011757Y-82146349D01*
X204989787Y-82126602D01*
X204961644Y-82117215D01*
X204932489Y-82115227D01*
X204889958Y-82124544D01*
X204851997Y-82148956D01*
X204825584Y-82183148D01*
X204819022Y-82201627D01*
X204817477Y-82229101D01*
X204496939Y-82229101D01*
X204495357Y-82224108D01*
X204470003Y-82166911D01*
X204443015Y-82126417D01*
X204430756Y-82114635D01*
X204389707Y-82095214D01*
X204344449Y-82094326D01*
X204301773Y-82111471D01*
X204284782Y-82125372D01*
X204265141Y-82148515D01*
X204255566Y-82172673D01*
X204252713Y-82207305D01*
X204252655Y-82216268D01*
X204255820Y-82258357D01*
X204264062Y-82309365D01*
X204274045Y-82352225D01*
X204286109Y-82402523D01*
X204297759Y-82462369D01*
X204306610Y-82519417D01*
X204307098Y-82523273D01*
X204312685Y-82578447D01*
X204318184Y-82651591D01*
X204323426Y-82738692D01*
X204328242Y-82835738D01*
X204332460Y-82938716D01*
X204335912Y-83043615D01*
X204338427Y-83146422D01*
X204339836Y-83243124D01*
X204340076Y-83302245D01*
X204339860Y-83505577D01*
X204178105Y-83340611D01*
X204057204Y-83214355D01*
X203942581Y-83088217D01*
X203831777Y-82959118D01*
X203722329Y-82823980D01*
X203611777Y-82679722D01*
X203497660Y-82523267D01*
X203377515Y-82351536D01*
X203319746Y-82266856D01*
X203269005Y-82195198D01*
X203225656Y-82142105D01*
X203187641Y-82106296D01*
X203152902Y-82086490D01*
X203119382Y-82081405D01*
X203085023Y-82089759D01*
X203057927Y-82103791D01*
X203033223Y-82120548D01*
X203014961Y-82138649D01*
X203002508Y-82161306D01*
X202995234Y-82191731D01*
X202992506Y-82233135D01*
X202772413Y-82233135D01*
X202779451Y-82219477D01*
X202780909Y-82215019D01*
X202786170Y-82168149D01*
X202771722Y-82127840D01*
X202737331Y-82093983D01*
X202682759Y-82066468D01*
X202607773Y-82045184D01*
X202512135Y-82030021D01*
X202395611Y-82020870D01*
X202362218Y-82019474D01*
X202204188Y-82019993D01*
X202058578Y-82033651D01*
X201919753Y-82061047D01*
X201885670Y-82070051D01*
X201845776Y-82080145D01*
X201820541Y-82083326D01*
X201803871Y-82079923D01*
X201795492Y-82074892D01*
X201758797Y-82060498D01*
X201716126Y-82062001D01*
X201675536Y-82078376D01*
X201657954Y-82092399D01*
X201640004Y-82112757D01*
X201630379Y-82133212D01*
X201626616Y-82161638D01*
X201626166Y-82194065D01*
X201627939Y-82242455D01*
X201632220Y-82299280D01*
X201637329Y-82346036D01*
X201639783Y-82378829D01*
X201640910Y-82426514D01*
X201640855Y-82485374D01*
X201639761Y-82551691D01*
X201637771Y-82621748D01*
X201635030Y-82691828D01*
X201631682Y-82758213D01*
X201627869Y-82817186D01*
X201623737Y-82865029D01*
X201619428Y-82898025D01*
X201615435Y-82912068D01*
X201612435Y-82926786D01*
X201609946Y-82960081D01*
X201607975Y-83008553D01*
X201606525Y-83068804D01*
X201605599Y-83137435D01*
X201605202Y-83211045D01*
X201021327Y-83211045D01*
X201021327Y-81499736D01*
X206659665Y-81499736D01*
X206659665Y-84467282D01*
G36*
X229701704Y-66181472D02*
G01*
X229794015Y-66216170D01*
X229875868Y-66266917D01*
X229890979Y-66279248D01*
X229939071Y-66333105D01*
X229968315Y-66393896D01*
X229979627Y-66458925D01*
X229973919Y-66525495D01*
X229952105Y-66590912D01*
X229915098Y-66652477D01*
X229863811Y-66707496D01*
X229799159Y-66753272D01*
X229722054Y-66787108D01*
X229718543Y-66788232D01*
X229636250Y-66807173D01*
X229546851Y-66816130D01*
X229466002Y-66814094D01*
X229452036Y-66813309D01*
X229440916Y-66812636D01*
X229432428Y-66809822D01*
X229426354Y-66802613D01*
X229422480Y-66788753D01*
X229420588Y-66765989D01*
X229420462Y-66732066D01*
X229421888Y-66684731D01*
X229424648Y-66621728D01*
X229428526Y-66540804D01*
X229432268Y-66462097D01*
X229445718Y-66174098D01*
X229506693Y-66166389D01*
X229604181Y-66164365D01*
X229701704Y-66181472D01*
G37*
X229701704Y-66181472D02*
X229794015Y-66216170D01*
X229875868Y-66266917D01*
X229890979Y-66279248D01*
X229939071Y-66333105D01*
X229968315Y-66393896D01*
X229979627Y-66458925D01*
X229973919Y-66525495D01*
X229952105Y-66590912D01*
X229915098Y-66652477D01*
X229863811Y-66707496D01*
X229799159Y-66753272D01*
X229722054Y-66787108D01*
X229718543Y-66788232D01*
X229636250Y-66807173D01*
X229546851Y-66816130D01*
X229466002Y-66814094D01*
X229452036Y-66813309D01*
X229440916Y-66812636D01*
X229432428Y-66809822D01*
X229426354Y-66802613D01*
X229422480Y-66788753D01*
X229420588Y-66765989D01*
X229420462Y-66732066D01*
X229421888Y-66684731D01*
X229424648Y-66621728D01*
X229428526Y-66540804D01*
X229432268Y-66462097D01*
X229445718Y-66174098D01*
X229506693Y-66166389D01*
X229604181Y-66164365D01*
X229701704Y-66181472D01*
G36*
X233009968Y-66222179D02*
G01*
X233036849Y-66225611D01*
X233076623Y-66229805D01*
X233116789Y-66233507D01*
X233224168Y-66252442D01*
X233328228Y-66291199D01*
X233404389Y-66332899D01*
X233487291Y-66392846D01*
X233553713Y-66458968D01*
X233602032Y-66529189D01*
X233630625Y-66601437D01*
X233635999Y-66629118D01*
X233638115Y-66665282D01*
X233630398Y-66694059D01*
X233614535Y-66721248D01*
X233564602Y-66781969D01*
X233501921Y-66831346D01*
X233424936Y-66870008D01*
X233332092Y-66898586D01*
X233221836Y-66917710D01*
X233105911Y-66927384D01*
X233046581Y-66930224D01*
X233005749Y-66931511D01*
X232979963Y-66930901D01*
X232965773Y-66928045D01*
X232959728Y-66922598D01*
X232958376Y-66914211D01*
X232958364Y-66912556D01*
X232959505Y-66894095D01*
X232962642Y-66858283D01*
X232967350Y-66809614D01*
X232973204Y-66752585D01*
X232975949Y-66726786D01*
X232985181Y-66620142D01*
X232988770Y-66518575D01*
X232987095Y-66409837D01*
X232986337Y-66390297D01*
X232979139Y-66217344D01*
X233009968Y-66222179D01*
G37*
X233009968Y-66222179D02*
X233036849Y-66225611D01*
X233076623Y-66229805D01*
X233116789Y-66233507D01*
X233224168Y-66252442D01*
X233328228Y-66291199D01*
X233404389Y-66332899D01*
X233487291Y-66392846D01*
X233553713Y-66458968D01*
X233602032Y-66529189D01*
X233630625Y-66601437D01*
X233635999Y-66629118D01*
X233638115Y-66665282D01*
X233630398Y-66694059D01*
X233614535Y-66721248D01*
X233564602Y-66781969D01*
X233501921Y-66831346D01*
X233424936Y-66870008D01*
X233332092Y-66898586D01*
X233221836Y-66917710D01*
X233105911Y-66927384D01*
X233046581Y-66930224D01*
X233005749Y-66931511D01*
X232979963Y-66930901D01*
X232965773Y-66928045D01*
X232959728Y-66922598D01*
X232958376Y-66914211D01*
X232958364Y-66912556D01*
X232959505Y-66894095D01*
X232962642Y-66858283D01*
X232967350Y-66809614D01*
X232973204Y-66752585D01*
X232975949Y-66726786D01*
X232985181Y-66620142D01*
X232988770Y-66518575D01*
X232987095Y-66409837D01*
X232986337Y-66390297D01*
X232979139Y-66217344D01*
X233009968Y-66222179D01*
G36*
X234409165Y-68327291D02*
G01*
X228770827Y-68327291D01*
X228770827Y-67633177D01*
X229188481Y-67633177D01*
X229216935Y-67666993D01*
X229252514Y-67693583D01*
X229295630Y-67701908D01*
X229340141Y-67690908D01*
X229344007Y-67688933D01*
X229359033Y-67678860D01*
X229370981Y-67664884D01*
X229380194Y-67644590D01*
X229387015Y-67615564D01*
X229391788Y-67575392D01*
X229394854Y-67521660D01*
X229396558Y-67451952D01*
X229397242Y-67363855D01*
X229397309Y-67313732D01*
X229397309Y-67024868D01*
X229542938Y-67024868D01*
X229635033Y-67022099D01*
X229712222Y-67012766D01*
X229781001Y-66995326D01*
X229847865Y-66968237D01*
X229902891Y-66939405D01*
X229989486Y-66879297D01*
X230061541Y-66806575D01*
X230118106Y-66723952D01*
X230158233Y-66634139D01*
X230180973Y-66539848D01*
X230185378Y-66443790D01*
X230170499Y-66348678D01*
X230139009Y-66264432D01*
X230090334Y-66188034D01*
X230023893Y-66117420D01*
X229992526Y-66093263D01*
X230408473Y-66093263D01*
X230411938Y-66117572D01*
X230421532Y-66158174D01*
X230436046Y-66210638D01*
X230454275Y-66270534D01*
X230469209Y-66316328D01*
X230498464Y-66404136D01*
X230524939Y-66485279D01*
X230549253Y-66562107D01*
X230572025Y-66636969D01*
X230593873Y-66712213D01*
X230615414Y-66790188D01*
X230637267Y-66873242D01*
X230660050Y-66963725D01*
X230684382Y-67063986D01*
X230710880Y-67176372D01*
X230740163Y-67303233D01*
X230772849Y-67446918D01*
X230809020Y-67607386D01*
X230818060Y-67645416D01*
X230826277Y-67676288D01*
X230830823Y-67690400D01*
X230852246Y-67716105D01*
X230888505Y-67733987D01*
X230933566Y-67743127D01*
X230981395Y-67742608D01*
X231025959Y-67731513D01*
X231043472Y-67722745D01*
X231078999Y-67690763D01*
X231095318Y-67649067D01*
X231094264Y-67602733D01*
X231095195Y-67566491D01*
X231106766Y-67512227D01*
X231129050Y-67439719D01*
X231162120Y-67348746D01*
X231206048Y-67239088D01*
X231239378Y-67160200D01*
X231266999Y-67092992D01*
X231298335Y-67011948D01*
X231331473Y-66922461D01*
X231364500Y-66829924D01*
X231395502Y-66739730D01*
X231422566Y-66657272D01*
X231443779Y-66587943D01*
X231449203Y-66568745D01*
X231454341Y-66552131D01*
X231458410Y-66547660D01*
X231462401Y-66557768D01*
X231467304Y-66584895D01*
X231473789Y-66629195D01*
X231488592Y-66728192D01*
X231505890Y-66834752D01*
X231525136Y-66946180D01*
X231545785Y-67059781D01*
X231567292Y-67172861D01*
X231589112Y-67282724D01*
X231610698Y-67386676D01*
X231631507Y-67482023D01*
X231650992Y-67566069D01*
X231668607Y-67636119D01*
X231683808Y-67689480D01*
X231694576Y-67720068D01*
X231717735Y-67750051D01*
X231755764Y-67773562D01*
X231801737Y-67786943D01*
X231824652Y-67788695D01*
X231859824Y-67785400D01*
X231886402Y-67772098D01*
X231907212Y-67753016D01*
X231929951Y-67721796D01*
X231957676Y-67669994D01*
X231990007Y-67598345D01*
X232004499Y-67563423D01*
X232022405Y-67519366D01*
X232047317Y-67458073D01*
X232077963Y-67382672D01*
X232113073Y-67296290D01*
X232151374Y-67202055D01*
X232191596Y-67103095D01*
X232199356Y-67084002D01*
X232725165Y-67084002D01*
X232725316Y-67167200D01*
X232727276Y-67262015D01*
X232730953Y-67373023D01*
X232732139Y-67404054D01*
X232736216Y-67494479D01*
X232741184Y-67565295D01*
X232747969Y-67618875D01*
X232757495Y-67657590D01*
X232770690Y-67683814D01*
X232788478Y-67699919D01*
X232811784Y-67708277D01*
X232841534Y-67711262D01*
X232852048Y-67711466D01*
X232886972Y-67706774D01*
X232916381Y-67688815D01*
X232927677Y-67678233D01*
X232961243Y-67644666D01*
X232956246Y-67410001D01*
X232951249Y-67175335D01*
X233061040Y-67213550D01*
X233219621Y-67278218D01*
X233373714Y-67360630D01*
X233525346Y-67462045D01*
X233676543Y-67583719D01*
X233719704Y-67622159D01*
X233761249Y-67657925D01*
X233792208Y-67679363D01*
X233816300Y-67688831D01*
X233826348Y-67689818D01*
X233876942Y-67680891D01*
X233914920Y-67656642D01*
X233938512Y-67620866D01*
X233945951Y-67577359D01*
X233935465Y-67529920D01*
X233916492Y-67496374D01*
X233876454Y-67449324D01*
X233820544Y-67395367D01*
X233752505Y-67337519D01*
X233676080Y-67278793D01*
X233595012Y-67222204D01*
X233513046Y-67170766D01*
X233509659Y-67168775D01*
X233419114Y-67115692D01*
X233501312Y-67079959D01*
X233576691Y-67045108D01*
X233636527Y-67012085D01*
X233686569Y-66977243D01*
X233732564Y-66936938D01*
X233743080Y-66926606D01*
X233802911Y-66853081D01*
X233842460Y-66773770D01*
X233862172Y-66690210D01*
X233862490Y-66603939D01*
X233843860Y-66516492D01*
X233806725Y-66429407D01*
X233751531Y-66344220D01*
X233678721Y-66262469D01*
X233588740Y-66185690D01*
X233514063Y-66134657D01*
X233441972Y-66092769D01*
X233372907Y-66059933D01*
X233302280Y-66034904D01*
X233225502Y-66016436D01*
X233137984Y-66003283D01*
X233035136Y-65994199D01*
X232985842Y-65991276D01*
X232927089Y-65988379D01*
X232885967Y-65987249D01*
X232858165Y-65988300D01*
X232839374Y-65991945D01*
X232825283Y-65998599D01*
X232812515Y-66007933D01*
X232792564Y-66024805D01*
X232777233Y-66041742D01*
X232766025Y-66061708D01*
X232758441Y-66087666D01*
X232753984Y-66122577D01*
X232752156Y-66169404D01*
X232752458Y-66231109D01*
X232754394Y-66310656D01*
X232755487Y-66347244D01*
X232757940Y-66444866D01*
X232758614Y-66526527D01*
X232757356Y-66598187D01*
X232754013Y-66665807D01*
X232748429Y-66735346D01*
X232744423Y-66775841D01*
X232736450Y-66858341D01*
X232730642Y-66934150D01*
X232726910Y-67007845D01*
X232725165Y-67084002D01*
X232199356Y-67084002D01*
X232232468Y-67002537D01*
X232247962Y-66964418D01*
X232287075Y-66867687D01*
X232324438Y-66774338D01*
X232359038Y-66686967D01*
X232389864Y-66608169D01*
X232415903Y-66540542D01*
X232436144Y-66486681D01*
X232449575Y-66449182D01*
X232453579Y-66436854D01*
X232468459Y-66389828D01*
X232488064Y-66331494D01*
X232509257Y-66271070D01*
X232520481Y-66240213D01*
X232542816Y-66176890D01*
X232556228Y-66129658D01*
X232560904Y-66094602D01*
X232557032Y-66067809D01*
X232544797Y-66045363D01*
X232530564Y-66029345D01*
X232490919Y-66002637D01*
X232448068Y-65995950D01*
X232404877Y-66008179D01*
X232364211Y-66038217D01*
X232328936Y-66084960D01*
X232314974Y-66112522D01*
X232302931Y-66144171D01*
X232287465Y-66191228D01*
X232270421Y-66247764D01*
X232253648Y-66307848D01*
X232250836Y-66318443D01*
X232234289Y-66375722D01*
X232210367Y-66450522D01*
X232180095Y-66540052D01*
X232144497Y-66641518D01*
X232104599Y-66752129D01*
X232061424Y-66869091D01*
X232015997Y-66989612D01*
X231969343Y-67110901D01*
X231922486Y-67230164D01*
X231876451Y-67344608D01*
X231856577Y-67393063D01*
X231851091Y-67402912D01*
X231845787Y-67401870D01*
X231839545Y-67387294D01*
X231831245Y-67356538D01*
X231819767Y-67306957D01*
X231819358Y-67305136D01*
X231792173Y-67180498D01*
X231765718Y-67052809D01*
X231740775Y-66926232D01*
X231718126Y-66804933D01*
X231698550Y-66693077D01*
X231682829Y-66594829D01*
X231673037Y-66524781D01*
X231657183Y-66405318D01*
X231642144Y-66306053D01*
X231627277Y-66225250D01*
X231611941Y-66161174D01*
X231595494Y-66112089D01*
X231577292Y-66076260D01*
X231556693Y-66051951D01*
X231533056Y-66037427D01*
X231505737Y-66030952D01*
X231489978Y-66030190D01*
X231451859Y-66039011D01*
X231414112Y-66065907D01*
X231376352Y-66111525D01*
X231338192Y-66176514D01*
X231299247Y-66261521D01*
X231259130Y-66367195D01*
X231221607Y-66480818D01*
X231185963Y-66593832D01*
X231150571Y-66703985D01*
X231116083Y-66809394D01*
X231083153Y-66908177D01*
X231052434Y-66998451D01*
X231024579Y-67078336D01*
X231000240Y-67145948D01*
X230980072Y-67199405D01*
X230964727Y-67236825D01*
X230954858Y-67256326D01*
X230951747Y-67258565D01*
X230948574Y-67247342D01*
X230941460Y-67217615D01*
X230931082Y-67172371D01*
X230918121Y-67114597D01*
X230903255Y-67047280D01*
X230892312Y-66997154D01*
X230857104Y-66838790D01*
X230824056Y-66698159D01*
X230792143Y-66571246D01*
X230760341Y-66454034D01*
X230727626Y-66342507D01*
X230714373Y-66299604D01*
X230685303Y-66209845D01*
X230659811Y-66139301D01*
X230636428Y-66085790D01*
X230613688Y-66047132D01*
X230590123Y-66021147D01*
X230564265Y-66005652D01*
X230534648Y-65998469D01*
X230510904Y-65997217D01*
X230462690Y-66005626D01*
X230428811Y-66029821D01*
X230410915Y-66068259D01*
X230408473Y-66093263D01*
X229992526Y-66093263D01*
X229943736Y-66055688D01*
X229853913Y-66005934D01*
X229758476Y-65971255D01*
X229753938Y-65970052D01*
X229703253Y-65960658D01*
X229642163Y-65955265D01*
X229574768Y-65953590D01*
X229505169Y-65955346D01*
X229437464Y-65960249D01*
X229375754Y-65968013D01*
X229324138Y-65978354D01*
X229286716Y-65990985D01*
X229268753Y-66003808D01*
X229258648Y-66020808D01*
X229250529Y-66042952D01*
X229244087Y-66072914D01*
X229239011Y-66113367D01*
X229234992Y-66166988D01*
X229231718Y-66236449D01*
X229228880Y-66324426D01*
X229228077Y-66354422D01*
X229225152Y-66446996D01*
X229220986Y-66550920D01*
X229215971Y-66657780D01*
X229210502Y-66759158D01*
X229205189Y-66843518D01*
X229200256Y-66927566D01*
X229195902Y-67026139D01*
X229192368Y-67131781D01*
X229189893Y-67237038D01*
X229188719Y-67334454D01*
X229188657Y-67356500D01*
X229188481Y-67633177D01*
X228770827Y-67633177D01*
X228770827Y-65359745D01*
X234409165Y-65359745D01*
X234409165Y-68327291D01*
G37*
X234409165Y-68327291D02*
X228770827Y-68327291D01*
X228770827Y-67633177D01*
X229188481Y-67633177D01*
X229216935Y-67666993D01*
X229252514Y-67693583D01*
X229295630Y-67701908D01*
X229340141Y-67690908D01*
X229344007Y-67688933D01*
X229359033Y-67678860D01*
X229370981Y-67664884D01*
X229380194Y-67644590D01*
X229387015Y-67615564D01*
X229391788Y-67575392D01*
X229394854Y-67521660D01*
X229396558Y-67451952D01*
X229397242Y-67363855D01*
X229397309Y-67313732D01*
X229397309Y-67024868D01*
X229542938Y-67024868D01*
X229635033Y-67022099D01*
X229712222Y-67012766D01*
X229781001Y-66995326D01*
X229847865Y-66968237D01*
X229902891Y-66939405D01*
X229989486Y-66879297D01*
X230061541Y-66806575D01*
X230118106Y-66723952D01*
X230158233Y-66634139D01*
X230180973Y-66539848D01*
X230185378Y-66443790D01*
X230170499Y-66348678D01*
X230139009Y-66264432D01*
X230090334Y-66188034D01*
X230023893Y-66117420D01*
X229992526Y-66093263D01*
X230408473Y-66093263D01*
X230411938Y-66117572D01*
X230421532Y-66158174D01*
X230436046Y-66210638D01*
X230454275Y-66270534D01*
X230469209Y-66316328D01*
X230498464Y-66404136D01*
X230524939Y-66485279D01*
X230549253Y-66562107D01*
X230572025Y-66636969D01*
X230593873Y-66712213D01*
X230615414Y-66790188D01*
X230637267Y-66873242D01*
X230660050Y-66963725D01*
X230684382Y-67063986D01*
X230710880Y-67176372D01*
X230740163Y-67303233D01*
X230772849Y-67446918D01*
X230809020Y-67607386D01*
X230818060Y-67645416D01*
X230826277Y-67676288D01*
X230830823Y-67690400D01*
X230852246Y-67716105D01*
X230888505Y-67733987D01*
X230933566Y-67743127D01*
X230981395Y-67742608D01*
X231025959Y-67731513D01*
X231043472Y-67722745D01*
X231078999Y-67690763D01*
X231095318Y-67649067D01*
X231094264Y-67602733D01*
X231095195Y-67566491D01*
X231106766Y-67512227D01*
X231129050Y-67439719D01*
X231162120Y-67348746D01*
X231206048Y-67239088D01*
X231239378Y-67160200D01*
X231266999Y-67092992D01*
X231298335Y-67011948D01*
X231331473Y-66922461D01*
X231364500Y-66829924D01*
X231395502Y-66739730D01*
X231422566Y-66657272D01*
X231443779Y-66587943D01*
X231449203Y-66568745D01*
X231454341Y-66552131D01*
X231458410Y-66547660D01*
X231462401Y-66557768D01*
X231467304Y-66584895D01*
X231473789Y-66629195D01*
X231488592Y-66728192D01*
X231505890Y-66834752D01*
X231525136Y-66946180D01*
X231545785Y-67059781D01*
X231567292Y-67172861D01*
X231589112Y-67282724D01*
X231610698Y-67386676D01*
X231631507Y-67482023D01*
X231650992Y-67566069D01*
X231668607Y-67636119D01*
X231683808Y-67689480D01*
X231694576Y-67720068D01*
X231717735Y-67750051D01*
X231755764Y-67773562D01*
X231801737Y-67786943D01*
X231824652Y-67788695D01*
X231859824Y-67785400D01*
X231886402Y-67772098D01*
X231907212Y-67753016D01*
X231929951Y-67721796D01*
X231957676Y-67669994D01*
X231990007Y-67598345D01*
X232004499Y-67563423D01*
X232022405Y-67519366D01*
X232047317Y-67458073D01*
X232077963Y-67382672D01*
X232113073Y-67296290D01*
X232151374Y-67202055D01*
X232191596Y-67103095D01*
X232199356Y-67084002D01*
X232725165Y-67084002D01*
X232725316Y-67167200D01*
X232727276Y-67262015D01*
X232730953Y-67373023D01*
X232732139Y-67404054D01*
X232736216Y-67494479D01*
X232741184Y-67565295D01*
X232747969Y-67618875D01*
X232757495Y-67657590D01*
X232770690Y-67683814D01*
X232788478Y-67699919D01*
X232811784Y-67708277D01*
X232841534Y-67711262D01*
X232852048Y-67711466D01*
X232886972Y-67706774D01*
X232916381Y-67688815D01*
X232927677Y-67678233D01*
X232961243Y-67644666D01*
X232956246Y-67410001D01*
X232951249Y-67175335D01*
X233061040Y-67213550D01*
X233219621Y-67278218D01*
X233373714Y-67360630D01*
X233525346Y-67462045D01*
X233676543Y-67583719D01*
X233719704Y-67622159D01*
X233761249Y-67657925D01*
X233792208Y-67679363D01*
X233816300Y-67688831D01*
X233826348Y-67689818D01*
X233876942Y-67680891D01*
X233914920Y-67656642D01*
X233938512Y-67620866D01*
X233945951Y-67577359D01*
X233935465Y-67529920D01*
X233916492Y-67496374D01*
X233876454Y-67449324D01*
X233820544Y-67395367D01*
X233752505Y-67337519D01*
X233676080Y-67278793D01*
X233595012Y-67222204D01*
X233513046Y-67170766D01*
X233509659Y-67168775D01*
X233419114Y-67115692D01*
X233501312Y-67079959D01*
X233576691Y-67045108D01*
X233636527Y-67012085D01*
X233686569Y-66977243D01*
X233732564Y-66936938D01*
X233743080Y-66926606D01*
X233802911Y-66853081D01*
X233842460Y-66773770D01*
X233862172Y-66690210D01*
X233862490Y-66603939D01*
X233843860Y-66516492D01*
X233806725Y-66429407D01*
X233751531Y-66344220D01*
X233678721Y-66262469D01*
X233588740Y-66185690D01*
X233514063Y-66134657D01*
X233441972Y-66092769D01*
X233372907Y-66059933D01*
X233302280Y-66034904D01*
X233225502Y-66016436D01*
X233137984Y-66003283D01*
X233035136Y-65994199D01*
X232985842Y-65991276D01*
X232927089Y-65988379D01*
X232885967Y-65987249D01*
X232858165Y-65988300D01*
X232839374Y-65991945D01*
X232825283Y-65998599D01*
X232812515Y-66007933D01*
X232792564Y-66024805D01*
X232777233Y-66041742D01*
X232766025Y-66061708D01*
X232758441Y-66087666D01*
X232753984Y-66122577D01*
X232752156Y-66169404D01*
X232752458Y-66231109D01*
X232754394Y-66310656D01*
X232755487Y-66347244D01*
X232757940Y-66444866D01*
X232758614Y-66526527D01*
X232757356Y-66598187D01*
X232754013Y-66665807D01*
X232748429Y-66735346D01*
X232744423Y-66775841D01*
X232736450Y-66858341D01*
X232730642Y-66934150D01*
X232726910Y-67007845D01*
X232725165Y-67084002D01*
X232199356Y-67084002D01*
X232232468Y-67002537D01*
X232247962Y-66964418D01*
X232287075Y-66867687D01*
X232324438Y-66774338D01*
X232359038Y-66686967D01*
X232389864Y-66608169D01*
X232415903Y-66540542D01*
X232436144Y-66486681D01*
X232449575Y-66449182D01*
X232453579Y-66436854D01*
X232468459Y-66389828D01*
X232488064Y-66331494D01*
X232509257Y-66271070D01*
X232520481Y-66240213D01*
X232542816Y-66176890D01*
X232556228Y-66129658D01*
X232560904Y-66094602D01*
X232557032Y-66067809D01*
X232544797Y-66045363D01*
X232530564Y-66029345D01*
X232490919Y-66002637D01*
X232448068Y-65995950D01*
X232404877Y-66008179D01*
X232364211Y-66038217D01*
X232328936Y-66084960D01*
X232314974Y-66112522D01*
X232302931Y-66144171D01*
X232287465Y-66191228D01*
X232270421Y-66247764D01*
X232253648Y-66307848D01*
X232250836Y-66318443D01*
X232234289Y-66375722D01*
X232210367Y-66450522D01*
X232180095Y-66540052D01*
X232144497Y-66641518D01*
X232104599Y-66752129D01*
X232061424Y-66869091D01*
X232015997Y-66989612D01*
X231969343Y-67110901D01*
X231922486Y-67230164D01*
X231876451Y-67344608D01*
X231856577Y-67393063D01*
X231851091Y-67402912D01*
X231845787Y-67401870D01*
X231839545Y-67387294D01*
X231831245Y-67356538D01*
X231819767Y-67306957D01*
X231819358Y-67305136D01*
X231792173Y-67180498D01*
X231765718Y-67052809D01*
X231740775Y-66926232D01*
X231718126Y-66804933D01*
X231698550Y-66693077D01*
X231682829Y-66594829D01*
X231673037Y-66524781D01*
X231657183Y-66405318D01*
X231642144Y-66306053D01*
X231627277Y-66225250D01*
X231611941Y-66161174D01*
X231595494Y-66112089D01*
X231577292Y-66076260D01*
X231556693Y-66051951D01*
X231533056Y-66037427D01*
X231505737Y-66030952D01*
X231489978Y-66030190D01*
X231451859Y-66039011D01*
X231414112Y-66065907D01*
X231376352Y-66111525D01*
X231338192Y-66176514D01*
X231299247Y-66261521D01*
X231259130Y-66367195D01*
X231221607Y-66480818D01*
X231185963Y-66593832D01*
X231150571Y-66703985D01*
X231116083Y-66809394D01*
X231083153Y-66908177D01*
X231052434Y-66998451D01*
X231024579Y-67078336D01*
X231000240Y-67145948D01*
X230980072Y-67199405D01*
X230964727Y-67236825D01*
X230954858Y-67256326D01*
X230951747Y-67258565D01*
X230948574Y-67247342D01*
X230941460Y-67217615D01*
X230931082Y-67172371D01*
X230918121Y-67114597D01*
X230903255Y-67047280D01*
X230892312Y-66997154D01*
X230857104Y-66838790D01*
X230824056Y-66698159D01*
X230792143Y-66571246D01*
X230760341Y-66454034D01*
X230727626Y-66342507D01*
X230714373Y-66299604D01*
X230685303Y-66209845D01*
X230659811Y-66139301D01*
X230636428Y-66085790D01*
X230613688Y-66047132D01*
X230590123Y-66021147D01*
X230564265Y-66005652D01*
X230534648Y-65998469D01*
X230510904Y-65997217D01*
X230462690Y-66005626D01*
X230428811Y-66029821D01*
X230410915Y-66068259D01*
X230408473Y-66093263D01*
X229992526Y-66093263D01*
X229943736Y-66055688D01*
X229853913Y-66005934D01*
X229758476Y-65971255D01*
X229753938Y-65970052D01*
X229703253Y-65960658D01*
X229642163Y-65955265D01*
X229574768Y-65953590D01*
X229505169Y-65955346D01*
X229437464Y-65960249D01*
X229375754Y-65968013D01*
X229324138Y-65978354D01*
X229286716Y-65990985D01*
X229268753Y-66003808D01*
X229258648Y-66020808D01*
X229250529Y-66042952D01*
X229244087Y-66072914D01*
X229239011Y-66113367D01*
X229234992Y-66166988D01*
X229231718Y-66236449D01*
X229228880Y-66324426D01*
X229228077Y-66354422D01*
X229225152Y-66446996D01*
X229220986Y-66550920D01*
X229215971Y-66657780D01*
X229210502Y-66759158D01*
X229205189Y-66843518D01*
X229200256Y-66927566D01*
X229195902Y-67026139D01*
X229192368Y-67131781D01*
X229189893Y-67237038D01*
X229188719Y-67334454D01*
X229188657Y-67356500D01*
X229188481Y-67633177D01*
X228770827Y-67633177D01*
X228770827Y-65359745D01*
X234409165Y-65359745D01*
X234409165Y-68327291D01*
G36*
X230257591Y-57459965D02*
G01*
X230265332Y-57493166D01*
X230275394Y-57538159D01*
X230286896Y-57590800D01*
X230298955Y-57646944D01*
X230310687Y-57702448D01*
X230321209Y-57753166D01*
X230329639Y-57794955D01*
X230335094Y-57823670D01*
X230336691Y-57835167D01*
X230336674Y-57835196D01*
X230325946Y-57838076D01*
X230297856Y-57844379D01*
X230256605Y-57853242D01*
X230206390Y-57863800D01*
X230151411Y-57875191D01*
X230095866Y-57886552D01*
X230043955Y-57897017D01*
X229999876Y-57905724D01*
X229967828Y-57911809D01*
X229952009Y-57914408D01*
X229951367Y-57914445D01*
X229950980Y-57906986D01*
X229954551Y-57899879D01*
X230002358Y-57821358D01*
X230049760Y-57744802D01*
X230095362Y-57672347D01*
X230137772Y-57606127D01*
X230175594Y-57548278D01*
X230207435Y-57500935D01*
X230231901Y-57466231D01*
X230247598Y-57446303D01*
X230253056Y-57442700D01*
X230257591Y-57459965D01*
G37*
X230257591Y-57459965D02*
X230265332Y-57493166D01*
X230275394Y-57538159D01*
X230286896Y-57590800D01*
X230298955Y-57646944D01*
X230310687Y-57702448D01*
X230321209Y-57753166D01*
X230329639Y-57794955D01*
X230335094Y-57823670D01*
X230336691Y-57835167D01*
X230336674Y-57835196D01*
X230325946Y-57838076D01*
X230297856Y-57844379D01*
X230256605Y-57853242D01*
X230206390Y-57863800D01*
X230151411Y-57875191D01*
X230095866Y-57886552D01*
X230043955Y-57897017D01*
X229999876Y-57905724D01*
X229967828Y-57911809D01*
X229952009Y-57914408D01*
X229951367Y-57914445D01*
X229950980Y-57906986D01*
X229954551Y-57899879D01*
X230002358Y-57821358D01*
X230049760Y-57744802D01*
X230095362Y-57672347D01*
X230137772Y-57606127D01*
X230175594Y-57548278D01*
X230207435Y-57500935D01*
X230231901Y-57466231D01*
X230247598Y-57446303D01*
X230253056Y-57442700D01*
X230257591Y-57459965D01*
G36*
X234409165Y-59321282D02*
G01*
X228770827Y-59321282D01*
X228770827Y-58580133D01*
X229410128Y-58580133D01*
X229418510Y-58606852D01*
X229435862Y-58627617D01*
X229461881Y-58644627D01*
X229463034Y-58645227D01*
X229512079Y-58660978D01*
X229556624Y-58655981D01*
X229593602Y-58631602D01*
X229610662Y-58608106D01*
X229635011Y-58565285D01*
X229666058Y-58504334D01*
X229703214Y-58426448D01*
X229745887Y-58332823D01*
X229785378Y-58243315D01*
X229812082Y-58182008D01*
X230069061Y-58131232D01*
X230143197Y-58116708D01*
X230211707Y-58103520D01*
X230271126Y-58092316D01*
X230317986Y-58083746D01*
X230348820Y-58078457D01*
X230358134Y-58077135D01*
X230390227Y-58073813D01*
X230419510Y-58222191D01*
X230446706Y-58345680D01*
X230475700Y-58450063D01*
X230506241Y-58534668D01*
X230538077Y-58598825D01*
X230570957Y-58641864D01*
X230579950Y-58649752D01*
X230620085Y-58668886D01*
X230664392Y-58670585D01*
X230703943Y-58654895D01*
X230726277Y-58631929D01*
X230744270Y-58601696D01*
X230744382Y-58601430D01*
X230750685Y-58583117D01*
X230753148Y-58563960D01*
X230751045Y-58540337D01*
X230743648Y-58508625D01*
X230730228Y-58465200D01*
X230710057Y-58406439D01*
X230698857Y-58374795D01*
X230686424Y-58334992D01*
X230670435Y-58276123D01*
X230651456Y-58200716D01*
X230630054Y-58111298D01*
X230613813Y-58040841D01*
X231016248Y-58040841D01*
X231018059Y-58158058D01*
X231036436Y-58262376D01*
X231072179Y-58356207D01*
X231126086Y-58441966D01*
X231163540Y-58486323D01*
X231224492Y-58546076D01*
X231284251Y-58590252D01*
X231349871Y-58623652D01*
X231385083Y-58637113D01*
X231421389Y-58648800D01*
X231453873Y-58655917D01*
X231489413Y-58659204D01*
X231534890Y-58659402D01*
X231579005Y-58657994D01*
X231641116Y-58654486D01*
X231689956Y-58648531D01*
X231734217Y-58638534D01*
X231782592Y-58622900D01*
X231795293Y-58618310D01*
X231864789Y-58588043D01*
X231941004Y-58546905D01*
X232016734Y-58499372D01*
X232084774Y-58449919D01*
X232131298Y-58409602D01*
X232158438Y-58381090D01*
X232172499Y-58358147D01*
X232177569Y-58332616D01*
X232178010Y-58316368D01*
X232173681Y-58277798D01*
X232157417Y-58247412D01*
X232146123Y-58234344D01*
X232123150Y-58213276D01*
X232099939Y-58201648D01*
X232073442Y-58200171D01*
X232040610Y-58209554D01*
X231998397Y-58230507D01*
X231943753Y-58263740D01*
X231901595Y-58291287D01*
X231820436Y-58342437D01*
X231750743Y-58379775D01*
X231688314Y-58404908D01*
X231628948Y-58419441D01*
X231568442Y-58424983D01*
X231551527Y-58425147D01*
X231470644Y-58414657D01*
X231398967Y-58384334D01*
X231337053Y-58334554D01*
X231285456Y-58265691D01*
X231268339Y-58233926D01*
X231253856Y-58201959D01*
X231245043Y-58173484D01*
X231240655Y-58141299D01*
X231239446Y-58098204D01*
X231239669Y-58068318D01*
X231242794Y-58000556D01*
X231251326Y-57943111D01*
X231267046Y-57884616D01*
X231269829Y-57875977D01*
X231312049Y-57770858D01*
X231370011Y-57661564D01*
X231439909Y-57553973D01*
X231517936Y-57453962D01*
X231597503Y-57370023D01*
X231672368Y-57307134D01*
X231743349Y-57264265D01*
X231812936Y-57240396D01*
X231883617Y-57234511D01*
X231920146Y-57237993D01*
X231951807Y-57244674D01*
X231972615Y-57256730D01*
X231990771Y-57280095D01*
X232000336Y-57296006D01*
X232023767Y-57332435D01*
X232049114Y-57366254D01*
X232059012Y-57377625D01*
X232095294Y-57402575D01*
X232135490Y-57408706D01*
X232174880Y-57397415D01*
X232208748Y-57370102D01*
X232232375Y-57328162D01*
X232233087Y-57326058D01*
X232240177Y-57286489D01*
X232241242Y-57234527D01*
X232237099Y-57175986D01*
X232228565Y-57116681D01*
X232224106Y-57096698D01*
X232401373Y-57096698D01*
X232408123Y-57125110D01*
X232421262Y-57156206D01*
X232442346Y-57176391D01*
X232467243Y-57189138D01*
X232522812Y-57206874D01*
X232597762Y-57220252D01*
X232689879Y-57228999D01*
X232796945Y-57232845D01*
X232825853Y-57233009D01*
X232966524Y-57233009D01*
X232974035Y-57345665D01*
X232977688Y-57397051D01*
X232982727Y-57463276D01*
X232988597Y-57537283D01*
X232994746Y-57612016D01*
X232997556Y-57645168D01*
X233004034Y-57728456D01*
X233010284Y-57823083D01*
X233016134Y-57925030D01*
X233021414Y-58030276D01*
X233025953Y-58134801D01*
X233029580Y-58234585D01*
X233032125Y-58325607D01*
X233033415Y-58403848D01*
X233033282Y-58465287D01*
X233032975Y-58478621D01*
X233029805Y-58586674D01*
X233065699Y-58618755D01*
X233108245Y-58645488D01*
X233151223Y-58652162D01*
X233191078Y-58638811D01*
X233215385Y-58617364D01*
X233231178Y-58596739D01*
X233243406Y-58575004D01*
X233252347Y-58549370D01*
X233258280Y-58517050D01*
X233261484Y-58475255D01*
X233262239Y-58421198D01*
X233260822Y-58352091D01*
X233257514Y-58265146D01*
X233255393Y-58217496D01*
X233250749Y-58123409D01*
X233244846Y-58015096D01*
X233238140Y-57900248D01*
X233231085Y-57786553D01*
X233224135Y-57681701D01*
X233221572Y-57645168D01*
X233215866Y-57563173D01*
X233210733Y-57485309D01*
X233206389Y-57415199D01*
X233203053Y-57356467D01*
X233200941Y-57312735D01*
X233200265Y-57289033D01*
X233200164Y-57229653D01*
X233334803Y-57237001D01*
X233397218Y-57240233D01*
X233472870Y-57243883D01*
X233553028Y-57247544D01*
X233628963Y-57250808D01*
X233642911Y-57251379D01*
X233816380Y-57258409D01*
X233848456Y-57227678D01*
X233871240Y-57199892D01*
X233885964Y-57171120D01*
X233887186Y-57166657D01*
X233886527Y-57129776D01*
X233873373Y-57088797D01*
X233851577Y-57054313D01*
X233843413Y-57046384D01*
X233823394Y-57038796D01*
X233783363Y-57031627D01*
X233725285Y-57024994D01*
X233651128Y-57019010D01*
X233562859Y-57013790D01*
X233462444Y-57009451D01*
X233351850Y-57006105D01*
X233233045Y-57003869D01*
X233107994Y-57002858D01*
X233098041Y-57002834D01*
X232962810Y-57001744D01*
X232847762Y-56999014D01*
X232751154Y-56994577D01*
X232671242Y-56988363D01*
X232639633Y-56984892D01*
X232570307Y-56977358D01*
X232518928Y-56974738D01*
X232481833Y-56977916D01*
X232455359Y-56987777D01*
X232435842Y-57005205D01*
X232419621Y-57031085D01*
X232415644Y-57038993D01*
X232402907Y-57070406D01*
X232401373Y-57096698D01*
X232224106Y-57096698D01*
X232216458Y-57062426D01*
X232201594Y-57019036D01*
X232186423Y-56993961D01*
X232154396Y-56974424D01*
X232114119Y-56969310D01*
X232074135Y-56978860D01*
X232055579Y-56990276D01*
X232041627Y-56999676D01*
X232024745Y-57005336D01*
X232000096Y-57007761D01*
X231962839Y-57007460D01*
X231913096Y-57005201D01*
X231817567Y-57005371D01*
X231734551Y-57017939D01*
X231657365Y-57044591D01*
X231579324Y-57087012D01*
X231573053Y-57091003D01*
X231493872Y-57150537D01*
X231412486Y-57227639D01*
X231331983Y-57318540D01*
X231255453Y-57419473D01*
X231185985Y-57526671D01*
X231127731Y-57634177D01*
X231084384Y-57729668D01*
X231053285Y-57815142D01*
X231032562Y-57897428D01*
X231020343Y-57983357D01*
X231016248Y-58040841D01*
X230613813Y-58040841D01*
X230606794Y-58010395D01*
X230582242Y-57900536D01*
X230556965Y-57784247D01*
X230531527Y-57664055D01*
X230506495Y-57542487D01*
X230482435Y-57422070D01*
X230462934Y-57321265D01*
X230446625Y-57237766D01*
X230432677Y-57173077D01*
X230420003Y-57124301D01*
X230407512Y-57088540D01*
X230394115Y-57062894D01*
X230378724Y-57044466D01*
X230360249Y-57030358D01*
X230351689Y-57025239D01*
X230323035Y-57014784D01*
X230294778Y-57018293D01*
X230264051Y-57037303D01*
X230227988Y-57073347D01*
X230200727Y-57106138D01*
X230162861Y-57156557D01*
X230116490Y-57222736D01*
X230063785Y-57301217D01*
X230006916Y-57388546D01*
X229948056Y-57481266D01*
X229889376Y-57575921D01*
X229833046Y-57669057D01*
X229781238Y-57757216D01*
X229736124Y-57836942D01*
X229704035Y-57896706D01*
X229681178Y-57937240D01*
X229661121Y-57962641D01*
X229638986Y-57978372D01*
X229625901Y-57984205D01*
X229585403Y-58010481D01*
X229560866Y-58048637D01*
X229554693Y-58093848D01*
X229559330Y-58117875D01*
X229563693Y-58135749D01*
X229564008Y-58153354D01*
X229559038Y-58175066D01*
X229547544Y-58205261D01*
X229528289Y-58248314D01*
X229513389Y-58280236D01*
X229472369Y-58369720D01*
X229441836Y-58442252D01*
X229421487Y-58500032D01*
X229411019Y-58545259D01*
X229410128Y-58580133D01*
X228770827Y-58580133D01*
X228770827Y-56353736D01*
X234409165Y-56353736D01*
X234409165Y-59321282D01*
G37*
X234409165Y-59321282D02*
X228770827Y-59321282D01*
X228770827Y-58580133D01*
X229410128Y-58580133D01*
X229418510Y-58606852D01*
X229435862Y-58627617D01*
X229461881Y-58644627D01*
X229463034Y-58645227D01*
X229512079Y-58660978D01*
X229556624Y-58655981D01*
X229593602Y-58631602D01*
X229610662Y-58608106D01*
X229635011Y-58565285D01*
X229666058Y-58504334D01*
X229703214Y-58426448D01*
X229745887Y-58332823D01*
X229785378Y-58243315D01*
X229812082Y-58182008D01*
X230069061Y-58131232D01*
X230143197Y-58116708D01*
X230211707Y-58103520D01*
X230271126Y-58092316D01*
X230317986Y-58083746D01*
X230348820Y-58078457D01*
X230358134Y-58077135D01*
X230390227Y-58073813D01*
X230419510Y-58222191D01*
X230446706Y-58345680D01*
X230475700Y-58450063D01*
X230506241Y-58534668D01*
X230538077Y-58598825D01*
X230570957Y-58641864D01*
X230579950Y-58649752D01*
X230620085Y-58668886D01*
X230664392Y-58670585D01*
X230703943Y-58654895D01*
X230726277Y-58631929D01*
X230744270Y-58601696D01*
X230744382Y-58601430D01*
X230750685Y-58583117D01*
X230753148Y-58563960D01*
X230751045Y-58540337D01*
X230743648Y-58508625D01*
X230730228Y-58465200D01*
X230710057Y-58406439D01*
X230698857Y-58374795D01*
X230686424Y-58334992D01*
X230670435Y-58276123D01*
X230651456Y-58200716D01*
X230630054Y-58111298D01*
X230613813Y-58040841D01*
X231016248Y-58040841D01*
X231018059Y-58158058D01*
X231036436Y-58262376D01*
X231072179Y-58356207D01*
X231126086Y-58441966D01*
X231163540Y-58486323D01*
X231224492Y-58546076D01*
X231284251Y-58590252D01*
X231349871Y-58623652D01*
X231385083Y-58637113D01*
X231421389Y-58648800D01*
X231453873Y-58655917D01*
X231489413Y-58659204D01*
X231534890Y-58659402D01*
X231579005Y-58657994D01*
X231641116Y-58654486D01*
X231689956Y-58648531D01*
X231734217Y-58638534D01*
X231782592Y-58622900D01*
X231795293Y-58618310D01*
X231864789Y-58588043D01*
X231941004Y-58546905D01*
X232016734Y-58499372D01*
X232084774Y-58449919D01*
X232131298Y-58409602D01*
X232158438Y-58381090D01*
X232172499Y-58358147D01*
X232177569Y-58332616D01*
X232178010Y-58316368D01*
X232173681Y-58277798D01*
X232157417Y-58247412D01*
X232146123Y-58234344D01*
X232123150Y-58213276D01*
X232099939Y-58201648D01*
X232073442Y-58200171D01*
X232040610Y-58209554D01*
X231998397Y-58230507D01*
X231943753Y-58263740D01*
X231901595Y-58291287D01*
X231820436Y-58342437D01*
X231750743Y-58379775D01*
X231688314Y-58404908D01*
X231628948Y-58419441D01*
X231568442Y-58424983D01*
X231551527Y-58425147D01*
X231470644Y-58414657D01*
X231398967Y-58384334D01*
X231337053Y-58334554D01*
X231285456Y-58265691D01*
X231268339Y-58233926D01*
X231253856Y-58201959D01*
X231245043Y-58173484D01*
X231240655Y-58141299D01*
X231239446Y-58098204D01*
X231239669Y-58068318D01*
X231242794Y-58000556D01*
X231251326Y-57943111D01*
X231267046Y-57884616D01*
X231269829Y-57875977D01*
X231312049Y-57770858D01*
X231370011Y-57661564D01*
X231439909Y-57553973D01*
X231517936Y-57453962D01*
X231597503Y-57370023D01*
X231672368Y-57307134D01*
X231743349Y-57264265D01*
X231812936Y-57240396D01*
X231883617Y-57234511D01*
X231920146Y-57237993D01*
X231951807Y-57244674D01*
X231972615Y-57256730D01*
X231990771Y-57280095D01*
X232000336Y-57296006D01*
X232023767Y-57332435D01*
X232049114Y-57366254D01*
X232059012Y-57377625D01*
X232095294Y-57402575D01*
X232135490Y-57408706D01*
X232174880Y-57397415D01*
X232208748Y-57370102D01*
X232232375Y-57328162D01*
X232233087Y-57326058D01*
X232240177Y-57286489D01*
X232241242Y-57234527D01*
X232237099Y-57175986D01*
X232228565Y-57116681D01*
X232224106Y-57096698D01*
X232401373Y-57096698D01*
X232408123Y-57125110D01*
X232421262Y-57156206D01*
X232442346Y-57176391D01*
X232467243Y-57189138D01*
X232522812Y-57206874D01*
X232597762Y-57220252D01*
X232689879Y-57228999D01*
X232796945Y-57232845D01*
X232825853Y-57233009D01*
X232966524Y-57233009D01*
X232974035Y-57345665D01*
X232977688Y-57397051D01*
X232982727Y-57463276D01*
X232988597Y-57537283D01*
X232994746Y-57612016D01*
X232997556Y-57645168D01*
X233004034Y-57728456D01*
X233010284Y-57823083D01*
X233016134Y-57925030D01*
X233021414Y-58030276D01*
X233025953Y-58134801D01*
X233029580Y-58234585D01*
X233032125Y-58325607D01*
X233033415Y-58403848D01*
X233033282Y-58465287D01*
X233032975Y-58478621D01*
X233029805Y-58586674D01*
X233065699Y-58618755D01*
X233108245Y-58645488D01*
X233151223Y-58652162D01*
X233191078Y-58638811D01*
X233215385Y-58617364D01*
X233231178Y-58596739D01*
X233243406Y-58575004D01*
X233252347Y-58549370D01*
X233258280Y-58517050D01*
X233261484Y-58475255D01*
X233262239Y-58421198D01*
X233260822Y-58352091D01*
X233257514Y-58265146D01*
X233255393Y-58217496D01*
X233250749Y-58123409D01*
X233244846Y-58015096D01*
X233238140Y-57900248D01*
X233231085Y-57786553D01*
X233224135Y-57681701D01*
X233221572Y-57645168D01*
X233215866Y-57563173D01*
X233210733Y-57485309D01*
X233206389Y-57415199D01*
X233203053Y-57356467D01*
X233200941Y-57312735D01*
X233200265Y-57289033D01*
X233200164Y-57229653D01*
X233334803Y-57237001D01*
X233397218Y-57240233D01*
X233472870Y-57243883D01*
X233553028Y-57247544D01*
X233628963Y-57250808D01*
X233642911Y-57251379D01*
X233816380Y-57258409D01*
X233848456Y-57227678D01*
X233871240Y-57199892D01*
X233885964Y-57171120D01*
X233887186Y-57166657D01*
X233886527Y-57129776D01*
X233873373Y-57088797D01*
X233851577Y-57054313D01*
X233843413Y-57046384D01*
X233823394Y-57038796D01*
X233783363Y-57031627D01*
X233725285Y-57024994D01*
X233651128Y-57019010D01*
X233562859Y-57013790D01*
X233462444Y-57009451D01*
X233351850Y-57006105D01*
X233233045Y-57003869D01*
X233107994Y-57002858D01*
X233098041Y-57002834D01*
X232962810Y-57001744D01*
X232847762Y-56999014D01*
X232751154Y-56994577D01*
X232671242Y-56988363D01*
X232639633Y-56984892D01*
X232570307Y-56977358D01*
X232518928Y-56974738D01*
X232481833Y-56977916D01*
X232455359Y-56987777D01*
X232435842Y-57005205D01*
X232419621Y-57031085D01*
X232415644Y-57038993D01*
X232402907Y-57070406D01*
X232401373Y-57096698D01*
X232224106Y-57096698D01*
X232216458Y-57062426D01*
X232201594Y-57019036D01*
X232186423Y-56993961D01*
X232154396Y-56974424D01*
X232114119Y-56969310D01*
X232074135Y-56978860D01*
X232055579Y-56990276D01*
X232041627Y-56999676D01*
X232024745Y-57005336D01*
X232000096Y-57007761D01*
X231962839Y-57007460D01*
X231913096Y-57005201D01*
X231817567Y-57005371D01*
X231734551Y-57017939D01*
X231657365Y-57044591D01*
X231579324Y-57087012D01*
X231573053Y-57091003D01*
X231493872Y-57150537D01*
X231412486Y-57227639D01*
X231331983Y-57318540D01*
X231255453Y-57419473D01*
X231185985Y-57526671D01*
X231127731Y-57634177D01*
X231084384Y-57729668D01*
X231053285Y-57815142D01*
X231032562Y-57897428D01*
X231020343Y-57983357D01*
X231016248Y-58040841D01*
X230613813Y-58040841D01*
X230606794Y-58010395D01*
X230582242Y-57900536D01*
X230556965Y-57784247D01*
X230531527Y-57664055D01*
X230506495Y-57542487D01*
X230482435Y-57422070D01*
X230462934Y-57321265D01*
X230446625Y-57237766D01*
X230432677Y-57173077D01*
X230420003Y-57124301D01*
X230407512Y-57088540D01*
X230394115Y-57062894D01*
X230378724Y-57044466D01*
X230360249Y-57030358D01*
X230351689Y-57025239D01*
X230323035Y-57014784D01*
X230294778Y-57018293D01*
X230264051Y-57037303D01*
X230227988Y-57073347D01*
X230200727Y-57106138D01*
X230162861Y-57156557D01*
X230116490Y-57222736D01*
X230063785Y-57301217D01*
X230006916Y-57388546D01*
X229948056Y-57481266D01*
X229889376Y-57575921D01*
X229833046Y-57669057D01*
X229781238Y-57757216D01*
X229736124Y-57836942D01*
X229704035Y-57896706D01*
X229681178Y-57937240D01*
X229661121Y-57962641D01*
X229638986Y-57978372D01*
X229625901Y-57984205D01*
X229585403Y-58010481D01*
X229560866Y-58048637D01*
X229554693Y-58093848D01*
X229559330Y-58117875D01*
X229563693Y-58135749D01*
X229564008Y-58153354D01*
X229559038Y-58175066D01*
X229547544Y-58205261D01*
X229528289Y-58248314D01*
X229513389Y-58280236D01*
X229472369Y-58369720D01*
X229441836Y-58442252D01*
X229421487Y-58500032D01*
X229411019Y-58545259D01*
X229410128Y-58580133D01*
X228770827Y-58580133D01*
X228770827Y-56353736D01*
X234409165Y-56353736D01*
X234409165Y-59321282D01*
G36*
X211735237Y-32392940D02*
G01*
X211826026Y-32424707D01*
X211907021Y-32474444D01*
X211951232Y-32514105D01*
X211993104Y-32571980D01*
X212015038Y-32637058D01*
X212016975Y-32707164D01*
X211998858Y-32780122D01*
X211960630Y-32853759D01*
X211960238Y-32854352D01*
X211921062Y-32897872D01*
X211865872Y-32938379D01*
X211800635Y-32973067D01*
X211731317Y-32999136D01*
X211663885Y-33013782D01*
X211617145Y-33015521D01*
X211588073Y-33013567D01*
X211548638Y-33010876D01*
X211527231Y-33009402D01*
X211468120Y-33005317D01*
X211474778Y-32956742D01*
X211477010Y-32931836D01*
X211479596Y-32888807D01*
X211482359Y-32831508D01*
X211485121Y-32763792D01*
X211487704Y-32689512D01*
X211488882Y-32650781D01*
X211496329Y-32393395D01*
X211535840Y-32386859D01*
X211637544Y-32380029D01*
X211735237Y-32392940D01*
G37*
X211735237Y-32392940D02*
X211826026Y-32424707D01*
X211907021Y-32474444D01*
X211951232Y-32514105D01*
X211993104Y-32571980D01*
X212015038Y-32637058D01*
X212016975Y-32707164D01*
X211998858Y-32780122D01*
X211960630Y-32853759D01*
X211960238Y-32854352D01*
X211921062Y-32897872D01*
X211865872Y-32938379D01*
X211800635Y-32973067D01*
X211731317Y-32999136D01*
X211663885Y-33013782D01*
X211617145Y-33015521D01*
X211588073Y-33013567D01*
X211548638Y-33010876D01*
X211527231Y-33009402D01*
X211468120Y-33005317D01*
X211474778Y-32956742D01*
X211477010Y-32931836D01*
X211479596Y-32888807D01*
X211482359Y-32831508D01*
X211485121Y-32763792D01*
X211487704Y-32689512D01*
X211488882Y-32650781D01*
X211496329Y-32393395D01*
X211535840Y-32386859D01*
X211637544Y-32380029D01*
X211735237Y-32392940D01*
G36*
X211612269Y-33250288D02*
G01*
X211706719Y-33257318D01*
X211786853Y-33269295D01*
X211860109Y-33288011D01*
X211933926Y-33315254D01*
X211993343Y-33341984D01*
X212050610Y-33372413D01*
X212094198Y-33402153D01*
X212121609Y-33429230D01*
X212130392Y-33450327D01*
X212120777Y-33476980D01*
X212094374Y-33508921D01*
X212054846Y-33543375D01*
X212005855Y-33577568D01*
X211951064Y-33608727D01*
X211894135Y-33634078D01*
X211881892Y-33638530D01*
X211810707Y-33659183D01*
X211724112Y-33677702D01*
X211628659Y-33692880D01*
X211530902Y-33703507D01*
X211528639Y-33703691D01*
X211448955Y-33710135D01*
X211449051Y-33531456D01*
X211449494Y-33466135D01*
X211450655Y-33404108D01*
X211452379Y-33350679D01*
X211454516Y-33311156D01*
X211455744Y-33297822D01*
X211462342Y-33242868D01*
X211612269Y-33250288D01*
G37*
X211612269Y-33250288D02*
X211706719Y-33257318D01*
X211786853Y-33269295D01*
X211860109Y-33288011D01*
X211933926Y-33315254D01*
X211993343Y-33341984D01*
X212050610Y-33372413D01*
X212094198Y-33402153D01*
X212121609Y-33429230D01*
X212130392Y-33450327D01*
X212120777Y-33476980D01*
X212094374Y-33508921D01*
X212054846Y-33543375D01*
X212005855Y-33577568D01*
X211951064Y-33608727D01*
X211894135Y-33634078D01*
X211881892Y-33638530D01*
X211810707Y-33659183D01*
X211724112Y-33677702D01*
X211628659Y-33692880D01*
X211530902Y-33703507D01*
X211528639Y-33703691D01*
X211448955Y-33710135D01*
X211449051Y-33531456D01*
X211449494Y-33466135D01*
X211450655Y-33404108D01*
X211452379Y-33350679D01*
X211454516Y-33311156D01*
X211455744Y-33297822D01*
X211462342Y-33242868D01*
X211612269Y-33250288D01*
G36*
X213009665Y-34545291D02*
G01*
X207371327Y-34545291D01*
X207371327Y-32767832D01*
X207959327Y-32767832D01*
X207959937Y-32864114D01*
X207961349Y-32959667D01*
X207963544Y-33051248D01*
X207966503Y-33135616D01*
X207970206Y-33209529D01*
X207974632Y-33269745D01*
X207979513Y-33311466D01*
X208000370Y-33416363D01*
X208028381Y-33515055D01*
X208061702Y-33601681D01*
X208086213Y-33650290D01*
X208142233Y-33727555D01*
X208215294Y-33795960D01*
X208301283Y-33852623D01*
X208396088Y-33894663D01*
X208460865Y-33912863D01*
X208525728Y-33922833D01*
X208600351Y-33927836D01*
X208676954Y-33927870D01*
X208747754Y-33922934D01*
X208804971Y-33913026D01*
X208805256Y-33912952D01*
X208885519Y-33885118D01*
X208956474Y-33844423D01*
X209024166Y-33787149D01*
X209045907Y-33764945D01*
X209114525Y-33677317D01*
X209157493Y-33599073D01*
X209608713Y-33599073D01*
X209608769Y-33612879D01*
X209619146Y-33680726D01*
X209649086Y-33742409D01*
X209699707Y-33800128D01*
X209707161Y-33806838D01*
X209755537Y-33841440D01*
X209819099Y-33875356D01*
X209891179Y-33905570D01*
X209965106Y-33929066D01*
X209991665Y-33935469D01*
X210054436Y-33944818D01*
X210130867Y-33949672D01*
X210213101Y-33950055D01*
X210293285Y-33945985D01*
X210363564Y-33937486D01*
X210379861Y-33934426D01*
X210498163Y-33901728D01*
X210605895Y-33855406D01*
X210700788Y-33797003D01*
X210780576Y-33728063D01*
X210842993Y-33650129D01*
X210870981Y-33600072D01*
X210882227Y-33575267D01*
X211229137Y-33575267D01*
X211229390Y-33664981D01*
X211230523Y-33735516D01*
X211233098Y-33789675D01*
X211237679Y-33830258D01*
X211244827Y-33860068D01*
X211255104Y-33881906D01*
X211269074Y-33898572D01*
X211287299Y-33912869D01*
X211298364Y-33920120D01*
X211313846Y-33928862D01*
X211330607Y-33934744D01*
X211352786Y-33938121D01*
X211384521Y-33939346D01*
X211429951Y-33938773D01*
X211492919Y-33936768D01*
X211560357Y-33933315D01*
X211629796Y-33927970D01*
X211693542Y-33921431D01*
X211743901Y-33914395D01*
X211748559Y-33913572D01*
X211869928Y-33887103D01*
X211973665Y-33854347D01*
X212063662Y-33813481D01*
X212143808Y-33762685D01*
X212217996Y-33700140D01*
X212230387Y-33688117D01*
X212274491Y-33642293D01*
X212304509Y-33605121D01*
X212323876Y-33571983D01*
X212332053Y-33551403D01*
X212348278Y-33475257D01*
X212344916Y-33404090D01*
X212327490Y-33351252D01*
X212298076Y-33306440D01*
X212253477Y-33258123D01*
X212198899Y-33211006D01*
X212139550Y-33169790D01*
X212105393Y-33150644D01*
X212031851Y-33113375D01*
X212096378Y-33044395D01*
X212161456Y-32962030D01*
X212206337Y-32874565D01*
X212231953Y-32779356D01*
X212239238Y-32673759D01*
X212238147Y-32642457D01*
X212232645Y-32583076D01*
X212222143Y-32535495D01*
X212204342Y-32489700D01*
X212201912Y-32484495D01*
X212157891Y-32413335D01*
X212096317Y-32344977D01*
X212021607Y-32282847D01*
X211938180Y-32230372D01*
X211850455Y-32190982D01*
X211805585Y-32177061D01*
X211744900Y-32166475D01*
X211669949Y-32161388D01*
X211587748Y-32161791D01*
X211505311Y-32167672D01*
X211436833Y-32177618D01*
X211381532Y-32188954D01*
X211343722Y-32199338D01*
X211319089Y-32210594D01*
X211303321Y-32224548D01*
X211294791Y-32237744D01*
X211291081Y-32254681D01*
X211287025Y-32290493D01*
X211282852Y-32342077D01*
X211278789Y-32406333D01*
X211275067Y-32480161D01*
X211272744Y-32536994D01*
X211268848Y-32632891D01*
X211263921Y-32739871D01*
X211258363Y-32850091D01*
X211252573Y-32955704D01*
X211246950Y-33048866D01*
X211245810Y-33066392D01*
X211240520Y-33159727D01*
X211235921Y-33266309D01*
X211232301Y-33377408D01*
X211229945Y-33484293D01*
X211229137Y-33575267D01*
X210882227Y-33575267D01*
X210885811Y-33567362D01*
X210895553Y-33539772D01*
X210901269Y-33511115D01*
X210904019Y-33475208D01*
X210904863Y-33425866D01*
X210904905Y-33402236D01*
X210904292Y-33343757D01*
X210901919Y-33301461D01*
X210896988Y-33269568D01*
X210888700Y-33242300D01*
X210879965Y-33221762D01*
X210830410Y-33139874D01*
X210763370Y-33068629D01*
X210681755Y-33010469D01*
X210588477Y-32967842D01*
X210570736Y-32962027D01*
X210532641Y-32952613D01*
X210479166Y-32942534D01*
X210416844Y-32932883D01*
X210352205Y-32924748D01*
X210339134Y-32923354D01*
X210239262Y-32911373D01*
X210159515Y-32897635D01*
X210098055Y-32881282D01*
X210053046Y-32861459D01*
X210022649Y-32837311D01*
X210005027Y-32807980D01*
X209998341Y-32772611D01*
X209998155Y-32764522D01*
X210008721Y-32702736D01*
X210038930Y-32644961D01*
X210086549Y-32593064D01*
X210149344Y-32548910D01*
X210225081Y-32514365D01*
X210311526Y-32491293D01*
X210328752Y-32488395D01*
X210367303Y-32483333D01*
X210401658Y-32481434D01*
X210438049Y-32483003D01*
X210482705Y-32488346D01*
X210541856Y-32497769D01*
X210550894Y-32499303D01*
X210627002Y-32511664D01*
X210684911Y-32519307D01*
X210727904Y-32522188D01*
X210759261Y-32520266D01*
X210782262Y-32513497D01*
X210800190Y-32501838D01*
X210806486Y-32495985D01*
X210829027Y-32460064D01*
X210832011Y-32420761D01*
X210815361Y-32383882D01*
X210808047Y-32375647D01*
X210772770Y-32350807D01*
X210720209Y-32327250D01*
X210655061Y-32306212D01*
X210582023Y-32288932D01*
X210505793Y-32276646D01*
X210431068Y-32270592D01*
X210407591Y-32270172D01*
X210330006Y-32274290D01*
X210256544Y-32287799D01*
X210180581Y-32312428D01*
X210095496Y-32349909D01*
X210087537Y-32353789D01*
X210005064Y-32401103D01*
X209928899Y-32457863D01*
X209863089Y-32520341D01*
X209811679Y-32584812D01*
X209784831Y-32632617D01*
X209756507Y-32717720D01*
X209749061Y-32798513D01*
X209762001Y-32873457D01*
X209794834Y-32941010D01*
X209847067Y-32999633D01*
X209917635Y-33047483D01*
X209962583Y-33069723D01*
X210004350Y-33086120D01*
X210048724Y-33098127D01*
X210101494Y-33107196D01*
X210168448Y-33114778D01*
X210195991Y-33117322D01*
X210255043Y-33123461D01*
X210314028Y-33131103D01*
X210364845Y-33139128D01*
X210391178Y-33144362D01*
X210474969Y-33170479D01*
X210549484Y-33207172D01*
X210610945Y-33252025D01*
X210655573Y-33302623D01*
X210665770Y-33319804D01*
X210679012Y-33363037D01*
X210682218Y-33416675D01*
X210675668Y-33471715D01*
X210659643Y-33519151D01*
X210659574Y-33519285D01*
X210617881Y-33578199D01*
X210558414Y-33629924D01*
X210484569Y-33673194D01*
X210399741Y-33706746D01*
X210307323Y-33729316D01*
X210210712Y-33739638D01*
X210113301Y-33736449D01*
X210085940Y-33732902D01*
X210005955Y-33715880D01*
X209942317Y-33690387D01*
X209890153Y-33653688D01*
X209844589Y-33603047D01*
X209837639Y-33593543D01*
X209811020Y-33558375D01*
X209786629Y-33529843D01*
X209769067Y-33513259D01*
X209766954Y-33511935D01*
X209725886Y-33501102D01*
X209680744Y-33506049D01*
X209641397Y-33525563D01*
X209638815Y-33527699D01*
X209620297Y-33546701D01*
X209611271Y-33567635D01*
X209608713Y-33599073D01*
X209157493Y-33599073D01*
X209173273Y-33570340D01*
X209222178Y-33443940D01*
X209261264Y-33298042D01*
X209290557Y-33132570D01*
X209305617Y-33001068D01*
X209309972Y-32941154D01*
X209313284Y-32870229D01*
X209315575Y-32791681D01*
X209316866Y-32708899D01*
X209317178Y-32625273D01*
X209316533Y-32544191D01*
X209314952Y-32469043D01*
X209312458Y-32403218D01*
X209309070Y-32350104D01*
X209304812Y-32313092D01*
X209301162Y-32298181D01*
X209275646Y-32261078D01*
X209240163Y-32239942D01*
X209200177Y-32235695D01*
X209161156Y-32249256D01*
X209136767Y-32270513D01*
X209120935Y-32291861D01*
X209108709Y-32315663D01*
X209099641Y-32344971D01*
X209093281Y-32382834D01*
X209089181Y-32432304D01*
X209086892Y-32496430D01*
X209085966Y-32578263D01*
X209085876Y-32616386D01*
X209082133Y-32815121D01*
X209071126Y-32993437D01*
X209052766Y-33151692D01*
X209026966Y-33290245D01*
X208993635Y-33409455D01*
X208952687Y-33509679D01*
X208904033Y-33591278D01*
X208847584Y-33654608D01*
X208825104Y-33673180D01*
X208761992Y-33707774D01*
X208689113Y-33726025D01*
X208610813Y-33728447D01*
X208531436Y-33715552D01*
X208455324Y-33687853D01*
X208386823Y-33645864D01*
X208354712Y-33617616D01*
X208319663Y-33579377D01*
X208289599Y-33538813D01*
X208264166Y-33494019D01*
X208243007Y-33443091D01*
X208225768Y-33384123D01*
X208212093Y-33315212D01*
X208201625Y-33234453D01*
X208194010Y-33139940D01*
X208188892Y-33029770D01*
X208185916Y-32902037D01*
X208184725Y-32754837D01*
X208184663Y-32706708D01*
X208184487Y-32597555D01*
X208183797Y-32508224D01*
X208182341Y-32436556D01*
X208179869Y-32380393D01*
X208176128Y-32337577D01*
X208170867Y-32305949D01*
X208163836Y-32283351D01*
X208154781Y-32267624D01*
X208143452Y-32256610D01*
X208131353Y-32249075D01*
X208087606Y-32235703D01*
X208047702Y-32242948D01*
X208013519Y-32269533D01*
X207986932Y-32314182D01*
X207973654Y-32356336D01*
X207969026Y-32388925D01*
X207965321Y-32440233D01*
X207962518Y-32507019D01*
X207960599Y-32586042D01*
X207959542Y-32674060D01*
X207959327Y-32767832D01*
X207371327Y-32767832D01*
X207371327Y-31577745D01*
X213009665Y-31577745D01*
X213009665Y-34545291D01*
G37*
X213009665Y-34545291D02*
X207371327Y-34545291D01*
X207371327Y-32767832D01*
X207959327Y-32767832D01*
X207959937Y-32864114D01*
X207961349Y-32959667D01*
X207963544Y-33051248D01*
X207966503Y-33135616D01*
X207970206Y-33209529D01*
X207974632Y-33269745D01*
X207979513Y-33311466D01*
X208000370Y-33416363D01*
X208028381Y-33515055D01*
X208061702Y-33601681D01*
X208086213Y-33650290D01*
X208142233Y-33727555D01*
X208215294Y-33795960D01*
X208301283Y-33852623D01*
X208396088Y-33894663D01*
X208460865Y-33912863D01*
X208525728Y-33922833D01*
X208600351Y-33927836D01*
X208676954Y-33927870D01*
X208747754Y-33922934D01*
X208804971Y-33913026D01*
X208805256Y-33912952D01*
X208885519Y-33885118D01*
X208956474Y-33844423D01*
X209024166Y-33787149D01*
X209045907Y-33764945D01*
X209114525Y-33677317D01*
X209157493Y-33599073D01*
X209608713Y-33599073D01*
X209608769Y-33612879D01*
X209619146Y-33680726D01*
X209649086Y-33742409D01*
X209699707Y-33800128D01*
X209707161Y-33806838D01*
X209755537Y-33841440D01*
X209819099Y-33875356D01*
X209891179Y-33905570D01*
X209965106Y-33929066D01*
X209991665Y-33935469D01*
X210054436Y-33944818D01*
X210130867Y-33949672D01*
X210213101Y-33950055D01*
X210293285Y-33945985D01*
X210363564Y-33937486D01*
X210379861Y-33934426D01*
X210498163Y-33901728D01*
X210605895Y-33855406D01*
X210700788Y-33797003D01*
X210780576Y-33728063D01*
X210842993Y-33650129D01*
X210870981Y-33600072D01*
X210882227Y-33575267D01*
X211229137Y-33575267D01*
X211229390Y-33664981D01*
X211230523Y-33735516D01*
X211233098Y-33789675D01*
X211237679Y-33830258D01*
X211244827Y-33860068D01*
X211255104Y-33881906D01*
X211269074Y-33898572D01*
X211287299Y-33912869D01*
X211298364Y-33920120D01*
X211313846Y-33928862D01*
X211330607Y-33934744D01*
X211352786Y-33938121D01*
X211384521Y-33939346D01*
X211429951Y-33938773D01*
X211492919Y-33936768D01*
X211560357Y-33933315D01*
X211629796Y-33927970D01*
X211693542Y-33921431D01*
X211743901Y-33914395D01*
X211748559Y-33913572D01*
X211869928Y-33887103D01*
X211973665Y-33854347D01*
X212063662Y-33813481D01*
X212143808Y-33762685D01*
X212217996Y-33700140D01*
X212230387Y-33688117D01*
X212274491Y-33642293D01*
X212304509Y-33605121D01*
X212323876Y-33571983D01*
X212332053Y-33551403D01*
X212348278Y-33475257D01*
X212344916Y-33404090D01*
X212327490Y-33351252D01*
X212298076Y-33306440D01*
X212253477Y-33258123D01*
X212198899Y-33211006D01*
X212139550Y-33169790D01*
X212105393Y-33150644D01*
X212031851Y-33113375D01*
X212096378Y-33044395D01*
X212161456Y-32962030D01*
X212206337Y-32874565D01*
X212231953Y-32779356D01*
X212239238Y-32673759D01*
X212238147Y-32642457D01*
X212232645Y-32583076D01*
X212222143Y-32535495D01*
X212204342Y-32489700D01*
X212201912Y-32484495D01*
X212157891Y-32413335D01*
X212096317Y-32344977D01*
X212021607Y-32282847D01*
X211938180Y-32230372D01*
X211850455Y-32190982D01*
X211805585Y-32177061D01*
X211744900Y-32166475D01*
X211669949Y-32161388D01*
X211587748Y-32161791D01*
X211505311Y-32167672D01*
X211436833Y-32177618D01*
X211381532Y-32188954D01*
X211343722Y-32199338D01*
X211319089Y-32210594D01*
X211303321Y-32224548D01*
X211294791Y-32237744D01*
X211291081Y-32254681D01*
X211287025Y-32290493D01*
X211282852Y-32342077D01*
X211278789Y-32406333D01*
X211275067Y-32480161D01*
X211272744Y-32536994D01*
X211268848Y-32632891D01*
X211263921Y-32739871D01*
X211258363Y-32850091D01*
X211252573Y-32955704D01*
X211246950Y-33048866D01*
X211245810Y-33066392D01*
X211240520Y-33159727D01*
X211235921Y-33266309D01*
X211232301Y-33377408D01*
X211229945Y-33484293D01*
X211229137Y-33575267D01*
X210882227Y-33575267D01*
X210885811Y-33567362D01*
X210895553Y-33539772D01*
X210901269Y-33511115D01*
X210904019Y-33475208D01*
X210904863Y-33425866D01*
X210904905Y-33402236D01*
X210904292Y-33343757D01*
X210901919Y-33301461D01*
X210896988Y-33269568D01*
X210888700Y-33242300D01*
X210879965Y-33221762D01*
X210830410Y-33139874D01*
X210763370Y-33068629D01*
X210681755Y-33010469D01*
X210588477Y-32967842D01*
X210570736Y-32962027D01*
X210532641Y-32952613D01*
X210479166Y-32942534D01*
X210416844Y-32932883D01*
X210352205Y-32924748D01*
X210339134Y-32923354D01*
X210239262Y-32911373D01*
X210159515Y-32897635D01*
X210098055Y-32881282D01*
X210053046Y-32861459D01*
X210022649Y-32837311D01*
X210005027Y-32807980D01*
X209998341Y-32772611D01*
X209998155Y-32764522D01*
X210008721Y-32702736D01*
X210038930Y-32644961D01*
X210086549Y-32593064D01*
X210149344Y-32548910D01*
X210225081Y-32514365D01*
X210311526Y-32491293D01*
X210328752Y-32488395D01*
X210367303Y-32483333D01*
X210401658Y-32481434D01*
X210438049Y-32483003D01*
X210482705Y-32488346D01*
X210541856Y-32497769D01*
X210550894Y-32499303D01*
X210627002Y-32511664D01*
X210684911Y-32519307D01*
X210727904Y-32522188D01*
X210759261Y-32520266D01*
X210782262Y-32513497D01*
X210800190Y-32501838D01*
X210806486Y-32495985D01*
X210829027Y-32460064D01*
X210832011Y-32420761D01*
X210815361Y-32383882D01*
X210808047Y-32375647D01*
X210772770Y-32350807D01*
X210720209Y-32327250D01*
X210655061Y-32306212D01*
X210582023Y-32288932D01*
X210505793Y-32276646D01*
X210431068Y-32270592D01*
X210407591Y-32270172D01*
X210330006Y-32274290D01*
X210256544Y-32287799D01*
X210180581Y-32312428D01*
X210095496Y-32349909D01*
X210087537Y-32353789D01*
X210005064Y-32401103D01*
X209928899Y-32457863D01*
X209863089Y-32520341D01*
X209811679Y-32584812D01*
X209784831Y-32632617D01*
X209756507Y-32717720D01*
X209749061Y-32798513D01*
X209762001Y-32873457D01*
X209794834Y-32941010D01*
X209847067Y-32999633D01*
X209917635Y-33047483D01*
X209962583Y-33069723D01*
X210004350Y-33086120D01*
X210048724Y-33098127D01*
X210101494Y-33107196D01*
X210168448Y-33114778D01*
X210195991Y-33117322D01*
X210255043Y-33123461D01*
X210314028Y-33131103D01*
X210364845Y-33139128D01*
X210391178Y-33144362D01*
X210474969Y-33170479D01*
X210549484Y-33207172D01*
X210610945Y-33252025D01*
X210655573Y-33302623D01*
X210665770Y-33319804D01*
X210679012Y-33363037D01*
X210682218Y-33416675D01*
X210675668Y-33471715D01*
X210659643Y-33519151D01*
X210659574Y-33519285D01*
X210617881Y-33578199D01*
X210558414Y-33629924D01*
X210484569Y-33673194D01*
X210399741Y-33706746D01*
X210307323Y-33729316D01*
X210210712Y-33739638D01*
X210113301Y-33736449D01*
X210085940Y-33732902D01*
X210005955Y-33715880D01*
X209942317Y-33690387D01*
X209890153Y-33653688D01*
X209844589Y-33603047D01*
X209837639Y-33593543D01*
X209811020Y-33558375D01*
X209786629Y-33529843D01*
X209769067Y-33513259D01*
X209766954Y-33511935D01*
X209725886Y-33501102D01*
X209680744Y-33506049D01*
X209641397Y-33525563D01*
X209638815Y-33527699D01*
X209620297Y-33546701D01*
X209611271Y-33567635D01*
X209608713Y-33599073D01*
X209157493Y-33599073D01*
X209173273Y-33570340D01*
X209222178Y-33443940D01*
X209261264Y-33298042D01*
X209290557Y-33132570D01*
X209305617Y-33001068D01*
X209309972Y-32941154D01*
X209313284Y-32870229D01*
X209315575Y-32791681D01*
X209316866Y-32708899D01*
X209317178Y-32625273D01*
X209316533Y-32544191D01*
X209314952Y-32469043D01*
X209312458Y-32403218D01*
X209309070Y-32350104D01*
X209304812Y-32313092D01*
X209301162Y-32298181D01*
X209275646Y-32261078D01*
X209240163Y-32239942D01*
X209200177Y-32235695D01*
X209161156Y-32249256D01*
X209136767Y-32270513D01*
X209120935Y-32291861D01*
X209108709Y-32315663D01*
X209099641Y-32344971D01*
X209093281Y-32382834D01*
X209089181Y-32432304D01*
X209086892Y-32496430D01*
X209085966Y-32578263D01*
X209085876Y-32616386D01*
X209082133Y-32815121D01*
X209071126Y-32993437D01*
X209052766Y-33151692D01*
X209026966Y-33290245D01*
X208993635Y-33409455D01*
X208952687Y-33509679D01*
X208904033Y-33591278D01*
X208847584Y-33654608D01*
X208825104Y-33673180D01*
X208761992Y-33707774D01*
X208689113Y-33726025D01*
X208610813Y-33728447D01*
X208531436Y-33715552D01*
X208455324Y-33687853D01*
X208386823Y-33645864D01*
X208354712Y-33617616D01*
X208319663Y-33579377D01*
X208289599Y-33538813D01*
X208264166Y-33494019D01*
X208243007Y-33443091D01*
X208225768Y-33384123D01*
X208212093Y-33315212D01*
X208201625Y-33234453D01*
X208194010Y-33139940D01*
X208188892Y-33029770D01*
X208185916Y-32902037D01*
X208184725Y-32754837D01*
X208184663Y-32706708D01*
X208184487Y-32597555D01*
X208183797Y-32508224D01*
X208182341Y-32436556D01*
X208179869Y-32380393D01*
X208176128Y-32337577D01*
X208170867Y-32305949D01*
X208163836Y-32283351D01*
X208154781Y-32267624D01*
X208143452Y-32256610D01*
X208131353Y-32249075D01*
X208087606Y-32235703D01*
X208047702Y-32242948D01*
X208013519Y-32269533D01*
X207986932Y-32314182D01*
X207973654Y-32356336D01*
X207969026Y-32388925D01*
X207965321Y-32440233D01*
X207962518Y-32507019D01*
X207960599Y-32586042D01*
X207959542Y-32674060D01*
X207959327Y-32767832D01*
X207371327Y-32767832D01*
X207371327Y-31577745D01*
X213009665Y-31577745D01*
X213009665Y-34545291D01*
G36*
X188512155Y-60828964D02*
G01*
X188530726Y-60742840D01*
X188560156Y-60661255D01*
X188589288Y-60606724D01*
X188644311Y-60541994D01*
X188709214Y-60499713D01*
X188780430Y-60479154D01*
X188854396Y-60479590D01*
X188927545Y-60500293D01*
X188996311Y-60540538D01*
X189057131Y-60599596D01*
X189106439Y-60676741D01*
X189123339Y-60715624D01*
X189142701Y-60786438D01*
X189154237Y-60870200D01*
X189156499Y-60953836D01*
X189153812Y-60990559D01*
X189147794Y-61042553D01*
X189064978Y-61034558D01*
X189023120Y-61031300D01*
X188961149Y-61027482D01*
X188885730Y-61023468D01*
X188803529Y-61019620D01*
X188752130Y-61017480D01*
X188668540Y-61014016D01*
X188607882Y-61010828D01*
X188566308Y-61007314D01*
X188539974Y-61002868D01*
X188525031Y-60996887D01*
X188517633Y-60988768D01*
X188514523Y-60980179D01*
X188506176Y-60910964D01*
X188512155Y-60828964D01*
G37*
X188512155Y-60828964D02*
X188530726Y-60742840D01*
X188560156Y-60661255D01*
X188589288Y-60606724D01*
X188644311Y-60541994D01*
X188709214Y-60499713D01*
X188780430Y-60479154D01*
X188854396Y-60479590D01*
X188927545Y-60500293D01*
X188996311Y-60540538D01*
X189057131Y-60599596D01*
X189106439Y-60676741D01*
X189123339Y-60715624D01*
X189142701Y-60786438D01*
X189154237Y-60870200D01*
X189156499Y-60953836D01*
X189153812Y-60990559D01*
X189147794Y-61042553D01*
X189064978Y-61034558D01*
X189023120Y-61031300D01*
X188961149Y-61027482D01*
X188885730Y-61023468D01*
X188803529Y-61019620D01*
X188752130Y-61017480D01*
X188668540Y-61014016D01*
X188607882Y-61010828D01*
X188566308Y-61007314D01*
X188539974Y-61002868D01*
X188525031Y-60996887D01*
X188517633Y-60988768D01*
X188514523Y-60980179D01*
X188506176Y-60910964D01*
X188512155Y-60828964D01*
G36*
X190690233Y-59739567D02*
G01*
X190690233Y-66598639D01*
X188462678Y-66598639D01*
X188462678Y-66181051D01*
X188504694Y-66176002D01*
X188544950Y-66147034D01*
X188545710Y-66146277D01*
X188573028Y-66102814D01*
X188593353Y-66033972D01*
X188606710Y-65939603D01*
X188613125Y-65819559D01*
X188613756Y-65760382D01*
X188614858Y-65690798D01*
X188618374Y-65645195D01*
X188624620Y-65620846D01*
X188630501Y-65615060D01*
X188648815Y-65612655D01*
X188689178Y-65608962D01*
X188746900Y-65604358D01*
X188817288Y-65599223D01*
X188881688Y-65594844D01*
X188977037Y-65588535D01*
X189080856Y-65581609D01*
X189182827Y-65574758D01*
X189272630Y-65568675D01*
X189303682Y-65566553D01*
X189383638Y-65561874D01*
X189480647Y-65557439D01*
X189584968Y-65553622D01*
X189686863Y-65550800D01*
X189737331Y-65549824D01*
X189824247Y-65548331D01*
X189888362Y-65546644D01*
X189933669Y-65544246D01*
X189964159Y-65540625D01*
X189983822Y-65535265D01*
X189996650Y-65527651D01*
X190006636Y-65517270D01*
X190008613Y-65514853D01*
X190030459Y-65469522D01*
X190030993Y-65420405D01*
X190010611Y-65376910D01*
X190002452Y-65368165D01*
X189966695Y-65343322D01*
X189925421Y-65325323D01*
X189895234Y-65321427D01*
X189840651Y-65319780D01*
X189763969Y-65320295D01*
X189667482Y-65322884D01*
X189553488Y-65327458D01*
X189521162Y-65329077D01*
X189521162Y-64610161D01*
X189618497Y-64609846D01*
X189702402Y-64607652D01*
X189766895Y-64603460D01*
X189777849Y-64602263D01*
X189874167Y-64584384D01*
X189956025Y-64556649D01*
X190019595Y-64520784D01*
X190061046Y-64478517D01*
X190064432Y-64472956D01*
X190085082Y-64428099D01*
X190101032Y-64372588D01*
X190112714Y-64303117D01*
X190120561Y-64216384D01*
X190125006Y-64109086D01*
X190126432Y-63999694D01*
X190126073Y-63912554D01*
X190124475Y-63828991D01*
X190121845Y-63754874D01*
X190118389Y-63696071D01*
X190114501Y-63659578D01*
X190103979Y-63612651D01*
X190090346Y-63574120D01*
X190080402Y-63557292D01*
X190043915Y-63533866D01*
X189996686Y-63525130D01*
X189947896Y-63530386D01*
X189924403Y-63540971D01*
X189924403Y-63228709D01*
X189983811Y-63228508D01*
X190022635Y-63226275D01*
X190047075Y-63220739D01*
X190063330Y-63210626D01*
X190075115Y-63197761D01*
X190096193Y-63152990D01*
X190099229Y-63100813D01*
X190087537Y-63062216D01*
X190066839Y-63041067D01*
X190026948Y-63021164D01*
X189965853Y-63001845D01*
X189881547Y-62982444D01*
X189799830Y-62967080D01*
X189733631Y-62954456D01*
X189649255Y-62936837D01*
X189554464Y-62915932D01*
X189457022Y-62893445D01*
X189377836Y-62874344D01*
X189291196Y-62853159D01*
X189207251Y-62833017D01*
X189131800Y-62815281D01*
X189070640Y-62801313D01*
X189029567Y-62792475D01*
X189029051Y-62792372D01*
X188989742Y-62783220D01*
X188967835Y-62775370D01*
X188967643Y-62770409D01*
X188968766Y-62770172D01*
X189039357Y-62756372D01*
X189124925Y-62738045D01*
X189221701Y-62716146D01*
X189325916Y-62691625D01*
X189433799Y-62665437D01*
X189541581Y-62638534D01*
X189645492Y-62611869D01*
X189741763Y-62586394D01*
X189826622Y-62563062D01*
X189896301Y-62542825D01*
X189947031Y-62526638D01*
X189973513Y-62516245D01*
X190031143Y-62478204D01*
X190065533Y-62434854D01*
X190075788Y-62388867D01*
X190061014Y-62342914D01*
X190040266Y-62316970D01*
X190024431Y-62302742D01*
X190004675Y-62288779D01*
X189978632Y-62274166D01*
X189943933Y-62257991D01*
X189898213Y-62239339D01*
X189839103Y-62217298D01*
X189764238Y-62190953D01*
X189671249Y-62159392D01*
X189557771Y-62121701D01*
X189421435Y-62076967D01*
X189401028Y-62070299D01*
X189295192Y-62035577D01*
X189198037Y-62003408D01*
X189112350Y-61974739D01*
X189040921Y-61950516D01*
X188986537Y-61931683D01*
X188951988Y-61919188D01*
X188940063Y-61913977D01*
X188940081Y-61913945D01*
X188953999Y-61910369D01*
X188990240Y-61902958D01*
X189044733Y-61892492D01*
X189113410Y-61879751D01*
X189192200Y-61865512D01*
X189204444Y-61863330D01*
X189325001Y-61841386D01*
X189446406Y-61818369D01*
X189564835Y-61795076D01*
X189676461Y-61772306D01*
X189777458Y-61750856D01*
X189864002Y-61731524D01*
X189932265Y-61715107D01*
X189978423Y-61702402D01*
X189982322Y-61701156D01*
X190028010Y-61681793D01*
X190068525Y-61657443D01*
X190079448Y-61648560D01*
X190108343Y-61605433D01*
X190114465Y-61555886D01*
X190097724Y-61507759D01*
X190081295Y-61487218D01*
X190062685Y-61471456D01*
X190041403Y-61461276D01*
X190013934Y-61456997D01*
X189976760Y-61458941D01*
X189926366Y-61467428D01*
X189859237Y-61482778D01*
X189771855Y-61505311D01*
X189714900Y-61520608D01*
X189713821Y-61520892D01*
X189713821Y-61266584D01*
X189804623Y-61266484D01*
X189872623Y-61265781D01*
X189921810Y-61264106D01*
X189956175Y-61261091D01*
X189979707Y-61256366D01*
X189996398Y-61249562D01*
X190010236Y-61240311D01*
X190011896Y-61239017D01*
X190039297Y-61202529D01*
X190047776Y-61157401D01*
X190036583Y-61113738D01*
X190022584Y-61094809D01*
X190008695Y-61084687D01*
X189987295Y-61077101D01*
X189953931Y-61071368D01*
X189904151Y-61066803D01*
X189833501Y-61062722D01*
X189804889Y-61061367D01*
X189722467Y-61058009D01*
X189637130Y-61055231D01*
X189558462Y-61053305D01*
X189496043Y-61052500D01*
X189491235Y-61052492D01*
X189370665Y-61052450D01*
X189375225Y-60935133D01*
X189369477Y-60797033D01*
X189340559Y-60671733D01*
X189287880Y-60557603D01*
X189210849Y-60453015D01*
X189192927Y-60433580D01*
X189110358Y-60361237D01*
X189019460Y-60310886D01*
X188913612Y-60279008D01*
X188895622Y-60275527D01*
X188783971Y-60267869D01*
X188678453Y-60285702D01*
X188580616Y-60328121D01*
X188492005Y-60394219D01*
X188414167Y-60483090D01*
X188348647Y-60593828D01*
X188347141Y-60596951D01*
X188298935Y-60697426D01*
X188299129Y-60898375D01*
X188299855Y-60972062D01*
X188301720Y-61038805D01*
X188304473Y-61092781D01*
X188307863Y-61128166D01*
X188309371Y-61135922D01*
X188317886Y-61158889D01*
X188331396Y-61177260D01*
X188352837Y-61191671D01*
X188385143Y-61202762D01*
X188431247Y-61211171D01*
X188494085Y-61217538D01*
X188576591Y-61222501D01*
X188681699Y-61226698D01*
X188734325Y-61228419D01*
X188839867Y-61232075D01*
X188949684Y-61236487D01*
X189056654Y-61241326D01*
X189153653Y-61246264D01*
X189233558Y-61250971D01*
X189256794Y-61252548D01*
X189336782Y-61257178D01*
X189434344Y-61261175D01*
X189540261Y-61264254D01*
X189645317Y-61266133D01*
X189713821Y-61266584D01*
X189713821Y-61520892D01*
X189584011Y-61555075D01*
X189461739Y-61584980D01*
X189341889Y-61611575D01*
X189218267Y-61636110D01*
X189084679Y-61659837D01*
X188934931Y-61684005D01*
X188817737Y-61701772D01*
X188687995Y-61722118D01*
X188582651Y-61741402D01*
X188499385Y-61760593D01*
X188435879Y-61780658D01*
X188389813Y-61802567D01*
X188358870Y-61827287D01*
X188340730Y-61855787D01*
X188333074Y-61889036D01*
X188332427Y-61904445D01*
X188341356Y-61948959D01*
X188369305Y-61987127D01*
X188418014Y-62019988D01*
X188489226Y-62048580D01*
X188584680Y-62073940D01*
X188633851Y-62084157D01*
X188688435Y-62096256D01*
X188759352Y-62114228D01*
X188842985Y-62136954D01*
X188935717Y-62163316D01*
X189033933Y-62192195D01*
X189134016Y-62222473D01*
X189232349Y-62253030D01*
X189325317Y-62282749D01*
X189409304Y-62310511D01*
X189480692Y-62335197D01*
X189535866Y-62355689D01*
X189571210Y-62370867D01*
X189581882Y-62377398D01*
X189573624Y-62384056D01*
X189542476Y-62395282D01*
X189491794Y-62410262D01*
X189424935Y-62428183D01*
X189345256Y-62448231D01*
X189256112Y-62469591D01*
X189160862Y-62491452D01*
X189062861Y-62512998D01*
X188965466Y-62533417D01*
X188872035Y-62551895D01*
X188828102Y-62560106D01*
X188712713Y-62581626D01*
X188620553Y-62599971D01*
X188548369Y-62616041D01*
X188492907Y-62630736D01*
X188450916Y-62644953D01*
X188419141Y-62659592D01*
X188394331Y-62675552D01*
X188385857Y-62682313D01*
X188352969Y-62724521D01*
X188345406Y-62772243D01*
X188363234Y-62822058D01*
X188382664Y-62847767D01*
X188415289Y-62875092D01*
X188463243Y-62900564D01*
X188528872Y-62924949D01*
X188614523Y-62949016D01*
X188722542Y-62973529D01*
X188834800Y-62995494D01*
X188925914Y-63013683D01*
X189032869Y-63037116D01*
X189145792Y-63063508D01*
X189254811Y-63090572D01*
X189323777Y-63108763D01*
X189448277Y-63142324D01*
X189550776Y-63169093D01*
X189634985Y-63189811D01*
X189704617Y-63205221D01*
X189763383Y-63216062D01*
X189814995Y-63223077D01*
X189863163Y-63227006D01*
X189911601Y-63228591D01*
X189924403Y-63228709D01*
X189924403Y-63540971D01*
X189906723Y-63548937D01*
X189885860Y-63572077D01*
X189881344Y-63595995D01*
X189879449Y-63646073D01*
X189880174Y-63722451D01*
X189883519Y-63825268D01*
X189886904Y-63902234D01*
X189890740Y-63994173D01*
X189893398Y-64080904D01*
X189894801Y-64157551D01*
X189894877Y-64219239D01*
X189893549Y-64261090D01*
X189892560Y-64271541D01*
X189886354Y-64306804D01*
X189876408Y-64333613D01*
X189859338Y-64353121D01*
X189831763Y-64366480D01*
X189790301Y-64374844D01*
X189731570Y-64379365D01*
X189652189Y-64381195D01*
X189569959Y-64381498D01*
X189491895Y-64381147D01*
X189423455Y-64380173D01*
X189368992Y-64378691D01*
X189332860Y-64376819D01*
X189319494Y-64374799D01*
X189316709Y-64360258D01*
X189311993Y-64322383D01*
X189305695Y-64264536D01*
X189298162Y-64190079D01*
X189289741Y-64102374D01*
X189280781Y-64004782D01*
X189277998Y-63973605D01*
X189265958Y-63843185D01*
X189255193Y-63738217D01*
X189245535Y-63657400D01*
X189236816Y-63599430D01*
X189228868Y-63563006D01*
X189223211Y-63548888D01*
X189191919Y-63522531D01*
X189148176Y-63510757D01*
X189100584Y-63512872D01*
X189057749Y-63528186D01*
X189028275Y-63556007D01*
X189023976Y-63564904D01*
X189019212Y-63585376D01*
X189016955Y-63617325D01*
X189017332Y-63663260D01*
X189020471Y-63725693D01*
X189026497Y-63807136D01*
X189035539Y-63910100D01*
X189047723Y-64037095D01*
X189047998Y-64039884D01*
X189056670Y-64128399D01*
X189064279Y-64207405D01*
X189070478Y-64273207D01*
X189074925Y-64322114D01*
X189077273Y-64350431D01*
X189077513Y-64356045D01*
X189064293Y-64356151D01*
X189028308Y-64355668D01*
X188973579Y-64354672D01*
X188904126Y-64353237D01*
X188823969Y-64351437D01*
X188805405Y-64351003D01*
X188534870Y-64344619D01*
X188520696Y-64278528D01*
X188494077Y-64111220D01*
X188484838Y-63943214D01*
X188493055Y-63781817D01*
X188514138Y-63653899D01*
X188527862Y-63586475D01*
X188532570Y-63538602D01*
X188527598Y-63504375D01*
X188512282Y-63477888D01*
X188492158Y-63458321D01*
X188443290Y-63429102D01*
X188398047Y-63426152D01*
X188357046Y-63449116D01*
X188320903Y-63497640D01*
X188290234Y-63571367D01*
X188289006Y-63575230D01*
X188277872Y-63613412D01*
X188269836Y-63649874D01*
X188264415Y-63690037D01*
X188261130Y-63739319D01*
X188259499Y-63803142D01*
X188259041Y-63886925D01*
X188259055Y-63912616D01*
X188259665Y-64006191D01*
X188261560Y-64079015D01*
X188265247Y-64137119D01*
X188271230Y-64186534D01*
X188280016Y-64233289D01*
X188289168Y-64271911D01*
X188304167Y-64337811D01*
X188310216Y-64382516D01*
X188307762Y-64409924D01*
X188305604Y-64415044D01*
X188291644Y-64463444D01*
X188296427Y-64512850D01*
X188318472Y-64553118D01*
X188326880Y-64560865D01*
X188339635Y-64569893D01*
X188354235Y-64576537D01*
X188374474Y-64581035D01*
X188404143Y-64583627D01*
X188447034Y-64584551D01*
X188506938Y-64584047D01*
X188587648Y-64582354D01*
X188645050Y-64580932D01*
X188747210Y-64579234D01*
X188844666Y-64579272D01*
X188931595Y-64580947D01*
X189002175Y-64584158D01*
X189042448Y-64587704D01*
X189117186Y-64595006D01*
X189208410Y-64601020D01*
X189310136Y-64605630D01*
X189416381Y-64608717D01*
X189521162Y-64610161D01*
X189521162Y-65329077D01*
X189424280Y-65333931D01*
X189282156Y-65342215D01*
X189129410Y-65352221D01*
X189022353Y-65359839D01*
X188934978Y-65365985D01*
X188851805Y-65371348D01*
X188778399Y-65375606D01*
X188720324Y-65378438D01*
X188683144Y-65379521D01*
X188682041Y-65379523D01*
X188609662Y-65379546D01*
X188618493Y-65228834D01*
X188625751Y-65105614D01*
X188631540Y-65006358D01*
X188635810Y-64928275D01*
X188638512Y-64868574D01*
X188639596Y-64824462D01*
X188639012Y-64793150D01*
X188636711Y-64771845D01*
X188632642Y-64757757D01*
X188626758Y-64748093D01*
X188619007Y-64740063D01*
X188609651Y-64731186D01*
X188563715Y-64702316D01*
X188511983Y-64696910D01*
X188461984Y-64715187D01*
X188447139Y-64726461D01*
X188433875Y-64739532D01*
X188424146Y-64754731D01*
X188417002Y-64776678D01*
X188411495Y-64809991D01*
X188406678Y-64859292D01*
X188401603Y-64929200D01*
X188399711Y-64957552D01*
X188395676Y-65033292D01*
X188392113Y-65128182D01*
X188389223Y-65234581D01*
X188387207Y-65344849D01*
X188386263Y-65451344D01*
X188386220Y-65472705D01*
X188385451Y-65572153D01*
X188383419Y-65672083D01*
X188380343Y-65766210D01*
X188376442Y-65848248D01*
X188371937Y-65911909D01*
X188370313Y-65928190D01*
X188362772Y-66008900D01*
X188361365Y-66067745D01*
X188366877Y-66109114D01*
X188380095Y-66137398D01*
X188401803Y-66156984D01*
X188412335Y-66163005D01*
X188462678Y-66181051D01*
X188462678Y-66598639D01*
X187729579Y-66598639D01*
X187729579Y-59739567D01*
X190690233Y-59739567D01*
G37*
X190690233Y-59739567D02*
X190690233Y-66598639D01*
X188462678Y-66598639D01*
X188462678Y-66181051D01*
X188504694Y-66176002D01*
X188544950Y-66147034D01*
X188545710Y-66146277D01*
X188573028Y-66102814D01*
X188593353Y-66033972D01*
X188606710Y-65939603D01*
X188613125Y-65819559D01*
X188613756Y-65760382D01*
X188614858Y-65690798D01*
X188618374Y-65645195D01*
X188624620Y-65620846D01*
X188630501Y-65615060D01*
X188648815Y-65612655D01*
X188689178Y-65608962D01*
X188746900Y-65604358D01*
X188817288Y-65599223D01*
X188881688Y-65594844D01*
X188977037Y-65588535D01*
X189080856Y-65581609D01*
X189182827Y-65574758D01*
X189272630Y-65568675D01*
X189303682Y-65566553D01*
X189383638Y-65561874D01*
X189480647Y-65557439D01*
X189584968Y-65553622D01*
X189686863Y-65550800D01*
X189737331Y-65549824D01*
X189824247Y-65548331D01*
X189888362Y-65546644D01*
X189933669Y-65544246D01*
X189964159Y-65540625D01*
X189983822Y-65535265D01*
X189996650Y-65527651D01*
X190006636Y-65517270D01*
X190008613Y-65514853D01*
X190030459Y-65469522D01*
X190030993Y-65420405D01*
X190010611Y-65376910D01*
X190002452Y-65368165D01*
X189966695Y-65343322D01*
X189925421Y-65325323D01*
X189895234Y-65321427D01*
X189840651Y-65319780D01*
X189763969Y-65320295D01*
X189667482Y-65322884D01*
X189553488Y-65327458D01*
X189521162Y-65329077D01*
X189521162Y-64610161D01*
X189618497Y-64609846D01*
X189702402Y-64607652D01*
X189766895Y-64603460D01*
X189777849Y-64602263D01*
X189874167Y-64584384D01*
X189956025Y-64556649D01*
X190019595Y-64520784D01*
X190061046Y-64478517D01*
X190064432Y-64472956D01*
X190085082Y-64428099D01*
X190101032Y-64372588D01*
X190112714Y-64303117D01*
X190120561Y-64216384D01*
X190125006Y-64109086D01*
X190126432Y-63999694D01*
X190126073Y-63912554D01*
X190124475Y-63828991D01*
X190121845Y-63754874D01*
X190118389Y-63696071D01*
X190114501Y-63659578D01*
X190103979Y-63612651D01*
X190090346Y-63574120D01*
X190080402Y-63557292D01*
X190043915Y-63533866D01*
X189996686Y-63525130D01*
X189947896Y-63530386D01*
X189924403Y-63540971D01*
X189924403Y-63228709D01*
X189983811Y-63228508D01*
X190022635Y-63226275D01*
X190047075Y-63220739D01*
X190063330Y-63210626D01*
X190075115Y-63197761D01*
X190096193Y-63152990D01*
X190099229Y-63100813D01*
X190087537Y-63062216D01*
X190066839Y-63041067D01*
X190026948Y-63021164D01*
X189965853Y-63001845D01*
X189881547Y-62982444D01*
X189799830Y-62967080D01*
X189733631Y-62954456D01*
X189649255Y-62936837D01*
X189554464Y-62915932D01*
X189457022Y-62893445D01*
X189377836Y-62874344D01*
X189291196Y-62853159D01*
X189207251Y-62833017D01*
X189131800Y-62815281D01*
X189070640Y-62801313D01*
X189029567Y-62792475D01*
X189029051Y-62792372D01*
X188989742Y-62783220D01*
X188967835Y-62775370D01*
X188967643Y-62770409D01*
X188968766Y-62770172D01*
X189039357Y-62756372D01*
X189124925Y-62738045D01*
X189221701Y-62716146D01*
X189325916Y-62691625D01*
X189433799Y-62665437D01*
X189541581Y-62638534D01*
X189645492Y-62611869D01*
X189741763Y-62586394D01*
X189826622Y-62563062D01*
X189896301Y-62542825D01*
X189947031Y-62526638D01*
X189973513Y-62516245D01*
X190031143Y-62478204D01*
X190065533Y-62434854D01*
X190075788Y-62388867D01*
X190061014Y-62342914D01*
X190040266Y-62316970D01*
X190024431Y-62302742D01*
X190004675Y-62288779D01*
X189978632Y-62274166D01*
X189943933Y-62257991D01*
X189898213Y-62239339D01*
X189839103Y-62217298D01*
X189764238Y-62190953D01*
X189671249Y-62159392D01*
X189557771Y-62121701D01*
X189421435Y-62076967D01*
X189401028Y-62070299D01*
X189295192Y-62035577D01*
X189198037Y-62003408D01*
X189112350Y-61974739D01*
X189040921Y-61950516D01*
X188986537Y-61931683D01*
X188951988Y-61919188D01*
X188940063Y-61913977D01*
X188940081Y-61913945D01*
X188953999Y-61910369D01*
X188990240Y-61902958D01*
X189044733Y-61892492D01*
X189113410Y-61879751D01*
X189192200Y-61865512D01*
X189204444Y-61863330D01*
X189325001Y-61841386D01*
X189446406Y-61818369D01*
X189564835Y-61795076D01*
X189676461Y-61772306D01*
X189777458Y-61750856D01*
X189864002Y-61731524D01*
X189932265Y-61715107D01*
X189978423Y-61702402D01*
X189982322Y-61701156D01*
X190028010Y-61681793D01*
X190068525Y-61657443D01*
X190079448Y-61648560D01*
X190108343Y-61605433D01*
X190114465Y-61555886D01*
X190097724Y-61507759D01*
X190081295Y-61487218D01*
X190062685Y-61471456D01*
X190041403Y-61461276D01*
X190013934Y-61456997D01*
X189976760Y-61458941D01*
X189926366Y-61467428D01*
X189859237Y-61482778D01*
X189771855Y-61505311D01*
X189714900Y-61520608D01*
X189713821Y-61520892D01*
X189713821Y-61266584D01*
X189804623Y-61266484D01*
X189872623Y-61265781D01*
X189921810Y-61264106D01*
X189956175Y-61261091D01*
X189979707Y-61256366D01*
X189996398Y-61249562D01*
X190010236Y-61240311D01*
X190011896Y-61239017D01*
X190039297Y-61202529D01*
X190047776Y-61157401D01*
X190036583Y-61113738D01*
X190022584Y-61094809D01*
X190008695Y-61084687D01*
X189987295Y-61077101D01*
X189953931Y-61071368D01*
X189904151Y-61066803D01*
X189833501Y-61062722D01*
X189804889Y-61061367D01*
X189722467Y-61058009D01*
X189637130Y-61055231D01*
X189558462Y-61053305D01*
X189496043Y-61052500D01*
X189491235Y-61052492D01*
X189370665Y-61052450D01*
X189375225Y-60935133D01*
X189369477Y-60797033D01*
X189340559Y-60671733D01*
X189287880Y-60557603D01*
X189210849Y-60453015D01*
X189192927Y-60433580D01*
X189110358Y-60361237D01*
X189019460Y-60310886D01*
X188913612Y-60279008D01*
X188895622Y-60275527D01*
X188783971Y-60267869D01*
X188678453Y-60285702D01*
X188580616Y-60328121D01*
X188492005Y-60394219D01*
X188414167Y-60483090D01*
X188348647Y-60593828D01*
X188347141Y-60596951D01*
X188298935Y-60697426D01*
X188299129Y-60898375D01*
X188299855Y-60972062D01*
X188301720Y-61038805D01*
X188304473Y-61092781D01*
X188307863Y-61128166D01*
X188309371Y-61135922D01*
X188317886Y-61158889D01*
X188331396Y-61177260D01*
X188352837Y-61191671D01*
X188385143Y-61202762D01*
X188431247Y-61211171D01*
X188494085Y-61217538D01*
X188576591Y-61222501D01*
X188681699Y-61226698D01*
X188734325Y-61228419D01*
X188839867Y-61232075D01*
X188949684Y-61236487D01*
X189056654Y-61241326D01*
X189153653Y-61246264D01*
X189233558Y-61250971D01*
X189256794Y-61252548D01*
X189336782Y-61257178D01*
X189434344Y-61261175D01*
X189540261Y-61264254D01*
X189645317Y-61266133D01*
X189713821Y-61266584D01*
X189713821Y-61520892D01*
X189584011Y-61555075D01*
X189461739Y-61584980D01*
X189341889Y-61611575D01*
X189218267Y-61636110D01*
X189084679Y-61659837D01*
X188934931Y-61684005D01*
X188817737Y-61701772D01*
X188687995Y-61722118D01*
X188582651Y-61741402D01*
X188499385Y-61760593D01*
X188435879Y-61780658D01*
X188389813Y-61802567D01*
X188358870Y-61827287D01*
X188340730Y-61855787D01*
X188333074Y-61889036D01*
X188332427Y-61904445D01*
X188341356Y-61948959D01*
X188369305Y-61987127D01*
X188418014Y-62019988D01*
X188489226Y-62048580D01*
X188584680Y-62073940D01*
X188633851Y-62084157D01*
X188688435Y-62096256D01*
X188759352Y-62114228D01*
X188842985Y-62136954D01*
X188935717Y-62163316D01*
X189033933Y-62192195D01*
X189134016Y-62222473D01*
X189232349Y-62253030D01*
X189325317Y-62282749D01*
X189409304Y-62310511D01*
X189480692Y-62335197D01*
X189535866Y-62355689D01*
X189571210Y-62370867D01*
X189581882Y-62377398D01*
X189573624Y-62384056D01*
X189542476Y-62395282D01*
X189491794Y-62410262D01*
X189424935Y-62428183D01*
X189345256Y-62448231D01*
X189256112Y-62469591D01*
X189160862Y-62491452D01*
X189062861Y-62512998D01*
X188965466Y-62533417D01*
X188872035Y-62551895D01*
X188828102Y-62560106D01*
X188712713Y-62581626D01*
X188620553Y-62599971D01*
X188548369Y-62616041D01*
X188492907Y-62630736D01*
X188450916Y-62644953D01*
X188419141Y-62659592D01*
X188394331Y-62675552D01*
X188385857Y-62682313D01*
X188352969Y-62724521D01*
X188345406Y-62772243D01*
X188363234Y-62822058D01*
X188382664Y-62847767D01*
X188415289Y-62875092D01*
X188463243Y-62900564D01*
X188528872Y-62924949D01*
X188614523Y-62949016D01*
X188722542Y-62973529D01*
X188834800Y-62995494D01*
X188925914Y-63013683D01*
X189032869Y-63037116D01*
X189145792Y-63063508D01*
X189254811Y-63090572D01*
X189323777Y-63108763D01*
X189448277Y-63142324D01*
X189550776Y-63169093D01*
X189634985Y-63189811D01*
X189704617Y-63205221D01*
X189763383Y-63216062D01*
X189814995Y-63223077D01*
X189863163Y-63227006D01*
X189911601Y-63228591D01*
X189924403Y-63228709D01*
X189924403Y-63540971D01*
X189906723Y-63548937D01*
X189885860Y-63572077D01*
X189881344Y-63595995D01*
X189879449Y-63646073D01*
X189880174Y-63722451D01*
X189883519Y-63825268D01*
X189886904Y-63902234D01*
X189890740Y-63994173D01*
X189893398Y-64080904D01*
X189894801Y-64157551D01*
X189894877Y-64219239D01*
X189893549Y-64261090D01*
X189892560Y-64271541D01*
X189886354Y-64306804D01*
X189876408Y-64333613D01*
X189859338Y-64353121D01*
X189831763Y-64366480D01*
X189790301Y-64374844D01*
X189731570Y-64379365D01*
X189652189Y-64381195D01*
X189569959Y-64381498D01*
X189491895Y-64381147D01*
X189423455Y-64380173D01*
X189368992Y-64378691D01*
X189332860Y-64376819D01*
X189319494Y-64374799D01*
X189316709Y-64360258D01*
X189311993Y-64322383D01*
X189305695Y-64264536D01*
X189298162Y-64190079D01*
X189289741Y-64102374D01*
X189280781Y-64004782D01*
X189277998Y-63973605D01*
X189265958Y-63843185D01*
X189255193Y-63738217D01*
X189245535Y-63657400D01*
X189236816Y-63599430D01*
X189228868Y-63563006D01*
X189223211Y-63548888D01*
X189191919Y-63522531D01*
X189148176Y-63510757D01*
X189100584Y-63512872D01*
X189057749Y-63528186D01*
X189028275Y-63556007D01*
X189023976Y-63564904D01*
X189019212Y-63585376D01*
X189016955Y-63617325D01*
X189017332Y-63663260D01*
X189020471Y-63725693D01*
X189026497Y-63807136D01*
X189035539Y-63910100D01*
X189047723Y-64037095D01*
X189047998Y-64039884D01*
X189056670Y-64128399D01*
X189064279Y-64207405D01*
X189070478Y-64273207D01*
X189074925Y-64322114D01*
X189077273Y-64350431D01*
X189077513Y-64356045D01*
X189064293Y-64356151D01*
X189028308Y-64355668D01*
X188973579Y-64354672D01*
X188904126Y-64353237D01*
X188823969Y-64351437D01*
X188805405Y-64351003D01*
X188534870Y-64344619D01*
X188520696Y-64278528D01*
X188494077Y-64111220D01*
X188484838Y-63943214D01*
X188493055Y-63781817D01*
X188514138Y-63653899D01*
X188527862Y-63586475D01*
X188532570Y-63538602D01*
X188527598Y-63504375D01*
X188512282Y-63477888D01*
X188492158Y-63458321D01*
X188443290Y-63429102D01*
X188398047Y-63426152D01*
X188357046Y-63449116D01*
X188320903Y-63497640D01*
X188290234Y-63571367D01*
X188289006Y-63575230D01*
X188277872Y-63613412D01*
X188269836Y-63649874D01*
X188264415Y-63690037D01*
X188261130Y-63739319D01*
X188259499Y-63803142D01*
X188259041Y-63886925D01*
X188259055Y-63912616D01*
X188259665Y-64006191D01*
X188261560Y-64079015D01*
X188265247Y-64137119D01*
X188271230Y-64186534D01*
X188280016Y-64233289D01*
X188289168Y-64271911D01*
X188304167Y-64337811D01*
X188310216Y-64382516D01*
X188307762Y-64409924D01*
X188305604Y-64415044D01*
X188291644Y-64463444D01*
X188296427Y-64512850D01*
X188318472Y-64553118D01*
X188326880Y-64560865D01*
X188339635Y-64569893D01*
X188354235Y-64576537D01*
X188374474Y-64581035D01*
X188404143Y-64583627D01*
X188447034Y-64584551D01*
X188506938Y-64584047D01*
X188587648Y-64582354D01*
X188645050Y-64580932D01*
X188747210Y-64579234D01*
X188844666Y-64579272D01*
X188931595Y-64580947D01*
X189002175Y-64584158D01*
X189042448Y-64587704D01*
X189117186Y-64595006D01*
X189208410Y-64601020D01*
X189310136Y-64605630D01*
X189416381Y-64608717D01*
X189521162Y-64610161D01*
X189521162Y-65329077D01*
X189424280Y-65333931D01*
X189282156Y-65342215D01*
X189129410Y-65352221D01*
X189022353Y-65359839D01*
X188934978Y-65365985D01*
X188851805Y-65371348D01*
X188778399Y-65375606D01*
X188720324Y-65378438D01*
X188683144Y-65379521D01*
X188682041Y-65379523D01*
X188609662Y-65379546D01*
X188618493Y-65228834D01*
X188625751Y-65105614D01*
X188631540Y-65006358D01*
X188635810Y-64928275D01*
X188638512Y-64868574D01*
X188639596Y-64824462D01*
X188639012Y-64793150D01*
X188636711Y-64771845D01*
X188632642Y-64757757D01*
X188626758Y-64748093D01*
X188619007Y-64740063D01*
X188609651Y-64731186D01*
X188563715Y-64702316D01*
X188511983Y-64696910D01*
X188461984Y-64715187D01*
X188447139Y-64726461D01*
X188433875Y-64739532D01*
X188424146Y-64754731D01*
X188417002Y-64776678D01*
X188411495Y-64809991D01*
X188406678Y-64859292D01*
X188401603Y-64929200D01*
X188399711Y-64957552D01*
X188395676Y-65033292D01*
X188392113Y-65128182D01*
X188389223Y-65234581D01*
X188387207Y-65344849D01*
X188386263Y-65451344D01*
X188386220Y-65472705D01*
X188385451Y-65572153D01*
X188383419Y-65672083D01*
X188380343Y-65766210D01*
X188376442Y-65848248D01*
X188371937Y-65911909D01*
X188370313Y-65928190D01*
X188362772Y-66008900D01*
X188361365Y-66067745D01*
X188366877Y-66109114D01*
X188380095Y-66137398D01*
X188401803Y-66156984D01*
X188412335Y-66163005D01*
X188462678Y-66181051D01*
X188462678Y-66598639D01*
X187729579Y-66598639D01*
X187729579Y-59739567D01*
X190690233Y-59739567D01*
G36*
X186690436Y-68894449D02*
G01*
X186781225Y-68926216D01*
X186862220Y-68975953D01*
X186906431Y-69015614D01*
X186948303Y-69073490D01*
X186970237Y-69138568D01*
X186972174Y-69208673D01*
X186954057Y-69281632D01*
X186915829Y-69355268D01*
X186915436Y-69355861D01*
X186876261Y-69399382D01*
X186821071Y-69439888D01*
X186755834Y-69474577D01*
X186686516Y-69500645D01*
X186619084Y-69515291D01*
X186572344Y-69517030D01*
X186543272Y-69515077D01*
X186503837Y-69512386D01*
X186482430Y-69510911D01*
X186423319Y-69506826D01*
X186429977Y-69458252D01*
X186432209Y-69433345D01*
X186434795Y-69390316D01*
X186437558Y-69333017D01*
X186440320Y-69265301D01*
X186442903Y-69191021D01*
X186444081Y-69152291D01*
X186451528Y-68894904D01*
X186491039Y-68888368D01*
X186592743Y-68881538D01*
X186690436Y-68894449D01*
G37*
X186690436Y-68894449D02*
X186781225Y-68926216D01*
X186862220Y-68975953D01*
X186906431Y-69015614D01*
X186948303Y-69073490D01*
X186970237Y-69138568D01*
X186972174Y-69208673D01*
X186954057Y-69281632D01*
X186915829Y-69355268D01*
X186915436Y-69355861D01*
X186876261Y-69399382D01*
X186821071Y-69439888D01*
X186755834Y-69474577D01*
X186686516Y-69500645D01*
X186619084Y-69515291D01*
X186572344Y-69517030D01*
X186543272Y-69515077D01*
X186503837Y-69512386D01*
X186482430Y-69510911D01*
X186423319Y-69506826D01*
X186429977Y-69458252D01*
X186432209Y-69433345D01*
X186434795Y-69390316D01*
X186437558Y-69333017D01*
X186440320Y-69265301D01*
X186442903Y-69191021D01*
X186444081Y-69152291D01*
X186451528Y-68894904D01*
X186491039Y-68888368D01*
X186592743Y-68881538D01*
X186690436Y-68894449D01*
G36*
X186567468Y-69751798D02*
G01*
X186661918Y-69758827D01*
X186742052Y-69770804D01*
X186815308Y-69789520D01*
X186889125Y-69816763D01*
X186948542Y-69843493D01*
X187005809Y-69873922D01*
X187049397Y-69903663D01*
X187076808Y-69930740D01*
X187085591Y-69951836D01*
X187075976Y-69978490D01*
X187049573Y-70010430D01*
X187010045Y-70044884D01*
X186961054Y-70079077D01*
X186906263Y-70110237D01*
X186849334Y-70135588D01*
X186837091Y-70140039D01*
X186765906Y-70160692D01*
X186679311Y-70179211D01*
X186583858Y-70194389D01*
X186486101Y-70205016D01*
X186483838Y-70205201D01*
X186404154Y-70211644D01*
X186404250Y-70032965D01*
X186404693Y-69967645D01*
X186405853Y-69905617D01*
X186407578Y-69852188D01*
X186409715Y-69812665D01*
X186410943Y-69799332D01*
X186417541Y-69744377D01*
X186567468Y-69751798D01*
G37*
X186567468Y-69751798D02*
X186661918Y-69758827D01*
X186742052Y-69770804D01*
X186815308Y-69789520D01*
X186889125Y-69816763D01*
X186948542Y-69843493D01*
X187005809Y-69873922D01*
X187049397Y-69903663D01*
X187076808Y-69930740D01*
X187085591Y-69951836D01*
X187075976Y-69978490D01*
X187049573Y-70010430D01*
X187010045Y-70044884D01*
X186961054Y-70079077D01*
X186906263Y-70110237D01*
X186849334Y-70135588D01*
X186837091Y-70140039D01*
X186765906Y-70160692D01*
X186679311Y-70179211D01*
X186583858Y-70194389D01*
X186486101Y-70205016D01*
X186483838Y-70205201D01*
X186404154Y-70211644D01*
X186404250Y-70032965D01*
X186404693Y-69967645D01*
X186405853Y-69905617D01*
X186407578Y-69852188D01*
X186409715Y-69812665D01*
X186410943Y-69799332D01*
X186417541Y-69744377D01*
X186567468Y-69751798D01*
G36*
X191229165Y-71068782D02*
G01*
X185590827Y-71068782D01*
X185590827Y-70076776D01*
X186184336Y-70076776D01*
X186184588Y-70166490D01*
X186185721Y-70237025D01*
X186188297Y-70291184D01*
X186192878Y-70331768D01*
X186200026Y-70361577D01*
X186210303Y-70383415D01*
X186224273Y-70400081D01*
X186242497Y-70414378D01*
X186253563Y-70421629D01*
X186269044Y-70430371D01*
X186285806Y-70436254D01*
X186307985Y-70439630D01*
X186339720Y-70440855D01*
X186385150Y-70440283D01*
X186448118Y-70438277D01*
X186515556Y-70434824D01*
X186584995Y-70429479D01*
X186648741Y-70422940D01*
X186699100Y-70415904D01*
X186703758Y-70415081D01*
X186825127Y-70388613D01*
X186928864Y-70355856D01*
X187018861Y-70314990D01*
X187099007Y-70264195D01*
X187173195Y-70201649D01*
X187185586Y-70189626D01*
X187229690Y-70143802D01*
X187259707Y-70106630D01*
X187279075Y-70073492D01*
X187287252Y-70052912D01*
X187303476Y-69976766D01*
X187300115Y-69905599D01*
X187282689Y-69852761D01*
X187253275Y-69807949D01*
X187208675Y-69759633D01*
X187154098Y-69712515D01*
X187094749Y-69671299D01*
X187060592Y-69652153D01*
X186987050Y-69614884D01*
X187051577Y-69545905D01*
X187116654Y-69463540D01*
X187161536Y-69376074D01*
X187187152Y-69280865D01*
X187194437Y-69175268D01*
X187193346Y-69143966D01*
X187187844Y-69084585D01*
X187177341Y-69037004D01*
X187159541Y-68991209D01*
X187157111Y-68986004D01*
X187113090Y-68914845D01*
X187051516Y-68846486D01*
X187048765Y-68844198D01*
X187528773Y-68844198D01*
X187535522Y-68872610D01*
X187548662Y-68903706D01*
X187569745Y-68923891D01*
X187594642Y-68936638D01*
X187650211Y-68954374D01*
X187725162Y-68967752D01*
X187817278Y-68976499D01*
X187924345Y-68980345D01*
X187953252Y-68980509D01*
X188093923Y-68980509D01*
X188101435Y-69093165D01*
X188105087Y-69144551D01*
X188110126Y-69210776D01*
X188115997Y-69284783D01*
X188122146Y-69359516D01*
X188124955Y-69392668D01*
X188131434Y-69475956D01*
X188137683Y-69570583D01*
X188143534Y-69672530D01*
X188148814Y-69777776D01*
X188153353Y-69882301D01*
X188156980Y-69982085D01*
X188159524Y-70073107D01*
X188160815Y-70151348D01*
X188160681Y-70212787D01*
X188160374Y-70226121D01*
X188157205Y-70334174D01*
X188193099Y-70366255D01*
X188235644Y-70392988D01*
X188278622Y-70399662D01*
X188318477Y-70386311D01*
X188342784Y-70364864D01*
X188358577Y-70344239D01*
X188370805Y-70322504D01*
X188379746Y-70296870D01*
X188385679Y-70264550D01*
X188388884Y-70222755D01*
X188389638Y-70168698D01*
X188388222Y-70099591D01*
X188384913Y-70012646D01*
X188382792Y-69964996D01*
X188378148Y-69870909D01*
X188372246Y-69762596D01*
X188365540Y-69647748D01*
X188358484Y-69534053D01*
X188351534Y-69429201D01*
X188348972Y-69392668D01*
X188343265Y-69310673D01*
X188338132Y-69232809D01*
X188333789Y-69162699D01*
X188330453Y-69103967D01*
X188328340Y-69060235D01*
X188327664Y-69036533D01*
X188327564Y-68977153D01*
X188462203Y-68984501D01*
X188524618Y-68987733D01*
X188600270Y-68991383D01*
X188680428Y-68995044D01*
X188756362Y-68998308D01*
X188770310Y-68998879D01*
X188943779Y-69005909D01*
X188975856Y-68975178D01*
X188998640Y-68947392D01*
X189013364Y-68918620D01*
X189014585Y-68914157D01*
X189013927Y-68877276D01*
X189000772Y-68836297D01*
X188999722Y-68834635D01*
X189067761Y-68834635D01*
X189068949Y-68890228D01*
X189073421Y-68963223D01*
X189075885Y-68996658D01*
X189080407Y-69071890D01*
X189084152Y-69165539D01*
X189087099Y-69274053D01*
X189089226Y-69393880D01*
X189090513Y-69521468D01*
X189090939Y-69653265D01*
X189090481Y-69785718D01*
X189089119Y-69915276D01*
X189086831Y-70038387D01*
X189083597Y-70151499D01*
X189082892Y-70171077D01*
X189074352Y-70399941D01*
X189112018Y-70437607D01*
X189152563Y-70466599D01*
X189194922Y-70476948D01*
X189234794Y-70468320D01*
X189260555Y-70449111D01*
X189272358Y-70435717D01*
X189282384Y-70421443D01*
X189290778Y-70404476D01*
X189297684Y-70383000D01*
X189303247Y-70355200D01*
X189307612Y-70319264D01*
X189310923Y-70273374D01*
X189313324Y-70215718D01*
X189314960Y-70144481D01*
X189315975Y-70057846D01*
X189316514Y-69954002D01*
X189316721Y-69831131D01*
X189316746Y-69743279D01*
X189316916Y-69632982D01*
X189317404Y-69529426D01*
X189318178Y-69434672D01*
X189319205Y-69350782D01*
X189320452Y-69279819D01*
X189321888Y-69223843D01*
X189323480Y-69184917D01*
X189325194Y-69165103D01*
X189325893Y-69162998D01*
X189334999Y-69169592D01*
X189354905Y-69191316D01*
X189383435Y-69225554D01*
X189418416Y-69269693D01*
X189457672Y-69321118D01*
X189460181Y-69324466D01*
X189548492Y-69440588D01*
X189639925Y-69557449D01*
X189733010Y-69673372D01*
X189826278Y-69786683D01*
X189918259Y-69895708D01*
X190007484Y-69998773D01*
X190092481Y-70094203D01*
X190171783Y-70180324D01*
X190243918Y-70255461D01*
X190307418Y-70317939D01*
X190360811Y-70366085D01*
X190402630Y-70398224D01*
X190402771Y-70398317D01*
X190457131Y-70425378D01*
X190506436Y-70431102D01*
X190550903Y-70415493D01*
X190569866Y-70401084D01*
X190581836Y-70389056D01*
X190592071Y-70375090D01*
X190600708Y-70357467D01*
X190607885Y-70334464D01*
X190613739Y-70304361D01*
X190618408Y-70265437D01*
X190622030Y-70215970D01*
X190624742Y-70154241D01*
X190626682Y-70078528D01*
X190627987Y-69987109D01*
X190628795Y-69878265D01*
X190629244Y-69750273D01*
X190629407Y-69656450D01*
X190629506Y-69526334D01*
X190629392Y-69416079D01*
X190629007Y-69323565D01*
X190628292Y-69246671D01*
X190627188Y-69183277D01*
X190625637Y-69131264D01*
X190623580Y-69088510D01*
X190620958Y-69052895D01*
X190617712Y-69022300D01*
X190613784Y-68994604D01*
X190610552Y-68975554D01*
X190592866Y-68895869D01*
X190570612Y-68825608D01*
X190545258Y-68768411D01*
X190518271Y-68727917D01*
X190506011Y-68716135D01*
X190464962Y-68696714D01*
X190419704Y-68695826D01*
X190377028Y-68712971D01*
X190360037Y-68726872D01*
X190340396Y-68750015D01*
X190330821Y-68774173D01*
X190327968Y-68808805D01*
X190327910Y-68817768D01*
X190331075Y-68859857D01*
X190339317Y-68910865D01*
X190349300Y-68953725D01*
X190361364Y-69004023D01*
X190373014Y-69063869D01*
X190381865Y-69120917D01*
X190382353Y-69124773D01*
X190387940Y-69179947D01*
X190393439Y-69253091D01*
X190398681Y-69340192D01*
X190403497Y-69437238D01*
X190407715Y-69540216D01*
X190411167Y-69645115D01*
X190413682Y-69747922D01*
X190415091Y-69844624D01*
X190415331Y-69903745D01*
X190415115Y-70107077D01*
X190253360Y-69942111D01*
X190132459Y-69815855D01*
X190017836Y-69689717D01*
X189907032Y-69560618D01*
X189797584Y-69425480D01*
X189687032Y-69281222D01*
X189572915Y-69124767D01*
X189452770Y-68953036D01*
X189395001Y-68868356D01*
X189344260Y-68796698D01*
X189300911Y-68743605D01*
X189262896Y-68707796D01*
X189228157Y-68687990D01*
X189194637Y-68682905D01*
X189160278Y-68691259D01*
X189133182Y-68705291D01*
X189108478Y-68722048D01*
X189090216Y-68740149D01*
X189077763Y-68762806D01*
X189070489Y-68793231D01*
X189067761Y-68834635D01*
X188999722Y-68834635D01*
X188978977Y-68801813D01*
X188970812Y-68793884D01*
X188950794Y-68786296D01*
X188910762Y-68779127D01*
X188852684Y-68772494D01*
X188778527Y-68766510D01*
X188690258Y-68761290D01*
X188589843Y-68756951D01*
X188479250Y-68753605D01*
X188360444Y-68751369D01*
X188235394Y-68750358D01*
X188225441Y-68750334D01*
X188090210Y-68749244D01*
X187975161Y-68746514D01*
X187878553Y-68742077D01*
X187798642Y-68735863D01*
X187767033Y-68732392D01*
X187697707Y-68724858D01*
X187646328Y-68722238D01*
X187609232Y-68725416D01*
X187582758Y-68735277D01*
X187563241Y-68752705D01*
X187547020Y-68778585D01*
X187543043Y-68786493D01*
X187530307Y-68817906D01*
X187528773Y-68844198D01*
X187048765Y-68844198D01*
X186976805Y-68784356D01*
X186893379Y-68731882D01*
X186805654Y-68692491D01*
X186760784Y-68678571D01*
X186700098Y-68667984D01*
X186625148Y-68662898D01*
X186542947Y-68663300D01*
X186460510Y-68669181D01*
X186392032Y-68679127D01*
X186336731Y-68690464D01*
X186298921Y-68700847D01*
X186274288Y-68712103D01*
X186258520Y-68726058D01*
X186249990Y-68739253D01*
X186246280Y-68756191D01*
X186242224Y-68792002D01*
X186238050Y-68843586D01*
X186233988Y-68907842D01*
X186230265Y-68981670D01*
X186227942Y-69038504D01*
X186224047Y-69134400D01*
X186219120Y-69241381D01*
X186213562Y-69351600D01*
X186207772Y-69457214D01*
X186202149Y-69550375D01*
X186201008Y-69567901D01*
X186195718Y-69661236D01*
X186191120Y-69767818D01*
X186187500Y-69878917D01*
X186185143Y-69985802D01*
X186184336Y-70076776D01*
X185590827Y-70076776D01*
X185590827Y-68101236D01*
X191229165Y-68101236D01*
X191229165Y-71068782D01*
G37*
X191229165Y-71068782D02*
X185590827Y-71068782D01*
X185590827Y-70076776D01*
X186184336Y-70076776D01*
X186184588Y-70166490D01*
X186185721Y-70237025D01*
X186188297Y-70291184D01*
X186192878Y-70331768D01*
X186200026Y-70361577D01*
X186210303Y-70383415D01*
X186224273Y-70400081D01*
X186242497Y-70414378D01*
X186253563Y-70421629D01*
X186269044Y-70430371D01*
X186285806Y-70436254D01*
X186307985Y-70439630D01*
X186339720Y-70440855D01*
X186385150Y-70440283D01*
X186448118Y-70438277D01*
X186515556Y-70434824D01*
X186584995Y-70429479D01*
X186648741Y-70422940D01*
X186699100Y-70415904D01*
X186703758Y-70415081D01*
X186825127Y-70388613D01*
X186928864Y-70355856D01*
X187018861Y-70314990D01*
X187099007Y-70264195D01*
X187173195Y-70201649D01*
X187185586Y-70189626D01*
X187229690Y-70143802D01*
X187259707Y-70106630D01*
X187279075Y-70073492D01*
X187287252Y-70052912D01*
X187303476Y-69976766D01*
X187300115Y-69905599D01*
X187282689Y-69852761D01*
X187253275Y-69807949D01*
X187208675Y-69759633D01*
X187154098Y-69712515D01*
X187094749Y-69671299D01*
X187060592Y-69652153D01*
X186987050Y-69614884D01*
X187051577Y-69545905D01*
X187116654Y-69463540D01*
X187161536Y-69376074D01*
X187187152Y-69280865D01*
X187194437Y-69175268D01*
X187193346Y-69143966D01*
X187187844Y-69084585D01*
X187177341Y-69037004D01*
X187159541Y-68991209D01*
X187157111Y-68986004D01*
X187113090Y-68914845D01*
X187051516Y-68846486D01*
X187048765Y-68844198D01*
X187528773Y-68844198D01*
X187535522Y-68872610D01*
X187548662Y-68903706D01*
X187569745Y-68923891D01*
X187594642Y-68936638D01*
X187650211Y-68954374D01*
X187725162Y-68967752D01*
X187817278Y-68976499D01*
X187924345Y-68980345D01*
X187953252Y-68980509D01*
X188093923Y-68980509D01*
X188101435Y-69093165D01*
X188105087Y-69144551D01*
X188110126Y-69210776D01*
X188115997Y-69284783D01*
X188122146Y-69359516D01*
X188124955Y-69392668D01*
X188131434Y-69475956D01*
X188137683Y-69570583D01*
X188143534Y-69672530D01*
X188148814Y-69777776D01*
X188153353Y-69882301D01*
X188156980Y-69982085D01*
X188159524Y-70073107D01*
X188160815Y-70151348D01*
X188160681Y-70212787D01*
X188160374Y-70226121D01*
X188157205Y-70334174D01*
X188193099Y-70366255D01*
X188235644Y-70392988D01*
X188278622Y-70399662D01*
X188318477Y-70386311D01*
X188342784Y-70364864D01*
X188358577Y-70344239D01*
X188370805Y-70322504D01*
X188379746Y-70296870D01*
X188385679Y-70264550D01*
X188388884Y-70222755D01*
X188389638Y-70168698D01*
X188388222Y-70099591D01*
X188384913Y-70012646D01*
X188382792Y-69964996D01*
X188378148Y-69870909D01*
X188372246Y-69762596D01*
X188365540Y-69647748D01*
X188358484Y-69534053D01*
X188351534Y-69429201D01*
X188348972Y-69392668D01*
X188343265Y-69310673D01*
X188338132Y-69232809D01*
X188333789Y-69162699D01*
X188330453Y-69103967D01*
X188328340Y-69060235D01*
X188327664Y-69036533D01*
X188327564Y-68977153D01*
X188462203Y-68984501D01*
X188524618Y-68987733D01*
X188600270Y-68991383D01*
X188680428Y-68995044D01*
X188756362Y-68998308D01*
X188770310Y-68998879D01*
X188943779Y-69005909D01*
X188975856Y-68975178D01*
X188998640Y-68947392D01*
X189013364Y-68918620D01*
X189014585Y-68914157D01*
X189013927Y-68877276D01*
X189000772Y-68836297D01*
X188999722Y-68834635D01*
X189067761Y-68834635D01*
X189068949Y-68890228D01*
X189073421Y-68963223D01*
X189075885Y-68996658D01*
X189080407Y-69071890D01*
X189084152Y-69165539D01*
X189087099Y-69274053D01*
X189089226Y-69393880D01*
X189090513Y-69521468D01*
X189090939Y-69653265D01*
X189090481Y-69785718D01*
X189089119Y-69915276D01*
X189086831Y-70038387D01*
X189083597Y-70151499D01*
X189082892Y-70171077D01*
X189074352Y-70399941D01*
X189112018Y-70437607D01*
X189152563Y-70466599D01*
X189194922Y-70476948D01*
X189234794Y-70468320D01*
X189260555Y-70449111D01*
X189272358Y-70435717D01*
X189282384Y-70421443D01*
X189290778Y-70404476D01*
X189297684Y-70383000D01*
X189303247Y-70355200D01*
X189307612Y-70319264D01*
X189310923Y-70273374D01*
X189313324Y-70215718D01*
X189314960Y-70144481D01*
X189315975Y-70057846D01*
X189316514Y-69954002D01*
X189316721Y-69831131D01*
X189316746Y-69743279D01*
X189316916Y-69632982D01*
X189317404Y-69529426D01*
X189318178Y-69434672D01*
X189319205Y-69350782D01*
X189320452Y-69279819D01*
X189321888Y-69223843D01*
X189323480Y-69184917D01*
X189325194Y-69165103D01*
X189325893Y-69162998D01*
X189334999Y-69169592D01*
X189354905Y-69191316D01*
X189383435Y-69225554D01*
X189418416Y-69269693D01*
X189457672Y-69321118D01*
X189460181Y-69324466D01*
X189548492Y-69440588D01*
X189639925Y-69557449D01*
X189733010Y-69673372D01*
X189826278Y-69786683D01*
X189918259Y-69895708D01*
X190007484Y-69998773D01*
X190092481Y-70094203D01*
X190171783Y-70180324D01*
X190243918Y-70255461D01*
X190307418Y-70317939D01*
X190360811Y-70366085D01*
X190402630Y-70398224D01*
X190402771Y-70398317D01*
X190457131Y-70425378D01*
X190506436Y-70431102D01*
X190550903Y-70415493D01*
X190569866Y-70401084D01*
X190581836Y-70389056D01*
X190592071Y-70375090D01*
X190600708Y-70357467D01*
X190607885Y-70334464D01*
X190613739Y-70304361D01*
X190618408Y-70265437D01*
X190622030Y-70215970D01*
X190624742Y-70154241D01*
X190626682Y-70078528D01*
X190627987Y-69987109D01*
X190628795Y-69878265D01*
X190629244Y-69750273D01*
X190629407Y-69656450D01*
X190629506Y-69526334D01*
X190629392Y-69416079D01*
X190629007Y-69323565D01*
X190628292Y-69246671D01*
X190627188Y-69183277D01*
X190625637Y-69131264D01*
X190623580Y-69088510D01*
X190620958Y-69052895D01*
X190617712Y-69022300D01*
X190613784Y-68994604D01*
X190610552Y-68975554D01*
X190592866Y-68895869D01*
X190570612Y-68825608D01*
X190545258Y-68768411D01*
X190518271Y-68727917D01*
X190506011Y-68716135D01*
X190464962Y-68696714D01*
X190419704Y-68695826D01*
X190377028Y-68712971D01*
X190360037Y-68726872D01*
X190340396Y-68750015D01*
X190330821Y-68774173D01*
X190327968Y-68808805D01*
X190327910Y-68817768D01*
X190331075Y-68859857D01*
X190339317Y-68910865D01*
X190349300Y-68953725D01*
X190361364Y-69004023D01*
X190373014Y-69063869D01*
X190381865Y-69120917D01*
X190382353Y-69124773D01*
X190387940Y-69179947D01*
X190393439Y-69253091D01*
X190398681Y-69340192D01*
X190403497Y-69437238D01*
X190407715Y-69540216D01*
X190411167Y-69645115D01*
X190413682Y-69747922D01*
X190415091Y-69844624D01*
X190415331Y-69903745D01*
X190415115Y-70107077D01*
X190253360Y-69942111D01*
X190132459Y-69815855D01*
X190017836Y-69689717D01*
X189907032Y-69560618D01*
X189797584Y-69425480D01*
X189687032Y-69281222D01*
X189572915Y-69124767D01*
X189452770Y-68953036D01*
X189395001Y-68868356D01*
X189344260Y-68796698D01*
X189300911Y-68743605D01*
X189262896Y-68707796D01*
X189228157Y-68687990D01*
X189194637Y-68682905D01*
X189160278Y-68691259D01*
X189133182Y-68705291D01*
X189108478Y-68722048D01*
X189090216Y-68740149D01*
X189077763Y-68762806D01*
X189070489Y-68793231D01*
X189067761Y-68834635D01*
X188999722Y-68834635D01*
X188978977Y-68801813D01*
X188970812Y-68793884D01*
X188950794Y-68786296D01*
X188910762Y-68779127D01*
X188852684Y-68772494D01*
X188778527Y-68766510D01*
X188690258Y-68761290D01*
X188589843Y-68756951D01*
X188479250Y-68753605D01*
X188360444Y-68751369D01*
X188235394Y-68750358D01*
X188225441Y-68750334D01*
X188090210Y-68749244D01*
X187975161Y-68746514D01*
X187878553Y-68742077D01*
X187798642Y-68735863D01*
X187767033Y-68732392D01*
X187697707Y-68724858D01*
X187646328Y-68722238D01*
X187609232Y-68725416D01*
X187582758Y-68735277D01*
X187563241Y-68752705D01*
X187547020Y-68778585D01*
X187543043Y-68786493D01*
X187530307Y-68817906D01*
X187528773Y-68844198D01*
X187048765Y-68844198D01*
X186976805Y-68784356D01*
X186893379Y-68731882D01*
X186805654Y-68692491D01*
X186760784Y-68678571D01*
X186700098Y-68667984D01*
X186625148Y-68662898D01*
X186542947Y-68663300D01*
X186460510Y-68669181D01*
X186392032Y-68679127D01*
X186336731Y-68690464D01*
X186298921Y-68700847D01*
X186274288Y-68712103D01*
X186258520Y-68726058D01*
X186249990Y-68739253D01*
X186246280Y-68756191D01*
X186242224Y-68792002D01*
X186238050Y-68843586D01*
X186233988Y-68907842D01*
X186230265Y-68981670D01*
X186227942Y-69038504D01*
X186224047Y-69134400D01*
X186219120Y-69241381D01*
X186213562Y-69351600D01*
X186207772Y-69457214D01*
X186202149Y-69550375D01*
X186201008Y-69567901D01*
X186195718Y-69661236D01*
X186191120Y-69767818D01*
X186187500Y-69878917D01*
X186185143Y-69985802D01*
X186184336Y-70076776D01*
X185590827Y-70076776D01*
X185590827Y-68101236D01*
X191229165Y-68101236D01*
X191229165Y-71068782D01*
G36*
X186682465Y-77048227D02*
G01*
X186715666Y-77040486D01*
X186760659Y-77030424D01*
X186813300Y-77018922D01*
X186869444Y-77006864D01*
X186924948Y-76995132D01*
X186975666Y-76984609D01*
X187017455Y-76976179D01*
X187046170Y-76970724D01*
X187057667Y-76969128D01*
X187057696Y-76969144D01*
X187060576Y-76979872D01*
X187066879Y-77007962D01*
X187075742Y-77049213D01*
X187086300Y-77099428D01*
X187097691Y-77154407D01*
X187109052Y-77209952D01*
X187119517Y-77261863D01*
X187128224Y-77305943D01*
X187134309Y-77337991D01*
X187136908Y-77353809D01*
X187136945Y-77354451D01*
X187129486Y-77354838D01*
X187122379Y-77351267D01*
X187043858Y-77303460D01*
X186967302Y-77256058D01*
X186894847Y-77210456D01*
X186828627Y-77168047D01*
X186770778Y-77130225D01*
X186723435Y-77098384D01*
X186688731Y-77073918D01*
X186668803Y-77058220D01*
X186665200Y-77052762D01*
X186682465Y-77048227D01*
G37*
X186682465Y-77048227D02*
X186715666Y-77040486D01*
X186760659Y-77030424D01*
X186813300Y-77018922D01*
X186869444Y-77006864D01*
X186924948Y-76995132D01*
X186975666Y-76984609D01*
X187017455Y-76976179D01*
X187046170Y-76970724D01*
X187057667Y-76969128D01*
X187057696Y-76969144D01*
X187060576Y-76979872D01*
X187066879Y-77007962D01*
X187075742Y-77049213D01*
X187086300Y-77099428D01*
X187097691Y-77154407D01*
X187109052Y-77209952D01*
X187119517Y-77261863D01*
X187128224Y-77305943D01*
X187134309Y-77337991D01*
X187136908Y-77353809D01*
X187136945Y-77354451D01*
X187129486Y-77354838D01*
X187122379Y-77351267D01*
X187043858Y-77303460D01*
X186967302Y-77256058D01*
X186894847Y-77210456D01*
X186828627Y-77168047D01*
X186770778Y-77130225D01*
X186723435Y-77098384D01*
X186688731Y-77073918D01*
X186668803Y-77058220D01*
X186665200Y-77052762D01*
X186682465Y-77048227D01*
G36*
X188543782Y-72676835D02*
G01*
X188543782Y-78315173D01*
X187802633Y-78315173D01*
X187802633Y-77895691D01*
X187829352Y-77887309D01*
X187850117Y-77869956D01*
X187867127Y-77843937D01*
X187867727Y-77842784D01*
X187883478Y-77793739D01*
X187878481Y-77749194D01*
X187854102Y-77712216D01*
X187830606Y-77695156D01*
X187787785Y-77670807D01*
X187726834Y-77639760D01*
X187648948Y-77602605D01*
X187555323Y-77559932D01*
X187465815Y-77520440D01*
X187404508Y-77493737D01*
X187353732Y-77236757D01*
X187339208Y-77162622D01*
X187326020Y-77094111D01*
X187314816Y-77034692D01*
X187306246Y-76987832D01*
X187300957Y-76956998D01*
X187299635Y-76947684D01*
X187296313Y-76915591D01*
X187444691Y-76886308D01*
X187568180Y-76859112D01*
X187672563Y-76830118D01*
X187757168Y-76799577D01*
X187821325Y-76767741D01*
X187864364Y-76734862D01*
X187872252Y-76725869D01*
X187891386Y-76685733D01*
X187893085Y-76641426D01*
X187877395Y-76601876D01*
X187854429Y-76579541D01*
X187824196Y-76561548D01*
X187823930Y-76561437D01*
X187805617Y-76555134D01*
X187786460Y-76552670D01*
X187762837Y-76554773D01*
X187731125Y-76562171D01*
X187687700Y-76575591D01*
X187628939Y-76595761D01*
X187597295Y-76606961D01*
X187557492Y-76619395D01*
X187498623Y-76635384D01*
X187423216Y-76654362D01*
X187333798Y-76675765D01*
X187232895Y-76699024D01*
X187123036Y-76723576D01*
X187006747Y-76748854D01*
X186886555Y-76774291D01*
X186764987Y-76799323D01*
X186644570Y-76823383D01*
X186543765Y-76842884D01*
X186460266Y-76859194D01*
X186395577Y-76873141D01*
X186346801Y-76885815D01*
X186311040Y-76898306D01*
X186309635Y-76899039D01*
X186309635Y-76256067D01*
X186365228Y-76254879D01*
X186438223Y-76250407D01*
X186471658Y-76247943D01*
X186546890Y-76243421D01*
X186640539Y-76239676D01*
X186749053Y-76236729D01*
X186868880Y-76234601D01*
X186996468Y-76233314D01*
X187128265Y-76232889D01*
X187260718Y-76233347D01*
X187390276Y-76234709D01*
X187513387Y-76236997D01*
X187626499Y-76240231D01*
X187646077Y-76240936D01*
X187874941Y-76249476D01*
X187912607Y-76211810D01*
X187941599Y-76171265D01*
X187951948Y-76128906D01*
X187943320Y-76089034D01*
X187924111Y-76063273D01*
X187910717Y-76051470D01*
X187896443Y-76041444D01*
X187879476Y-76033050D01*
X187858000Y-76026144D01*
X187830200Y-76020580D01*
X187794264Y-76016215D01*
X187748374Y-76012905D01*
X187690718Y-76010504D01*
X187619481Y-76008868D01*
X187532846Y-76007853D01*
X187429002Y-76007314D01*
X187306131Y-76007107D01*
X187218279Y-76007082D01*
X187107982Y-76006912D01*
X187004426Y-76006424D01*
X186909672Y-76005650D01*
X186825782Y-76004623D01*
X186754819Y-76003375D01*
X186698843Y-76001940D01*
X186659917Y-76000348D01*
X186640103Y-75998634D01*
X186637998Y-75997935D01*
X186644592Y-75988828D01*
X186666316Y-75968923D01*
X186700554Y-75940392D01*
X186744693Y-75905412D01*
X186796118Y-75866156D01*
X186799466Y-75863647D01*
X186915588Y-75775336D01*
X187032449Y-75683903D01*
X187148372Y-75590818D01*
X187261683Y-75497550D01*
X187370708Y-75405568D01*
X187473773Y-75316344D01*
X187569203Y-75231346D01*
X187655324Y-75152045D01*
X187730461Y-75079910D01*
X187792939Y-75016410D01*
X187841085Y-74963016D01*
X187873224Y-74921198D01*
X187873317Y-74921057D01*
X187900378Y-74866696D01*
X187906102Y-74817391D01*
X187890493Y-74772925D01*
X187876084Y-74753962D01*
X187864056Y-74741992D01*
X187850090Y-74731757D01*
X187832467Y-74723120D01*
X187809464Y-74715943D01*
X187779361Y-74710089D01*
X187740437Y-74705419D01*
X187690970Y-74701798D01*
X187629241Y-74699086D01*
X187553528Y-74697146D01*
X187462109Y-74695841D01*
X187353265Y-74695033D01*
X187225273Y-74694584D01*
X187131450Y-74694421D01*
X187001334Y-74694322D01*
X186891079Y-74694436D01*
X186798565Y-74694821D01*
X186721671Y-74695536D01*
X186658277Y-74696640D01*
X186606264Y-74698191D01*
X186563510Y-74700248D01*
X186527895Y-74702870D01*
X186497300Y-74706116D01*
X186469604Y-74710044D01*
X186450554Y-74713276D01*
X186370869Y-74730962D01*
X186319198Y-74747327D01*
X186319198Y-74464809D01*
X186347610Y-74458059D01*
X186378706Y-74444919D01*
X186398891Y-74423836D01*
X186411638Y-74398939D01*
X186429374Y-74343370D01*
X186442752Y-74268420D01*
X186451499Y-74176303D01*
X186455345Y-74069236D01*
X186455509Y-74040329D01*
X186455509Y-73899658D01*
X186568165Y-73892147D01*
X186619551Y-73888494D01*
X186685776Y-73883455D01*
X186759783Y-73877584D01*
X186834516Y-73871436D01*
X186867668Y-73868626D01*
X186950956Y-73862148D01*
X187045583Y-73855898D01*
X187147530Y-73850048D01*
X187252776Y-73844767D01*
X187357301Y-73840228D01*
X187457085Y-73836601D01*
X187548107Y-73834057D01*
X187626348Y-73832766D01*
X187687787Y-73832900D01*
X187701121Y-73833207D01*
X187809174Y-73836376D01*
X187841255Y-73800483D01*
X187867988Y-73757937D01*
X187874662Y-73714959D01*
X187861311Y-73675104D01*
X187839864Y-73650797D01*
X187819239Y-73635004D01*
X187797504Y-73622776D01*
X187771870Y-73613835D01*
X187739550Y-73607902D01*
X187697755Y-73604697D01*
X187643698Y-73603943D01*
X187574591Y-73605359D01*
X187487646Y-73608668D01*
X187439996Y-73610789D01*
X187345909Y-73615433D01*
X187237596Y-73621335D01*
X187122748Y-73628041D01*
X187009053Y-73635097D01*
X186904201Y-73642047D01*
X186867668Y-73644609D01*
X186785673Y-73650316D01*
X186707809Y-73655449D01*
X186637699Y-73659792D01*
X186578967Y-73663128D01*
X186535235Y-73665241D01*
X186511533Y-73665917D01*
X186452153Y-73666017D01*
X186459501Y-73531379D01*
X186462733Y-73468963D01*
X186466383Y-73393312D01*
X186470044Y-73313153D01*
X186473308Y-73237219D01*
X186473879Y-73223271D01*
X186480909Y-73049802D01*
X186450178Y-73017725D01*
X186422392Y-72994942D01*
X186393620Y-72980217D01*
X186389157Y-72978996D01*
X186352276Y-72979654D01*
X186311297Y-72992809D01*
X186276813Y-73014605D01*
X186268884Y-73022769D01*
X186261296Y-73042788D01*
X186254127Y-73082819D01*
X186247494Y-73140897D01*
X186241510Y-73215054D01*
X186236290Y-73303323D01*
X186231951Y-73403738D01*
X186228605Y-73514331D01*
X186226369Y-73633137D01*
X186225358Y-73758188D01*
X186225334Y-73768141D01*
X186224244Y-73903371D01*
X186221514Y-74018420D01*
X186217077Y-74115028D01*
X186210863Y-74194939D01*
X186207392Y-74226549D01*
X186199858Y-74295874D01*
X186197238Y-74347253D01*
X186200416Y-74384349D01*
X186210277Y-74410823D01*
X186227705Y-74430340D01*
X186253585Y-74446561D01*
X186261493Y-74450538D01*
X186292906Y-74463274D01*
X186319198Y-74464809D01*
X186319198Y-74747327D01*
X186300608Y-74753215D01*
X186243411Y-74778569D01*
X186202917Y-74805557D01*
X186191135Y-74817816D01*
X186171714Y-74858866D01*
X186170826Y-74904124D01*
X186187971Y-74946800D01*
X186201872Y-74963790D01*
X186225015Y-74983432D01*
X186249173Y-74993007D01*
X186283805Y-74995860D01*
X186292768Y-74995918D01*
X186334857Y-74992753D01*
X186385865Y-74984510D01*
X186428725Y-74974528D01*
X186479023Y-74962464D01*
X186538869Y-74950814D01*
X186595917Y-74941963D01*
X186599773Y-74941474D01*
X186654947Y-74935888D01*
X186728091Y-74930388D01*
X186815192Y-74925146D01*
X186912238Y-74920331D01*
X187015216Y-74916113D01*
X187120115Y-74912661D01*
X187222922Y-74910146D01*
X187319624Y-74908737D01*
X187378745Y-74908497D01*
X187582077Y-74908713D01*
X187417111Y-75070468D01*
X187290855Y-75191369D01*
X187164717Y-75305991D01*
X187035618Y-75416796D01*
X186900480Y-75526243D01*
X186756222Y-75636795D01*
X186599767Y-75750913D01*
X186428036Y-75871058D01*
X186343356Y-75928827D01*
X186271698Y-75979567D01*
X186218605Y-76022917D01*
X186182796Y-76060932D01*
X186162990Y-76095671D01*
X186157905Y-76129191D01*
X186166259Y-76163550D01*
X186180291Y-76190646D01*
X186197048Y-76215350D01*
X186215149Y-76233612D01*
X186237806Y-76246065D01*
X186268231Y-76253339D01*
X186309635Y-76256067D01*
X186309635Y-76899039D01*
X186285394Y-76911703D01*
X186266966Y-76927094D01*
X186252858Y-76945569D01*
X186247739Y-76954130D01*
X186237284Y-76982783D01*
X186240793Y-77011040D01*
X186259803Y-77041767D01*
X186295847Y-77077830D01*
X186328638Y-77105091D01*
X186379057Y-77142957D01*
X186445236Y-77189328D01*
X186523717Y-77242034D01*
X186611046Y-77298902D01*
X186703766Y-77357762D01*
X186798421Y-77416442D01*
X186891557Y-77472772D01*
X186979716Y-77524580D01*
X187059442Y-77569694D01*
X187119206Y-77601783D01*
X187159740Y-77624641D01*
X187185141Y-77644698D01*
X187200872Y-77666833D01*
X187206705Y-77679917D01*
X187232981Y-77720416D01*
X187271137Y-77744952D01*
X187316348Y-77751125D01*
X187340375Y-77746489D01*
X187358249Y-77742126D01*
X187375854Y-77741810D01*
X187397566Y-77746780D01*
X187427761Y-77758274D01*
X187470814Y-77777529D01*
X187502736Y-77792430D01*
X187592220Y-77833449D01*
X187664752Y-77863982D01*
X187722532Y-77884331D01*
X187767759Y-77894799D01*
X187802633Y-77895691D01*
X187802633Y-78315173D01*
X185576236Y-78315173D01*
X185576236Y-72676835D01*
X188543782Y-72676835D01*
G37*
X188543782Y-72676835D02*
X188543782Y-78315173D01*
X187802633Y-78315173D01*
X187802633Y-77895691D01*
X187829352Y-77887309D01*
X187850117Y-77869956D01*
X187867127Y-77843937D01*
X187867727Y-77842784D01*
X187883478Y-77793739D01*
X187878481Y-77749194D01*
X187854102Y-77712216D01*
X187830606Y-77695156D01*
X187787785Y-77670807D01*
X187726834Y-77639760D01*
X187648948Y-77602605D01*
X187555323Y-77559932D01*
X187465815Y-77520440D01*
X187404508Y-77493737D01*
X187353732Y-77236757D01*
X187339208Y-77162622D01*
X187326020Y-77094111D01*
X187314816Y-77034692D01*
X187306246Y-76987832D01*
X187300957Y-76956998D01*
X187299635Y-76947684D01*
X187296313Y-76915591D01*
X187444691Y-76886308D01*
X187568180Y-76859112D01*
X187672563Y-76830118D01*
X187757168Y-76799577D01*
X187821325Y-76767741D01*
X187864364Y-76734862D01*
X187872252Y-76725869D01*
X187891386Y-76685733D01*
X187893085Y-76641426D01*
X187877395Y-76601876D01*
X187854429Y-76579541D01*
X187824196Y-76561548D01*
X187823930Y-76561437D01*
X187805617Y-76555134D01*
X187786460Y-76552670D01*
X187762837Y-76554773D01*
X187731125Y-76562171D01*
X187687700Y-76575591D01*
X187628939Y-76595761D01*
X187597295Y-76606961D01*
X187557492Y-76619395D01*
X187498623Y-76635384D01*
X187423216Y-76654362D01*
X187333798Y-76675765D01*
X187232895Y-76699024D01*
X187123036Y-76723576D01*
X187006747Y-76748854D01*
X186886555Y-76774291D01*
X186764987Y-76799323D01*
X186644570Y-76823383D01*
X186543765Y-76842884D01*
X186460266Y-76859194D01*
X186395577Y-76873141D01*
X186346801Y-76885815D01*
X186311040Y-76898306D01*
X186309635Y-76899039D01*
X186309635Y-76256067D01*
X186365228Y-76254879D01*
X186438223Y-76250407D01*
X186471658Y-76247943D01*
X186546890Y-76243421D01*
X186640539Y-76239676D01*
X186749053Y-76236729D01*
X186868880Y-76234601D01*
X186996468Y-76233314D01*
X187128265Y-76232889D01*
X187260718Y-76233347D01*
X187390276Y-76234709D01*
X187513387Y-76236997D01*
X187626499Y-76240231D01*
X187646077Y-76240936D01*
X187874941Y-76249476D01*
X187912607Y-76211810D01*
X187941599Y-76171265D01*
X187951948Y-76128906D01*
X187943320Y-76089034D01*
X187924111Y-76063273D01*
X187910717Y-76051470D01*
X187896443Y-76041444D01*
X187879476Y-76033050D01*
X187858000Y-76026144D01*
X187830200Y-76020580D01*
X187794264Y-76016215D01*
X187748374Y-76012905D01*
X187690718Y-76010504D01*
X187619481Y-76008868D01*
X187532846Y-76007853D01*
X187429002Y-76007314D01*
X187306131Y-76007107D01*
X187218279Y-76007082D01*
X187107982Y-76006912D01*
X187004426Y-76006424D01*
X186909672Y-76005650D01*
X186825782Y-76004623D01*
X186754819Y-76003375D01*
X186698843Y-76001940D01*
X186659917Y-76000348D01*
X186640103Y-75998634D01*
X186637998Y-75997935D01*
X186644592Y-75988828D01*
X186666316Y-75968923D01*
X186700554Y-75940392D01*
X186744693Y-75905412D01*
X186796118Y-75866156D01*
X186799466Y-75863647D01*
X186915588Y-75775336D01*
X187032449Y-75683903D01*
X187148372Y-75590818D01*
X187261683Y-75497550D01*
X187370708Y-75405568D01*
X187473773Y-75316344D01*
X187569203Y-75231346D01*
X187655324Y-75152045D01*
X187730461Y-75079910D01*
X187792939Y-75016410D01*
X187841085Y-74963016D01*
X187873224Y-74921198D01*
X187873317Y-74921057D01*
X187900378Y-74866696D01*
X187906102Y-74817391D01*
X187890493Y-74772925D01*
X187876084Y-74753962D01*
X187864056Y-74741992D01*
X187850090Y-74731757D01*
X187832467Y-74723120D01*
X187809464Y-74715943D01*
X187779361Y-74710089D01*
X187740437Y-74705419D01*
X187690970Y-74701798D01*
X187629241Y-74699086D01*
X187553528Y-74697146D01*
X187462109Y-74695841D01*
X187353265Y-74695033D01*
X187225273Y-74694584D01*
X187131450Y-74694421D01*
X187001334Y-74694322D01*
X186891079Y-74694436D01*
X186798565Y-74694821D01*
X186721671Y-74695536D01*
X186658277Y-74696640D01*
X186606264Y-74698191D01*
X186563510Y-74700248D01*
X186527895Y-74702870D01*
X186497300Y-74706116D01*
X186469604Y-74710044D01*
X186450554Y-74713276D01*
X186370869Y-74730962D01*
X186319198Y-74747327D01*
X186319198Y-74464809D01*
X186347610Y-74458059D01*
X186378706Y-74444919D01*
X186398891Y-74423836D01*
X186411638Y-74398939D01*
X186429374Y-74343370D01*
X186442752Y-74268420D01*
X186451499Y-74176303D01*
X186455345Y-74069236D01*
X186455509Y-74040329D01*
X186455509Y-73899658D01*
X186568165Y-73892147D01*
X186619551Y-73888494D01*
X186685776Y-73883455D01*
X186759783Y-73877584D01*
X186834516Y-73871436D01*
X186867668Y-73868626D01*
X186950956Y-73862148D01*
X187045583Y-73855898D01*
X187147530Y-73850048D01*
X187252776Y-73844767D01*
X187357301Y-73840228D01*
X187457085Y-73836601D01*
X187548107Y-73834057D01*
X187626348Y-73832766D01*
X187687787Y-73832900D01*
X187701121Y-73833207D01*
X187809174Y-73836376D01*
X187841255Y-73800483D01*
X187867988Y-73757937D01*
X187874662Y-73714959D01*
X187861311Y-73675104D01*
X187839864Y-73650797D01*
X187819239Y-73635004D01*
X187797504Y-73622776D01*
X187771870Y-73613835D01*
X187739550Y-73607902D01*
X187697755Y-73604697D01*
X187643698Y-73603943D01*
X187574591Y-73605359D01*
X187487646Y-73608668D01*
X187439996Y-73610789D01*
X187345909Y-73615433D01*
X187237596Y-73621335D01*
X187122748Y-73628041D01*
X187009053Y-73635097D01*
X186904201Y-73642047D01*
X186867668Y-73644609D01*
X186785673Y-73650316D01*
X186707809Y-73655449D01*
X186637699Y-73659792D01*
X186578967Y-73663128D01*
X186535235Y-73665241D01*
X186511533Y-73665917D01*
X186452153Y-73666017D01*
X186459501Y-73531379D01*
X186462733Y-73468963D01*
X186466383Y-73393312D01*
X186470044Y-73313153D01*
X186473308Y-73237219D01*
X186473879Y-73223271D01*
X186480909Y-73049802D01*
X186450178Y-73017725D01*
X186422392Y-72994942D01*
X186393620Y-72980217D01*
X186389157Y-72978996D01*
X186352276Y-72979654D01*
X186311297Y-72992809D01*
X186276813Y-73014605D01*
X186268884Y-73022769D01*
X186261296Y-73042788D01*
X186254127Y-73082819D01*
X186247494Y-73140897D01*
X186241510Y-73215054D01*
X186236290Y-73303323D01*
X186231951Y-73403738D01*
X186228605Y-73514331D01*
X186226369Y-73633137D01*
X186225358Y-73758188D01*
X186225334Y-73768141D01*
X186224244Y-73903371D01*
X186221514Y-74018420D01*
X186217077Y-74115028D01*
X186210863Y-74194939D01*
X186207392Y-74226549D01*
X186199858Y-74295874D01*
X186197238Y-74347253D01*
X186200416Y-74384349D01*
X186210277Y-74410823D01*
X186227705Y-74430340D01*
X186253585Y-74446561D01*
X186261493Y-74450538D01*
X186292906Y-74463274D01*
X186319198Y-74464809D01*
X186319198Y-74747327D01*
X186300608Y-74753215D01*
X186243411Y-74778569D01*
X186202917Y-74805557D01*
X186191135Y-74817816D01*
X186171714Y-74858866D01*
X186170826Y-74904124D01*
X186187971Y-74946800D01*
X186201872Y-74963790D01*
X186225015Y-74983432D01*
X186249173Y-74993007D01*
X186283805Y-74995860D01*
X186292768Y-74995918D01*
X186334857Y-74992753D01*
X186385865Y-74984510D01*
X186428725Y-74974528D01*
X186479023Y-74962464D01*
X186538869Y-74950814D01*
X186595917Y-74941963D01*
X186599773Y-74941474D01*
X186654947Y-74935888D01*
X186728091Y-74930388D01*
X186815192Y-74925146D01*
X186912238Y-74920331D01*
X187015216Y-74916113D01*
X187120115Y-74912661D01*
X187222922Y-74910146D01*
X187319624Y-74908737D01*
X187378745Y-74908497D01*
X187582077Y-74908713D01*
X187417111Y-75070468D01*
X187290855Y-75191369D01*
X187164717Y-75305991D01*
X187035618Y-75416796D01*
X186900480Y-75526243D01*
X186756222Y-75636795D01*
X186599767Y-75750913D01*
X186428036Y-75871058D01*
X186343356Y-75928827D01*
X186271698Y-75979567D01*
X186218605Y-76022917D01*
X186182796Y-76060932D01*
X186162990Y-76095671D01*
X186157905Y-76129191D01*
X186166259Y-76163550D01*
X186180291Y-76190646D01*
X186197048Y-76215350D01*
X186215149Y-76233612D01*
X186237806Y-76246065D01*
X186268231Y-76253339D01*
X186309635Y-76256067D01*
X186309635Y-76899039D01*
X186285394Y-76911703D01*
X186266966Y-76927094D01*
X186252858Y-76945569D01*
X186247739Y-76954130D01*
X186237284Y-76982783D01*
X186240793Y-77011040D01*
X186259803Y-77041767D01*
X186295847Y-77077830D01*
X186328638Y-77105091D01*
X186379057Y-77142957D01*
X186445236Y-77189328D01*
X186523717Y-77242034D01*
X186611046Y-77298902D01*
X186703766Y-77357762D01*
X186798421Y-77416442D01*
X186891557Y-77472772D01*
X186979716Y-77524580D01*
X187059442Y-77569694D01*
X187119206Y-77601783D01*
X187159740Y-77624641D01*
X187185141Y-77644698D01*
X187200872Y-77666833D01*
X187206705Y-77679917D01*
X187232981Y-77720416D01*
X187271137Y-77744952D01*
X187316348Y-77751125D01*
X187340375Y-77746489D01*
X187358249Y-77742126D01*
X187375854Y-77741810D01*
X187397566Y-77746780D01*
X187427761Y-77758274D01*
X187470814Y-77777529D01*
X187502736Y-77792430D01*
X187592220Y-77833449D01*
X187664752Y-77863982D01*
X187722532Y-77884331D01*
X187767759Y-77894799D01*
X187802633Y-77895691D01*
X187802633Y-78315173D01*
X185576236Y-78315173D01*
X185576236Y-72676835D01*
X188543782Y-72676835D01*
D12*
%TO.C,RN2*%
X187217000Y-45662000D02*
X186417000Y-45662000D01*
X187217000Y-42222000D02*
X186417000Y-42222000D01*
%TO.C,RN1*%
X186417000Y-46413000D02*
X187217000Y-46413000D01*
X186417000Y-49853000D02*
X187217000Y-49853000D01*
%TO.C,F1*%
X209809233Y-82040000D02*
X210151767Y-82040000D01*
X209809233Y-83060000D02*
X210151767Y-83060000D01*
%TO.C,C1*%
X192280000Y-68638267D02*
X192280000Y-68295733D01*
X191260000Y-68638267D02*
X191260000Y-68295733D01*
%TO.C,C7*%
X208602733Y-44321000D02*
X208945267Y-44321000D01*
X208602733Y-45341000D02*
X208945267Y-45341000D01*
%TO.C,C8*%
X217164767Y-62994000D02*
X216822233Y-62994000D01*
X217164767Y-61974000D02*
X216822233Y-61974000D01*
%TO.C,C9*%
X207586733Y-59624500D02*
X207929267Y-59624500D01*
X207586733Y-60644500D02*
X207929267Y-60644500D01*
%TO.C,C10*%
X215079733Y-52834000D02*
X215422267Y-52834000D01*
X215079733Y-51814000D02*
X215422267Y-51814000D01*
%TO.C,C11*%
X202055000Y-43047767D02*
X202055000Y-42705233D01*
X203075000Y-43047767D02*
X203075000Y-42705233D01*
%TO.C,C13*%
X214822500Y-48900233D02*
X214822500Y-49242767D01*
X213802500Y-48900233D02*
X213802500Y-49242767D01*
%TO.C,C14*%
X217136767Y-61406500D02*
X216794233Y-61406500D01*
X217136767Y-60386500D02*
X216794233Y-60386500D01*
%TO.C,C15*%
X217101267Y-58799000D02*
X216758733Y-58799000D01*
X217101267Y-59819000D02*
X216758733Y-59819000D01*
%TO.C,C16*%
X214596767Y-40007000D02*
X214254233Y-40007000D01*
X214596767Y-38987000D02*
X214254233Y-38987000D01*
%TO.C,C17*%
X220187733Y-62994000D02*
X220530267Y-62994000D01*
X220187733Y-61974000D02*
X220530267Y-61974000D01*
%TO.C,C18*%
X220159733Y-60386500D02*
X220502267Y-60386500D01*
X220159733Y-61406500D02*
X220502267Y-61406500D01*
%TO.C,C19*%
X217358500Y-67632733D02*
X217358500Y-67975267D01*
X218378500Y-67632733D02*
X218378500Y-67975267D01*
%TO.C,C20*%
X215834500Y-67632733D02*
X215834500Y-67975267D01*
X216854500Y-67632733D02*
X216854500Y-67975267D01*
%TO.C,C22*%
X193376733Y-41527000D02*
X193719267Y-41527000D01*
X193376733Y-42547000D02*
X193719267Y-42547000D01*
%TO.C,D5*%
X232231000Y-60679000D02*
X234691000Y-60679000D01*
X234691000Y-60679000D02*
X234691000Y-59209000D01*
X234691000Y-59209000D02*
X232231000Y-59209000D01*
%TO.C,D6*%
X234705000Y-62511000D02*
X232245000Y-62511000D01*
X234705000Y-63981000D02*
X234705000Y-62511000D01*
X232245000Y-63981000D02*
X234705000Y-63981000D01*
D10*
%TO.C,J15*%
X227940000Y-66300000D02*
X225060000Y-66300000D01*
X225060000Y-66300000D02*
X225060000Y-43700000D01*
X225060000Y-43700000D02*
X227940000Y-43700000D01*
X227940000Y-43700000D02*
X227940000Y-66300000D01*
%TO.C,J16*%
X194940000Y-43700000D02*
X194940000Y-66300000D01*
X192060000Y-43700000D02*
X194940000Y-43700000D01*
X192060000Y-66300000D02*
X192060000Y-43700000D01*
X194940000Y-66300000D02*
X192060000Y-66300000D01*
D12*
%TO.C,JP1*%
X226838000Y-67460500D02*
X228838000Y-67460500D01*
X226838000Y-70260500D02*
X226838000Y-67460500D01*
X228838000Y-70260500D02*
X226838000Y-70260500D01*
X228838000Y-67460500D02*
X228838000Y-70260500D01*
%TO.C,JP2*%
X226298000Y-67460500D02*
X226298000Y-70260500D01*
X226298000Y-70260500D02*
X224298000Y-70260500D01*
X224298000Y-70260500D02*
X224298000Y-67460500D01*
X224298000Y-67460500D02*
X226298000Y-67460500D01*
%TO.C,JP3*%
X218456000Y-41278000D02*
X218456000Y-38478000D01*
X219156000Y-37828000D02*
X219756000Y-37828000D01*
X220456000Y-38478000D02*
X220456000Y-41278000D01*
X219756000Y-41928000D02*
X219156000Y-41928000D01*
X220656000Y-41078000D02*
X220956000Y-41378000D01*
X220956000Y-41378000D02*
X220956000Y-40778000D01*
X220656000Y-41078000D02*
X220956000Y-40778000D01*
X219156000Y-41928000D02*
G75*
G02*
X218456000Y-41228000I0J700000D01*
G01*
X220456000Y-41228000D02*
G75*
G02*
X219756000Y-41928000I-700000J0D01*
G01*
X219756000Y-37828000D02*
G75*
G02*
X220456000Y-38528000I0J-700000D01*
G01*
X218456000Y-38528000D02*
G75*
G02*
X219156000Y-37828000I700000J0D01*
G01*
%TO.C,L1*%
X218635733Y-63498000D02*
X218978267Y-63498000D01*
X218635733Y-64518000D02*
X218978267Y-64518000D01*
%TO.C,R3*%
X193101500Y-68638267D02*
X193101500Y-68295733D01*
X194121500Y-68638267D02*
X194121500Y-68295733D01*
%TO.C,R4*%
X192501733Y-70419500D02*
X192844267Y-70419500D01*
X192501733Y-71439500D02*
X192844267Y-71439500D01*
%TO.C,R7*%
X187454000Y-63290267D02*
X187454000Y-62947733D01*
X186434000Y-63290267D02*
X186434000Y-62947733D01*
%TO.C,R8*%
X208536000Y-78770267D02*
X208536000Y-78427733D01*
X207516000Y-78770267D02*
X207516000Y-78427733D01*
%TO.C,R9*%
X205103000Y-70440733D02*
X205103000Y-70783267D01*
X206123000Y-70440733D02*
X206123000Y-70783267D01*
%TO.C,R19*%
X217073267Y-48643000D02*
X216730733Y-48643000D01*
X217073267Y-47623000D02*
X216730733Y-47623000D01*
%TO.C,R26*%
X217934000Y-40581733D02*
X217934000Y-40924267D01*
X216914000Y-40581733D02*
X216914000Y-40924267D01*
%TO.C,R27*%
X218936500Y-67943252D02*
X218936500Y-67420748D01*
X220356500Y-67943252D02*
X220356500Y-67420748D01*
%TO.C,R31*%
X233202267Y-60958000D02*
X232859733Y-60958000D01*
X233202267Y-61978000D02*
X232859733Y-61978000D01*
%TO.C,R32*%
X233216267Y-64260000D02*
X232873733Y-64260000D01*
X233216267Y-65280000D02*
X232873733Y-65280000D01*
%TO.C,R33*%
X222061500Y-40863733D02*
X222061500Y-41206267D01*
X221041500Y-40863733D02*
X221041500Y-41206267D01*
%TO.C,Y1*%
X213331000Y-52939000D02*
X213331000Y-47539000D01*
X208831000Y-52939000D02*
X213331000Y-52939000D01*
%TO.C,C2*%
X199959500Y-74134767D02*
X199959500Y-73792233D01*
X200979500Y-74134767D02*
X200979500Y-73792233D01*
%TO.C,D7*%
X222277000Y-59955500D02*
X222277000Y-62415500D01*
X222277000Y-62415500D02*
X223747000Y-62415500D01*
X223747000Y-62415500D02*
X223747000Y-59955500D01*
%TO.C,Q1*%
X219791500Y-55948500D02*
X219791500Y-56878500D01*
X219791500Y-59108500D02*
X219791500Y-58178500D01*
X219791500Y-59108500D02*
X221951500Y-59108500D01*
X219791500Y-55948500D02*
X221251500Y-55948500D01*
%TO.C,R1*%
X201579267Y-71884000D02*
X201236733Y-71884000D01*
X201579267Y-70864000D02*
X201236733Y-70864000D01*
%TO.C,R2*%
X202951233Y-74233500D02*
X203293767Y-74233500D01*
X202951233Y-73213500D02*
X203293767Y-73213500D01*
%TO.C,R5*%
X222629000Y-55874767D02*
X222629000Y-55532233D01*
X223649000Y-55874767D02*
X223649000Y-55532233D01*
%TO.C,RN4*%
X205091500Y-76650000D02*
X205091500Y-77450000D01*
X201651500Y-76650000D02*
X201651500Y-77450000D01*
%TO.C,U4*%
D14*
X231013095Y-31519880D02*
X231013095Y-32329404D01*
X231060714Y-32424642D01*
X231108333Y-32472261D01*
X231203571Y-32519880D01*
X231394047Y-32519880D01*
X231489285Y-32472261D01*
X231536904Y-32424642D01*
X231584523Y-32329404D01*
X231584523Y-31519880D01*
X232489285Y-31853214D02*
X232489285Y-32519880D01*
X232251190Y-31472261D02*
X232013095Y-32186547D01*
X232632142Y-32186547D01*
%TO.C,U6*%
D15*
X223906880Y-38446623D02*
X223906880Y-38964719D01*
X223937357Y-39025671D01*
X223967833Y-39056147D01*
X224028785Y-39086623D01*
X224150690Y-39086623D01*
X224211642Y-39056147D01*
X224242119Y-39025671D01*
X224272595Y-38964719D01*
X224272595Y-38446623D01*
X224851642Y-38446623D02*
X224729738Y-38446623D01*
X224668785Y-38477100D01*
X224638309Y-38507576D01*
X224577357Y-38599004D01*
X224546880Y-38720909D01*
X224546880Y-38964719D01*
X224577357Y-39025671D01*
X224607833Y-39056147D01*
X224668785Y-39086623D01*
X224790690Y-39086623D01*
X224851642Y-39056147D01*
X224882119Y-39025671D01*
X224912595Y-38964719D01*
X224912595Y-38812338D01*
X224882119Y-38751385D01*
X224851642Y-38720909D01*
X224790690Y-38690433D01*
X224668785Y-38690433D01*
X224607833Y-38720909D01*
X224577357Y-38751385D01*
X224546880Y-38812338D01*
%TO.C,U7*%
D14*
X198461380Y-63182404D02*
X199270904Y-63182404D01*
X199366142Y-63134785D01*
X199413761Y-63087166D01*
X199461380Y-62991928D01*
X199461380Y-62801452D01*
X199413761Y-62706214D01*
X199366142Y-62658595D01*
X199270904Y-62610976D01*
X198461380Y-62610976D01*
X198461380Y-62230023D02*
X198461380Y-61563357D01*
X199461380Y-61991928D01*
%TO.C,C4*%
X199714142Y-58572666D02*
X199761761Y-58620285D01*
X199809380Y-58763142D01*
X199809380Y-58858380D01*
X199761761Y-59001238D01*
X199666523Y-59096476D01*
X199571285Y-59144095D01*
X199380809Y-59191714D01*
X199237952Y-59191714D01*
X199047476Y-59144095D01*
X198952238Y-59096476D01*
X198857000Y-59001238D01*
X198809380Y-58858380D01*
X198809380Y-58763142D01*
X198857000Y-58620285D01*
X198904619Y-58572666D01*
X199142714Y-57715523D02*
X199809380Y-57715523D01*
X198761761Y-57953619D02*
X199476047Y-58191714D01*
X199476047Y-57572666D01*
%TO.C,C3*%
X201523333Y-64586142D02*
X201475714Y-64633761D01*
X201332857Y-64681380D01*
X201237619Y-64681380D01*
X201094761Y-64633761D01*
X200999523Y-64538523D01*
X200951904Y-64443285D01*
X200904285Y-64252809D01*
X200904285Y-64109952D01*
X200951904Y-63919476D01*
X200999523Y-63824238D01*
X201094761Y-63729000D01*
X201237619Y-63681380D01*
X201332857Y-63681380D01*
X201475714Y-63729000D01*
X201523333Y-63776619D01*
X201856666Y-63681380D02*
X202475714Y-63681380D01*
X202142380Y-64062333D01*
X202285238Y-64062333D01*
X202380476Y-64109952D01*
X202428095Y-64157571D01*
X202475714Y-64252809D01*
X202475714Y-64490904D01*
X202428095Y-64586142D01*
X202380476Y-64633761D01*
X202285238Y-64681380D01*
X201999523Y-64681380D01*
X201904285Y-64633761D01*
X201856666Y-64586142D01*
%TO.C,R6*%
X206573380Y-75096666D02*
X206097190Y-75430000D01*
X206573380Y-75668095D02*
X205573380Y-75668095D01*
X205573380Y-75287142D01*
X205621000Y-75191904D01*
X205668619Y-75144285D01*
X205763857Y-75096666D01*
X205906714Y-75096666D01*
X206001952Y-75144285D01*
X206049571Y-75191904D01*
X206097190Y-75287142D01*
X206097190Y-75668095D01*
X205573380Y-74239523D02*
X205573380Y-74430000D01*
X205621000Y-74525238D01*
X205668619Y-74572857D01*
X205811476Y-74668095D01*
X206001952Y-74715714D01*
X206382904Y-74715714D01*
X206478142Y-74668095D01*
X206525761Y-74620476D01*
X206573380Y-74525238D01*
X206573380Y-74334761D01*
X206525761Y-74239523D01*
X206478142Y-74191904D01*
X206382904Y-74144285D01*
X206144809Y-74144285D01*
X206049571Y-74191904D01*
X206001952Y-74239523D01*
X205954333Y-74334761D01*
X205954333Y-74525238D01*
X206001952Y-74620476D01*
X206049571Y-74668095D01*
X206144809Y-74715714D01*
%TO.C,RN2*%
X186126523Y-41794380D02*
X185793190Y-41318190D01*
X185555095Y-41794380D02*
X185555095Y-40794380D01*
X185936047Y-40794380D01*
X186031285Y-40842000D01*
X186078904Y-40889619D01*
X186126523Y-40984857D01*
X186126523Y-41127714D01*
X186078904Y-41222952D01*
X186031285Y-41270571D01*
X185936047Y-41318190D01*
X185555095Y-41318190D01*
X186555095Y-41794380D02*
X186555095Y-40794380D01*
X187126523Y-41794380D01*
X187126523Y-40794380D01*
X187555095Y-40889619D02*
X187602714Y-40842000D01*
X187697952Y-40794380D01*
X187936047Y-40794380D01*
X188031285Y-40842000D01*
X188078904Y-40889619D01*
X188126523Y-40984857D01*
X188126523Y-41080095D01*
X188078904Y-41222952D01*
X187507476Y-41794380D01*
X188126523Y-41794380D01*
%TO.C,RN1*%
X186126523Y-51185380D02*
X185793190Y-50709190D01*
X185555095Y-51185380D02*
X185555095Y-50185380D01*
X185936047Y-50185380D01*
X186031285Y-50233000D01*
X186078904Y-50280619D01*
X186126523Y-50375857D01*
X186126523Y-50518714D01*
X186078904Y-50613952D01*
X186031285Y-50661571D01*
X185936047Y-50709190D01*
X185555095Y-50709190D01*
X186555095Y-51185380D02*
X186555095Y-50185380D01*
X187126523Y-51185380D01*
X187126523Y-50185380D01*
X188126523Y-51185380D02*
X187555095Y-51185380D01*
X187840809Y-51185380D02*
X187840809Y-50185380D01*
X187745571Y-50328238D01*
X187650333Y-50423476D01*
X187555095Y-50471095D01*
%TO.C,F1*%
X212264666Y-82478571D02*
X211931333Y-82478571D01*
X211931333Y-83002380D02*
X211931333Y-82002380D01*
X212407523Y-82002380D01*
X213312285Y-83002380D02*
X212740857Y-83002380D01*
X213026571Y-83002380D02*
X213026571Y-82002380D01*
X212931333Y-82145238D01*
X212836095Y-82240476D01*
X212740857Y-82288095D01*
%TO.C,C1*%
X190142833Y-67857642D02*
X190095214Y-67905261D01*
X189952357Y-67952880D01*
X189857119Y-67952880D01*
X189714261Y-67905261D01*
X189619023Y-67810023D01*
X189571404Y-67714785D01*
X189523785Y-67524309D01*
X189523785Y-67381452D01*
X189571404Y-67190976D01*
X189619023Y-67095738D01*
X189714261Y-67000500D01*
X189857119Y-66952880D01*
X189952357Y-66952880D01*
X190095214Y-67000500D01*
X190142833Y-67048119D01*
X191095214Y-67952880D02*
X190523785Y-67952880D01*
X190809500Y-67952880D02*
X190809500Y-66952880D01*
X190714261Y-67095738D01*
X190619023Y-67190976D01*
X190523785Y-67238595D01*
%TO.C,C7*%
X211288333Y-45188142D02*
X211240714Y-45235761D01*
X211097857Y-45283380D01*
X211002619Y-45283380D01*
X210859761Y-45235761D01*
X210764523Y-45140523D01*
X210716904Y-45045285D01*
X210669285Y-44854809D01*
X210669285Y-44711952D01*
X210716904Y-44521476D01*
X210764523Y-44426238D01*
X210859761Y-44331000D01*
X211002619Y-44283380D01*
X211097857Y-44283380D01*
X211240714Y-44331000D01*
X211288333Y-44378619D01*
X211621666Y-44283380D02*
X212288333Y-44283380D01*
X211859761Y-45283380D01*
%TO.C,C8*%
X214145833Y-62841142D02*
X214098214Y-62888761D01*
X213955357Y-62936380D01*
X213860119Y-62936380D01*
X213717261Y-62888761D01*
X213622023Y-62793523D01*
X213574404Y-62698285D01*
X213526785Y-62507809D01*
X213526785Y-62364952D01*
X213574404Y-62174476D01*
X213622023Y-62079238D01*
X213717261Y-61984000D01*
X213860119Y-61936380D01*
X213955357Y-61936380D01*
X214098214Y-61984000D01*
X214145833Y-62031619D01*
X214717261Y-62364952D02*
X214622023Y-62317333D01*
X214574404Y-62269714D01*
X214526785Y-62174476D01*
X214526785Y-62126857D01*
X214574404Y-62031619D01*
X214622023Y-61984000D01*
X214717261Y-61936380D01*
X214907738Y-61936380D01*
X215002976Y-61984000D01*
X215050595Y-62031619D01*
X215098214Y-62126857D01*
X215098214Y-62174476D01*
X215050595Y-62269714D01*
X215002976Y-62317333D01*
X214907738Y-62364952D01*
X214717261Y-62364952D01*
X214622023Y-62412571D01*
X214574404Y-62460190D01*
X214526785Y-62555428D01*
X214526785Y-62745904D01*
X214574404Y-62841142D01*
X214622023Y-62888761D01*
X214717261Y-62936380D01*
X214907738Y-62936380D01*
X215002976Y-62888761D01*
X215050595Y-62841142D01*
X215098214Y-62745904D01*
X215098214Y-62555428D01*
X215050595Y-62460190D01*
X215002976Y-62412571D01*
X214907738Y-62364952D01*
%TO.C,C9*%
X210258333Y-60491642D02*
X210210714Y-60539261D01*
X210067857Y-60586880D01*
X209972619Y-60586880D01*
X209829761Y-60539261D01*
X209734523Y-60444023D01*
X209686904Y-60348785D01*
X209639285Y-60158309D01*
X209639285Y-60015452D01*
X209686904Y-59824976D01*
X209734523Y-59729738D01*
X209829761Y-59634500D01*
X209972619Y-59586880D01*
X210067857Y-59586880D01*
X210210714Y-59634500D01*
X210258333Y-59682119D01*
X210734523Y-60586880D02*
X210925000Y-60586880D01*
X211020238Y-60539261D01*
X211067857Y-60491642D01*
X211163095Y-60348785D01*
X211210714Y-60158309D01*
X211210714Y-59777357D01*
X211163095Y-59682119D01*
X211115476Y-59634500D01*
X211020238Y-59586880D01*
X210829761Y-59586880D01*
X210734523Y-59634500D01*
X210686904Y-59682119D01*
X210639285Y-59777357D01*
X210639285Y-60015452D01*
X210686904Y-60110690D01*
X210734523Y-60158309D01*
X210829761Y-60205928D01*
X211020238Y-60205928D01*
X211115476Y-60158309D01*
X211163095Y-60110690D01*
X211210714Y-60015452D01*
%TO.C,C10*%
X214733142Y-54998857D02*
X214780761Y-55046476D01*
X214828380Y-55189333D01*
X214828380Y-55284571D01*
X214780761Y-55427428D01*
X214685523Y-55522666D01*
X214590285Y-55570285D01*
X214399809Y-55617904D01*
X214256952Y-55617904D01*
X214066476Y-55570285D01*
X213971238Y-55522666D01*
X213876000Y-55427428D01*
X213828380Y-55284571D01*
X213828380Y-55189333D01*
X213876000Y-55046476D01*
X213923619Y-54998857D01*
X214828380Y-54046476D02*
X214828380Y-54617904D01*
X214828380Y-54332190D02*
X213828380Y-54332190D01*
X213971238Y-54427428D01*
X214066476Y-54522666D01*
X214114095Y-54617904D01*
X213828380Y-53427428D02*
X213828380Y-53332190D01*
X213876000Y-53236952D01*
X213923619Y-53189333D01*
X214018857Y-53141714D01*
X214209333Y-53094095D01*
X214447428Y-53094095D01*
X214637904Y-53141714D01*
X214733142Y-53189333D01*
X214780761Y-53236952D01*
X214828380Y-53332190D01*
X214828380Y-53427428D01*
X214780761Y-53522666D01*
X214733142Y-53570285D01*
X214637904Y-53617904D01*
X214447428Y-53665523D01*
X214209333Y-53665523D01*
X214018857Y-53617904D01*
X213923619Y-53570285D01*
X213876000Y-53522666D01*
X213828380Y-53427428D01*
%TO.C,C11*%
X202922142Y-40358357D02*
X202969761Y-40405976D01*
X203017380Y-40548833D01*
X203017380Y-40644071D01*
X202969761Y-40786928D01*
X202874523Y-40882166D01*
X202779285Y-40929785D01*
X202588809Y-40977404D01*
X202445952Y-40977404D01*
X202255476Y-40929785D01*
X202160238Y-40882166D01*
X202065000Y-40786928D01*
X202017380Y-40644071D01*
X202017380Y-40548833D01*
X202065000Y-40405976D01*
X202112619Y-40358357D01*
X203017380Y-39405976D02*
X203017380Y-39977404D01*
X203017380Y-39691690D02*
X202017380Y-39691690D01*
X202160238Y-39786928D01*
X202255476Y-39882166D01*
X202303095Y-39977404D01*
X203017380Y-38453595D02*
X203017380Y-39025023D01*
X203017380Y-38739309D02*
X202017380Y-38739309D01*
X202160238Y-38834547D01*
X202255476Y-38929785D01*
X202303095Y-39025023D01*
%TO.C,C13*%
X214669642Y-46807357D02*
X214717261Y-46854976D01*
X214764880Y-46997833D01*
X214764880Y-47093071D01*
X214717261Y-47235928D01*
X214622023Y-47331166D01*
X214526785Y-47378785D01*
X214336309Y-47426404D01*
X214193452Y-47426404D01*
X214002976Y-47378785D01*
X213907738Y-47331166D01*
X213812500Y-47235928D01*
X213764880Y-47093071D01*
X213764880Y-46997833D01*
X213812500Y-46854976D01*
X213860119Y-46807357D01*
X214764880Y-45854976D02*
X214764880Y-46426404D01*
X214764880Y-46140690D02*
X213764880Y-46140690D01*
X213907738Y-46235928D01*
X214002976Y-46331166D01*
X214050595Y-46426404D01*
X213764880Y-45521642D02*
X213764880Y-44902595D01*
X214145833Y-45235928D01*
X214145833Y-45093071D01*
X214193452Y-44997833D01*
X214241071Y-44950214D01*
X214336309Y-44902595D01*
X214574404Y-44902595D01*
X214669642Y-44950214D01*
X214717261Y-44997833D01*
X214764880Y-45093071D01*
X214764880Y-45378785D01*
X214717261Y-45474023D01*
X214669642Y-45521642D01*
%TO.C,C14*%
X213147642Y-61253642D02*
X213100023Y-61301261D01*
X212957166Y-61348880D01*
X212861928Y-61348880D01*
X212719071Y-61301261D01*
X212623833Y-61206023D01*
X212576214Y-61110785D01*
X212528595Y-60920309D01*
X212528595Y-60777452D01*
X212576214Y-60586976D01*
X212623833Y-60491738D01*
X212719071Y-60396500D01*
X212861928Y-60348880D01*
X212957166Y-60348880D01*
X213100023Y-60396500D01*
X213147642Y-60444119D01*
X214100023Y-61348880D02*
X213528595Y-61348880D01*
X213814309Y-61348880D02*
X213814309Y-60348880D01*
X213719071Y-60491738D01*
X213623833Y-60586976D01*
X213528595Y-60634595D01*
X214957166Y-60682214D02*
X214957166Y-61348880D01*
X214719071Y-60301261D02*
X214480976Y-61015547D01*
X215100023Y-61015547D01*
%TO.C,C15*%
X213112142Y-59666142D02*
X213064523Y-59713761D01*
X212921666Y-59761380D01*
X212826428Y-59761380D01*
X212683571Y-59713761D01*
X212588333Y-59618523D01*
X212540714Y-59523285D01*
X212493095Y-59332809D01*
X212493095Y-59189952D01*
X212540714Y-58999476D01*
X212588333Y-58904238D01*
X212683571Y-58809000D01*
X212826428Y-58761380D01*
X212921666Y-58761380D01*
X213064523Y-58809000D01*
X213112142Y-58856619D01*
X214064523Y-59761380D02*
X213493095Y-59761380D01*
X213778809Y-59761380D02*
X213778809Y-58761380D01*
X213683571Y-58904238D01*
X213588333Y-58999476D01*
X213493095Y-59047095D01*
X214969285Y-58761380D02*
X214493095Y-58761380D01*
X214445476Y-59237571D01*
X214493095Y-59189952D01*
X214588333Y-59142333D01*
X214826428Y-59142333D01*
X214921666Y-59189952D01*
X214969285Y-59237571D01*
X215016904Y-59332809D01*
X215016904Y-59570904D01*
X214969285Y-59666142D01*
X214921666Y-59713761D01*
X214826428Y-59761380D01*
X214588333Y-59761380D01*
X214493095Y-59713761D01*
X214445476Y-59666142D01*
%TO.C,C16*%
X210621642Y-39854142D02*
X210574023Y-39901761D01*
X210431166Y-39949380D01*
X210335928Y-39949380D01*
X210193071Y-39901761D01*
X210097833Y-39806523D01*
X210050214Y-39711285D01*
X210002595Y-39520809D01*
X210002595Y-39377952D01*
X210050214Y-39187476D01*
X210097833Y-39092238D01*
X210193071Y-38997000D01*
X210335928Y-38949380D01*
X210431166Y-38949380D01*
X210574023Y-38997000D01*
X210621642Y-39044619D01*
X211574023Y-39949380D02*
X211002595Y-39949380D01*
X211288309Y-39949380D02*
X211288309Y-38949380D01*
X211193071Y-39092238D01*
X211097833Y-39187476D01*
X211002595Y-39235095D01*
X212431166Y-38949380D02*
X212240690Y-38949380D01*
X212145452Y-38997000D01*
X212097833Y-39044619D01*
X212002595Y-39187476D01*
X211954976Y-39377952D01*
X211954976Y-39758904D01*
X212002595Y-39854142D01*
X212050214Y-39901761D01*
X212145452Y-39949380D01*
X212335928Y-39949380D01*
X212431166Y-39901761D01*
X212478785Y-39854142D01*
X212526404Y-39758904D01*
X212526404Y-39520809D01*
X212478785Y-39425571D01*
X212431166Y-39377952D01*
X212335928Y-39330333D01*
X212145452Y-39330333D01*
X212050214Y-39377952D01*
X212002595Y-39425571D01*
X211954976Y-39520809D01*
%TO.C,C17*%
X221718142Y-65285857D02*
X221765761Y-65333476D01*
X221813380Y-65476333D01*
X221813380Y-65571571D01*
X221765761Y-65714428D01*
X221670523Y-65809666D01*
X221575285Y-65857285D01*
X221384809Y-65904904D01*
X221241952Y-65904904D01*
X221051476Y-65857285D01*
X220956238Y-65809666D01*
X220861000Y-65714428D01*
X220813380Y-65571571D01*
X220813380Y-65476333D01*
X220861000Y-65333476D01*
X220908619Y-65285857D01*
X221813380Y-64333476D02*
X221813380Y-64904904D01*
X221813380Y-64619190D02*
X220813380Y-64619190D01*
X220956238Y-64714428D01*
X221051476Y-64809666D01*
X221099095Y-64904904D01*
X220813380Y-64000142D02*
X220813380Y-63333476D01*
X221813380Y-63762047D01*
%TO.C,C18*%
X219702142Y-59983642D02*
X219654523Y-60031261D01*
X219511666Y-60078880D01*
X219416428Y-60078880D01*
X219273571Y-60031261D01*
X219178333Y-59936023D01*
X219130714Y-59840785D01*
X219083095Y-59650309D01*
X219083095Y-59507452D01*
X219130714Y-59316976D01*
X219178333Y-59221738D01*
X219273571Y-59126500D01*
X219416428Y-59078880D01*
X219511666Y-59078880D01*
X219654523Y-59126500D01*
X219702142Y-59174119D01*
X220654523Y-60078880D02*
X220083095Y-60078880D01*
X220368809Y-60078880D02*
X220368809Y-59078880D01*
X220273571Y-59221738D01*
X220178333Y-59316976D01*
X220083095Y-59364595D01*
X221225952Y-59507452D02*
X221130714Y-59459833D01*
X221083095Y-59412214D01*
X221035476Y-59316976D01*
X221035476Y-59269357D01*
X221083095Y-59174119D01*
X221130714Y-59126500D01*
X221225952Y-59078880D01*
X221416428Y-59078880D01*
X221511666Y-59126500D01*
X221559285Y-59174119D01*
X221606904Y-59269357D01*
X221606904Y-59316976D01*
X221559285Y-59412214D01*
X221511666Y-59459833D01*
X221416428Y-59507452D01*
X221225952Y-59507452D01*
X221130714Y-59555071D01*
X221083095Y-59602690D01*
X221035476Y-59697928D01*
X221035476Y-59888404D01*
X221083095Y-59983642D01*
X221130714Y-60031261D01*
X221225952Y-60078880D01*
X221416428Y-60078880D01*
X221511666Y-60031261D01*
X221559285Y-59983642D01*
X221606904Y-59888404D01*
X221606904Y-59697928D01*
X221559285Y-59602690D01*
X221511666Y-59555071D01*
X221416428Y-59507452D01*
%TO.C,C19*%
X217225642Y-70461142D02*
X217178023Y-70508761D01*
X217035166Y-70556380D01*
X216939928Y-70556380D01*
X216797071Y-70508761D01*
X216701833Y-70413523D01*
X216654214Y-70318285D01*
X216606595Y-70127809D01*
X216606595Y-69984952D01*
X216654214Y-69794476D01*
X216701833Y-69699238D01*
X216797071Y-69604000D01*
X216939928Y-69556380D01*
X217035166Y-69556380D01*
X217178023Y-69604000D01*
X217225642Y-69651619D01*
X218178023Y-70556380D02*
X217606595Y-70556380D01*
X217892309Y-70556380D02*
X217892309Y-69556380D01*
X217797071Y-69699238D01*
X217701833Y-69794476D01*
X217606595Y-69842095D01*
X218654214Y-70556380D02*
X218844690Y-70556380D01*
X218939928Y-70508761D01*
X218987547Y-70461142D01*
X219082785Y-70318285D01*
X219130404Y-70127809D01*
X219130404Y-69746857D01*
X219082785Y-69651619D01*
X219035166Y-69604000D01*
X218939928Y-69556380D01*
X218749452Y-69556380D01*
X218654214Y-69604000D01*
X218606595Y-69651619D01*
X218558976Y-69746857D01*
X218558976Y-69984952D01*
X218606595Y-70080190D01*
X218654214Y-70127809D01*
X218749452Y-70175428D01*
X218939928Y-70175428D01*
X219035166Y-70127809D01*
X219082785Y-70080190D01*
X219130404Y-69984952D01*
%TO.C,C20*%
X215368142Y-68446857D02*
X215415761Y-68494476D01*
X215463380Y-68637333D01*
X215463380Y-68732571D01*
X215415761Y-68875428D01*
X215320523Y-68970666D01*
X215225285Y-69018285D01*
X215034809Y-69065904D01*
X214891952Y-69065904D01*
X214701476Y-69018285D01*
X214606238Y-68970666D01*
X214511000Y-68875428D01*
X214463380Y-68732571D01*
X214463380Y-68637333D01*
X214511000Y-68494476D01*
X214558619Y-68446857D01*
X214558619Y-68065904D02*
X214511000Y-68018285D01*
X214463380Y-67923047D01*
X214463380Y-67684952D01*
X214511000Y-67589714D01*
X214558619Y-67542095D01*
X214653857Y-67494476D01*
X214749095Y-67494476D01*
X214891952Y-67542095D01*
X215463380Y-68113523D01*
X215463380Y-67494476D01*
X214463380Y-66875428D02*
X214463380Y-66780190D01*
X214511000Y-66684952D01*
X214558619Y-66637333D01*
X214653857Y-66589714D01*
X214844333Y-66542095D01*
X215082428Y-66542095D01*
X215272904Y-66589714D01*
X215368142Y-66637333D01*
X215415761Y-66684952D01*
X215463380Y-66780190D01*
X215463380Y-66875428D01*
X215415761Y-66970666D01*
X215368142Y-67018285D01*
X215272904Y-67065904D01*
X215082428Y-67113523D01*
X214844333Y-67113523D01*
X214653857Y-67065904D01*
X214558619Y-67018285D01*
X214511000Y-66970666D01*
X214463380Y-66875428D01*
%TO.C,C22*%
X192905142Y-40964142D02*
X192857523Y-41011761D01*
X192714666Y-41059380D01*
X192619428Y-41059380D01*
X192476571Y-41011761D01*
X192381333Y-40916523D01*
X192333714Y-40821285D01*
X192286095Y-40630809D01*
X192286095Y-40487952D01*
X192333714Y-40297476D01*
X192381333Y-40202238D01*
X192476571Y-40107000D01*
X192619428Y-40059380D01*
X192714666Y-40059380D01*
X192857523Y-40107000D01*
X192905142Y-40154619D01*
X193286095Y-40154619D02*
X193333714Y-40107000D01*
X193428952Y-40059380D01*
X193667047Y-40059380D01*
X193762285Y-40107000D01*
X193809904Y-40154619D01*
X193857523Y-40249857D01*
X193857523Y-40345095D01*
X193809904Y-40487952D01*
X193238476Y-41059380D01*
X193857523Y-41059380D01*
X194238476Y-40154619D02*
X194286095Y-40107000D01*
X194381333Y-40059380D01*
X194619428Y-40059380D01*
X194714666Y-40107000D01*
X194762285Y-40154619D01*
X194809904Y-40249857D01*
X194809904Y-40345095D01*
X194762285Y-40487952D01*
X194190857Y-41059380D01*
X194809904Y-41059380D01*
%TO.C,J15*%
X228603276Y-43851580D02*
X228603276Y-44565866D01*
X228555657Y-44708723D01*
X228460419Y-44803961D01*
X228317561Y-44851580D01*
X228222323Y-44851580D01*
X229603276Y-44851580D02*
X229031847Y-44851580D01*
X229317561Y-44851580D02*
X229317561Y-43851580D01*
X229222323Y-43994438D01*
X229127085Y-44089676D01*
X229031847Y-44137295D01*
X230508038Y-43851580D02*
X230031847Y-43851580D01*
X229984228Y-44327771D01*
X230031847Y-44280152D01*
X230127085Y-44232533D01*
X230365180Y-44232533D01*
X230460419Y-44280152D01*
X230508038Y-44327771D01*
X230555657Y-44423009D01*
X230555657Y-44661104D01*
X230508038Y-44756342D01*
X230460419Y-44803961D01*
X230365180Y-44851580D01*
X230127085Y-44851580D01*
X230031847Y-44803961D01*
X229984228Y-44756342D01*
%TO.C,J16*%
X195532476Y-65238380D02*
X195532476Y-65952666D01*
X195484857Y-66095523D01*
X195389619Y-66190761D01*
X195246761Y-66238380D01*
X195151523Y-66238380D01*
X196532476Y-66238380D02*
X195961047Y-66238380D01*
X196246761Y-66238380D02*
X196246761Y-65238380D01*
X196151523Y-65381238D01*
X196056285Y-65476476D01*
X195961047Y-65524095D01*
X197389619Y-65238380D02*
X197199142Y-65238380D01*
X197103904Y-65286000D01*
X197056285Y-65333619D01*
X196961047Y-65476476D01*
X196913428Y-65666952D01*
X196913428Y-66047904D01*
X196961047Y-66143142D01*
X197008666Y-66190761D01*
X197103904Y-66238380D01*
X197294380Y-66238380D01*
X197389619Y-66190761D01*
X197437238Y-66143142D01*
X197484857Y-66047904D01*
X197484857Y-65809809D01*
X197437238Y-65714571D01*
X197389619Y-65666952D01*
X197294380Y-65619333D01*
X197103904Y-65619333D01*
X197008666Y-65666952D01*
X196961047Y-65714571D01*
X196913428Y-65809809D01*
%TO.C,JP1*%
X228242761Y-73262976D02*
X228290380Y-73120119D01*
X228290380Y-72882023D01*
X228242761Y-72786785D01*
X228195142Y-72739166D01*
X228099904Y-72691547D01*
X228004666Y-72691547D01*
X227909428Y-72739166D01*
X227861809Y-72786785D01*
X227814190Y-72882023D01*
X227766571Y-73072500D01*
X227718952Y-73167738D01*
X227671333Y-73215357D01*
X227576095Y-73262976D01*
X227480857Y-73262976D01*
X227385619Y-73215357D01*
X227338000Y-73167738D01*
X227290380Y-73072500D01*
X227290380Y-72834404D01*
X227338000Y-72691547D01*
X228195142Y-71691547D02*
X228242761Y-71739166D01*
X228290380Y-71882023D01*
X228290380Y-71977261D01*
X228242761Y-72120119D01*
X228147523Y-72215357D01*
X228052285Y-72262976D01*
X227861809Y-72310595D01*
X227718952Y-72310595D01*
X227528476Y-72262976D01*
X227433238Y-72215357D01*
X227338000Y-72120119D01*
X227290380Y-71977261D01*
X227290380Y-71882023D01*
X227338000Y-71739166D01*
X227385619Y-71691547D01*
X228290380Y-70786785D02*
X228290380Y-71262976D01*
X227290380Y-71262976D01*
%TO.C,JP2*%
X225702761Y-73286785D02*
X225750380Y-73143928D01*
X225750380Y-72905833D01*
X225702761Y-72810595D01*
X225655142Y-72762976D01*
X225559904Y-72715357D01*
X225464666Y-72715357D01*
X225369428Y-72762976D01*
X225321809Y-72810595D01*
X225274190Y-72905833D01*
X225226571Y-73096309D01*
X225178952Y-73191547D01*
X225131333Y-73239166D01*
X225036095Y-73286785D01*
X224940857Y-73286785D01*
X224845619Y-73239166D01*
X224798000Y-73191547D01*
X224750380Y-73096309D01*
X224750380Y-72858214D01*
X224798000Y-72715357D01*
X225750380Y-72286785D02*
X224750380Y-72286785D01*
X224750380Y-72048690D01*
X224798000Y-71905833D01*
X224893238Y-71810595D01*
X224988476Y-71762976D01*
X225178952Y-71715357D01*
X225321809Y-71715357D01*
X225512285Y-71762976D01*
X225607523Y-71810595D01*
X225702761Y-71905833D01*
X225750380Y-72048690D01*
X225750380Y-72286785D01*
X225464666Y-71334404D02*
X225464666Y-70858214D01*
X225750380Y-71429642D02*
X224750380Y-71096309D01*
X225750380Y-70762976D01*
%TO.C,JP3*%
X219098880Y-44902333D02*
X219813166Y-44902333D01*
X219956023Y-44949952D01*
X220051261Y-45045190D01*
X220098880Y-45188047D01*
X220098880Y-45283285D01*
X220098880Y-44426142D02*
X219098880Y-44426142D01*
X219098880Y-44045190D01*
X219146500Y-43949952D01*
X219194119Y-43902333D01*
X219289357Y-43854714D01*
X219432214Y-43854714D01*
X219527452Y-43902333D01*
X219575071Y-43949952D01*
X219622690Y-44045190D01*
X219622690Y-44426142D01*
X219098880Y-43521380D02*
X219098880Y-42902333D01*
X219479833Y-43235666D01*
X219479833Y-43092809D01*
X219527452Y-42997571D01*
X219575071Y-42949952D01*
X219670309Y-42902333D01*
X219908404Y-42902333D01*
X220003642Y-42949952D01*
X220051261Y-42997571D01*
X220098880Y-43092809D01*
X220098880Y-43378523D01*
X220051261Y-43473761D01*
X220003642Y-43521380D01*
%TO.C,L1*%
X218654333Y-65793880D02*
X218178142Y-65793880D01*
X218178142Y-64793880D01*
X219511476Y-65793880D02*
X218940047Y-65793880D01*
X219225761Y-65793880D02*
X219225761Y-64793880D01*
X219130523Y-64936738D01*
X219035285Y-65031976D01*
X218940047Y-65079595D01*
%TO.C,R3*%
X195397380Y-68683166D02*
X194921190Y-69016500D01*
X195397380Y-69254595D02*
X194397380Y-69254595D01*
X194397380Y-68873642D01*
X194445000Y-68778404D01*
X194492619Y-68730785D01*
X194587857Y-68683166D01*
X194730714Y-68683166D01*
X194825952Y-68730785D01*
X194873571Y-68778404D01*
X194921190Y-68873642D01*
X194921190Y-69254595D01*
X194397380Y-68349833D02*
X194397380Y-67730785D01*
X194778333Y-68064119D01*
X194778333Y-67921261D01*
X194825952Y-67826023D01*
X194873571Y-67778404D01*
X194968809Y-67730785D01*
X195206904Y-67730785D01*
X195302142Y-67778404D01*
X195349761Y-67826023D01*
X195397380Y-67921261D01*
X195397380Y-68206976D01*
X195349761Y-68302214D01*
X195302142Y-68349833D01*
%TO.C,R4*%
X192492333Y-72715380D02*
X192159000Y-72239190D01*
X191920904Y-72715380D02*
X191920904Y-71715380D01*
X192301857Y-71715380D01*
X192397095Y-71763000D01*
X192444714Y-71810619D01*
X192492333Y-71905857D01*
X192492333Y-72048714D01*
X192444714Y-72143952D01*
X192397095Y-72191571D01*
X192301857Y-72239190D01*
X191920904Y-72239190D01*
X193349476Y-72048714D02*
X193349476Y-72715380D01*
X193111380Y-71667761D02*
X192873285Y-72382047D01*
X193492333Y-72382047D01*
%TO.C,R7*%
X187396380Y-65952666D02*
X186920190Y-66286000D01*
X187396380Y-66524095D02*
X186396380Y-66524095D01*
X186396380Y-66143142D01*
X186444000Y-66047904D01*
X186491619Y-66000285D01*
X186586857Y-65952666D01*
X186729714Y-65952666D01*
X186824952Y-66000285D01*
X186872571Y-66047904D01*
X186920190Y-66143142D01*
X186920190Y-66524095D01*
X186396380Y-65619333D02*
X186396380Y-64952666D01*
X187396380Y-65381238D01*
%TO.C,R8*%
X208478380Y-81383166D02*
X208002190Y-81716500D01*
X208478380Y-81954595D02*
X207478380Y-81954595D01*
X207478380Y-81573642D01*
X207526000Y-81478404D01*
X207573619Y-81430785D01*
X207668857Y-81383166D01*
X207811714Y-81383166D01*
X207906952Y-81430785D01*
X207954571Y-81478404D01*
X208002190Y-81573642D01*
X208002190Y-81954595D01*
X207906952Y-80811738D02*
X207859333Y-80906976D01*
X207811714Y-80954595D01*
X207716476Y-81002214D01*
X207668857Y-81002214D01*
X207573619Y-80954595D01*
X207526000Y-80906976D01*
X207478380Y-80811738D01*
X207478380Y-80621261D01*
X207526000Y-80526023D01*
X207573619Y-80478404D01*
X207668857Y-80430785D01*
X207716476Y-80430785D01*
X207811714Y-80478404D01*
X207859333Y-80526023D01*
X207906952Y-80621261D01*
X207906952Y-80811738D01*
X207954571Y-80906976D01*
X208002190Y-80954595D01*
X208097428Y-81002214D01*
X208287904Y-81002214D01*
X208383142Y-80954595D01*
X208430761Y-80906976D01*
X208478380Y-80811738D01*
X208478380Y-80621261D01*
X208430761Y-80526023D01*
X208383142Y-80478404D01*
X208287904Y-80430785D01*
X208097428Y-80430785D01*
X208002190Y-80478404D01*
X207954571Y-80526023D01*
X207906952Y-80621261D01*
%TO.C,R9*%
X207495380Y-70778666D02*
X207019190Y-71112000D01*
X207495380Y-71350095D02*
X206495380Y-71350095D01*
X206495380Y-70969142D01*
X206543000Y-70873904D01*
X206590619Y-70826285D01*
X206685857Y-70778666D01*
X206828714Y-70778666D01*
X206923952Y-70826285D01*
X206971571Y-70873904D01*
X207019190Y-70969142D01*
X207019190Y-71350095D01*
X207495380Y-70302476D02*
X207495380Y-70112000D01*
X207447761Y-70016761D01*
X207400142Y-69969142D01*
X207257285Y-69873904D01*
X207066809Y-69826285D01*
X206685857Y-69826285D01*
X206590619Y-69873904D01*
X206543000Y-69921523D01*
X206495380Y-70016761D01*
X206495380Y-70207238D01*
X206543000Y-70302476D01*
X206590619Y-70350095D01*
X206685857Y-70397714D01*
X206923952Y-70397714D01*
X207019190Y-70350095D01*
X207066809Y-70302476D01*
X207114428Y-70207238D01*
X207114428Y-70016761D01*
X207066809Y-69921523D01*
X207019190Y-69873904D01*
X206923952Y-69826285D01*
%TO.C,R19*%
X216273142Y-47315380D02*
X215939809Y-46839190D01*
X215701714Y-47315380D02*
X215701714Y-46315380D01*
X216082666Y-46315380D01*
X216177904Y-46363000D01*
X216225523Y-46410619D01*
X216273142Y-46505857D01*
X216273142Y-46648714D01*
X216225523Y-46743952D01*
X216177904Y-46791571D01*
X216082666Y-46839190D01*
X215701714Y-46839190D01*
X217225523Y-47315380D02*
X216654095Y-47315380D01*
X216939809Y-47315380D02*
X216939809Y-46315380D01*
X216844571Y-46458238D01*
X216749333Y-46553476D01*
X216654095Y-46601095D01*
X217701714Y-47315380D02*
X217892190Y-47315380D01*
X217987428Y-47267761D01*
X218035047Y-47220142D01*
X218130285Y-47077285D01*
X218177904Y-46886809D01*
X218177904Y-46505857D01*
X218130285Y-46410619D01*
X218082666Y-46363000D01*
X217987428Y-46315380D01*
X217796952Y-46315380D01*
X217701714Y-46363000D01*
X217654095Y-46410619D01*
X217606476Y-46505857D01*
X217606476Y-46743952D01*
X217654095Y-46839190D01*
X217701714Y-46886809D01*
X217796952Y-46934428D01*
X217987428Y-46934428D01*
X218082666Y-46886809D01*
X218130285Y-46839190D01*
X218177904Y-46743952D01*
%TO.C,R26*%
X217939880Y-44457857D02*
X217463690Y-44791190D01*
X217939880Y-45029285D02*
X216939880Y-45029285D01*
X216939880Y-44648333D01*
X216987500Y-44553095D01*
X217035119Y-44505476D01*
X217130357Y-44457857D01*
X217273214Y-44457857D01*
X217368452Y-44505476D01*
X217416071Y-44553095D01*
X217463690Y-44648333D01*
X217463690Y-45029285D01*
X217035119Y-44076904D02*
X216987500Y-44029285D01*
X216939880Y-43934047D01*
X216939880Y-43695952D01*
X216987500Y-43600714D01*
X217035119Y-43553095D01*
X217130357Y-43505476D01*
X217225595Y-43505476D01*
X217368452Y-43553095D01*
X217939880Y-44124523D01*
X217939880Y-43505476D01*
X216939880Y-42648333D02*
X216939880Y-42838809D01*
X216987500Y-42934047D01*
X217035119Y-42981666D01*
X217177976Y-43076904D01*
X217368452Y-43124523D01*
X217749404Y-43124523D01*
X217844642Y-43076904D01*
X217892261Y-43029285D01*
X217939880Y-42934047D01*
X217939880Y-42743571D01*
X217892261Y-42648333D01*
X217844642Y-42600714D01*
X217749404Y-42553095D01*
X217511309Y-42553095D01*
X217416071Y-42600714D01*
X217368452Y-42648333D01*
X217320833Y-42743571D01*
X217320833Y-42934047D01*
X217368452Y-43029285D01*
X217416071Y-43076904D01*
X217511309Y-43124523D01*
%TO.C,R27*%
X221686380Y-68333857D02*
X221210190Y-68667190D01*
X221686380Y-68905285D02*
X220686380Y-68905285D01*
X220686380Y-68524333D01*
X220734000Y-68429095D01*
X220781619Y-68381476D01*
X220876857Y-68333857D01*
X221019714Y-68333857D01*
X221114952Y-68381476D01*
X221162571Y-68429095D01*
X221210190Y-68524333D01*
X221210190Y-68905285D01*
X220781619Y-67952904D02*
X220734000Y-67905285D01*
X220686380Y-67810047D01*
X220686380Y-67571952D01*
X220734000Y-67476714D01*
X220781619Y-67429095D01*
X220876857Y-67381476D01*
X220972095Y-67381476D01*
X221114952Y-67429095D01*
X221686380Y-68000523D01*
X221686380Y-67381476D01*
X220686380Y-67048142D02*
X220686380Y-66381476D01*
X221686380Y-66810047D01*
%TO.C,R31*%
X229481142Y-61920380D02*
X229147809Y-61444190D01*
X228909714Y-61920380D02*
X228909714Y-60920380D01*
X229290666Y-60920380D01*
X229385904Y-60968000D01*
X229433523Y-61015619D01*
X229481142Y-61110857D01*
X229481142Y-61253714D01*
X229433523Y-61348952D01*
X229385904Y-61396571D01*
X229290666Y-61444190D01*
X228909714Y-61444190D01*
X229814476Y-60920380D02*
X230433523Y-60920380D01*
X230100190Y-61301333D01*
X230243047Y-61301333D01*
X230338285Y-61348952D01*
X230385904Y-61396571D01*
X230433523Y-61491809D01*
X230433523Y-61729904D01*
X230385904Y-61825142D01*
X230338285Y-61872761D01*
X230243047Y-61920380D01*
X229957333Y-61920380D01*
X229862095Y-61872761D01*
X229814476Y-61825142D01*
X231385904Y-61920380D02*
X230814476Y-61920380D01*
X231100190Y-61920380D02*
X231100190Y-60920380D01*
X231004952Y-61063238D01*
X230909714Y-61158476D01*
X230814476Y-61206095D01*
%TO.C,R32*%
X229481142Y-65222380D02*
X229147809Y-64746190D01*
X228909714Y-65222380D02*
X228909714Y-64222380D01*
X229290666Y-64222380D01*
X229385904Y-64270000D01*
X229433523Y-64317619D01*
X229481142Y-64412857D01*
X229481142Y-64555714D01*
X229433523Y-64650952D01*
X229385904Y-64698571D01*
X229290666Y-64746190D01*
X228909714Y-64746190D01*
X229814476Y-64222380D02*
X230433523Y-64222380D01*
X230100190Y-64603333D01*
X230243047Y-64603333D01*
X230338285Y-64650952D01*
X230385904Y-64698571D01*
X230433523Y-64793809D01*
X230433523Y-65031904D01*
X230385904Y-65127142D01*
X230338285Y-65174761D01*
X230243047Y-65222380D01*
X229957333Y-65222380D01*
X229862095Y-65174761D01*
X229814476Y-65127142D01*
X230814476Y-64317619D02*
X230862095Y-64270000D01*
X230957333Y-64222380D01*
X231195428Y-64222380D01*
X231290666Y-64270000D01*
X231338285Y-64317619D01*
X231385904Y-64412857D01*
X231385904Y-64508095D01*
X231338285Y-64650952D01*
X230766857Y-65222380D01*
X231385904Y-65222380D01*
%TO.C,R33*%
X222067380Y-44648357D02*
X221591190Y-44981690D01*
X222067380Y-45219785D02*
X221067380Y-45219785D01*
X221067380Y-44838833D01*
X221115000Y-44743595D01*
X221162619Y-44695976D01*
X221257857Y-44648357D01*
X221400714Y-44648357D01*
X221495952Y-44695976D01*
X221543571Y-44743595D01*
X221591190Y-44838833D01*
X221591190Y-45219785D01*
X221067380Y-44315023D02*
X221067380Y-43695976D01*
X221448333Y-44029309D01*
X221448333Y-43886452D01*
X221495952Y-43791214D01*
X221543571Y-43743595D01*
X221638809Y-43695976D01*
X221876904Y-43695976D01*
X221972142Y-43743595D01*
X222019761Y-43791214D01*
X222067380Y-43886452D01*
X222067380Y-44172166D01*
X222019761Y-44267404D01*
X221972142Y-44315023D01*
X221067380Y-43362642D02*
X221067380Y-42743595D01*
X221448333Y-43076928D01*
X221448333Y-42934071D01*
X221495952Y-42838833D01*
X221543571Y-42791214D01*
X221638809Y-42743595D01*
X221876904Y-42743595D01*
X221972142Y-42791214D01*
X222019761Y-42838833D01*
X222067380Y-42934071D01*
X222067380Y-43219785D01*
X222019761Y-43315023D01*
X221972142Y-43362642D01*
%TO.C,Y1*%
X208007190Y-50715190D02*
X208483380Y-50715190D01*
X207483380Y-51048523D02*
X208007190Y-50715190D01*
X207483380Y-50381857D01*
X208483380Y-49524714D02*
X208483380Y-50096142D01*
X208483380Y-49810428D02*
X207483380Y-49810428D01*
X207626238Y-49905666D01*
X207721476Y-50000904D01*
X207769095Y-50096142D01*
%TO.C,C2*%
X199396642Y-74130166D02*
X199444261Y-74177785D01*
X199491880Y-74320642D01*
X199491880Y-74415880D01*
X199444261Y-74558738D01*
X199349023Y-74653976D01*
X199253785Y-74701595D01*
X199063309Y-74749214D01*
X198920452Y-74749214D01*
X198729976Y-74701595D01*
X198634738Y-74653976D01*
X198539500Y-74558738D01*
X198491880Y-74415880D01*
X198491880Y-74320642D01*
X198539500Y-74177785D01*
X198587119Y-74130166D01*
X198587119Y-73749214D02*
X198539500Y-73701595D01*
X198491880Y-73606357D01*
X198491880Y-73368261D01*
X198539500Y-73273023D01*
X198587119Y-73225404D01*
X198682357Y-73177785D01*
X198777595Y-73177785D01*
X198920452Y-73225404D01*
X199491880Y-73796833D01*
X199491880Y-73177785D01*
%TO.C,D7*%
X224988380Y-61507595D02*
X223988380Y-61507595D01*
X223988380Y-61269500D01*
X224036000Y-61126642D01*
X224131238Y-61031404D01*
X224226476Y-60983785D01*
X224416952Y-60936166D01*
X224559809Y-60936166D01*
X224750285Y-60983785D01*
X224845523Y-61031404D01*
X224940761Y-61126642D01*
X224988380Y-61269500D01*
X224988380Y-61507595D01*
X223988380Y-60602833D02*
X223988380Y-59936166D01*
X224988380Y-60364738D01*
%TO.C,Q1*%
X220456261Y-55665619D02*
X220361023Y-55618000D01*
X220265785Y-55522761D01*
X220122928Y-55379904D01*
X220027690Y-55332285D01*
X219932452Y-55332285D01*
X219980071Y-55570380D02*
X219884833Y-55522761D01*
X219789595Y-55427523D01*
X219741976Y-55237047D01*
X219741976Y-54903714D01*
X219789595Y-54713238D01*
X219884833Y-54618000D01*
X219980071Y-54570380D01*
X220170547Y-54570380D01*
X220265785Y-54618000D01*
X220361023Y-54713238D01*
X220408642Y-54903714D01*
X220408642Y-55237047D01*
X220361023Y-55427523D01*
X220265785Y-55522761D01*
X220170547Y-55570380D01*
X219980071Y-55570380D01*
X221361023Y-55570380D02*
X220789595Y-55570380D01*
X221075309Y-55570380D02*
X221075309Y-54570380D01*
X220980071Y-54713238D01*
X220884833Y-54808476D01*
X220789595Y-54856095D01*
%TO.C,R1*%
X201255333Y-70429380D02*
X200922000Y-69953190D01*
X200683904Y-70429380D02*
X200683904Y-69429380D01*
X201064857Y-69429380D01*
X201160095Y-69477000D01*
X201207714Y-69524619D01*
X201255333Y-69619857D01*
X201255333Y-69762714D01*
X201207714Y-69857952D01*
X201160095Y-69905571D01*
X201064857Y-69953190D01*
X200683904Y-69953190D01*
X202207714Y-70429380D02*
X201636285Y-70429380D01*
X201922000Y-70429380D02*
X201922000Y-69429380D01*
X201826761Y-69572238D01*
X201731523Y-69667476D01*
X201636285Y-69715095D01*
%TO.C,R2*%
X204414380Y-72239166D02*
X203938190Y-72572500D01*
X204414380Y-72810595D02*
X203414380Y-72810595D01*
X203414380Y-72429642D01*
X203462000Y-72334404D01*
X203509619Y-72286785D01*
X203604857Y-72239166D01*
X203747714Y-72239166D01*
X203842952Y-72286785D01*
X203890571Y-72334404D01*
X203938190Y-72429642D01*
X203938190Y-72810595D01*
X203509619Y-71858214D02*
X203462000Y-71810595D01*
X203414380Y-71715357D01*
X203414380Y-71477261D01*
X203462000Y-71382023D01*
X203509619Y-71334404D01*
X203604857Y-71286785D01*
X203700095Y-71286785D01*
X203842952Y-71334404D01*
X204414380Y-71905833D01*
X204414380Y-71286785D01*
%TO.C,R5*%
X223591380Y-53316166D02*
X223115190Y-53649500D01*
X223591380Y-53887595D02*
X222591380Y-53887595D01*
X222591380Y-53506642D01*
X222639000Y-53411404D01*
X222686619Y-53363785D01*
X222781857Y-53316166D01*
X222924714Y-53316166D01*
X223019952Y-53363785D01*
X223067571Y-53411404D01*
X223115190Y-53506642D01*
X223115190Y-53887595D01*
X222591380Y-52411404D02*
X222591380Y-52887595D01*
X223067571Y-52935214D01*
X223019952Y-52887595D01*
X222972333Y-52792357D01*
X222972333Y-52554261D01*
X223019952Y-52459023D01*
X223067571Y-52411404D01*
X223162809Y-52363785D01*
X223400904Y-52363785D01*
X223496142Y-52411404D01*
X223543761Y-52459023D01*
X223591380Y-52554261D01*
X223591380Y-52792357D01*
X223543761Y-52887595D01*
X223496142Y-52935214D01*
%TO.C,RN4*%
X201223880Y-77740476D02*
X200747690Y-78073809D01*
X201223880Y-78311904D02*
X200223880Y-78311904D01*
X200223880Y-77930952D01*
X200271500Y-77835714D01*
X200319119Y-77788095D01*
X200414357Y-77740476D01*
X200557214Y-77740476D01*
X200652452Y-77788095D01*
X200700071Y-77835714D01*
X200747690Y-77930952D01*
X200747690Y-78311904D01*
X201223880Y-77311904D02*
X200223880Y-77311904D01*
X201223880Y-76740476D01*
X200223880Y-76740476D01*
X200557214Y-75835714D02*
X201223880Y-75835714D01*
X200176261Y-76073809D02*
X200890547Y-76311904D01*
X200890547Y-75692857D01*
%TD*%
M02*
