%TF.GenerationSoftware,KiCad,Pcbnew,(5.1.6)-1*%
%TF.CreationDate,2020-12-16T03:54:26+01:00*%
%TF.ProjectId,envboard,656e7662-6f61-4726-942e-6b696361645f,rev?*%
%TF.SameCoordinates,Original*%
%TF.FileFunction,Paste,Top*%
%TF.FilePolarity,Positive*%
%FSLAX46Y46*%
G04 Gerber Fmt 4.6, Leading zero omitted, Abs format (unit mm)*
G04 Created by KiCad (PCBNEW (5.1.6)-1) date 2020-12-16 03:54:26*
%MOMM*%
%LPD*%
G01*
G04 APERTURE LIST*
%ADD10R,0.500000X0.350000*%
%ADD11R,3.000000X1.400000*%
G04 APERTURE END LIST*
D10*
%TO.C,U2*%
X52400000Y-50900000D03*
X54000000Y-51550000D03*
X54000000Y-52200000D03*
X54000000Y-52850000D03*
X52400000Y-51550000D03*
X52400000Y-52200000D03*
X52400000Y-52850000D03*
X54000000Y-50900000D03*
%TD*%
%TO.C,U1*%
G36*
G01*
X44700000Y-53475000D02*
X44700000Y-53675000D01*
G75*
G02*
X44600000Y-53775000I-100000J0D01*
G01*
X43175000Y-53775000D01*
G75*
G02*
X43075000Y-53675000I0J100000D01*
G01*
X43075000Y-53475000D01*
G75*
G02*
X43175000Y-53375000I100000J0D01*
G01*
X44600000Y-53375000D01*
G75*
G02*
X44700000Y-53475000I0J-100000D01*
G01*
G37*
G36*
G01*
X44700000Y-52825000D02*
X44700000Y-53025000D01*
G75*
G02*
X44600000Y-53125000I-100000J0D01*
G01*
X43175000Y-53125000D01*
G75*
G02*
X43075000Y-53025000I0J100000D01*
G01*
X43075000Y-52825000D01*
G75*
G02*
X43175000Y-52725000I100000J0D01*
G01*
X44600000Y-52725000D01*
G75*
G02*
X44700000Y-52825000I0J-100000D01*
G01*
G37*
G36*
G01*
X44700000Y-52175000D02*
X44700000Y-52375000D01*
G75*
G02*
X44600000Y-52475000I-100000J0D01*
G01*
X43175000Y-52475000D01*
G75*
G02*
X43075000Y-52375000I0J100000D01*
G01*
X43075000Y-52175000D01*
G75*
G02*
X43175000Y-52075000I100000J0D01*
G01*
X44600000Y-52075000D01*
G75*
G02*
X44700000Y-52175000I0J-100000D01*
G01*
G37*
G36*
G01*
X44700000Y-51525000D02*
X44700000Y-51725000D01*
G75*
G02*
X44600000Y-51825000I-100000J0D01*
G01*
X43175000Y-51825000D01*
G75*
G02*
X43075000Y-51725000I0J100000D01*
G01*
X43075000Y-51525000D01*
G75*
G02*
X43175000Y-51425000I100000J0D01*
G01*
X44600000Y-51425000D01*
G75*
G02*
X44700000Y-51525000I0J-100000D01*
G01*
G37*
G36*
G01*
X48925000Y-51525000D02*
X48925000Y-51725000D01*
G75*
G02*
X48825000Y-51825000I-100000J0D01*
G01*
X47400000Y-51825000D01*
G75*
G02*
X47300000Y-51725000I0J100000D01*
G01*
X47300000Y-51525000D01*
G75*
G02*
X47400000Y-51425000I100000J0D01*
G01*
X48825000Y-51425000D01*
G75*
G02*
X48925000Y-51525000I0J-100000D01*
G01*
G37*
G36*
G01*
X48925000Y-52175000D02*
X48925000Y-52375000D01*
G75*
G02*
X48825000Y-52475000I-100000J0D01*
G01*
X47400000Y-52475000D01*
G75*
G02*
X47300000Y-52375000I0J100000D01*
G01*
X47300000Y-52175000D01*
G75*
G02*
X47400000Y-52075000I100000J0D01*
G01*
X48825000Y-52075000D01*
G75*
G02*
X48925000Y-52175000I0J-100000D01*
G01*
G37*
G36*
G01*
X48925000Y-52825000D02*
X48925000Y-53025000D01*
G75*
G02*
X48825000Y-53125000I-100000J0D01*
G01*
X47400000Y-53125000D01*
G75*
G02*
X47300000Y-53025000I0J100000D01*
G01*
X47300000Y-52825000D01*
G75*
G02*
X47400000Y-52725000I100000J0D01*
G01*
X48825000Y-52725000D01*
G75*
G02*
X48925000Y-52825000I0J-100000D01*
G01*
G37*
G36*
G01*
X48925000Y-53475000D02*
X48925000Y-53675000D01*
G75*
G02*
X48825000Y-53775000I-100000J0D01*
G01*
X47400000Y-53775000D01*
G75*
G02*
X47300000Y-53675000I0J100000D01*
G01*
X47300000Y-53475000D01*
G75*
G02*
X47400000Y-53375000I100000J0D01*
G01*
X48825000Y-53375000D01*
G75*
G02*
X48925000Y-53475000I0J-100000D01*
G01*
G37*
%TD*%
D11*
%TO.C,SW1*%
X49500000Y-46500000D03*
X57500000Y-46500000D03*
%TD*%
%TO.C,C2*%
G36*
G01*
X50956250Y-52537500D02*
X50443750Y-52537500D01*
G75*
G02*
X50225000Y-52318750I0J218750D01*
G01*
X50225000Y-51881250D01*
G75*
G02*
X50443750Y-51662500I218750J0D01*
G01*
X50956250Y-51662500D01*
G75*
G02*
X51175000Y-51881250I0J-218750D01*
G01*
X51175000Y-52318750D01*
G75*
G02*
X50956250Y-52537500I-218750J0D01*
G01*
G37*
G36*
G01*
X50956250Y-54112500D02*
X50443750Y-54112500D01*
G75*
G02*
X50225000Y-53893750I0J218750D01*
G01*
X50225000Y-53456250D01*
G75*
G02*
X50443750Y-53237500I218750J0D01*
G01*
X50956250Y-53237500D01*
G75*
G02*
X51175000Y-53456250I0J-218750D01*
G01*
X51175000Y-53893750D01*
G75*
G02*
X50956250Y-54112500I-218750J0D01*
G01*
G37*
%TD*%
%TO.C,C1*%
G36*
G01*
X49837500Y-49743750D02*
X49837500Y-50256250D01*
G75*
G02*
X49618750Y-50475000I-218750J0D01*
G01*
X49181250Y-50475000D01*
G75*
G02*
X48962500Y-50256250I0J218750D01*
G01*
X48962500Y-49743750D01*
G75*
G02*
X49181250Y-49525000I218750J0D01*
G01*
X49618750Y-49525000D01*
G75*
G02*
X49837500Y-49743750I0J-218750D01*
G01*
G37*
G36*
G01*
X51412500Y-49743750D02*
X51412500Y-50256250D01*
G75*
G02*
X51193750Y-50475000I-218750J0D01*
G01*
X50756250Y-50475000D01*
G75*
G02*
X50537500Y-50256250I0J218750D01*
G01*
X50537500Y-49743750D01*
G75*
G02*
X50756250Y-49525000I218750J0D01*
G01*
X51193750Y-49525000D01*
G75*
G02*
X51412500Y-49743750I0J-218750D01*
G01*
G37*
%TD*%
M02*
