%TF.GenerationSoftware,KiCad,Pcbnew,(5.1.6)-1*%
%TF.CreationDate,2020-12-16T03:54:26+01:00*%
%TF.ProjectId,envboard,656e7662-6f61-4726-942e-6b696361645f,rev?*%
%TF.SameCoordinates,Original*%
%TF.FileFunction,Copper,L1,Top*%
%TF.FilePolarity,Positive*%
%FSLAX46Y46*%
G04 Gerber Fmt 4.6, Leading zero omitted, Abs format (unit mm)*
G04 Created by KiCad (PCBNEW (5.1.6)-1) date 2020-12-16 03:54:26*
%MOMM*%
%LPD*%
G01*
G04 APERTURE LIST*
%TA.AperFunction,SMDPad,CuDef*%
%ADD10R,0.500000X0.350000*%
%TD*%
%TA.AperFunction,SMDPad,CuDef*%
%ADD11R,3.000000X1.400000*%
%TD*%
%TA.AperFunction,ComponentPad*%
%ADD12C,0.700000*%
%TD*%
%TA.AperFunction,ComponentPad*%
%ADD13C,4.400000*%
%TD*%
%TA.AperFunction,ViaPad*%
%ADD14C,0.800000*%
%TD*%
%TA.AperFunction,Conductor*%
%ADD15C,0.250000*%
%TD*%
G04 APERTURE END LIST*
D10*
%TO.P,U2,8*%
%TO.N,+3V3*%
X52400000Y-50900000D03*
%TO.P,U2,2*%
X54000000Y-51550000D03*
%TO.P,U2,3*%
%TO.N,SDA*%
X54000000Y-52200000D03*
%TO.P,U2,4*%
%TO.N,SCL*%
X54000000Y-52850000D03*
%TO.P,U2,7*%
%TO.N,GND*%
X52400000Y-51550000D03*
%TO.P,U2,6*%
%TO.N,+3V3*%
X52400000Y-52200000D03*
%TO.P,U2,5*%
X52400000Y-52850000D03*
%TO.P,U2,1*%
%TO.N,GND*%
X54000000Y-50900000D03*
%TD*%
%TO.P,U1,8*%
%TO.N,+3V3*%
%TA.AperFunction,SMDPad,CuDef*%
G36*
G01*
X44700000Y-53475000D02*
X44700000Y-53675000D01*
G75*
G02*
X44600000Y-53775000I-100000J0D01*
G01*
X43175000Y-53775000D01*
G75*
G02*
X43075000Y-53675000I0J100000D01*
G01*
X43075000Y-53475000D01*
G75*
G02*
X43175000Y-53375000I100000J0D01*
G01*
X44600000Y-53375000D01*
G75*
G02*
X44700000Y-53475000I0J-100000D01*
G01*
G37*
%TD.AperFunction*%
%TO.P,U1,7*%
%TO.N,Net-(U1-Pad7)*%
%TA.AperFunction,SMDPad,CuDef*%
G36*
G01*
X44700000Y-52825000D02*
X44700000Y-53025000D01*
G75*
G02*
X44600000Y-53125000I-100000J0D01*
G01*
X43175000Y-53125000D01*
G75*
G02*
X43075000Y-53025000I0J100000D01*
G01*
X43075000Y-52825000D01*
G75*
G02*
X43175000Y-52725000I100000J0D01*
G01*
X44600000Y-52725000D01*
G75*
G02*
X44700000Y-52825000I0J-100000D01*
G01*
G37*
%TD.AperFunction*%
%TO.P,U1,6*%
%TO.N,Net-(U1-Pad6)*%
%TA.AperFunction,SMDPad,CuDef*%
G36*
G01*
X44700000Y-52175000D02*
X44700000Y-52375000D01*
G75*
G02*
X44600000Y-52475000I-100000J0D01*
G01*
X43175000Y-52475000D01*
G75*
G02*
X43075000Y-52375000I0J100000D01*
G01*
X43075000Y-52175000D01*
G75*
G02*
X43175000Y-52075000I100000J0D01*
G01*
X44600000Y-52075000D01*
G75*
G02*
X44700000Y-52175000I0J-100000D01*
G01*
G37*
%TD.AperFunction*%
%TO.P,U1,5*%
%TO.N,Net-(U1-Pad5)*%
%TA.AperFunction,SMDPad,CuDef*%
G36*
G01*
X44700000Y-51525000D02*
X44700000Y-51725000D01*
G75*
G02*
X44600000Y-51825000I-100000J0D01*
G01*
X43175000Y-51825000D01*
G75*
G02*
X43075000Y-51725000I0J100000D01*
G01*
X43075000Y-51525000D01*
G75*
G02*
X43175000Y-51425000I100000J0D01*
G01*
X44600000Y-51425000D01*
G75*
G02*
X44700000Y-51525000I0J-100000D01*
G01*
G37*
%TD.AperFunction*%
%TO.P,U1,4*%
%TO.N,GND*%
%TA.AperFunction,SMDPad,CuDef*%
G36*
G01*
X48925000Y-51525000D02*
X48925000Y-51725000D01*
G75*
G02*
X48825000Y-51825000I-100000J0D01*
G01*
X47400000Y-51825000D01*
G75*
G02*
X47300000Y-51725000I0J100000D01*
G01*
X47300000Y-51525000D01*
G75*
G02*
X47400000Y-51425000I100000J0D01*
G01*
X48825000Y-51425000D01*
G75*
G02*
X48925000Y-51525000I0J-100000D01*
G01*
G37*
%TD.AperFunction*%
%TO.P,U1,3*%
%TO.N,Net-(U1-Pad3)*%
%TA.AperFunction,SMDPad,CuDef*%
G36*
G01*
X48925000Y-52175000D02*
X48925000Y-52375000D01*
G75*
G02*
X48825000Y-52475000I-100000J0D01*
G01*
X47400000Y-52475000D01*
G75*
G02*
X47300000Y-52375000I0J100000D01*
G01*
X47300000Y-52175000D01*
G75*
G02*
X47400000Y-52075000I100000J0D01*
G01*
X48825000Y-52075000D01*
G75*
G02*
X48925000Y-52175000I0J-100000D01*
G01*
G37*
%TD.AperFunction*%
%TO.P,U1,2*%
%TO.N,Net-(U1-Pad2)*%
%TA.AperFunction,SMDPad,CuDef*%
G36*
G01*
X48925000Y-52825000D02*
X48925000Y-53025000D01*
G75*
G02*
X48825000Y-53125000I-100000J0D01*
G01*
X47400000Y-53125000D01*
G75*
G02*
X47300000Y-53025000I0J100000D01*
G01*
X47300000Y-52825000D01*
G75*
G02*
X47400000Y-52725000I100000J0D01*
G01*
X48825000Y-52725000D01*
G75*
G02*
X48925000Y-52825000I0J-100000D01*
G01*
G37*
%TD.AperFunction*%
%TO.P,U1,1*%
%TO.N,TEMP*%
%TA.AperFunction,SMDPad,CuDef*%
G36*
G01*
X48925000Y-53475000D02*
X48925000Y-53675000D01*
G75*
G02*
X48825000Y-53775000I-100000J0D01*
G01*
X47400000Y-53775000D01*
G75*
G02*
X47300000Y-53675000I0J100000D01*
G01*
X47300000Y-53475000D01*
G75*
G02*
X47400000Y-53375000I100000J0D01*
G01*
X48825000Y-53375000D01*
G75*
G02*
X48925000Y-53475000I0J-100000D01*
G01*
G37*
%TD.AperFunction*%
%TD*%
D11*
%TO.P,SW1,1*%
%TO.N,+3V3*%
X49500000Y-46500000D03*
%TO.P,SW1,2*%
%TO.N,BUTTON*%
X57500000Y-46500000D03*
%TD*%
D12*
%TO.P,H2,1*%
%TO.N,GND*%
X58333452Y-51083274D03*
X57166726Y-50600000D03*
X56000000Y-51083274D03*
X55516726Y-52250000D03*
X56000000Y-53416726D03*
X57166726Y-53900000D03*
X58333452Y-53416726D03*
X58816726Y-52250000D03*
D13*
X57166726Y-52250000D03*
%TD*%
D12*
%TO.P,H1,1*%
%TO.N,GND*%
X45916726Y-45083274D03*
X44750000Y-44600000D03*
X43583274Y-45083274D03*
X43100000Y-46250000D03*
X43583274Y-47416726D03*
X44750000Y-47900000D03*
X45916726Y-47416726D03*
X46400000Y-46250000D03*
D13*
X44750000Y-46250000D03*
%TD*%
%TO.P,C2,2*%
%TO.N,GND*%
%TA.AperFunction,SMDPad,CuDef*%
G36*
G01*
X50956250Y-52537500D02*
X50443750Y-52537500D01*
G75*
G02*
X50225000Y-52318750I0J218750D01*
G01*
X50225000Y-51881250D01*
G75*
G02*
X50443750Y-51662500I218750J0D01*
G01*
X50956250Y-51662500D01*
G75*
G02*
X51175000Y-51881250I0J-218750D01*
G01*
X51175000Y-52318750D01*
G75*
G02*
X50956250Y-52537500I-218750J0D01*
G01*
G37*
%TD.AperFunction*%
%TO.P,C2,1*%
%TO.N,+3V3*%
%TA.AperFunction,SMDPad,CuDef*%
G36*
G01*
X50956250Y-54112500D02*
X50443750Y-54112500D01*
G75*
G02*
X50225000Y-53893750I0J218750D01*
G01*
X50225000Y-53456250D01*
G75*
G02*
X50443750Y-53237500I218750J0D01*
G01*
X50956250Y-53237500D01*
G75*
G02*
X51175000Y-53456250I0J-218750D01*
G01*
X51175000Y-53893750D01*
G75*
G02*
X50956250Y-54112500I-218750J0D01*
G01*
G37*
%TD.AperFunction*%
%TD*%
%TO.P,C1,2*%
%TO.N,GND*%
%TA.AperFunction,SMDPad,CuDef*%
G36*
G01*
X49837500Y-49743750D02*
X49837500Y-50256250D01*
G75*
G02*
X49618750Y-50475000I-218750J0D01*
G01*
X49181250Y-50475000D01*
G75*
G02*
X48962500Y-50256250I0J218750D01*
G01*
X48962500Y-49743750D01*
G75*
G02*
X49181250Y-49525000I218750J0D01*
G01*
X49618750Y-49525000D01*
G75*
G02*
X49837500Y-49743750I0J-218750D01*
G01*
G37*
%TD.AperFunction*%
%TO.P,C1,1*%
%TO.N,+3V3*%
%TA.AperFunction,SMDPad,CuDef*%
G36*
G01*
X51412500Y-49743750D02*
X51412500Y-50256250D01*
G75*
G02*
X51193750Y-50475000I-218750J0D01*
G01*
X50756250Y-50475000D01*
G75*
G02*
X50537500Y-50256250I0J218750D01*
G01*
X50537500Y-49743750D01*
G75*
G02*
X50756250Y-49525000I218750J0D01*
G01*
X51193750Y-49525000D01*
G75*
G02*
X51412500Y-49743750I0J-218750D01*
G01*
G37*
%TD.AperFunction*%
%TD*%
D14*
%TO.N,GND*%
X50647600Y-51663600D03*
X46250000Y-53250000D03*
%TO.N,+3V3*%
X52500000Y-46750000D03*
%TO.N,BUTTON*%
X53850001Y-50124998D03*
%TO.N,TEMP*%
X48250000Y-53750000D03*
%TO.N,SCL*%
X54000000Y-53750000D03*
%TO.N,SDA*%
X55750000Y-49500000D03*
%TD*%
D15*
%TO.N,GND*%
X48500000Y-50000000D02*
X44750000Y-46250000D01*
X49400000Y-50000000D02*
X48500000Y-50000000D01*
X46250000Y-52661410D02*
X46250000Y-53250000D01*
X48112500Y-51625000D02*
X47286410Y-51625000D01*
X47286410Y-51625000D02*
X46250000Y-52661410D01*
X53639998Y-50900000D02*
X54000000Y-50900000D01*
X52989998Y-51550000D02*
X53639998Y-50900000D01*
X52400000Y-51550000D02*
X52989998Y-51550000D01*
X50609000Y-51625000D02*
X50647600Y-51663600D01*
X48112500Y-51625000D02*
X50609000Y-51625000D01*
X50700000Y-52100000D02*
X50668400Y-52100000D01*
X50647600Y-52079200D02*
X50647600Y-51663600D01*
X50668400Y-52100000D02*
X50647600Y-52079200D01*
X50761200Y-51550000D02*
X50647600Y-51663600D01*
X52400000Y-51550000D02*
X50761200Y-51550000D01*
%TO.N,+3V3*%
X50174990Y-50800010D02*
X50975000Y-50000000D01*
X47474990Y-50800010D02*
X50174990Y-50800010D01*
X43887500Y-53575000D02*
X44700000Y-53575000D01*
X51575000Y-53675000D02*
X52400000Y-52850000D01*
X50700000Y-53675000D02*
X51575000Y-53675000D01*
X52400000Y-52850000D02*
X52400000Y-52200000D01*
X53639998Y-51550000D02*
X54000000Y-51550000D01*
X52989998Y-52200000D02*
X53639998Y-51550000D01*
X52400000Y-52200000D02*
X52989998Y-52200000D01*
X50700000Y-53675000D02*
X49825000Y-53675000D01*
X49024999Y-54475001D02*
X46401999Y-54475001D01*
X45137500Y-53210502D02*
X45137500Y-53137500D01*
X49825000Y-53675000D02*
X49024999Y-54475001D01*
X46401999Y-54475001D02*
X45137500Y-53210502D01*
X45137500Y-53137500D02*
X47474990Y-50800010D01*
X44700000Y-53575000D02*
X45137500Y-53137500D01*
X51500000Y-50000000D02*
X52400000Y-50900000D01*
X50975000Y-50000000D02*
X51500000Y-50000000D01*
X50975000Y-48275000D02*
X52500000Y-46750000D01*
X50975000Y-50000000D02*
X50975000Y-48275000D01*
X49750000Y-46750000D02*
X49500000Y-46500000D01*
X52500000Y-46750000D02*
X49750000Y-46750000D01*
%TO.N,BUTTON*%
X55250000Y-47250000D02*
X56000000Y-46500000D01*
X55250000Y-48724999D02*
X55250000Y-47250000D01*
X56000000Y-46500000D02*
X57500000Y-46500000D01*
X53850001Y-50124998D02*
X55250000Y-48724999D01*
%TO.N,TEMP*%
X48112500Y-53575000D02*
X48112500Y-53612500D01*
X48112500Y-53612500D02*
X48250000Y-53750000D01*
%TO.N,SCL*%
X54000000Y-52850000D02*
X54000000Y-53750000D01*
%TO.N,SDA*%
X54575001Y-52124999D02*
X54575001Y-50674999D01*
X54000000Y-52200000D02*
X54500000Y-52200000D01*
X54575001Y-50674999D02*
X55750000Y-49500000D01*
X54500000Y-52200000D02*
X54575001Y-52124999D01*
%TD*%
M02*
