%TF.GenerationSoftware,KiCad,Pcbnew,(5.1.6)-1*%
%TF.CreationDate,2020-12-16T03:54:26+01:00*%
%TF.ProjectId,envboard,656e7662-6f61-4726-942e-6b696361645f,rev?*%
%TF.SameCoordinates,Original*%
%TF.FileFunction,Soldermask,Top*%
%TF.FilePolarity,Negative*%
%FSLAX46Y46*%
G04 Gerber Fmt 4.6, Leading zero omitted, Abs format (unit mm)*
G04 Created by KiCad (PCBNEW (5.1.6)-1) date 2020-12-16 03:54:26*
%MOMM*%
%LPD*%
G01*
G04 APERTURE LIST*
%ADD10R,0.600000X0.450000*%
%ADD11R,3.100000X1.500000*%
%ADD12C,0.800000*%
%ADD13C,4.500000*%
G04 APERTURE END LIST*
D10*
%TO.C,U2*%
X52400000Y-50900000D03*
X54000000Y-51550000D03*
X54000000Y-52200000D03*
X54000000Y-52850000D03*
X52400000Y-51550000D03*
X52400000Y-52200000D03*
X52400000Y-52850000D03*
X54000000Y-50900000D03*
%TD*%
%TO.C,U1*%
G36*
G01*
X44750000Y-53450000D02*
X44750000Y-53700000D01*
G75*
G02*
X44625000Y-53825000I-125000J0D01*
G01*
X43150000Y-53825000D01*
G75*
G02*
X43025000Y-53700000I0J125000D01*
G01*
X43025000Y-53450000D01*
G75*
G02*
X43150000Y-53325000I125000J0D01*
G01*
X44625000Y-53325000D01*
G75*
G02*
X44750000Y-53450000I0J-125000D01*
G01*
G37*
G36*
G01*
X44750000Y-52800000D02*
X44750000Y-53050000D01*
G75*
G02*
X44625000Y-53175000I-125000J0D01*
G01*
X43150000Y-53175000D01*
G75*
G02*
X43025000Y-53050000I0J125000D01*
G01*
X43025000Y-52800000D01*
G75*
G02*
X43150000Y-52675000I125000J0D01*
G01*
X44625000Y-52675000D01*
G75*
G02*
X44750000Y-52800000I0J-125000D01*
G01*
G37*
G36*
G01*
X44750000Y-52150000D02*
X44750000Y-52400000D01*
G75*
G02*
X44625000Y-52525000I-125000J0D01*
G01*
X43150000Y-52525000D01*
G75*
G02*
X43025000Y-52400000I0J125000D01*
G01*
X43025000Y-52150000D01*
G75*
G02*
X43150000Y-52025000I125000J0D01*
G01*
X44625000Y-52025000D01*
G75*
G02*
X44750000Y-52150000I0J-125000D01*
G01*
G37*
G36*
G01*
X44750000Y-51500000D02*
X44750000Y-51750000D01*
G75*
G02*
X44625000Y-51875000I-125000J0D01*
G01*
X43150000Y-51875000D01*
G75*
G02*
X43025000Y-51750000I0J125000D01*
G01*
X43025000Y-51500000D01*
G75*
G02*
X43150000Y-51375000I125000J0D01*
G01*
X44625000Y-51375000D01*
G75*
G02*
X44750000Y-51500000I0J-125000D01*
G01*
G37*
G36*
G01*
X48975000Y-51500000D02*
X48975000Y-51750000D01*
G75*
G02*
X48850000Y-51875000I-125000J0D01*
G01*
X47375000Y-51875000D01*
G75*
G02*
X47250000Y-51750000I0J125000D01*
G01*
X47250000Y-51500000D01*
G75*
G02*
X47375000Y-51375000I125000J0D01*
G01*
X48850000Y-51375000D01*
G75*
G02*
X48975000Y-51500000I0J-125000D01*
G01*
G37*
G36*
G01*
X48975000Y-52150000D02*
X48975000Y-52400000D01*
G75*
G02*
X48850000Y-52525000I-125000J0D01*
G01*
X47375000Y-52525000D01*
G75*
G02*
X47250000Y-52400000I0J125000D01*
G01*
X47250000Y-52150000D01*
G75*
G02*
X47375000Y-52025000I125000J0D01*
G01*
X48850000Y-52025000D01*
G75*
G02*
X48975000Y-52150000I0J-125000D01*
G01*
G37*
G36*
G01*
X48975000Y-52800000D02*
X48975000Y-53050000D01*
G75*
G02*
X48850000Y-53175000I-125000J0D01*
G01*
X47375000Y-53175000D01*
G75*
G02*
X47250000Y-53050000I0J125000D01*
G01*
X47250000Y-52800000D01*
G75*
G02*
X47375000Y-52675000I125000J0D01*
G01*
X48850000Y-52675000D01*
G75*
G02*
X48975000Y-52800000I0J-125000D01*
G01*
G37*
G36*
G01*
X48975000Y-53450000D02*
X48975000Y-53700000D01*
G75*
G02*
X48850000Y-53825000I-125000J0D01*
G01*
X47375000Y-53825000D01*
G75*
G02*
X47250000Y-53700000I0J125000D01*
G01*
X47250000Y-53450000D01*
G75*
G02*
X47375000Y-53325000I125000J0D01*
G01*
X48850000Y-53325000D01*
G75*
G02*
X48975000Y-53450000I0J-125000D01*
G01*
G37*
%TD*%
D11*
%TO.C,SW1*%
X49500000Y-46500000D03*
X57500000Y-46500000D03*
%TD*%
D12*
%TO.C,H2*%
X58333452Y-51083274D03*
X57166726Y-50600000D03*
X56000000Y-51083274D03*
X55516726Y-52250000D03*
X56000000Y-53416726D03*
X57166726Y-53900000D03*
X58333452Y-53416726D03*
X58816726Y-52250000D03*
D13*
X57166726Y-52250000D03*
%TD*%
D12*
%TO.C,H1*%
X45916726Y-45083274D03*
X44750000Y-44600000D03*
X43583274Y-45083274D03*
X43100000Y-46250000D03*
X43583274Y-47416726D03*
X44750000Y-47900000D03*
X45916726Y-47416726D03*
X46400000Y-46250000D03*
D13*
X44750000Y-46250000D03*
%TD*%
%TO.C,C2*%
G36*
G01*
X50981250Y-52587500D02*
X50418750Y-52587500D01*
G75*
G02*
X50175000Y-52343750I0J243750D01*
G01*
X50175000Y-51856250D01*
G75*
G02*
X50418750Y-51612500I243750J0D01*
G01*
X50981250Y-51612500D01*
G75*
G02*
X51225000Y-51856250I0J-243750D01*
G01*
X51225000Y-52343750D01*
G75*
G02*
X50981250Y-52587500I-243750J0D01*
G01*
G37*
G36*
G01*
X50981250Y-54162500D02*
X50418750Y-54162500D01*
G75*
G02*
X50175000Y-53918750I0J243750D01*
G01*
X50175000Y-53431250D01*
G75*
G02*
X50418750Y-53187500I243750J0D01*
G01*
X50981250Y-53187500D01*
G75*
G02*
X51225000Y-53431250I0J-243750D01*
G01*
X51225000Y-53918750D01*
G75*
G02*
X50981250Y-54162500I-243750J0D01*
G01*
G37*
%TD*%
%TO.C,C1*%
G36*
G01*
X49887500Y-49718750D02*
X49887500Y-50281250D01*
G75*
G02*
X49643750Y-50525000I-243750J0D01*
G01*
X49156250Y-50525000D01*
G75*
G02*
X48912500Y-50281250I0J243750D01*
G01*
X48912500Y-49718750D01*
G75*
G02*
X49156250Y-49475000I243750J0D01*
G01*
X49643750Y-49475000D01*
G75*
G02*
X49887500Y-49718750I0J-243750D01*
G01*
G37*
G36*
G01*
X51462500Y-49718750D02*
X51462500Y-50281250D01*
G75*
G02*
X51218750Y-50525000I-243750J0D01*
G01*
X50731250Y-50525000D01*
G75*
G02*
X50487500Y-50281250I0J243750D01*
G01*
X50487500Y-49718750D01*
G75*
G02*
X50731250Y-49475000I243750J0D01*
G01*
X51218750Y-49475000D01*
G75*
G02*
X51462500Y-49718750I0J-243750D01*
G01*
G37*
%TD*%
M02*
