M48
; DRILL file {KiCad (5.1.6)-1} date 12/16/20 03:54:28
; FORMAT={-:-/ absolute / inch / decimal}
; #@! TF.CreationDate,2020-12-16T03:54:28+01:00
; #@! TF.GenerationSoftware,Kicad,Pcbnew,(5.1.6)-1
; #@! TF.FileFunction,Plated,1,2,PTH
FMAT,2
INCH
T1C0.0157
T2C0.0866
%
G90
G05
T1
X1.8209Y-2.0965
X1.8996Y-2.1161
X1.994Y-2.034
X2.0669Y-1.8406
X2.1201Y-1.9734
X2.126Y-2.1161
X2.1949Y-1.9488
X2.1857Y-2.0571
X2.2047Y-2.0112
X2.2047Y-2.103
X2.2507Y-1.9921
X2.2507Y-2.122
X2.2966Y-2.0112
X2.2966Y-2.103
X2.3156Y-2.0571
X1.6969Y-1.8209
X1.7159Y-1.7749
X1.7159Y-1.8668
X1.7618Y-1.7559
X1.7618Y-1.8858
X1.8077Y-1.7749
X1.8077Y-1.8668
X1.8268Y-1.8209
T2
X2.2507Y-2.0571
X1.7618Y-1.8209
T0
M30
