%TF.GenerationSoftware,KiCad,Pcbnew,(5.1.6)-1*%
%TF.CreationDate,2020-12-16T03:54:26+01:00*%
%TF.ProjectId,envboard,656e7662-6f61-4726-942e-6b696361645f,rev?*%
%TF.SameCoordinates,Original*%
%TF.FileFunction,Paste,Bot*%
%TF.FilePolarity,Positive*%
%FSLAX46Y46*%
G04 Gerber Fmt 4.6, Leading zero omitted, Abs format (unit mm)*
G04 Created by KiCad (PCBNEW (5.1.6)-1) date 2020-12-16 03:54:26*
%MOMM*%
%LPD*%
G01*
G04 APERTURE LIST*
G04 APERTURE END LIST*
%TO.C,J1*%
G36*
G01*
X49324999Y-52450000D02*
X50625001Y-52450000D01*
G75*
G02*
X50875000Y-52699999I0J-249999D01*
G01*
X50875000Y-53400001D01*
G75*
G02*
X50625001Y-53650000I-249999J0D01*
G01*
X49324999Y-53650000D01*
G75*
G02*
X49075000Y-53400001I0J249999D01*
G01*
X49075000Y-52699999D01*
G75*
G02*
X49324999Y-52450000I249999J0D01*
G01*
G37*
G36*
G01*
X49324999Y-44850000D02*
X50625001Y-44850000D01*
G75*
G02*
X50875000Y-45099999I0J-249999D01*
G01*
X50875000Y-45800001D01*
G75*
G02*
X50625001Y-46050000I-249999J0D01*
G01*
X49324999Y-46050000D01*
G75*
G02*
X49075000Y-45800001I0J249999D01*
G01*
X49075000Y-45099999D01*
G75*
G02*
X49324999Y-44850000I249999J0D01*
G01*
G37*
G36*
G01*
X51875000Y-51450000D02*
X53125000Y-51450000D01*
G75*
G02*
X53275000Y-51600000I0J-150000D01*
G01*
X53275000Y-51900000D01*
G75*
G02*
X53125000Y-52050000I-150000J0D01*
G01*
X51875000Y-52050000D01*
G75*
G02*
X51725000Y-51900000I0J150000D01*
G01*
X51725000Y-51600000D01*
G75*
G02*
X51875000Y-51450000I150000J0D01*
G01*
G37*
G36*
G01*
X51875000Y-50450000D02*
X53125000Y-50450000D01*
G75*
G02*
X53275000Y-50600000I0J-150000D01*
G01*
X53275000Y-50900000D01*
G75*
G02*
X53125000Y-51050000I-150000J0D01*
G01*
X51875000Y-51050000D01*
G75*
G02*
X51725000Y-50900000I0J150000D01*
G01*
X51725000Y-50600000D01*
G75*
G02*
X51875000Y-50450000I150000J0D01*
G01*
G37*
G36*
G01*
X51875000Y-49450000D02*
X53125000Y-49450000D01*
G75*
G02*
X53275000Y-49600000I0J-150000D01*
G01*
X53275000Y-49900000D01*
G75*
G02*
X53125000Y-50050000I-150000J0D01*
G01*
X51875000Y-50050000D01*
G75*
G02*
X51725000Y-49900000I0J150000D01*
G01*
X51725000Y-49600000D01*
G75*
G02*
X51875000Y-49450000I150000J0D01*
G01*
G37*
G36*
G01*
X51875000Y-48450000D02*
X53125000Y-48450000D01*
G75*
G02*
X53275000Y-48600000I0J-150000D01*
G01*
X53275000Y-48900000D01*
G75*
G02*
X53125000Y-49050000I-150000J0D01*
G01*
X51875000Y-49050000D01*
G75*
G02*
X51725000Y-48900000I0J150000D01*
G01*
X51725000Y-48600000D01*
G75*
G02*
X51875000Y-48450000I150000J0D01*
G01*
G37*
G36*
G01*
X51875000Y-47450000D02*
X53125000Y-47450000D01*
G75*
G02*
X53275000Y-47600000I0J-150000D01*
G01*
X53275000Y-47900000D01*
G75*
G02*
X53125000Y-48050000I-150000J0D01*
G01*
X51875000Y-48050000D01*
G75*
G02*
X51725000Y-47900000I0J150000D01*
G01*
X51725000Y-47600000D01*
G75*
G02*
X51875000Y-47450000I150000J0D01*
G01*
G37*
G36*
G01*
X51875000Y-46450000D02*
X53125000Y-46450000D01*
G75*
G02*
X53275000Y-46600000I0J-150000D01*
G01*
X53275000Y-46900000D01*
G75*
G02*
X53125000Y-47050000I-150000J0D01*
G01*
X51875000Y-47050000D01*
G75*
G02*
X51725000Y-46900000I0J150000D01*
G01*
X51725000Y-46600000D01*
G75*
G02*
X51875000Y-46450000I150000J0D01*
G01*
G37*
%TD*%
M02*
