M48
; DRILL file {KiCad (5.1.6)-1} date 12/16/20 03:52:31
; FORMAT={-:-/ absolute / inch / decimal}
; #@! TF.CreationDate,2020-12-16T03:52:31+01:00
; #@! TF.GenerationSoftware,Kicad,Pcbnew,(5.1.6)-1
; #@! TF.FileFunction,Plated,1,2,PTH
FMAT,2
INCH
T1C0.0118
T2C0.0157
T3C0.0295
T4C0.0394
T5C0.0598
T6C0.0630
T7C0.0866
T8C0.1063
%
G90
G05
T1
X3.5135Y-3.6245
X3.5135Y-3.6638
X3.5135Y-3.7032
X3.5135Y-3.7819
X3.5135Y-3.8213
X3.6001Y-3.8465
X3.6573Y-3.7423
X3.6575Y-3.1969
X3.6575Y-3.2992
X3.8091Y-3.3957
X3.9325Y-3.4007
X3.9331Y-3.0551
X4.026Y-3.846
X4.0276Y-3.626
X4.0551Y-3.3268
X4.0551Y-3.4252
X4.0562Y-3.0556
X4.1209Y-3.7925
X4.1339Y-3.0807
X4.1535Y-3.9764
X4.2283Y-3.9016
X4.2716Y-3.8307
X4.2953Y-3.8071
X4.311Y-3.9134
X4.3376Y-3.0642
X4.3504Y-3.9814
X4.3711Y-3.0642
X4.3819Y-3.311
X4.3858Y-4.2126
X4.3927Y-3.7559
X4.4055Y-3.2874
X4.4085Y-3.5039
X4.4331Y-3.685
X4.4419Y-3.5039
X4.4567Y-3.7087
X4.4685Y-4.0079
X4.5172Y-3.6009
X4.5409Y-3.6245
X4.5433Y-3.9567
X4.5591Y-3.8317
X4.5591Y-3.8652
X4.5591Y-4.2323
X4.5591Y-4.3819
X4.5709Y-4.0354
X4.5748Y-3.9291
X4.6606Y-4.1674
X4.6614Y-3.9567
X4.6614Y-4.1024
X4.6614Y-4.2323
X4.6614Y-4.38
X4.692Y-3.9812
X4.7598Y-4.2283
X4.7598Y-4.38
X4.7756Y-3.5393
X4.7854Y-3.9611
X4.7992Y-3.563
T2
X3.2126Y-3.4882
X3.2677Y-3.9291
X3.5354Y-3.4803
X3.5354Y-3.9606
X3.5512Y-3.1811
X3.5512Y-4.1181
X3.5669Y-4.2913
X3.6575Y-3.4016
X3.6575Y-3.4449
X3.6575Y-3.4921
X3.6575Y-3.5394
X3.8189Y-2.9134
X3.8228Y-3.7638
X3.8268Y-3.4606
X3.8268Y-3.5079
X3.8268Y-3.5551
X3.8268Y-3.6772
X3.8661Y-4.0709
X4.0157Y-2.9134
X4.054Y-3.5247
X4.0551Y-3.1693
X4.0551Y-3.2185
X4.0551Y-3.5728
X4.0551Y-4.6142
X4.0866Y-3.937
X4.0945Y-4.3937
X4.1358Y-3.376
X4.1831Y-3.376
X4.2205Y-4.1732
X4.2283Y-2.5669
X4.2756Y-3.063
X4.2953Y-4.0079
X4.3228Y-2.8583
X4.3307Y-4.6693
X4.4016Y-4.3937
X4.4803Y-2.4252
X4.4803Y-2.5512
X4.4803Y-3.5433
X4.5827Y-2.5039
X4.6063Y-3.622
X4.7087Y-3.5118
X4.9055Y-4.0236
X4.9055Y-4.2047
X4.9843Y-2.8504
X5.1024Y-2.7795
X5.2362Y-3.5118
X5.3386Y-3.9134
X5.3701Y-3.3386
X4.2657Y-2.4803
X4.2848Y-2.4344
X4.2848Y-2.5262
X4.3307Y-2.4154
X4.3307Y-2.5453
X4.3766Y-2.4344
X4.3766Y-2.5262
X4.3957Y-2.4803
X3.3465Y-4.0748
X3.3655Y-4.0289
X3.3655Y-4.1207
X3.4114Y-4.0098
X3.4114Y-4.1398
X3.4574Y-4.0289
X3.4574Y-4.1207
X3.4764Y-4.0748
X5.189Y-4.0748
X5.208Y-4.0289
X5.208Y-4.1207
X5.2539Y-4.0098
X5.2539Y-4.1398
X5.2999Y-4.0289
X5.2999Y-4.1207
X5.3189Y-4.0748
T3
X5.1654Y-3.3543
X5.1654Y-3.4331
X5.1654Y-3.5118
X5.1654Y-3.5906
X5.1654Y-3.6693
X5.1654Y-3.748
T4
X3.4252Y-2.9291
X3.4895Y-2.8525
X3.5538Y-2.7759
T5
X5.1693Y-2.9961
X5.2377Y-3.184
T6
X4.1339Y-2.4961
T7
X3.4114Y-4.0748
X3.7402Y-4.4094
X3.7402Y-2.6772
X3.937Y-4.5276
X4.9213Y-2.6772
X5.2539Y-4.0748
X4.7244Y-2.5591
X4.3307Y-2.4803
X4.7244Y-4.5276
X3.937Y-2.5591
X4.9213Y-4.4094
T8
X3.3661Y-3.1732
X3.3661Y-3.3701
T0
M30
