%TF.GenerationSoftware,KiCad,Pcbnew,(5.1.6)-1*%
%TF.CreationDate,2020-12-16T03:52:29+01:00*%
%TF.ProjectId,bms,626d732e-6b69-4636-9164-5f7063625858,rev?*%
%TF.SameCoordinates,Original*%
%TF.FileFunction,Legend,Bot*%
%TF.FilePolarity,Positive*%
%FSLAX46Y46*%
G04 Gerber Fmt 4.6, Leading zero omitted, Abs format (unit mm)*
G04 Created by KiCad (PCBNEW (5.1.6)-1) date 2020-12-16 03:52:29*
%MOMM*%
%LPD*%
G01*
G04 APERTURE LIST*
%ADD10C,0.010000*%
%ADD11C,0.120000*%
%ADD12C,0.150000*%
G04 APERTURE END LIST*
D10*
%TO.C,G\u002A\u002A\u002A*%
G36*
X116378222Y-84355556D02*
G01*
X116368089Y-84456035D01*
X116378222Y-84468445D01*
X116428556Y-84456822D01*
X116434666Y-84412000D01*
X116403688Y-84342310D01*
X116378222Y-84355556D01*
G37*
X116378222Y-84355556D02*
X116368089Y-84456035D01*
X116378222Y-84468445D01*
X116428556Y-84456822D01*
X116434666Y-84412000D01*
X116403688Y-84342310D01*
X116378222Y-84355556D01*
G36*
X106867333Y-94445000D02*
G01*
X106909666Y-94487334D01*
X106952000Y-94445000D01*
X106909666Y-94402667D01*
X106867333Y-94445000D01*
G37*
X106867333Y-94445000D02*
X106909666Y-94487334D01*
X106952000Y-94445000D01*
X106909666Y-94402667D01*
X106867333Y-94445000D01*
G36*
X112624666Y-97662334D02*
G01*
X112667000Y-97704667D01*
X112709333Y-97662334D01*
X112667000Y-97620000D01*
X112624666Y-97662334D01*
G37*
X112624666Y-97662334D02*
X112667000Y-97704667D01*
X112709333Y-97662334D01*
X112667000Y-97620000D01*
X112624666Y-97662334D01*
G36*
X112455333Y-97747000D02*
G01*
X112497666Y-97789334D01*
X112540000Y-97747000D01*
X112497666Y-97704667D01*
X112455333Y-97747000D01*
G37*
X112455333Y-97747000D02*
X112497666Y-97789334D01*
X112540000Y-97747000D01*
X112497666Y-97704667D01*
X112455333Y-97747000D01*
G36*
X113725333Y-81575667D02*
G01*
X113767666Y-81618000D01*
X113810000Y-81575667D01*
X113767666Y-81533334D01*
X113725333Y-81575667D01*
G37*
X113725333Y-81575667D02*
X113767666Y-81618000D01*
X113810000Y-81575667D01*
X113767666Y-81533334D01*
X113725333Y-81575667D01*
G36*
X102806779Y-82018127D02*
G01*
X102803333Y-82041334D01*
X102832220Y-82123799D01*
X102840670Y-82126000D01*
X102912956Y-82066671D01*
X102930333Y-82041334D01*
X102923620Y-81963315D01*
X102892997Y-81956667D01*
X102806779Y-82018127D01*
G37*
X102806779Y-82018127D02*
X102803333Y-82041334D01*
X102832220Y-82123799D01*
X102840670Y-82126000D01*
X102912956Y-82066671D01*
X102930333Y-82041334D01*
X102923620Y-81963315D01*
X102892997Y-81956667D01*
X102806779Y-82018127D01*
G36*
X102634000Y-82253000D02*
G01*
X102676333Y-82295334D01*
X102718666Y-82253000D01*
X102676333Y-82210667D01*
X102634000Y-82253000D01*
G37*
X102634000Y-82253000D02*
X102676333Y-82295334D01*
X102718666Y-82253000D01*
X102676333Y-82210667D01*
X102634000Y-82253000D01*
G36*
X102552779Y-82610794D02*
G01*
X102549333Y-82634000D01*
X102578220Y-82716466D01*
X102586670Y-82718667D01*
X102658956Y-82659338D01*
X102676333Y-82634000D01*
X102669620Y-82555981D01*
X102638997Y-82549334D01*
X102552779Y-82610794D01*
G37*
X102552779Y-82610794D02*
X102549333Y-82634000D01*
X102578220Y-82716466D01*
X102586670Y-82718667D01*
X102658956Y-82659338D01*
X102676333Y-82634000D01*
X102669620Y-82555981D01*
X102638997Y-82549334D01*
X102552779Y-82610794D01*
G36*
X102380000Y-82845667D02*
G01*
X102422333Y-82888000D01*
X102464666Y-82845667D01*
X102422333Y-82803334D01*
X102380000Y-82845667D01*
G37*
X102380000Y-82845667D02*
X102422333Y-82888000D01*
X102464666Y-82845667D01*
X102422333Y-82803334D01*
X102380000Y-82845667D01*
G36*
X101984889Y-84609556D02*
G01*
X101996511Y-84659890D01*
X102041333Y-84666000D01*
X102111023Y-84635022D01*
X102097778Y-84609556D01*
X101997298Y-84599423D01*
X101984889Y-84609556D01*
G37*
X101984889Y-84609556D02*
X101996511Y-84659890D01*
X102041333Y-84666000D01*
X102111023Y-84635022D01*
X102097778Y-84609556D01*
X101997298Y-84599423D01*
X101984889Y-84609556D01*
G36*
X101956666Y-84877667D02*
G01*
X101999000Y-84920000D01*
X102041333Y-84877667D01*
X101999000Y-84835334D01*
X101956666Y-84877667D01*
G37*
X101956666Y-84877667D02*
X101999000Y-84920000D01*
X102041333Y-84877667D01*
X101999000Y-84835334D01*
X101956666Y-84877667D01*
G36*
X102126000Y-84962334D02*
G01*
X102168333Y-85004667D01*
X102210666Y-84962334D01*
X102168333Y-84920000D01*
X102126000Y-84962334D01*
G37*
X102126000Y-84962334D02*
X102168333Y-85004667D01*
X102210666Y-84962334D01*
X102168333Y-84920000D01*
X102126000Y-84962334D01*
G36*
X117281333Y-86825000D02*
G01*
X117323666Y-86867334D01*
X117366000Y-86825000D01*
X117323666Y-86782667D01*
X117281333Y-86825000D01*
G37*
X117281333Y-86825000D02*
X117323666Y-86867334D01*
X117366000Y-86825000D01*
X117323666Y-86782667D01*
X117281333Y-86825000D01*
G36*
X116293555Y-86810889D02*
G01*
X116283422Y-86911369D01*
X116293555Y-86923778D01*
X116343890Y-86912156D01*
X116350000Y-86867334D01*
X116319022Y-86797643D01*
X116293555Y-86810889D01*
G37*
X116293555Y-86810889D02*
X116283422Y-86911369D01*
X116293555Y-86923778D01*
X116343890Y-86912156D01*
X116350000Y-86867334D01*
X116319022Y-86797643D01*
X116293555Y-86810889D01*
G36*
X117112000Y-86909667D02*
G01*
X117154333Y-86952000D01*
X117196666Y-86909667D01*
X117154333Y-86867334D01*
X117112000Y-86909667D01*
G37*
X117112000Y-86909667D02*
X117154333Y-86952000D01*
X117196666Y-86909667D01*
X117154333Y-86867334D01*
X117112000Y-86909667D01*
G36*
X115182858Y-86586930D02*
G01*
X115152204Y-86686118D01*
X115109605Y-86884219D01*
X115108621Y-87002941D01*
X115143047Y-87011466D01*
X115196540Y-86906394D01*
X115237358Y-86706789D01*
X115241697Y-86585242D01*
X115224457Y-86506509D01*
X115182858Y-86586930D01*
G37*
X115182858Y-86586930D02*
X115152204Y-86686118D01*
X115109605Y-86884219D01*
X115108621Y-87002941D01*
X115143047Y-87011466D01*
X115196540Y-86906394D01*
X115237358Y-86706789D01*
X115241697Y-86585242D01*
X115224457Y-86506509D01*
X115182858Y-86586930D01*
G36*
X114392531Y-81539727D02*
G01*
X114152896Y-81563251D01*
X114008722Y-81610416D01*
X113927860Y-81681500D01*
X113833072Y-81846290D01*
X113810854Y-81967340D01*
X113860968Y-82002984D01*
X113929462Y-81962923D01*
X114056371Y-81913365D01*
X114100177Y-81946705D01*
X114092217Y-82059308D01*
X114066224Y-82082292D01*
X114029891Y-82146112D01*
X114083789Y-82259052D01*
X114242874Y-82445109D01*
X114381500Y-82588184D01*
X114516417Y-82744584D01*
X114571577Y-82848807D01*
X114534122Y-82869572D01*
X114487333Y-82845667D01*
X114414850Y-82864861D01*
X114402666Y-82925337D01*
X114446871Y-83041179D01*
X114487333Y-83057334D01*
X114558504Y-83127440D01*
X114572000Y-83209734D01*
X114625605Y-83397543D01*
X114673600Y-83463734D01*
X114722126Y-83548563D01*
X114694767Y-83565334D01*
X114638199Y-83638901D01*
X114614336Y-83816051D01*
X114614333Y-83818321D01*
X114632554Y-83992039D01*
X114706700Y-84035837D01*
X114773103Y-84020917D01*
X114881599Y-84006949D01*
X114859696Y-84085429D01*
X114790082Y-84231899D01*
X114698323Y-84467946D01*
X114658557Y-84581334D01*
X114602502Y-84763674D01*
X114574602Y-84927660D01*
X114577053Y-85113814D01*
X114612053Y-85362658D01*
X114681801Y-85714716D01*
X114733019Y-85954288D01*
X114760575Y-86192735D01*
X114714937Y-86297525D01*
X114712927Y-86298247D01*
X114704851Y-86368710D01*
X114800749Y-86502731D01*
X114821469Y-86524136D01*
X115018021Y-86720688D01*
X115129590Y-86455344D01*
X115232456Y-86250057D01*
X115298571Y-86209393D01*
X115327332Y-86332548D01*
X115318134Y-86618715D01*
X115311457Y-86697967D01*
X115296662Y-86973049D01*
X115304919Y-87172634D01*
X115328234Y-87244770D01*
X115436820Y-87231159D01*
X115568723Y-87159173D01*
X115687018Y-87036089D01*
X115711354Y-86888478D01*
X115659140Y-86888478D01*
X115638418Y-86938918D01*
X115536221Y-87036399D01*
X115459728Y-86978666D01*
X115421072Y-86779297D01*
X115418666Y-86693003D01*
X115437334Y-86469658D01*
X115490853Y-86398099D01*
X115508290Y-86404730D01*
X115557764Y-86523557D01*
X115541570Y-86716653D01*
X115517828Y-86887587D01*
X115559032Y-86923422D01*
X115592028Y-86907177D01*
X115659140Y-86888478D01*
X115711354Y-86888478D01*
X115716227Y-86858922D01*
X115702509Y-86718204D01*
X115684699Y-86527050D01*
X115709022Y-86484614D01*
X115749025Y-86528667D01*
X115823306Y-86715043D01*
X115840703Y-86851164D01*
X115871502Y-86982521D01*
X115928048Y-86993480D01*
X115979954Y-86896820D01*
X115970106Y-86869124D01*
X115952430Y-86718622D01*
X116039768Y-86595758D01*
X116181772Y-86571351D01*
X116364028Y-86558078D01*
X116446912Y-86505637D01*
X116627503Y-86375374D01*
X116709833Y-86336087D01*
X116732873Y-86317000D01*
X115672666Y-86317000D01*
X115630333Y-86359334D01*
X115588000Y-86317000D01*
X115630333Y-86274667D01*
X115672666Y-86317000D01*
X116732873Y-86317000D01*
X116835037Y-86232367D01*
X116858000Y-86159382D01*
X116926903Y-86029571D01*
X116999622Y-85984438D01*
X117082094Y-85936000D01*
X115503333Y-85936000D01*
X115467877Y-86073581D01*
X115418666Y-86105334D01*
X115349876Y-86034421D01*
X115334000Y-85936000D01*
X115164666Y-85936000D01*
X115133688Y-86005690D01*
X115108222Y-85992445D01*
X115098089Y-85891965D01*
X115108222Y-85879556D01*
X115158556Y-85891178D01*
X115164666Y-85936000D01*
X115334000Y-85936000D01*
X115369456Y-85798420D01*
X115418666Y-85766667D01*
X115487457Y-85837579D01*
X115503333Y-85936000D01*
X117082094Y-85936000D01*
X117087558Y-85932791D01*
X117042415Y-85863687D01*
X116967222Y-85808204D01*
X116884384Y-85729182D01*
X116828643Y-85607122D01*
X116816558Y-85540889D01*
X115644444Y-85540889D01*
X115632822Y-85591223D01*
X115588000Y-85597334D01*
X115518310Y-85566355D01*
X115531555Y-85540889D01*
X115632035Y-85530756D01*
X115644444Y-85540889D01*
X116816558Y-85540889D01*
X116802396Y-85463278D01*
X115327316Y-85463278D01*
X115311749Y-85573092D01*
X115282847Y-85574403D01*
X115262636Y-85461086D01*
X115276163Y-85412125D01*
X115313758Y-85380055D01*
X115327316Y-85463278D01*
X116802396Y-85463278D01*
X116792018Y-85406405D01*
X116766530Y-85091410D01*
X116754465Y-84858657D01*
X116695113Y-84401304D01*
X116503028Y-84401304D01*
X116487160Y-84458388D01*
X116398909Y-84564907D01*
X116302453Y-84564608D01*
X116266630Y-84475500D01*
X116306380Y-84327334D01*
X115164666Y-84327334D01*
X115133688Y-84397024D01*
X115108222Y-84383778D01*
X115098089Y-84283298D01*
X115108222Y-84270889D01*
X115158556Y-84282511D01*
X115164666Y-84327334D01*
X116306380Y-84327334D01*
X116310605Y-84311587D01*
X116340713Y-84254794D01*
X116425791Y-84199891D01*
X116491561Y-84264944D01*
X116503028Y-84401304D01*
X116695113Y-84401304D01*
X116636329Y-83948339D01*
X116635732Y-83946334D01*
X116265333Y-83946334D01*
X116223000Y-83988667D01*
X116180666Y-83946334D01*
X116223000Y-83904000D01*
X116265333Y-83946334D01*
X116635732Y-83946334D01*
X116582528Y-83767720D01*
X116169151Y-83767720D01*
X116142087Y-83816642D01*
X116105058Y-83819334D01*
X115503333Y-83819334D01*
X115472355Y-83889024D01*
X115446889Y-83875778D01*
X115436756Y-83775298D01*
X115446889Y-83762889D01*
X115497223Y-83774511D01*
X115503333Y-83819334D01*
X116105058Y-83819334D01*
X116014130Y-83751473D01*
X115976120Y-83680358D01*
X115958855Y-83607667D01*
X114910666Y-83607667D01*
X114868333Y-83650000D01*
X114826000Y-83607667D01*
X114868333Y-83565334D01*
X114910666Y-83607667D01*
X115958855Y-83607667D01*
X115954410Y-83588954D01*
X116026649Y-83627932D01*
X116051728Y-83648392D01*
X116169151Y-83767720D01*
X116582528Y-83767720D01*
X116520601Y-83559821D01*
X115821241Y-83559821D01*
X115809660Y-83565334D01*
X115732395Y-83505730D01*
X115715000Y-83480667D01*
X115693425Y-83401513D01*
X115705006Y-83396000D01*
X115782272Y-83455604D01*
X115799666Y-83480667D01*
X115821241Y-83559821D01*
X116520601Y-83559821D01*
X116376039Y-83074508D01*
X116264318Y-82845667D01*
X115418666Y-82845667D01*
X115376333Y-82888000D01*
X115334000Y-82845667D01*
X115376333Y-82803334D01*
X115418666Y-82845667D01*
X116264318Y-82845667D01*
X116057643Y-82422334D01*
X115672666Y-82422334D01*
X115630333Y-82464667D01*
X115588000Y-82422334D01*
X115630333Y-82380000D01*
X115672666Y-82422334D01*
X116057643Y-82422334D01*
X116016308Y-82337667D01*
X115618705Y-82337667D01*
X115419663Y-82168334D01*
X115288380Y-82067984D01*
X115255385Y-82083012D01*
X115270694Y-82136850D01*
X115270245Y-82300778D01*
X115234194Y-82361273D01*
X115217788Y-82447858D01*
X115325477Y-82504295D01*
X115466776Y-82581059D01*
X115503333Y-82641657D01*
X115451750Y-82668071D01*
X115326964Y-82605863D01*
X115173915Y-82487715D01*
X115037545Y-82346313D01*
X114981531Y-82262177D01*
X114928933Y-82144773D01*
X114966722Y-82157459D01*
X115001899Y-82189496D01*
X115096845Y-82238487D01*
X115174741Y-82149804D01*
X115202762Y-82089178D01*
X115291666Y-81883030D01*
X115455186Y-82110348D01*
X115618705Y-82337667D01*
X116016308Y-82337667D01*
X115986211Y-82276020D01*
X115843424Y-82053358D01*
X115488458Y-81533334D01*
X114764396Y-81533334D01*
X114392531Y-81539727D01*
G37*
X114392531Y-81539727D02*
X114152896Y-81563251D01*
X114008722Y-81610416D01*
X113927860Y-81681500D01*
X113833072Y-81846290D01*
X113810854Y-81967340D01*
X113860968Y-82002984D01*
X113929462Y-81962923D01*
X114056371Y-81913365D01*
X114100177Y-81946705D01*
X114092217Y-82059308D01*
X114066224Y-82082292D01*
X114029891Y-82146112D01*
X114083789Y-82259052D01*
X114242874Y-82445109D01*
X114381500Y-82588184D01*
X114516417Y-82744584D01*
X114571577Y-82848807D01*
X114534122Y-82869572D01*
X114487333Y-82845667D01*
X114414850Y-82864861D01*
X114402666Y-82925337D01*
X114446871Y-83041179D01*
X114487333Y-83057334D01*
X114558504Y-83127440D01*
X114572000Y-83209734D01*
X114625605Y-83397543D01*
X114673600Y-83463734D01*
X114722126Y-83548563D01*
X114694767Y-83565334D01*
X114638199Y-83638901D01*
X114614336Y-83816051D01*
X114614333Y-83818321D01*
X114632554Y-83992039D01*
X114706700Y-84035837D01*
X114773103Y-84020917D01*
X114881599Y-84006949D01*
X114859696Y-84085429D01*
X114790082Y-84231899D01*
X114698323Y-84467946D01*
X114658557Y-84581334D01*
X114602502Y-84763674D01*
X114574602Y-84927660D01*
X114577053Y-85113814D01*
X114612053Y-85362658D01*
X114681801Y-85714716D01*
X114733019Y-85954288D01*
X114760575Y-86192735D01*
X114714937Y-86297525D01*
X114712927Y-86298247D01*
X114704851Y-86368710D01*
X114800749Y-86502731D01*
X114821469Y-86524136D01*
X115018021Y-86720688D01*
X115129590Y-86455344D01*
X115232456Y-86250057D01*
X115298571Y-86209393D01*
X115327332Y-86332548D01*
X115318134Y-86618715D01*
X115311457Y-86697967D01*
X115296662Y-86973049D01*
X115304919Y-87172634D01*
X115328234Y-87244770D01*
X115436820Y-87231159D01*
X115568723Y-87159173D01*
X115687018Y-87036089D01*
X115711354Y-86888478D01*
X115659140Y-86888478D01*
X115638418Y-86938918D01*
X115536221Y-87036399D01*
X115459728Y-86978666D01*
X115421072Y-86779297D01*
X115418666Y-86693003D01*
X115437334Y-86469658D01*
X115490853Y-86398099D01*
X115508290Y-86404730D01*
X115557764Y-86523557D01*
X115541570Y-86716653D01*
X115517828Y-86887587D01*
X115559032Y-86923422D01*
X115592028Y-86907177D01*
X115659140Y-86888478D01*
X115711354Y-86888478D01*
X115716227Y-86858922D01*
X115702509Y-86718204D01*
X115684699Y-86527050D01*
X115709022Y-86484614D01*
X115749025Y-86528667D01*
X115823306Y-86715043D01*
X115840703Y-86851164D01*
X115871502Y-86982521D01*
X115928048Y-86993480D01*
X115979954Y-86896820D01*
X115970106Y-86869124D01*
X115952430Y-86718622D01*
X116039768Y-86595758D01*
X116181772Y-86571351D01*
X116364028Y-86558078D01*
X116446912Y-86505637D01*
X116627503Y-86375374D01*
X116709833Y-86336087D01*
X116732873Y-86317000D01*
X115672666Y-86317000D01*
X115630333Y-86359334D01*
X115588000Y-86317000D01*
X115630333Y-86274667D01*
X115672666Y-86317000D01*
X116732873Y-86317000D01*
X116835037Y-86232367D01*
X116858000Y-86159382D01*
X116926903Y-86029571D01*
X116999622Y-85984438D01*
X117082094Y-85936000D01*
X115503333Y-85936000D01*
X115467877Y-86073581D01*
X115418666Y-86105334D01*
X115349876Y-86034421D01*
X115334000Y-85936000D01*
X115164666Y-85936000D01*
X115133688Y-86005690D01*
X115108222Y-85992445D01*
X115098089Y-85891965D01*
X115108222Y-85879556D01*
X115158556Y-85891178D01*
X115164666Y-85936000D01*
X115334000Y-85936000D01*
X115369456Y-85798420D01*
X115418666Y-85766667D01*
X115487457Y-85837579D01*
X115503333Y-85936000D01*
X117082094Y-85936000D01*
X117087558Y-85932791D01*
X117042415Y-85863687D01*
X116967222Y-85808204D01*
X116884384Y-85729182D01*
X116828643Y-85607122D01*
X116816558Y-85540889D01*
X115644444Y-85540889D01*
X115632822Y-85591223D01*
X115588000Y-85597334D01*
X115518310Y-85566355D01*
X115531555Y-85540889D01*
X115632035Y-85530756D01*
X115644444Y-85540889D01*
X116816558Y-85540889D01*
X116802396Y-85463278D01*
X115327316Y-85463278D01*
X115311749Y-85573092D01*
X115282847Y-85574403D01*
X115262636Y-85461086D01*
X115276163Y-85412125D01*
X115313758Y-85380055D01*
X115327316Y-85463278D01*
X116802396Y-85463278D01*
X116792018Y-85406405D01*
X116766530Y-85091410D01*
X116754465Y-84858657D01*
X116695113Y-84401304D01*
X116503028Y-84401304D01*
X116487160Y-84458388D01*
X116398909Y-84564907D01*
X116302453Y-84564608D01*
X116266630Y-84475500D01*
X116306380Y-84327334D01*
X115164666Y-84327334D01*
X115133688Y-84397024D01*
X115108222Y-84383778D01*
X115098089Y-84283298D01*
X115108222Y-84270889D01*
X115158556Y-84282511D01*
X115164666Y-84327334D01*
X116306380Y-84327334D01*
X116310605Y-84311587D01*
X116340713Y-84254794D01*
X116425791Y-84199891D01*
X116491561Y-84264944D01*
X116503028Y-84401304D01*
X116695113Y-84401304D01*
X116636329Y-83948339D01*
X116635732Y-83946334D01*
X116265333Y-83946334D01*
X116223000Y-83988667D01*
X116180666Y-83946334D01*
X116223000Y-83904000D01*
X116265333Y-83946334D01*
X116635732Y-83946334D01*
X116582528Y-83767720D01*
X116169151Y-83767720D01*
X116142087Y-83816642D01*
X116105058Y-83819334D01*
X115503333Y-83819334D01*
X115472355Y-83889024D01*
X115446889Y-83875778D01*
X115436756Y-83775298D01*
X115446889Y-83762889D01*
X115497223Y-83774511D01*
X115503333Y-83819334D01*
X116105058Y-83819334D01*
X116014130Y-83751473D01*
X115976120Y-83680358D01*
X115958855Y-83607667D01*
X114910666Y-83607667D01*
X114868333Y-83650000D01*
X114826000Y-83607667D01*
X114868333Y-83565334D01*
X114910666Y-83607667D01*
X115958855Y-83607667D01*
X115954410Y-83588954D01*
X116026649Y-83627932D01*
X116051728Y-83648392D01*
X116169151Y-83767720D01*
X116582528Y-83767720D01*
X116520601Y-83559821D01*
X115821241Y-83559821D01*
X115809660Y-83565334D01*
X115732395Y-83505730D01*
X115715000Y-83480667D01*
X115693425Y-83401513D01*
X115705006Y-83396000D01*
X115782272Y-83455604D01*
X115799666Y-83480667D01*
X115821241Y-83559821D01*
X116520601Y-83559821D01*
X116376039Y-83074508D01*
X116264318Y-82845667D01*
X115418666Y-82845667D01*
X115376333Y-82888000D01*
X115334000Y-82845667D01*
X115376333Y-82803334D01*
X115418666Y-82845667D01*
X116264318Y-82845667D01*
X116057643Y-82422334D01*
X115672666Y-82422334D01*
X115630333Y-82464667D01*
X115588000Y-82422334D01*
X115630333Y-82380000D01*
X115672666Y-82422334D01*
X116057643Y-82422334D01*
X116016308Y-82337667D01*
X115618705Y-82337667D01*
X115419663Y-82168334D01*
X115288380Y-82067984D01*
X115255385Y-82083012D01*
X115270694Y-82136850D01*
X115270245Y-82300778D01*
X115234194Y-82361273D01*
X115217788Y-82447858D01*
X115325477Y-82504295D01*
X115466776Y-82581059D01*
X115503333Y-82641657D01*
X115451750Y-82668071D01*
X115326964Y-82605863D01*
X115173915Y-82487715D01*
X115037545Y-82346313D01*
X114981531Y-82262177D01*
X114928933Y-82144773D01*
X114966722Y-82157459D01*
X115001899Y-82189496D01*
X115096845Y-82238487D01*
X115174741Y-82149804D01*
X115202762Y-82089178D01*
X115291666Y-81883030D01*
X115455186Y-82110348D01*
X115618705Y-82337667D01*
X116016308Y-82337667D01*
X115986211Y-82276020D01*
X115843424Y-82053358D01*
X115488458Y-81533334D01*
X114764396Y-81533334D01*
X114392531Y-81539727D01*
G36*
X117503803Y-86152521D02*
G01*
X117324673Y-86259259D01*
X117120291Y-86466371D01*
X116932959Y-86718954D01*
X116804979Y-86962106D01*
X116773333Y-87100573D01*
X116802395Y-87185073D01*
X116886183Y-87116687D01*
X117019600Y-86900940D01*
X117099841Y-86746522D01*
X117228577Y-86522641D01*
X117344778Y-86376556D01*
X117393106Y-86346438D01*
X117629448Y-86332847D01*
X117771230Y-86388295D01*
X117880340Y-86526715D01*
X117958019Y-86731137D01*
X118014976Y-87029016D01*
X118033640Y-87246509D01*
X118054626Y-87523073D01*
X118088713Y-87724427D01*
X118120438Y-87796843D01*
X118211413Y-87907013D01*
X118243243Y-87968000D01*
X118270471Y-87995058D01*
X118257095Y-87883334D01*
X118234156Y-87684741D01*
X118218386Y-87389986D01*
X118213823Y-87143836D01*
X118202276Y-86828936D01*
X118156586Y-86618466D01*
X118057621Y-86448193D01*
X117978610Y-86354051D01*
X117803296Y-86185785D01*
X117652695Y-86131896D01*
X117503803Y-86152521D01*
G37*
X117503803Y-86152521D02*
X117324673Y-86259259D01*
X117120291Y-86466371D01*
X116932959Y-86718954D01*
X116804979Y-86962106D01*
X116773333Y-87100573D01*
X116802395Y-87185073D01*
X116886183Y-87116687D01*
X117019600Y-86900940D01*
X117099841Y-86746522D01*
X117228577Y-86522641D01*
X117344778Y-86376556D01*
X117393106Y-86346438D01*
X117629448Y-86332847D01*
X117771230Y-86388295D01*
X117880340Y-86526715D01*
X117958019Y-86731137D01*
X118014976Y-87029016D01*
X118033640Y-87246509D01*
X118054626Y-87523073D01*
X118088713Y-87724427D01*
X118120438Y-87796843D01*
X118211413Y-87907013D01*
X118243243Y-87968000D01*
X118270471Y-87995058D01*
X118257095Y-87883334D01*
X118234156Y-87684741D01*
X118218386Y-87389986D01*
X118213823Y-87143836D01*
X118202276Y-86828936D01*
X118156586Y-86618466D01*
X118057621Y-86448193D01*
X117978610Y-86354051D01*
X117803296Y-86185785D01*
X117652695Y-86131896D01*
X117503803Y-86152521D01*
G36*
X112906889Y-88334889D02*
G01*
X112918511Y-88385223D01*
X112963333Y-88391334D01*
X113033023Y-88360355D01*
X113019778Y-88334889D01*
X112919298Y-88324756D01*
X112906889Y-88334889D01*
G37*
X112906889Y-88334889D02*
X112918511Y-88385223D01*
X112963333Y-88391334D01*
X113033023Y-88360355D01*
X113019778Y-88334889D01*
X112919298Y-88324756D01*
X112906889Y-88334889D01*
G36*
X118128000Y-88349000D02*
G01*
X118170333Y-88391334D01*
X118212666Y-88349000D01*
X118170333Y-88306667D01*
X118128000Y-88349000D01*
G37*
X118128000Y-88349000D02*
X118170333Y-88391334D01*
X118212666Y-88349000D01*
X118170333Y-88306667D01*
X118128000Y-88349000D01*
G36*
X116802274Y-87460000D02*
G01*
X116728239Y-87697549D01*
X116701288Y-87821542D01*
X116642662Y-87921242D01*
X116509668Y-88083187D01*
X116478842Y-88117010D01*
X116337892Y-88294490D01*
X116267241Y-88433339D01*
X116265333Y-88448972D01*
X116304351Y-88575858D01*
X116406085Y-88561560D01*
X116547554Y-88410937D01*
X116565019Y-88385564D01*
X116700216Y-88219558D01*
X116812892Y-88139009D01*
X116823711Y-88137577D01*
X116980178Y-88212578D01*
X117118642Y-88403170D01*
X117203519Y-88656526D01*
X117211214Y-88712856D01*
X117235722Y-88895577D01*
X117277757Y-88930669D01*
X117368784Y-88839264D01*
X117379936Y-88826166D01*
X117464344Y-88610321D01*
X117452201Y-88328113D01*
X117361364Y-88038017D01*
X117209687Y-87798508D01*
X117027423Y-87671695D01*
X116886687Y-87567946D01*
X116851316Y-87475461D01*
X116837433Y-87386413D01*
X116802274Y-87460000D01*
G37*
X116802274Y-87460000D02*
X116728239Y-87697549D01*
X116701288Y-87821542D01*
X116642662Y-87921242D01*
X116509668Y-88083187D01*
X116478842Y-88117010D01*
X116337892Y-88294490D01*
X116267241Y-88433339D01*
X116265333Y-88448972D01*
X116304351Y-88575858D01*
X116406085Y-88561560D01*
X116547554Y-88410937D01*
X116565019Y-88385564D01*
X116700216Y-88219558D01*
X116812892Y-88139009D01*
X116823711Y-88137577D01*
X116980178Y-88212578D01*
X117118642Y-88403170D01*
X117203519Y-88656526D01*
X117211214Y-88712856D01*
X117235722Y-88895577D01*
X117277757Y-88930669D01*
X117368784Y-88839264D01*
X117379936Y-88826166D01*
X117464344Y-88610321D01*
X117452201Y-88328113D01*
X117361364Y-88038017D01*
X117209687Y-87798508D01*
X117027423Y-87671695D01*
X116886687Y-87567946D01*
X116851316Y-87475461D01*
X116837433Y-87386413D01*
X116802274Y-87460000D01*
G36*
X117817555Y-89012222D02*
G01*
X117807422Y-89112702D01*
X117817555Y-89125111D01*
X117867890Y-89113489D01*
X117874000Y-89068667D01*
X117843022Y-88998977D01*
X117817555Y-89012222D01*
G37*
X117817555Y-89012222D02*
X117807422Y-89112702D01*
X117817555Y-89125111D01*
X117867890Y-89113489D01*
X117874000Y-89068667D01*
X117843022Y-88998977D01*
X117817555Y-89012222D01*
G36*
X117563555Y-89266222D02*
G01*
X117553422Y-89366702D01*
X117563555Y-89379111D01*
X117613890Y-89367489D01*
X117620000Y-89322667D01*
X117589022Y-89252977D01*
X117563555Y-89266222D01*
G37*
X117563555Y-89266222D02*
X117553422Y-89366702D01*
X117563555Y-89379111D01*
X117613890Y-89367489D01*
X117620000Y-89322667D01*
X117589022Y-89252977D01*
X117563555Y-89266222D01*
G36*
X107629333Y-89619000D02*
G01*
X107671666Y-89661334D01*
X107714000Y-89619000D01*
X107671666Y-89576667D01*
X107629333Y-89619000D01*
G37*
X107629333Y-89619000D02*
X107671666Y-89661334D01*
X107714000Y-89619000D01*
X107671666Y-89576667D01*
X107629333Y-89619000D01*
G36*
X113725333Y-85501427D02*
G01*
X113719321Y-85777391D01*
X113685500Y-85935699D01*
X113600191Y-86027980D01*
X113450166Y-86101392D01*
X113248198Y-86189878D01*
X113118890Y-86250115D01*
X113111500Y-86254010D01*
X113056862Y-86217968D01*
X113048000Y-86154722D01*
X112998559Y-86062306D01*
X112828863Y-86023848D01*
X112716389Y-86020667D01*
X112488824Y-85995631D01*
X112357044Y-85931937D01*
X112346980Y-85914834D01*
X112272826Y-85860024D01*
X112234091Y-85884091D01*
X112223349Y-85971758D01*
X112264833Y-85996980D01*
X112350336Y-86083917D01*
X112366320Y-86204398D01*
X112304405Y-86273787D01*
X112292330Y-86274667D01*
X112253619Y-86351843D01*
X112228468Y-86553780D01*
X112222339Y-86825000D01*
X112235029Y-87105309D01*
X112260114Y-87303533D01*
X112290801Y-87375334D01*
X112357389Y-87445757D01*
X112396553Y-87549846D01*
X112379577Y-87715725D01*
X112248144Y-87788545D01*
X112053166Y-87750212D01*
X111684639Y-87646154D01*
X111403305Y-87622275D01*
X111220274Y-87557892D01*
X111130831Y-87477024D01*
X111043192Y-87397896D01*
X111018693Y-87438834D01*
X110943314Y-87515734D01*
X110779902Y-87544667D01*
X110545568Y-87585105D01*
X110282828Y-87684096D01*
X110250735Y-87700464D01*
X109825737Y-87927236D01*
X109528400Y-88088433D01*
X109336302Y-88196890D01*
X109227017Y-88265443D01*
X109178124Y-88306928D01*
X109170440Y-88318845D01*
X109080113Y-88346042D01*
X108989830Y-88332724D01*
X108809481Y-88341660D01*
X108588399Y-88419372D01*
X108581291Y-88423002D01*
X108391908Y-88495728D01*
X108267937Y-88498354D01*
X108261493Y-88493790D01*
X108232516Y-88492649D01*
X108251286Y-88532269D01*
X108241512Y-88642933D01*
X108201361Y-88668821D01*
X108168646Y-88743105D01*
X108273637Y-88900013D01*
X108306666Y-88936876D01*
X108440427Y-89092113D01*
X108465445Y-89181189D01*
X108389327Y-89260973D01*
X108353550Y-89287474D01*
X108245172Y-89398061D01*
X108278512Y-89496924D01*
X108294244Y-89513484D01*
X108423399Y-89574775D01*
X108626877Y-89613144D01*
X108843118Y-89624832D01*
X109010561Y-89606079D01*
X109068666Y-89560773D01*
X109133543Y-89493910D01*
X109153333Y-89492000D01*
X109223455Y-89562470D01*
X109238000Y-89651686D01*
X109318703Y-89821811D01*
X109548214Y-89961772D01*
X109907639Y-90064837D01*
X110378081Y-90124275D01*
X110592666Y-90134315D01*
X110919433Y-90141747D01*
X111086654Y-90141164D01*
X111103998Y-90130899D01*
X110981135Y-90109284D01*
X110846666Y-90090516D01*
X110613003Y-90054495D01*
X110542064Y-90030427D01*
X110627859Y-90015807D01*
X110663222Y-90013801D01*
X110861395Y-89968135D01*
X110907292Y-89881074D01*
X110799902Y-89787326D01*
X110671056Y-89744518D01*
X110504242Y-89647819D01*
X110465666Y-89541150D01*
X110544456Y-89433556D01*
X110758026Y-89324465D01*
X111072174Y-89223307D01*
X111452701Y-89139517D01*
X111865405Y-89082526D01*
X112201333Y-89062455D01*
X112483228Y-89050097D01*
X112596694Y-89027144D01*
X112542311Y-88993478D01*
X112540000Y-88992829D01*
X112399534Y-88945076D01*
X112412095Y-88905110D01*
X112490658Y-88871493D01*
X112597153Y-88798613D01*
X112557104Y-88713237D01*
X112513611Y-88607094D01*
X112590275Y-88522996D01*
X112672199Y-88418006D01*
X112652246Y-88256638D01*
X112628827Y-88190609D01*
X112579948Y-88017784D01*
X112624303Y-87937502D01*
X112700670Y-87910131D01*
X112855640Y-87801181D01*
X112922146Y-87685006D01*
X112970474Y-87561339D01*
X113003690Y-87593646D01*
X113022972Y-87661521D01*
X113006923Y-87825361D01*
X112951205Y-87890829D01*
X112881834Y-87973851D01*
X112942874Y-88066075D01*
X113029299Y-88126404D01*
X113048000Y-88069600D01*
X113116290Y-87979583D01*
X113175000Y-87968000D01*
X113293434Y-87899344D01*
X113312583Y-87841000D01*
X113335440Y-87678368D01*
X113391234Y-87515003D01*
X113428508Y-87427618D01*
X113429973Y-87403556D01*
X112765778Y-87403556D01*
X112754155Y-87453890D01*
X112709333Y-87460000D01*
X112639643Y-87429022D01*
X112652889Y-87403556D01*
X112753368Y-87393423D01*
X112765778Y-87403556D01*
X113429973Y-87403556D01*
X113441755Y-87210160D01*
X113399311Y-87110118D01*
X113350056Y-86982263D01*
X113385949Y-86952000D01*
X113454961Y-86880979D01*
X113471333Y-86780010D01*
X113526504Y-86617204D01*
X113598333Y-86559285D01*
X113710857Y-86452682D01*
X113725333Y-86392608D01*
X113791364Y-86286181D01*
X113841114Y-86274667D01*
X113923579Y-86195207D01*
X114013434Y-85975980D01*
X114101238Y-85645713D01*
X114172359Y-85266771D01*
X114114227Y-85160807D01*
X113958166Y-85083594D01*
X113725333Y-85019311D01*
X113725333Y-85501427D01*
G37*
X113725333Y-85501427D02*
X113719321Y-85777391D01*
X113685500Y-85935699D01*
X113600191Y-86027980D01*
X113450166Y-86101392D01*
X113248198Y-86189878D01*
X113118890Y-86250115D01*
X113111500Y-86254010D01*
X113056862Y-86217968D01*
X113048000Y-86154722D01*
X112998559Y-86062306D01*
X112828863Y-86023848D01*
X112716389Y-86020667D01*
X112488824Y-85995631D01*
X112357044Y-85931937D01*
X112346980Y-85914834D01*
X112272826Y-85860024D01*
X112234091Y-85884091D01*
X112223349Y-85971758D01*
X112264833Y-85996980D01*
X112350336Y-86083917D01*
X112366320Y-86204398D01*
X112304405Y-86273787D01*
X112292330Y-86274667D01*
X112253619Y-86351843D01*
X112228468Y-86553780D01*
X112222339Y-86825000D01*
X112235029Y-87105309D01*
X112260114Y-87303533D01*
X112290801Y-87375334D01*
X112357389Y-87445757D01*
X112396553Y-87549846D01*
X112379577Y-87715725D01*
X112248144Y-87788545D01*
X112053166Y-87750212D01*
X111684639Y-87646154D01*
X111403305Y-87622275D01*
X111220274Y-87557892D01*
X111130831Y-87477024D01*
X111043192Y-87397896D01*
X111018693Y-87438834D01*
X110943314Y-87515734D01*
X110779902Y-87544667D01*
X110545568Y-87585105D01*
X110282828Y-87684096D01*
X110250735Y-87700464D01*
X109825737Y-87927236D01*
X109528400Y-88088433D01*
X109336302Y-88196890D01*
X109227017Y-88265443D01*
X109178124Y-88306928D01*
X109170440Y-88318845D01*
X109080113Y-88346042D01*
X108989830Y-88332724D01*
X108809481Y-88341660D01*
X108588399Y-88419372D01*
X108581291Y-88423002D01*
X108391908Y-88495728D01*
X108267937Y-88498354D01*
X108261493Y-88493790D01*
X108232516Y-88492649D01*
X108251286Y-88532269D01*
X108241512Y-88642933D01*
X108201361Y-88668821D01*
X108168646Y-88743105D01*
X108273637Y-88900013D01*
X108306666Y-88936876D01*
X108440427Y-89092113D01*
X108465445Y-89181189D01*
X108389327Y-89260973D01*
X108353550Y-89287474D01*
X108245172Y-89398061D01*
X108278512Y-89496924D01*
X108294244Y-89513484D01*
X108423399Y-89574775D01*
X108626877Y-89613144D01*
X108843118Y-89624832D01*
X109010561Y-89606079D01*
X109068666Y-89560773D01*
X109133543Y-89493910D01*
X109153333Y-89492000D01*
X109223455Y-89562470D01*
X109238000Y-89651686D01*
X109318703Y-89821811D01*
X109548214Y-89961772D01*
X109907639Y-90064837D01*
X110378081Y-90124275D01*
X110592666Y-90134315D01*
X110919433Y-90141747D01*
X111086654Y-90141164D01*
X111103998Y-90130899D01*
X110981135Y-90109284D01*
X110846666Y-90090516D01*
X110613003Y-90054495D01*
X110542064Y-90030427D01*
X110627859Y-90015807D01*
X110663222Y-90013801D01*
X110861395Y-89968135D01*
X110907292Y-89881074D01*
X110799902Y-89787326D01*
X110671056Y-89744518D01*
X110504242Y-89647819D01*
X110465666Y-89541150D01*
X110544456Y-89433556D01*
X110758026Y-89324465D01*
X111072174Y-89223307D01*
X111452701Y-89139517D01*
X111865405Y-89082526D01*
X112201333Y-89062455D01*
X112483228Y-89050097D01*
X112596694Y-89027144D01*
X112542311Y-88993478D01*
X112540000Y-88992829D01*
X112399534Y-88945076D01*
X112412095Y-88905110D01*
X112490658Y-88871493D01*
X112597153Y-88798613D01*
X112557104Y-88713237D01*
X112513611Y-88607094D01*
X112590275Y-88522996D01*
X112672199Y-88418006D01*
X112652246Y-88256638D01*
X112628827Y-88190609D01*
X112579948Y-88017784D01*
X112624303Y-87937502D01*
X112700670Y-87910131D01*
X112855640Y-87801181D01*
X112922146Y-87685006D01*
X112970474Y-87561339D01*
X113003690Y-87593646D01*
X113022972Y-87661521D01*
X113006923Y-87825361D01*
X112951205Y-87890829D01*
X112881834Y-87973851D01*
X112942874Y-88066075D01*
X113029299Y-88126404D01*
X113048000Y-88069600D01*
X113116290Y-87979583D01*
X113175000Y-87968000D01*
X113293434Y-87899344D01*
X113312583Y-87841000D01*
X113335440Y-87678368D01*
X113391234Y-87515003D01*
X113428508Y-87427618D01*
X113429973Y-87403556D01*
X112765778Y-87403556D01*
X112754155Y-87453890D01*
X112709333Y-87460000D01*
X112639643Y-87429022D01*
X112652889Y-87403556D01*
X112753368Y-87393423D01*
X112765778Y-87403556D01*
X113429973Y-87403556D01*
X113441755Y-87210160D01*
X113399311Y-87110118D01*
X113350056Y-86982263D01*
X113385949Y-86952000D01*
X113454961Y-86880979D01*
X113471333Y-86780010D01*
X113526504Y-86617204D01*
X113598333Y-86559285D01*
X113710857Y-86452682D01*
X113725333Y-86392608D01*
X113791364Y-86286181D01*
X113841114Y-86274667D01*
X113923579Y-86195207D01*
X114013434Y-85975980D01*
X114101238Y-85645713D01*
X114172359Y-85266771D01*
X114114227Y-85160807D01*
X113958166Y-85083594D01*
X113725333Y-85019311D01*
X113725333Y-85501427D01*
G36*
X105874264Y-90795514D02*
G01*
X105899515Y-90833996D01*
X105985389Y-90839983D01*
X106075731Y-90819305D01*
X106036541Y-90788830D01*
X105904218Y-90778736D01*
X105874264Y-90795514D01*
G37*
X105874264Y-90795514D02*
X105899515Y-90833996D01*
X105985389Y-90839983D01*
X106075731Y-90819305D01*
X106036541Y-90788830D01*
X105904218Y-90778736D01*
X105874264Y-90795514D01*
G36*
X105089333Y-90889000D02*
G01*
X105131666Y-90931334D01*
X105174000Y-90889000D01*
X105131666Y-90846667D01*
X105089333Y-90889000D01*
G37*
X105089333Y-90889000D02*
X105131666Y-90931334D01*
X105174000Y-90889000D01*
X105131666Y-90846667D01*
X105089333Y-90889000D01*
G36*
X105456222Y-90874889D02*
G01*
X105467844Y-90925223D01*
X105512666Y-90931334D01*
X105582357Y-90900355D01*
X105569111Y-90874889D01*
X105468631Y-90864756D01*
X105456222Y-90874889D01*
G37*
X105456222Y-90874889D02*
X105467844Y-90925223D01*
X105512666Y-90931334D01*
X105582357Y-90900355D01*
X105569111Y-90874889D01*
X105468631Y-90864756D01*
X105456222Y-90874889D01*
G36*
X117112000Y-90973667D02*
G01*
X117154333Y-91016000D01*
X117196666Y-90973667D01*
X117154333Y-90931334D01*
X117112000Y-90973667D01*
G37*
X117112000Y-90973667D02*
X117154333Y-91016000D01*
X117196666Y-90973667D01*
X117154333Y-90931334D01*
X117112000Y-90973667D01*
G36*
X101939918Y-86083413D02*
G01*
X101866114Y-86272872D01*
X101861025Y-86390571D01*
X101870000Y-86400431D01*
X101906009Y-86501407D01*
X101929105Y-86719867D01*
X101934179Y-86948095D01*
X101923312Y-87208275D01*
X101899826Y-87377744D01*
X101873697Y-87418716D01*
X101845571Y-87465505D01*
X101853496Y-87625932D01*
X101855172Y-87637730D01*
X101893210Y-87800751D01*
X101934448Y-87848836D01*
X101936391Y-87847164D01*
X102005115Y-87873698D01*
X102102178Y-88029255D01*
X102212498Y-88279187D01*
X102320994Y-88588844D01*
X102412585Y-88923578D01*
X102421003Y-88960541D01*
X102514440Y-89378989D01*
X102578497Y-89660800D01*
X102620425Y-89834662D01*
X102647475Y-89929263D01*
X102666897Y-89973288D01*
X102681481Y-89991037D01*
X102706948Y-89944677D01*
X102718592Y-89781737D01*
X102718666Y-89765108D01*
X102741746Y-89565586D01*
X102797296Y-89453403D01*
X102797811Y-89453080D01*
X102841693Y-89493995D01*
X102851203Y-89665613D01*
X102845811Y-89744416D01*
X102843720Y-89956321D01*
X102876124Y-90075286D01*
X102893667Y-90084667D01*
X102949693Y-90158114D01*
X102972666Y-90332208D01*
X103000758Y-90692786D01*
X103075651Y-91115580D01*
X103183274Y-91546221D01*
X103309556Y-91930340D01*
X103440426Y-92213566D01*
X103472165Y-92262173D01*
X103604101Y-92411681D01*
X103682572Y-92444802D01*
X103680742Y-92361101D01*
X103635631Y-92264834D01*
X103561676Y-92067120D01*
X103550948Y-91940097D01*
X103531776Y-91785401D01*
X103488754Y-91643945D01*
X103389316Y-91643945D01*
X103373749Y-91753759D01*
X103344847Y-91755070D01*
X103324636Y-91641753D01*
X103338163Y-91592792D01*
X103375758Y-91560722D01*
X103389316Y-91643945D01*
X103488754Y-91643945D01*
X103459867Y-91548969D01*
X103414227Y-91432097D01*
X103287481Y-90924586D01*
X103274923Y-90559534D01*
X103272923Y-90239765D01*
X103269976Y-90204611D01*
X103219982Y-90204611D01*
X103204416Y-90314425D01*
X103175514Y-90315736D01*
X103155302Y-90202419D01*
X103168830Y-90153459D01*
X103206424Y-90121388D01*
X103219982Y-90204611D01*
X103269976Y-90204611D01*
X103248808Y-89952182D01*
X103223235Y-89818701D01*
X103203750Y-89640480D01*
X103251479Y-89571774D01*
X103332153Y-89636678D01*
X103369940Y-89715545D01*
X103422062Y-89809737D01*
X103489703Y-89762049D01*
X103525780Y-89714183D01*
X103603596Y-89636245D01*
X103666683Y-89683081D01*
X103731826Y-89823809D01*
X103830829Y-89964641D01*
X103985286Y-90097816D01*
X104149771Y-90195911D01*
X104278858Y-90231503D01*
X104327333Y-90183300D01*
X104400022Y-90143810D01*
X104560166Y-90138493D01*
X104766481Y-90148435D01*
X105071329Y-90157272D01*
X105364500Y-90162455D01*
X105710896Y-90179669D01*
X105892948Y-90222430D01*
X105914029Y-90292930D01*
X105777508Y-90393361D01*
X105745500Y-90410196D01*
X105652659Y-90466812D01*
X105680708Y-90491456D01*
X105849628Y-90491237D01*
X105958373Y-90485928D01*
X106205841Y-90483824D01*
X106314197Y-90517305D01*
X106318216Y-90577693D01*
X106347427Y-90616010D01*
X106494221Y-90553302D01*
X106571010Y-90507994D01*
X106752891Y-90409148D01*
X106857446Y-90378594D01*
X106867333Y-90388853D01*
X106920374Y-90381019D01*
X107051553Y-90280603D01*
X107087983Y-90247592D01*
X107279968Y-90024120D01*
X107417890Y-89781010D01*
X107448843Y-89661334D01*
X103904000Y-89661334D01*
X103873022Y-89731024D01*
X103847555Y-89717778D01*
X103837422Y-89617298D01*
X103847555Y-89604889D01*
X103897890Y-89616511D01*
X103904000Y-89661334D01*
X107448843Y-89661334D01*
X107470680Y-89576905D01*
X107465874Y-89534334D01*
X107451160Y-89397593D01*
X107445783Y-89232150D01*
X102822743Y-89232150D01*
X102786425Y-89300707D01*
X102688447Y-89384382D01*
X102662030Y-89316503D01*
X102691438Y-89163645D01*
X102744979Y-89039930D01*
X102807278Y-89075142D01*
X102810236Y-89079837D01*
X102822743Y-89232150D01*
X107445783Y-89232150D01*
X107444006Y-89177480D01*
X107443895Y-89153334D01*
X107426446Y-88883531D01*
X107373633Y-88775917D01*
X107282948Y-88826568D01*
X107256487Y-88860168D01*
X107176205Y-88941318D01*
X107160700Y-88939158D01*
X105138447Y-88939158D01*
X105131666Y-88984000D01*
X105059246Y-89064683D01*
X105047000Y-89068667D01*
X104979686Y-89009615D01*
X104962333Y-88984000D01*
X104974199Y-88941667D01*
X103650000Y-88941667D01*
X103607666Y-88984000D01*
X103565333Y-88941667D01*
X103607666Y-88899334D01*
X103650000Y-88941667D01*
X104974199Y-88941667D01*
X104982439Y-88912271D01*
X105047000Y-88899334D01*
X105138447Y-88939158D01*
X107160700Y-88939158D01*
X107082406Y-88928251D01*
X106921253Y-88811470D01*
X106904782Y-88798129D01*
X106784720Y-88708251D01*
X106666249Y-88652790D01*
X106510315Y-88626799D01*
X106277868Y-88625328D01*
X105929855Y-88643431D01*
X105766666Y-88653923D01*
X105356887Y-88679557D01*
X104975169Y-88701390D01*
X104675399Y-88716438D01*
X104555170Y-88721028D01*
X104360440Y-88741471D01*
X104271667Y-88781379D01*
X104272960Y-88795187D01*
X104221187Y-88824014D01*
X104045034Y-88828311D01*
X103879597Y-88816353D01*
X103655574Y-88788522D01*
X103505364Y-88738403D01*
X103427633Y-88668881D01*
X102611805Y-88668881D01*
X102596226Y-88722623D01*
X102512477Y-88809521D01*
X102470207Y-88732312D01*
X102464666Y-88628400D01*
X102485409Y-88505567D01*
X102556924Y-88534405D01*
X102558889Y-88536356D01*
X102611805Y-88668881D01*
X103427633Y-88668881D01*
X103386747Y-88632314D01*
X103257505Y-88436571D01*
X103218660Y-88368746D01*
X102517569Y-88368746D01*
X102480030Y-88391334D01*
X102355937Y-88329023D01*
X102334185Y-88301034D01*
X102302491Y-88190814D01*
X102368195Y-88181771D01*
X102462968Y-88262287D01*
X102517569Y-88368746D01*
X103218660Y-88368746D01*
X103158860Y-88264334D01*
X102888000Y-88264334D01*
X102845666Y-88306667D01*
X102803333Y-88264334D01*
X102845666Y-88222000D01*
X102888000Y-88264334D01*
X103158860Y-88264334D01*
X103134613Y-88222000D01*
X102964712Y-87894855D01*
X102896721Y-87692067D01*
X102919141Y-87609463D01*
X102944412Y-87557946D01*
X102866833Y-87545963D01*
X102736115Y-87495201D01*
X102741704Y-87388619D01*
X102804714Y-87332147D01*
X102846115Y-87227226D01*
X102827177Y-87178983D01*
X102767330Y-87050637D01*
X102762296Y-87022556D01*
X102722119Y-86919590D01*
X102656431Y-86911486D01*
X102634000Y-86980222D01*
X102592310Y-87101671D01*
X102549333Y-87121334D01*
X102485134Y-87049033D01*
X102476802Y-86994334D01*
X102041333Y-86994334D01*
X101999000Y-87036667D01*
X101956666Y-86994334D01*
X101999000Y-86952000D01*
X102041333Y-86994334D01*
X102476802Y-86994334D01*
X102464666Y-86914664D01*
X102429835Y-86732847D01*
X102370669Y-86649900D01*
X102316156Y-86528930D01*
X102322605Y-86308763D01*
X102323012Y-86306236D01*
X102333621Y-86116383D01*
X102299236Y-86022745D01*
X102290010Y-86020667D01*
X102217833Y-86090969D01*
X102200649Y-86168834D01*
X102179710Y-86202619D01*
X102141409Y-86092095D01*
X102134702Y-86063000D01*
X102078772Y-85809000D01*
X101939918Y-86083413D01*
G37*
X101939918Y-86083413D02*
X101866114Y-86272872D01*
X101861025Y-86390571D01*
X101870000Y-86400431D01*
X101906009Y-86501407D01*
X101929105Y-86719867D01*
X101934179Y-86948095D01*
X101923312Y-87208275D01*
X101899826Y-87377744D01*
X101873697Y-87418716D01*
X101845571Y-87465505D01*
X101853496Y-87625932D01*
X101855172Y-87637730D01*
X101893210Y-87800751D01*
X101934448Y-87848836D01*
X101936391Y-87847164D01*
X102005115Y-87873698D01*
X102102178Y-88029255D01*
X102212498Y-88279187D01*
X102320994Y-88588844D01*
X102412585Y-88923578D01*
X102421003Y-88960541D01*
X102514440Y-89378989D01*
X102578497Y-89660800D01*
X102620425Y-89834662D01*
X102647475Y-89929263D01*
X102666897Y-89973288D01*
X102681481Y-89991037D01*
X102706948Y-89944677D01*
X102718592Y-89781737D01*
X102718666Y-89765108D01*
X102741746Y-89565586D01*
X102797296Y-89453403D01*
X102797811Y-89453080D01*
X102841693Y-89493995D01*
X102851203Y-89665613D01*
X102845811Y-89744416D01*
X102843720Y-89956321D01*
X102876124Y-90075286D01*
X102893667Y-90084667D01*
X102949693Y-90158114D01*
X102972666Y-90332208D01*
X103000758Y-90692786D01*
X103075651Y-91115580D01*
X103183274Y-91546221D01*
X103309556Y-91930340D01*
X103440426Y-92213566D01*
X103472165Y-92262173D01*
X103604101Y-92411681D01*
X103682572Y-92444802D01*
X103680742Y-92361101D01*
X103635631Y-92264834D01*
X103561676Y-92067120D01*
X103550948Y-91940097D01*
X103531776Y-91785401D01*
X103488754Y-91643945D01*
X103389316Y-91643945D01*
X103373749Y-91753759D01*
X103344847Y-91755070D01*
X103324636Y-91641753D01*
X103338163Y-91592792D01*
X103375758Y-91560722D01*
X103389316Y-91643945D01*
X103488754Y-91643945D01*
X103459867Y-91548969D01*
X103414227Y-91432097D01*
X103287481Y-90924586D01*
X103274923Y-90559534D01*
X103272923Y-90239765D01*
X103269976Y-90204611D01*
X103219982Y-90204611D01*
X103204416Y-90314425D01*
X103175514Y-90315736D01*
X103155302Y-90202419D01*
X103168830Y-90153459D01*
X103206424Y-90121388D01*
X103219982Y-90204611D01*
X103269976Y-90204611D01*
X103248808Y-89952182D01*
X103223235Y-89818701D01*
X103203750Y-89640480D01*
X103251479Y-89571774D01*
X103332153Y-89636678D01*
X103369940Y-89715545D01*
X103422062Y-89809737D01*
X103489703Y-89762049D01*
X103525780Y-89714183D01*
X103603596Y-89636245D01*
X103666683Y-89683081D01*
X103731826Y-89823809D01*
X103830829Y-89964641D01*
X103985286Y-90097816D01*
X104149771Y-90195911D01*
X104278858Y-90231503D01*
X104327333Y-90183300D01*
X104400022Y-90143810D01*
X104560166Y-90138493D01*
X104766481Y-90148435D01*
X105071329Y-90157272D01*
X105364500Y-90162455D01*
X105710896Y-90179669D01*
X105892948Y-90222430D01*
X105914029Y-90292930D01*
X105777508Y-90393361D01*
X105745500Y-90410196D01*
X105652659Y-90466812D01*
X105680708Y-90491456D01*
X105849628Y-90491237D01*
X105958373Y-90485928D01*
X106205841Y-90483824D01*
X106314197Y-90517305D01*
X106318216Y-90577693D01*
X106347427Y-90616010D01*
X106494221Y-90553302D01*
X106571010Y-90507994D01*
X106752891Y-90409148D01*
X106857446Y-90378594D01*
X106867333Y-90388853D01*
X106920374Y-90381019D01*
X107051553Y-90280603D01*
X107087983Y-90247592D01*
X107279968Y-90024120D01*
X107417890Y-89781010D01*
X107448843Y-89661334D01*
X103904000Y-89661334D01*
X103873022Y-89731024D01*
X103847555Y-89717778D01*
X103837422Y-89617298D01*
X103847555Y-89604889D01*
X103897890Y-89616511D01*
X103904000Y-89661334D01*
X107448843Y-89661334D01*
X107470680Y-89576905D01*
X107465874Y-89534334D01*
X107451160Y-89397593D01*
X107445783Y-89232150D01*
X102822743Y-89232150D01*
X102786425Y-89300707D01*
X102688447Y-89384382D01*
X102662030Y-89316503D01*
X102691438Y-89163645D01*
X102744979Y-89039930D01*
X102807278Y-89075142D01*
X102810236Y-89079837D01*
X102822743Y-89232150D01*
X107445783Y-89232150D01*
X107444006Y-89177480D01*
X107443895Y-89153334D01*
X107426446Y-88883531D01*
X107373633Y-88775917D01*
X107282948Y-88826568D01*
X107256487Y-88860168D01*
X107176205Y-88941318D01*
X107160700Y-88939158D01*
X105138447Y-88939158D01*
X105131666Y-88984000D01*
X105059246Y-89064683D01*
X105047000Y-89068667D01*
X104979686Y-89009615D01*
X104962333Y-88984000D01*
X104974199Y-88941667D01*
X103650000Y-88941667D01*
X103607666Y-88984000D01*
X103565333Y-88941667D01*
X103607666Y-88899334D01*
X103650000Y-88941667D01*
X104974199Y-88941667D01*
X104982439Y-88912271D01*
X105047000Y-88899334D01*
X105138447Y-88939158D01*
X107160700Y-88939158D01*
X107082406Y-88928251D01*
X106921253Y-88811470D01*
X106904782Y-88798129D01*
X106784720Y-88708251D01*
X106666249Y-88652790D01*
X106510315Y-88626799D01*
X106277868Y-88625328D01*
X105929855Y-88643431D01*
X105766666Y-88653923D01*
X105356887Y-88679557D01*
X104975169Y-88701390D01*
X104675399Y-88716438D01*
X104555170Y-88721028D01*
X104360440Y-88741471D01*
X104271667Y-88781379D01*
X104272960Y-88795187D01*
X104221187Y-88824014D01*
X104045034Y-88828311D01*
X103879597Y-88816353D01*
X103655574Y-88788522D01*
X103505364Y-88738403D01*
X103427633Y-88668881D01*
X102611805Y-88668881D01*
X102596226Y-88722623D01*
X102512477Y-88809521D01*
X102470207Y-88732312D01*
X102464666Y-88628400D01*
X102485409Y-88505567D01*
X102556924Y-88534405D01*
X102558889Y-88536356D01*
X102611805Y-88668881D01*
X103427633Y-88668881D01*
X103386747Y-88632314D01*
X103257505Y-88436571D01*
X103218660Y-88368746D01*
X102517569Y-88368746D01*
X102480030Y-88391334D01*
X102355937Y-88329023D01*
X102334185Y-88301034D01*
X102302491Y-88190814D01*
X102368195Y-88181771D01*
X102462968Y-88262287D01*
X102517569Y-88368746D01*
X103218660Y-88368746D01*
X103158860Y-88264334D01*
X102888000Y-88264334D01*
X102845666Y-88306667D01*
X102803333Y-88264334D01*
X102845666Y-88222000D01*
X102888000Y-88264334D01*
X103158860Y-88264334D01*
X103134613Y-88222000D01*
X102964712Y-87894855D01*
X102896721Y-87692067D01*
X102919141Y-87609463D01*
X102944412Y-87557946D01*
X102866833Y-87545963D01*
X102736115Y-87495201D01*
X102741704Y-87388619D01*
X102804714Y-87332147D01*
X102846115Y-87227226D01*
X102827177Y-87178983D01*
X102767330Y-87050637D01*
X102762296Y-87022556D01*
X102722119Y-86919590D01*
X102656431Y-86911486D01*
X102634000Y-86980222D01*
X102592310Y-87101671D01*
X102549333Y-87121334D01*
X102485134Y-87049033D01*
X102476802Y-86994334D01*
X102041333Y-86994334D01*
X101999000Y-87036667D01*
X101956666Y-86994334D01*
X101999000Y-86952000D01*
X102041333Y-86994334D01*
X102476802Y-86994334D01*
X102464666Y-86914664D01*
X102429835Y-86732847D01*
X102370669Y-86649900D01*
X102316156Y-86528930D01*
X102322605Y-86308763D01*
X102323012Y-86306236D01*
X102333621Y-86116383D01*
X102299236Y-86022745D01*
X102290010Y-86020667D01*
X102217833Y-86090969D01*
X102200649Y-86168834D01*
X102179710Y-86202619D01*
X102141409Y-86092095D01*
X102134702Y-86063000D01*
X102078772Y-85809000D01*
X101939918Y-86083413D01*
G36*
X103652460Y-92604429D02*
G01*
X103650000Y-92624667D01*
X103714429Y-92706873D01*
X103734666Y-92709334D01*
X103816873Y-92644904D01*
X103819333Y-92624667D01*
X103754904Y-92542460D01*
X103734666Y-92540000D01*
X103652460Y-92604429D01*
G37*
X103652460Y-92604429D02*
X103650000Y-92624667D01*
X103714429Y-92706873D01*
X103734666Y-92709334D01*
X103816873Y-92644904D01*
X103819333Y-92624667D01*
X103754904Y-92542460D01*
X103734666Y-92540000D01*
X103652460Y-92604429D01*
G36*
X103822779Y-92940127D02*
G01*
X103819333Y-92963334D01*
X103848220Y-93045799D01*
X103856670Y-93048000D01*
X103928956Y-92988671D01*
X103946333Y-92963334D01*
X103939620Y-92885315D01*
X103908997Y-92878667D01*
X103822779Y-92940127D01*
G37*
X103822779Y-92940127D02*
X103819333Y-92963334D01*
X103848220Y-93045799D01*
X103856670Y-93048000D01*
X103928956Y-92988671D01*
X103946333Y-92963334D01*
X103939620Y-92885315D01*
X103908997Y-92878667D01*
X103822779Y-92940127D01*
G36*
X104101555Y-92906889D02*
G01*
X104091422Y-93007369D01*
X104101555Y-93019778D01*
X104151890Y-93008156D01*
X104158000Y-92963334D01*
X104127022Y-92893643D01*
X104101555Y-92906889D01*
G37*
X104101555Y-92906889D02*
X104091422Y-93007369D01*
X104101555Y-93019778D01*
X104151890Y-93008156D01*
X104158000Y-92963334D01*
X104127022Y-92893643D01*
X104101555Y-92906889D01*
G36*
X104412000Y-94445000D02*
G01*
X104454333Y-94487334D01*
X104496666Y-94445000D01*
X104454333Y-94402667D01*
X104412000Y-94445000D01*
G37*
X104412000Y-94445000D02*
X104454333Y-94487334D01*
X104496666Y-94445000D01*
X104454333Y-94402667D01*
X104412000Y-94445000D01*
G36*
X110338666Y-94529667D02*
G01*
X110381000Y-94572000D01*
X110423333Y-94529667D01*
X110381000Y-94487334D01*
X110338666Y-94529667D01*
G37*
X110338666Y-94529667D02*
X110381000Y-94572000D01*
X110423333Y-94529667D01*
X110381000Y-94487334D01*
X110338666Y-94529667D01*
G36*
X112041552Y-94471243D02*
G01*
X112032000Y-94529667D01*
X112077717Y-94642339D01*
X112116666Y-94656667D01*
X112191781Y-94588090D01*
X112201333Y-94529667D01*
X112155616Y-94416995D01*
X112116666Y-94402667D01*
X112041552Y-94471243D01*
G37*
X112041552Y-94471243D02*
X112032000Y-94529667D01*
X112077717Y-94642339D01*
X112116666Y-94656667D01*
X112191781Y-94588090D01*
X112201333Y-94529667D01*
X112155616Y-94416995D01*
X112116666Y-94402667D01*
X112041552Y-94471243D01*
G36*
X104863555Y-95192889D02*
G01*
X104853422Y-95293369D01*
X104863555Y-95305778D01*
X104913890Y-95294156D01*
X104920000Y-95249334D01*
X104889022Y-95179643D01*
X104863555Y-95192889D01*
G37*
X104863555Y-95192889D02*
X104853422Y-95293369D01*
X104863555Y-95305778D01*
X104913890Y-95294156D01*
X104920000Y-95249334D01*
X104889022Y-95179643D01*
X104863555Y-95192889D01*
G36*
X105174000Y-95799667D02*
G01*
X105216333Y-95842000D01*
X105258666Y-95799667D01*
X105216333Y-95757334D01*
X105174000Y-95799667D01*
G37*
X105174000Y-95799667D02*
X105216333Y-95842000D01*
X105258666Y-95799667D01*
X105216333Y-95757334D01*
X105174000Y-95799667D01*
G36*
X106218222Y-96124222D02*
G01*
X106229844Y-96174557D01*
X106274666Y-96180667D01*
X106344357Y-96149689D01*
X106331111Y-96124222D01*
X106230631Y-96114089D01*
X106218222Y-96124222D01*
G37*
X106218222Y-96124222D02*
X106229844Y-96174557D01*
X106274666Y-96180667D01*
X106344357Y-96149689D01*
X106331111Y-96124222D01*
X106230631Y-96114089D01*
X106218222Y-96124222D01*
G36*
X105428000Y-96319707D02*
G01*
X105476401Y-96443980D01*
X105559671Y-96566651D01*
X105647205Y-96670736D01*
X105647356Y-96642277D01*
X105590535Y-96519334D01*
X105489498Y-96321597D01*
X105439398Y-96266544D01*
X105428000Y-96319707D01*
G37*
X105428000Y-96319707D02*
X105476401Y-96443980D01*
X105559671Y-96566651D01*
X105647205Y-96670736D01*
X105647356Y-96642277D01*
X105590535Y-96519334D01*
X105489498Y-96321597D01*
X105439398Y-96266544D01*
X105428000Y-96319707D01*
G36*
X109050222Y-95943511D02*
G01*
X108672718Y-95964055D01*
X108556715Y-95971271D01*
X108170988Y-95997495D01*
X107852787Y-96022752D01*
X107636853Y-96044039D01*
X107558348Y-96057564D01*
X107603269Y-96108913D01*
X107751284Y-96198813D01*
X107761185Y-96204037D01*
X107992673Y-96325327D01*
X107817550Y-96500450D01*
X107706850Y-96630672D01*
X107719594Y-96699371D01*
X107769804Y-96724454D01*
X107958497Y-96758008D01*
X108080758Y-96757324D01*
X108266409Y-96743171D01*
X108547059Y-96723930D01*
X108751166Y-96710766D01*
X109012747Y-96681667D01*
X109189464Y-96637731D01*
X109238000Y-96599775D01*
X109172668Y-96522558D01*
X109147286Y-96519334D01*
X109017124Y-96464940D01*
X108936176Y-96398938D01*
X108874230Y-96309882D01*
X108940278Y-96256076D01*
X109063373Y-96224163D01*
X109280545Y-96142003D01*
X109418698Y-96039973D01*
X109449117Y-95985180D01*
X109414075Y-95952133D01*
X109289226Y-95938890D01*
X109050222Y-95943511D01*
G37*
X109050222Y-95943511D02*
X108672718Y-95964055D01*
X108556715Y-95971271D01*
X108170988Y-95997495D01*
X107852787Y-96022752D01*
X107636853Y-96044039D01*
X107558348Y-96057564D01*
X107603269Y-96108913D01*
X107751284Y-96198813D01*
X107761185Y-96204037D01*
X107992673Y-96325327D01*
X107817550Y-96500450D01*
X107706850Y-96630672D01*
X107719594Y-96699371D01*
X107769804Y-96724454D01*
X107958497Y-96758008D01*
X108080758Y-96757324D01*
X108266409Y-96743171D01*
X108547059Y-96723930D01*
X108751166Y-96710766D01*
X109012747Y-96681667D01*
X109189464Y-96637731D01*
X109238000Y-96599775D01*
X109172668Y-96522558D01*
X109147286Y-96519334D01*
X109017124Y-96464940D01*
X108936176Y-96398938D01*
X108874230Y-96309882D01*
X108940278Y-96256076D01*
X109063373Y-96224163D01*
X109280545Y-96142003D01*
X109418698Y-96039973D01*
X109449117Y-95985180D01*
X109414075Y-95952133D01*
X109289226Y-95938890D01*
X109050222Y-95943511D01*
G36*
X105004430Y-95333795D02*
G01*
X105003394Y-95335453D01*
X104978219Y-95458537D01*
X105028546Y-95493215D01*
X105234622Y-95611137D01*
X105365286Y-95784046D01*
X105381026Y-95941289D01*
X105395086Y-96096816D01*
X105463722Y-96147512D01*
X105570395Y-96255631D01*
X105672444Y-96461934D01*
X105694929Y-96529100D01*
X105795325Y-96783965D01*
X105907387Y-96950258D01*
X106007605Y-96998936D01*
X106048580Y-96965999D01*
X106043186Y-96853192D01*
X105980526Y-96654238D01*
X105885168Y-96425780D01*
X105781682Y-96224459D01*
X105694638Y-96106918D01*
X105671206Y-96096000D01*
X105609288Y-96025696D01*
X105597333Y-95941916D01*
X105543581Y-95787844D01*
X105408313Y-95581741D01*
X105339347Y-95498869D01*
X105173117Y-95328878D01*
X105072748Y-95279336D01*
X105004430Y-95333795D01*
G37*
X105004430Y-95333795D02*
X105003394Y-95335453D01*
X104978219Y-95458537D01*
X105028546Y-95493215D01*
X105234622Y-95611137D01*
X105365286Y-95784046D01*
X105381026Y-95941289D01*
X105395086Y-96096816D01*
X105463722Y-96147512D01*
X105570395Y-96255631D01*
X105672444Y-96461934D01*
X105694929Y-96529100D01*
X105795325Y-96783965D01*
X105907387Y-96950258D01*
X106007605Y-96998936D01*
X106048580Y-96965999D01*
X106043186Y-96853192D01*
X105980526Y-96654238D01*
X105885168Y-96425780D01*
X105781682Y-96224459D01*
X105694638Y-96106918D01*
X105671206Y-96096000D01*
X105609288Y-96025696D01*
X105597333Y-95941916D01*
X105543581Y-95787844D01*
X105408313Y-95581741D01*
X105339347Y-95498869D01*
X105173117Y-95328878D01*
X105072748Y-95279336D01*
X105004430Y-95333795D01*
G36*
X106190000Y-97069667D02*
G01*
X106232333Y-97112000D01*
X106274666Y-97069667D01*
X106232333Y-97027334D01*
X106190000Y-97069667D01*
G37*
X106190000Y-97069667D02*
X106232333Y-97112000D01*
X106274666Y-97069667D01*
X106232333Y-97027334D01*
X106190000Y-97069667D01*
G36*
X105965104Y-97163870D02*
G01*
X105978333Y-97196667D01*
X106054415Y-97277437D01*
X106067997Y-97281334D01*
X106104362Y-97215828D01*
X106105333Y-97196667D01*
X106040245Y-97115254D01*
X106015670Y-97112000D01*
X105965104Y-97163870D01*
G37*
X105965104Y-97163870D02*
X105978333Y-97196667D01*
X106054415Y-97277437D01*
X106067997Y-97281334D01*
X106104362Y-97215828D01*
X106105333Y-97196667D01*
X106040245Y-97115254D01*
X106015670Y-97112000D01*
X105965104Y-97163870D01*
G36*
X106218222Y-97309556D02*
G01*
X106208089Y-97410035D01*
X106218222Y-97422445D01*
X106268556Y-97410822D01*
X106274666Y-97366000D01*
X106243688Y-97296310D01*
X106218222Y-97309556D01*
G37*
X106218222Y-97309556D02*
X106208089Y-97410035D01*
X106218222Y-97422445D01*
X106268556Y-97410822D01*
X106274666Y-97366000D01*
X106243688Y-97296310D01*
X106218222Y-97309556D01*
G36*
X110936768Y-97606594D02*
G01*
X110931333Y-97704667D01*
X110988631Y-97843872D01*
X111113789Y-97874000D01*
X111237662Y-97864909D01*
X111232427Y-97808985D01*
X111143000Y-97704667D01*
X111020515Y-97579846D01*
X110960544Y-97535334D01*
X110936768Y-97606594D01*
G37*
X110936768Y-97606594D02*
X110931333Y-97704667D01*
X110988631Y-97843872D01*
X111113789Y-97874000D01*
X111237662Y-97864909D01*
X111232427Y-97808985D01*
X111143000Y-97704667D01*
X111020515Y-97579846D01*
X110960544Y-97535334D01*
X110936768Y-97606594D01*
G36*
X106554043Y-97585574D02*
G01*
X106631061Y-97700782D01*
X106743860Y-97827689D01*
X106849722Y-97913024D01*
X106863520Y-97919399D01*
X106897398Y-97900396D01*
X106824080Y-97792722D01*
X106787083Y-97751701D01*
X106644734Y-97607846D01*
X106560407Y-97536905D01*
X106555524Y-97535334D01*
X106554043Y-97585574D01*
G37*
X106554043Y-97585574D02*
X106631061Y-97700782D01*
X106743860Y-97827689D01*
X106849722Y-97913024D01*
X106863520Y-97919399D01*
X106897398Y-97900396D01*
X106824080Y-97792722D01*
X106787083Y-97751701D01*
X106644734Y-97607846D01*
X106560407Y-97536905D01*
X106555524Y-97535334D01*
X106554043Y-97585574D01*
G36*
X107544666Y-98085667D02*
G01*
X107587000Y-98128000D01*
X107629333Y-98085667D01*
X107587000Y-98043334D01*
X107544666Y-98085667D01*
G37*
X107544666Y-98085667D02*
X107587000Y-98128000D01*
X107629333Y-98085667D01*
X107587000Y-98043334D01*
X107544666Y-98085667D01*
G36*
X107460000Y-98255000D02*
G01*
X107502333Y-98297334D01*
X107544666Y-98255000D01*
X107502333Y-98212667D01*
X107460000Y-98255000D01*
G37*
X107460000Y-98255000D02*
X107502333Y-98297334D01*
X107544666Y-98255000D01*
X107502333Y-98212667D01*
X107460000Y-98255000D01*
G36*
X116442885Y-86857026D02*
G01*
X116392333Y-86952000D01*
X116320940Y-87069940D01*
X116264441Y-87078449D01*
X116169694Y-87102351D01*
X116112294Y-87173876D01*
X115972326Y-87276785D01*
X115810757Y-87272065D01*
X115648254Y-87264175D01*
X115588000Y-87302408D01*
X115517259Y-87362424D01*
X115424875Y-87375333D01*
X115271638Y-87441766D01*
X115223029Y-87523500D01*
X115192852Y-87575753D01*
X115175293Y-87463401D01*
X115174488Y-87446760D01*
X115143420Y-87287234D01*
X115044256Y-87256194D01*
X114988837Y-87267833D01*
X114815428Y-87382342D01*
X114716941Y-87622702D01*
X114690201Y-88000425D01*
X114706687Y-88291179D01*
X114719073Y-88610732D01*
X114709454Y-88984733D01*
X114681987Y-89374717D01*
X114640824Y-89742218D01*
X114590120Y-90048772D01*
X114534030Y-90255913D01*
X114487080Y-90324556D01*
X114417743Y-90421110D01*
X114402666Y-90522868D01*
X114351882Y-90708596D01*
X114233333Y-90908230D01*
X114114340Y-91093141D01*
X114064009Y-91238142D01*
X114064000Y-91239392D01*
X114026108Y-91382944D01*
X113931550Y-91599615D01*
X113894666Y-91671220D01*
X113793527Y-91838085D01*
X113732987Y-91895810D01*
X113725333Y-91877583D01*
X113677724Y-91808553D01*
X113640666Y-91820334D01*
X113568485Y-91940254D01*
X113556000Y-92029900D01*
X113480221Y-92180211D01*
X113302000Y-92299572D01*
X113127430Y-92406114D01*
X113048403Y-92512155D01*
X113048000Y-92518335D01*
X112980524Y-92614378D01*
X112930058Y-92624667D01*
X112792709Y-92681279D01*
X112762211Y-92805775D01*
X112844385Y-92930143D01*
X112901243Y-92961217D01*
X112986810Y-93007106D01*
X112939785Y-93031729D01*
X112743169Y-93041913D01*
X112698533Y-93042633D01*
X112386913Y-93014902D01*
X112205958Y-92926322D01*
X112201333Y-92921000D01*
X112040695Y-92812617D01*
X111948781Y-92794000D01*
X111790754Y-92748462D01*
X111570794Y-92634288D01*
X111489721Y-92582334D01*
X111282767Y-92453339D01*
X111129825Y-92378361D01*
X111096907Y-92370667D01*
X111018324Y-92306124D01*
X111016000Y-92286000D01*
X110947423Y-92210886D01*
X110889000Y-92201334D01*
X110776241Y-92161731D01*
X110762000Y-92128169D01*
X110687294Y-92043148D01*
X110499967Y-91952739D01*
X110255207Y-91874236D01*
X110008200Y-91824929D01*
X109814134Y-91822111D01*
X109796849Y-91825762D01*
X109625603Y-91899079D01*
X109583653Y-91978420D01*
X109680297Y-92028156D01*
X109743021Y-92032000D01*
X109930907Y-92094742D01*
X110006532Y-92275311D01*
X109966958Y-92562222D01*
X109916200Y-92709334D01*
X109810588Y-92934083D01*
X109710821Y-93076401D01*
X109671517Y-93100917D01*
X109564541Y-93123942D01*
X109555500Y-93128962D01*
X109465436Y-93147328D01*
X109305533Y-93163331D01*
X109081912Y-93233317D01*
X108867300Y-93376990D01*
X108705661Y-93496938D01*
X108588267Y-93529262D01*
X108579946Y-93525582D01*
X108457646Y-93510538D01*
X108229812Y-93524645D01*
X108064970Y-93546513D01*
X107720023Y-93575753D01*
X107472316Y-93530466D01*
X107407280Y-93501134D01*
X107212550Y-93417350D01*
X107082912Y-93386667D01*
X106955184Y-93311006D01*
X106858131Y-93117421D01*
X106801380Y-92856007D01*
X106794560Y-92576861D01*
X106847297Y-92330078D01*
X106870312Y-92280434D01*
X106901497Y-92149438D01*
X106830796Y-92114012D01*
X106697650Y-92176446D01*
X106601461Y-92264834D01*
X106306176Y-92561641D01*
X105977678Y-92846657D01*
X105672867Y-93072176D01*
X105550719Y-93145798D01*
X105346042Y-93236409D01*
X105162746Y-93250070D01*
X104913221Y-93192774D01*
X104903868Y-93190043D01*
X104672538Y-93142846D01*
X104437601Y-93125916D01*
X104239284Y-93136304D01*
X104117814Y-93171064D01*
X104113417Y-93227247D01*
X104138214Y-93246146D01*
X104207360Y-93348206D01*
X104197317Y-93391547D01*
X104216306Y-93433785D01*
X104280602Y-93418972D01*
X104383620Y-93426409D01*
X104414817Y-93568108D01*
X104470296Y-93776435D01*
X104590033Y-93974812D01*
X104718781Y-94106109D01*
X104799730Y-94108667D01*
X104839920Y-94059478D01*
X104895837Y-94009781D01*
X104917465Y-94110869D01*
X104918703Y-94167717D01*
X104939583Y-94329646D01*
X105035257Y-94370353D01*
X105152833Y-94353924D01*
X105311496Y-94345196D01*
X105418985Y-94420819D01*
X105526334Y-94618081D01*
X105532341Y-94631208D01*
X105733281Y-95091937D01*
X105853929Y-95417634D01*
X105897145Y-95601716D01*
X105958003Y-95857836D01*
X106065560Y-95966795D01*
X106140366Y-95960086D01*
X106251738Y-95846415D01*
X106355868Y-95631923D01*
X106426571Y-95384058D01*
X106439994Y-95188324D01*
X106437108Y-94937506D01*
X106505127Y-94833689D01*
X106658306Y-94870112D01*
X106849595Y-94994101D01*
X107101114Y-95119173D01*
X107465504Y-95229411D01*
X107886377Y-95314877D01*
X108307341Y-95365635D01*
X108672005Y-95371746D01*
X108852315Y-95347026D01*
X109416750Y-95206931D01*
X109840719Y-95098119D01*
X110148718Y-95013644D01*
X110365246Y-94946564D01*
X110514797Y-94889932D01*
X110589157Y-94854674D01*
X110806131Y-94758951D01*
X110905109Y-94756422D01*
X110889000Y-94826000D01*
X110890063Y-94904264D01*
X110916462Y-94910667D01*
X110999601Y-94981194D01*
X111040532Y-95080000D01*
X111145260Y-95219546D01*
X111320072Y-95259677D01*
X111507512Y-95212369D01*
X111650125Y-95089596D01*
X111693333Y-94943942D01*
X111619662Y-94701521D01*
X111432166Y-94520930D01*
X111181119Y-94422226D01*
X110916796Y-94425465D01*
X110694690Y-94545545D01*
X110488274Y-94662862D01*
X110136865Y-94765718D01*
X109664606Y-94847761D01*
X109449666Y-94873080D01*
X109120852Y-94916449D01*
X108817787Y-94971620D01*
X108670646Y-95008121D01*
X108386268Y-95040912D01*
X108184982Y-94965961D01*
X108090047Y-94813049D01*
X108124720Y-94611954D01*
X108240143Y-94456885D01*
X108368476Y-94346334D01*
X108430643Y-94314976D01*
X108600436Y-94297384D01*
X108690144Y-94191000D01*
X108645333Y-94191000D01*
X108603000Y-94233334D01*
X108560666Y-94191000D01*
X108603000Y-94148667D01*
X108645333Y-94191000D01*
X108690144Y-94191000D01*
X108698892Y-94180627D01*
X108730677Y-94104551D01*
X108747804Y-94080955D01*
X107481907Y-94080955D01*
X107460061Y-94227806D01*
X107380379Y-94402815D01*
X107297666Y-94601782D01*
X107216459Y-94760298D01*
X107134583Y-94778664D01*
X107076889Y-94739582D01*
X106975577Y-94680056D01*
X106945316Y-94752133D01*
X106926721Y-94818381D01*
X106895751Y-94761973D01*
X106815160Y-94691527D01*
X106780340Y-94700438D01*
X106702744Y-94661243D01*
X106597776Y-94508664D01*
X106565062Y-94444446D01*
X106479079Y-94239643D01*
X106473872Y-94115427D01*
X106547707Y-94004515D01*
X106553561Y-93997981D01*
X106674743Y-93803282D01*
X106742915Y-93619500D01*
X106800998Y-93445509D01*
X106880772Y-93402736D01*
X107020978Y-93486934D01*
X107128090Y-93577270D01*
X107377662Y-93845043D01*
X107481907Y-94080955D01*
X108747804Y-94080955D01*
X108843864Y-93948615D01*
X109059876Y-93753377D01*
X109309506Y-93575384D01*
X109500653Y-93429000D01*
X109068666Y-93429000D01*
X109026333Y-93471334D01*
X108984000Y-93429000D01*
X109026333Y-93386667D01*
X109068666Y-93429000D01*
X109500653Y-93429000D01*
X109720721Y-93260468D01*
X109986554Y-92924165D01*
X110001435Y-92897171D01*
X110126296Y-92691729D01*
X110228009Y-92572149D01*
X110262365Y-92558504D01*
X110364625Y-92629652D01*
X110558329Y-92791699D01*
X110813542Y-93017475D01*
X111100332Y-93279806D01*
X111388763Y-93551520D01*
X111648903Y-93805445D01*
X111757644Y-93915834D01*
X111970497Y-94121592D01*
X112146798Y-94266586D01*
X112243949Y-94318000D01*
X112380421Y-94253591D01*
X112540458Y-94101717D01*
X112668096Y-93924405D01*
X112709333Y-93802215D01*
X112761811Y-93622777D01*
X112885421Y-93439164D01*
X113029429Y-93318203D01*
X113089086Y-93302000D01*
X113237267Y-93357587D01*
X113344889Y-93441651D01*
X113412650Y-93537016D01*
X113447396Y-93678118D01*
X113452905Y-93904046D01*
X113432956Y-94253893D01*
X113428768Y-94309484D01*
X113403426Y-94661337D01*
X113384694Y-94961737D01*
X113375616Y-95160332D01*
X113375257Y-95194956D01*
X113306261Y-95342533D01*
X113212758Y-95395331D01*
X113078066Y-95457896D01*
X113048000Y-95502625D01*
X112974937Y-95562190D01*
X112798712Y-95616680D01*
X112794000Y-95617634D01*
X112606265Y-95693892D01*
X112540000Y-95797550D01*
X112492133Y-95912950D01*
X112397744Y-95900315D01*
X112346980Y-95820834D01*
X112287106Y-95747206D01*
X112224451Y-95821981D01*
X112168774Y-96024691D01*
X112135978Y-96263472D01*
X112088566Y-96547806D01*
X112013386Y-96677312D01*
X111973898Y-96688667D01*
X111894823Y-96732552D01*
X111904908Y-96773185D01*
X111900826Y-96903709D01*
X111800702Y-97057424D01*
X111652355Y-97168201D01*
X111608957Y-97182459D01*
X111394353Y-97276832D01*
X111332297Y-97423518D01*
X111374531Y-97535679D01*
X111407790Y-97720592D01*
X111316393Y-97883627D01*
X111139069Y-97958431D01*
X111127636Y-97958667D01*
X111048017Y-98011611D01*
X111059615Y-98064500D01*
X111058866Y-98093725D01*
X111011623Y-98043334D01*
X110719666Y-98043334D01*
X110693743Y-98109974D01*
X110597663Y-98128000D01*
X110457392Y-98093457D01*
X110423333Y-98043334D01*
X110491548Y-97967394D01*
X110545336Y-97958667D01*
X110689485Y-98010267D01*
X110719666Y-98043334D01*
X111011623Y-98043334D01*
X110991778Y-98022167D01*
X110840962Y-97924523D01*
X110633813Y-97878598D01*
X110438742Y-97889459D01*
X110324162Y-97962177D01*
X110319983Y-97972384D01*
X110223399Y-98034523D01*
X110015223Y-98080994D01*
X109884170Y-98093519D01*
X109618836Y-98126854D01*
X109414993Y-98184747D01*
X109363043Y-98214290D01*
X109184895Y-98271513D01*
X108989310Y-98256167D01*
X108789178Y-98235742D01*
X108530035Y-98239103D01*
X108259068Y-98261142D01*
X108023463Y-98296749D01*
X107870406Y-98340816D01*
X107840128Y-98380589D01*
X107934297Y-98403776D01*
X108167178Y-98424875D01*
X108508148Y-98442095D01*
X108926586Y-98453646D01*
X109139946Y-98456595D01*
X109676063Y-98457424D01*
X110070275Y-98446769D01*
X110349752Y-98422545D01*
X110541662Y-98382669D01*
X110644610Y-98341163D01*
X110834584Y-98255000D01*
X110423333Y-98255000D01*
X110381000Y-98297334D01*
X110338666Y-98255000D01*
X110381000Y-98212667D01*
X110423333Y-98255000D01*
X110834584Y-98255000D01*
X110875306Y-98236531D01*
X110981320Y-98225772D01*
X110955354Y-98308922D01*
X110931333Y-98339667D01*
X110886023Y-98420993D01*
X110951580Y-98456132D01*
X111153800Y-98461003D01*
X111461921Y-98429479D01*
X111783666Y-98359803D01*
X111820333Y-98348784D01*
X112075132Y-98255000D01*
X111524000Y-98255000D01*
X111481666Y-98297334D01*
X111461424Y-98277091D01*
X111317945Y-98277091D01*
X111234722Y-98290649D01*
X111124908Y-98275083D01*
X111123597Y-98246181D01*
X111236914Y-98225969D01*
X111285875Y-98239497D01*
X111317945Y-98277091D01*
X111461424Y-98277091D01*
X111439333Y-98255000D01*
X111481666Y-98212667D01*
X111524000Y-98255000D01*
X112075132Y-98255000D01*
X112205823Y-98206897D01*
X112521459Y-98032047D01*
X112842549Y-97779929D01*
X112948511Y-97685057D01*
X113106008Y-97560975D01*
X112932560Y-97560975D01*
X112925353Y-97590969D01*
X112841030Y-97567754D01*
X112730512Y-97548081D01*
X112736845Y-97596019D01*
X112737606Y-97702178D01*
X112607334Y-97829102D01*
X112332243Y-97988877D01*
X112231272Y-98039255D01*
X111993927Y-98134902D01*
X111792514Y-98182510D01*
X111668004Y-98176551D01*
X111658045Y-98116601D01*
X111756024Y-98053260D01*
X111952258Y-97972045D01*
X112012012Y-97951511D01*
X112253319Y-97841519D01*
X112430972Y-97705502D01*
X112505708Y-97577468D01*
X112495862Y-97532413D01*
X112532876Y-97495235D01*
X112664567Y-97490202D01*
X112820314Y-97512696D01*
X112929501Y-97558098D01*
X112932560Y-97560975D01*
X113106008Y-97560975D01*
X113248188Y-97448961D01*
X113593940Y-97228427D01*
X113752844Y-97145408D01*
X113948768Y-97046427D01*
X114026914Y-96991186D01*
X113979333Y-96990098D01*
X113851772Y-97015444D01*
X113850659Y-96989237D01*
X113982579Y-96892018D01*
X114021666Y-96864989D01*
X114242405Y-96729988D01*
X114361514Y-96695390D01*
X114365634Y-96764069D01*
X114349077Y-96794500D01*
X114336662Y-96846554D01*
X114427815Y-96784907D01*
X114519926Y-96659184D01*
X114516949Y-96583423D01*
X114528275Y-96529759D01*
X114581381Y-96539242D01*
X114761937Y-96537241D01*
X114925484Y-96443798D01*
X114942459Y-96409989D01*
X114791556Y-96409989D01*
X114780051Y-96440517D01*
X114698317Y-96515591D01*
X114658323Y-96430084D01*
X114656666Y-96387337D01*
X114698323Y-96300134D01*
X114742714Y-96308520D01*
X114791556Y-96409989D01*
X114942459Y-96409989D01*
X114995333Y-96304688D01*
X114948663Y-96193941D01*
X114910666Y-96180667D01*
X114835552Y-96112090D01*
X114826000Y-96053667D01*
X114871717Y-95940995D01*
X114910666Y-95926667D01*
X114991964Y-95991843D01*
X114995333Y-96017039D01*
X115062866Y-96068703D01*
X115185833Y-96050615D01*
X115317105Y-96015966D01*
X115307386Y-96048607D01*
X115207000Y-96134247D01*
X115037666Y-96274675D01*
X115207000Y-96191384D01*
X115484124Y-95991838D01*
X115596786Y-95870222D01*
X115475111Y-95870222D01*
X115463489Y-95920557D01*
X115418666Y-95926667D01*
X115348976Y-95895689D01*
X115354882Y-95884334D01*
X115164666Y-95884334D01*
X115122333Y-95926667D01*
X115080000Y-95884334D01*
X115122333Y-95842000D01*
X115164666Y-95884334D01*
X115354882Y-95884334D01*
X115362222Y-95870222D01*
X115462702Y-95860089D01*
X115475111Y-95870222D01*
X115596786Y-95870222D01*
X115769282Y-95684018D01*
X115770874Y-95681725D01*
X115334000Y-95681725D01*
X115287625Y-95755104D01*
X115194706Y-95721443D01*
X115135703Y-95634645D01*
X115139461Y-95548736D01*
X115211312Y-95559037D01*
X115320643Y-95642397D01*
X115334000Y-95681725D01*
X115770874Y-95681725D01*
X116020946Y-95321565D01*
X116035477Y-95291667D01*
X115334000Y-95291667D01*
X115291666Y-95334000D01*
X115249333Y-95291667D01*
X115291666Y-95249334D01*
X115334000Y-95291667D01*
X116035477Y-95291667D01*
X116197589Y-94958124D01*
X116223888Y-94877807D01*
X116298819Y-94459696D01*
X116315896Y-93974171D01*
X116277052Y-93496045D01*
X116184218Y-93100130D01*
X116177536Y-93082099D01*
X116124173Y-92853180D01*
X116097895Y-92546948D01*
X116095777Y-92198571D01*
X116114897Y-91843218D01*
X116152329Y-91516057D01*
X116205149Y-91252256D01*
X116270434Y-91086985D01*
X116345257Y-91055410D01*
X116346017Y-91055872D01*
X116380288Y-91017055D01*
X116370232Y-90886438D01*
X116321617Y-90728731D01*
X116276630Y-90677078D01*
X116255386Y-90597945D01*
X116238316Y-90383302D01*
X116227287Y-90066956D01*
X116224065Y-89724578D01*
X116217987Y-89332210D01*
X116200694Y-88997865D01*
X116174967Y-88760619D01*
X116148622Y-88664601D01*
X116048394Y-88380541D01*
X116080040Y-88009039D01*
X116241400Y-87566139D01*
X116316139Y-87419225D01*
X116448191Y-87149535D01*
X116524804Y-86941096D01*
X116531638Y-86833944D01*
X116527234Y-86829883D01*
X116442885Y-86857026D01*
G37*
X116442885Y-86857026D02*
X116392333Y-86952000D01*
X116320940Y-87069940D01*
X116264441Y-87078449D01*
X116169694Y-87102351D01*
X116112294Y-87173876D01*
X115972326Y-87276785D01*
X115810757Y-87272065D01*
X115648254Y-87264175D01*
X115588000Y-87302408D01*
X115517259Y-87362424D01*
X115424875Y-87375333D01*
X115271638Y-87441766D01*
X115223029Y-87523500D01*
X115192852Y-87575753D01*
X115175293Y-87463401D01*
X115174488Y-87446760D01*
X115143420Y-87287234D01*
X115044256Y-87256194D01*
X114988837Y-87267833D01*
X114815428Y-87382342D01*
X114716941Y-87622702D01*
X114690201Y-88000425D01*
X114706687Y-88291179D01*
X114719073Y-88610732D01*
X114709454Y-88984733D01*
X114681987Y-89374717D01*
X114640824Y-89742218D01*
X114590120Y-90048772D01*
X114534030Y-90255913D01*
X114487080Y-90324556D01*
X114417743Y-90421110D01*
X114402666Y-90522868D01*
X114351882Y-90708596D01*
X114233333Y-90908230D01*
X114114340Y-91093141D01*
X114064009Y-91238142D01*
X114064000Y-91239392D01*
X114026108Y-91382944D01*
X113931550Y-91599615D01*
X113894666Y-91671220D01*
X113793527Y-91838085D01*
X113732987Y-91895810D01*
X113725333Y-91877583D01*
X113677724Y-91808553D01*
X113640666Y-91820334D01*
X113568485Y-91940254D01*
X113556000Y-92029900D01*
X113480221Y-92180211D01*
X113302000Y-92299572D01*
X113127430Y-92406114D01*
X113048403Y-92512155D01*
X113048000Y-92518335D01*
X112980524Y-92614378D01*
X112930058Y-92624667D01*
X112792709Y-92681279D01*
X112762211Y-92805775D01*
X112844385Y-92930143D01*
X112901243Y-92961217D01*
X112986810Y-93007106D01*
X112939785Y-93031729D01*
X112743169Y-93041913D01*
X112698533Y-93042633D01*
X112386913Y-93014902D01*
X112205958Y-92926322D01*
X112201333Y-92921000D01*
X112040695Y-92812617D01*
X111948781Y-92794000D01*
X111790754Y-92748462D01*
X111570794Y-92634288D01*
X111489721Y-92582334D01*
X111282767Y-92453339D01*
X111129825Y-92378361D01*
X111096907Y-92370667D01*
X111018324Y-92306124D01*
X111016000Y-92286000D01*
X110947423Y-92210886D01*
X110889000Y-92201334D01*
X110776241Y-92161731D01*
X110762000Y-92128169D01*
X110687294Y-92043148D01*
X110499967Y-91952739D01*
X110255207Y-91874236D01*
X110008200Y-91824929D01*
X109814134Y-91822111D01*
X109796849Y-91825762D01*
X109625603Y-91899079D01*
X109583653Y-91978420D01*
X109680297Y-92028156D01*
X109743021Y-92032000D01*
X109930907Y-92094742D01*
X110006532Y-92275311D01*
X109966958Y-92562222D01*
X109916200Y-92709334D01*
X109810588Y-92934083D01*
X109710821Y-93076401D01*
X109671517Y-93100917D01*
X109564541Y-93123942D01*
X109555500Y-93128962D01*
X109465436Y-93147328D01*
X109305533Y-93163331D01*
X109081912Y-93233317D01*
X108867300Y-93376990D01*
X108705661Y-93496938D01*
X108588267Y-93529262D01*
X108579946Y-93525582D01*
X108457646Y-93510538D01*
X108229812Y-93524645D01*
X108064970Y-93546513D01*
X107720023Y-93575753D01*
X107472316Y-93530466D01*
X107407280Y-93501134D01*
X107212550Y-93417350D01*
X107082912Y-93386667D01*
X106955184Y-93311006D01*
X106858131Y-93117421D01*
X106801380Y-92856007D01*
X106794560Y-92576861D01*
X106847297Y-92330078D01*
X106870312Y-92280434D01*
X106901497Y-92149438D01*
X106830796Y-92114012D01*
X106697650Y-92176446D01*
X106601461Y-92264834D01*
X106306176Y-92561641D01*
X105977678Y-92846657D01*
X105672867Y-93072176D01*
X105550719Y-93145798D01*
X105346042Y-93236409D01*
X105162746Y-93250070D01*
X104913221Y-93192774D01*
X104903868Y-93190043D01*
X104672538Y-93142846D01*
X104437601Y-93125916D01*
X104239284Y-93136304D01*
X104117814Y-93171064D01*
X104113417Y-93227247D01*
X104138214Y-93246146D01*
X104207360Y-93348206D01*
X104197317Y-93391547D01*
X104216306Y-93433785D01*
X104280602Y-93418972D01*
X104383620Y-93426409D01*
X104414817Y-93568108D01*
X104470296Y-93776435D01*
X104590033Y-93974812D01*
X104718781Y-94106109D01*
X104799730Y-94108667D01*
X104839920Y-94059478D01*
X104895837Y-94009781D01*
X104917465Y-94110869D01*
X104918703Y-94167717D01*
X104939583Y-94329646D01*
X105035257Y-94370353D01*
X105152833Y-94353924D01*
X105311496Y-94345196D01*
X105418985Y-94420819D01*
X105526334Y-94618081D01*
X105532341Y-94631208D01*
X105733281Y-95091937D01*
X105853929Y-95417634D01*
X105897145Y-95601716D01*
X105958003Y-95857836D01*
X106065560Y-95966795D01*
X106140366Y-95960086D01*
X106251738Y-95846415D01*
X106355868Y-95631923D01*
X106426571Y-95384058D01*
X106439994Y-95188324D01*
X106437108Y-94937506D01*
X106505127Y-94833689D01*
X106658306Y-94870112D01*
X106849595Y-94994101D01*
X107101114Y-95119173D01*
X107465504Y-95229411D01*
X107886377Y-95314877D01*
X108307341Y-95365635D01*
X108672005Y-95371746D01*
X108852315Y-95347026D01*
X109416750Y-95206931D01*
X109840719Y-95098119D01*
X110148718Y-95013644D01*
X110365246Y-94946564D01*
X110514797Y-94889932D01*
X110589157Y-94854674D01*
X110806131Y-94758951D01*
X110905109Y-94756422D01*
X110889000Y-94826000D01*
X110890063Y-94904264D01*
X110916462Y-94910667D01*
X110999601Y-94981194D01*
X111040532Y-95080000D01*
X111145260Y-95219546D01*
X111320072Y-95259677D01*
X111507512Y-95212369D01*
X111650125Y-95089596D01*
X111693333Y-94943942D01*
X111619662Y-94701521D01*
X111432166Y-94520930D01*
X111181119Y-94422226D01*
X110916796Y-94425465D01*
X110694690Y-94545545D01*
X110488274Y-94662862D01*
X110136865Y-94765718D01*
X109664606Y-94847761D01*
X109449666Y-94873080D01*
X109120852Y-94916449D01*
X108817787Y-94971620D01*
X108670646Y-95008121D01*
X108386268Y-95040912D01*
X108184982Y-94965961D01*
X108090047Y-94813049D01*
X108124720Y-94611954D01*
X108240143Y-94456885D01*
X108368476Y-94346334D01*
X108430643Y-94314976D01*
X108600436Y-94297384D01*
X108690144Y-94191000D01*
X108645333Y-94191000D01*
X108603000Y-94233334D01*
X108560666Y-94191000D01*
X108603000Y-94148667D01*
X108645333Y-94191000D01*
X108690144Y-94191000D01*
X108698892Y-94180627D01*
X108730677Y-94104551D01*
X108747804Y-94080955D01*
X107481907Y-94080955D01*
X107460061Y-94227806D01*
X107380379Y-94402815D01*
X107297666Y-94601782D01*
X107216459Y-94760298D01*
X107134583Y-94778664D01*
X107076889Y-94739582D01*
X106975577Y-94680056D01*
X106945316Y-94752133D01*
X106926721Y-94818381D01*
X106895751Y-94761973D01*
X106815160Y-94691527D01*
X106780340Y-94700438D01*
X106702744Y-94661243D01*
X106597776Y-94508664D01*
X106565062Y-94444446D01*
X106479079Y-94239643D01*
X106473872Y-94115427D01*
X106547707Y-94004515D01*
X106553561Y-93997981D01*
X106674743Y-93803282D01*
X106742915Y-93619500D01*
X106800998Y-93445509D01*
X106880772Y-93402736D01*
X107020978Y-93486934D01*
X107128090Y-93577270D01*
X107377662Y-93845043D01*
X107481907Y-94080955D01*
X108747804Y-94080955D01*
X108843864Y-93948615D01*
X109059876Y-93753377D01*
X109309506Y-93575384D01*
X109500653Y-93429000D01*
X109068666Y-93429000D01*
X109026333Y-93471334D01*
X108984000Y-93429000D01*
X109026333Y-93386667D01*
X109068666Y-93429000D01*
X109500653Y-93429000D01*
X109720721Y-93260468D01*
X109986554Y-92924165D01*
X110001435Y-92897171D01*
X110126296Y-92691729D01*
X110228009Y-92572149D01*
X110262365Y-92558504D01*
X110364625Y-92629652D01*
X110558329Y-92791699D01*
X110813542Y-93017475D01*
X111100332Y-93279806D01*
X111388763Y-93551520D01*
X111648903Y-93805445D01*
X111757644Y-93915834D01*
X111970497Y-94121592D01*
X112146798Y-94266586D01*
X112243949Y-94318000D01*
X112380421Y-94253591D01*
X112540458Y-94101717D01*
X112668096Y-93924405D01*
X112709333Y-93802215D01*
X112761811Y-93622777D01*
X112885421Y-93439164D01*
X113029429Y-93318203D01*
X113089086Y-93302000D01*
X113237267Y-93357587D01*
X113344889Y-93441651D01*
X113412650Y-93537016D01*
X113447396Y-93678118D01*
X113452905Y-93904046D01*
X113432956Y-94253893D01*
X113428768Y-94309484D01*
X113403426Y-94661337D01*
X113384694Y-94961737D01*
X113375616Y-95160332D01*
X113375257Y-95194956D01*
X113306261Y-95342533D01*
X113212758Y-95395331D01*
X113078066Y-95457896D01*
X113048000Y-95502625D01*
X112974937Y-95562190D01*
X112798712Y-95616680D01*
X112794000Y-95617634D01*
X112606265Y-95693892D01*
X112540000Y-95797550D01*
X112492133Y-95912950D01*
X112397744Y-95900315D01*
X112346980Y-95820834D01*
X112287106Y-95747206D01*
X112224451Y-95821981D01*
X112168774Y-96024691D01*
X112135978Y-96263472D01*
X112088566Y-96547806D01*
X112013386Y-96677312D01*
X111973898Y-96688667D01*
X111894823Y-96732552D01*
X111904908Y-96773185D01*
X111900826Y-96903709D01*
X111800702Y-97057424D01*
X111652355Y-97168201D01*
X111608957Y-97182459D01*
X111394353Y-97276832D01*
X111332297Y-97423518D01*
X111374531Y-97535679D01*
X111407790Y-97720592D01*
X111316393Y-97883627D01*
X111139069Y-97958431D01*
X111127636Y-97958667D01*
X111048017Y-98011611D01*
X111059615Y-98064500D01*
X111058866Y-98093725D01*
X111011623Y-98043334D01*
X110719666Y-98043334D01*
X110693743Y-98109974D01*
X110597663Y-98128000D01*
X110457392Y-98093457D01*
X110423333Y-98043334D01*
X110491548Y-97967394D01*
X110545336Y-97958667D01*
X110689485Y-98010267D01*
X110719666Y-98043334D01*
X111011623Y-98043334D01*
X110991778Y-98022167D01*
X110840962Y-97924523D01*
X110633813Y-97878598D01*
X110438742Y-97889459D01*
X110324162Y-97962177D01*
X110319983Y-97972384D01*
X110223399Y-98034523D01*
X110015223Y-98080994D01*
X109884170Y-98093519D01*
X109618836Y-98126854D01*
X109414993Y-98184747D01*
X109363043Y-98214290D01*
X109184895Y-98271513D01*
X108989310Y-98256167D01*
X108789178Y-98235742D01*
X108530035Y-98239103D01*
X108259068Y-98261142D01*
X108023463Y-98296749D01*
X107870406Y-98340816D01*
X107840128Y-98380589D01*
X107934297Y-98403776D01*
X108167178Y-98424875D01*
X108508148Y-98442095D01*
X108926586Y-98453646D01*
X109139946Y-98456595D01*
X109676063Y-98457424D01*
X110070275Y-98446769D01*
X110349752Y-98422545D01*
X110541662Y-98382669D01*
X110644610Y-98341163D01*
X110834584Y-98255000D01*
X110423333Y-98255000D01*
X110381000Y-98297334D01*
X110338666Y-98255000D01*
X110381000Y-98212667D01*
X110423333Y-98255000D01*
X110834584Y-98255000D01*
X110875306Y-98236531D01*
X110981320Y-98225772D01*
X110955354Y-98308922D01*
X110931333Y-98339667D01*
X110886023Y-98420993D01*
X110951580Y-98456132D01*
X111153800Y-98461003D01*
X111461921Y-98429479D01*
X111783666Y-98359803D01*
X111820333Y-98348784D01*
X112075132Y-98255000D01*
X111524000Y-98255000D01*
X111481666Y-98297334D01*
X111461424Y-98277091D01*
X111317945Y-98277091D01*
X111234722Y-98290649D01*
X111124908Y-98275083D01*
X111123597Y-98246181D01*
X111236914Y-98225969D01*
X111285875Y-98239497D01*
X111317945Y-98277091D01*
X111461424Y-98277091D01*
X111439333Y-98255000D01*
X111481666Y-98212667D01*
X111524000Y-98255000D01*
X112075132Y-98255000D01*
X112205823Y-98206897D01*
X112521459Y-98032047D01*
X112842549Y-97779929D01*
X112948511Y-97685057D01*
X113106008Y-97560975D01*
X112932560Y-97560975D01*
X112925353Y-97590969D01*
X112841030Y-97567754D01*
X112730512Y-97548081D01*
X112736845Y-97596019D01*
X112737606Y-97702178D01*
X112607334Y-97829102D01*
X112332243Y-97988877D01*
X112231272Y-98039255D01*
X111993927Y-98134902D01*
X111792514Y-98182510D01*
X111668004Y-98176551D01*
X111658045Y-98116601D01*
X111756024Y-98053260D01*
X111952258Y-97972045D01*
X112012012Y-97951511D01*
X112253319Y-97841519D01*
X112430972Y-97705502D01*
X112505708Y-97577468D01*
X112495862Y-97532413D01*
X112532876Y-97495235D01*
X112664567Y-97490202D01*
X112820314Y-97512696D01*
X112929501Y-97558098D01*
X112932560Y-97560975D01*
X113106008Y-97560975D01*
X113248188Y-97448961D01*
X113593940Y-97228427D01*
X113752844Y-97145408D01*
X113948768Y-97046427D01*
X114026914Y-96991186D01*
X113979333Y-96990098D01*
X113851772Y-97015444D01*
X113850659Y-96989237D01*
X113982579Y-96892018D01*
X114021666Y-96864989D01*
X114242405Y-96729988D01*
X114361514Y-96695390D01*
X114365634Y-96764069D01*
X114349077Y-96794500D01*
X114336662Y-96846554D01*
X114427815Y-96784907D01*
X114519926Y-96659184D01*
X114516949Y-96583423D01*
X114528275Y-96529759D01*
X114581381Y-96539242D01*
X114761937Y-96537241D01*
X114925484Y-96443798D01*
X114942459Y-96409989D01*
X114791556Y-96409989D01*
X114780051Y-96440517D01*
X114698317Y-96515591D01*
X114658323Y-96430084D01*
X114656666Y-96387337D01*
X114698323Y-96300134D01*
X114742714Y-96308520D01*
X114791556Y-96409989D01*
X114942459Y-96409989D01*
X114995333Y-96304688D01*
X114948663Y-96193941D01*
X114910666Y-96180667D01*
X114835552Y-96112090D01*
X114826000Y-96053667D01*
X114871717Y-95940995D01*
X114910666Y-95926667D01*
X114991964Y-95991843D01*
X114995333Y-96017039D01*
X115062866Y-96068703D01*
X115185833Y-96050615D01*
X115317105Y-96015966D01*
X115307386Y-96048607D01*
X115207000Y-96134247D01*
X115037666Y-96274675D01*
X115207000Y-96191384D01*
X115484124Y-95991838D01*
X115596786Y-95870222D01*
X115475111Y-95870222D01*
X115463489Y-95920557D01*
X115418666Y-95926667D01*
X115348976Y-95895689D01*
X115354882Y-95884334D01*
X115164666Y-95884334D01*
X115122333Y-95926667D01*
X115080000Y-95884334D01*
X115122333Y-95842000D01*
X115164666Y-95884334D01*
X115354882Y-95884334D01*
X115362222Y-95870222D01*
X115462702Y-95860089D01*
X115475111Y-95870222D01*
X115596786Y-95870222D01*
X115769282Y-95684018D01*
X115770874Y-95681725D01*
X115334000Y-95681725D01*
X115287625Y-95755104D01*
X115194706Y-95721443D01*
X115135703Y-95634645D01*
X115139461Y-95548736D01*
X115211312Y-95559037D01*
X115320643Y-95642397D01*
X115334000Y-95681725D01*
X115770874Y-95681725D01*
X116020946Y-95321565D01*
X116035477Y-95291667D01*
X115334000Y-95291667D01*
X115291666Y-95334000D01*
X115249333Y-95291667D01*
X115291666Y-95249334D01*
X115334000Y-95291667D01*
X116035477Y-95291667D01*
X116197589Y-94958124D01*
X116223888Y-94877807D01*
X116298819Y-94459696D01*
X116315896Y-93974171D01*
X116277052Y-93496045D01*
X116184218Y-93100130D01*
X116177536Y-93082099D01*
X116124173Y-92853180D01*
X116097895Y-92546948D01*
X116095777Y-92198571D01*
X116114897Y-91843218D01*
X116152329Y-91516057D01*
X116205149Y-91252256D01*
X116270434Y-91086985D01*
X116345257Y-91055410D01*
X116346017Y-91055872D01*
X116380288Y-91017055D01*
X116370232Y-90886438D01*
X116321617Y-90728731D01*
X116276630Y-90677078D01*
X116255386Y-90597945D01*
X116238316Y-90383302D01*
X116227287Y-90066956D01*
X116224065Y-89724578D01*
X116217987Y-89332210D01*
X116200694Y-88997865D01*
X116174967Y-88760619D01*
X116148622Y-88664601D01*
X116048394Y-88380541D01*
X116080040Y-88009039D01*
X116241400Y-87566139D01*
X116316139Y-87419225D01*
X116448191Y-87149535D01*
X116524804Y-86941096D01*
X116531638Y-86833944D01*
X116527234Y-86829883D01*
X116442885Y-86857026D01*
D11*
%TO.C,J5*%
X134011498Y-72410084D02*
X137486422Y-81957361D01*
X126851040Y-75016277D02*
X134011498Y-72410084D01*
X130325965Y-84563555D02*
X126851040Y-75016277D01*
X137486422Y-81957361D02*
X130325965Y-84563555D01*
X136293013Y-82391727D02*
X132818088Y-72844450D01*
%TO.C,RN1*%
X86095000Y-92691000D02*
X87155000Y-92691000D01*
X86095000Y-96331000D02*
X87155000Y-96331000D01*
%TO.C,J5*%
D12*
X128023693Y-80350216D02*
X127352484Y-80594516D01*
X127234529Y-80688123D01*
X127177607Y-80810191D01*
X127181720Y-80960719D01*
X127214294Y-81050214D01*
X127697959Y-79455270D02*
X127860826Y-79902743D01*
X127429640Y-80110357D01*
X127458101Y-80049323D01*
X127470275Y-79943542D01*
X127388841Y-79719805D01*
X127311521Y-79646598D01*
X127250487Y-79618137D01*
X127144705Y-79605963D01*
X126920969Y-79687396D01*
X126847761Y-79764717D01*
X126819301Y-79825751D01*
X126807127Y-79931532D01*
X126888560Y-80155269D01*
X126965881Y-80228476D01*
X127026915Y-80256937D01*
%TO.C,RN1*%
X87315476Y-92163380D02*
X87648809Y-91687190D01*
X87886904Y-92163380D02*
X87886904Y-91163380D01*
X87505952Y-91163380D01*
X87410714Y-91211000D01*
X87363095Y-91258619D01*
X87315476Y-91353857D01*
X87315476Y-91496714D01*
X87363095Y-91591952D01*
X87410714Y-91639571D01*
X87505952Y-91687190D01*
X87886904Y-91687190D01*
X86886904Y-92163380D02*
X86886904Y-91163380D01*
X86315476Y-92163380D01*
X86315476Y-91163380D01*
X85315476Y-92163380D02*
X85886904Y-92163380D01*
X85601190Y-92163380D02*
X85601190Y-91163380D01*
X85696428Y-91306238D01*
X85791666Y-91401476D01*
X85886904Y-91449095D01*
%TD*%
M02*
