%TF.GenerationSoftware,KiCad,Pcbnew,(5.1.6)-1*%
%TF.CreationDate,2020-12-16T03:52:29+01:00*%
%TF.ProjectId,bms,626d732e-6b69-4636-9164-5f7063625858,rev?*%
%TF.SameCoordinates,Original*%
%TF.FileFunction,Soldermask,Bot*%
%TF.FilePolarity,Negative*%
%FSLAX46Y46*%
G04 Gerber Fmt 4.6, Leading zero omitted, Abs format (unit mm)*
G04 Created by KiCad (PCBNEW (5.1.6)-1) date 2020-12-16 03:52:29*
%MOMM*%
%LPD*%
G01*
G04 APERTURE LIST*
%ADD10C,4.100000*%
%ADD11R,3.900000X3.900000*%
%ADD12C,4.500000*%
%ADD13O,1.850000X1.300000*%
%ADD14C,0.100000*%
%ADD15C,3.100000*%
%ADD16R,0.900000X0.420000*%
%ADD17R,0.900000X0.580000*%
%ADD18C,2.900000*%
%ADD19C,0.800000*%
G04 APERTURE END LIST*
D10*
%TO.C,J4*%
X85500000Y-85600000D03*
D11*
X85500000Y-80600000D03*
%TD*%
D12*
%TO.C,VBAT1+*%
X100000000Y-65000000D03*
%TD*%
%TO.C,VBAT2+*%
X95000000Y-68000000D03*
%TD*%
%TO.C,VBAT3+*%
X120000000Y-65000000D03*
%TD*%
%TO.C,VBAT4+*%
X125000000Y-68000000D03*
%TD*%
%TO.C,VBAT1-*%
X100000000Y-115000000D03*
%TD*%
%TO.C,VBAT2-*%
X95000000Y-112000000D03*
%TD*%
%TO.C,VBAT3-*%
X120000000Y-115000000D03*
%TD*%
%TO.C,VBAT4-*%
X125000000Y-112000000D03*
%TD*%
%TO.C,J2*%
G36*
G01*
X131854168Y-95850000D02*
X130545832Y-95850000D01*
G75*
G02*
X130275000Y-95579168I0J270832D01*
G01*
X130275000Y-94820832D01*
G75*
G02*
X130545832Y-94550000I270832J0D01*
G01*
X131854168Y-94550000D01*
G75*
G02*
X132125000Y-94820832I0J-270832D01*
G01*
X132125000Y-95579168D01*
G75*
G02*
X131854168Y-95850000I-270832J0D01*
G01*
G37*
D13*
X131200000Y-93200000D03*
X131200000Y-91200000D03*
X131200000Y-89200000D03*
X131200000Y-87200000D03*
X131200000Y-85200000D03*
%TD*%
D14*
%TO.C,J5*%
G36*
X129313345Y-75173608D02*
G01*
X132226392Y-74113345D01*
X133286655Y-77026392D01*
X130373608Y-78086655D01*
X129313345Y-75173608D01*
G37*
D15*
X133037462Y-80873639D03*
%TD*%
D16*
%TO.C,RN1*%
X85725000Y-94511000D03*
D17*
X85725000Y-95871000D03*
D16*
X85725000Y-93871000D03*
D17*
X85725000Y-93151000D03*
D16*
X85725000Y-95151000D03*
X87525000Y-94511000D03*
X87525000Y-95151000D03*
D17*
X87525000Y-95871000D03*
D16*
X87525000Y-93871000D03*
D17*
X87525000Y-93151000D03*
%TD*%
D18*
%TO.C,TP1*%
X105000000Y-63400000D03*
%TD*%
D14*
%TO.C,BALANCE*%
G36*
X88267949Y-74289069D02*
G01*
X87110931Y-75667949D01*
X85732051Y-74510931D01*
X86889069Y-73132051D01*
X88267949Y-74289069D01*
G37*
G36*
G01*
X89322121Y-73032756D02*
X89322121Y-73032756D01*
G75*
G02*
X88054172Y-73143687I-689440J578509D01*
G01*
X88054172Y-73143687D01*
G75*
G02*
X87943241Y-71875738I578509J689440D01*
G01*
X87943241Y-71875738D01*
G75*
G02*
X89211190Y-71764807I689440J-578509D01*
G01*
X89211190Y-71764807D01*
G75*
G02*
X89322121Y-73032756I-578509J-689440D01*
G01*
G37*
G36*
G01*
X90954801Y-71087003D02*
X90954801Y-71087003D01*
G75*
G02*
X89686852Y-71197934I-689440J578509D01*
G01*
X89686852Y-71197934D01*
G75*
G02*
X89575921Y-69929985I578509J689440D01*
G01*
X89575921Y-69929985D01*
G75*
G02*
X90843870Y-69819054I689440J-578509D01*
G01*
X90843870Y-69819054D01*
G75*
G02*
X90954801Y-71087003I-578509J-689440D01*
G01*
G37*
%TD*%
D19*
%TO.C,H9*%
X111166726Y-61833274D03*
X110000000Y-61350000D03*
X108833274Y-61833274D03*
X108350000Y-63000000D03*
X108833274Y-64166726D03*
X110000000Y-64650000D03*
X111166726Y-64166726D03*
X111650000Y-63000000D03*
D12*
X110000000Y-63000000D03*
%TD*%
%TO.C,He*%
X133450000Y-103500000D03*
D19*
X135100000Y-103500000D03*
X134616726Y-104666726D03*
X133450000Y-105150000D03*
X132283274Y-104666726D03*
X131800000Y-103500000D03*
X132283274Y-102333274D03*
X133450000Y-101850000D03*
X134616726Y-102333274D03*
%TD*%
D12*
%TO.C,H11*%
X86650000Y-103500000D03*
D19*
X88300000Y-103500000D03*
X87816726Y-104666726D03*
X86650000Y-105150000D03*
X85483274Y-104666726D03*
X85000000Y-103500000D03*
X85483274Y-102333274D03*
X86650000Y-101850000D03*
X87816726Y-102333274D03*
%TD*%
M02*
