%TF.GenerationSoftware,KiCad,Pcbnew,(5.1.6)-1*%
%TF.CreationDate,2020-12-16T03:52:29+01:00*%
%TF.ProjectId,bms,626d732e-6b69-4636-9164-5f7063625858,rev?*%
%TF.SameCoordinates,Original*%
%TF.FileFunction,Copper,L2,Bot*%
%TF.FilePolarity,Positive*%
%FSLAX46Y46*%
G04 Gerber Fmt 4.6, Leading zero omitted, Abs format (unit mm)*
G04 Created by KiCad (PCBNEW (5.1.6)-1) date 2020-12-16 03:52:29*
%MOMM*%
%LPD*%
G01*
G04 APERTURE LIST*
%TA.AperFunction,ComponentPad*%
%ADD10C,4.000000*%
%TD*%
%TA.AperFunction,ComponentPad*%
%ADD11R,3.800000X3.800000*%
%TD*%
%TA.AperFunction,ComponentPad*%
%ADD12C,4.400000*%
%TD*%
%TA.AperFunction,ComponentPad*%
%ADD13O,1.750000X1.200000*%
%TD*%
%TA.AperFunction,ComponentPad*%
%ADD14C,0.100000*%
%TD*%
%TA.AperFunction,ComponentPad*%
%ADD15C,3.000000*%
%TD*%
%TA.AperFunction,SMDPad,CuDef*%
%ADD16R,0.800000X0.320000*%
%TD*%
%TA.AperFunction,SMDPad,CuDef*%
%ADD17R,0.800000X0.480000*%
%TD*%
%TA.AperFunction,ComponentPad*%
%ADD18C,2.800000*%
%TD*%
%TA.AperFunction,ComponentPad*%
%ADD19C,0.700000*%
%TD*%
%TA.AperFunction,ViaPad*%
%ADD20C,0.800000*%
%TD*%
%TA.AperFunction,ViaPad*%
%ADD21C,0.600000*%
%TD*%
%TA.AperFunction,Conductor*%
%ADD22C,1.905000*%
%TD*%
%TA.AperFunction,Conductor*%
%ADD23C,1.270000*%
%TD*%
%TA.AperFunction,Conductor*%
%ADD24C,1.016000*%
%TD*%
%TA.AperFunction,Conductor*%
%ADD25C,0.508000*%
%TD*%
%TA.AperFunction,Conductor*%
%ADD26C,0.254000*%
%TD*%
%TA.AperFunction,Conductor*%
%ADD27C,0.200000*%
%TD*%
G04 APERTURE END LIST*
D10*
%TO.P,J4,2*%
%TO.N,GND*%
X85500000Y-85600000D03*
D11*
%TO.P,J4,1*%
%TO.N,+BATT*%
X85500000Y-80600000D03*
%TD*%
D12*
%TO.P,VBAT1+,1*%
%TO.N,+BATT*%
X100000000Y-65000000D03*
%TD*%
%TO.P,VBAT2+,1*%
%TO.N,VBAT1-*%
X95000000Y-68000000D03*
%TD*%
%TO.P,VBAT3+,1*%
%TO.N,+BATT*%
X120000000Y-65000000D03*
%TD*%
%TO.P,VBAT4+,1*%
%TO.N,VBAT1-*%
X125000000Y-68000000D03*
%TD*%
%TO.P,VBAT1-,1*%
%TO.N,VBAT1-*%
X100000000Y-115000000D03*
%TD*%
%TO.P,VBAT2-,1*%
%TO.N,GND*%
X95000000Y-112000000D03*
%TD*%
%TO.P,VBAT3-,1*%
%TO.N,VBAT1-*%
X120000000Y-115000000D03*
%TD*%
%TO.P,VBAT4-,1*%
%TO.N,GND*%
X125000000Y-112000000D03*
%TD*%
%TO.P,J2,1*%
%TO.N,+5V*%
%TA.AperFunction,ComponentPad*%
G36*
G01*
X131825001Y-95800000D02*
X130574999Y-95800000D01*
G75*
G02*
X130325000Y-95550001I0J249999D01*
G01*
X130325000Y-94849999D01*
G75*
G02*
X130574999Y-94600000I249999J0D01*
G01*
X131825001Y-94600000D01*
G75*
G02*
X132075000Y-94849999I0J-249999D01*
G01*
X132075000Y-95550001D01*
G75*
G02*
X131825001Y-95800000I-249999J0D01*
G01*
G37*
%TD.AperFunction*%
D13*
%TO.P,J2,2*%
X131200000Y-93200000D03*
%TO.P,J2,3*%
%TO.N,GND*%
X131200000Y-91200000D03*
%TO.P,J2,4*%
%TO.N,BAT*%
X131200000Y-89200000D03*
%TO.P,J2,5*%
%TO.N,GND*%
X131200000Y-87200000D03*
%TO.P,J2,6*%
%TO.N,+3V3*%
X131200000Y-85200000D03*
%TD*%
%TA.AperFunction,ComponentPad*%
D14*
%TO.P,J5,1*%
%TO.N,+BATT*%
G36*
X129377431Y-75203491D02*
G01*
X132196509Y-74177431D01*
X133222569Y-76996509D01*
X130403491Y-78022569D01*
X129377431Y-75203491D01*
G37*
%TD.AperFunction*%
D15*
%TO.P,J5,2*%
%TO.N,Net-(J5-Pad2)*%
X133037462Y-80873639D03*
%TD*%
D16*
%TO.P,RN1,8*%
%TO.N,+3V3*%
X85725000Y-94511000D03*
D17*
%TO.P,RN1,6*%
X85725000Y-95871000D03*
D16*
%TO.P,RN1,9*%
X85725000Y-93871000D03*
D17*
%TO.P,RN1,10*%
X85725000Y-93151000D03*
D16*
%TO.P,RN1,7*%
X85725000Y-95151000D03*
%TO.P,RN1,3*%
%TO.N,PWR_CRITICAL*%
X87525000Y-94511000D03*
%TO.P,RN1,4*%
%TO.N,SCL*%
X87525000Y-95151000D03*
D17*
%TO.P,RN1,5*%
%TO.N,SDA*%
X87525000Y-95871000D03*
D16*
%TO.P,RN1,2*%
%TO.N,PWR_WARN*%
X87525000Y-93871000D03*
D17*
%TO.P,RN1,1*%
%TO.N,PWR_VALID*%
X87525000Y-93151000D03*
%TD*%
D18*
%TO.P,TP1,1*%
%TO.N,+BATT*%
X105000000Y-63400000D03*
%TD*%
%TA.AperFunction,ComponentPad*%
D14*
%TO.P,BALANCE,1*%
%TO.N,GND*%
G36*
X88197507Y-74295232D02*
G01*
X87104768Y-75597507D01*
X85802493Y-74504768D01*
X86895232Y-73202493D01*
X88197507Y-74295232D01*
G37*
%TD.AperFunction*%
%TO.P,BALANCE,2*%
%TO.N,VBAT1-*%
%TA.AperFunction,ComponentPad*%
G36*
G01*
X89283819Y-73000616D02*
X89283819Y-73000616D01*
G75*
G02*
X88086312Y-73105385I-651138J546369D01*
G01*
X88086312Y-73105385D01*
G75*
G02*
X87981543Y-71907878I546369J651138D01*
G01*
X87981543Y-71907878D01*
G75*
G02*
X89179050Y-71803109I651138J-546369D01*
G01*
X89179050Y-71803109D01*
G75*
G02*
X89283819Y-73000616I-546369J-651138D01*
G01*
G37*
%TD.AperFunction*%
%TO.P,BALANCE,3*%
%TO.N,+BATT*%
%TA.AperFunction,ComponentPad*%
G36*
G01*
X90916499Y-71054863D02*
X90916499Y-71054863D01*
G75*
G02*
X89718992Y-71159632I-651138J546369D01*
G01*
X89718992Y-71159632D01*
G75*
G02*
X89614223Y-69962125I546369J651138D01*
G01*
X89614223Y-69962125D01*
G75*
G02*
X90811730Y-69857356I651138J-546369D01*
G01*
X90811730Y-69857356D01*
G75*
G02*
X90916499Y-71054863I-546369J-651138D01*
G01*
G37*
%TD.AperFunction*%
%TD*%
D19*
%TO.P,H9,1*%
%TO.N,GND*%
X111166726Y-61833274D03*
X110000000Y-61350000D03*
X108833274Y-61833274D03*
X108350000Y-63000000D03*
X108833274Y-64166726D03*
X110000000Y-64650000D03*
X111166726Y-64166726D03*
X111650000Y-63000000D03*
D12*
X110000000Y-63000000D03*
%TD*%
%TO.P,He,1*%
%TO.N,GND*%
X133450000Y-103500000D03*
D19*
X135100000Y-103500000D03*
X134616726Y-104666726D03*
X133450000Y-105150000D03*
X132283274Y-104666726D03*
X131800000Y-103500000D03*
X132283274Y-102333274D03*
X133450000Y-101850000D03*
X134616726Y-102333274D03*
%TD*%
D12*
%TO.P,H11,1*%
%TO.N,GND*%
X86650000Y-103500000D03*
D19*
X88300000Y-103500000D03*
X87816726Y-104666726D03*
X86650000Y-105150000D03*
X85483274Y-104666726D03*
X85000000Y-103500000D03*
X85483274Y-102333274D03*
X86650000Y-101850000D03*
X87816726Y-102333274D03*
%TD*%
D20*
%TO.N,GND*%
X106250000Y-85750000D03*
X105050000Y-85750000D03*
X97200000Y-90300000D03*
X97200000Y-89100000D03*
X97200000Y-87900000D03*
X92900000Y-89900000D03*
X92900000Y-88700000D03*
X92900000Y-87500000D03*
X92900000Y-86400000D03*
D21*
X107400000Y-99100000D03*
X105500000Y-101000000D03*
X102300000Y-92100000D03*
X92900000Y-81200000D03*
X92900000Y-83800000D03*
X99900000Y-77600000D03*
X103028000Y-77613500D03*
X92894990Y-95055010D03*
D20*
X113800000Y-61600000D03*
X116400000Y-63600000D03*
X113800000Y-64800000D03*
X107400000Y-65200000D03*
X102000000Y-74000000D03*
X97000000Y-74000000D03*
X109800000Y-72600000D03*
X108600000Y-77800000D03*
X90200000Y-80800000D03*
X89800000Y-88400000D03*
X81600000Y-88600000D03*
X89800000Y-100600000D03*
X83000000Y-99800000D03*
X90200000Y-104600000D03*
X90600000Y-109000000D03*
X104000000Y-111600000D03*
X98200000Y-103400000D03*
X103800000Y-100000000D03*
X107200000Y-106000000D03*
X111800000Y-111600000D03*
X103000000Y-117200000D03*
X124600000Y-106800000D03*
X124600000Y-102200000D03*
X135600000Y-99400000D03*
X136400000Y-84800000D03*
X133000000Y-89200000D03*
X119600000Y-89200000D03*
X113800000Y-90000000D03*
X117000000Y-92000000D03*
X129600000Y-70600000D03*
X126600000Y-72400000D03*
X110000000Y-118600000D03*
D21*
%TO.N,+3V3*%
X111575000Y-95400000D03*
X121550000Y-100611000D03*
X109500000Y-99400000D03*
X116100000Y-102500000D03*
X91442490Y-97700000D03*
X102260610Y-97689390D03*
X104670625Y-96329375D03*
%TO.N,IN1+*%
X115800000Y-97325000D03*
X121299479Y-89899479D03*
%TO.N,IN1-*%
X115800000Y-98175000D03*
X121900521Y-90500521D03*
%TO.N,IN2-*%
X115337806Y-92063236D03*
X113200521Y-94200521D03*
%TO.N,IN2+*%
X114736764Y-91462194D03*
X112599479Y-93599479D03*
%TO.N,IN3+*%
X110175000Y-77831500D03*
X111299479Y-84100521D03*
X111975000Y-89000000D03*
X108499479Y-97300521D03*
%TO.N,IN3-*%
X111025000Y-77831500D03*
X111900521Y-83499479D03*
X112825000Y-89000000D03*
X109100521Y-96699479D03*
%TO.N,Net-(C12-Pad2)*%
X103000000Y-87000000D03*
X103000000Y-84500000D03*
X105000000Y-78250000D03*
D20*
%TO.N,BAT*%
X103000000Y-90750000D03*
X102972000Y-89528000D03*
X103000000Y-81750000D03*
X103000000Y-80500000D03*
D21*
%TO.N,PWR_VALID*%
X89242000Y-92061500D03*
D20*
X97200000Y-93400000D03*
D21*
X116200000Y-99800000D03*
%TO.N,PWR_WARN*%
X89242000Y-93061500D03*
X113500000Y-101800000D03*
X119177312Y-101122021D03*
D20*
X109100000Y-101800000D03*
D21*
%TO.N,PWR_CRITICAL*%
X89242000Y-94061500D03*
D20*
X97100000Y-95600000D03*
D21*
X115400000Y-100500000D03*
X118400000Y-100500000D03*
%TO.N,SCL*%
X89242000Y-96061500D03*
%TO.N,SDA*%
X89242000Y-97061500D03*
%TO.N,A0*%
X110500000Y-101127000D03*
X111400000Y-107000000D03*
%TO.N,Net-(JP3-Pad2)*%
X120900000Y-107400000D03*
X120900000Y-111252501D03*
%TO.N,Net-(JP4-Pad2)*%
X118400000Y-107500000D03*
X118400000Y-111252501D03*
%TO.N,Net-(JP5-Pad2)*%
X115800000Y-111300000D03*
X115800000Y-107500000D03*
%TO.N,Net-(R27-Pad2)*%
X99886504Y-86377046D03*
X96750000Y-86250000D03*
%TO.N,Net-(JP4-Pad1)*%
X118400000Y-104200000D03*
X118380000Y-105853000D03*
%TD*%
D22*
%TO.N,VBAT1-*%
X122800001Y-70199999D02*
X125000000Y-68000000D01*
X97199999Y-70199999D02*
X122800001Y-70199999D01*
X95000000Y-68000000D02*
X97199999Y-70199999D01*
X120000000Y-115000000D02*
X100000000Y-115000000D01*
X100000000Y-110500000D02*
X100000000Y-115000000D01*
X95000000Y-105500000D02*
X100000000Y-110500000D01*
D23*
X94654247Y-72454247D02*
X95000000Y-72800000D01*
X88632681Y-72454247D02*
X94654247Y-72454247D01*
D22*
X95000000Y-68000000D02*
X95000000Y-72800000D01*
X95000000Y-72800000D02*
X95000000Y-105500000D01*
%TO.N,GND*%
X129600000Y-107400000D02*
X129600000Y-101200000D01*
X129600000Y-101200000D02*
X134600000Y-96200000D01*
X134600000Y-96200000D02*
X134600000Y-91200000D01*
D23*
X131200000Y-91200000D02*
X134600000Y-91200000D01*
X133345000Y-87200000D02*
X131200000Y-87200000D01*
X134600000Y-88455000D02*
X133345000Y-87200000D01*
X134600000Y-91200000D02*
X134600000Y-88455000D01*
D22*
X95000000Y-112000000D02*
X95000000Y-108476932D01*
X95000000Y-108476932D02*
X92894990Y-106371923D01*
D24*
X91500000Y-74400000D02*
X90812490Y-74400000D01*
X92894990Y-75794990D02*
X91500000Y-74400000D01*
X92894990Y-86400000D02*
X92894990Y-75794990D01*
X91500000Y-74400000D02*
X87000000Y-74400000D01*
X106250000Y-85750000D02*
X105050000Y-85750000D01*
X105050000Y-85750000D02*
X105050000Y-91150000D01*
X97200000Y-90400000D02*
X97200000Y-90300000D01*
X105050000Y-91150000D02*
X104100000Y-92100000D01*
X104100000Y-92100000D02*
X102300000Y-92100000D01*
X98900000Y-92100000D02*
X97200000Y-90400000D01*
D22*
X92894990Y-90005010D02*
X92894990Y-88594990D01*
X92894990Y-88594990D02*
X92894990Y-87405010D01*
X92894990Y-87405010D02*
X92894990Y-86400000D01*
D25*
X105500000Y-101000000D02*
X107400000Y-99100000D01*
D24*
X102300000Y-92100000D02*
X98900000Y-92100000D01*
D25*
X99900000Y-77600000D02*
X103014500Y-77600000D01*
X103014500Y-77600000D02*
X103028000Y-77613500D01*
D22*
X90994990Y-85600000D02*
X92894990Y-87500000D01*
X85500000Y-85600000D02*
X90994990Y-85600000D01*
X92894990Y-106371923D02*
X92894990Y-95055010D01*
X92894990Y-95055010D02*
X92894990Y-90005010D01*
X125000000Y-112000000D02*
X129600000Y-107400000D01*
D26*
%TO.N,+3V3*%
X85725000Y-93151000D02*
X85725000Y-93871000D01*
X85725000Y-93871000D02*
X85725000Y-94511000D01*
X85725000Y-94511000D02*
X85725000Y-95151000D01*
X85725000Y-95151000D02*
X85725000Y-95871000D01*
X111575000Y-95400000D02*
X112537500Y-96362500D01*
X112537500Y-96362500D02*
X113137500Y-96962500D01*
X113137500Y-96962500D02*
X115047999Y-98872999D01*
D25*
X111575000Y-95400000D02*
X115047999Y-98872999D01*
X110700000Y-99400000D02*
X113137500Y-96962500D01*
X109500000Y-99400000D02*
X110700000Y-99400000D01*
X115104001Y-98929001D02*
X115047999Y-98872999D01*
X116161921Y-98929001D02*
X115104001Y-98929001D01*
X116217923Y-98872999D02*
X116161921Y-98929001D01*
X119811999Y-98872999D02*
X116217923Y-98872999D01*
X121550000Y-100611000D02*
X119811999Y-98872999D01*
D26*
X121550000Y-100611000D02*
X119661000Y-102500000D01*
X119661000Y-102500000D02*
X116100000Y-102500000D01*
X91430991Y-97688501D02*
X91442490Y-97700000D01*
X85725000Y-95871000D02*
X87542501Y-97688501D01*
X87542501Y-97688501D02*
X91430991Y-97688501D01*
X102260610Y-97689390D02*
X103620625Y-96329375D01*
X103620625Y-96329375D02*
X104670625Y-96329375D01*
D27*
%TO.N,IN1+*%
X115800000Y-97325000D02*
X116013603Y-97325000D01*
X116013603Y-97325000D02*
X117375000Y-95963603D01*
X117375000Y-95963603D02*
X117375000Y-94106801D01*
X117375000Y-94106801D02*
X121299479Y-90182322D01*
X121299479Y-90182322D02*
X121299479Y-89899479D01*
%TO.N,IN1-*%
X121617678Y-90500521D02*
X121900521Y-90500521D01*
X117825000Y-94293199D02*
X121617678Y-90500521D01*
X117825000Y-96150000D02*
X117825000Y-94293199D01*
X115800000Y-98175000D02*
X117825000Y-96150000D01*
%TO.N,IN2-*%
X115054963Y-92063236D02*
X113200521Y-93917678D01*
X113200521Y-93917678D02*
X113200521Y-94200521D01*
X115337806Y-92063236D02*
X115054963Y-92063236D01*
%TO.N,IN2+*%
X114736764Y-91462194D02*
X114736764Y-91745037D01*
X114736764Y-91745037D02*
X112882322Y-93599479D01*
X112882322Y-93599479D02*
X112599479Y-93599479D01*
%TO.N,IN3+*%
X111299479Y-83817678D02*
X111299479Y-84100521D01*
X110375000Y-78031500D02*
X110375000Y-82893199D01*
X110175000Y-77831500D02*
X110375000Y-78031500D01*
X110375000Y-82893199D02*
X111299479Y-83817678D01*
X112175000Y-90506800D02*
X112175000Y-89200000D01*
X108499479Y-94182321D02*
X112175000Y-90506800D01*
X108499479Y-97300521D02*
X108499479Y-94182321D01*
X112175000Y-89200000D02*
X111975000Y-89000000D01*
%TO.N,IN3-*%
X111617678Y-83499479D02*
X111900521Y-83499479D01*
X110825000Y-78031500D02*
X110825000Y-82706801D01*
X110825000Y-82706801D02*
X111617678Y-83499479D01*
X111025000Y-77831500D02*
X110825000Y-78031500D01*
X112625000Y-89200000D02*
X112825000Y-89000000D01*
X112625000Y-90693200D02*
X112625000Y-89200000D01*
X108949479Y-94368721D02*
X112625000Y-90693200D01*
X109100521Y-96699479D02*
X108949479Y-96548437D01*
X108949479Y-96548437D02*
X108949479Y-94368721D01*
D25*
%TO.N,Net-(C12-Pad2)*%
X103000000Y-87000000D02*
X103000000Y-84500000D01*
X103000000Y-83250000D02*
X105000000Y-81250000D01*
X103000000Y-84500000D02*
X103000000Y-83250000D01*
X105000000Y-78250000D02*
X105000000Y-81250000D01*
D24*
%TO.N,BAT*%
X103000000Y-89556000D02*
X102972000Y-89528000D01*
X103000000Y-90750000D02*
X103000000Y-89556000D01*
X102972000Y-81778000D02*
X103000000Y-81750000D01*
X102972000Y-89528000D02*
X101750000Y-88306000D01*
X103000000Y-81750000D02*
X101750000Y-83000000D01*
X101750000Y-83000000D02*
X101750000Y-88306000D01*
D26*
%TO.N,PWR_VALID*%
X87525000Y-93151000D02*
X88152500Y-93151000D01*
X88152500Y-93151000D02*
X89242000Y-92061500D01*
X114907059Y-100027001D02*
X114926048Y-100045990D01*
X108969067Y-100027001D02*
X114907059Y-100027001D01*
X97200000Y-93400000D02*
X97242066Y-93357934D01*
X97242066Y-93357934D02*
X103227962Y-93357934D01*
X103227962Y-93357934D02*
X108554010Y-98683981D01*
X108554010Y-98683981D02*
X108554010Y-99611944D01*
X108554010Y-99611944D02*
X108969067Y-100027001D01*
X115172038Y-99800000D02*
X116200000Y-99800000D01*
X114945037Y-100027001D02*
X115172038Y-99800000D01*
X114907059Y-100027001D02*
X114945037Y-100027001D01*
%TO.N,PWR_WARN*%
X87525000Y-93871000D02*
X88432500Y-93871000D01*
X88432500Y-93871000D02*
X89242000Y-93061500D01*
X119177312Y-101122688D02*
X119177312Y-101122021D01*
X113500000Y-101800000D02*
X116100000Y-101800000D01*
X116100000Y-101800000D02*
X116772999Y-101127001D01*
X116772999Y-101127001D02*
X119172999Y-101127001D01*
X119172999Y-101127001D02*
X119177312Y-101122688D01*
X109100000Y-101800000D02*
X113500000Y-101800000D01*
%TO.N,PWR_CRITICAL*%
X87525000Y-94511000D02*
X88792500Y-94511000D01*
X88792500Y-94511000D02*
X89242000Y-94061500D01*
X115473000Y-100500000D02*
X115400000Y-100500000D01*
X118400000Y-100500000D02*
X115400000Y-100500000D01*
X108800000Y-100500000D02*
X115400000Y-100500000D01*
X108100000Y-99800000D02*
X108800000Y-100500000D01*
X104827962Y-95600000D02*
X108100000Y-98872038D01*
X108100000Y-98872038D02*
X108100000Y-99800000D01*
X97100000Y-95600000D02*
X104827962Y-95600000D01*
%TO.N,SCL*%
X87525000Y-95151000D02*
X88331500Y-95151000D01*
X88331500Y-95151000D02*
X89242000Y-96061500D01*
%TO.N,SDA*%
X87525000Y-95871000D02*
X88051500Y-95871000D01*
X88051500Y-95871000D02*
X89242000Y-97061500D01*
%TO.N,A0*%
X110500000Y-101127000D02*
X110445999Y-101072999D01*
X108372999Y-101451039D02*
X108372999Y-103972999D01*
X108372999Y-103972999D02*
X111400000Y-107000000D01*
X110445999Y-101072999D02*
X108751039Y-101072999D01*
X108751039Y-101072999D02*
X108372999Y-101451039D01*
%TO.N,Net-(JP3-Pad2)*%
X120900000Y-107400000D02*
X120900000Y-111252501D01*
%TO.N,Net-(JP4-Pad2)*%
X118400000Y-107500000D02*
X118400000Y-111252501D01*
%TO.N,Net-(JP5-Pad2)*%
X115800000Y-107500000D02*
X115800000Y-111300000D01*
D25*
%TO.N,Net-(R27-Pad2)*%
X99759458Y-86250000D02*
X99886504Y-86377046D01*
X96750000Y-86250000D02*
X99759458Y-86250000D01*
D26*
%TO.N,Net-(JP4-Pad1)*%
X118400000Y-104200000D02*
X118400000Y-105833000D01*
X118400000Y-105833000D02*
X118380000Y-105853000D01*
%TD*%
%TO.N,GND*%
G36*
X117797912Y-116807207D02*
G01*
X118192793Y-117202088D01*
X118657124Y-117512344D01*
X119173061Y-117726052D01*
X119403108Y-117771811D01*
X118452828Y-118096002D01*
X116379401Y-118638066D01*
X114271938Y-119027334D01*
X112141683Y-119261729D01*
X110000000Y-119340000D01*
X107858317Y-119261729D01*
X105728062Y-119027334D01*
X103620599Y-118638066D01*
X101547172Y-118096002D01*
X100596892Y-117771811D01*
X100826939Y-117726052D01*
X101342876Y-117512344D01*
X101807207Y-117202088D01*
X102202088Y-116807207D01*
X102348891Y-116587500D01*
X117651109Y-116587500D01*
X117797912Y-116807207D01*
G37*
X117797912Y-116807207D02*
X118192793Y-117202088D01*
X118657124Y-117512344D01*
X119173061Y-117726052D01*
X119403108Y-117771811D01*
X118452828Y-118096002D01*
X116379401Y-118638066D01*
X114271938Y-119027334D01*
X112141683Y-119261729D01*
X110000000Y-119340000D01*
X107858317Y-119261729D01*
X105728062Y-119027334D01*
X103620599Y-118638066D01*
X101547172Y-118096002D01*
X100596892Y-117771811D01*
X100826939Y-117726052D01*
X101342876Y-117512344D01*
X101807207Y-117202088D01*
X102202088Y-116807207D01*
X102348891Y-116587500D01*
X117651109Y-116587500D01*
X117797912Y-116807207D01*
G36*
X92487656Y-66657124D02*
G01*
X92273948Y-67173061D01*
X92165000Y-67720777D01*
X92165000Y-68279223D01*
X92273948Y-68826939D01*
X92487656Y-69342876D01*
X92797912Y-69807207D01*
X93192793Y-70202088D01*
X93412500Y-70348892D01*
X93412501Y-71184247D01*
X91592807Y-71184247D01*
X91693293Y-70941652D01*
X91750361Y-70654754D01*
X91750361Y-70362234D01*
X91693293Y-70075336D01*
X91581351Y-69805083D01*
X91418836Y-69561862D01*
X91211993Y-69355019D01*
X90968772Y-69192504D01*
X90698519Y-69080562D01*
X90411621Y-69023494D01*
X90119101Y-69023494D01*
X89832203Y-69080562D01*
X89561950Y-69192504D01*
X89318729Y-69355019D01*
X89111886Y-69561862D01*
X88949371Y-69805083D01*
X88837429Y-70075336D01*
X88780361Y-70362234D01*
X88780361Y-70654754D01*
X88837429Y-70941652D01*
X88855137Y-70984403D01*
X88778941Y-70969247D01*
X88486421Y-70969247D01*
X88199523Y-71026315D01*
X87929270Y-71138257D01*
X87686049Y-71300772D01*
X87479206Y-71507615D01*
X87316691Y-71750836D01*
X87204749Y-72021089D01*
X87147681Y-72307987D01*
X87147681Y-72600507D01*
X87151880Y-72621614D01*
X87087104Y-72593952D01*
X86964696Y-72568213D01*
X86839620Y-72566849D01*
X86716681Y-72589912D01*
X86600603Y-72636515D01*
X86495847Y-72704870D01*
X86406440Y-72792348D01*
X86046101Y-73226563D01*
X86065668Y-73450215D01*
X86984346Y-74221078D01*
X86997202Y-74205757D01*
X87191777Y-74369026D01*
X87178922Y-74384346D01*
X88097600Y-75155209D01*
X88321253Y-75135642D01*
X88686299Y-74705376D01*
X88756923Y-74602137D01*
X88806048Y-74487104D01*
X88831787Y-74364696D01*
X88833151Y-74239620D01*
X88810088Y-74116681D01*
X88763485Y-74000603D01*
X88723449Y-73939247D01*
X88778941Y-73939247D01*
X89065839Y-73882179D01*
X89336092Y-73770237D01*
X89404921Y-73724247D01*
X93412500Y-73724247D01*
X93412501Y-105422011D01*
X93404820Y-105500000D01*
X93435470Y-105811204D01*
X93500919Y-106026957D01*
X93526246Y-106110449D01*
X93673656Y-106386235D01*
X93872038Y-106627963D01*
X93932612Y-106677675D01*
X98412500Y-111157564D01*
X98412500Y-112651108D01*
X98192793Y-112797912D01*
X97797912Y-113192793D01*
X97487656Y-113657124D01*
X97273948Y-114173061D01*
X97165000Y-114720777D01*
X97165000Y-115279223D01*
X97273948Y-115826939D01*
X97487656Y-116342876D01*
X97672412Y-116619383D01*
X97546440Y-116565851D01*
X95640480Y-115585930D01*
X94241506Y-114732148D01*
X94459133Y-114796901D01*
X95015174Y-114848678D01*
X95570632Y-114790981D01*
X96104161Y-114626028D01*
X96570024Y-114377018D01*
X96810170Y-113989775D01*
X95000000Y-112179605D01*
X94985858Y-112193748D01*
X94806253Y-112014143D01*
X94820395Y-112000000D01*
X95179605Y-112000000D01*
X96989775Y-113810170D01*
X97377018Y-113570024D01*
X97637641Y-113076123D01*
X97796901Y-112540867D01*
X97848678Y-111984826D01*
X97790981Y-111429368D01*
X97626028Y-110895839D01*
X97377018Y-110429976D01*
X96989775Y-110189830D01*
X95179605Y-112000000D01*
X94820395Y-112000000D01*
X93010225Y-110189830D01*
X92622982Y-110429976D01*
X92362359Y-110923877D01*
X92203099Y-111459133D01*
X92151322Y-112015174D01*
X92209019Y-112570632D01*
X92373972Y-113104161D01*
X92622982Y-113570024D01*
X93010223Y-113810169D01*
X92959901Y-113860491D01*
X92068163Y-113222507D01*
X90420866Y-111851616D01*
X88878032Y-110364137D01*
X88560926Y-110010225D01*
X93189830Y-110010225D01*
X95000000Y-111820395D01*
X96810170Y-110010225D01*
X96570024Y-109622982D01*
X96076123Y-109362359D01*
X95540867Y-109203099D01*
X94984826Y-109151322D01*
X94429368Y-109209019D01*
X93895839Y-109373972D01*
X93429976Y-109622982D01*
X93189830Y-110010225D01*
X88560926Y-110010225D01*
X87447893Y-108768006D01*
X86138079Y-107071741D01*
X85491232Y-106094031D01*
X85573877Y-106137641D01*
X86109133Y-106296901D01*
X86665174Y-106348678D01*
X87220632Y-106290981D01*
X87754161Y-106126028D01*
X88220024Y-105877018D01*
X88460170Y-105489775D01*
X86650000Y-103679605D01*
X86635858Y-103693748D01*
X86456253Y-103514143D01*
X86470395Y-103500000D01*
X86829605Y-103500000D01*
X88639775Y-105310170D01*
X89027018Y-105070024D01*
X89287641Y-104576123D01*
X89446901Y-104040867D01*
X89498678Y-103484826D01*
X89440981Y-102929368D01*
X89276028Y-102395839D01*
X89027018Y-101929976D01*
X88639775Y-101689830D01*
X86829605Y-103500000D01*
X86470395Y-103500000D01*
X84660225Y-101689830D01*
X84272982Y-101929976D01*
X84012359Y-102423877D01*
X83853099Y-102959133D01*
X83826529Y-103244468D01*
X83013551Y-101510225D01*
X84839830Y-101510225D01*
X86650000Y-103320395D01*
X88460170Y-101510225D01*
X88220024Y-101122982D01*
X87726123Y-100862359D01*
X87190867Y-100703099D01*
X86634826Y-100651322D01*
X86079368Y-100709019D01*
X85545839Y-100873972D01*
X85079976Y-101122982D01*
X84839830Y-101510225D01*
X83013551Y-101510225D01*
X82997043Y-101475012D01*
X82231457Y-99473311D01*
X81614028Y-97421065D01*
X81148051Y-95329225D01*
X80836011Y-93208951D01*
X80814204Y-92911000D01*
X84686928Y-92911000D01*
X84686928Y-93391000D01*
X84699188Y-93515482D01*
X84709962Y-93551000D01*
X84699188Y-93586518D01*
X84686928Y-93711000D01*
X84686928Y-94031000D01*
X84699188Y-94155482D01*
X84709962Y-94191000D01*
X84699188Y-94226518D01*
X84686928Y-94351000D01*
X84686928Y-94671000D01*
X84699188Y-94795482D01*
X84709962Y-94831000D01*
X84699188Y-94866518D01*
X84686928Y-94991000D01*
X84686928Y-95311000D01*
X84699188Y-95435482D01*
X84709962Y-95471000D01*
X84699188Y-95506518D01*
X84686928Y-95631000D01*
X84686928Y-96111000D01*
X84699188Y-96235482D01*
X84735498Y-96355180D01*
X84794463Y-96465494D01*
X84873815Y-96562185D01*
X84970506Y-96641537D01*
X85080820Y-96700502D01*
X85200518Y-96736812D01*
X85325000Y-96749072D01*
X85525442Y-96749072D01*
X86977217Y-98200847D01*
X87001079Y-98229923D01*
X87068700Y-98285418D01*
X87117108Y-98325146D01*
X87187865Y-98362966D01*
X87249486Y-98395903D01*
X87393123Y-98439475D01*
X87505075Y-98450501D01*
X87505078Y-98450501D01*
X87542501Y-98454187D01*
X87579924Y-98450501D01*
X90882738Y-98450501D01*
X90999601Y-98528586D01*
X91169761Y-98599068D01*
X91350401Y-98635000D01*
X91534579Y-98635000D01*
X91715219Y-98599068D01*
X91885379Y-98528586D01*
X92038518Y-98426262D01*
X92168752Y-98296028D01*
X92271076Y-98142889D01*
X92341558Y-97972729D01*
X92377490Y-97792089D01*
X92377490Y-97607911D01*
X92341558Y-97427271D01*
X92271076Y-97257111D01*
X92168752Y-97103972D01*
X92038518Y-96973738D01*
X91885379Y-96871414D01*
X91715219Y-96800932D01*
X91534579Y-96765000D01*
X91350401Y-96765000D01*
X91169761Y-96800932D01*
X90999601Y-96871414D01*
X90917157Y-96926501D01*
X90168465Y-96926501D01*
X90141068Y-96788771D01*
X90070586Y-96618611D01*
X90032426Y-96561500D01*
X90070586Y-96504389D01*
X90141068Y-96334229D01*
X90177000Y-96153589D01*
X90177000Y-95969411D01*
X90141068Y-95788771D01*
X90070586Y-95618611D01*
X89968262Y-95465472D01*
X89838028Y-95335238D01*
X89684889Y-95232914D01*
X89514729Y-95162432D01*
X89397180Y-95139050D01*
X89321086Y-95062956D01*
X89333922Y-95052422D01*
X89357784Y-95023346D01*
X89397180Y-94983950D01*
X89514729Y-94960568D01*
X89684889Y-94890086D01*
X89838028Y-94787762D01*
X89968262Y-94657528D01*
X90070586Y-94504389D01*
X90141068Y-94334229D01*
X90177000Y-94153589D01*
X90177000Y-93969411D01*
X90141068Y-93788771D01*
X90070586Y-93618611D01*
X90032426Y-93561500D01*
X90070586Y-93504389D01*
X90141068Y-93334229D01*
X90177000Y-93153589D01*
X90177000Y-92969411D01*
X90141068Y-92788771D01*
X90070586Y-92618611D01*
X90032426Y-92561500D01*
X90070586Y-92504389D01*
X90141068Y-92334229D01*
X90177000Y-92153589D01*
X90177000Y-91969411D01*
X90141068Y-91788771D01*
X90070586Y-91618611D01*
X89968262Y-91465472D01*
X89838028Y-91335238D01*
X89684889Y-91232914D01*
X89514729Y-91162432D01*
X89334089Y-91126500D01*
X89149911Y-91126500D01*
X88969271Y-91162432D01*
X88799111Y-91232914D01*
X88645972Y-91335238D01*
X88515738Y-91465472D01*
X88413414Y-91618611D01*
X88342932Y-91788771D01*
X88319550Y-91906320D01*
X87950437Y-92275433D01*
X87925000Y-92272928D01*
X87125000Y-92272928D01*
X87000518Y-92285188D01*
X86880820Y-92321498D01*
X86770506Y-92380463D01*
X86673815Y-92459815D01*
X86625000Y-92519296D01*
X86576185Y-92459815D01*
X86479494Y-92380463D01*
X86369180Y-92321498D01*
X86249482Y-92285188D01*
X86125000Y-92272928D01*
X85325000Y-92272928D01*
X85200518Y-92285188D01*
X85080820Y-92321498D01*
X84970506Y-92380463D01*
X84873815Y-92459815D01*
X84794463Y-92556506D01*
X84735498Y-92666820D01*
X84699188Y-92786518D01*
X84686928Y-92911000D01*
X80814204Y-92911000D01*
X80679574Y-91071556D01*
X80679574Y-88928444D01*
X80787965Y-87447499D01*
X83832106Y-87447499D01*
X84048228Y-87814258D01*
X84508105Y-88054938D01*
X85006098Y-88201275D01*
X85523071Y-88247648D01*
X86039159Y-88192273D01*
X86534526Y-88037279D01*
X86951772Y-87814258D01*
X87167894Y-87447499D01*
X85500000Y-85779605D01*
X83832106Y-87447499D01*
X80787965Y-87447499D01*
X80836011Y-86791049D01*
X81007901Y-85623071D01*
X82852352Y-85623071D01*
X82907727Y-86139159D01*
X83062721Y-86634526D01*
X83285742Y-87051772D01*
X83652501Y-87267894D01*
X85320395Y-85600000D01*
X85679605Y-85600000D01*
X87347499Y-87267894D01*
X87714258Y-87051772D01*
X87954938Y-86591895D01*
X88101275Y-86093902D01*
X88147648Y-85576929D01*
X88092273Y-85060841D01*
X87937279Y-84565474D01*
X87714258Y-84148228D01*
X87347499Y-83932106D01*
X85679605Y-85600000D01*
X85320395Y-85600000D01*
X83652501Y-83932106D01*
X83285742Y-84148228D01*
X83045062Y-84608105D01*
X82898725Y-85106098D01*
X82852352Y-85623071D01*
X81007901Y-85623071D01*
X81148051Y-84670775D01*
X81614028Y-82578935D01*
X82231457Y-80526689D01*
X82972964Y-78587945D01*
X82961928Y-78700000D01*
X82961928Y-82500000D01*
X82974188Y-82624482D01*
X83010498Y-82744180D01*
X83069463Y-82854494D01*
X83148815Y-82951185D01*
X83245506Y-83030537D01*
X83355820Y-83089502D01*
X83475518Y-83125812D01*
X83600000Y-83138072D01*
X84544253Y-83138072D01*
X84465474Y-83162721D01*
X84048228Y-83385742D01*
X83832106Y-83752501D01*
X85500000Y-85420395D01*
X87167894Y-83752501D01*
X86951772Y-83385742D01*
X86491895Y-83145062D01*
X86468108Y-83138072D01*
X87400000Y-83138072D01*
X87524482Y-83125812D01*
X87644180Y-83089502D01*
X87754494Y-83030537D01*
X87851185Y-82951185D01*
X87930537Y-82854494D01*
X87989502Y-82744180D01*
X88025812Y-82624482D01*
X88038072Y-82500000D01*
X88038072Y-78700000D01*
X88025812Y-78575518D01*
X87989502Y-78455820D01*
X87930537Y-78345506D01*
X87851185Y-78248815D01*
X87754494Y-78169463D01*
X87644180Y-78110498D01*
X87524482Y-78074188D01*
X87400000Y-78061928D01*
X83600000Y-78061928D01*
X83475518Y-78074188D01*
X83355820Y-78110498D01*
X83245506Y-78169463D01*
X83148815Y-78248815D01*
X83096790Y-78312207D01*
X83906701Y-76584510D01*
X84516704Y-75497600D01*
X86244791Y-75497600D01*
X86264358Y-75721253D01*
X86694624Y-76086299D01*
X86797863Y-76156923D01*
X86912896Y-76206048D01*
X87035304Y-76231787D01*
X87160380Y-76233151D01*
X87283319Y-76210088D01*
X87399397Y-76163485D01*
X87504153Y-76095130D01*
X87593560Y-76007652D01*
X87953899Y-75573437D01*
X87934332Y-75349785D01*
X87015654Y-74578922D01*
X86244791Y-75497600D01*
X84516704Y-75497600D01*
X84955579Y-74715610D01*
X85180879Y-74375069D01*
X85168213Y-74435304D01*
X85166849Y-74560380D01*
X85189912Y-74683319D01*
X85236515Y-74799397D01*
X85304870Y-74904153D01*
X85392348Y-74993560D01*
X85826563Y-75353899D01*
X86050215Y-75334332D01*
X86821078Y-74415654D01*
X85902400Y-73644791D01*
X85678747Y-73664358D01*
X85553107Y-73812445D01*
X86138079Y-72928259D01*
X87447893Y-71231994D01*
X88878032Y-69635863D01*
X90420866Y-68148384D01*
X92068163Y-66777493D01*
X92717764Y-66312744D01*
X92487656Y-66657124D01*
G37*
X92487656Y-66657124D02*
X92273948Y-67173061D01*
X92165000Y-67720777D01*
X92165000Y-68279223D01*
X92273948Y-68826939D01*
X92487656Y-69342876D01*
X92797912Y-69807207D01*
X93192793Y-70202088D01*
X93412500Y-70348892D01*
X93412501Y-71184247D01*
X91592807Y-71184247D01*
X91693293Y-70941652D01*
X91750361Y-70654754D01*
X91750361Y-70362234D01*
X91693293Y-70075336D01*
X91581351Y-69805083D01*
X91418836Y-69561862D01*
X91211993Y-69355019D01*
X90968772Y-69192504D01*
X90698519Y-69080562D01*
X90411621Y-69023494D01*
X90119101Y-69023494D01*
X89832203Y-69080562D01*
X89561950Y-69192504D01*
X89318729Y-69355019D01*
X89111886Y-69561862D01*
X88949371Y-69805083D01*
X88837429Y-70075336D01*
X88780361Y-70362234D01*
X88780361Y-70654754D01*
X88837429Y-70941652D01*
X88855137Y-70984403D01*
X88778941Y-70969247D01*
X88486421Y-70969247D01*
X88199523Y-71026315D01*
X87929270Y-71138257D01*
X87686049Y-71300772D01*
X87479206Y-71507615D01*
X87316691Y-71750836D01*
X87204749Y-72021089D01*
X87147681Y-72307987D01*
X87147681Y-72600507D01*
X87151880Y-72621614D01*
X87087104Y-72593952D01*
X86964696Y-72568213D01*
X86839620Y-72566849D01*
X86716681Y-72589912D01*
X86600603Y-72636515D01*
X86495847Y-72704870D01*
X86406440Y-72792348D01*
X86046101Y-73226563D01*
X86065668Y-73450215D01*
X86984346Y-74221078D01*
X86997202Y-74205757D01*
X87191777Y-74369026D01*
X87178922Y-74384346D01*
X88097600Y-75155209D01*
X88321253Y-75135642D01*
X88686299Y-74705376D01*
X88756923Y-74602137D01*
X88806048Y-74487104D01*
X88831787Y-74364696D01*
X88833151Y-74239620D01*
X88810088Y-74116681D01*
X88763485Y-74000603D01*
X88723449Y-73939247D01*
X88778941Y-73939247D01*
X89065839Y-73882179D01*
X89336092Y-73770237D01*
X89404921Y-73724247D01*
X93412500Y-73724247D01*
X93412501Y-105422011D01*
X93404820Y-105500000D01*
X93435470Y-105811204D01*
X93500919Y-106026957D01*
X93526246Y-106110449D01*
X93673656Y-106386235D01*
X93872038Y-106627963D01*
X93932612Y-106677675D01*
X98412500Y-111157564D01*
X98412500Y-112651108D01*
X98192793Y-112797912D01*
X97797912Y-113192793D01*
X97487656Y-113657124D01*
X97273948Y-114173061D01*
X97165000Y-114720777D01*
X97165000Y-115279223D01*
X97273948Y-115826939D01*
X97487656Y-116342876D01*
X97672412Y-116619383D01*
X97546440Y-116565851D01*
X95640480Y-115585930D01*
X94241506Y-114732148D01*
X94459133Y-114796901D01*
X95015174Y-114848678D01*
X95570632Y-114790981D01*
X96104161Y-114626028D01*
X96570024Y-114377018D01*
X96810170Y-113989775D01*
X95000000Y-112179605D01*
X94985858Y-112193748D01*
X94806253Y-112014143D01*
X94820395Y-112000000D01*
X95179605Y-112000000D01*
X96989775Y-113810170D01*
X97377018Y-113570024D01*
X97637641Y-113076123D01*
X97796901Y-112540867D01*
X97848678Y-111984826D01*
X97790981Y-111429368D01*
X97626028Y-110895839D01*
X97377018Y-110429976D01*
X96989775Y-110189830D01*
X95179605Y-112000000D01*
X94820395Y-112000000D01*
X93010225Y-110189830D01*
X92622982Y-110429976D01*
X92362359Y-110923877D01*
X92203099Y-111459133D01*
X92151322Y-112015174D01*
X92209019Y-112570632D01*
X92373972Y-113104161D01*
X92622982Y-113570024D01*
X93010223Y-113810169D01*
X92959901Y-113860491D01*
X92068163Y-113222507D01*
X90420866Y-111851616D01*
X88878032Y-110364137D01*
X88560926Y-110010225D01*
X93189830Y-110010225D01*
X95000000Y-111820395D01*
X96810170Y-110010225D01*
X96570024Y-109622982D01*
X96076123Y-109362359D01*
X95540867Y-109203099D01*
X94984826Y-109151322D01*
X94429368Y-109209019D01*
X93895839Y-109373972D01*
X93429976Y-109622982D01*
X93189830Y-110010225D01*
X88560926Y-110010225D01*
X87447893Y-108768006D01*
X86138079Y-107071741D01*
X85491232Y-106094031D01*
X85573877Y-106137641D01*
X86109133Y-106296901D01*
X86665174Y-106348678D01*
X87220632Y-106290981D01*
X87754161Y-106126028D01*
X88220024Y-105877018D01*
X88460170Y-105489775D01*
X86650000Y-103679605D01*
X86635858Y-103693748D01*
X86456253Y-103514143D01*
X86470395Y-103500000D01*
X86829605Y-103500000D01*
X88639775Y-105310170D01*
X89027018Y-105070024D01*
X89287641Y-104576123D01*
X89446901Y-104040867D01*
X89498678Y-103484826D01*
X89440981Y-102929368D01*
X89276028Y-102395839D01*
X89027018Y-101929976D01*
X88639775Y-101689830D01*
X86829605Y-103500000D01*
X86470395Y-103500000D01*
X84660225Y-101689830D01*
X84272982Y-101929976D01*
X84012359Y-102423877D01*
X83853099Y-102959133D01*
X83826529Y-103244468D01*
X83013551Y-101510225D01*
X84839830Y-101510225D01*
X86650000Y-103320395D01*
X88460170Y-101510225D01*
X88220024Y-101122982D01*
X87726123Y-100862359D01*
X87190867Y-100703099D01*
X86634826Y-100651322D01*
X86079368Y-100709019D01*
X85545839Y-100873972D01*
X85079976Y-101122982D01*
X84839830Y-101510225D01*
X83013551Y-101510225D01*
X82997043Y-101475012D01*
X82231457Y-99473311D01*
X81614028Y-97421065D01*
X81148051Y-95329225D01*
X80836011Y-93208951D01*
X80814204Y-92911000D01*
X84686928Y-92911000D01*
X84686928Y-93391000D01*
X84699188Y-93515482D01*
X84709962Y-93551000D01*
X84699188Y-93586518D01*
X84686928Y-93711000D01*
X84686928Y-94031000D01*
X84699188Y-94155482D01*
X84709962Y-94191000D01*
X84699188Y-94226518D01*
X84686928Y-94351000D01*
X84686928Y-94671000D01*
X84699188Y-94795482D01*
X84709962Y-94831000D01*
X84699188Y-94866518D01*
X84686928Y-94991000D01*
X84686928Y-95311000D01*
X84699188Y-95435482D01*
X84709962Y-95471000D01*
X84699188Y-95506518D01*
X84686928Y-95631000D01*
X84686928Y-96111000D01*
X84699188Y-96235482D01*
X84735498Y-96355180D01*
X84794463Y-96465494D01*
X84873815Y-96562185D01*
X84970506Y-96641537D01*
X85080820Y-96700502D01*
X85200518Y-96736812D01*
X85325000Y-96749072D01*
X85525442Y-96749072D01*
X86977217Y-98200847D01*
X87001079Y-98229923D01*
X87068700Y-98285418D01*
X87117108Y-98325146D01*
X87187865Y-98362966D01*
X87249486Y-98395903D01*
X87393123Y-98439475D01*
X87505075Y-98450501D01*
X87505078Y-98450501D01*
X87542501Y-98454187D01*
X87579924Y-98450501D01*
X90882738Y-98450501D01*
X90999601Y-98528586D01*
X91169761Y-98599068D01*
X91350401Y-98635000D01*
X91534579Y-98635000D01*
X91715219Y-98599068D01*
X91885379Y-98528586D01*
X92038518Y-98426262D01*
X92168752Y-98296028D01*
X92271076Y-98142889D01*
X92341558Y-97972729D01*
X92377490Y-97792089D01*
X92377490Y-97607911D01*
X92341558Y-97427271D01*
X92271076Y-97257111D01*
X92168752Y-97103972D01*
X92038518Y-96973738D01*
X91885379Y-96871414D01*
X91715219Y-96800932D01*
X91534579Y-96765000D01*
X91350401Y-96765000D01*
X91169761Y-96800932D01*
X90999601Y-96871414D01*
X90917157Y-96926501D01*
X90168465Y-96926501D01*
X90141068Y-96788771D01*
X90070586Y-96618611D01*
X90032426Y-96561500D01*
X90070586Y-96504389D01*
X90141068Y-96334229D01*
X90177000Y-96153589D01*
X90177000Y-95969411D01*
X90141068Y-95788771D01*
X90070586Y-95618611D01*
X89968262Y-95465472D01*
X89838028Y-95335238D01*
X89684889Y-95232914D01*
X89514729Y-95162432D01*
X89397180Y-95139050D01*
X89321086Y-95062956D01*
X89333922Y-95052422D01*
X89357784Y-95023346D01*
X89397180Y-94983950D01*
X89514729Y-94960568D01*
X89684889Y-94890086D01*
X89838028Y-94787762D01*
X89968262Y-94657528D01*
X90070586Y-94504389D01*
X90141068Y-94334229D01*
X90177000Y-94153589D01*
X90177000Y-93969411D01*
X90141068Y-93788771D01*
X90070586Y-93618611D01*
X90032426Y-93561500D01*
X90070586Y-93504389D01*
X90141068Y-93334229D01*
X90177000Y-93153589D01*
X90177000Y-92969411D01*
X90141068Y-92788771D01*
X90070586Y-92618611D01*
X90032426Y-92561500D01*
X90070586Y-92504389D01*
X90141068Y-92334229D01*
X90177000Y-92153589D01*
X90177000Y-91969411D01*
X90141068Y-91788771D01*
X90070586Y-91618611D01*
X89968262Y-91465472D01*
X89838028Y-91335238D01*
X89684889Y-91232914D01*
X89514729Y-91162432D01*
X89334089Y-91126500D01*
X89149911Y-91126500D01*
X88969271Y-91162432D01*
X88799111Y-91232914D01*
X88645972Y-91335238D01*
X88515738Y-91465472D01*
X88413414Y-91618611D01*
X88342932Y-91788771D01*
X88319550Y-91906320D01*
X87950437Y-92275433D01*
X87925000Y-92272928D01*
X87125000Y-92272928D01*
X87000518Y-92285188D01*
X86880820Y-92321498D01*
X86770506Y-92380463D01*
X86673815Y-92459815D01*
X86625000Y-92519296D01*
X86576185Y-92459815D01*
X86479494Y-92380463D01*
X86369180Y-92321498D01*
X86249482Y-92285188D01*
X86125000Y-92272928D01*
X85325000Y-92272928D01*
X85200518Y-92285188D01*
X85080820Y-92321498D01*
X84970506Y-92380463D01*
X84873815Y-92459815D01*
X84794463Y-92556506D01*
X84735498Y-92666820D01*
X84699188Y-92786518D01*
X84686928Y-92911000D01*
X80814204Y-92911000D01*
X80679574Y-91071556D01*
X80679574Y-88928444D01*
X80787965Y-87447499D01*
X83832106Y-87447499D01*
X84048228Y-87814258D01*
X84508105Y-88054938D01*
X85006098Y-88201275D01*
X85523071Y-88247648D01*
X86039159Y-88192273D01*
X86534526Y-88037279D01*
X86951772Y-87814258D01*
X87167894Y-87447499D01*
X85500000Y-85779605D01*
X83832106Y-87447499D01*
X80787965Y-87447499D01*
X80836011Y-86791049D01*
X81007901Y-85623071D01*
X82852352Y-85623071D01*
X82907727Y-86139159D01*
X83062721Y-86634526D01*
X83285742Y-87051772D01*
X83652501Y-87267894D01*
X85320395Y-85600000D01*
X85679605Y-85600000D01*
X87347499Y-87267894D01*
X87714258Y-87051772D01*
X87954938Y-86591895D01*
X88101275Y-86093902D01*
X88147648Y-85576929D01*
X88092273Y-85060841D01*
X87937279Y-84565474D01*
X87714258Y-84148228D01*
X87347499Y-83932106D01*
X85679605Y-85600000D01*
X85320395Y-85600000D01*
X83652501Y-83932106D01*
X83285742Y-84148228D01*
X83045062Y-84608105D01*
X82898725Y-85106098D01*
X82852352Y-85623071D01*
X81007901Y-85623071D01*
X81148051Y-84670775D01*
X81614028Y-82578935D01*
X82231457Y-80526689D01*
X82972964Y-78587945D01*
X82961928Y-78700000D01*
X82961928Y-82500000D01*
X82974188Y-82624482D01*
X83010498Y-82744180D01*
X83069463Y-82854494D01*
X83148815Y-82951185D01*
X83245506Y-83030537D01*
X83355820Y-83089502D01*
X83475518Y-83125812D01*
X83600000Y-83138072D01*
X84544253Y-83138072D01*
X84465474Y-83162721D01*
X84048228Y-83385742D01*
X83832106Y-83752501D01*
X85500000Y-85420395D01*
X87167894Y-83752501D01*
X86951772Y-83385742D01*
X86491895Y-83145062D01*
X86468108Y-83138072D01*
X87400000Y-83138072D01*
X87524482Y-83125812D01*
X87644180Y-83089502D01*
X87754494Y-83030537D01*
X87851185Y-82951185D01*
X87930537Y-82854494D01*
X87989502Y-82744180D01*
X88025812Y-82624482D01*
X88038072Y-82500000D01*
X88038072Y-78700000D01*
X88025812Y-78575518D01*
X87989502Y-78455820D01*
X87930537Y-78345506D01*
X87851185Y-78248815D01*
X87754494Y-78169463D01*
X87644180Y-78110498D01*
X87524482Y-78074188D01*
X87400000Y-78061928D01*
X83600000Y-78061928D01*
X83475518Y-78074188D01*
X83355820Y-78110498D01*
X83245506Y-78169463D01*
X83148815Y-78248815D01*
X83096790Y-78312207D01*
X83906701Y-76584510D01*
X84516704Y-75497600D01*
X86244791Y-75497600D01*
X86264358Y-75721253D01*
X86694624Y-76086299D01*
X86797863Y-76156923D01*
X86912896Y-76206048D01*
X87035304Y-76231787D01*
X87160380Y-76233151D01*
X87283319Y-76210088D01*
X87399397Y-76163485D01*
X87504153Y-76095130D01*
X87593560Y-76007652D01*
X87953899Y-75573437D01*
X87934332Y-75349785D01*
X87015654Y-74578922D01*
X86244791Y-75497600D01*
X84516704Y-75497600D01*
X84955579Y-74715610D01*
X85180879Y-74375069D01*
X85168213Y-74435304D01*
X85166849Y-74560380D01*
X85189912Y-74683319D01*
X85236515Y-74799397D01*
X85304870Y-74904153D01*
X85392348Y-74993560D01*
X85826563Y-75353899D01*
X86050215Y-75334332D01*
X86821078Y-74415654D01*
X85902400Y-73644791D01*
X85678747Y-73664358D01*
X85553107Y-73812445D01*
X86138079Y-72928259D01*
X87447893Y-71231994D01*
X88878032Y-69635863D01*
X90420866Y-68148384D01*
X92068163Y-66777493D01*
X92717764Y-66312744D01*
X92487656Y-66657124D01*
G36*
X127931837Y-66777493D02*
G01*
X129579134Y-68148384D01*
X131121968Y-69635863D01*
X132552107Y-71231994D01*
X133861921Y-72928259D01*
X135044421Y-74715610D01*
X136093299Y-76584510D01*
X137002957Y-78524988D01*
X137768543Y-80526689D01*
X138385972Y-82578935D01*
X138851949Y-84670775D01*
X139163989Y-86791049D01*
X139320426Y-88928444D01*
X139320426Y-91071556D01*
X139163989Y-93208951D01*
X138851949Y-95329225D01*
X138385972Y-97421065D01*
X137768543Y-99473311D01*
X137002957Y-101475012D01*
X136255529Y-103069422D01*
X136240981Y-102929368D01*
X136076028Y-102395839D01*
X135827018Y-101929976D01*
X135439775Y-101689830D01*
X133629605Y-103500000D01*
X133643748Y-103514143D01*
X133464143Y-103693748D01*
X133450000Y-103679605D01*
X131639830Y-105489775D01*
X131879976Y-105877018D01*
X132373877Y-106137641D01*
X132909133Y-106296901D01*
X133465174Y-106348678D01*
X134020632Y-106290981D01*
X134470482Y-106151899D01*
X133861921Y-107071741D01*
X132552107Y-108768006D01*
X131121968Y-110364137D01*
X129579134Y-111851616D01*
X127931837Y-113222507D01*
X127040099Y-113860491D01*
X126989777Y-113810169D01*
X127377018Y-113570024D01*
X127637641Y-113076123D01*
X127796901Y-112540867D01*
X127848678Y-111984826D01*
X127790981Y-111429368D01*
X127626028Y-110895839D01*
X127377018Y-110429976D01*
X126989775Y-110189830D01*
X125179605Y-112000000D01*
X125193748Y-112014143D01*
X125014143Y-112193748D01*
X125000000Y-112179605D01*
X123189830Y-113989775D01*
X123429976Y-114377018D01*
X123923877Y-114637641D01*
X124459133Y-114796901D01*
X125015174Y-114848678D01*
X125570632Y-114790981D01*
X125756001Y-114733670D01*
X124359520Y-115585930D01*
X122453560Y-116565851D01*
X122327588Y-116619383D01*
X122512344Y-116342876D01*
X122726052Y-115826939D01*
X122835000Y-115279223D01*
X122835000Y-114720777D01*
X122726052Y-114173061D01*
X122512344Y-113657124D01*
X122202088Y-113192793D01*
X121807207Y-112797912D01*
X121342876Y-112487656D01*
X120826939Y-112273948D01*
X120279223Y-112165000D01*
X119720777Y-112165000D01*
X119173061Y-112273948D01*
X118657124Y-112487656D01*
X118192793Y-112797912D01*
X117797912Y-113192793D01*
X117651109Y-113412500D01*
X102348891Y-113412500D01*
X102202088Y-113192793D01*
X101807207Y-112797912D01*
X101587500Y-112651109D01*
X101587500Y-110577979D01*
X101595180Y-110500000D01*
X101587500Y-110422021D01*
X101587500Y-110422014D01*
X101564530Y-110188796D01*
X101473755Y-109889551D01*
X101326345Y-109613765D01*
X101127963Y-109372037D01*
X101067390Y-109322326D01*
X96587500Y-104842437D01*
X96587500Y-96502342D01*
X96609744Y-96517205D01*
X96798102Y-96595226D01*
X96998061Y-96635000D01*
X97201939Y-96635000D01*
X97401898Y-96595226D01*
X97590256Y-96517205D01*
X97759774Y-96403937D01*
X97801711Y-96362000D01*
X102510370Y-96362000D01*
X102105430Y-96766940D01*
X101987881Y-96790322D01*
X101817721Y-96860804D01*
X101664582Y-96963128D01*
X101534348Y-97093362D01*
X101432024Y-97246501D01*
X101361542Y-97416661D01*
X101325610Y-97597301D01*
X101325610Y-97781479D01*
X101361542Y-97962119D01*
X101432024Y-98132279D01*
X101534348Y-98285418D01*
X101664582Y-98415652D01*
X101817721Y-98517976D01*
X101987881Y-98588458D01*
X102168521Y-98624390D01*
X102352699Y-98624390D01*
X102533339Y-98588458D01*
X102703499Y-98517976D01*
X102856638Y-98415652D01*
X102986872Y-98285418D01*
X103089196Y-98132279D01*
X103159678Y-97962119D01*
X103183060Y-97844570D01*
X103936255Y-97091375D01*
X104128083Y-97091375D01*
X104227736Y-97157961D01*
X104397896Y-97228443D01*
X104578536Y-97264375D01*
X104762714Y-97264375D01*
X104943354Y-97228443D01*
X105113514Y-97157961D01*
X105230276Y-97079944D01*
X107338000Y-99187668D01*
X107338001Y-99762567D01*
X107334314Y-99800000D01*
X107349027Y-99949378D01*
X107392599Y-100093015D01*
X107463355Y-100225392D01*
X107534721Y-100312351D01*
X107558579Y-100341422D01*
X107587649Y-100365279D01*
X107984389Y-100762019D01*
X107860653Y-100885755D01*
X107831577Y-100909617D01*
X107780862Y-100971414D01*
X107736354Y-101025647D01*
X107723858Y-101049026D01*
X107665597Y-101158025D01*
X107622025Y-101301662D01*
X107613216Y-101391107D01*
X107607313Y-101451039D01*
X107610999Y-101488462D01*
X107611000Y-103935566D01*
X107607313Y-103972999D01*
X107622026Y-104122377D01*
X107665598Y-104266014D01*
X107736354Y-104398391D01*
X107778407Y-104449632D01*
X107831578Y-104514421D01*
X107860648Y-104538278D01*
X110477550Y-107155181D01*
X110500932Y-107272729D01*
X110571414Y-107442889D01*
X110673738Y-107596028D01*
X110803972Y-107726262D01*
X110957111Y-107828586D01*
X111127271Y-107899068D01*
X111307911Y-107935000D01*
X111492089Y-107935000D01*
X111672729Y-107899068D01*
X111842889Y-107828586D01*
X111996028Y-107726262D01*
X112126262Y-107596028D01*
X112228586Y-107442889D01*
X112243074Y-107407911D01*
X114865000Y-107407911D01*
X114865000Y-107592089D01*
X114900932Y-107772729D01*
X114971414Y-107942889D01*
X115038000Y-108042542D01*
X115038001Y-110757457D01*
X114971414Y-110857111D01*
X114900932Y-111027271D01*
X114865000Y-111207911D01*
X114865000Y-111392089D01*
X114900932Y-111572729D01*
X114971414Y-111742889D01*
X115073738Y-111896028D01*
X115203972Y-112026262D01*
X115357111Y-112128586D01*
X115527271Y-112199068D01*
X115707911Y-112235000D01*
X115892089Y-112235000D01*
X116072729Y-112199068D01*
X116242889Y-112128586D01*
X116396028Y-112026262D01*
X116526262Y-111896028D01*
X116628586Y-111742889D01*
X116699068Y-111572729D01*
X116735000Y-111392089D01*
X116735000Y-111207911D01*
X116699068Y-111027271D01*
X116628586Y-110857111D01*
X116562000Y-110757458D01*
X116562000Y-108042542D01*
X116628586Y-107942889D01*
X116699068Y-107772729D01*
X116735000Y-107592089D01*
X116735000Y-107407911D01*
X116699068Y-107227271D01*
X116628586Y-107057111D01*
X116526262Y-106903972D01*
X116396028Y-106773738D01*
X116242889Y-106671414D01*
X116072729Y-106600932D01*
X115892089Y-106565000D01*
X115707911Y-106565000D01*
X115527271Y-106600932D01*
X115357111Y-106671414D01*
X115203972Y-106773738D01*
X115073738Y-106903972D01*
X114971414Y-107057111D01*
X114900932Y-107227271D01*
X114865000Y-107407911D01*
X112243074Y-107407911D01*
X112299068Y-107272729D01*
X112335000Y-107092089D01*
X112335000Y-106907911D01*
X112299068Y-106727271D01*
X112228586Y-106557111D01*
X112126262Y-106403972D01*
X111996028Y-106273738D01*
X111842889Y-106171414D01*
X111672729Y-106100932D01*
X111555181Y-106077550D01*
X111238542Y-105760911D01*
X117445000Y-105760911D01*
X117445000Y-105945089D01*
X117480932Y-106125729D01*
X117551414Y-106295889D01*
X117653738Y-106449028D01*
X117783972Y-106579262D01*
X117937111Y-106681586D01*
X117940060Y-106682807D01*
X117803972Y-106773738D01*
X117673738Y-106903972D01*
X117571414Y-107057111D01*
X117500932Y-107227271D01*
X117465000Y-107407911D01*
X117465000Y-107592089D01*
X117500932Y-107772729D01*
X117571414Y-107942889D01*
X117638000Y-108042542D01*
X117638001Y-110709958D01*
X117571414Y-110809612D01*
X117500932Y-110979772D01*
X117465000Y-111160412D01*
X117465000Y-111344590D01*
X117500932Y-111525230D01*
X117571414Y-111695390D01*
X117673738Y-111848529D01*
X117803972Y-111978763D01*
X117957111Y-112081087D01*
X118127271Y-112151569D01*
X118307911Y-112187501D01*
X118492089Y-112187501D01*
X118672729Y-112151569D01*
X118842889Y-112081087D01*
X118996028Y-111978763D01*
X119126262Y-111848529D01*
X119228586Y-111695390D01*
X119299068Y-111525230D01*
X119335000Y-111344590D01*
X119335000Y-111160412D01*
X119299068Y-110979772D01*
X119228586Y-110809612D01*
X119162000Y-110709959D01*
X119162000Y-108042542D01*
X119228586Y-107942889D01*
X119299068Y-107772729D01*
X119335000Y-107592089D01*
X119335000Y-107407911D01*
X119315109Y-107307911D01*
X119965000Y-107307911D01*
X119965000Y-107492089D01*
X120000932Y-107672729D01*
X120071414Y-107842889D01*
X120138000Y-107942542D01*
X120138001Y-110709958D01*
X120071414Y-110809612D01*
X120000932Y-110979772D01*
X119965000Y-111160412D01*
X119965000Y-111344590D01*
X120000932Y-111525230D01*
X120071414Y-111695390D01*
X120173738Y-111848529D01*
X120303972Y-111978763D01*
X120457111Y-112081087D01*
X120627271Y-112151569D01*
X120807911Y-112187501D01*
X120992089Y-112187501D01*
X121172729Y-112151569D01*
X121342889Y-112081087D01*
X121441534Y-112015174D01*
X122151322Y-112015174D01*
X122209019Y-112570632D01*
X122373972Y-113104161D01*
X122622982Y-113570024D01*
X123010225Y-113810170D01*
X124820395Y-112000000D01*
X123010225Y-110189830D01*
X122622982Y-110429976D01*
X122362359Y-110923877D01*
X122203099Y-111459133D01*
X122151322Y-112015174D01*
X121441534Y-112015174D01*
X121496028Y-111978763D01*
X121626262Y-111848529D01*
X121728586Y-111695390D01*
X121799068Y-111525230D01*
X121835000Y-111344590D01*
X121835000Y-111160412D01*
X121799068Y-110979772D01*
X121728586Y-110809612D01*
X121662000Y-110709959D01*
X121662000Y-110010225D01*
X123189830Y-110010225D01*
X125000000Y-111820395D01*
X126810170Y-110010225D01*
X126570024Y-109622982D01*
X126076123Y-109362359D01*
X125540867Y-109203099D01*
X124984826Y-109151322D01*
X124429368Y-109209019D01*
X123895839Y-109373972D01*
X123429976Y-109622982D01*
X123189830Y-110010225D01*
X121662000Y-110010225D01*
X121662000Y-107942542D01*
X121728586Y-107842889D01*
X121799068Y-107672729D01*
X121835000Y-107492089D01*
X121835000Y-107307911D01*
X121799068Y-107127271D01*
X121728586Y-106957111D01*
X121626262Y-106803972D01*
X121496028Y-106673738D01*
X121342889Y-106571414D01*
X121172729Y-106500932D01*
X120992089Y-106465000D01*
X120807911Y-106465000D01*
X120627271Y-106500932D01*
X120457111Y-106571414D01*
X120303972Y-106673738D01*
X120173738Y-106803972D01*
X120071414Y-106957111D01*
X120000932Y-107127271D01*
X119965000Y-107307911D01*
X119315109Y-107307911D01*
X119299068Y-107227271D01*
X119228586Y-107057111D01*
X119126262Y-106903972D01*
X118996028Y-106773738D01*
X118842889Y-106671414D01*
X118839940Y-106670193D01*
X118976028Y-106579262D01*
X119106262Y-106449028D01*
X119208586Y-106295889D01*
X119279068Y-106125729D01*
X119315000Y-105945089D01*
X119315000Y-105760911D01*
X119279068Y-105580271D01*
X119208586Y-105410111D01*
X119162000Y-105340390D01*
X119162000Y-104742542D01*
X119228586Y-104642889D01*
X119299068Y-104472729D01*
X119335000Y-104292089D01*
X119335000Y-104107911D01*
X119299068Y-103927271D01*
X119228586Y-103757111D01*
X119126262Y-103603972D01*
X119037464Y-103515174D01*
X130601322Y-103515174D01*
X130659019Y-104070632D01*
X130823972Y-104604161D01*
X131072982Y-105070024D01*
X131460225Y-105310170D01*
X133270395Y-103500000D01*
X131460225Y-101689830D01*
X131072982Y-101929976D01*
X130812359Y-102423877D01*
X130653099Y-102959133D01*
X130601322Y-103515174D01*
X119037464Y-103515174D01*
X118996028Y-103473738D01*
X118842889Y-103371414D01*
X118672729Y-103300932D01*
X118492089Y-103265000D01*
X118307911Y-103265000D01*
X118127271Y-103300932D01*
X117957111Y-103371414D01*
X117803972Y-103473738D01*
X117673738Y-103603972D01*
X117571414Y-103757111D01*
X117500932Y-103927271D01*
X117465000Y-104107911D01*
X117465000Y-104292089D01*
X117500932Y-104472729D01*
X117571414Y-104642889D01*
X117638000Y-104742543D01*
X117638001Y-105280525D01*
X117551414Y-105410111D01*
X117480932Y-105580271D01*
X117445000Y-105760911D01*
X111238542Y-105760911D01*
X109134999Y-103657369D01*
X109134999Y-102835000D01*
X109201939Y-102835000D01*
X109401898Y-102795226D01*
X109590256Y-102717205D01*
X109759774Y-102603937D01*
X109801711Y-102562000D01*
X112957458Y-102562000D01*
X113057111Y-102628586D01*
X113227271Y-102699068D01*
X113407911Y-102735000D01*
X113592089Y-102735000D01*
X113772729Y-102699068D01*
X113942889Y-102628586D01*
X114042542Y-102562000D01*
X115165000Y-102562000D01*
X115165000Y-102592089D01*
X115200932Y-102772729D01*
X115271414Y-102942889D01*
X115373738Y-103096028D01*
X115503972Y-103226262D01*
X115657111Y-103328586D01*
X115827271Y-103399068D01*
X116007911Y-103435000D01*
X116192089Y-103435000D01*
X116372729Y-103399068D01*
X116542889Y-103328586D01*
X116642542Y-103262000D01*
X119623577Y-103262000D01*
X119661000Y-103265686D01*
X119698423Y-103262000D01*
X119698426Y-103262000D01*
X119810378Y-103250974D01*
X119954015Y-103207402D01*
X120086392Y-103136645D01*
X120202422Y-103041422D01*
X120226284Y-103012346D01*
X121705181Y-101533450D01*
X121821939Y-101510225D01*
X131639830Y-101510225D01*
X133450000Y-103320395D01*
X135260170Y-101510225D01*
X135020024Y-101122982D01*
X134526123Y-100862359D01*
X133990867Y-100703099D01*
X133434826Y-100651322D01*
X132879368Y-100709019D01*
X132345839Y-100873972D01*
X131879976Y-101122982D01*
X131639830Y-101510225D01*
X121821939Y-101510225D01*
X121822729Y-101510068D01*
X121992889Y-101439586D01*
X122146028Y-101337262D01*
X122276262Y-101207028D01*
X122378586Y-101053889D01*
X122449068Y-100883729D01*
X122485000Y-100703089D01*
X122485000Y-100518911D01*
X122449068Y-100338271D01*
X122378586Y-100168111D01*
X122276262Y-100014972D01*
X122146028Y-99884738D01*
X121992889Y-99782414D01*
X121968581Y-99772346D01*
X120471498Y-98275263D01*
X120443658Y-98241340D01*
X120308290Y-98130246D01*
X120153850Y-98047696D01*
X119986273Y-97996863D01*
X119855666Y-97983999D01*
X119855659Y-97983999D01*
X119811999Y-97979699D01*
X119768339Y-97983999D01*
X117030447Y-97983999D01*
X118319197Y-96695250D01*
X118347237Y-96672238D01*
X118370250Y-96644197D01*
X118370253Y-96644194D01*
X118439086Y-96560321D01*
X118439087Y-96560320D01*
X118507337Y-96432633D01*
X118549365Y-96294085D01*
X118560000Y-96186105D01*
X118560000Y-96186096D01*
X118563555Y-96150001D01*
X118560000Y-96113906D01*
X118560000Y-94597645D01*
X119957645Y-93200000D01*
X129684025Y-93200000D01*
X129707870Y-93442102D01*
X129778489Y-93674901D01*
X129893167Y-93889449D01*
X130047498Y-94077502D01*
X130086111Y-94109191D01*
X130081613Y-94111595D01*
X129947038Y-94222038D01*
X129836595Y-94356613D01*
X129754528Y-94510149D01*
X129703992Y-94676745D01*
X129686928Y-94849999D01*
X129686928Y-95550001D01*
X129703992Y-95723255D01*
X129754528Y-95889851D01*
X129836595Y-96043387D01*
X129947038Y-96177962D01*
X130081613Y-96288405D01*
X130235149Y-96370472D01*
X130401745Y-96421008D01*
X130574999Y-96438072D01*
X131825001Y-96438072D01*
X131998255Y-96421008D01*
X132164851Y-96370472D01*
X132318387Y-96288405D01*
X132452962Y-96177962D01*
X132563405Y-96043387D01*
X132645472Y-95889851D01*
X132696008Y-95723255D01*
X132713072Y-95550001D01*
X132713072Y-94849999D01*
X132696008Y-94676745D01*
X132645472Y-94510149D01*
X132563405Y-94356613D01*
X132452962Y-94222038D01*
X132318387Y-94111595D01*
X132313889Y-94109191D01*
X132352502Y-94077502D01*
X132506833Y-93889449D01*
X132621511Y-93674901D01*
X132692130Y-93442102D01*
X132715975Y-93200000D01*
X132692130Y-92957898D01*
X132621511Y-92725099D01*
X132506833Y-92510551D01*
X132352502Y-92322498D01*
X132202652Y-92199519D01*
X132266725Y-92156307D01*
X132438078Y-91983474D01*
X132572421Y-91780533D01*
X132664591Y-91555282D01*
X132668462Y-91517609D01*
X132543731Y-91327000D01*
X131327000Y-91327000D01*
X131327000Y-91347000D01*
X131073000Y-91347000D01*
X131073000Y-91327000D01*
X129856269Y-91327000D01*
X129731538Y-91517609D01*
X129735409Y-91555282D01*
X129827579Y-91780533D01*
X129961922Y-91983474D01*
X130133275Y-92156307D01*
X130197348Y-92199519D01*
X130047498Y-92322498D01*
X129893167Y-92510551D01*
X129778489Y-92725099D01*
X129707870Y-92957898D01*
X129684025Y-93200000D01*
X119957645Y-93200000D01*
X121736444Y-91421202D01*
X121808432Y-91435521D01*
X121992610Y-91435521D01*
X122173250Y-91399589D01*
X122343410Y-91329107D01*
X122496549Y-91226783D01*
X122626783Y-91096549D01*
X122729107Y-90943410D01*
X122799589Y-90773250D01*
X122835521Y-90592610D01*
X122835521Y-90408432D01*
X122799589Y-90227792D01*
X122729107Y-90057632D01*
X122626783Y-89904493D01*
X122496549Y-89774259D01*
X122343410Y-89671935D01*
X122191138Y-89608862D01*
X122128065Y-89456590D01*
X122025741Y-89303451D01*
X121922290Y-89200000D01*
X129684025Y-89200000D01*
X129707870Y-89442102D01*
X129778489Y-89674901D01*
X129893167Y-89889449D01*
X130047498Y-90077502D01*
X130197348Y-90200481D01*
X130133275Y-90243693D01*
X129961922Y-90416526D01*
X129827579Y-90619467D01*
X129735409Y-90844718D01*
X129731538Y-90882391D01*
X129856269Y-91073000D01*
X131073000Y-91073000D01*
X131073000Y-91053000D01*
X131327000Y-91053000D01*
X131327000Y-91073000D01*
X132543731Y-91073000D01*
X132668462Y-90882391D01*
X132664591Y-90844718D01*
X132572421Y-90619467D01*
X132438078Y-90416526D01*
X132266725Y-90243693D01*
X132202652Y-90200481D01*
X132352502Y-90077502D01*
X132506833Y-89889449D01*
X132621511Y-89674901D01*
X132692130Y-89442102D01*
X132715975Y-89200000D01*
X132692130Y-88957898D01*
X132621511Y-88725099D01*
X132506833Y-88510551D01*
X132352502Y-88322498D01*
X132202652Y-88199519D01*
X132266725Y-88156307D01*
X132438078Y-87983474D01*
X132572421Y-87780533D01*
X132664591Y-87555282D01*
X132668462Y-87517609D01*
X132543731Y-87327000D01*
X131327000Y-87327000D01*
X131327000Y-87347000D01*
X131073000Y-87347000D01*
X131073000Y-87327000D01*
X129856269Y-87327000D01*
X129731538Y-87517609D01*
X129735409Y-87555282D01*
X129827579Y-87780533D01*
X129961922Y-87983474D01*
X130133275Y-88156307D01*
X130197348Y-88199519D01*
X130047498Y-88322498D01*
X129893167Y-88510551D01*
X129778489Y-88725099D01*
X129707870Y-88957898D01*
X129684025Y-89200000D01*
X121922290Y-89200000D01*
X121895507Y-89173217D01*
X121742368Y-89070893D01*
X121572208Y-89000411D01*
X121391568Y-88964479D01*
X121207390Y-88964479D01*
X121026750Y-89000411D01*
X120856590Y-89070893D01*
X120703451Y-89173217D01*
X120573217Y-89303451D01*
X120470893Y-89456590D01*
X120400411Y-89626750D01*
X120364479Y-89807390D01*
X120364479Y-89991568D01*
X120378798Y-90063556D01*
X116880808Y-93561547D01*
X116852763Y-93584563D01*
X116760914Y-93696481D01*
X116711584Y-93788771D01*
X116692664Y-93824168D01*
X116650635Y-93962716D01*
X116636444Y-94106801D01*
X116640001Y-94142916D01*
X116640000Y-95659156D01*
X115906325Y-96392832D01*
X115892089Y-96390000D01*
X115707911Y-96390000D01*
X115527271Y-96425932D01*
X115357111Y-96496414D01*
X115203972Y-96598738D01*
X115073738Y-96728972D01*
X114971414Y-96882111D01*
X114900932Y-97052271D01*
X114865000Y-97232911D01*
X114865000Y-97417089D01*
X114868892Y-97436657D01*
X113796997Y-96364762D01*
X113769159Y-96330841D01*
X113735238Y-96303003D01*
X112413655Y-94981420D01*
X112403586Y-94957111D01*
X112301262Y-94803972D01*
X112171028Y-94673738D01*
X112017889Y-94571414D01*
X111847729Y-94500932D01*
X111667089Y-94465000D01*
X111482911Y-94465000D01*
X111302271Y-94500932D01*
X111132111Y-94571414D01*
X110978972Y-94673738D01*
X110848738Y-94803972D01*
X110746414Y-94957111D01*
X110675932Y-95127271D01*
X110640000Y-95307911D01*
X110640000Y-95492089D01*
X110675932Y-95672729D01*
X110746414Y-95842889D01*
X110848738Y-95996028D01*
X110978972Y-96126262D01*
X111132111Y-96228586D01*
X111156420Y-96238655D01*
X111880265Y-96962500D01*
X110331765Y-98511000D01*
X109797036Y-98511000D01*
X109772729Y-98500932D01*
X109592089Y-98465000D01*
X109407911Y-98465000D01*
X109290929Y-98488270D01*
X109261412Y-98390966D01*
X109210667Y-98296028D01*
X109190655Y-98258588D01*
X109153655Y-98213504D01*
X109095432Y-98142559D01*
X109066357Y-98118698D01*
X109022934Y-98075275D01*
X109095507Y-98026783D01*
X109225741Y-97896549D01*
X109328065Y-97743410D01*
X109391138Y-97591138D01*
X109543410Y-97528065D01*
X109696549Y-97425741D01*
X109826783Y-97295507D01*
X109929107Y-97142368D01*
X109999589Y-96972208D01*
X110035521Y-96791568D01*
X110035521Y-96607390D01*
X109999589Y-96426750D01*
X109929107Y-96256590D01*
X109826783Y-96103451D01*
X109696549Y-95973217D01*
X109684479Y-95965152D01*
X109684479Y-94673167D01*
X110850256Y-93507390D01*
X111664479Y-93507390D01*
X111664479Y-93691568D01*
X111700411Y-93872208D01*
X111770893Y-94042368D01*
X111873217Y-94195507D01*
X112003451Y-94325741D01*
X112156590Y-94428065D01*
X112308862Y-94491138D01*
X112371935Y-94643410D01*
X112474259Y-94796549D01*
X112604493Y-94926783D01*
X112757632Y-95029107D01*
X112927792Y-95099589D01*
X113108432Y-95135521D01*
X113292610Y-95135521D01*
X113473250Y-95099589D01*
X113643410Y-95029107D01*
X113796549Y-94926783D01*
X113926783Y-94796549D01*
X114029107Y-94643410D01*
X114099589Y-94473250D01*
X114135521Y-94292610D01*
X114135521Y-94108432D01*
X114121201Y-94036444D01*
X115173729Y-92983917D01*
X115245717Y-92998236D01*
X115429895Y-92998236D01*
X115610535Y-92962304D01*
X115780695Y-92891822D01*
X115933834Y-92789498D01*
X116064068Y-92659264D01*
X116166392Y-92506125D01*
X116236874Y-92335965D01*
X116272806Y-92155325D01*
X116272806Y-91971147D01*
X116236874Y-91790507D01*
X116166392Y-91620347D01*
X116064068Y-91467208D01*
X115933834Y-91336974D01*
X115780695Y-91234650D01*
X115628423Y-91171577D01*
X115565350Y-91019305D01*
X115463026Y-90866166D01*
X115332792Y-90735932D01*
X115179653Y-90633608D01*
X115009493Y-90563126D01*
X114828853Y-90527194D01*
X114644675Y-90527194D01*
X114464035Y-90563126D01*
X114293875Y-90633608D01*
X114140736Y-90735932D01*
X114010502Y-90866166D01*
X113908178Y-91019305D01*
X113837696Y-91189465D01*
X113801764Y-91370105D01*
X113801764Y-91554283D01*
X113816083Y-91626271D01*
X112763556Y-92678799D01*
X112691568Y-92664479D01*
X112507390Y-92664479D01*
X112326750Y-92700411D01*
X112156590Y-92770893D01*
X112003451Y-92873217D01*
X111873217Y-93003451D01*
X111770893Y-93156590D01*
X111700411Y-93326750D01*
X111664479Y-93507390D01*
X110850256Y-93507390D01*
X113119197Y-91238450D01*
X113147237Y-91215438D01*
X113170250Y-91187397D01*
X113170253Y-91187394D01*
X113239087Y-91103520D01*
X113307337Y-90975834D01*
X113349365Y-90837285D01*
X113363556Y-90693200D01*
X113360000Y-90657095D01*
X113360000Y-89767040D01*
X113421028Y-89726262D01*
X113551262Y-89596028D01*
X113653586Y-89442889D01*
X113724068Y-89272729D01*
X113760000Y-89092089D01*
X113760000Y-88907911D01*
X113724068Y-88727271D01*
X113653586Y-88557111D01*
X113551262Y-88403972D01*
X113421028Y-88273738D01*
X113267889Y-88171414D01*
X113097729Y-88100932D01*
X112917089Y-88065000D01*
X112732911Y-88065000D01*
X112552271Y-88100932D01*
X112400000Y-88164004D01*
X112247729Y-88100932D01*
X112067089Y-88065000D01*
X111882911Y-88065000D01*
X111702271Y-88100932D01*
X111532111Y-88171414D01*
X111378972Y-88273738D01*
X111248738Y-88403972D01*
X111146414Y-88557111D01*
X111075932Y-88727271D01*
X111040000Y-88907911D01*
X111040000Y-89092089D01*
X111075932Y-89272729D01*
X111146414Y-89442889D01*
X111248738Y-89596028D01*
X111378972Y-89726262D01*
X111440001Y-89767040D01*
X111440000Y-90202353D01*
X108005287Y-93637067D01*
X107977242Y-93660083D01*
X107885393Y-93772001D01*
X107817320Y-93899356D01*
X107817143Y-93899688D01*
X107775114Y-94038236D01*
X107760923Y-94182321D01*
X107764480Y-94218436D01*
X107764479Y-96717570D01*
X107724725Y-96777066D01*
X103793246Y-92845588D01*
X103769384Y-92816512D01*
X103653354Y-92721289D01*
X103520977Y-92650532D01*
X103377340Y-92606960D01*
X103265388Y-92595934D01*
X103265385Y-92595934D01*
X103227962Y-92592248D01*
X103190539Y-92595934D01*
X97859581Y-92595934D01*
X97690256Y-92482795D01*
X97501898Y-92404774D01*
X97301939Y-92365000D01*
X97098061Y-92365000D01*
X96898102Y-92404774D01*
X96709744Y-92482795D01*
X96587500Y-92564476D01*
X96587500Y-87170994D01*
X96657911Y-87185000D01*
X96842089Y-87185000D01*
X97022729Y-87149068D01*
X97047036Y-87139000D01*
X99343893Y-87139000D01*
X99443615Y-87205632D01*
X99613775Y-87276114D01*
X99794415Y-87312046D01*
X99978593Y-87312046D01*
X100159233Y-87276114D01*
X100329393Y-87205632D01*
X100482532Y-87103308D01*
X100607001Y-86978839D01*
X100607001Y-88249851D01*
X100601471Y-88306000D01*
X100623539Y-88530067D01*
X100668343Y-88677762D01*
X100688898Y-88745523D01*
X100795033Y-88944089D01*
X100937868Y-89118133D01*
X100981478Y-89153923D01*
X101857000Y-90029446D01*
X101857000Y-90806145D01*
X101873539Y-90974066D01*
X101938897Y-91189522D01*
X102045032Y-91388088D01*
X102187867Y-91562133D01*
X102361911Y-91704968D01*
X102560477Y-91811103D01*
X102775933Y-91876461D01*
X103000000Y-91898530D01*
X103224066Y-91876461D01*
X103439522Y-91811103D01*
X103638088Y-91704968D01*
X103812133Y-91562133D01*
X103954968Y-91388089D01*
X104061103Y-91189523D01*
X104126461Y-90974067D01*
X104143000Y-90806146D01*
X104143000Y-89612139D01*
X104148529Y-89556000D01*
X104143000Y-89499861D01*
X104143000Y-89499854D01*
X104126461Y-89331933D01*
X104061103Y-89116477D01*
X103954968Y-88917911D01*
X103812133Y-88743867D01*
X103768523Y-88708077D01*
X102995445Y-87935000D01*
X103092089Y-87935000D01*
X103272729Y-87899068D01*
X103442889Y-87828586D01*
X103596028Y-87726262D01*
X103726262Y-87596028D01*
X103828586Y-87442889D01*
X103899068Y-87272729D01*
X103935000Y-87092089D01*
X103935000Y-86907911D01*
X103899068Y-86727271D01*
X103889000Y-86702964D01*
X103889000Y-85200000D01*
X129684025Y-85200000D01*
X129707870Y-85442102D01*
X129778489Y-85674901D01*
X129893167Y-85889449D01*
X130047498Y-86077502D01*
X130197348Y-86200481D01*
X130133275Y-86243693D01*
X129961922Y-86416526D01*
X129827579Y-86619467D01*
X129735409Y-86844718D01*
X129731538Y-86882391D01*
X129856269Y-87073000D01*
X131073000Y-87073000D01*
X131073000Y-87053000D01*
X131327000Y-87053000D01*
X131327000Y-87073000D01*
X132543731Y-87073000D01*
X132668462Y-86882391D01*
X132664591Y-86844718D01*
X132572421Y-86619467D01*
X132438078Y-86416526D01*
X132266725Y-86243693D01*
X132202652Y-86200481D01*
X132352502Y-86077502D01*
X132506833Y-85889449D01*
X132621511Y-85674901D01*
X132692130Y-85442102D01*
X132715975Y-85200000D01*
X132692130Y-84957898D01*
X132621511Y-84725099D01*
X132506833Y-84510551D01*
X132352502Y-84322498D01*
X132164449Y-84168167D01*
X131949901Y-84053489D01*
X131717102Y-83982870D01*
X131535665Y-83965000D01*
X130864335Y-83965000D01*
X130682898Y-83982870D01*
X130450099Y-84053489D01*
X130235551Y-84168167D01*
X130047498Y-84322498D01*
X129893167Y-84510551D01*
X129778489Y-84725099D01*
X129707870Y-84957898D01*
X129684025Y-85200000D01*
X103889000Y-85200000D01*
X103889000Y-84797036D01*
X103899068Y-84772729D01*
X103935000Y-84592089D01*
X103935000Y-84407911D01*
X103899068Y-84227271D01*
X103889000Y-84202964D01*
X103889000Y-83618235D01*
X105597742Y-81909494D01*
X105631659Y-81881659D01*
X105742753Y-81746291D01*
X105825303Y-81591851D01*
X105854259Y-81496395D01*
X105876136Y-81424276D01*
X105887988Y-81303937D01*
X105889000Y-81293667D01*
X105889000Y-81293661D01*
X105893300Y-81250001D01*
X105889000Y-81206341D01*
X105889000Y-78547036D01*
X105899068Y-78522729D01*
X105935000Y-78342089D01*
X105935000Y-78157911D01*
X105899068Y-77977271D01*
X105828586Y-77807111D01*
X105783351Y-77739411D01*
X109240000Y-77739411D01*
X109240000Y-77923589D01*
X109275932Y-78104229D01*
X109346414Y-78274389D01*
X109448738Y-78427528D01*
X109578972Y-78557762D01*
X109640000Y-78598540D01*
X109640001Y-82857084D01*
X109636444Y-82893199D01*
X109650635Y-83037284D01*
X109683330Y-83145062D01*
X109692664Y-83175832D01*
X109760914Y-83303519D01*
X109852763Y-83415437D01*
X109880808Y-83438453D01*
X110378798Y-83936444D01*
X110364479Y-84008432D01*
X110364479Y-84192610D01*
X110400411Y-84373250D01*
X110470893Y-84543410D01*
X110573217Y-84696549D01*
X110703451Y-84826783D01*
X110856590Y-84929107D01*
X111026750Y-84999589D01*
X111207390Y-85035521D01*
X111391568Y-85035521D01*
X111572208Y-84999589D01*
X111742368Y-84929107D01*
X111895507Y-84826783D01*
X112025741Y-84696549D01*
X112128065Y-84543410D01*
X112191138Y-84391138D01*
X112343410Y-84328065D01*
X112496549Y-84225741D01*
X112626783Y-84095507D01*
X112729107Y-83942368D01*
X112799589Y-83772208D01*
X112835521Y-83591568D01*
X112835521Y-83407390D01*
X112799589Y-83226750D01*
X112729107Y-83056590D01*
X112626783Y-82903451D01*
X112496549Y-82773217D01*
X112343410Y-82670893D01*
X112173250Y-82600411D01*
X111992610Y-82564479D01*
X111808432Y-82564479D01*
X111736444Y-82578798D01*
X111560000Y-82402355D01*
X111560000Y-80663360D01*
X130902462Y-80663360D01*
X130902462Y-81083918D01*
X130984509Y-81496395D01*
X131145450Y-81884941D01*
X131379099Y-82234622D01*
X131676479Y-82532002D01*
X132026160Y-82765651D01*
X132414706Y-82926592D01*
X132827183Y-83008639D01*
X133247741Y-83008639D01*
X133660218Y-82926592D01*
X134048764Y-82765651D01*
X134398445Y-82532002D01*
X134695825Y-82234622D01*
X134929474Y-81884941D01*
X135090415Y-81496395D01*
X135172462Y-81083918D01*
X135172462Y-80663360D01*
X135090415Y-80250883D01*
X134929474Y-79862337D01*
X134695825Y-79512656D01*
X134398445Y-79215276D01*
X134048764Y-78981627D01*
X133660218Y-78820686D01*
X133247741Y-78738639D01*
X132827183Y-78738639D01*
X132414706Y-78820686D01*
X132026160Y-78981627D01*
X131676479Y-79215276D01*
X131379099Y-79512656D01*
X131145450Y-79862337D01*
X130984509Y-80250883D01*
X130902462Y-80663360D01*
X111560000Y-80663360D01*
X111560000Y-78598540D01*
X111621028Y-78557762D01*
X111751262Y-78427528D01*
X111853586Y-78274389D01*
X111924068Y-78104229D01*
X111960000Y-77923589D01*
X111960000Y-77739411D01*
X111924068Y-77558771D01*
X111853586Y-77388611D01*
X111751262Y-77235472D01*
X111621028Y-77105238D01*
X111467889Y-77002914D01*
X111297729Y-76932432D01*
X111117089Y-76896500D01*
X110932911Y-76896500D01*
X110752271Y-76932432D01*
X110600000Y-76995504D01*
X110447729Y-76932432D01*
X110267089Y-76896500D01*
X110082911Y-76896500D01*
X109902271Y-76932432D01*
X109732111Y-77002914D01*
X109578972Y-77105238D01*
X109448738Y-77235472D01*
X109346414Y-77388611D01*
X109275932Y-77558771D01*
X109240000Y-77739411D01*
X105783351Y-77739411D01*
X105726262Y-77653972D01*
X105596028Y-77523738D01*
X105442889Y-77421414D01*
X105272729Y-77350932D01*
X105092089Y-77315000D01*
X104907911Y-77315000D01*
X104727271Y-77350932D01*
X104557111Y-77421414D01*
X104403972Y-77523738D01*
X104273738Y-77653972D01*
X104171414Y-77807111D01*
X104100932Y-77977271D01*
X104065000Y-78157911D01*
X104065000Y-78342089D01*
X104100932Y-78522729D01*
X104111000Y-78547036D01*
X104111001Y-80881763D01*
X103921560Y-81071205D01*
X103889345Y-81031951D01*
X103917205Y-80990256D01*
X103995226Y-80801898D01*
X104035000Y-80601939D01*
X104035000Y-80398061D01*
X103995226Y-80198102D01*
X103917205Y-80009744D01*
X103803937Y-79840226D01*
X103659774Y-79696063D01*
X103490256Y-79582795D01*
X103301898Y-79504774D01*
X103101939Y-79465000D01*
X102898061Y-79465000D01*
X102698102Y-79504774D01*
X102509744Y-79582795D01*
X102340226Y-79696063D01*
X102196063Y-79840226D01*
X102082795Y-80009744D01*
X102004774Y-80198102D01*
X101965000Y-80398061D01*
X101965000Y-80601939D01*
X102004774Y-80801898D01*
X102082795Y-80990256D01*
X102107029Y-81026525D01*
X100981482Y-82152073D01*
X100937867Y-82187867D01*
X100795032Y-82361912D01*
X100688897Y-82560478D01*
X100661055Y-82652260D01*
X100623788Y-82775114D01*
X100623539Y-82775934D01*
X100607000Y-82943855D01*
X100607000Y-82943861D01*
X100601471Y-83000000D01*
X100607000Y-83056139D01*
X100607001Y-85775253D01*
X100482532Y-85650784D01*
X100329393Y-85548460D01*
X100282095Y-85528869D01*
X100255749Y-85507247D01*
X100101309Y-85424697D01*
X99933732Y-85373864D01*
X99803125Y-85361000D01*
X99803118Y-85361000D01*
X99759458Y-85356700D01*
X99715798Y-85361000D01*
X97047036Y-85361000D01*
X97022729Y-85350932D01*
X96842089Y-85315000D01*
X96657911Y-85315000D01*
X96587500Y-85329006D01*
X96587500Y-75175659D01*
X128739966Y-75175659D01*
X128746785Y-75300557D01*
X128777839Y-75421724D01*
X129803899Y-78240802D01*
X129857996Y-78353584D01*
X129933055Y-78453644D01*
X130026193Y-78537139D01*
X130133830Y-78600859D01*
X130251830Y-78642355D01*
X130375659Y-78660034D01*
X130500557Y-78653215D01*
X130621724Y-78622161D01*
X133440802Y-77596101D01*
X133553584Y-77542004D01*
X133653644Y-77466945D01*
X133737139Y-77373807D01*
X133800859Y-77266170D01*
X133842355Y-77148170D01*
X133860034Y-77024341D01*
X133853215Y-76899443D01*
X133822161Y-76778276D01*
X132796101Y-73959198D01*
X132742004Y-73846416D01*
X132666945Y-73746356D01*
X132573807Y-73662861D01*
X132466170Y-73599141D01*
X132348170Y-73557645D01*
X132224341Y-73539966D01*
X132099443Y-73546785D01*
X131978276Y-73577839D01*
X129159198Y-74603899D01*
X129046416Y-74657996D01*
X128946356Y-74733055D01*
X128862861Y-74826193D01*
X128799141Y-74933830D01*
X128757645Y-75051830D01*
X128739966Y-75175659D01*
X96587500Y-75175659D01*
X96587500Y-71672658D01*
X96589550Y-71673754D01*
X96749498Y-71722274D01*
X96888793Y-71764529D01*
X96946639Y-71770226D01*
X97122013Y-71787499D01*
X97122019Y-71787499D01*
X97199998Y-71795179D01*
X97277977Y-71787499D01*
X122722022Y-71787499D01*
X122800001Y-71795179D01*
X122877980Y-71787499D01*
X122877987Y-71787499D01*
X123111205Y-71764529D01*
X123410450Y-71673754D01*
X123686236Y-71526344D01*
X123927964Y-71327962D01*
X123977681Y-71267382D01*
X124461614Y-70783449D01*
X124720777Y-70835000D01*
X125279223Y-70835000D01*
X125826939Y-70726052D01*
X126342876Y-70512344D01*
X126807207Y-70202088D01*
X127202088Y-69807207D01*
X127512344Y-69342876D01*
X127726052Y-68826939D01*
X127835000Y-68279223D01*
X127835000Y-67720777D01*
X127726052Y-67173061D01*
X127512344Y-66657124D01*
X127282236Y-66312744D01*
X127931837Y-66777493D01*
G37*
X127931837Y-66777493D02*
X129579134Y-68148384D01*
X131121968Y-69635863D01*
X132552107Y-71231994D01*
X133861921Y-72928259D01*
X135044421Y-74715610D01*
X136093299Y-76584510D01*
X137002957Y-78524988D01*
X137768543Y-80526689D01*
X138385972Y-82578935D01*
X138851949Y-84670775D01*
X139163989Y-86791049D01*
X139320426Y-88928444D01*
X139320426Y-91071556D01*
X139163989Y-93208951D01*
X138851949Y-95329225D01*
X138385972Y-97421065D01*
X137768543Y-99473311D01*
X137002957Y-101475012D01*
X136255529Y-103069422D01*
X136240981Y-102929368D01*
X136076028Y-102395839D01*
X135827018Y-101929976D01*
X135439775Y-101689830D01*
X133629605Y-103500000D01*
X133643748Y-103514143D01*
X133464143Y-103693748D01*
X133450000Y-103679605D01*
X131639830Y-105489775D01*
X131879976Y-105877018D01*
X132373877Y-106137641D01*
X132909133Y-106296901D01*
X133465174Y-106348678D01*
X134020632Y-106290981D01*
X134470482Y-106151899D01*
X133861921Y-107071741D01*
X132552107Y-108768006D01*
X131121968Y-110364137D01*
X129579134Y-111851616D01*
X127931837Y-113222507D01*
X127040099Y-113860491D01*
X126989777Y-113810169D01*
X127377018Y-113570024D01*
X127637641Y-113076123D01*
X127796901Y-112540867D01*
X127848678Y-111984826D01*
X127790981Y-111429368D01*
X127626028Y-110895839D01*
X127377018Y-110429976D01*
X126989775Y-110189830D01*
X125179605Y-112000000D01*
X125193748Y-112014143D01*
X125014143Y-112193748D01*
X125000000Y-112179605D01*
X123189830Y-113989775D01*
X123429976Y-114377018D01*
X123923877Y-114637641D01*
X124459133Y-114796901D01*
X125015174Y-114848678D01*
X125570632Y-114790981D01*
X125756001Y-114733670D01*
X124359520Y-115585930D01*
X122453560Y-116565851D01*
X122327588Y-116619383D01*
X122512344Y-116342876D01*
X122726052Y-115826939D01*
X122835000Y-115279223D01*
X122835000Y-114720777D01*
X122726052Y-114173061D01*
X122512344Y-113657124D01*
X122202088Y-113192793D01*
X121807207Y-112797912D01*
X121342876Y-112487656D01*
X120826939Y-112273948D01*
X120279223Y-112165000D01*
X119720777Y-112165000D01*
X119173061Y-112273948D01*
X118657124Y-112487656D01*
X118192793Y-112797912D01*
X117797912Y-113192793D01*
X117651109Y-113412500D01*
X102348891Y-113412500D01*
X102202088Y-113192793D01*
X101807207Y-112797912D01*
X101587500Y-112651109D01*
X101587500Y-110577979D01*
X101595180Y-110500000D01*
X101587500Y-110422021D01*
X101587500Y-110422014D01*
X101564530Y-110188796D01*
X101473755Y-109889551D01*
X101326345Y-109613765D01*
X101127963Y-109372037D01*
X101067390Y-109322326D01*
X96587500Y-104842437D01*
X96587500Y-96502342D01*
X96609744Y-96517205D01*
X96798102Y-96595226D01*
X96998061Y-96635000D01*
X97201939Y-96635000D01*
X97401898Y-96595226D01*
X97590256Y-96517205D01*
X97759774Y-96403937D01*
X97801711Y-96362000D01*
X102510370Y-96362000D01*
X102105430Y-96766940D01*
X101987881Y-96790322D01*
X101817721Y-96860804D01*
X101664582Y-96963128D01*
X101534348Y-97093362D01*
X101432024Y-97246501D01*
X101361542Y-97416661D01*
X101325610Y-97597301D01*
X101325610Y-97781479D01*
X101361542Y-97962119D01*
X101432024Y-98132279D01*
X101534348Y-98285418D01*
X101664582Y-98415652D01*
X101817721Y-98517976D01*
X101987881Y-98588458D01*
X102168521Y-98624390D01*
X102352699Y-98624390D01*
X102533339Y-98588458D01*
X102703499Y-98517976D01*
X102856638Y-98415652D01*
X102986872Y-98285418D01*
X103089196Y-98132279D01*
X103159678Y-97962119D01*
X103183060Y-97844570D01*
X103936255Y-97091375D01*
X104128083Y-97091375D01*
X104227736Y-97157961D01*
X104397896Y-97228443D01*
X104578536Y-97264375D01*
X104762714Y-97264375D01*
X104943354Y-97228443D01*
X105113514Y-97157961D01*
X105230276Y-97079944D01*
X107338000Y-99187668D01*
X107338001Y-99762567D01*
X107334314Y-99800000D01*
X107349027Y-99949378D01*
X107392599Y-100093015D01*
X107463355Y-100225392D01*
X107534721Y-100312351D01*
X107558579Y-100341422D01*
X107587649Y-100365279D01*
X107984389Y-100762019D01*
X107860653Y-100885755D01*
X107831577Y-100909617D01*
X107780862Y-100971414D01*
X107736354Y-101025647D01*
X107723858Y-101049026D01*
X107665597Y-101158025D01*
X107622025Y-101301662D01*
X107613216Y-101391107D01*
X107607313Y-101451039D01*
X107610999Y-101488462D01*
X107611000Y-103935566D01*
X107607313Y-103972999D01*
X107622026Y-104122377D01*
X107665598Y-104266014D01*
X107736354Y-104398391D01*
X107778407Y-104449632D01*
X107831578Y-104514421D01*
X107860648Y-104538278D01*
X110477550Y-107155181D01*
X110500932Y-107272729D01*
X110571414Y-107442889D01*
X110673738Y-107596028D01*
X110803972Y-107726262D01*
X110957111Y-107828586D01*
X111127271Y-107899068D01*
X111307911Y-107935000D01*
X111492089Y-107935000D01*
X111672729Y-107899068D01*
X111842889Y-107828586D01*
X111996028Y-107726262D01*
X112126262Y-107596028D01*
X112228586Y-107442889D01*
X112243074Y-107407911D01*
X114865000Y-107407911D01*
X114865000Y-107592089D01*
X114900932Y-107772729D01*
X114971414Y-107942889D01*
X115038000Y-108042542D01*
X115038001Y-110757457D01*
X114971414Y-110857111D01*
X114900932Y-111027271D01*
X114865000Y-111207911D01*
X114865000Y-111392089D01*
X114900932Y-111572729D01*
X114971414Y-111742889D01*
X115073738Y-111896028D01*
X115203972Y-112026262D01*
X115357111Y-112128586D01*
X115527271Y-112199068D01*
X115707911Y-112235000D01*
X115892089Y-112235000D01*
X116072729Y-112199068D01*
X116242889Y-112128586D01*
X116396028Y-112026262D01*
X116526262Y-111896028D01*
X116628586Y-111742889D01*
X116699068Y-111572729D01*
X116735000Y-111392089D01*
X116735000Y-111207911D01*
X116699068Y-111027271D01*
X116628586Y-110857111D01*
X116562000Y-110757458D01*
X116562000Y-108042542D01*
X116628586Y-107942889D01*
X116699068Y-107772729D01*
X116735000Y-107592089D01*
X116735000Y-107407911D01*
X116699068Y-107227271D01*
X116628586Y-107057111D01*
X116526262Y-106903972D01*
X116396028Y-106773738D01*
X116242889Y-106671414D01*
X116072729Y-106600932D01*
X115892089Y-106565000D01*
X115707911Y-106565000D01*
X115527271Y-106600932D01*
X115357111Y-106671414D01*
X115203972Y-106773738D01*
X115073738Y-106903972D01*
X114971414Y-107057111D01*
X114900932Y-107227271D01*
X114865000Y-107407911D01*
X112243074Y-107407911D01*
X112299068Y-107272729D01*
X112335000Y-107092089D01*
X112335000Y-106907911D01*
X112299068Y-106727271D01*
X112228586Y-106557111D01*
X112126262Y-106403972D01*
X111996028Y-106273738D01*
X111842889Y-106171414D01*
X111672729Y-106100932D01*
X111555181Y-106077550D01*
X111238542Y-105760911D01*
X117445000Y-105760911D01*
X117445000Y-105945089D01*
X117480932Y-106125729D01*
X117551414Y-106295889D01*
X117653738Y-106449028D01*
X117783972Y-106579262D01*
X117937111Y-106681586D01*
X117940060Y-106682807D01*
X117803972Y-106773738D01*
X117673738Y-106903972D01*
X117571414Y-107057111D01*
X117500932Y-107227271D01*
X117465000Y-107407911D01*
X117465000Y-107592089D01*
X117500932Y-107772729D01*
X117571414Y-107942889D01*
X117638000Y-108042542D01*
X117638001Y-110709958D01*
X117571414Y-110809612D01*
X117500932Y-110979772D01*
X117465000Y-111160412D01*
X117465000Y-111344590D01*
X117500932Y-111525230D01*
X117571414Y-111695390D01*
X117673738Y-111848529D01*
X117803972Y-111978763D01*
X117957111Y-112081087D01*
X118127271Y-112151569D01*
X118307911Y-112187501D01*
X118492089Y-112187501D01*
X118672729Y-112151569D01*
X118842889Y-112081087D01*
X118996028Y-111978763D01*
X119126262Y-111848529D01*
X119228586Y-111695390D01*
X119299068Y-111525230D01*
X119335000Y-111344590D01*
X119335000Y-111160412D01*
X119299068Y-110979772D01*
X119228586Y-110809612D01*
X119162000Y-110709959D01*
X119162000Y-108042542D01*
X119228586Y-107942889D01*
X119299068Y-107772729D01*
X119335000Y-107592089D01*
X119335000Y-107407911D01*
X119315109Y-107307911D01*
X119965000Y-107307911D01*
X119965000Y-107492089D01*
X120000932Y-107672729D01*
X120071414Y-107842889D01*
X120138000Y-107942542D01*
X120138001Y-110709958D01*
X120071414Y-110809612D01*
X120000932Y-110979772D01*
X119965000Y-111160412D01*
X119965000Y-111344590D01*
X120000932Y-111525230D01*
X120071414Y-111695390D01*
X120173738Y-111848529D01*
X120303972Y-111978763D01*
X120457111Y-112081087D01*
X120627271Y-112151569D01*
X120807911Y-112187501D01*
X120992089Y-112187501D01*
X121172729Y-112151569D01*
X121342889Y-112081087D01*
X121441534Y-112015174D01*
X122151322Y-112015174D01*
X122209019Y-112570632D01*
X122373972Y-113104161D01*
X122622982Y-113570024D01*
X123010225Y-113810170D01*
X124820395Y-112000000D01*
X123010225Y-110189830D01*
X122622982Y-110429976D01*
X122362359Y-110923877D01*
X122203099Y-111459133D01*
X122151322Y-112015174D01*
X121441534Y-112015174D01*
X121496028Y-111978763D01*
X121626262Y-111848529D01*
X121728586Y-111695390D01*
X121799068Y-111525230D01*
X121835000Y-111344590D01*
X121835000Y-111160412D01*
X121799068Y-110979772D01*
X121728586Y-110809612D01*
X121662000Y-110709959D01*
X121662000Y-110010225D01*
X123189830Y-110010225D01*
X125000000Y-111820395D01*
X126810170Y-110010225D01*
X126570024Y-109622982D01*
X126076123Y-109362359D01*
X125540867Y-109203099D01*
X124984826Y-109151322D01*
X124429368Y-109209019D01*
X123895839Y-109373972D01*
X123429976Y-109622982D01*
X123189830Y-110010225D01*
X121662000Y-110010225D01*
X121662000Y-107942542D01*
X121728586Y-107842889D01*
X121799068Y-107672729D01*
X121835000Y-107492089D01*
X121835000Y-107307911D01*
X121799068Y-107127271D01*
X121728586Y-106957111D01*
X121626262Y-106803972D01*
X121496028Y-106673738D01*
X121342889Y-106571414D01*
X121172729Y-106500932D01*
X120992089Y-106465000D01*
X120807911Y-106465000D01*
X120627271Y-106500932D01*
X120457111Y-106571414D01*
X120303972Y-106673738D01*
X120173738Y-106803972D01*
X120071414Y-106957111D01*
X120000932Y-107127271D01*
X119965000Y-107307911D01*
X119315109Y-107307911D01*
X119299068Y-107227271D01*
X119228586Y-107057111D01*
X119126262Y-106903972D01*
X118996028Y-106773738D01*
X118842889Y-106671414D01*
X118839940Y-106670193D01*
X118976028Y-106579262D01*
X119106262Y-106449028D01*
X119208586Y-106295889D01*
X119279068Y-106125729D01*
X119315000Y-105945089D01*
X119315000Y-105760911D01*
X119279068Y-105580271D01*
X119208586Y-105410111D01*
X119162000Y-105340390D01*
X119162000Y-104742542D01*
X119228586Y-104642889D01*
X119299068Y-104472729D01*
X119335000Y-104292089D01*
X119335000Y-104107911D01*
X119299068Y-103927271D01*
X119228586Y-103757111D01*
X119126262Y-103603972D01*
X119037464Y-103515174D01*
X130601322Y-103515174D01*
X130659019Y-104070632D01*
X130823972Y-104604161D01*
X131072982Y-105070024D01*
X131460225Y-105310170D01*
X133270395Y-103500000D01*
X131460225Y-101689830D01*
X131072982Y-101929976D01*
X130812359Y-102423877D01*
X130653099Y-102959133D01*
X130601322Y-103515174D01*
X119037464Y-103515174D01*
X118996028Y-103473738D01*
X118842889Y-103371414D01*
X118672729Y-103300932D01*
X118492089Y-103265000D01*
X118307911Y-103265000D01*
X118127271Y-103300932D01*
X117957111Y-103371414D01*
X117803972Y-103473738D01*
X117673738Y-103603972D01*
X117571414Y-103757111D01*
X117500932Y-103927271D01*
X117465000Y-104107911D01*
X117465000Y-104292089D01*
X117500932Y-104472729D01*
X117571414Y-104642889D01*
X117638000Y-104742543D01*
X117638001Y-105280525D01*
X117551414Y-105410111D01*
X117480932Y-105580271D01*
X117445000Y-105760911D01*
X111238542Y-105760911D01*
X109134999Y-103657369D01*
X109134999Y-102835000D01*
X109201939Y-102835000D01*
X109401898Y-102795226D01*
X109590256Y-102717205D01*
X109759774Y-102603937D01*
X109801711Y-102562000D01*
X112957458Y-102562000D01*
X113057111Y-102628586D01*
X113227271Y-102699068D01*
X113407911Y-102735000D01*
X113592089Y-102735000D01*
X113772729Y-102699068D01*
X113942889Y-102628586D01*
X114042542Y-102562000D01*
X115165000Y-102562000D01*
X115165000Y-102592089D01*
X115200932Y-102772729D01*
X115271414Y-102942889D01*
X115373738Y-103096028D01*
X115503972Y-103226262D01*
X115657111Y-103328586D01*
X115827271Y-103399068D01*
X116007911Y-103435000D01*
X116192089Y-103435000D01*
X116372729Y-103399068D01*
X116542889Y-103328586D01*
X116642542Y-103262000D01*
X119623577Y-103262000D01*
X119661000Y-103265686D01*
X119698423Y-103262000D01*
X119698426Y-103262000D01*
X119810378Y-103250974D01*
X119954015Y-103207402D01*
X120086392Y-103136645D01*
X120202422Y-103041422D01*
X120226284Y-103012346D01*
X121705181Y-101533450D01*
X121821939Y-101510225D01*
X131639830Y-101510225D01*
X133450000Y-103320395D01*
X135260170Y-101510225D01*
X135020024Y-101122982D01*
X134526123Y-100862359D01*
X133990867Y-100703099D01*
X133434826Y-100651322D01*
X132879368Y-100709019D01*
X132345839Y-100873972D01*
X131879976Y-101122982D01*
X131639830Y-101510225D01*
X121821939Y-101510225D01*
X121822729Y-101510068D01*
X121992889Y-101439586D01*
X122146028Y-101337262D01*
X122276262Y-101207028D01*
X122378586Y-101053889D01*
X122449068Y-100883729D01*
X122485000Y-100703089D01*
X122485000Y-100518911D01*
X122449068Y-100338271D01*
X122378586Y-100168111D01*
X122276262Y-100014972D01*
X122146028Y-99884738D01*
X121992889Y-99782414D01*
X121968581Y-99772346D01*
X120471498Y-98275263D01*
X120443658Y-98241340D01*
X120308290Y-98130246D01*
X120153850Y-98047696D01*
X119986273Y-97996863D01*
X119855666Y-97983999D01*
X119855659Y-97983999D01*
X119811999Y-97979699D01*
X119768339Y-97983999D01*
X117030447Y-97983999D01*
X118319197Y-96695250D01*
X118347237Y-96672238D01*
X118370250Y-96644197D01*
X118370253Y-96644194D01*
X118439086Y-96560321D01*
X118439087Y-96560320D01*
X118507337Y-96432633D01*
X118549365Y-96294085D01*
X118560000Y-96186105D01*
X118560000Y-96186096D01*
X118563555Y-96150001D01*
X118560000Y-96113906D01*
X118560000Y-94597645D01*
X119957645Y-93200000D01*
X129684025Y-93200000D01*
X129707870Y-93442102D01*
X129778489Y-93674901D01*
X129893167Y-93889449D01*
X130047498Y-94077502D01*
X130086111Y-94109191D01*
X130081613Y-94111595D01*
X129947038Y-94222038D01*
X129836595Y-94356613D01*
X129754528Y-94510149D01*
X129703992Y-94676745D01*
X129686928Y-94849999D01*
X129686928Y-95550001D01*
X129703992Y-95723255D01*
X129754528Y-95889851D01*
X129836595Y-96043387D01*
X129947038Y-96177962D01*
X130081613Y-96288405D01*
X130235149Y-96370472D01*
X130401745Y-96421008D01*
X130574999Y-96438072D01*
X131825001Y-96438072D01*
X131998255Y-96421008D01*
X132164851Y-96370472D01*
X132318387Y-96288405D01*
X132452962Y-96177962D01*
X132563405Y-96043387D01*
X132645472Y-95889851D01*
X132696008Y-95723255D01*
X132713072Y-95550001D01*
X132713072Y-94849999D01*
X132696008Y-94676745D01*
X132645472Y-94510149D01*
X132563405Y-94356613D01*
X132452962Y-94222038D01*
X132318387Y-94111595D01*
X132313889Y-94109191D01*
X132352502Y-94077502D01*
X132506833Y-93889449D01*
X132621511Y-93674901D01*
X132692130Y-93442102D01*
X132715975Y-93200000D01*
X132692130Y-92957898D01*
X132621511Y-92725099D01*
X132506833Y-92510551D01*
X132352502Y-92322498D01*
X132202652Y-92199519D01*
X132266725Y-92156307D01*
X132438078Y-91983474D01*
X132572421Y-91780533D01*
X132664591Y-91555282D01*
X132668462Y-91517609D01*
X132543731Y-91327000D01*
X131327000Y-91327000D01*
X131327000Y-91347000D01*
X131073000Y-91347000D01*
X131073000Y-91327000D01*
X129856269Y-91327000D01*
X129731538Y-91517609D01*
X129735409Y-91555282D01*
X129827579Y-91780533D01*
X129961922Y-91983474D01*
X130133275Y-92156307D01*
X130197348Y-92199519D01*
X130047498Y-92322498D01*
X129893167Y-92510551D01*
X129778489Y-92725099D01*
X129707870Y-92957898D01*
X129684025Y-93200000D01*
X119957645Y-93200000D01*
X121736444Y-91421202D01*
X121808432Y-91435521D01*
X121992610Y-91435521D01*
X122173250Y-91399589D01*
X122343410Y-91329107D01*
X122496549Y-91226783D01*
X122626783Y-91096549D01*
X122729107Y-90943410D01*
X122799589Y-90773250D01*
X122835521Y-90592610D01*
X122835521Y-90408432D01*
X122799589Y-90227792D01*
X122729107Y-90057632D01*
X122626783Y-89904493D01*
X122496549Y-89774259D01*
X122343410Y-89671935D01*
X122191138Y-89608862D01*
X122128065Y-89456590D01*
X122025741Y-89303451D01*
X121922290Y-89200000D01*
X129684025Y-89200000D01*
X129707870Y-89442102D01*
X129778489Y-89674901D01*
X129893167Y-89889449D01*
X130047498Y-90077502D01*
X130197348Y-90200481D01*
X130133275Y-90243693D01*
X129961922Y-90416526D01*
X129827579Y-90619467D01*
X129735409Y-90844718D01*
X129731538Y-90882391D01*
X129856269Y-91073000D01*
X131073000Y-91073000D01*
X131073000Y-91053000D01*
X131327000Y-91053000D01*
X131327000Y-91073000D01*
X132543731Y-91073000D01*
X132668462Y-90882391D01*
X132664591Y-90844718D01*
X132572421Y-90619467D01*
X132438078Y-90416526D01*
X132266725Y-90243693D01*
X132202652Y-90200481D01*
X132352502Y-90077502D01*
X132506833Y-89889449D01*
X132621511Y-89674901D01*
X132692130Y-89442102D01*
X132715975Y-89200000D01*
X132692130Y-88957898D01*
X132621511Y-88725099D01*
X132506833Y-88510551D01*
X132352502Y-88322498D01*
X132202652Y-88199519D01*
X132266725Y-88156307D01*
X132438078Y-87983474D01*
X132572421Y-87780533D01*
X132664591Y-87555282D01*
X132668462Y-87517609D01*
X132543731Y-87327000D01*
X131327000Y-87327000D01*
X131327000Y-87347000D01*
X131073000Y-87347000D01*
X131073000Y-87327000D01*
X129856269Y-87327000D01*
X129731538Y-87517609D01*
X129735409Y-87555282D01*
X129827579Y-87780533D01*
X129961922Y-87983474D01*
X130133275Y-88156307D01*
X130197348Y-88199519D01*
X130047498Y-88322498D01*
X129893167Y-88510551D01*
X129778489Y-88725099D01*
X129707870Y-88957898D01*
X129684025Y-89200000D01*
X121922290Y-89200000D01*
X121895507Y-89173217D01*
X121742368Y-89070893D01*
X121572208Y-89000411D01*
X121391568Y-88964479D01*
X121207390Y-88964479D01*
X121026750Y-89000411D01*
X120856590Y-89070893D01*
X120703451Y-89173217D01*
X120573217Y-89303451D01*
X120470893Y-89456590D01*
X120400411Y-89626750D01*
X120364479Y-89807390D01*
X120364479Y-89991568D01*
X120378798Y-90063556D01*
X116880808Y-93561547D01*
X116852763Y-93584563D01*
X116760914Y-93696481D01*
X116711584Y-93788771D01*
X116692664Y-93824168D01*
X116650635Y-93962716D01*
X116636444Y-94106801D01*
X116640001Y-94142916D01*
X116640000Y-95659156D01*
X115906325Y-96392832D01*
X115892089Y-96390000D01*
X115707911Y-96390000D01*
X115527271Y-96425932D01*
X115357111Y-96496414D01*
X115203972Y-96598738D01*
X115073738Y-96728972D01*
X114971414Y-96882111D01*
X114900932Y-97052271D01*
X114865000Y-97232911D01*
X114865000Y-97417089D01*
X114868892Y-97436657D01*
X113796997Y-96364762D01*
X113769159Y-96330841D01*
X113735238Y-96303003D01*
X112413655Y-94981420D01*
X112403586Y-94957111D01*
X112301262Y-94803972D01*
X112171028Y-94673738D01*
X112017889Y-94571414D01*
X111847729Y-94500932D01*
X111667089Y-94465000D01*
X111482911Y-94465000D01*
X111302271Y-94500932D01*
X111132111Y-94571414D01*
X110978972Y-94673738D01*
X110848738Y-94803972D01*
X110746414Y-94957111D01*
X110675932Y-95127271D01*
X110640000Y-95307911D01*
X110640000Y-95492089D01*
X110675932Y-95672729D01*
X110746414Y-95842889D01*
X110848738Y-95996028D01*
X110978972Y-96126262D01*
X111132111Y-96228586D01*
X111156420Y-96238655D01*
X111880265Y-96962500D01*
X110331765Y-98511000D01*
X109797036Y-98511000D01*
X109772729Y-98500932D01*
X109592089Y-98465000D01*
X109407911Y-98465000D01*
X109290929Y-98488270D01*
X109261412Y-98390966D01*
X109210667Y-98296028D01*
X109190655Y-98258588D01*
X109153655Y-98213504D01*
X109095432Y-98142559D01*
X109066357Y-98118698D01*
X109022934Y-98075275D01*
X109095507Y-98026783D01*
X109225741Y-97896549D01*
X109328065Y-97743410D01*
X109391138Y-97591138D01*
X109543410Y-97528065D01*
X109696549Y-97425741D01*
X109826783Y-97295507D01*
X109929107Y-97142368D01*
X109999589Y-96972208D01*
X110035521Y-96791568D01*
X110035521Y-96607390D01*
X109999589Y-96426750D01*
X109929107Y-96256590D01*
X109826783Y-96103451D01*
X109696549Y-95973217D01*
X109684479Y-95965152D01*
X109684479Y-94673167D01*
X110850256Y-93507390D01*
X111664479Y-93507390D01*
X111664479Y-93691568D01*
X111700411Y-93872208D01*
X111770893Y-94042368D01*
X111873217Y-94195507D01*
X112003451Y-94325741D01*
X112156590Y-94428065D01*
X112308862Y-94491138D01*
X112371935Y-94643410D01*
X112474259Y-94796549D01*
X112604493Y-94926783D01*
X112757632Y-95029107D01*
X112927792Y-95099589D01*
X113108432Y-95135521D01*
X113292610Y-95135521D01*
X113473250Y-95099589D01*
X113643410Y-95029107D01*
X113796549Y-94926783D01*
X113926783Y-94796549D01*
X114029107Y-94643410D01*
X114099589Y-94473250D01*
X114135521Y-94292610D01*
X114135521Y-94108432D01*
X114121201Y-94036444D01*
X115173729Y-92983917D01*
X115245717Y-92998236D01*
X115429895Y-92998236D01*
X115610535Y-92962304D01*
X115780695Y-92891822D01*
X115933834Y-92789498D01*
X116064068Y-92659264D01*
X116166392Y-92506125D01*
X116236874Y-92335965D01*
X116272806Y-92155325D01*
X116272806Y-91971147D01*
X116236874Y-91790507D01*
X116166392Y-91620347D01*
X116064068Y-91467208D01*
X115933834Y-91336974D01*
X115780695Y-91234650D01*
X115628423Y-91171577D01*
X115565350Y-91019305D01*
X115463026Y-90866166D01*
X115332792Y-90735932D01*
X115179653Y-90633608D01*
X115009493Y-90563126D01*
X114828853Y-90527194D01*
X114644675Y-90527194D01*
X114464035Y-90563126D01*
X114293875Y-90633608D01*
X114140736Y-90735932D01*
X114010502Y-90866166D01*
X113908178Y-91019305D01*
X113837696Y-91189465D01*
X113801764Y-91370105D01*
X113801764Y-91554283D01*
X113816083Y-91626271D01*
X112763556Y-92678799D01*
X112691568Y-92664479D01*
X112507390Y-92664479D01*
X112326750Y-92700411D01*
X112156590Y-92770893D01*
X112003451Y-92873217D01*
X111873217Y-93003451D01*
X111770893Y-93156590D01*
X111700411Y-93326750D01*
X111664479Y-93507390D01*
X110850256Y-93507390D01*
X113119197Y-91238450D01*
X113147237Y-91215438D01*
X113170250Y-91187397D01*
X113170253Y-91187394D01*
X113239087Y-91103520D01*
X113307337Y-90975834D01*
X113349365Y-90837285D01*
X113363556Y-90693200D01*
X113360000Y-90657095D01*
X113360000Y-89767040D01*
X113421028Y-89726262D01*
X113551262Y-89596028D01*
X113653586Y-89442889D01*
X113724068Y-89272729D01*
X113760000Y-89092089D01*
X113760000Y-88907911D01*
X113724068Y-88727271D01*
X113653586Y-88557111D01*
X113551262Y-88403972D01*
X113421028Y-88273738D01*
X113267889Y-88171414D01*
X113097729Y-88100932D01*
X112917089Y-88065000D01*
X112732911Y-88065000D01*
X112552271Y-88100932D01*
X112400000Y-88164004D01*
X112247729Y-88100932D01*
X112067089Y-88065000D01*
X111882911Y-88065000D01*
X111702271Y-88100932D01*
X111532111Y-88171414D01*
X111378972Y-88273738D01*
X111248738Y-88403972D01*
X111146414Y-88557111D01*
X111075932Y-88727271D01*
X111040000Y-88907911D01*
X111040000Y-89092089D01*
X111075932Y-89272729D01*
X111146414Y-89442889D01*
X111248738Y-89596028D01*
X111378972Y-89726262D01*
X111440001Y-89767040D01*
X111440000Y-90202353D01*
X108005287Y-93637067D01*
X107977242Y-93660083D01*
X107885393Y-93772001D01*
X107817320Y-93899356D01*
X107817143Y-93899688D01*
X107775114Y-94038236D01*
X107760923Y-94182321D01*
X107764480Y-94218436D01*
X107764479Y-96717570D01*
X107724725Y-96777066D01*
X103793246Y-92845588D01*
X103769384Y-92816512D01*
X103653354Y-92721289D01*
X103520977Y-92650532D01*
X103377340Y-92606960D01*
X103265388Y-92595934D01*
X103265385Y-92595934D01*
X103227962Y-92592248D01*
X103190539Y-92595934D01*
X97859581Y-92595934D01*
X97690256Y-92482795D01*
X97501898Y-92404774D01*
X97301939Y-92365000D01*
X97098061Y-92365000D01*
X96898102Y-92404774D01*
X96709744Y-92482795D01*
X96587500Y-92564476D01*
X96587500Y-87170994D01*
X96657911Y-87185000D01*
X96842089Y-87185000D01*
X97022729Y-87149068D01*
X97047036Y-87139000D01*
X99343893Y-87139000D01*
X99443615Y-87205632D01*
X99613775Y-87276114D01*
X99794415Y-87312046D01*
X99978593Y-87312046D01*
X100159233Y-87276114D01*
X100329393Y-87205632D01*
X100482532Y-87103308D01*
X100607001Y-86978839D01*
X100607001Y-88249851D01*
X100601471Y-88306000D01*
X100623539Y-88530067D01*
X100668343Y-88677762D01*
X100688898Y-88745523D01*
X100795033Y-88944089D01*
X100937868Y-89118133D01*
X100981478Y-89153923D01*
X101857000Y-90029446D01*
X101857000Y-90806145D01*
X101873539Y-90974066D01*
X101938897Y-91189522D01*
X102045032Y-91388088D01*
X102187867Y-91562133D01*
X102361911Y-91704968D01*
X102560477Y-91811103D01*
X102775933Y-91876461D01*
X103000000Y-91898530D01*
X103224066Y-91876461D01*
X103439522Y-91811103D01*
X103638088Y-91704968D01*
X103812133Y-91562133D01*
X103954968Y-91388089D01*
X104061103Y-91189523D01*
X104126461Y-90974067D01*
X104143000Y-90806146D01*
X104143000Y-89612139D01*
X104148529Y-89556000D01*
X104143000Y-89499861D01*
X104143000Y-89499854D01*
X104126461Y-89331933D01*
X104061103Y-89116477D01*
X103954968Y-88917911D01*
X103812133Y-88743867D01*
X103768523Y-88708077D01*
X102995445Y-87935000D01*
X103092089Y-87935000D01*
X103272729Y-87899068D01*
X103442889Y-87828586D01*
X103596028Y-87726262D01*
X103726262Y-87596028D01*
X103828586Y-87442889D01*
X103899068Y-87272729D01*
X103935000Y-87092089D01*
X103935000Y-86907911D01*
X103899068Y-86727271D01*
X103889000Y-86702964D01*
X103889000Y-85200000D01*
X129684025Y-85200000D01*
X129707870Y-85442102D01*
X129778489Y-85674901D01*
X129893167Y-85889449D01*
X130047498Y-86077502D01*
X130197348Y-86200481D01*
X130133275Y-86243693D01*
X129961922Y-86416526D01*
X129827579Y-86619467D01*
X129735409Y-86844718D01*
X129731538Y-86882391D01*
X129856269Y-87073000D01*
X131073000Y-87073000D01*
X131073000Y-87053000D01*
X131327000Y-87053000D01*
X131327000Y-87073000D01*
X132543731Y-87073000D01*
X132668462Y-86882391D01*
X132664591Y-86844718D01*
X132572421Y-86619467D01*
X132438078Y-86416526D01*
X132266725Y-86243693D01*
X132202652Y-86200481D01*
X132352502Y-86077502D01*
X132506833Y-85889449D01*
X132621511Y-85674901D01*
X132692130Y-85442102D01*
X132715975Y-85200000D01*
X132692130Y-84957898D01*
X132621511Y-84725099D01*
X132506833Y-84510551D01*
X132352502Y-84322498D01*
X132164449Y-84168167D01*
X131949901Y-84053489D01*
X131717102Y-83982870D01*
X131535665Y-83965000D01*
X130864335Y-83965000D01*
X130682898Y-83982870D01*
X130450099Y-84053489D01*
X130235551Y-84168167D01*
X130047498Y-84322498D01*
X129893167Y-84510551D01*
X129778489Y-84725099D01*
X129707870Y-84957898D01*
X129684025Y-85200000D01*
X103889000Y-85200000D01*
X103889000Y-84797036D01*
X103899068Y-84772729D01*
X103935000Y-84592089D01*
X103935000Y-84407911D01*
X103899068Y-84227271D01*
X103889000Y-84202964D01*
X103889000Y-83618235D01*
X105597742Y-81909494D01*
X105631659Y-81881659D01*
X105742753Y-81746291D01*
X105825303Y-81591851D01*
X105854259Y-81496395D01*
X105876136Y-81424276D01*
X105887988Y-81303937D01*
X105889000Y-81293667D01*
X105889000Y-81293661D01*
X105893300Y-81250001D01*
X105889000Y-81206341D01*
X105889000Y-78547036D01*
X105899068Y-78522729D01*
X105935000Y-78342089D01*
X105935000Y-78157911D01*
X105899068Y-77977271D01*
X105828586Y-77807111D01*
X105783351Y-77739411D01*
X109240000Y-77739411D01*
X109240000Y-77923589D01*
X109275932Y-78104229D01*
X109346414Y-78274389D01*
X109448738Y-78427528D01*
X109578972Y-78557762D01*
X109640000Y-78598540D01*
X109640001Y-82857084D01*
X109636444Y-82893199D01*
X109650635Y-83037284D01*
X109683330Y-83145062D01*
X109692664Y-83175832D01*
X109760914Y-83303519D01*
X109852763Y-83415437D01*
X109880808Y-83438453D01*
X110378798Y-83936444D01*
X110364479Y-84008432D01*
X110364479Y-84192610D01*
X110400411Y-84373250D01*
X110470893Y-84543410D01*
X110573217Y-84696549D01*
X110703451Y-84826783D01*
X110856590Y-84929107D01*
X111026750Y-84999589D01*
X111207390Y-85035521D01*
X111391568Y-85035521D01*
X111572208Y-84999589D01*
X111742368Y-84929107D01*
X111895507Y-84826783D01*
X112025741Y-84696549D01*
X112128065Y-84543410D01*
X112191138Y-84391138D01*
X112343410Y-84328065D01*
X112496549Y-84225741D01*
X112626783Y-84095507D01*
X112729107Y-83942368D01*
X112799589Y-83772208D01*
X112835521Y-83591568D01*
X112835521Y-83407390D01*
X112799589Y-83226750D01*
X112729107Y-83056590D01*
X112626783Y-82903451D01*
X112496549Y-82773217D01*
X112343410Y-82670893D01*
X112173250Y-82600411D01*
X111992610Y-82564479D01*
X111808432Y-82564479D01*
X111736444Y-82578798D01*
X111560000Y-82402355D01*
X111560000Y-80663360D01*
X130902462Y-80663360D01*
X130902462Y-81083918D01*
X130984509Y-81496395D01*
X131145450Y-81884941D01*
X131379099Y-82234622D01*
X131676479Y-82532002D01*
X132026160Y-82765651D01*
X132414706Y-82926592D01*
X132827183Y-83008639D01*
X133247741Y-83008639D01*
X133660218Y-82926592D01*
X134048764Y-82765651D01*
X134398445Y-82532002D01*
X134695825Y-82234622D01*
X134929474Y-81884941D01*
X135090415Y-81496395D01*
X135172462Y-81083918D01*
X135172462Y-80663360D01*
X135090415Y-80250883D01*
X134929474Y-79862337D01*
X134695825Y-79512656D01*
X134398445Y-79215276D01*
X134048764Y-78981627D01*
X133660218Y-78820686D01*
X133247741Y-78738639D01*
X132827183Y-78738639D01*
X132414706Y-78820686D01*
X132026160Y-78981627D01*
X131676479Y-79215276D01*
X131379099Y-79512656D01*
X131145450Y-79862337D01*
X130984509Y-80250883D01*
X130902462Y-80663360D01*
X111560000Y-80663360D01*
X111560000Y-78598540D01*
X111621028Y-78557762D01*
X111751262Y-78427528D01*
X111853586Y-78274389D01*
X111924068Y-78104229D01*
X111960000Y-77923589D01*
X111960000Y-77739411D01*
X111924068Y-77558771D01*
X111853586Y-77388611D01*
X111751262Y-77235472D01*
X111621028Y-77105238D01*
X111467889Y-77002914D01*
X111297729Y-76932432D01*
X111117089Y-76896500D01*
X110932911Y-76896500D01*
X110752271Y-76932432D01*
X110600000Y-76995504D01*
X110447729Y-76932432D01*
X110267089Y-76896500D01*
X110082911Y-76896500D01*
X109902271Y-76932432D01*
X109732111Y-77002914D01*
X109578972Y-77105238D01*
X109448738Y-77235472D01*
X109346414Y-77388611D01*
X109275932Y-77558771D01*
X109240000Y-77739411D01*
X105783351Y-77739411D01*
X105726262Y-77653972D01*
X105596028Y-77523738D01*
X105442889Y-77421414D01*
X105272729Y-77350932D01*
X105092089Y-77315000D01*
X104907911Y-77315000D01*
X104727271Y-77350932D01*
X104557111Y-77421414D01*
X104403972Y-77523738D01*
X104273738Y-77653972D01*
X104171414Y-77807111D01*
X104100932Y-77977271D01*
X104065000Y-78157911D01*
X104065000Y-78342089D01*
X104100932Y-78522729D01*
X104111000Y-78547036D01*
X104111001Y-80881763D01*
X103921560Y-81071205D01*
X103889345Y-81031951D01*
X103917205Y-80990256D01*
X103995226Y-80801898D01*
X104035000Y-80601939D01*
X104035000Y-80398061D01*
X103995226Y-80198102D01*
X103917205Y-80009744D01*
X103803937Y-79840226D01*
X103659774Y-79696063D01*
X103490256Y-79582795D01*
X103301898Y-79504774D01*
X103101939Y-79465000D01*
X102898061Y-79465000D01*
X102698102Y-79504774D01*
X102509744Y-79582795D01*
X102340226Y-79696063D01*
X102196063Y-79840226D01*
X102082795Y-80009744D01*
X102004774Y-80198102D01*
X101965000Y-80398061D01*
X101965000Y-80601939D01*
X102004774Y-80801898D01*
X102082795Y-80990256D01*
X102107029Y-81026525D01*
X100981482Y-82152073D01*
X100937867Y-82187867D01*
X100795032Y-82361912D01*
X100688897Y-82560478D01*
X100661055Y-82652260D01*
X100623788Y-82775114D01*
X100623539Y-82775934D01*
X100607000Y-82943855D01*
X100607000Y-82943861D01*
X100601471Y-83000000D01*
X100607000Y-83056139D01*
X100607001Y-85775253D01*
X100482532Y-85650784D01*
X100329393Y-85548460D01*
X100282095Y-85528869D01*
X100255749Y-85507247D01*
X100101309Y-85424697D01*
X99933732Y-85373864D01*
X99803125Y-85361000D01*
X99803118Y-85361000D01*
X99759458Y-85356700D01*
X99715798Y-85361000D01*
X97047036Y-85361000D01*
X97022729Y-85350932D01*
X96842089Y-85315000D01*
X96657911Y-85315000D01*
X96587500Y-85329006D01*
X96587500Y-75175659D01*
X128739966Y-75175659D01*
X128746785Y-75300557D01*
X128777839Y-75421724D01*
X129803899Y-78240802D01*
X129857996Y-78353584D01*
X129933055Y-78453644D01*
X130026193Y-78537139D01*
X130133830Y-78600859D01*
X130251830Y-78642355D01*
X130375659Y-78660034D01*
X130500557Y-78653215D01*
X130621724Y-78622161D01*
X133440802Y-77596101D01*
X133553584Y-77542004D01*
X133653644Y-77466945D01*
X133737139Y-77373807D01*
X133800859Y-77266170D01*
X133842355Y-77148170D01*
X133860034Y-77024341D01*
X133853215Y-76899443D01*
X133822161Y-76778276D01*
X132796101Y-73959198D01*
X132742004Y-73846416D01*
X132666945Y-73746356D01*
X132573807Y-73662861D01*
X132466170Y-73599141D01*
X132348170Y-73557645D01*
X132224341Y-73539966D01*
X132099443Y-73546785D01*
X131978276Y-73577839D01*
X129159198Y-74603899D01*
X129046416Y-74657996D01*
X128946356Y-74733055D01*
X128862861Y-74826193D01*
X128799141Y-74933830D01*
X128757645Y-75051830D01*
X128739966Y-75175659D01*
X96587500Y-75175659D01*
X96587500Y-71672658D01*
X96589550Y-71673754D01*
X96749498Y-71722274D01*
X96888793Y-71764529D01*
X96946639Y-71770226D01*
X97122013Y-71787499D01*
X97122019Y-71787499D01*
X97199998Y-71795179D01*
X97277977Y-71787499D01*
X122722022Y-71787499D01*
X122800001Y-71795179D01*
X122877980Y-71787499D01*
X122877987Y-71787499D01*
X123111205Y-71764529D01*
X123410450Y-71673754D01*
X123686236Y-71526344D01*
X123927964Y-71327962D01*
X123977681Y-71267382D01*
X124461614Y-70783449D01*
X124720777Y-70835000D01*
X125279223Y-70835000D01*
X125826939Y-70726052D01*
X126342876Y-70512344D01*
X126807207Y-70202088D01*
X127202088Y-69807207D01*
X127512344Y-69342876D01*
X127726052Y-68826939D01*
X127835000Y-68279223D01*
X127835000Y-67720777D01*
X127726052Y-67173061D01*
X127512344Y-66657124D01*
X127282236Y-66312744D01*
X127931837Y-66777493D01*
G36*
X112141683Y-60738271D02*
G01*
X114271938Y-60972666D01*
X116379401Y-61361934D01*
X118452828Y-61903998D01*
X119403108Y-62228189D01*
X119173061Y-62273948D01*
X118657124Y-62487656D01*
X118192793Y-62797912D01*
X117797912Y-63192793D01*
X117487656Y-63657124D01*
X117273948Y-64173061D01*
X117165000Y-64720777D01*
X117165000Y-65279223D01*
X117273948Y-65826939D01*
X117487656Y-66342876D01*
X117797912Y-66807207D01*
X118192793Y-67202088D01*
X118657124Y-67512344D01*
X119173061Y-67726052D01*
X119720777Y-67835000D01*
X120279223Y-67835000D01*
X120826939Y-67726052D01*
X121342876Y-67512344D01*
X121807207Y-67202088D01*
X122202088Y-66807207D01*
X122512344Y-66342876D01*
X122726052Y-65826939D01*
X122835000Y-65279223D01*
X122835000Y-64720777D01*
X122726052Y-64173061D01*
X122512344Y-63657124D01*
X122327588Y-63380617D01*
X122453560Y-63434149D01*
X124359520Y-64414070D01*
X125740218Y-65256698D01*
X125279223Y-65165000D01*
X124720777Y-65165000D01*
X124173061Y-65273948D01*
X123657124Y-65487656D01*
X123192793Y-65797912D01*
X122797912Y-66192793D01*
X122487656Y-66657124D01*
X122273948Y-67173061D01*
X122165000Y-67720777D01*
X122165000Y-68279223D01*
X122216551Y-68538386D01*
X122142438Y-68612499D01*
X97857563Y-68612499D01*
X97783449Y-68538385D01*
X97835000Y-68279223D01*
X97835000Y-67720777D01*
X97726052Y-67173061D01*
X97512344Y-66657124D01*
X97202088Y-66192793D01*
X96807207Y-65797912D01*
X96342876Y-65487656D01*
X95826939Y-65273948D01*
X95279223Y-65165000D01*
X94720777Y-65165000D01*
X94259782Y-65256698D01*
X95640480Y-64414070D01*
X97546440Y-63434149D01*
X97672412Y-63380617D01*
X97487656Y-63657124D01*
X97273948Y-64173061D01*
X97165000Y-64720777D01*
X97165000Y-65279223D01*
X97273948Y-65826939D01*
X97487656Y-66342876D01*
X97797912Y-66807207D01*
X98192793Y-67202088D01*
X98657124Y-67512344D01*
X99173061Y-67726052D01*
X99720777Y-67835000D01*
X100279223Y-67835000D01*
X100826939Y-67726052D01*
X101342876Y-67512344D01*
X101807207Y-67202088D01*
X102202088Y-66807207D01*
X102512344Y-66342876D01*
X102726052Y-65826939D01*
X102835000Y-65279223D01*
X102835000Y-64720777D01*
X102726052Y-64173061D01*
X102512344Y-63657124D01*
X102206617Y-63199570D01*
X102965000Y-63199570D01*
X102965000Y-63600430D01*
X103043204Y-63993587D01*
X103196607Y-64363934D01*
X103419313Y-64697237D01*
X103702763Y-64980687D01*
X104036066Y-65203393D01*
X104406413Y-65356796D01*
X104799570Y-65435000D01*
X105200430Y-65435000D01*
X105593587Y-65356796D01*
X105963934Y-65203393D01*
X106283635Y-64989775D01*
X108189830Y-64989775D01*
X108429976Y-65377018D01*
X108923877Y-65637641D01*
X109459133Y-65796901D01*
X110015174Y-65848678D01*
X110570632Y-65790981D01*
X111104161Y-65626028D01*
X111570024Y-65377018D01*
X111810170Y-64989775D01*
X110000000Y-63179605D01*
X108189830Y-64989775D01*
X106283635Y-64989775D01*
X106297237Y-64980687D01*
X106580687Y-64697237D01*
X106803393Y-64363934D01*
X106956796Y-63993587D01*
X107035000Y-63600430D01*
X107035000Y-63199570D01*
X106998322Y-63015174D01*
X107151322Y-63015174D01*
X107209019Y-63570632D01*
X107373972Y-64104161D01*
X107622982Y-64570024D01*
X108010225Y-64810170D01*
X109820395Y-63000000D01*
X110179605Y-63000000D01*
X111989775Y-64810170D01*
X112377018Y-64570024D01*
X112637641Y-64076123D01*
X112796901Y-63540867D01*
X112848678Y-62984826D01*
X112790981Y-62429368D01*
X112626028Y-61895839D01*
X112377018Y-61429976D01*
X111989775Y-61189830D01*
X110179605Y-63000000D01*
X109820395Y-63000000D01*
X108010225Y-61189830D01*
X107622982Y-61429976D01*
X107362359Y-61923877D01*
X107203099Y-62459133D01*
X107151322Y-63015174D01*
X106998322Y-63015174D01*
X106956796Y-62806413D01*
X106803393Y-62436066D01*
X106580687Y-62102763D01*
X106297237Y-61819313D01*
X105963934Y-61596607D01*
X105593587Y-61443204D01*
X105200430Y-61365000D01*
X104799570Y-61365000D01*
X104406413Y-61443204D01*
X104036066Y-61596607D01*
X103702763Y-61819313D01*
X103419313Y-62102763D01*
X103196607Y-62436066D01*
X103043204Y-62806413D01*
X102965000Y-63199570D01*
X102206617Y-63199570D01*
X102202088Y-63192793D01*
X101807207Y-62797912D01*
X101342876Y-62487656D01*
X100826939Y-62273948D01*
X100596892Y-62228189D01*
X101547172Y-61903998D01*
X103620599Y-61361934D01*
X105728062Y-60972666D01*
X107858317Y-60738271D01*
X108370079Y-60719568D01*
X108189830Y-61010225D01*
X110000000Y-62820395D01*
X111810170Y-61010225D01*
X111629921Y-60719568D01*
X112141683Y-60738271D01*
G37*
X112141683Y-60738271D02*
X114271938Y-60972666D01*
X116379401Y-61361934D01*
X118452828Y-61903998D01*
X119403108Y-62228189D01*
X119173061Y-62273948D01*
X118657124Y-62487656D01*
X118192793Y-62797912D01*
X117797912Y-63192793D01*
X117487656Y-63657124D01*
X117273948Y-64173061D01*
X117165000Y-64720777D01*
X117165000Y-65279223D01*
X117273948Y-65826939D01*
X117487656Y-66342876D01*
X117797912Y-66807207D01*
X118192793Y-67202088D01*
X118657124Y-67512344D01*
X119173061Y-67726052D01*
X119720777Y-67835000D01*
X120279223Y-67835000D01*
X120826939Y-67726052D01*
X121342876Y-67512344D01*
X121807207Y-67202088D01*
X122202088Y-66807207D01*
X122512344Y-66342876D01*
X122726052Y-65826939D01*
X122835000Y-65279223D01*
X122835000Y-64720777D01*
X122726052Y-64173061D01*
X122512344Y-63657124D01*
X122327588Y-63380617D01*
X122453560Y-63434149D01*
X124359520Y-64414070D01*
X125740218Y-65256698D01*
X125279223Y-65165000D01*
X124720777Y-65165000D01*
X124173061Y-65273948D01*
X123657124Y-65487656D01*
X123192793Y-65797912D01*
X122797912Y-66192793D01*
X122487656Y-66657124D01*
X122273948Y-67173061D01*
X122165000Y-67720777D01*
X122165000Y-68279223D01*
X122216551Y-68538386D01*
X122142438Y-68612499D01*
X97857563Y-68612499D01*
X97783449Y-68538385D01*
X97835000Y-68279223D01*
X97835000Y-67720777D01*
X97726052Y-67173061D01*
X97512344Y-66657124D01*
X97202088Y-66192793D01*
X96807207Y-65797912D01*
X96342876Y-65487656D01*
X95826939Y-65273948D01*
X95279223Y-65165000D01*
X94720777Y-65165000D01*
X94259782Y-65256698D01*
X95640480Y-64414070D01*
X97546440Y-63434149D01*
X97672412Y-63380617D01*
X97487656Y-63657124D01*
X97273948Y-64173061D01*
X97165000Y-64720777D01*
X97165000Y-65279223D01*
X97273948Y-65826939D01*
X97487656Y-66342876D01*
X97797912Y-66807207D01*
X98192793Y-67202088D01*
X98657124Y-67512344D01*
X99173061Y-67726052D01*
X99720777Y-67835000D01*
X100279223Y-67835000D01*
X100826939Y-67726052D01*
X101342876Y-67512344D01*
X101807207Y-67202088D01*
X102202088Y-66807207D01*
X102512344Y-66342876D01*
X102726052Y-65826939D01*
X102835000Y-65279223D01*
X102835000Y-64720777D01*
X102726052Y-64173061D01*
X102512344Y-63657124D01*
X102206617Y-63199570D01*
X102965000Y-63199570D01*
X102965000Y-63600430D01*
X103043204Y-63993587D01*
X103196607Y-64363934D01*
X103419313Y-64697237D01*
X103702763Y-64980687D01*
X104036066Y-65203393D01*
X104406413Y-65356796D01*
X104799570Y-65435000D01*
X105200430Y-65435000D01*
X105593587Y-65356796D01*
X105963934Y-65203393D01*
X106283635Y-64989775D01*
X108189830Y-64989775D01*
X108429976Y-65377018D01*
X108923877Y-65637641D01*
X109459133Y-65796901D01*
X110015174Y-65848678D01*
X110570632Y-65790981D01*
X111104161Y-65626028D01*
X111570024Y-65377018D01*
X111810170Y-64989775D01*
X110000000Y-63179605D01*
X108189830Y-64989775D01*
X106283635Y-64989775D01*
X106297237Y-64980687D01*
X106580687Y-64697237D01*
X106803393Y-64363934D01*
X106956796Y-63993587D01*
X107035000Y-63600430D01*
X107035000Y-63199570D01*
X106998322Y-63015174D01*
X107151322Y-63015174D01*
X107209019Y-63570632D01*
X107373972Y-64104161D01*
X107622982Y-64570024D01*
X108010225Y-64810170D01*
X109820395Y-63000000D01*
X110179605Y-63000000D01*
X111989775Y-64810170D01*
X112377018Y-64570024D01*
X112637641Y-64076123D01*
X112796901Y-63540867D01*
X112848678Y-62984826D01*
X112790981Y-62429368D01*
X112626028Y-61895839D01*
X112377018Y-61429976D01*
X111989775Y-61189830D01*
X110179605Y-63000000D01*
X109820395Y-63000000D01*
X108010225Y-61189830D01*
X107622982Y-61429976D01*
X107362359Y-61923877D01*
X107203099Y-62459133D01*
X107151322Y-63015174D01*
X106998322Y-63015174D01*
X106956796Y-62806413D01*
X106803393Y-62436066D01*
X106580687Y-62102763D01*
X106297237Y-61819313D01*
X105963934Y-61596607D01*
X105593587Y-61443204D01*
X105200430Y-61365000D01*
X104799570Y-61365000D01*
X104406413Y-61443204D01*
X104036066Y-61596607D01*
X103702763Y-61819313D01*
X103419313Y-62102763D01*
X103196607Y-62436066D01*
X103043204Y-62806413D01*
X102965000Y-63199570D01*
X102206617Y-63199570D01*
X102202088Y-63192793D01*
X101807207Y-62797912D01*
X101342876Y-62487656D01*
X100826939Y-62273948D01*
X100596892Y-62228189D01*
X101547172Y-61903998D01*
X103620599Y-61361934D01*
X105728062Y-60972666D01*
X107858317Y-60738271D01*
X108370079Y-60719568D01*
X108189830Y-61010225D01*
X110000000Y-62820395D01*
X111810170Y-61010225D01*
X111629921Y-60719568D01*
X112141683Y-60738271D01*
%TD*%
M02*
