%TF.GenerationSoftware,KiCad,Pcbnew,(5.1.6)-1*%
%TF.CreationDate,2020-12-16T03:52:29+01:00*%
%TF.ProjectId,bms,626d732e-6b69-4636-9164-5f7063625858,rev?*%
%TF.SameCoordinates,Original*%
%TF.FileFunction,Paste,Top*%
%TF.FilePolarity,Positive*%
%FSLAX46Y46*%
G04 Gerber Fmt 4.6, Leading zero omitted, Abs format (unit mm)*
G04 Created by KiCad (PCBNEW (5.1.6)-1) date 2020-12-16 03:52:29*
%MOMM*%
%LPD*%
G01*
G04 APERTURE LIST*
%ADD10C,0.750000*%
%ADD11R,0.800000X0.300000*%
G04 APERTURE END LIST*
%TO.C,C7*%
G36*
G01*
X125250000Y-84550000D02*
X124150000Y-84550000D01*
G75*
G02*
X123900000Y-84300000I0J250000D01*
G01*
X123900000Y-81300000D01*
G75*
G02*
X124150000Y-81050000I250000J0D01*
G01*
X125250000Y-81050000D01*
G75*
G02*
X125500000Y-81300000I0J-250000D01*
G01*
X125500000Y-84300000D01*
G75*
G02*
X125250000Y-84550000I-250000J0D01*
G01*
G37*
G36*
G01*
X125250000Y-89950000D02*
X124150000Y-89950000D01*
G75*
G02*
X123900000Y-89700000I0J250000D01*
G01*
X123900000Y-86700000D01*
G75*
G02*
X124150000Y-86450000I250000J0D01*
G01*
X125250000Y-86450000D01*
G75*
G02*
X125500000Y-86700000I0J-250000D01*
G01*
X125500000Y-89700000D01*
G75*
G02*
X125250000Y-89950000I-250000J0D01*
G01*
G37*
%TD*%
%TO.C,C8*%
G36*
G01*
X126750000Y-99850000D02*
X127850000Y-99850000D01*
G75*
G02*
X128100000Y-100100000I0J-250000D01*
G01*
X128100000Y-103100000D01*
G75*
G02*
X127850000Y-103350000I-250000J0D01*
G01*
X126750000Y-103350000D01*
G75*
G02*
X126500000Y-103100000I0J250000D01*
G01*
X126500000Y-100100000D01*
G75*
G02*
X126750000Y-99850000I250000J0D01*
G01*
G37*
G36*
G01*
X126750000Y-105250000D02*
X127850000Y-105250000D01*
G75*
G02*
X128100000Y-105500000I0J-250000D01*
G01*
X128100000Y-108500000D01*
G75*
G02*
X127850000Y-108750000I-250000J0D01*
G01*
X126750000Y-108750000D01*
G75*
G02*
X126500000Y-108500000I0J250000D01*
G01*
X126500000Y-105500000D01*
G75*
G02*
X126750000Y-105250000I250000J0D01*
G01*
G37*
%TD*%
%TO.C,C10*%
G36*
G01*
X122475000Y-93250001D02*
X122475000Y-92349999D01*
G75*
G02*
X122724999Y-92100000I249999J0D01*
G01*
X123375001Y-92100000D01*
G75*
G02*
X123625000Y-92349999I0J-249999D01*
G01*
X123625000Y-93250001D01*
G75*
G02*
X123375001Y-93500000I-249999J0D01*
G01*
X122724999Y-93500000D01*
G75*
G02*
X122475000Y-93250001I0J249999D01*
G01*
G37*
G36*
G01*
X120425000Y-93250001D02*
X120425000Y-92349999D01*
G75*
G02*
X120674999Y-92100000I249999J0D01*
G01*
X121325001Y-92100000D01*
G75*
G02*
X121575000Y-92349999I0J-249999D01*
G01*
X121575000Y-93250001D01*
G75*
G02*
X121325001Y-93500000I-249999J0D01*
G01*
X120674999Y-93500000D01*
G75*
G02*
X120425000Y-93250001I0J249999D01*
G01*
G37*
%TD*%
%TO.C,C14*%
G36*
G01*
X110204500Y-83915499D02*
X110204500Y-84815501D01*
G75*
G02*
X109954501Y-85065500I-249999J0D01*
G01*
X109304499Y-85065500D01*
G75*
G02*
X109054500Y-84815501I0J249999D01*
G01*
X109054500Y-83915499D01*
G75*
G02*
X109304499Y-83665500I249999J0D01*
G01*
X109954501Y-83665500D01*
G75*
G02*
X110204500Y-83915499I0J-249999D01*
G01*
G37*
G36*
G01*
X108154500Y-83915499D02*
X108154500Y-84815501D01*
G75*
G02*
X107904501Y-85065500I-249999J0D01*
G01*
X107254499Y-85065500D01*
G75*
G02*
X107004500Y-84815501I0J249999D01*
G01*
X107004500Y-83915499D01*
G75*
G02*
X107254499Y-83665500I249999J0D01*
G01*
X107904501Y-83665500D01*
G75*
G02*
X108154500Y-83915499I0J-249999D01*
G01*
G37*
%TD*%
%TO.C,C9*%
G36*
G01*
X115175000Y-87650001D02*
X115175000Y-86749999D01*
G75*
G02*
X115424999Y-86500000I249999J0D01*
G01*
X116075001Y-86500000D01*
G75*
G02*
X116325000Y-86749999I0J-249999D01*
G01*
X116325000Y-87650001D01*
G75*
G02*
X116075001Y-87900000I-249999J0D01*
G01*
X115424999Y-87900000D01*
G75*
G02*
X115175000Y-87650001I0J249999D01*
G01*
G37*
G36*
G01*
X117225000Y-87650001D02*
X117225000Y-86749999D01*
G75*
G02*
X117474999Y-86500000I249999J0D01*
G01*
X118125001Y-86500000D01*
G75*
G02*
X118375000Y-86749999I0J-249999D01*
G01*
X118375000Y-87650001D01*
G75*
G02*
X118125001Y-87900000I-249999J0D01*
G01*
X117474999Y-87900000D01*
G75*
G02*
X117225000Y-87650001I0J249999D01*
G01*
G37*
%TD*%
%TO.C,R21*%
G36*
G01*
X117125000Y-85617501D02*
X117125000Y-84717499D01*
G75*
G02*
X117374999Y-84467500I249999J0D01*
G01*
X118025001Y-84467500D01*
G75*
G02*
X118275000Y-84717499I0J-249999D01*
G01*
X118275000Y-85617501D01*
G75*
G02*
X118025001Y-85867500I-249999J0D01*
G01*
X117374999Y-85867500D01*
G75*
G02*
X117125000Y-85617501I0J249999D01*
G01*
G37*
G36*
G01*
X119175000Y-85617501D02*
X119175000Y-84717499D01*
G75*
G02*
X119424999Y-84467500I249999J0D01*
G01*
X120075001Y-84467500D01*
G75*
G02*
X120325000Y-84717499I0J-249999D01*
G01*
X120325000Y-85617501D01*
G75*
G02*
X120075001Y-85867500I-249999J0D01*
G01*
X119424999Y-85867500D01*
G75*
G02*
X119175000Y-85617501I0J249999D01*
G01*
G37*
%TD*%
%TO.C,R17*%
G36*
G01*
X113180000Y-83481001D02*
X113180000Y-80630999D01*
G75*
G02*
X113429999Y-80381000I249999J0D01*
G01*
X114280001Y-80381000D01*
G75*
G02*
X114530000Y-80630999I0J-249999D01*
G01*
X114530000Y-83481001D01*
G75*
G02*
X114280001Y-83731000I-249999J0D01*
G01*
X113429999Y-83731000D01*
G75*
G02*
X113180000Y-83481001I0J249999D01*
G01*
G37*
G36*
G01*
X118980000Y-83481001D02*
X118980000Y-80630999D01*
G75*
G02*
X119229999Y-80381000I249999J0D01*
G01*
X120080001Y-80381000D01*
G75*
G02*
X120330000Y-80630999I0J-249999D01*
G01*
X120330000Y-83481001D01*
G75*
G02*
X120080001Y-83731000I-249999J0D01*
G01*
X119229999Y-83731000D01*
G75*
G02*
X118980000Y-83481001I0J249999D01*
G01*
G37*
%TD*%
%TO.C,R20*%
G36*
G01*
X114375000Y-84717499D02*
X114375000Y-85617501D01*
G75*
G02*
X114125001Y-85867500I-249999J0D01*
G01*
X113474999Y-85867500D01*
G75*
G02*
X113225000Y-85617501I0J249999D01*
G01*
X113225000Y-84717499D01*
G75*
G02*
X113474999Y-84467500I249999J0D01*
G01*
X114125001Y-84467500D01*
G75*
G02*
X114375000Y-84717499I0J-249999D01*
G01*
G37*
G36*
G01*
X116425000Y-84717499D02*
X116425000Y-85617501D01*
G75*
G02*
X116175001Y-85867500I-249999J0D01*
G01*
X115524999Y-85867500D01*
G75*
G02*
X115275000Y-85617501I0J249999D01*
G01*
X115275000Y-84717499D01*
G75*
G02*
X115524999Y-84467500I249999J0D01*
G01*
X116175001Y-84467500D01*
G75*
G02*
X116425000Y-84717499I0J-249999D01*
G01*
G37*
%TD*%
%TO.C,R23*%
G36*
G01*
X122425000Y-95250001D02*
X122425000Y-94349999D01*
G75*
G02*
X122674999Y-94100000I249999J0D01*
G01*
X123325001Y-94100000D01*
G75*
G02*
X123575000Y-94349999I0J-249999D01*
G01*
X123575000Y-95250001D01*
G75*
G02*
X123325001Y-95500000I-249999J0D01*
G01*
X122674999Y-95500000D01*
G75*
G02*
X122425000Y-95250001I0J249999D01*
G01*
G37*
G36*
G01*
X124475000Y-95250001D02*
X124475000Y-94349999D01*
G75*
G02*
X124724999Y-94100000I249999J0D01*
G01*
X125375001Y-94100000D01*
G75*
G02*
X125625000Y-94349999I0J-249999D01*
G01*
X125625000Y-95250001D01*
G75*
G02*
X125375001Y-95500000I-249999J0D01*
G01*
X124724999Y-95500000D01*
G75*
G02*
X124475000Y-95250001I0J249999D01*
G01*
G37*
%TD*%
%TO.C,R22*%
G36*
G01*
X121725000Y-94349999D02*
X121725000Y-95250001D01*
G75*
G02*
X121475001Y-95500000I-249999J0D01*
G01*
X120824999Y-95500000D01*
G75*
G02*
X120575000Y-95250001I0J249999D01*
G01*
X120575000Y-94349999D01*
G75*
G02*
X120824999Y-94100000I249999J0D01*
G01*
X121475001Y-94100000D01*
G75*
G02*
X121725000Y-94349999I0J-249999D01*
G01*
G37*
G36*
G01*
X119675000Y-94349999D02*
X119675000Y-95250001D01*
G75*
G02*
X119425001Y-95500000I-249999J0D01*
G01*
X118774999Y-95500000D01*
G75*
G02*
X118525000Y-95250001I0J249999D01*
G01*
X118525000Y-94349999D01*
G75*
G02*
X118774999Y-94100000I249999J0D01*
G01*
X119425001Y-94100000D01*
G75*
G02*
X119675000Y-94349999I0J-249999D01*
G01*
G37*
%TD*%
%TO.C,VALID*%
G36*
G01*
X108273000Y-113826500D02*
X108273000Y-113351500D01*
G75*
G02*
X108510500Y-113114000I237500J0D01*
G01*
X109085500Y-113114000D01*
G75*
G02*
X109323000Y-113351500I0J-237500D01*
G01*
X109323000Y-113826500D01*
G75*
G02*
X109085500Y-114064000I-237500J0D01*
G01*
X108510500Y-114064000D01*
G75*
G02*
X108273000Y-113826500I0J237500D01*
G01*
G37*
G36*
G01*
X110023000Y-113826500D02*
X110023000Y-113351500D01*
G75*
G02*
X110260500Y-113114000I237500J0D01*
G01*
X110835500Y-113114000D01*
G75*
G02*
X111073000Y-113351500I0J-237500D01*
G01*
X111073000Y-113826500D01*
G75*
G02*
X110835500Y-114064000I-237500J0D01*
G01*
X110260500Y-114064000D01*
G75*
G02*
X110023000Y-113826500I0J237500D01*
G01*
G37*
%TD*%
%TO.C,F2*%
G36*
G01*
X111004500Y-88688000D02*
X111004500Y-90838000D01*
G75*
G02*
X110754500Y-91088000I-250000J0D01*
G01*
X110004500Y-91088000D01*
G75*
G02*
X109754500Y-90838000I0J250000D01*
G01*
X109754500Y-88688000D01*
G75*
G02*
X110004500Y-88438000I250000J0D01*
G01*
X110754500Y-88438000D01*
G75*
G02*
X111004500Y-88688000I0J-250000D01*
G01*
G37*
G36*
G01*
X108204500Y-88688000D02*
X108204500Y-90838000D01*
G75*
G02*
X107954500Y-91088000I-250000J0D01*
G01*
X107204500Y-91088000D01*
G75*
G02*
X106954500Y-90838000I0J250000D01*
G01*
X106954500Y-88688000D01*
G75*
G02*
X107204500Y-88438000I250000J0D01*
G01*
X107954500Y-88438000D01*
G75*
G02*
X108204500Y-88688000I0J-250000D01*
G01*
G37*
%TD*%
%TO.C,WARN*%
G36*
G01*
X108273000Y-115604500D02*
X108273000Y-115129500D01*
G75*
G02*
X108510500Y-114892000I237500J0D01*
G01*
X109085500Y-114892000D01*
G75*
G02*
X109323000Y-115129500I0J-237500D01*
G01*
X109323000Y-115604500D01*
G75*
G02*
X109085500Y-115842000I-237500J0D01*
G01*
X108510500Y-115842000D01*
G75*
G02*
X108273000Y-115604500I0J237500D01*
G01*
G37*
G36*
G01*
X110023000Y-115604500D02*
X110023000Y-115129500D01*
G75*
G02*
X110260500Y-114892000I237500J0D01*
G01*
X110835500Y-114892000D01*
G75*
G02*
X111073000Y-115129500I0J-237500D01*
G01*
X111073000Y-115604500D01*
G75*
G02*
X110835500Y-115842000I-237500J0D01*
G01*
X110260500Y-115842000D01*
G75*
G02*
X110023000Y-115604500I0J237500D01*
G01*
G37*
%TD*%
%TO.C,C15*%
G36*
G01*
X108136500Y-86709499D02*
X108136500Y-87609501D01*
G75*
G02*
X107886501Y-87859500I-249999J0D01*
G01*
X107236499Y-87859500D01*
G75*
G02*
X106986500Y-87609501I0J249999D01*
G01*
X106986500Y-86709499D01*
G75*
G02*
X107236499Y-86459500I249999J0D01*
G01*
X107886501Y-86459500D01*
G75*
G02*
X108136500Y-86709499I0J-249999D01*
G01*
G37*
G36*
G01*
X110186500Y-86709499D02*
X110186500Y-87609501D01*
G75*
G02*
X109936501Y-87859500I-249999J0D01*
G01*
X109286499Y-87859500D01*
G75*
G02*
X109036500Y-87609501I0J249999D01*
G01*
X109036500Y-86709499D01*
G75*
G02*
X109286499Y-86459500I249999J0D01*
G01*
X109936501Y-86459500D01*
G75*
G02*
X110186500Y-86709499I0J-249999D01*
G01*
G37*
%TD*%
%TO.C,CRIT*%
G36*
G01*
X110009000Y-117382500D02*
X110009000Y-116907500D01*
G75*
G02*
X110246500Y-116670000I237500J0D01*
G01*
X110821500Y-116670000D01*
G75*
G02*
X111059000Y-116907500I0J-237500D01*
G01*
X111059000Y-117382500D01*
G75*
G02*
X110821500Y-117620000I-237500J0D01*
G01*
X110246500Y-117620000D01*
G75*
G02*
X110009000Y-117382500I0J237500D01*
G01*
G37*
G36*
G01*
X108259000Y-117382500D02*
X108259000Y-116907500D01*
G75*
G02*
X108496500Y-116670000I237500J0D01*
G01*
X109071500Y-116670000D01*
G75*
G02*
X109309000Y-116907500I0J-237500D01*
G01*
X109309000Y-117382500D01*
G75*
G02*
X109071500Y-117620000I-237500J0D01*
G01*
X108496500Y-117620000D01*
G75*
G02*
X108259000Y-117382500I0J237500D01*
G01*
G37*
%TD*%
%TO.C,F1*%
G36*
G01*
X108204500Y-80687000D02*
X108204500Y-82837000D01*
G75*
G02*
X107954500Y-83087000I-250000J0D01*
G01*
X107204500Y-83087000D01*
G75*
G02*
X106954500Y-82837000I0J250000D01*
G01*
X106954500Y-80687000D01*
G75*
G02*
X107204500Y-80437000I250000J0D01*
G01*
X107954500Y-80437000D01*
G75*
G02*
X108204500Y-80687000I0J-250000D01*
G01*
G37*
G36*
G01*
X111004500Y-80687000D02*
X111004500Y-82837000D01*
G75*
G02*
X110754500Y-83087000I-250000J0D01*
G01*
X110004500Y-83087000D01*
G75*
G02*
X109754500Y-82837000I0J250000D01*
G01*
X109754500Y-80687000D01*
G75*
G02*
X110004500Y-80437000I250000J0D01*
G01*
X110754500Y-80437000D01*
G75*
G02*
X111004500Y-80687000I0J-250000D01*
G01*
G37*
%TD*%
%TO.C,C12*%
G36*
G01*
X103553000Y-79027000D02*
X103553000Y-79502000D01*
G75*
G02*
X103315500Y-79739500I-237500J0D01*
G01*
X102740500Y-79739500D01*
G75*
G02*
X102503000Y-79502000I0J237500D01*
G01*
X102503000Y-79027000D01*
G75*
G02*
X102740500Y-78789500I237500J0D01*
G01*
X103315500Y-78789500D01*
G75*
G02*
X103553000Y-79027000I0J-237500D01*
G01*
G37*
G36*
G01*
X101803000Y-79027000D02*
X101803000Y-79502000D01*
G75*
G02*
X101565500Y-79739500I-237500J0D01*
G01*
X100990500Y-79739500D01*
G75*
G02*
X100753000Y-79502000I0J237500D01*
G01*
X100753000Y-79027000D01*
G75*
G02*
X100990500Y-78789500I237500J0D01*
G01*
X101565500Y-78789500D01*
G75*
G02*
X101803000Y-79027000I0J-237500D01*
G01*
G37*
%TD*%
%TO.C,R19*%
G36*
G01*
X116529999Y-71852500D02*
X119380001Y-71852500D01*
G75*
G02*
X119630000Y-72102499I0J-249999D01*
G01*
X119630000Y-72952501D01*
G75*
G02*
X119380001Y-73202500I-249999J0D01*
G01*
X116529999Y-73202500D01*
G75*
G02*
X116280000Y-72952501I0J249999D01*
G01*
X116280000Y-72102499D01*
G75*
G02*
X116529999Y-71852500I249999J0D01*
G01*
G37*
G36*
G01*
X116529999Y-77652500D02*
X119380001Y-77652500D01*
G75*
G02*
X119630000Y-77902499I0J-249999D01*
G01*
X119630000Y-78752501D01*
G75*
G02*
X119380001Y-79002500I-249999J0D01*
G01*
X116529999Y-79002500D01*
G75*
G02*
X116280000Y-78752501I0J249999D01*
G01*
X116280000Y-77902499D01*
G75*
G02*
X116529999Y-77652500I249999J0D01*
G01*
G37*
%TD*%
%TO.C,R29*%
G36*
G01*
X97475000Y-79862500D02*
X97475000Y-80337500D01*
G75*
G02*
X97237500Y-80575000I-237500J0D01*
G01*
X96662500Y-80575000D01*
G75*
G02*
X96425000Y-80337500I0J237500D01*
G01*
X96425000Y-79862500D01*
G75*
G02*
X96662500Y-79625000I237500J0D01*
G01*
X97237500Y-79625000D01*
G75*
G02*
X97475000Y-79862500I0J-237500D01*
G01*
G37*
G36*
G01*
X99225000Y-79862500D02*
X99225000Y-80337500D01*
G75*
G02*
X98987500Y-80575000I-237500J0D01*
G01*
X98412500Y-80575000D01*
G75*
G02*
X98175000Y-80337500I0J237500D01*
G01*
X98175000Y-79862500D01*
G75*
G02*
X98412500Y-79625000I237500J0D01*
G01*
X98987500Y-79625000D01*
G75*
G02*
X99225000Y-79862500I0J-237500D01*
G01*
G37*
%TD*%
%TO.C,R27*%
G36*
G01*
X95737500Y-88525000D02*
X95262500Y-88525000D01*
G75*
G02*
X95025000Y-88287500I0J237500D01*
G01*
X95025000Y-87712500D01*
G75*
G02*
X95262500Y-87475000I237500J0D01*
G01*
X95737500Y-87475000D01*
G75*
G02*
X95975000Y-87712500I0J-237500D01*
G01*
X95975000Y-88287500D01*
G75*
G02*
X95737500Y-88525000I-237500J0D01*
G01*
G37*
G36*
G01*
X95737500Y-86775000D02*
X95262500Y-86775000D01*
G75*
G02*
X95025000Y-86537500I0J237500D01*
G01*
X95025000Y-85962500D01*
G75*
G02*
X95262500Y-85725000I237500J0D01*
G01*
X95737500Y-85725000D01*
G75*
G02*
X95975000Y-85962500I0J-237500D01*
G01*
X95975000Y-86537500D01*
G75*
G02*
X95737500Y-86775000I-237500J0D01*
G01*
G37*
%TD*%
D10*
%TO.C,U5*%
X104290000Y-88290000D03*
X104290000Y-87020000D03*
X104290000Y-85750000D03*
X104290000Y-84480000D03*
X104290000Y-83210000D03*
X103020000Y-88290000D03*
X103020000Y-87020000D03*
X103020000Y-85750000D03*
X103020000Y-84480000D03*
X103020000Y-83210000D03*
X101750000Y-88290000D03*
X101750000Y-87020000D03*
X101750000Y-85750000D03*
X101750000Y-84480000D03*
X101750000Y-83210000D03*
X100480000Y-88290000D03*
X100480000Y-87020000D03*
X100480000Y-85750000D03*
X100480000Y-84480000D03*
X100480000Y-83210000D03*
X99210000Y-88290000D03*
X99210000Y-87020000D03*
X99210000Y-85750000D03*
X99210000Y-84480000D03*
X99210000Y-83210000D03*
%TD*%
%TO.C,R28*%
G36*
G01*
X99975000Y-92537500D02*
X99975000Y-92062500D01*
G75*
G02*
X100212500Y-91825000I237500J0D01*
G01*
X100787500Y-91825000D01*
G75*
G02*
X101025000Y-92062500I0J-237500D01*
G01*
X101025000Y-92537500D01*
G75*
G02*
X100787500Y-92775000I-237500J0D01*
G01*
X100212500Y-92775000D01*
G75*
G02*
X99975000Y-92537500I0J237500D01*
G01*
G37*
G36*
G01*
X101725000Y-92537500D02*
X101725000Y-92062500D01*
G75*
G02*
X101962500Y-91825000I237500J0D01*
G01*
X102537500Y-91825000D01*
G75*
G02*
X102775000Y-92062500I0J-237500D01*
G01*
X102775000Y-92537500D01*
G75*
G02*
X102537500Y-92775000I-237500J0D01*
G01*
X101962500Y-92775000D01*
G75*
G02*
X101725000Y-92537500I0J237500D01*
G01*
G37*
%TD*%
%TO.C,R26*%
G36*
G01*
X102503000Y-77851000D02*
X102503000Y-77376000D01*
G75*
G02*
X102740500Y-77138500I237500J0D01*
G01*
X103315500Y-77138500D01*
G75*
G02*
X103553000Y-77376000I0J-237500D01*
G01*
X103553000Y-77851000D01*
G75*
G02*
X103315500Y-78088500I-237500J0D01*
G01*
X102740500Y-78088500D01*
G75*
G02*
X102503000Y-77851000I0J237500D01*
G01*
G37*
G36*
G01*
X100753000Y-77851000D02*
X100753000Y-77376000D01*
G75*
G02*
X100990500Y-77138500I237500J0D01*
G01*
X101565500Y-77138500D01*
G75*
G02*
X101803000Y-77376000I0J-237500D01*
G01*
X101803000Y-77851000D01*
G75*
G02*
X101565500Y-78088500I-237500J0D01*
G01*
X100990500Y-78088500D01*
G75*
G02*
X100753000Y-77851000I0J237500D01*
G01*
G37*
%TD*%
%TO.C,R18*%
G36*
G01*
X124267000Y-99319001D02*
X124267000Y-96468999D01*
G75*
G02*
X124516999Y-96219000I249999J0D01*
G01*
X125367001Y-96219000D01*
G75*
G02*
X125617000Y-96468999I0J-249999D01*
G01*
X125617000Y-99319001D01*
G75*
G02*
X125367001Y-99569000I-249999J0D01*
G01*
X124516999Y-99569000D01*
G75*
G02*
X124267000Y-99319001I0J249999D01*
G01*
G37*
G36*
G01*
X118467000Y-99319001D02*
X118467000Y-96468999D01*
G75*
G02*
X118716999Y-96219000I249999J0D01*
G01*
X119567001Y-96219000D01*
G75*
G02*
X119817000Y-96468999I0J-249999D01*
G01*
X119817000Y-99319001D01*
G75*
G02*
X119567001Y-99569000I-249999J0D01*
G01*
X118716999Y-99569000D01*
G75*
G02*
X118467000Y-99319001I0J249999D01*
G01*
G37*
%TD*%
%TO.C,R30*%
G36*
G01*
X111829000Y-117382500D02*
X111829000Y-116907500D01*
G75*
G02*
X112066500Y-116670000I237500J0D01*
G01*
X112641500Y-116670000D01*
G75*
G02*
X112879000Y-116907500I0J-237500D01*
G01*
X112879000Y-117382500D01*
G75*
G02*
X112641500Y-117620000I-237500J0D01*
G01*
X112066500Y-117620000D01*
G75*
G02*
X111829000Y-117382500I0J237500D01*
G01*
G37*
G36*
G01*
X113579000Y-117382500D02*
X113579000Y-116907500D01*
G75*
G02*
X113816500Y-116670000I237500J0D01*
G01*
X114391500Y-116670000D01*
G75*
G02*
X114629000Y-116907500I0J-237500D01*
G01*
X114629000Y-117382500D01*
G75*
G02*
X114391500Y-117620000I-237500J0D01*
G01*
X113816500Y-117620000D01*
G75*
G02*
X113579000Y-117382500I0J237500D01*
G01*
G37*
%TD*%
D11*
%TO.C,U7*%
X118450000Y-101650000D03*
X118450000Y-102150000D03*
X118450000Y-102650000D03*
X118450000Y-103150000D03*
X121550000Y-103150000D03*
X121550000Y-102650000D03*
X121550000Y-102150000D03*
X121550000Y-101650000D03*
%TD*%
%TO.C,R32*%
G36*
G01*
X113579000Y-113826500D02*
X113579000Y-113351500D01*
G75*
G02*
X113816500Y-113114000I237500J0D01*
G01*
X114391500Y-113114000D01*
G75*
G02*
X114629000Y-113351500I0J-237500D01*
G01*
X114629000Y-113826500D01*
G75*
G02*
X114391500Y-114064000I-237500J0D01*
G01*
X113816500Y-114064000D01*
G75*
G02*
X113579000Y-113826500I0J237500D01*
G01*
G37*
G36*
G01*
X111829000Y-113826500D02*
X111829000Y-113351500D01*
G75*
G02*
X112066500Y-113114000I237500J0D01*
G01*
X112641500Y-113114000D01*
G75*
G02*
X112879000Y-113351500I0J-237500D01*
G01*
X112879000Y-113826500D01*
G75*
G02*
X112641500Y-114064000I-237500J0D01*
G01*
X112066500Y-114064000D01*
G75*
G02*
X111829000Y-113826500I0J237500D01*
G01*
G37*
%TD*%
%TO.C,R31*%
G36*
G01*
X113579000Y-115604500D02*
X113579000Y-115129500D01*
G75*
G02*
X113816500Y-114892000I237500J0D01*
G01*
X114391500Y-114892000D01*
G75*
G02*
X114629000Y-115129500I0J-237500D01*
G01*
X114629000Y-115604500D01*
G75*
G02*
X114391500Y-115842000I-237500J0D01*
G01*
X113816500Y-115842000D01*
G75*
G02*
X113579000Y-115604500I0J237500D01*
G01*
G37*
G36*
G01*
X111829000Y-115604500D02*
X111829000Y-115129500D01*
G75*
G02*
X112066500Y-114892000I237500J0D01*
G01*
X112641500Y-114892000D01*
G75*
G02*
X112879000Y-115129500I0J-237500D01*
G01*
X112879000Y-115604500D01*
G75*
G02*
X112641500Y-115842000I-237500J0D01*
G01*
X112066500Y-115842000D01*
G75*
G02*
X111829000Y-115604500I0J237500D01*
G01*
G37*
%TD*%
%TO.C,C11*%
G36*
G01*
X111916999Y-73861000D02*
X112817001Y-73861000D01*
G75*
G02*
X113067000Y-74110999I0J-249999D01*
G01*
X113067000Y-74761001D01*
G75*
G02*
X112817001Y-75011000I-249999J0D01*
G01*
X111916999Y-75011000D01*
G75*
G02*
X111667000Y-74761001I0J249999D01*
G01*
X111667000Y-74110999D01*
G75*
G02*
X111916999Y-73861000I249999J0D01*
G01*
G37*
G36*
G01*
X111916999Y-75911000D02*
X112817001Y-75911000D01*
G75*
G02*
X113067000Y-76160999I0J-249999D01*
G01*
X113067000Y-76811001D01*
G75*
G02*
X112817001Y-77061000I-249999J0D01*
G01*
X111916999Y-77061000D01*
G75*
G02*
X111667000Y-76811001I0J249999D01*
G01*
X111667000Y-76160999D01*
G75*
G02*
X111916999Y-75911000I249999J0D01*
G01*
G37*
%TD*%
%TO.C,C13*%
G36*
G01*
X107662500Y-93775000D02*
X108137500Y-93775000D01*
G75*
G02*
X108375000Y-94012500I0J-237500D01*
G01*
X108375000Y-94587500D01*
G75*
G02*
X108137500Y-94825000I-237500J0D01*
G01*
X107662500Y-94825000D01*
G75*
G02*
X107425000Y-94587500I0J237500D01*
G01*
X107425000Y-94012500D01*
G75*
G02*
X107662500Y-93775000I237500J0D01*
G01*
G37*
G36*
G01*
X107662500Y-95525000D02*
X108137500Y-95525000D01*
G75*
G02*
X108375000Y-95762500I0J-237500D01*
G01*
X108375000Y-96337500D01*
G75*
G02*
X108137500Y-96575000I-237500J0D01*
G01*
X107662500Y-96575000D01*
G75*
G02*
X107425000Y-96337500I0J237500D01*
G01*
X107425000Y-95762500D01*
G75*
G02*
X107662500Y-95525000I237500J0D01*
G01*
G37*
%TD*%
%TO.C,J1*%
G36*
G01*
X85492000Y-98061500D02*
X86742000Y-98061500D01*
G75*
G02*
X86967000Y-98286500I0J-225000D01*
G01*
X86967000Y-98736500D01*
G75*
G02*
X86742000Y-98961500I-225000J0D01*
G01*
X85492000Y-98961500D01*
G75*
G02*
X85267000Y-98736500I0J225000D01*
G01*
X85267000Y-98286500D01*
G75*
G02*
X85492000Y-98061500I225000J0D01*
G01*
G37*
G36*
G01*
X85492000Y-90161500D02*
X86742000Y-90161500D01*
G75*
G02*
X86967000Y-90386500I0J-225000D01*
G01*
X86967000Y-90836500D01*
G75*
G02*
X86742000Y-91061500I-225000J0D01*
G01*
X85492000Y-91061500D01*
G75*
G02*
X85267000Y-90836500I0J225000D01*
G01*
X85267000Y-90386500D01*
G75*
G02*
X85492000Y-90161500I225000J0D01*
G01*
G37*
G36*
G01*
X88767000Y-96761500D02*
X89717000Y-96761500D01*
G75*
G02*
X89867000Y-96911500I0J-150000D01*
G01*
X89867000Y-97211500D01*
G75*
G02*
X89717000Y-97361500I-150000J0D01*
G01*
X88767000Y-97361500D01*
G75*
G02*
X88617000Y-97211500I0J150000D01*
G01*
X88617000Y-96911500D01*
G75*
G02*
X88767000Y-96761500I150000J0D01*
G01*
G37*
G36*
G01*
X88767000Y-95761500D02*
X89717000Y-95761500D01*
G75*
G02*
X89867000Y-95911500I0J-150000D01*
G01*
X89867000Y-96211500D01*
G75*
G02*
X89717000Y-96361500I-150000J0D01*
G01*
X88767000Y-96361500D01*
G75*
G02*
X88617000Y-96211500I0J150000D01*
G01*
X88617000Y-95911500D01*
G75*
G02*
X88767000Y-95761500I150000J0D01*
G01*
G37*
G36*
G01*
X88767000Y-94761500D02*
X89717000Y-94761500D01*
G75*
G02*
X89867000Y-94911500I0J-150000D01*
G01*
X89867000Y-95211500D01*
G75*
G02*
X89717000Y-95361500I-150000J0D01*
G01*
X88767000Y-95361500D01*
G75*
G02*
X88617000Y-95211500I0J150000D01*
G01*
X88617000Y-94911500D01*
G75*
G02*
X88767000Y-94761500I150000J0D01*
G01*
G37*
G36*
G01*
X88767000Y-93761500D02*
X89717000Y-93761500D01*
G75*
G02*
X89867000Y-93911500I0J-150000D01*
G01*
X89867000Y-94211500D01*
G75*
G02*
X89717000Y-94361500I-150000J0D01*
G01*
X88767000Y-94361500D01*
G75*
G02*
X88617000Y-94211500I0J150000D01*
G01*
X88617000Y-93911500D01*
G75*
G02*
X88767000Y-93761500I150000J0D01*
G01*
G37*
G36*
G01*
X88767000Y-92761500D02*
X89717000Y-92761500D01*
G75*
G02*
X89867000Y-92911500I0J-150000D01*
G01*
X89867000Y-93211500D01*
G75*
G02*
X89717000Y-93361500I-150000J0D01*
G01*
X88767000Y-93361500D01*
G75*
G02*
X88617000Y-93211500I0J150000D01*
G01*
X88617000Y-92911500D01*
G75*
G02*
X88767000Y-92761500I150000J0D01*
G01*
G37*
G36*
G01*
X88767000Y-91761500D02*
X89717000Y-91761500D01*
G75*
G02*
X89867000Y-91911500I0J-150000D01*
G01*
X89867000Y-92211500D01*
G75*
G02*
X89717000Y-92361500I-150000J0D01*
G01*
X88767000Y-92361500D01*
G75*
G02*
X88617000Y-92211500I0J150000D01*
G01*
X88617000Y-91911500D01*
G75*
G02*
X88767000Y-91761500I150000J0D01*
G01*
G37*
%TD*%
%TO.C,R24*%
G36*
G01*
X114976001Y-75156000D02*
X114075999Y-75156000D01*
G75*
G02*
X113826000Y-74906001I0J249999D01*
G01*
X113826000Y-74255999D01*
G75*
G02*
X114075999Y-74006000I249999J0D01*
G01*
X114976001Y-74006000D01*
G75*
G02*
X115226000Y-74255999I0J-249999D01*
G01*
X115226000Y-74906001D01*
G75*
G02*
X114976001Y-75156000I-249999J0D01*
G01*
G37*
G36*
G01*
X114976001Y-73106000D02*
X114075999Y-73106000D01*
G75*
G02*
X113826000Y-72856001I0J249999D01*
G01*
X113826000Y-72205999D01*
G75*
G02*
X114075999Y-71956000I249999J0D01*
G01*
X114976001Y-71956000D01*
G75*
G02*
X115226000Y-72205999I0J-249999D01*
G01*
X115226000Y-72856001D01*
G75*
G02*
X114976001Y-73106000I-249999J0D01*
G01*
G37*
%TD*%
%TO.C,R25*%
G36*
G01*
X114075999Y-77752500D02*
X114976001Y-77752500D01*
G75*
G02*
X115226000Y-78002499I0J-249999D01*
G01*
X115226000Y-78652501D01*
G75*
G02*
X114976001Y-78902500I-249999J0D01*
G01*
X114075999Y-78902500D01*
G75*
G02*
X113826000Y-78652501I0J249999D01*
G01*
X113826000Y-78002499D01*
G75*
G02*
X114075999Y-77752500I249999J0D01*
G01*
G37*
G36*
G01*
X114075999Y-75702500D02*
X114976001Y-75702500D01*
G75*
G02*
X115226000Y-75952499I0J-249999D01*
G01*
X115226000Y-76602501D01*
G75*
G02*
X114976001Y-76852500I-249999J0D01*
G01*
X114075999Y-76852500D01*
G75*
G02*
X113826000Y-76602501I0J249999D01*
G01*
X113826000Y-75952499D01*
G75*
G02*
X114075999Y-75702500I249999J0D01*
G01*
G37*
%TD*%
%TO.C,U6*%
G36*
G01*
X110025000Y-97512500D02*
X110025000Y-97337500D01*
G75*
G02*
X110112500Y-97250000I87500J0D01*
G01*
X110962500Y-97250000D01*
G75*
G02*
X111050000Y-97337500I0J-87500D01*
G01*
X111050000Y-97512500D01*
G75*
G02*
X110962500Y-97600000I-87500J0D01*
G01*
X110112500Y-97600000D01*
G75*
G02*
X110025000Y-97512500I0J87500D01*
G01*
G37*
G36*
G01*
X110025000Y-98162500D02*
X110025000Y-97987500D01*
G75*
G02*
X110112500Y-97900000I87500J0D01*
G01*
X110962500Y-97900000D01*
G75*
G02*
X111050000Y-97987500I0J-87500D01*
G01*
X111050000Y-98162500D01*
G75*
G02*
X110962500Y-98250000I-87500J0D01*
G01*
X110112500Y-98250000D01*
G75*
G02*
X110025000Y-98162500I0J87500D01*
G01*
G37*
G36*
G01*
X110025000Y-98812500D02*
X110025000Y-98637500D01*
G75*
G02*
X110112500Y-98550000I87500J0D01*
G01*
X110962500Y-98550000D01*
G75*
G02*
X111050000Y-98637500I0J-87500D01*
G01*
X111050000Y-98812500D01*
G75*
G02*
X110962500Y-98900000I-87500J0D01*
G01*
X110112500Y-98900000D01*
G75*
G02*
X110025000Y-98812500I0J87500D01*
G01*
G37*
G36*
G01*
X110025000Y-99462500D02*
X110025000Y-99287500D01*
G75*
G02*
X110112500Y-99200000I87500J0D01*
G01*
X110962500Y-99200000D01*
G75*
G02*
X111050000Y-99287500I0J-87500D01*
G01*
X111050000Y-99462500D01*
G75*
G02*
X110962500Y-99550000I-87500J0D01*
G01*
X110112500Y-99550000D01*
G75*
G02*
X110025000Y-99462500I0J87500D01*
G01*
G37*
G36*
G01*
X111250000Y-100687500D02*
X111250000Y-99837500D01*
G75*
G02*
X111337500Y-99750000I87500J0D01*
G01*
X111512500Y-99750000D01*
G75*
G02*
X111600000Y-99837500I0J-87500D01*
G01*
X111600000Y-100687500D01*
G75*
G02*
X111512500Y-100775000I-87500J0D01*
G01*
X111337500Y-100775000D01*
G75*
G02*
X111250000Y-100687500I0J87500D01*
G01*
G37*
G36*
G01*
X111900000Y-100687500D02*
X111900000Y-99837500D01*
G75*
G02*
X111987500Y-99750000I87500J0D01*
G01*
X112162500Y-99750000D01*
G75*
G02*
X112250000Y-99837500I0J-87500D01*
G01*
X112250000Y-100687500D01*
G75*
G02*
X112162500Y-100775000I-87500J0D01*
G01*
X111987500Y-100775000D01*
G75*
G02*
X111900000Y-100687500I0J87500D01*
G01*
G37*
G36*
G01*
X112550000Y-100687500D02*
X112550000Y-99837500D01*
G75*
G02*
X112637500Y-99750000I87500J0D01*
G01*
X112812500Y-99750000D01*
G75*
G02*
X112900000Y-99837500I0J-87500D01*
G01*
X112900000Y-100687500D01*
G75*
G02*
X112812500Y-100775000I-87500J0D01*
G01*
X112637500Y-100775000D01*
G75*
G02*
X112550000Y-100687500I0J87500D01*
G01*
G37*
G36*
G01*
X113200000Y-100687500D02*
X113200000Y-99837500D01*
G75*
G02*
X113287500Y-99750000I87500J0D01*
G01*
X113462500Y-99750000D01*
G75*
G02*
X113550000Y-99837500I0J-87500D01*
G01*
X113550000Y-100687500D01*
G75*
G02*
X113462500Y-100775000I-87500J0D01*
G01*
X113287500Y-100775000D01*
G75*
G02*
X113200000Y-100687500I0J87500D01*
G01*
G37*
G36*
G01*
X113750000Y-99462500D02*
X113750000Y-99287500D01*
G75*
G02*
X113837500Y-99200000I87500J0D01*
G01*
X114687500Y-99200000D01*
G75*
G02*
X114775000Y-99287500I0J-87500D01*
G01*
X114775000Y-99462500D01*
G75*
G02*
X114687500Y-99550000I-87500J0D01*
G01*
X113837500Y-99550000D01*
G75*
G02*
X113750000Y-99462500I0J87500D01*
G01*
G37*
G36*
G01*
X113750000Y-98812500D02*
X113750000Y-98637500D01*
G75*
G02*
X113837500Y-98550000I87500J0D01*
G01*
X114687500Y-98550000D01*
G75*
G02*
X114775000Y-98637500I0J-87500D01*
G01*
X114775000Y-98812500D01*
G75*
G02*
X114687500Y-98900000I-87500J0D01*
G01*
X113837500Y-98900000D01*
G75*
G02*
X113750000Y-98812500I0J87500D01*
G01*
G37*
G36*
G01*
X113750000Y-98162500D02*
X113750000Y-97987500D01*
G75*
G02*
X113837500Y-97900000I87500J0D01*
G01*
X114687500Y-97900000D01*
G75*
G02*
X114775000Y-97987500I0J-87500D01*
G01*
X114775000Y-98162500D01*
G75*
G02*
X114687500Y-98250000I-87500J0D01*
G01*
X113837500Y-98250000D01*
G75*
G02*
X113750000Y-98162500I0J87500D01*
G01*
G37*
G36*
G01*
X113750000Y-97512500D02*
X113750000Y-97337500D01*
G75*
G02*
X113837500Y-97250000I87500J0D01*
G01*
X114687500Y-97250000D01*
G75*
G02*
X114775000Y-97337500I0J-87500D01*
G01*
X114775000Y-97512500D01*
G75*
G02*
X114687500Y-97600000I-87500J0D01*
G01*
X113837500Y-97600000D01*
G75*
G02*
X113750000Y-97512500I0J87500D01*
G01*
G37*
G36*
G01*
X113200000Y-96962500D02*
X113200000Y-96112500D01*
G75*
G02*
X113287500Y-96025000I87500J0D01*
G01*
X113462500Y-96025000D01*
G75*
G02*
X113550000Y-96112500I0J-87500D01*
G01*
X113550000Y-96962500D01*
G75*
G02*
X113462500Y-97050000I-87500J0D01*
G01*
X113287500Y-97050000D01*
G75*
G02*
X113200000Y-96962500I0J87500D01*
G01*
G37*
G36*
G01*
X112550000Y-96962500D02*
X112550000Y-96112500D01*
G75*
G02*
X112637500Y-96025000I87500J0D01*
G01*
X112812500Y-96025000D01*
G75*
G02*
X112900000Y-96112500I0J-87500D01*
G01*
X112900000Y-96962500D01*
G75*
G02*
X112812500Y-97050000I-87500J0D01*
G01*
X112637500Y-97050000D01*
G75*
G02*
X112550000Y-96962500I0J87500D01*
G01*
G37*
G36*
G01*
X111900000Y-96962500D02*
X111900000Y-96112500D01*
G75*
G02*
X111987500Y-96025000I87500J0D01*
G01*
X112162500Y-96025000D01*
G75*
G02*
X112250000Y-96112500I0J-87500D01*
G01*
X112250000Y-96962500D01*
G75*
G02*
X112162500Y-97050000I-87500J0D01*
G01*
X111987500Y-97050000D01*
G75*
G02*
X111900000Y-96962500I0J87500D01*
G01*
G37*
G36*
G01*
X111250000Y-96962500D02*
X111250000Y-96112500D01*
G75*
G02*
X111337500Y-96025000I87500J0D01*
G01*
X111512500Y-96025000D01*
G75*
G02*
X111600000Y-96112500I0J-87500D01*
G01*
X111600000Y-96962500D01*
G75*
G02*
X111512500Y-97050000I-87500J0D01*
G01*
X111337500Y-97050000D01*
G75*
G02*
X111250000Y-96962500I0J87500D01*
G01*
G37*
G36*
G01*
X111450000Y-98087500D02*
X111450000Y-97662500D01*
G75*
G02*
X111662500Y-97450000I212500J0D01*
G01*
X112087500Y-97450000D01*
G75*
G02*
X112300000Y-97662500I0J-212500D01*
G01*
X112300000Y-98087500D01*
G75*
G02*
X112087500Y-98300000I-212500J0D01*
G01*
X111662500Y-98300000D01*
G75*
G02*
X111450000Y-98087500I0J212500D01*
G01*
G37*
G36*
G01*
X111450000Y-99137500D02*
X111450000Y-98712500D01*
G75*
G02*
X111662500Y-98500000I212500J0D01*
G01*
X112087500Y-98500000D01*
G75*
G02*
X112300000Y-98712500I0J-212500D01*
G01*
X112300000Y-99137500D01*
G75*
G02*
X112087500Y-99350000I-212500J0D01*
G01*
X111662500Y-99350000D01*
G75*
G02*
X111450000Y-99137500I0J212500D01*
G01*
G37*
G36*
G01*
X112500000Y-98087500D02*
X112500000Y-97662500D01*
G75*
G02*
X112712500Y-97450000I212500J0D01*
G01*
X113137500Y-97450000D01*
G75*
G02*
X113350000Y-97662500I0J-212500D01*
G01*
X113350000Y-98087500D01*
G75*
G02*
X113137500Y-98300000I-212500J0D01*
G01*
X112712500Y-98300000D01*
G75*
G02*
X112500000Y-98087500I0J212500D01*
G01*
G37*
G36*
G01*
X112500000Y-99137500D02*
X112500000Y-98712500D01*
G75*
G02*
X112712500Y-98500000I212500J0D01*
G01*
X113137500Y-98500000D01*
G75*
G02*
X113350000Y-98712500I0J-212500D01*
G01*
X113350000Y-99137500D01*
G75*
G02*
X113137500Y-99350000I-212500J0D01*
G01*
X112712500Y-99350000D01*
G75*
G02*
X112500000Y-99137500I0J212500D01*
G01*
G37*
%TD*%
M02*
